%TF.GenerationSoftware,KiCad,Pcbnew,9.0.2*%
%TF.CreationDate,2025-07-07T17:16:47-07:00*%
%TF.ProjectId,switch_debounce_unit,73776974-6368-45f6-9465-626f756e6365,rev?*%
%TF.SameCoordinates,Original*%
%TF.FileFunction,Legend,Top*%
%TF.FilePolarity,Positive*%
%FSLAX46Y46*%
G04 Gerber Fmt 4.6, Leading zero omitted, Abs format (unit mm)*
G04 Created by KiCad (PCBNEW 9.0.2) date 2025-07-07 17:16:47*
%MOMM*%
%LPD*%
G01*
G04 APERTURE LIST*
G04 Aperture macros list*
%AMRoundRect*
0 Rectangle with rounded corners*
0 $1 Rounding radius*
0 $2 $3 $4 $5 $6 $7 $8 $9 X,Y pos of 4 corners*
0 Add a 4 corners polygon primitive as box body*
4,1,4,$2,$3,$4,$5,$6,$7,$8,$9,$2,$3,0*
0 Add four circle primitives for the rounded corners*
1,1,$1+$1,$2,$3*
1,1,$1+$1,$4,$5*
1,1,$1+$1,$6,$7*
1,1,$1+$1,$8,$9*
0 Add four rect primitives between the rounded corners*
20,1,$1+$1,$2,$3,$4,$5,0*
20,1,$1+$1,$4,$5,$6,$7,0*
20,1,$1+$1,$6,$7,$8,$9,0*
20,1,$1+$1,$8,$9,$2,$3,0*%
G04 Aperture macros list end*
%ADD10C,0.200000*%
%ADD11C,0.120000*%
%ADD12C,1.200000*%
%ADD13RoundRect,0.250000X-0.750000X0.600000X-0.750000X-0.600000X0.750000X-0.600000X0.750000X0.600000X0*%
%ADD14O,2.000000X1.700000*%
%ADD15C,1.600000*%
%ADD16RoundRect,0.250000X0.550000X-0.950000X0.550000X0.950000X-0.550000X0.950000X-0.550000X-0.950000X0*%
%ADD17O,1.600000X2.400000*%
%ADD18R,1.700000X1.700000*%
G04 APERTURE END LIST*
D10*
X19919600Y-20798041D02*
X19957695Y-20683755D01*
X19957695Y-20683755D02*
X19957695Y-20493279D01*
X19957695Y-20493279D02*
X19919600Y-20417088D01*
X19919600Y-20417088D02*
X19881504Y-20378993D01*
X19881504Y-20378993D02*
X19805314Y-20340898D01*
X19805314Y-20340898D02*
X19729123Y-20340898D01*
X19729123Y-20340898D02*
X19652933Y-20378993D01*
X19652933Y-20378993D02*
X19614838Y-20417088D01*
X19614838Y-20417088D02*
X19576742Y-20493279D01*
X19576742Y-20493279D02*
X19538647Y-20645660D01*
X19538647Y-20645660D02*
X19500552Y-20721850D01*
X19500552Y-20721850D02*
X19462457Y-20759945D01*
X19462457Y-20759945D02*
X19386266Y-20798041D01*
X19386266Y-20798041D02*
X19310076Y-20798041D01*
X19310076Y-20798041D02*
X19233885Y-20759945D01*
X19233885Y-20759945D02*
X19195790Y-20721850D01*
X19195790Y-20721850D02*
X19157695Y-20645660D01*
X19157695Y-20645660D02*
X19157695Y-20455183D01*
X19157695Y-20455183D02*
X19195790Y-20340898D01*
X19157695Y-20074231D02*
X19957695Y-19883755D01*
X19957695Y-19883755D02*
X19386266Y-19731374D01*
X19386266Y-19731374D02*
X19957695Y-19578993D01*
X19957695Y-19578993D02*
X19157695Y-19388517D01*
X19652933Y-19083754D02*
X19652933Y-18474231D01*
X19957695Y-18778992D02*
X19348171Y-18778992D01*
X19195790Y-15387898D02*
X19157695Y-15464088D01*
X19157695Y-15464088D02*
X19157695Y-15578374D01*
X19157695Y-15578374D02*
X19195790Y-15692660D01*
X19195790Y-15692660D02*
X19271980Y-15768850D01*
X19271980Y-15768850D02*
X19348171Y-15806945D01*
X19348171Y-15806945D02*
X19500552Y-15845041D01*
X19500552Y-15845041D02*
X19614838Y-15845041D01*
X19614838Y-15845041D02*
X19767219Y-15806945D01*
X19767219Y-15806945D02*
X19843409Y-15768850D01*
X19843409Y-15768850D02*
X19919600Y-15692660D01*
X19919600Y-15692660D02*
X19957695Y-15578374D01*
X19957695Y-15578374D02*
X19957695Y-15502183D01*
X19957695Y-15502183D02*
X19919600Y-15387898D01*
X19919600Y-15387898D02*
X19881504Y-15349802D01*
X19881504Y-15349802D02*
X19614838Y-15349802D01*
X19614838Y-15349802D02*
X19614838Y-15502183D01*
X19957695Y-15006945D02*
X19157695Y-15006945D01*
X19157695Y-15006945D02*
X19957695Y-14549802D01*
X19957695Y-14549802D02*
X19157695Y-14549802D01*
X19957695Y-14168850D02*
X19157695Y-14168850D01*
X19157695Y-14168850D02*
X19157695Y-13978374D01*
X19157695Y-13978374D02*
X19195790Y-13864088D01*
X19195790Y-13864088D02*
X19271980Y-13787898D01*
X19271980Y-13787898D02*
X19348171Y-13749803D01*
X19348171Y-13749803D02*
X19500552Y-13711707D01*
X19500552Y-13711707D02*
X19614838Y-13711707D01*
X19614838Y-13711707D02*
X19767219Y-13749803D01*
X19767219Y-13749803D02*
X19843409Y-13787898D01*
X19843409Y-13787898D02*
X19919600Y-13864088D01*
X19919600Y-13864088D02*
X19957695Y-13978374D01*
X19957695Y-13978374D02*
X19957695Y-14168850D01*
X26162000Y-28956000D02*
X30988000Y-28956000D01*
X24765000Y-30353000D02*
X26162000Y-28956000D01*
X20574000Y-30353000D02*
X24765000Y-30353000D01*
X19136609Y-29611898D02*
X19098514Y-29688088D01*
X19098514Y-29688088D02*
X19098514Y-29802374D01*
X19098514Y-29802374D02*
X19136609Y-29916660D01*
X19136609Y-29916660D02*
X19212799Y-29992850D01*
X19212799Y-29992850D02*
X19288990Y-30030945D01*
X19288990Y-30030945D02*
X19441371Y-30069041D01*
X19441371Y-30069041D02*
X19555657Y-30069041D01*
X19555657Y-30069041D02*
X19708038Y-30030945D01*
X19708038Y-30030945D02*
X19784228Y-29992850D01*
X19784228Y-29992850D02*
X19860419Y-29916660D01*
X19860419Y-29916660D02*
X19898514Y-29802374D01*
X19898514Y-29802374D02*
X19898514Y-29726183D01*
X19898514Y-29726183D02*
X19860419Y-29611898D01*
X19860419Y-29611898D02*
X19822323Y-29573802D01*
X19822323Y-29573802D02*
X19555657Y-29573802D01*
X19555657Y-29573802D02*
X19555657Y-29726183D01*
X19898514Y-29230945D02*
X19098514Y-29230945D01*
X19098514Y-29230945D02*
X19898514Y-28773802D01*
X19898514Y-28773802D02*
X19098514Y-28773802D01*
X19898514Y-28392850D02*
X19098514Y-28392850D01*
X19098514Y-28392850D02*
X19098514Y-28202374D01*
X19098514Y-28202374D02*
X19136609Y-28088088D01*
X19136609Y-28088088D02*
X19212799Y-28011898D01*
X19212799Y-28011898D02*
X19288990Y-27973803D01*
X19288990Y-27973803D02*
X19441371Y-27935707D01*
X19441371Y-27935707D02*
X19555657Y-27935707D01*
X19555657Y-27935707D02*
X19708038Y-27973803D01*
X19708038Y-27973803D02*
X19784228Y-28011898D01*
X19784228Y-28011898D02*
X19860419Y-28088088D01*
X19860419Y-28088088D02*
X19898514Y-28202374D01*
X19898514Y-28202374D02*
X19898514Y-28392850D01*
X19593752Y-24918770D02*
X19593752Y-24309247D01*
X19898514Y-24614008D02*
X19288990Y-24614008D01*
X19098514Y-23547342D02*
X19098514Y-23928294D01*
X19098514Y-23928294D02*
X19479466Y-23966390D01*
X19479466Y-23966390D02*
X19441371Y-23928294D01*
X19441371Y-23928294D02*
X19403276Y-23852104D01*
X19403276Y-23852104D02*
X19403276Y-23661628D01*
X19403276Y-23661628D02*
X19441371Y-23585437D01*
X19441371Y-23585437D02*
X19479466Y-23547342D01*
X19479466Y-23547342D02*
X19555657Y-23509247D01*
X19555657Y-23509247D02*
X19746133Y-23509247D01*
X19746133Y-23509247D02*
X19822323Y-23547342D01*
X19822323Y-23547342D02*
X19860419Y-23585437D01*
X19860419Y-23585437D02*
X19898514Y-23661628D01*
X19898514Y-23661628D02*
X19898514Y-23852104D01*
X19898514Y-23852104D02*
X19860419Y-23928294D01*
X19860419Y-23928294D02*
X19822323Y-23966390D01*
X19098514Y-23280675D02*
X19898514Y-23014008D01*
X19898514Y-23014008D02*
X19098514Y-22747342D01*
X61254000Y-18783656D02*
X61396857Y-18831275D01*
X61396857Y-18831275D02*
X61634952Y-18831275D01*
X61634952Y-18831275D02*
X61730190Y-18783656D01*
X61730190Y-18783656D02*
X61777809Y-18736036D01*
X61777809Y-18736036D02*
X61825428Y-18640798D01*
X61825428Y-18640798D02*
X61825428Y-18545560D01*
X61825428Y-18545560D02*
X61777809Y-18450322D01*
X61777809Y-18450322D02*
X61730190Y-18402703D01*
X61730190Y-18402703D02*
X61634952Y-18355084D01*
X61634952Y-18355084D02*
X61444476Y-18307465D01*
X61444476Y-18307465D02*
X61349238Y-18259846D01*
X61349238Y-18259846D02*
X61301619Y-18212227D01*
X61301619Y-18212227D02*
X61254000Y-18116989D01*
X61254000Y-18116989D02*
X61254000Y-18021751D01*
X61254000Y-18021751D02*
X61301619Y-17926513D01*
X61301619Y-17926513D02*
X61349238Y-17878894D01*
X61349238Y-17878894D02*
X61444476Y-17831275D01*
X61444476Y-17831275D02*
X61682571Y-17831275D01*
X61682571Y-17831275D02*
X61825428Y-17878894D01*
X62158762Y-17831275D02*
X62396857Y-18831275D01*
X62396857Y-18831275D02*
X62587333Y-18116989D01*
X62587333Y-18116989D02*
X62777809Y-18831275D01*
X62777809Y-18831275D02*
X63015905Y-17831275D01*
X63396857Y-18831275D02*
X63396857Y-17831275D01*
X63730190Y-17831275D02*
X64301618Y-17831275D01*
X64015904Y-18831275D02*
X64015904Y-17831275D01*
X65206380Y-18736036D02*
X65158761Y-18783656D01*
X65158761Y-18783656D02*
X65015904Y-18831275D01*
X65015904Y-18831275D02*
X64920666Y-18831275D01*
X64920666Y-18831275D02*
X64777809Y-18783656D01*
X64777809Y-18783656D02*
X64682571Y-18688417D01*
X64682571Y-18688417D02*
X64634952Y-18593179D01*
X64634952Y-18593179D02*
X64587333Y-18402703D01*
X64587333Y-18402703D02*
X64587333Y-18259846D01*
X64587333Y-18259846D02*
X64634952Y-18069370D01*
X64634952Y-18069370D02*
X64682571Y-17974132D01*
X64682571Y-17974132D02*
X64777809Y-17878894D01*
X64777809Y-17878894D02*
X64920666Y-17831275D01*
X64920666Y-17831275D02*
X65015904Y-17831275D01*
X65015904Y-17831275D02*
X65158761Y-17878894D01*
X65158761Y-17878894D02*
X65206380Y-17926513D01*
X65634952Y-18831275D02*
X65634952Y-17831275D01*
X65634952Y-18307465D02*
X66206380Y-18307465D01*
X66206380Y-18831275D02*
X66206380Y-17831275D01*
X62754000Y-19441219D02*
X62944476Y-19441219D01*
X62944476Y-19441219D02*
X63039714Y-19488838D01*
X63039714Y-19488838D02*
X63134952Y-19584076D01*
X63134952Y-19584076D02*
X63182571Y-19774552D01*
X63182571Y-19774552D02*
X63182571Y-20107885D01*
X63182571Y-20107885D02*
X63134952Y-20298361D01*
X63134952Y-20298361D02*
X63039714Y-20393600D01*
X63039714Y-20393600D02*
X62944476Y-20441219D01*
X62944476Y-20441219D02*
X62754000Y-20441219D01*
X62754000Y-20441219D02*
X62658762Y-20393600D01*
X62658762Y-20393600D02*
X62563524Y-20298361D01*
X62563524Y-20298361D02*
X62515905Y-20107885D01*
X62515905Y-20107885D02*
X62515905Y-19774552D01*
X62515905Y-19774552D02*
X62563524Y-19584076D01*
X62563524Y-19584076D02*
X62658762Y-19488838D01*
X62658762Y-19488838D02*
X62754000Y-19441219D01*
X63611143Y-19441219D02*
X63611143Y-20250742D01*
X63611143Y-20250742D02*
X63658762Y-20345980D01*
X63658762Y-20345980D02*
X63706381Y-20393600D01*
X63706381Y-20393600D02*
X63801619Y-20441219D01*
X63801619Y-20441219D02*
X63992095Y-20441219D01*
X63992095Y-20441219D02*
X64087333Y-20393600D01*
X64087333Y-20393600D02*
X64134952Y-20345980D01*
X64134952Y-20345980D02*
X64182571Y-20250742D01*
X64182571Y-20250742D02*
X64182571Y-19441219D01*
X64515905Y-19441219D02*
X65087333Y-19441219D01*
X64801619Y-20441219D02*
X64801619Y-19441219D01*
X26252292Y-29855219D02*
X26766578Y-29855219D01*
X26509435Y-30855219D02*
X26509435Y-29855219D01*
X27066577Y-30331409D02*
X27366577Y-30331409D01*
X27495149Y-30855219D02*
X27066577Y-30855219D01*
X27066577Y-30855219D02*
X27066577Y-29855219D01*
X27066577Y-29855219D02*
X27495149Y-29855219D01*
X27838006Y-30569504D02*
X28266578Y-30569504D01*
X27752292Y-30855219D02*
X28052292Y-29855219D01*
X28052292Y-29855219D02*
X28352292Y-30855219D01*
X28652292Y-30855219D02*
X28652292Y-29855219D01*
X28652292Y-29855219D02*
X28952292Y-30569504D01*
X28952292Y-30569504D02*
X29252292Y-29855219D01*
X29252292Y-29855219D02*
X29252292Y-30855219D01*
X30495149Y-30283790D02*
X30409434Y-30236171D01*
X30409434Y-30236171D02*
X30366577Y-30188552D01*
X30366577Y-30188552D02*
X30323720Y-30093314D01*
X30323720Y-30093314D02*
X30323720Y-30045695D01*
X30323720Y-30045695D02*
X30366577Y-29950457D01*
X30366577Y-29950457D02*
X30409434Y-29902838D01*
X30409434Y-29902838D02*
X30495149Y-29855219D01*
X30495149Y-29855219D02*
X30666577Y-29855219D01*
X30666577Y-29855219D02*
X30752292Y-29902838D01*
X30752292Y-29902838D02*
X30795149Y-29950457D01*
X30795149Y-29950457D02*
X30838006Y-30045695D01*
X30838006Y-30045695D02*
X30838006Y-30093314D01*
X30838006Y-30093314D02*
X30795149Y-30188552D01*
X30795149Y-30188552D02*
X30752292Y-30236171D01*
X30752292Y-30236171D02*
X30666577Y-30283790D01*
X30666577Y-30283790D02*
X30495149Y-30283790D01*
X30495149Y-30283790D02*
X30409434Y-30331409D01*
X30409434Y-30331409D02*
X30366577Y-30379028D01*
X30366577Y-30379028D02*
X30323720Y-30474266D01*
X30323720Y-30474266D02*
X30323720Y-30664742D01*
X30323720Y-30664742D02*
X30366577Y-30759980D01*
X30366577Y-30759980D02*
X30409434Y-30807600D01*
X30409434Y-30807600D02*
X30495149Y-30855219D01*
X30495149Y-30855219D02*
X30666577Y-30855219D01*
X30666577Y-30855219D02*
X30752292Y-30807600D01*
X30752292Y-30807600D02*
X30795149Y-30759980D01*
X30795149Y-30759980D02*
X30838006Y-30664742D01*
X30838006Y-30664742D02*
X30838006Y-30474266D01*
X30838006Y-30474266D02*
X30795149Y-30379028D01*
X30795149Y-30379028D02*
X30752292Y-30331409D01*
X30752292Y-30331409D02*
X30666577Y-30283790D01*
X13079197Y-32915600D02*
X13264911Y-32977504D01*
X13264911Y-32977504D02*
X13574435Y-32977504D01*
X13574435Y-32977504D02*
X13698244Y-32915600D01*
X13698244Y-32915600D02*
X13760149Y-32853695D01*
X13760149Y-32853695D02*
X13822054Y-32729885D01*
X13822054Y-32729885D02*
X13822054Y-32606076D01*
X13822054Y-32606076D02*
X13760149Y-32482266D01*
X13760149Y-32482266D02*
X13698244Y-32420361D01*
X13698244Y-32420361D02*
X13574435Y-32358457D01*
X13574435Y-32358457D02*
X13326816Y-32296552D01*
X13326816Y-32296552D02*
X13203006Y-32234647D01*
X13203006Y-32234647D02*
X13141101Y-32172742D01*
X13141101Y-32172742D02*
X13079197Y-32048933D01*
X13079197Y-32048933D02*
X13079197Y-31925123D01*
X13079197Y-31925123D02*
X13141101Y-31801314D01*
X13141101Y-31801314D02*
X13203006Y-31739409D01*
X13203006Y-31739409D02*
X13326816Y-31677504D01*
X13326816Y-31677504D02*
X13636339Y-31677504D01*
X13636339Y-31677504D02*
X13822054Y-31739409D01*
X14255387Y-31677504D02*
X14564911Y-32977504D01*
X14564911Y-32977504D02*
X14812530Y-32048933D01*
X14812530Y-32048933D02*
X15060149Y-32977504D01*
X15060149Y-32977504D02*
X15369673Y-31677504D01*
X15864910Y-32977504D02*
X15864910Y-31677504D01*
X16298244Y-31677504D02*
X17041101Y-31677504D01*
X16669673Y-32977504D02*
X16669673Y-31677504D01*
X18217291Y-32853695D02*
X18155387Y-32915600D01*
X18155387Y-32915600D02*
X17969672Y-32977504D01*
X17969672Y-32977504D02*
X17845863Y-32977504D01*
X17845863Y-32977504D02*
X17660149Y-32915600D01*
X17660149Y-32915600D02*
X17536339Y-32791790D01*
X17536339Y-32791790D02*
X17474434Y-32667980D01*
X17474434Y-32667980D02*
X17412530Y-32420361D01*
X17412530Y-32420361D02*
X17412530Y-32234647D01*
X17412530Y-32234647D02*
X17474434Y-31987028D01*
X17474434Y-31987028D02*
X17536339Y-31863219D01*
X17536339Y-31863219D02*
X17660149Y-31739409D01*
X17660149Y-31739409D02*
X17845863Y-31677504D01*
X17845863Y-31677504D02*
X17969672Y-31677504D01*
X17969672Y-31677504D02*
X18155387Y-31739409D01*
X18155387Y-31739409D02*
X18217291Y-31801314D01*
X18774434Y-32977504D02*
X18774434Y-31677504D01*
X18774434Y-32296552D02*
X19517291Y-32296552D01*
X19517291Y-32977504D02*
X19517291Y-31677504D01*
X21126815Y-32977504D02*
X21126815Y-31677504D01*
X21126815Y-31677504D02*
X21436339Y-31677504D01*
X21436339Y-31677504D02*
X21622053Y-31739409D01*
X21622053Y-31739409D02*
X21745863Y-31863219D01*
X21745863Y-31863219D02*
X21807768Y-31987028D01*
X21807768Y-31987028D02*
X21869672Y-32234647D01*
X21869672Y-32234647D02*
X21869672Y-32420361D01*
X21869672Y-32420361D02*
X21807768Y-32667980D01*
X21807768Y-32667980D02*
X21745863Y-32791790D01*
X21745863Y-32791790D02*
X21622053Y-32915600D01*
X21622053Y-32915600D02*
X21436339Y-32977504D01*
X21436339Y-32977504D02*
X21126815Y-32977504D01*
X22426815Y-32296552D02*
X22860149Y-32296552D01*
X23045863Y-32977504D02*
X22426815Y-32977504D01*
X22426815Y-32977504D02*
X22426815Y-31677504D01*
X22426815Y-31677504D02*
X23045863Y-31677504D01*
X24036339Y-32296552D02*
X24222053Y-32358457D01*
X24222053Y-32358457D02*
X24283958Y-32420361D01*
X24283958Y-32420361D02*
X24345862Y-32544171D01*
X24345862Y-32544171D02*
X24345862Y-32729885D01*
X24345862Y-32729885D02*
X24283958Y-32853695D01*
X24283958Y-32853695D02*
X24222053Y-32915600D01*
X24222053Y-32915600D02*
X24098243Y-32977504D01*
X24098243Y-32977504D02*
X23603005Y-32977504D01*
X23603005Y-32977504D02*
X23603005Y-31677504D01*
X23603005Y-31677504D02*
X24036339Y-31677504D01*
X24036339Y-31677504D02*
X24160148Y-31739409D01*
X24160148Y-31739409D02*
X24222053Y-31801314D01*
X24222053Y-31801314D02*
X24283958Y-31925123D01*
X24283958Y-31925123D02*
X24283958Y-32048933D01*
X24283958Y-32048933D02*
X24222053Y-32172742D01*
X24222053Y-32172742D02*
X24160148Y-32234647D01*
X24160148Y-32234647D02*
X24036339Y-32296552D01*
X24036339Y-32296552D02*
X23603005Y-32296552D01*
X25150624Y-31677504D02*
X25398243Y-31677504D01*
X25398243Y-31677504D02*
X25522053Y-31739409D01*
X25522053Y-31739409D02*
X25645862Y-31863219D01*
X25645862Y-31863219D02*
X25707767Y-32110838D01*
X25707767Y-32110838D02*
X25707767Y-32544171D01*
X25707767Y-32544171D02*
X25645862Y-32791790D01*
X25645862Y-32791790D02*
X25522053Y-32915600D01*
X25522053Y-32915600D02*
X25398243Y-32977504D01*
X25398243Y-32977504D02*
X25150624Y-32977504D01*
X25150624Y-32977504D02*
X25026815Y-32915600D01*
X25026815Y-32915600D02*
X24903005Y-32791790D01*
X24903005Y-32791790D02*
X24841101Y-32544171D01*
X24841101Y-32544171D02*
X24841101Y-32110838D01*
X24841101Y-32110838D02*
X24903005Y-31863219D01*
X24903005Y-31863219D02*
X25026815Y-31739409D01*
X25026815Y-31739409D02*
X25150624Y-31677504D01*
X26264910Y-31677504D02*
X26264910Y-32729885D01*
X26264910Y-32729885D02*
X26326815Y-32853695D01*
X26326815Y-32853695D02*
X26388720Y-32915600D01*
X26388720Y-32915600D02*
X26512529Y-32977504D01*
X26512529Y-32977504D02*
X26760148Y-32977504D01*
X26760148Y-32977504D02*
X26883958Y-32915600D01*
X26883958Y-32915600D02*
X26945863Y-32853695D01*
X26945863Y-32853695D02*
X27007767Y-32729885D01*
X27007767Y-32729885D02*
X27007767Y-31677504D01*
X27626815Y-32977504D02*
X27626815Y-31677504D01*
X27626815Y-31677504D02*
X28369672Y-32977504D01*
X28369672Y-32977504D02*
X28369672Y-31677504D01*
X29731577Y-32853695D02*
X29669673Y-32915600D01*
X29669673Y-32915600D02*
X29483958Y-32977504D01*
X29483958Y-32977504D02*
X29360149Y-32977504D01*
X29360149Y-32977504D02*
X29174435Y-32915600D01*
X29174435Y-32915600D02*
X29050625Y-32791790D01*
X29050625Y-32791790D02*
X28988720Y-32667980D01*
X28988720Y-32667980D02*
X28926816Y-32420361D01*
X28926816Y-32420361D02*
X28926816Y-32234647D01*
X28926816Y-32234647D02*
X28988720Y-31987028D01*
X28988720Y-31987028D02*
X29050625Y-31863219D01*
X29050625Y-31863219D02*
X29174435Y-31739409D01*
X29174435Y-31739409D02*
X29360149Y-31677504D01*
X29360149Y-31677504D02*
X29483958Y-31677504D01*
X29483958Y-31677504D02*
X29669673Y-31739409D01*
X29669673Y-31739409D02*
X29731577Y-31801314D01*
X30288720Y-32296552D02*
X30722054Y-32296552D01*
X30907768Y-32977504D02*
X30288720Y-32977504D01*
X30288720Y-32977504D02*
X30288720Y-31677504D01*
X30288720Y-31677504D02*
X30907768Y-31677504D01*
X50236219Y-20947047D02*
X50236219Y-21518475D01*
X50236219Y-21232761D02*
X49236219Y-21232761D01*
X49236219Y-21232761D02*
X49379076Y-21327999D01*
X49379076Y-21327999D02*
X49474314Y-21423237D01*
X49474314Y-21423237D02*
X49521933Y-21518475D01*
X50236219Y-20518475D02*
X49236219Y-20518475D01*
X49855266Y-20423237D02*
X50236219Y-20137523D01*
X49569552Y-20137523D02*
X49950504Y-20518475D01*
X53887552Y-21518476D02*
X54554219Y-21518476D01*
X53506600Y-21756571D02*
X54220885Y-21994666D01*
X54220885Y-21994666D02*
X54220885Y-21375619D01*
X53554219Y-21089904D02*
X53554219Y-20423238D01*
X53554219Y-20423238D02*
X54554219Y-20851809D01*
X54554219Y-20042285D02*
X53554219Y-20042285D01*
X54173266Y-19947047D02*
X54554219Y-19661333D01*
X53887552Y-19661333D02*
X54268504Y-20042285D01*
X39965523Y-19248219D02*
X39489333Y-19248219D01*
X39489333Y-19248219D02*
X39489333Y-18248219D01*
X40298857Y-19248219D02*
X40298857Y-18248219D01*
X40298857Y-18248219D02*
X40632190Y-18962504D01*
X40632190Y-18962504D02*
X40965523Y-18248219D01*
X40965523Y-18248219D02*
X40965523Y-19248219D01*
X41346476Y-18248219D02*
X41965523Y-18248219D01*
X41965523Y-18248219D02*
X41632190Y-18629171D01*
X41632190Y-18629171D02*
X41775047Y-18629171D01*
X41775047Y-18629171D02*
X41870285Y-18676790D01*
X41870285Y-18676790D02*
X41917904Y-18724409D01*
X41917904Y-18724409D02*
X41965523Y-18819647D01*
X41965523Y-18819647D02*
X41965523Y-19057742D01*
X41965523Y-19057742D02*
X41917904Y-19152980D01*
X41917904Y-19152980D02*
X41870285Y-19200600D01*
X41870285Y-19200600D02*
X41775047Y-19248219D01*
X41775047Y-19248219D02*
X41489333Y-19248219D01*
X41489333Y-19248219D02*
X41394095Y-19200600D01*
X41394095Y-19200600D02*
X41346476Y-19152980D01*
X42917904Y-19248219D02*
X42346476Y-19248219D01*
X42632190Y-19248219D02*
X42632190Y-18248219D01*
X42632190Y-18248219D02*
X42536952Y-18391076D01*
X42536952Y-18391076D02*
X42441714Y-18486314D01*
X42441714Y-18486314D02*
X42346476Y-18533933D01*
X43870285Y-19248219D02*
X43298857Y-19248219D01*
X43584571Y-19248219D02*
X43584571Y-18248219D01*
X43584571Y-18248219D02*
X43489333Y-18391076D01*
X43489333Y-18391076D02*
X43394095Y-18486314D01*
X43394095Y-18486314D02*
X43298857Y-18533933D01*
X38298571Y-31440219D02*
X37727143Y-31440219D01*
X38012857Y-31440219D02*
X38012857Y-30440219D01*
X38012857Y-30440219D02*
X37917619Y-30583076D01*
X37917619Y-30583076D02*
X37822381Y-30678314D01*
X37822381Y-30678314D02*
X37727143Y-30725933D01*
X38917619Y-30440219D02*
X39012857Y-30440219D01*
X39012857Y-30440219D02*
X39108095Y-30487838D01*
X39108095Y-30487838D02*
X39155714Y-30535457D01*
X39155714Y-30535457D02*
X39203333Y-30630695D01*
X39203333Y-30630695D02*
X39250952Y-30821171D01*
X39250952Y-30821171D02*
X39250952Y-31059266D01*
X39250952Y-31059266D02*
X39203333Y-31249742D01*
X39203333Y-31249742D02*
X39155714Y-31344980D01*
X39155714Y-31344980D02*
X39108095Y-31392600D01*
X39108095Y-31392600D02*
X39012857Y-31440219D01*
X39012857Y-31440219D02*
X38917619Y-31440219D01*
X38917619Y-31440219D02*
X38822381Y-31392600D01*
X38822381Y-31392600D02*
X38774762Y-31344980D01*
X38774762Y-31344980D02*
X38727143Y-31249742D01*
X38727143Y-31249742D02*
X38679524Y-31059266D01*
X38679524Y-31059266D02*
X38679524Y-30821171D01*
X38679524Y-30821171D02*
X38727143Y-30630695D01*
X38727143Y-30630695D02*
X38774762Y-30535457D01*
X38774762Y-30535457D02*
X38822381Y-30487838D01*
X38822381Y-30487838D02*
X38917619Y-30440219D01*
X39870000Y-30440219D02*
X39965238Y-30440219D01*
X39965238Y-30440219D02*
X40060476Y-30487838D01*
X40060476Y-30487838D02*
X40108095Y-30535457D01*
X40108095Y-30535457D02*
X40155714Y-30630695D01*
X40155714Y-30630695D02*
X40203333Y-30821171D01*
X40203333Y-30821171D02*
X40203333Y-31059266D01*
X40203333Y-31059266D02*
X40155714Y-31249742D01*
X40155714Y-31249742D02*
X40108095Y-31344980D01*
X40108095Y-31344980D02*
X40060476Y-31392600D01*
X40060476Y-31392600D02*
X39965238Y-31440219D01*
X39965238Y-31440219D02*
X39870000Y-31440219D01*
X39870000Y-31440219D02*
X39774762Y-31392600D01*
X39774762Y-31392600D02*
X39727143Y-31344980D01*
X39727143Y-31344980D02*
X39679524Y-31249742D01*
X39679524Y-31249742D02*
X39631905Y-31059266D01*
X39631905Y-31059266D02*
X39631905Y-30821171D01*
X39631905Y-30821171D02*
X39679524Y-30630695D01*
X39679524Y-30630695D02*
X39727143Y-30535457D01*
X39727143Y-30535457D02*
X39774762Y-30487838D01*
X39774762Y-30487838D02*
X39870000Y-30440219D01*
X40631905Y-31440219D02*
X40631905Y-30440219D01*
X40727143Y-31059266D02*
X41012857Y-31440219D01*
X41012857Y-30773552D02*
X40631905Y-31154504D01*
X38298571Y-27122219D02*
X37727143Y-27122219D01*
X38012857Y-27122219D02*
X38012857Y-26122219D01*
X38012857Y-26122219D02*
X37917619Y-26265076D01*
X37917619Y-26265076D02*
X37822381Y-26360314D01*
X37822381Y-26360314D02*
X37727143Y-26407933D01*
X38917619Y-26122219D02*
X39012857Y-26122219D01*
X39012857Y-26122219D02*
X39108095Y-26169838D01*
X39108095Y-26169838D02*
X39155714Y-26217457D01*
X39155714Y-26217457D02*
X39203333Y-26312695D01*
X39203333Y-26312695D02*
X39250952Y-26503171D01*
X39250952Y-26503171D02*
X39250952Y-26741266D01*
X39250952Y-26741266D02*
X39203333Y-26931742D01*
X39203333Y-26931742D02*
X39155714Y-27026980D01*
X39155714Y-27026980D02*
X39108095Y-27074600D01*
X39108095Y-27074600D02*
X39012857Y-27122219D01*
X39012857Y-27122219D02*
X38917619Y-27122219D01*
X38917619Y-27122219D02*
X38822381Y-27074600D01*
X38822381Y-27074600D02*
X38774762Y-27026980D01*
X38774762Y-27026980D02*
X38727143Y-26931742D01*
X38727143Y-26931742D02*
X38679524Y-26741266D01*
X38679524Y-26741266D02*
X38679524Y-26503171D01*
X38679524Y-26503171D02*
X38727143Y-26312695D01*
X38727143Y-26312695D02*
X38774762Y-26217457D01*
X38774762Y-26217457D02*
X38822381Y-26169838D01*
X38822381Y-26169838D02*
X38917619Y-26122219D01*
X39870000Y-26122219D02*
X39965238Y-26122219D01*
X39965238Y-26122219D02*
X40060476Y-26169838D01*
X40060476Y-26169838D02*
X40108095Y-26217457D01*
X40108095Y-26217457D02*
X40155714Y-26312695D01*
X40155714Y-26312695D02*
X40203333Y-26503171D01*
X40203333Y-26503171D02*
X40203333Y-26741266D01*
X40203333Y-26741266D02*
X40155714Y-26931742D01*
X40155714Y-26931742D02*
X40108095Y-27026980D01*
X40108095Y-27026980D02*
X40060476Y-27074600D01*
X40060476Y-27074600D02*
X39965238Y-27122219D01*
X39965238Y-27122219D02*
X39870000Y-27122219D01*
X39870000Y-27122219D02*
X39774762Y-27074600D01*
X39774762Y-27074600D02*
X39727143Y-27026980D01*
X39727143Y-27026980D02*
X39679524Y-26931742D01*
X39679524Y-26931742D02*
X39631905Y-26741266D01*
X39631905Y-26741266D02*
X39631905Y-26503171D01*
X39631905Y-26503171D02*
X39679524Y-26312695D01*
X39679524Y-26312695D02*
X39727143Y-26217457D01*
X39727143Y-26217457D02*
X39774762Y-26169838D01*
X39774762Y-26169838D02*
X39870000Y-26122219D01*
X40631905Y-27122219D02*
X40631905Y-26122219D01*
X40727143Y-26741266D02*
X41012857Y-27122219D01*
X41012857Y-26455552D02*
X40631905Y-26836504D01*
X27344761Y-15946219D02*
X26773333Y-15946219D01*
X27059047Y-15946219D02*
X27059047Y-14946219D01*
X27059047Y-14946219D02*
X26963809Y-15089076D01*
X26963809Y-15089076D02*
X26868571Y-15184314D01*
X26868571Y-15184314D02*
X26773333Y-15231933D01*
X27963809Y-14946219D02*
X28059047Y-14946219D01*
X28059047Y-14946219D02*
X28154285Y-14993838D01*
X28154285Y-14993838D02*
X28201904Y-15041457D01*
X28201904Y-15041457D02*
X28249523Y-15136695D01*
X28249523Y-15136695D02*
X28297142Y-15327171D01*
X28297142Y-15327171D02*
X28297142Y-15565266D01*
X28297142Y-15565266D02*
X28249523Y-15755742D01*
X28249523Y-15755742D02*
X28201904Y-15850980D01*
X28201904Y-15850980D02*
X28154285Y-15898600D01*
X28154285Y-15898600D02*
X28059047Y-15946219D01*
X28059047Y-15946219D02*
X27963809Y-15946219D01*
X27963809Y-15946219D02*
X27868571Y-15898600D01*
X27868571Y-15898600D02*
X27820952Y-15850980D01*
X27820952Y-15850980D02*
X27773333Y-15755742D01*
X27773333Y-15755742D02*
X27725714Y-15565266D01*
X27725714Y-15565266D02*
X27725714Y-15327171D01*
X27725714Y-15327171D02*
X27773333Y-15136695D01*
X27773333Y-15136695D02*
X27820952Y-15041457D01*
X27820952Y-15041457D02*
X27868571Y-14993838D01*
X27868571Y-14993838D02*
X27963809Y-14946219D01*
X28725714Y-15946219D02*
X28725714Y-14946219D01*
X28820952Y-15565266D02*
X29106666Y-15946219D01*
X29106666Y-15279552D02*
X28725714Y-15660504D01*
X27820952Y-20010219D02*
X27249524Y-20010219D01*
X27535238Y-20010219D02*
X27535238Y-19010219D01*
X27535238Y-19010219D02*
X27440000Y-19153076D01*
X27440000Y-19153076D02*
X27344762Y-19248314D01*
X27344762Y-19248314D02*
X27249524Y-19295933D01*
X28249524Y-20010219D02*
X28249524Y-19010219D01*
X28344762Y-19629266D02*
X28630476Y-20010219D01*
X28630476Y-19343552D02*
X28249524Y-19724504D01*
X58872219Y-21899428D02*
X58872219Y-22470856D01*
X58872219Y-22185142D02*
X57872219Y-22185142D01*
X57872219Y-22185142D02*
X58015076Y-22280380D01*
X58015076Y-22280380D02*
X58110314Y-22375618D01*
X58110314Y-22375618D02*
X58157933Y-22470856D01*
X57872219Y-21280380D02*
X57872219Y-21185142D01*
X57872219Y-21185142D02*
X57919838Y-21089904D01*
X57919838Y-21089904D02*
X57967457Y-21042285D01*
X57967457Y-21042285D02*
X58062695Y-20994666D01*
X58062695Y-20994666D02*
X58253171Y-20947047D01*
X58253171Y-20947047D02*
X58491266Y-20947047D01*
X58491266Y-20947047D02*
X58681742Y-20994666D01*
X58681742Y-20994666D02*
X58776980Y-21042285D01*
X58776980Y-21042285D02*
X58824600Y-21089904D01*
X58824600Y-21089904D02*
X58872219Y-21185142D01*
X58872219Y-21185142D02*
X58872219Y-21280380D01*
X58872219Y-21280380D02*
X58824600Y-21375618D01*
X58824600Y-21375618D02*
X58776980Y-21423237D01*
X58776980Y-21423237D02*
X58681742Y-21470856D01*
X58681742Y-21470856D02*
X58491266Y-21518475D01*
X58491266Y-21518475D02*
X58253171Y-21518475D01*
X58253171Y-21518475D02*
X58062695Y-21470856D01*
X58062695Y-21470856D02*
X57967457Y-21423237D01*
X57967457Y-21423237D02*
X57919838Y-21375618D01*
X57919838Y-21375618D02*
X57872219Y-21280380D01*
X57872219Y-20327999D02*
X57872219Y-20232761D01*
X57872219Y-20232761D02*
X57919838Y-20137523D01*
X57919838Y-20137523D02*
X57967457Y-20089904D01*
X57967457Y-20089904D02*
X58062695Y-20042285D01*
X58062695Y-20042285D02*
X58253171Y-19994666D01*
X58253171Y-19994666D02*
X58491266Y-19994666D01*
X58491266Y-19994666D02*
X58681742Y-20042285D01*
X58681742Y-20042285D02*
X58776980Y-20089904D01*
X58776980Y-20089904D02*
X58824600Y-20137523D01*
X58824600Y-20137523D02*
X58872219Y-20232761D01*
X58872219Y-20232761D02*
X58872219Y-20327999D01*
X58872219Y-20327999D02*
X58824600Y-20423237D01*
X58824600Y-20423237D02*
X58776980Y-20470856D01*
X58776980Y-20470856D02*
X58681742Y-20518475D01*
X58681742Y-20518475D02*
X58491266Y-20566094D01*
X58491266Y-20566094D02*
X58253171Y-20566094D01*
X58253171Y-20566094D02*
X58062695Y-20518475D01*
X58062695Y-20518475D02*
X57967457Y-20470856D01*
X57967457Y-20470856D02*
X57919838Y-20423237D01*
X57919838Y-20423237D02*
X57872219Y-20327999D01*
X58872219Y-19566094D02*
X57872219Y-19566094D01*
X58491266Y-19470856D02*
X58872219Y-19185142D01*
X58205552Y-19185142D02*
X58586504Y-19566094D01*
X54300571Y-31440219D02*
X53729143Y-31440219D01*
X54014857Y-31440219D02*
X54014857Y-30440219D01*
X54014857Y-30440219D02*
X53919619Y-30583076D01*
X53919619Y-30583076D02*
X53824381Y-30678314D01*
X53824381Y-30678314D02*
X53729143Y-30725933D01*
X54919619Y-30440219D02*
X55014857Y-30440219D01*
X55014857Y-30440219D02*
X55110095Y-30487838D01*
X55110095Y-30487838D02*
X55157714Y-30535457D01*
X55157714Y-30535457D02*
X55205333Y-30630695D01*
X55205333Y-30630695D02*
X55252952Y-30821171D01*
X55252952Y-30821171D02*
X55252952Y-31059266D01*
X55252952Y-31059266D02*
X55205333Y-31249742D01*
X55205333Y-31249742D02*
X55157714Y-31344980D01*
X55157714Y-31344980D02*
X55110095Y-31392600D01*
X55110095Y-31392600D02*
X55014857Y-31440219D01*
X55014857Y-31440219D02*
X54919619Y-31440219D01*
X54919619Y-31440219D02*
X54824381Y-31392600D01*
X54824381Y-31392600D02*
X54776762Y-31344980D01*
X54776762Y-31344980D02*
X54729143Y-31249742D01*
X54729143Y-31249742D02*
X54681524Y-31059266D01*
X54681524Y-31059266D02*
X54681524Y-30821171D01*
X54681524Y-30821171D02*
X54729143Y-30630695D01*
X54729143Y-30630695D02*
X54776762Y-30535457D01*
X54776762Y-30535457D02*
X54824381Y-30487838D01*
X54824381Y-30487838D02*
X54919619Y-30440219D01*
X55872000Y-30440219D02*
X55967238Y-30440219D01*
X55967238Y-30440219D02*
X56062476Y-30487838D01*
X56062476Y-30487838D02*
X56110095Y-30535457D01*
X56110095Y-30535457D02*
X56157714Y-30630695D01*
X56157714Y-30630695D02*
X56205333Y-30821171D01*
X56205333Y-30821171D02*
X56205333Y-31059266D01*
X56205333Y-31059266D02*
X56157714Y-31249742D01*
X56157714Y-31249742D02*
X56110095Y-31344980D01*
X56110095Y-31344980D02*
X56062476Y-31392600D01*
X56062476Y-31392600D02*
X55967238Y-31440219D01*
X55967238Y-31440219D02*
X55872000Y-31440219D01*
X55872000Y-31440219D02*
X55776762Y-31392600D01*
X55776762Y-31392600D02*
X55729143Y-31344980D01*
X55729143Y-31344980D02*
X55681524Y-31249742D01*
X55681524Y-31249742D02*
X55633905Y-31059266D01*
X55633905Y-31059266D02*
X55633905Y-30821171D01*
X55633905Y-30821171D02*
X55681524Y-30630695D01*
X55681524Y-30630695D02*
X55729143Y-30535457D01*
X55729143Y-30535457D02*
X55776762Y-30487838D01*
X55776762Y-30487838D02*
X55872000Y-30440219D01*
X56633905Y-31440219D02*
X56633905Y-30440219D01*
X56729143Y-31059266D02*
X57014857Y-31440219D01*
X57014857Y-30773552D02*
X56633905Y-31154504D01*
X32583571Y-23566219D02*
X32012143Y-23566219D01*
X32297857Y-23566219D02*
X32297857Y-22566219D01*
X32297857Y-22566219D02*
X32202619Y-22709076D01*
X32202619Y-22709076D02*
X32107381Y-22804314D01*
X32107381Y-22804314D02*
X32012143Y-22851933D01*
X33202619Y-22566219D02*
X33297857Y-22566219D01*
X33297857Y-22566219D02*
X33393095Y-22613838D01*
X33393095Y-22613838D02*
X33440714Y-22661457D01*
X33440714Y-22661457D02*
X33488333Y-22756695D01*
X33488333Y-22756695D02*
X33535952Y-22947171D01*
X33535952Y-22947171D02*
X33535952Y-23185266D01*
X33535952Y-23185266D02*
X33488333Y-23375742D01*
X33488333Y-23375742D02*
X33440714Y-23470980D01*
X33440714Y-23470980D02*
X33393095Y-23518600D01*
X33393095Y-23518600D02*
X33297857Y-23566219D01*
X33297857Y-23566219D02*
X33202619Y-23566219D01*
X33202619Y-23566219D02*
X33107381Y-23518600D01*
X33107381Y-23518600D02*
X33059762Y-23470980D01*
X33059762Y-23470980D02*
X33012143Y-23375742D01*
X33012143Y-23375742D02*
X32964524Y-23185266D01*
X32964524Y-23185266D02*
X32964524Y-22947171D01*
X32964524Y-22947171D02*
X33012143Y-22756695D01*
X33012143Y-22756695D02*
X33059762Y-22661457D01*
X33059762Y-22661457D02*
X33107381Y-22613838D01*
X33107381Y-22613838D02*
X33202619Y-22566219D01*
X34393095Y-22899552D02*
X34393095Y-23566219D01*
X33964524Y-22899552D02*
X33964524Y-23423361D01*
X33964524Y-23423361D02*
X34012143Y-23518600D01*
X34012143Y-23518600D02*
X34107381Y-23566219D01*
X34107381Y-23566219D02*
X34250238Y-23566219D01*
X34250238Y-23566219D02*
X34345476Y-23518600D01*
X34345476Y-23518600D02*
X34393095Y-23470980D01*
X35202619Y-23042409D02*
X34869286Y-23042409D01*
X34869286Y-23566219D02*
X34869286Y-22566219D01*
X34869286Y-22566219D02*
X35345476Y-22566219D01*
D11*
%TO.C,SW1*%
X18752000Y-13279000D02*
X17502000Y-13279000D01*
X18462000Y-13569000D02*
X12492000Y-13569000D01*
X12492000Y-13569000D02*
X12492000Y-21189000D01*
X18452000Y-13579000D02*
X17702000Y-13579000D01*
X17702000Y-13579000D02*
X17702000Y-15379000D01*
X16202000Y-13579000D02*
X16202000Y-14329000D01*
X16202000Y-14329000D02*
X14862000Y-14329000D01*
X18752000Y-14529000D02*
X18752000Y-13279000D01*
X18452000Y-15379000D02*
X18452000Y-13579000D01*
X17702000Y-15379000D02*
X18452000Y-15379000D01*
X18452000Y-16879000D02*
X17702000Y-16879000D01*
X17702000Y-16879000D02*
X17702000Y-17879000D01*
X13252000Y-17379000D02*
X13252000Y-15389000D01*
X18452000Y-17879000D02*
X18452000Y-16879000D01*
X17702000Y-17879000D02*
X18452000Y-17879000D01*
X18452000Y-19379000D02*
X17702000Y-19379000D01*
X17702000Y-19379000D02*
X17702000Y-21179000D01*
X16202000Y-20429000D02*
X13252000Y-20429000D01*
X13252000Y-20429000D02*
X13252000Y-17379000D01*
X18452000Y-21179000D02*
X18452000Y-19379000D01*
X17702000Y-21179000D02*
X18452000Y-21179000D01*
X16202000Y-21179000D02*
X16202000Y-20429000D01*
X18462000Y-21189000D02*
X18462000Y-13569000D01*
X12492000Y-21189000D02*
X18462000Y-21189000D01*
%TO.C,BT1*%
X18752000Y-22296000D02*
X17502000Y-22296000D01*
X18462000Y-22586000D02*
X12492000Y-22586000D01*
X12492000Y-22586000D02*
X12492000Y-30206000D01*
X18452000Y-22596000D02*
X17702000Y-22596000D01*
X17702000Y-22596000D02*
X17702000Y-24396000D01*
X16202000Y-22596000D02*
X16202000Y-23346000D01*
X16202000Y-23346000D02*
X14862000Y-23346000D01*
X18752000Y-23546000D02*
X18752000Y-22296000D01*
X18452000Y-24396000D02*
X18452000Y-22596000D01*
X17702000Y-24396000D02*
X18452000Y-24396000D01*
X18452000Y-25896000D02*
X17702000Y-25896000D01*
X17702000Y-25896000D02*
X17702000Y-26896000D01*
X13252000Y-26396000D02*
X13252000Y-24406000D01*
X18452000Y-26896000D02*
X18452000Y-25896000D01*
X17702000Y-26896000D02*
X18452000Y-26896000D01*
X18452000Y-28396000D02*
X17702000Y-28396000D01*
X17702000Y-28396000D02*
X17702000Y-30196000D01*
X16202000Y-29446000D02*
X13252000Y-29446000D01*
X13252000Y-29446000D02*
X13252000Y-26396000D01*
X18452000Y-30196000D02*
X18452000Y-28396000D01*
X17702000Y-30196000D02*
X18452000Y-30196000D01*
X16202000Y-30196000D02*
X16202000Y-29446000D01*
X18462000Y-30206000D02*
X18462000Y-22586000D01*
X12492000Y-30206000D02*
X18462000Y-30206000D01*
%TO.C,R36*%
X51504000Y-16208000D02*
X48064000Y-16208000D01*
X48064000Y-25448000D01*
X51504000Y-25448000D01*
X51504000Y-16208000D01*
X49784000Y-26138000D02*
X49784000Y-25448000D01*
X49784000Y-15518000D02*
X49784000Y-16208000D01*
%TO.C,R1*%
X54102000Y-15518000D02*
X54102000Y-16208000D01*
X54102000Y-26138000D02*
X54102000Y-25448000D01*
X52382000Y-25448000D02*
X55822000Y-25448000D01*
X55822000Y-16208000D01*
X52382000Y-16208000D01*
X52382000Y-25448000D01*
%TO.C,U1*%
X36262000Y-16546000D02*
X36262000Y-17796000D01*
X36262000Y-19796000D02*
X36262000Y-21046000D01*
X36262000Y-21046000D02*
X46542000Y-21046000D01*
X46542000Y-16546000D02*
X36262000Y-16546000D01*
X46542000Y-21046000D02*
X46542000Y-16546000D01*
X36262000Y-17796000D02*
G75*
G02*
X36262000Y-19796000I0J-1000000D01*
G01*
%TO.C,R34*%
X34060000Y-30988000D02*
X34750000Y-30988000D01*
X44680000Y-30988000D02*
X43990000Y-30988000D01*
X34750000Y-29268000D02*
X43990000Y-29268000D01*
X43990000Y-32708000D01*
X34750000Y-32708000D01*
X34750000Y-29268000D01*
%TO.C,V_out1*%
X62374000Y-14114000D02*
X63754000Y-14114000D01*
X62374000Y-15494000D02*
X62374000Y-14114000D01*
X62374000Y-16764000D02*
X62374000Y-16874000D01*
X62374000Y-16764000D02*
X65134000Y-16764000D01*
X62374000Y-16874000D02*
X65134000Y-16874000D01*
X65134000Y-16764000D02*
X65134000Y-16874000D01*
%TO.C,R33*%
X34060000Y-26670000D02*
X34750000Y-26670000D01*
X44680000Y-26670000D02*
X43990000Y-26670000D01*
X43990000Y-28390000D02*
X34750000Y-28390000D01*
X34750000Y-24950000D01*
X43990000Y-24950000D01*
X43990000Y-28390000D01*
%TO.C,R32*%
X22630000Y-15494000D02*
X23320000Y-15494000D01*
X33250000Y-15494000D02*
X32560000Y-15494000D01*
X23320000Y-13774000D02*
X32560000Y-13774000D01*
X32560000Y-17214000D01*
X23320000Y-17214000D01*
X23320000Y-13774000D01*
%TO.C,R31*%
X22630000Y-19558000D02*
X23320000Y-19558000D01*
X33250000Y-19558000D02*
X32560000Y-19558000D01*
X32560000Y-21278000D02*
X23320000Y-21278000D01*
X23320000Y-17838000D01*
X32560000Y-17838000D01*
X32560000Y-21278000D01*
%TO.C,R2*%
X58420000Y-15518000D02*
X58420000Y-16208000D01*
X58420000Y-26138000D02*
X58420000Y-25448000D01*
X56700000Y-25448000D02*
X60140000Y-25448000D01*
X60140000Y-16208000D01*
X56700000Y-16208000D01*
X56700000Y-25448000D01*
%TO.C,R35*%
X50062000Y-30988000D02*
X50752000Y-30988000D01*
X60682000Y-30988000D02*
X59992000Y-30988000D01*
X59992000Y-32708000D02*
X50752000Y-32708000D01*
X50752000Y-29268000D01*
X59992000Y-29268000D01*
X59992000Y-32708000D01*
%TO.C,C6*%
X31338000Y-24638000D02*
G75*
G02*
X26098000Y-24638000I-2620000J0D01*
G01*
X26098000Y-24638000D02*
G75*
G02*
X31338000Y-24638000I2620000J0D01*
G01*
%TD*%
%LPC*%
D12*
%TO.C,SW1*%
X14002000Y-14529000D03*
D13*
X16002000Y-16129000D03*
D14*
X16002000Y-18629000D03*
%TD*%
D12*
%TO.C,BT1*%
X14002000Y-23546000D03*
D13*
X16002000Y-25146000D03*
D14*
X16002000Y-27646000D03*
%TD*%
D15*
%TO.C,R36*%
X49784000Y-27178000D03*
X49784000Y-14478000D03*
%TD*%
%TO.C,R1*%
X54102000Y-27178000D03*
X54102000Y-14478000D03*
%TD*%
D16*
%TO.C,U1*%
X37592000Y-22606000D03*
D17*
X40132000Y-22606000D03*
X42672000Y-22606000D03*
X45212000Y-22606000D03*
X45212000Y-14986000D03*
X42672000Y-14986000D03*
X40132000Y-14986000D03*
X37592000Y-14986000D03*
%TD*%
D15*
%TO.C,R34*%
X33020000Y-30988000D03*
X45720000Y-30988000D03*
%TD*%
D18*
%TO.C,V_out1*%
X63754000Y-15494000D03*
%TD*%
D15*
%TO.C,R33*%
X45720000Y-26670000D03*
X33020000Y-26670000D03*
%TD*%
%TO.C,R32*%
X21590000Y-15494000D03*
X34290000Y-15494000D03*
%TD*%
%TO.C,R31*%
X34290000Y-19558000D03*
X21590000Y-19558000D03*
%TD*%
%TO.C,R2*%
X58420000Y-27178000D03*
X58420000Y-14478000D03*
%TD*%
%TO.C,R35*%
X61722000Y-30988000D03*
X49022000Y-30988000D03*
%TD*%
D12*
%TO.C,C6*%
X27718000Y-24638000D03*
X29718000Y-24638000D03*
%TD*%
%LPD*%
M02*
