%TF.GenerationSoftware,KiCad,Pcbnew,9.0.2*%
%TF.CreationDate,2025-07-07T17:18:13-07:00*%
%TF.ProjectId,switch_debounce_unit,73776974-6368-45f6-9465-626f756e6365,rev?*%
%TF.SameCoordinates,Original*%
%TF.FileFunction,Drillmap*%
%TF.FilePolarity,Positive*%
%FSLAX45Y45*%
G04 Gerber Fmt 4.5, Leading zero omitted, Abs format (unit mm)*
G04 Created by KiCad (PCBNEW 9.0.2) date 2025-07-07 17:18:13*
%MOMM*%
%LPD*%
G01*
G04 APERTURE LIST*
%ADD10C,0.050000*%
%ADD11C,0.200000*%
%ADD12C,0.120000*%
G04 APERTURE END LIST*
D10*
X6692900Y-3290900D02*
G75*
G02*
X6592900Y-3390900I-100000J0D01*
G01*
X1306500Y-3390900D02*
G75*
G02*
X1206500Y-3290900I0J100000D01*
G01*
X6592900Y-1206500D02*
G75*
G02*
X6692900Y-1306500I0J-100000D01*
G01*
X1206500Y-1306500D02*
G75*
G02*
X1306500Y-1206500I100000J0D01*
G01*
X6692900Y-1306500D02*
X6692900Y-3290900D01*
X1206500Y-3290900D02*
X1206500Y-1306500D01*
X6592900Y-3390900D02*
X1306500Y-3390900D01*
X1306500Y-1206500D02*
X6592900Y-1206500D01*
X6511400Y-2413000D02*
G75*
G02*
X6111400Y-2413000I-200000J0D01*
G01*
X6111400Y-2413000D02*
G75*
G02*
X6511400Y-2413000I200000J0D01*
G01*
X2511400Y-2413000D02*
G75*
G02*
X2111400Y-2413000I-200000J0D01*
G01*
X2111400Y-2413000D02*
G75*
G02*
X2511400Y-2413000I200000J0D01*
G01*
D11*
D12*
X1340200Y-1392900D02*
X1460200Y-1512900D01*
X1460200Y-1392900D02*
X1340200Y-1512900D01*
X1340200Y-2294600D02*
X1460200Y-2414600D01*
X1460200Y-2294600D02*
X1340200Y-2414600D01*
D11*
X1464777Y-3704884D02*
X1464777Y-3504884D01*
X1464777Y-3504884D02*
X1512396Y-3504884D01*
X1512396Y-3504884D02*
X1540967Y-3514408D01*
X1540967Y-3514408D02*
X1560015Y-3533455D01*
X1560015Y-3533455D02*
X1569539Y-3552503D01*
X1569539Y-3552503D02*
X1579062Y-3590598D01*
X1579062Y-3590598D02*
X1579062Y-3619169D01*
X1579062Y-3619169D02*
X1569539Y-3657265D01*
X1569539Y-3657265D02*
X1560015Y-3676312D01*
X1560015Y-3676312D02*
X1540967Y-3695360D01*
X1540967Y-3695360D02*
X1512396Y-3704884D01*
X1512396Y-3704884D02*
X1464777Y-3704884D01*
X1664777Y-3704884D02*
X1664777Y-3571550D01*
X1664777Y-3609646D02*
X1674301Y-3590598D01*
X1674301Y-3590598D02*
X1683824Y-3581074D01*
X1683824Y-3581074D02*
X1702872Y-3571550D01*
X1702872Y-3571550D02*
X1721920Y-3571550D01*
X1788586Y-3704884D02*
X1788586Y-3571550D01*
X1788586Y-3504884D02*
X1779062Y-3514408D01*
X1779062Y-3514408D02*
X1788586Y-3523931D01*
X1788586Y-3523931D02*
X1798110Y-3514408D01*
X1798110Y-3514408D02*
X1788586Y-3504884D01*
X1788586Y-3504884D02*
X1788586Y-3523931D01*
X1912396Y-3704884D02*
X1893348Y-3695360D01*
X1893348Y-3695360D02*
X1883824Y-3676312D01*
X1883824Y-3676312D02*
X1883824Y-3504884D01*
X2017158Y-3704884D02*
X1998110Y-3695360D01*
X1998110Y-3695360D02*
X1988586Y-3676312D01*
X1988586Y-3676312D02*
X1988586Y-3504884D01*
X2245729Y-3704884D02*
X2245729Y-3504884D01*
X2245729Y-3504884D02*
X2312396Y-3647741D01*
X2312396Y-3647741D02*
X2379063Y-3504884D01*
X2379063Y-3504884D02*
X2379063Y-3704884D01*
X2560015Y-3704884D02*
X2560015Y-3600122D01*
X2560015Y-3600122D02*
X2550491Y-3581074D01*
X2550491Y-3581074D02*
X2531444Y-3571550D01*
X2531444Y-3571550D02*
X2493348Y-3571550D01*
X2493348Y-3571550D02*
X2474301Y-3581074D01*
X2560015Y-3695360D02*
X2540967Y-3704884D01*
X2540967Y-3704884D02*
X2493348Y-3704884D01*
X2493348Y-3704884D02*
X2474301Y-3695360D01*
X2474301Y-3695360D02*
X2464777Y-3676312D01*
X2464777Y-3676312D02*
X2464777Y-3657265D01*
X2464777Y-3657265D02*
X2474301Y-3638217D01*
X2474301Y-3638217D02*
X2493348Y-3628693D01*
X2493348Y-3628693D02*
X2540967Y-3628693D01*
X2540967Y-3628693D02*
X2560015Y-3619169D01*
X2655253Y-3571550D02*
X2655253Y-3771550D01*
X2655253Y-3581074D02*
X2674301Y-3571550D01*
X2674301Y-3571550D02*
X2712396Y-3571550D01*
X2712396Y-3571550D02*
X2731444Y-3581074D01*
X2731444Y-3581074D02*
X2740967Y-3590598D01*
X2740967Y-3590598D02*
X2750491Y-3609646D01*
X2750491Y-3609646D02*
X2750491Y-3666788D01*
X2750491Y-3666788D02*
X2740967Y-3685836D01*
X2740967Y-3685836D02*
X2731444Y-3695360D01*
X2731444Y-3695360D02*
X2712396Y-3704884D01*
X2712396Y-3704884D02*
X2674301Y-3704884D01*
X2674301Y-3704884D02*
X2655253Y-3695360D01*
X2836205Y-3685836D02*
X2845729Y-3695360D01*
X2845729Y-3695360D02*
X2836205Y-3704884D01*
X2836205Y-3704884D02*
X2826682Y-3695360D01*
X2826682Y-3695360D02*
X2836205Y-3685836D01*
X2836205Y-3685836D02*
X2836205Y-3704884D01*
X2836205Y-3581074D02*
X2845729Y-3590598D01*
X2845729Y-3590598D02*
X2836205Y-3600122D01*
X2836205Y-3600122D02*
X2826682Y-3590598D01*
X2826682Y-3590598D02*
X2836205Y-3581074D01*
X2836205Y-3581074D02*
X2836205Y-3600122D01*
D12*
X1084000Y-3973400D02*
X1204000Y-4093400D01*
X1204000Y-3973400D02*
X1084000Y-4093400D01*
D11*
X1569539Y-4124884D02*
X1455253Y-4124884D01*
X1512396Y-4124884D02*
X1512396Y-3924884D01*
X1512396Y-3924884D02*
X1493348Y-3953455D01*
X1493348Y-3953455D02*
X1474301Y-3972503D01*
X1474301Y-3972503D02*
X1455253Y-3982027D01*
X1655253Y-4105836D02*
X1664777Y-4115360D01*
X1664777Y-4115360D02*
X1655253Y-4124884D01*
X1655253Y-4124884D02*
X1645729Y-4115360D01*
X1645729Y-4115360D02*
X1655253Y-4105836D01*
X1655253Y-4105836D02*
X1655253Y-4124884D01*
X1740967Y-3943931D02*
X1750491Y-3934408D01*
X1750491Y-3934408D02*
X1769539Y-3924884D01*
X1769539Y-3924884D02*
X1817158Y-3924884D01*
X1817158Y-3924884D02*
X1836205Y-3934408D01*
X1836205Y-3934408D02*
X1845729Y-3943931D01*
X1845729Y-3943931D02*
X1855253Y-3962979D01*
X1855253Y-3962979D02*
X1855253Y-3982027D01*
X1855253Y-3982027D02*
X1845729Y-4010598D01*
X1845729Y-4010598D02*
X1731443Y-4124884D01*
X1731443Y-4124884D02*
X1855253Y-4124884D01*
X1979062Y-3924884D02*
X1998110Y-3924884D01*
X1998110Y-3924884D02*
X2017158Y-3934408D01*
X2017158Y-3934408D02*
X2026682Y-3943931D01*
X2026682Y-3943931D02*
X2036205Y-3962979D01*
X2036205Y-3962979D02*
X2045729Y-4001074D01*
X2045729Y-4001074D02*
X2045729Y-4048693D01*
X2045729Y-4048693D02*
X2036205Y-4086788D01*
X2036205Y-4086788D02*
X2026682Y-4105836D01*
X2026682Y-4105836D02*
X2017158Y-4115360D01*
X2017158Y-4115360D02*
X1998110Y-4124884D01*
X1998110Y-4124884D02*
X1979062Y-4124884D01*
X1979062Y-4124884D02*
X1960015Y-4115360D01*
X1960015Y-4115360D02*
X1950491Y-4105836D01*
X1950491Y-4105836D02*
X1940967Y-4086788D01*
X1940967Y-4086788D02*
X1931443Y-4048693D01*
X1931443Y-4048693D02*
X1931443Y-4001074D01*
X1931443Y-4001074D02*
X1940967Y-3962979D01*
X1940967Y-3962979D02*
X1950491Y-3943931D01*
X1950491Y-3943931D02*
X1960015Y-3934408D01*
X1960015Y-3934408D02*
X1979062Y-3924884D01*
X2169539Y-3924884D02*
X2188586Y-3924884D01*
X2188586Y-3924884D02*
X2207634Y-3934408D01*
X2207634Y-3934408D02*
X2217158Y-3943931D01*
X2217158Y-3943931D02*
X2226682Y-3962979D01*
X2226682Y-3962979D02*
X2236205Y-4001074D01*
X2236205Y-4001074D02*
X2236205Y-4048693D01*
X2236205Y-4048693D02*
X2226682Y-4086788D01*
X2226682Y-4086788D02*
X2217158Y-4105836D01*
X2217158Y-4105836D02*
X2207634Y-4115360D01*
X2207634Y-4115360D02*
X2188586Y-4124884D01*
X2188586Y-4124884D02*
X2169539Y-4124884D01*
X2169539Y-4124884D02*
X2150491Y-4115360D01*
X2150491Y-4115360D02*
X2140967Y-4105836D01*
X2140967Y-4105836D02*
X2131444Y-4086788D01*
X2131444Y-4086788D02*
X2121920Y-4048693D01*
X2121920Y-4048693D02*
X2121920Y-4001074D01*
X2121920Y-4001074D02*
X2131444Y-3962979D01*
X2131444Y-3962979D02*
X2140967Y-3943931D01*
X2140967Y-3943931D02*
X2150491Y-3934408D01*
X2150491Y-3934408D02*
X2169539Y-3924884D01*
X2321920Y-4124884D02*
X2321920Y-3991550D01*
X2321920Y-4010598D02*
X2331444Y-4001074D01*
X2331444Y-4001074D02*
X2350491Y-3991550D01*
X2350491Y-3991550D02*
X2379063Y-3991550D01*
X2379063Y-3991550D02*
X2398110Y-4001074D01*
X2398110Y-4001074D02*
X2407634Y-4020122D01*
X2407634Y-4020122D02*
X2407634Y-4124884D01*
X2407634Y-4020122D02*
X2417158Y-4001074D01*
X2417158Y-4001074D02*
X2436205Y-3991550D01*
X2436205Y-3991550D02*
X2464777Y-3991550D01*
X2464777Y-3991550D02*
X2483825Y-4001074D01*
X2483825Y-4001074D02*
X2493348Y-4020122D01*
X2493348Y-4020122D02*
X2493348Y-4124884D01*
X2588586Y-4124884D02*
X2588586Y-3991550D01*
X2588586Y-4010598D02*
X2598110Y-4001074D01*
X2598110Y-4001074D02*
X2617158Y-3991550D01*
X2617158Y-3991550D02*
X2645729Y-3991550D01*
X2645729Y-3991550D02*
X2664777Y-4001074D01*
X2664777Y-4001074D02*
X2674301Y-4020122D01*
X2674301Y-4020122D02*
X2674301Y-4124884D01*
X2674301Y-4020122D02*
X2683825Y-4001074D01*
X2683825Y-4001074D02*
X2702872Y-3991550D01*
X2702872Y-3991550D02*
X2731444Y-3991550D01*
X2731444Y-3991550D02*
X2750491Y-4001074D01*
X2750491Y-4001074D02*
X2760015Y-4020122D01*
X2760015Y-4020122D02*
X2760015Y-4124884D01*
X3150491Y-3915360D02*
X2979063Y-4172503D01*
X3407634Y-3924884D02*
X3426682Y-3924884D01*
X3426682Y-3924884D02*
X3445729Y-3934408D01*
X3445729Y-3934408D02*
X3455253Y-3943931D01*
X3455253Y-3943931D02*
X3464777Y-3962979D01*
X3464777Y-3962979D02*
X3474301Y-4001074D01*
X3474301Y-4001074D02*
X3474301Y-4048693D01*
X3474301Y-4048693D02*
X3464777Y-4086788D01*
X3464777Y-4086788D02*
X3455253Y-4105836D01*
X3455253Y-4105836D02*
X3445729Y-4115360D01*
X3445729Y-4115360D02*
X3426682Y-4124884D01*
X3426682Y-4124884D02*
X3407634Y-4124884D01*
X3407634Y-4124884D02*
X3388586Y-4115360D01*
X3388586Y-4115360D02*
X3379063Y-4105836D01*
X3379063Y-4105836D02*
X3369539Y-4086788D01*
X3369539Y-4086788D02*
X3360015Y-4048693D01*
X3360015Y-4048693D02*
X3360015Y-4001074D01*
X3360015Y-4001074D02*
X3369539Y-3962979D01*
X3369539Y-3962979D02*
X3379063Y-3943931D01*
X3379063Y-3943931D02*
X3388586Y-3934408D01*
X3388586Y-3934408D02*
X3407634Y-3924884D01*
X3560015Y-4105836D02*
X3569539Y-4115360D01*
X3569539Y-4115360D02*
X3560015Y-4124884D01*
X3560015Y-4124884D02*
X3550491Y-4115360D01*
X3550491Y-4115360D02*
X3560015Y-4105836D01*
X3560015Y-4105836D02*
X3560015Y-4124884D01*
X3693348Y-3924884D02*
X3712396Y-3924884D01*
X3712396Y-3924884D02*
X3731444Y-3934408D01*
X3731444Y-3934408D02*
X3740967Y-3943931D01*
X3740967Y-3943931D02*
X3750491Y-3962979D01*
X3750491Y-3962979D02*
X3760015Y-4001074D01*
X3760015Y-4001074D02*
X3760015Y-4048693D01*
X3760015Y-4048693D02*
X3750491Y-4086788D01*
X3750491Y-4086788D02*
X3740967Y-4105836D01*
X3740967Y-4105836D02*
X3731444Y-4115360D01*
X3731444Y-4115360D02*
X3712396Y-4124884D01*
X3712396Y-4124884D02*
X3693348Y-4124884D01*
X3693348Y-4124884D02*
X3674301Y-4115360D01*
X3674301Y-4115360D02*
X3664777Y-4105836D01*
X3664777Y-4105836D02*
X3655253Y-4086788D01*
X3655253Y-4086788D02*
X3645729Y-4048693D01*
X3645729Y-4048693D02*
X3645729Y-4001074D01*
X3645729Y-4001074D02*
X3655253Y-3962979D01*
X3655253Y-3962979D02*
X3664777Y-3943931D01*
X3664777Y-3943931D02*
X3674301Y-3934408D01*
X3674301Y-3934408D02*
X3693348Y-3924884D01*
X3931444Y-3991550D02*
X3931444Y-4124884D01*
X3883825Y-3915360D02*
X3836206Y-4058217D01*
X3836206Y-4058217D02*
X3960015Y-4058217D01*
X4017158Y-3924884D02*
X4150491Y-3924884D01*
X4150491Y-3924884D02*
X4064777Y-4124884D01*
X4217158Y-3943931D02*
X4226682Y-3934408D01*
X4226682Y-3934408D02*
X4245729Y-3924884D01*
X4245729Y-3924884D02*
X4293349Y-3924884D01*
X4293349Y-3924884D02*
X4312396Y-3934408D01*
X4312396Y-3934408D02*
X4321920Y-3943931D01*
X4321920Y-3943931D02*
X4331444Y-3962979D01*
X4331444Y-3962979D02*
X4331444Y-3982027D01*
X4331444Y-3982027D02*
X4321920Y-4010598D01*
X4321920Y-4010598D02*
X4207634Y-4124884D01*
X4207634Y-4124884D02*
X4331444Y-4124884D01*
X4407634Y-3924884D02*
X4407634Y-3962979D01*
X4483825Y-3924884D02*
X4483825Y-3962979D01*
X4779063Y-4201074D02*
X4769539Y-4191550D01*
X4769539Y-4191550D02*
X4750491Y-4162979D01*
X4750491Y-4162979D02*
X4740968Y-4143931D01*
X4740968Y-4143931D02*
X4731444Y-4115360D01*
X4731444Y-4115360D02*
X4721920Y-4067741D01*
X4721920Y-4067741D02*
X4721920Y-4029646D01*
X4721920Y-4029646D02*
X4731444Y-3982027D01*
X4731444Y-3982027D02*
X4740968Y-3953455D01*
X4740968Y-3953455D02*
X4750491Y-3934408D01*
X4750491Y-3934408D02*
X4769539Y-3905836D01*
X4769539Y-3905836D02*
X4779063Y-3896312D01*
X4845730Y-3943931D02*
X4855253Y-3934408D01*
X4855253Y-3934408D02*
X4874301Y-3924884D01*
X4874301Y-3924884D02*
X4921920Y-3924884D01*
X4921920Y-3924884D02*
X4940968Y-3934408D01*
X4940968Y-3934408D02*
X4950491Y-3943931D01*
X4950491Y-3943931D02*
X4960015Y-3962979D01*
X4960015Y-3962979D02*
X4960015Y-3982027D01*
X4960015Y-3982027D02*
X4950491Y-4010598D01*
X4950491Y-4010598D02*
X4836206Y-4124884D01*
X4836206Y-4124884D02*
X4960015Y-4124884D01*
X5198111Y-4124884D02*
X5198111Y-3924884D01*
X5283825Y-4124884D02*
X5283825Y-4020122D01*
X5283825Y-4020122D02*
X5274301Y-4001074D01*
X5274301Y-4001074D02*
X5255253Y-3991550D01*
X5255253Y-3991550D02*
X5226682Y-3991550D01*
X5226682Y-3991550D02*
X5207634Y-4001074D01*
X5207634Y-4001074D02*
X5198111Y-4010598D01*
X5407634Y-4124884D02*
X5388587Y-4115360D01*
X5388587Y-4115360D02*
X5379063Y-4105836D01*
X5379063Y-4105836D02*
X5369539Y-4086788D01*
X5369539Y-4086788D02*
X5369539Y-4029646D01*
X5369539Y-4029646D02*
X5379063Y-4010598D01*
X5379063Y-4010598D02*
X5388587Y-4001074D01*
X5388587Y-4001074D02*
X5407634Y-3991550D01*
X5407634Y-3991550D02*
X5436206Y-3991550D01*
X5436206Y-3991550D02*
X5455253Y-4001074D01*
X5455253Y-4001074D02*
X5464777Y-4010598D01*
X5464777Y-4010598D02*
X5474301Y-4029646D01*
X5474301Y-4029646D02*
X5474301Y-4086788D01*
X5474301Y-4086788D02*
X5464777Y-4105836D01*
X5464777Y-4105836D02*
X5455253Y-4115360D01*
X5455253Y-4115360D02*
X5436206Y-4124884D01*
X5436206Y-4124884D02*
X5407634Y-4124884D01*
X5588587Y-4124884D02*
X5569539Y-4115360D01*
X5569539Y-4115360D02*
X5560015Y-4096312D01*
X5560015Y-4096312D02*
X5560015Y-3924884D01*
X5740968Y-4115360D02*
X5721920Y-4124884D01*
X5721920Y-4124884D02*
X5683825Y-4124884D01*
X5683825Y-4124884D02*
X5664777Y-4115360D01*
X5664777Y-4115360D02*
X5655253Y-4096312D01*
X5655253Y-4096312D02*
X5655253Y-4020122D01*
X5655253Y-4020122D02*
X5664777Y-4001074D01*
X5664777Y-4001074D02*
X5683825Y-3991550D01*
X5683825Y-3991550D02*
X5721920Y-3991550D01*
X5721920Y-3991550D02*
X5740968Y-4001074D01*
X5740968Y-4001074D02*
X5750491Y-4020122D01*
X5750491Y-4020122D02*
X5750491Y-4039169D01*
X5750491Y-4039169D02*
X5655253Y-4058217D01*
X5826682Y-4115360D02*
X5845730Y-4124884D01*
X5845730Y-4124884D02*
X5883825Y-4124884D01*
X5883825Y-4124884D02*
X5902872Y-4115360D01*
X5902872Y-4115360D02*
X5912396Y-4096312D01*
X5912396Y-4096312D02*
X5912396Y-4086788D01*
X5912396Y-4086788D02*
X5902872Y-4067741D01*
X5902872Y-4067741D02*
X5883825Y-4058217D01*
X5883825Y-4058217D02*
X5855253Y-4058217D01*
X5855253Y-4058217D02*
X5836206Y-4048693D01*
X5836206Y-4048693D02*
X5826682Y-4029646D01*
X5826682Y-4029646D02*
X5826682Y-4020122D01*
X5826682Y-4020122D02*
X5836206Y-4001074D01*
X5836206Y-4001074D02*
X5855253Y-3991550D01*
X5855253Y-3991550D02*
X5883825Y-3991550D01*
X5883825Y-3991550D02*
X5902872Y-4001074D01*
X5979063Y-4201074D02*
X5988587Y-4191550D01*
X5988587Y-4191550D02*
X6007634Y-4162979D01*
X6007634Y-4162979D02*
X6017158Y-4143931D01*
X6017158Y-4143931D02*
X6026682Y-4115360D01*
X6026682Y-4115360D02*
X6036206Y-4067741D01*
X6036206Y-4067741D02*
X6036206Y-4029646D01*
X6036206Y-4029646D02*
X6026682Y-3982027D01*
X6026682Y-3982027D02*
X6017158Y-3953455D01*
X6017158Y-3953455D02*
X6007634Y-3934408D01*
X6007634Y-3934408D02*
X5988587Y-3905836D01*
X5988587Y-3905836D02*
X5979063Y-3896312D01*
X6340968Y-4201074D02*
X6331444Y-4191550D01*
X6331444Y-4191550D02*
X6312396Y-4162979D01*
X6312396Y-4162979D02*
X6302872Y-4143931D01*
X6302872Y-4143931D02*
X6293349Y-4115360D01*
X6293349Y-4115360D02*
X6283825Y-4067741D01*
X6283825Y-4067741D02*
X6283825Y-4029646D01*
X6283825Y-4029646D02*
X6293349Y-3982027D01*
X6293349Y-3982027D02*
X6302872Y-3953455D01*
X6302872Y-3953455D02*
X6312396Y-3934408D01*
X6312396Y-3934408D02*
X6331444Y-3905836D01*
X6331444Y-3905836D02*
X6340968Y-3896312D01*
X6417158Y-3991550D02*
X6417158Y-4124884D01*
X6417158Y-4010598D02*
X6426682Y-4001074D01*
X6426682Y-4001074D02*
X6445730Y-3991550D01*
X6445730Y-3991550D02*
X6474301Y-3991550D01*
X6474301Y-3991550D02*
X6493349Y-4001074D01*
X6493349Y-4001074D02*
X6502872Y-4020122D01*
X6502872Y-4020122D02*
X6502872Y-4124884D01*
X6626682Y-4124884D02*
X6607634Y-4115360D01*
X6607634Y-4115360D02*
X6598111Y-4105836D01*
X6598111Y-4105836D02*
X6588587Y-4086788D01*
X6588587Y-4086788D02*
X6588587Y-4029646D01*
X6588587Y-4029646D02*
X6598111Y-4010598D01*
X6598111Y-4010598D02*
X6607634Y-4001074D01*
X6607634Y-4001074D02*
X6626682Y-3991550D01*
X6626682Y-3991550D02*
X6655253Y-3991550D01*
X6655253Y-3991550D02*
X6674301Y-4001074D01*
X6674301Y-4001074D02*
X6683825Y-4010598D01*
X6683825Y-4010598D02*
X6693349Y-4029646D01*
X6693349Y-4029646D02*
X6693349Y-4086788D01*
X6693349Y-4086788D02*
X6683825Y-4105836D01*
X6683825Y-4105836D02*
X6674301Y-4115360D01*
X6674301Y-4115360D02*
X6655253Y-4124884D01*
X6655253Y-4124884D02*
X6626682Y-4124884D01*
X6750492Y-3991550D02*
X6826682Y-3991550D01*
X6779063Y-3924884D02*
X6779063Y-4096312D01*
X6779063Y-4096312D02*
X6788587Y-4115360D01*
X6788587Y-4115360D02*
X6807634Y-4124884D01*
X6807634Y-4124884D02*
X6826682Y-4124884D01*
X7045730Y-3991550D02*
X7045730Y-4191550D01*
X7045730Y-4001074D02*
X7064777Y-3991550D01*
X7064777Y-3991550D02*
X7102873Y-3991550D01*
X7102873Y-3991550D02*
X7121920Y-4001074D01*
X7121920Y-4001074D02*
X7131444Y-4010598D01*
X7131444Y-4010598D02*
X7140968Y-4029646D01*
X7140968Y-4029646D02*
X7140968Y-4086788D01*
X7140968Y-4086788D02*
X7131444Y-4105836D01*
X7131444Y-4105836D02*
X7121920Y-4115360D01*
X7121920Y-4115360D02*
X7102873Y-4124884D01*
X7102873Y-4124884D02*
X7064777Y-4124884D01*
X7064777Y-4124884D02*
X7045730Y-4115360D01*
X7255253Y-4124884D02*
X7236206Y-4115360D01*
X7236206Y-4115360D02*
X7226682Y-4096312D01*
X7226682Y-4096312D02*
X7226682Y-3924884D01*
X7417158Y-4124884D02*
X7417158Y-4020122D01*
X7417158Y-4020122D02*
X7407634Y-4001074D01*
X7407634Y-4001074D02*
X7388587Y-3991550D01*
X7388587Y-3991550D02*
X7350492Y-3991550D01*
X7350492Y-3991550D02*
X7331444Y-4001074D01*
X7417158Y-4115360D02*
X7398111Y-4124884D01*
X7398111Y-4124884D02*
X7350492Y-4124884D01*
X7350492Y-4124884D02*
X7331444Y-4115360D01*
X7331444Y-4115360D02*
X7321920Y-4096312D01*
X7321920Y-4096312D02*
X7321920Y-4077265D01*
X7321920Y-4077265D02*
X7331444Y-4058217D01*
X7331444Y-4058217D02*
X7350492Y-4048693D01*
X7350492Y-4048693D02*
X7398111Y-4048693D01*
X7398111Y-4048693D02*
X7417158Y-4039169D01*
X7483825Y-3991550D02*
X7560015Y-3991550D01*
X7512396Y-3924884D02*
X7512396Y-4096312D01*
X7512396Y-4096312D02*
X7521920Y-4115360D01*
X7521920Y-4115360D02*
X7540968Y-4124884D01*
X7540968Y-4124884D02*
X7560015Y-4124884D01*
X7702873Y-4115360D02*
X7683825Y-4124884D01*
X7683825Y-4124884D02*
X7645730Y-4124884D01*
X7645730Y-4124884D02*
X7626682Y-4115360D01*
X7626682Y-4115360D02*
X7617158Y-4096312D01*
X7617158Y-4096312D02*
X7617158Y-4020122D01*
X7617158Y-4020122D02*
X7626682Y-4001074D01*
X7626682Y-4001074D02*
X7645730Y-3991550D01*
X7645730Y-3991550D02*
X7683825Y-3991550D01*
X7683825Y-3991550D02*
X7702873Y-4001074D01*
X7702873Y-4001074D02*
X7712396Y-4020122D01*
X7712396Y-4020122D02*
X7712396Y-4039169D01*
X7712396Y-4039169D02*
X7617158Y-4058217D01*
X7883825Y-4124884D02*
X7883825Y-3924884D01*
X7883825Y-4115360D02*
X7864777Y-4124884D01*
X7864777Y-4124884D02*
X7826682Y-4124884D01*
X7826682Y-4124884D02*
X7807634Y-4115360D01*
X7807634Y-4115360D02*
X7798111Y-4105836D01*
X7798111Y-4105836D02*
X7788587Y-4086788D01*
X7788587Y-4086788D02*
X7788587Y-4029646D01*
X7788587Y-4029646D02*
X7798111Y-4010598D01*
X7798111Y-4010598D02*
X7807634Y-4001074D01*
X7807634Y-4001074D02*
X7826682Y-3991550D01*
X7826682Y-3991550D02*
X7864777Y-3991550D01*
X7864777Y-3991550D02*
X7883825Y-4001074D01*
X7960015Y-4201074D02*
X7969539Y-4191550D01*
X7969539Y-4191550D02*
X7988587Y-4162979D01*
X7988587Y-4162979D02*
X7998111Y-4143931D01*
X7998111Y-4143931D02*
X8007634Y-4115360D01*
X8007634Y-4115360D02*
X8017158Y-4067741D01*
X8017158Y-4067741D02*
X8017158Y-4029646D01*
X8017158Y-4029646D02*
X8007634Y-3982027D01*
X8007634Y-3982027D02*
X7998111Y-3953455D01*
X7998111Y-3953455D02*
X7988587Y-3934408D01*
X7988587Y-3934408D02*
X7969539Y-3905836D01*
X7969539Y-3905836D02*
X7960015Y-3896312D01*
M02*
