M48
; DRILL file {KiCad 9.0.2} date 2025-07-11T23:58:16-0700
; FORMAT={-:-/ absolute / metric / decimal}
; #@! TF.CreationDate,2025-07-11T23:58:16-07:00
; #@! TF.GenerationSoftware,Kicad,Pcbnew,9.0.2
; #@! TF.FileFunction,Plated,1,2,PTH
FMAT,2
METRIC
; #@! TA.AperFunction,Plated,PTH,ViaDrill
T1C0.300
; #@! TA.AperFunction,Plated,PTH,ComponentDrill
T2C0.800
; #@! TA.AperFunction,Plated,PTH,ComponentDrill
T3C0.950
; #@! TA.AperFunction,Plated,PTH,ComponentDrill
T4C1.000
%
G90
G05
T1
X37.084Y-41.91
X43.815Y-40.005
X49.876Y-33.867
X51.308Y-31.75
X52.832Y-39.116
X55.118Y-36.83
X55.372Y-35.814
X57.658Y-41.148
X59.436Y-41.91
X59.944Y-32.766
X60.106Y-35.306
X62.484Y-21.336
X65.278Y-24.13
X67.564Y-23.368
X68.58Y-20.32
X71.628Y-37.846
X80.772Y-22.098
X80.772Y-25.908
T2
X14.732Y-26.924
X14.732Y-44.704
X17.272Y-26.924
X17.272Y-44.704
X19.812Y-26.924
X19.812Y-44.704
X22.352Y-26.924
X22.352Y-44.704
X24.892Y-26.924
X24.892Y-44.704
X25.018Y-49.022
X25.018Y-61.722
X27.432Y-26.924
X27.432Y-44.704
X29.768Y-49.022
X29.768Y-61.722
X29.972Y-26.924
X29.972Y-44.704
X32.512Y-26.924
X32.512Y-44.704
X34.518Y-49.022
X34.518Y-61.722
X35.052Y-26.924
X35.052Y-44.704
X37.592Y-26.924
X37.592Y-44.704
X39.268Y-49.022
X39.268Y-61.722
X40.132Y-26.924
X40.132Y-44.704
X42.672Y-26.924
X42.672Y-44.704
X44.018Y-49.022
X44.018Y-61.722
X45.212Y-26.924
X45.212Y-44.704
X47.752Y-26.924
X47.752Y-44.704
X48.768Y-49.022
X48.768Y-61.722
X50.292Y-26.924
X50.292Y-44.704
X52.832Y-26.924
X52.832Y-44.704
X53.34Y-49.022
X53.34Y-61.722
X55.372Y-26.924
X55.372Y-44.704
X57.912Y-26.924
X57.912Y-44.704
X57.912Y-49.022
X57.912Y-61.722
X62.738Y-55.88
X62.738Y-60.96
X62.992Y-26.157
X62.992Y-33.777
X63.5Y-38.354
X63.5Y-51.054
X65.532Y-26.157
X65.532Y-33.777
X68.072Y-26.157
X68.072Y-33.777
X69.088Y-38.354
X69.088Y-51.054
X70.612Y-26.157
X70.612Y-33.777
X74.676Y-22.352
X74.676Y-35.052
X74.676Y-38.354
X74.676Y-51.054
X75.438Y-55.88
X75.438Y-60.96
X80.518Y-35.56
X80.518Y-48.26
X80.594Y-52.07
X80.594Y-64.77
X84.328Y-24.968
X84.328Y-29.286
X84.328Y-33.858
X84.328Y-38.43
X84.328Y-43.002
X84.328Y-47.498
X85.344Y-52.07
X85.344Y-64.77
X95.326Y-51.816
X95.326Y-64.516
X97.028Y-24.968
X97.028Y-29.286
X97.028Y-33.858
X97.028Y-38.43
X97.028Y-43.002
X97.028Y-47.498
X100.076Y-51.816
X100.076Y-64.516
T3
X24.33Y-70.358
X26.83Y-70.358
X29.33Y-70.358
X31.83Y-70.358
X34.33Y-70.358
X36.83Y-70.358
X44.276Y-70.358
X46.776Y-70.358
X49.276Y-70.358
X52.364Y-18.304
X54.864Y-18.304
X56.722Y-70.358
X57.364Y-18.304
X59.222Y-70.358
X61.722Y-70.358
X64.028Y-18.304
X66.528Y-18.304
X69.028Y-18.304
X69.168Y-70.462
X71.668Y-70.462
X74.168Y-70.462
X81.688Y-70.257
X84.188Y-70.257
X86.688Y-70.257
X89.188Y-70.257
X96.554Y-70.18
X99.054Y-70.18
X101.554Y-70.18
X104.054Y-70.18
X109.296Y-40.894
X109.296Y-43.394
X109.296Y-45.894
X109.296Y-48.394
X109.296Y-56.194
X109.296Y-58.694
X109.296Y-61.194
X109.296Y-63.694
X109.474Y-25.594
X109.474Y-28.094
X109.474Y-30.594
X109.474Y-33.094
T4
X16.002Y-18.288
X18.502Y-18.288
X19.05Y-51.856
X19.05Y-54.356
X19.056Y-61.742
X19.056Y-64.242
X25.146Y-18.288
X27.646Y-18.288
X34.29Y-18.288
X36.79Y-18.288
X43.434Y-18.288
X45.934Y-18.288
X75.184Y-14.986
X79.756Y-14.986
X84.328Y-14.986
X88.9Y-14.986
X93.472Y-14.986
X98.044Y-14.986
X102.362Y-14.986
X109.22Y-16.256
X109.22Y-18.756
M30
