M48
; DRILL file {KiCad 9.0.2} date 2025-07-07T17:18:13-0700
; FORMAT={-:-/ absolute / metric / decimal}
; #@! TF.CreationDate,2025-07-07T17:18:13-07:00
; #@! TF.GenerationSoftware,Kicad,Pcbnew,9.0.2
; #@! TF.FileFunction,Plated,1,2,PTH
FMAT,2
METRIC
; #@! TA.AperFunction,Plated,PTH,ComponentDrill
T1C0.600
; #@! TA.AperFunction,Plated,PTH,ComponentDrill
T2C0.800
; #@! TA.AperFunction,Plated,PTH,ComponentDrill
T3C1.000
%
G90
G05
T1
X27.718Y-24.638
X29.718Y-24.638
T2
X21.59Y-15.494
X21.59Y-19.558
X33.02Y-26.67
X33.02Y-30.988
X34.29Y-15.494
X34.29Y-19.558
X37.592Y-14.986
X37.592Y-22.606
X40.132Y-14.986
X40.132Y-22.606
X42.672Y-14.986
X42.672Y-22.606
X45.212Y-14.986
X45.212Y-22.606
X45.72Y-26.67
X45.72Y-30.988
X49.022Y-30.988
X49.784Y-14.478
X49.784Y-27.178
X54.102Y-14.478
X54.102Y-27.178
X58.42Y-14.478
X58.42Y-27.178
X61.722Y-30.988
T3
X16.002Y-16.129
X16.002Y-18.629
X16.002Y-25.146
X16.002Y-27.646
X63.754Y-15.494
M30
