%TF.GenerationSoftware,KiCad,Pcbnew,9.0.2*%
%TF.CreationDate,2025-07-07T17:16:47-07:00*%
%TF.ProjectId,switch_debounce_unit,73776974-6368-45f6-9465-626f756e6365,rev?*%
%TF.SameCoordinates,Original*%
%TF.FileFunction,Copper,L2,Bot*%
%TF.FilePolarity,Positive*%
%FSLAX46Y46*%
G04 Gerber Fmt 4.6, Leading zero omitted, Abs format (unit mm)*
G04 Created by KiCad (PCBNEW 9.0.2) date 2025-07-07 17:16:47*
%MOMM*%
%LPD*%
G01*
G04 APERTURE LIST*
G04 Aperture macros list*
%AMRoundRect*
0 Rectangle with rounded corners*
0 $1 Rounding radius*
0 $2 $3 $4 $5 $6 $7 $8 $9 X,Y pos of 4 corners*
0 Add a 4 corners polygon primitive as box body*
4,1,4,$2,$3,$4,$5,$6,$7,$8,$9,$2,$3,0*
0 Add four circle primitives for the rounded corners*
1,1,$1+$1,$2,$3*
1,1,$1+$1,$4,$5*
1,1,$1+$1,$6,$7*
1,1,$1+$1,$8,$9*
0 Add four rect primitives between the rounded corners*
20,1,$1+$1,$2,$3,$4,$5,0*
20,1,$1+$1,$4,$5,$6,$7,0*
20,1,$1+$1,$6,$7,$8,$9,0*
20,1,$1+$1,$8,$9,$2,$3,0*%
G04 Aperture macros list end*
%TA.AperFunction,ComponentPad*%
%ADD10RoundRect,0.250000X-0.750000X0.600000X-0.750000X-0.600000X0.750000X-0.600000X0.750000X0.600000X0*%
%TD*%
%TA.AperFunction,ComponentPad*%
%ADD11O,2.000000X1.700000*%
%TD*%
%TA.AperFunction,ComponentPad*%
%ADD12C,1.600000*%
%TD*%
%TA.AperFunction,ComponentPad*%
%ADD13RoundRect,0.250000X0.550000X-0.950000X0.550000X0.950000X-0.550000X0.950000X-0.550000X-0.950000X0*%
%TD*%
%TA.AperFunction,ComponentPad*%
%ADD14O,1.600000X2.400000*%
%TD*%
%TA.AperFunction,ComponentPad*%
%ADD15R,1.700000X1.700000*%
%TD*%
%TA.AperFunction,ComponentPad*%
%ADD16C,1.200000*%
%TD*%
G04 APERTURE END LIST*
D10*
%TO.P,SW1,1,1*%
%TO.N,GND*%
X16002000Y-16129000D03*
D11*
%TO.P,SW1,2,2*%
%TO.N,Net-(R31-Pad2)*%
X16002000Y-18629000D03*
%TD*%
D10*
%TO.P,BT1,1,+*%
%TO.N,+5V*%
X16002000Y-25146000D03*
D11*
%TO.P,BT1,2,-*%
%TO.N,GND*%
X16002000Y-27646000D03*
%TD*%
D12*
%TO.P,R36,2*%
%TO.N,Net-(R1-Pad1)*%
X49784000Y-27178000D03*
%TO.P,R36,1*%
%TO.N,+5V*%
X49784000Y-14478000D03*
%TD*%
%TO.P,R1,1*%
%TO.N,Net-(R1-Pad1)*%
X54102000Y-27178000D03*
%TO.P,R1,2*%
%TO.N,Net-(V_out1-Pin_1)*%
X54102000Y-14478000D03*
%TD*%
D13*
%TO.P,U1,1,EMIT*%
%TO.N,GND*%
X37592000Y-22606000D03*
D14*
%TO.P,U1,2,+*%
%TO.N,Net-(U1-+)*%
X40132000Y-22606000D03*
%TO.P,U1,3,-*%
%TO.N,Net-(U1--)*%
X42672000Y-22606000D03*
%TO.P,U1,4,V-*%
%TO.N,GND*%
X45212000Y-22606000D03*
%TO.P,U1,5,BAL*%
%TO.N,unconnected-(U1-BAL-Pad5)*%
X45212000Y-14986000D03*
%TO.P,U1,6,STRB*%
%TO.N,unconnected-(U1-STRB-Pad6)*%
X42672000Y-14986000D03*
%TO.P,U1,7*%
%TO.N,Net-(R1-Pad1)*%
X40132000Y-14986000D03*
%TO.P,U1,8,V+*%
%TO.N,+5V*%
X37592000Y-14986000D03*
%TD*%
D12*
%TO.P,R34,1*%
%TO.N,GND*%
X33020000Y-30988000D03*
%TO.P,R34,2*%
%TO.N,Net-(U1-+)*%
X45720000Y-30988000D03*
%TD*%
D15*
%TO.P,V_out1,1,Pin_1*%
%TO.N,Net-(V_out1-Pin_1)*%
X63754000Y-15494000D03*
%TD*%
D12*
%TO.P,R33,1*%
%TO.N,Net-(U1-+)*%
X45720000Y-26670000D03*
%TO.P,R33,2*%
%TO.N,+5V*%
X33020000Y-26670000D03*
%TD*%
%TO.P,R32,1*%
%TO.N,Net-(R31-Pad2)*%
X21590000Y-15494000D03*
%TO.P,R32,2*%
%TO.N,Net-(U1--)*%
X34290000Y-15494000D03*
%TD*%
%TO.P,R31,1*%
%TO.N,+5V*%
X34290000Y-19558000D03*
%TO.P,R31,2*%
%TO.N,Net-(R31-Pad2)*%
X21590000Y-19558000D03*
%TD*%
%TO.P,R2,1*%
%TO.N,GND*%
X58420000Y-27178000D03*
%TO.P,R2,2*%
%TO.N,Net-(V_out1-Pin_1)*%
X58420000Y-14478000D03*
%TD*%
%TO.P,R35,1*%
%TO.N,Net-(R1-Pad1)*%
X61722000Y-30988000D03*
%TO.P,R35,2*%
%TO.N,Net-(U1-+)*%
X49022000Y-30988000D03*
%TD*%
D16*
%TO.P,C6,1*%
%TO.N,Net-(U1--)*%
X27718000Y-24638000D03*
%TO.P,C6,2*%
%TO.N,GND*%
X29718000Y-24638000D03*
%TD*%
%TA.AperFunction,Conductor*%
%TO.N,GND*%
G36*
X65935922Y-12566280D02*
G01*
X66026266Y-12576459D01*
X66053331Y-12582636D01*
X66132540Y-12610352D01*
X66157553Y-12622398D01*
X66228606Y-12667043D01*
X66250313Y-12684355D01*
X66309644Y-12743686D01*
X66326957Y-12765395D01*
X66371600Y-12836444D01*
X66383648Y-12861462D01*
X66411362Y-12940666D01*
X66417540Y-12967735D01*
X66427720Y-13058076D01*
X66428500Y-13071961D01*
X66428500Y-32902038D01*
X66427720Y-32915922D01*
X66427720Y-32915923D01*
X66417540Y-33006264D01*
X66411362Y-33033333D01*
X66383648Y-33112537D01*
X66371600Y-33137555D01*
X66326957Y-33208604D01*
X66309644Y-33230313D01*
X66250313Y-33289644D01*
X66228604Y-33306957D01*
X66157555Y-33351600D01*
X66132537Y-33363648D01*
X66053333Y-33391362D01*
X66026264Y-33397540D01*
X65946075Y-33406576D01*
X65935921Y-33407720D01*
X65922038Y-33408500D01*
X13071962Y-33408500D01*
X13058078Y-33407720D01*
X13045553Y-33406308D01*
X12967735Y-33397540D01*
X12940666Y-33391362D01*
X12861462Y-33363648D01*
X12836444Y-33351600D01*
X12765395Y-33306957D01*
X12743686Y-33289644D01*
X12684355Y-33230313D01*
X12667042Y-33208604D01*
X12622399Y-33137555D01*
X12610351Y-33112537D01*
X12582637Y-33033333D01*
X12576459Y-33006263D01*
X12566280Y-32915922D01*
X12565500Y-32902038D01*
X12565500Y-30885682D01*
X31720000Y-30885682D01*
X31720000Y-31090317D01*
X31752009Y-31292417D01*
X31815244Y-31487031D01*
X31908141Y-31669350D01*
X31908147Y-31669359D01*
X31940523Y-31713921D01*
X31940524Y-31713922D01*
X32620000Y-31034446D01*
X32620000Y-31040661D01*
X32647259Y-31142394D01*
X32699920Y-31233606D01*
X32774394Y-31308080D01*
X32865606Y-31360741D01*
X32967339Y-31388000D01*
X32973553Y-31388000D01*
X32294076Y-32067474D01*
X32338650Y-32099859D01*
X32520968Y-32192755D01*
X32715582Y-32255990D01*
X32917683Y-32288000D01*
X33122317Y-32288000D01*
X33324417Y-32255990D01*
X33519031Y-32192755D01*
X33701349Y-32099859D01*
X33745921Y-32067474D01*
X33066447Y-31388000D01*
X33072661Y-31388000D01*
X33174394Y-31360741D01*
X33265606Y-31308080D01*
X33340080Y-31233606D01*
X33392741Y-31142394D01*
X33420000Y-31040661D01*
X33420000Y-31034447D01*
X34099474Y-31713921D01*
X34131859Y-31669349D01*
X34224755Y-31487031D01*
X34287990Y-31292417D01*
X34320000Y-31090317D01*
X34320000Y-30885682D01*
X34319995Y-30885648D01*
X44419500Y-30885648D01*
X44419500Y-31090351D01*
X44451522Y-31292534D01*
X44514781Y-31487223D01*
X44578691Y-31612653D01*
X44607585Y-31669359D01*
X44607715Y-31669613D01*
X44728028Y-31835213D01*
X44872786Y-31979971D01*
X44993226Y-32067474D01*
X45038390Y-32100287D01*
X45154607Y-32159503D01*
X45220776Y-32193218D01*
X45220778Y-32193218D01*
X45220781Y-32193220D01*
X45325137Y-32227127D01*
X45415465Y-32256477D01*
X45516557Y-32272488D01*
X45617648Y-32288500D01*
X45617649Y-32288500D01*
X45822351Y-32288500D01*
X45822352Y-32288500D01*
X46024534Y-32256477D01*
X46219219Y-32193220D01*
X46401610Y-32100287D01*
X46494590Y-32032732D01*
X46567213Y-31979971D01*
X46567215Y-31979968D01*
X46567219Y-31979966D01*
X46711966Y-31835219D01*
X46711968Y-31835215D01*
X46711971Y-31835213D01*
X46764732Y-31762590D01*
X46832287Y-31669610D01*
X46925220Y-31487219D01*
X46988477Y-31292534D01*
X47020500Y-31090352D01*
X47020500Y-30885648D01*
X47721500Y-30885648D01*
X47721500Y-31090351D01*
X47753522Y-31292534D01*
X47816781Y-31487223D01*
X47880691Y-31612653D01*
X47909585Y-31669359D01*
X47909715Y-31669613D01*
X48030028Y-31835213D01*
X48174786Y-31979971D01*
X48295226Y-32067474D01*
X48340390Y-32100287D01*
X48456607Y-32159503D01*
X48522776Y-32193218D01*
X48522778Y-32193218D01*
X48522781Y-32193220D01*
X48627137Y-32227127D01*
X48717465Y-32256477D01*
X48818557Y-32272488D01*
X48919648Y-32288500D01*
X48919649Y-32288500D01*
X49124351Y-32288500D01*
X49124352Y-32288500D01*
X49326534Y-32256477D01*
X49521219Y-32193220D01*
X49703610Y-32100287D01*
X49796590Y-32032732D01*
X49869213Y-31979971D01*
X49869215Y-31979968D01*
X49869219Y-31979966D01*
X50013966Y-31835219D01*
X50013968Y-31835215D01*
X50013971Y-31835213D01*
X50066732Y-31762590D01*
X50134287Y-31669610D01*
X50227220Y-31487219D01*
X50290477Y-31292534D01*
X50322500Y-31090352D01*
X50322500Y-30885648D01*
X60421500Y-30885648D01*
X60421500Y-31090351D01*
X60453522Y-31292534D01*
X60516781Y-31487223D01*
X60580691Y-31612653D01*
X60609585Y-31669359D01*
X60609715Y-31669613D01*
X60730028Y-31835213D01*
X60874786Y-31979971D01*
X60995226Y-32067474D01*
X61040390Y-32100287D01*
X61156607Y-32159503D01*
X61222776Y-32193218D01*
X61222778Y-32193218D01*
X61222781Y-32193220D01*
X61327137Y-32227127D01*
X61417465Y-32256477D01*
X61518557Y-32272488D01*
X61619648Y-32288500D01*
X61619649Y-32288500D01*
X61824351Y-32288500D01*
X61824352Y-32288500D01*
X62026534Y-32256477D01*
X62221219Y-32193220D01*
X62403610Y-32100287D01*
X62496590Y-32032732D01*
X62569213Y-31979971D01*
X62569215Y-31979968D01*
X62569219Y-31979966D01*
X62713966Y-31835219D01*
X62713968Y-31835215D01*
X62713971Y-31835213D01*
X62766732Y-31762590D01*
X62834287Y-31669610D01*
X62927220Y-31487219D01*
X62990477Y-31292534D01*
X63022500Y-31090352D01*
X63022500Y-30885648D01*
X63014257Y-30833606D01*
X62990477Y-30683465D01*
X62959458Y-30588000D01*
X62927220Y-30488781D01*
X62927218Y-30488778D01*
X62927218Y-30488776D01*
X62834419Y-30306650D01*
X62834287Y-30306390D01*
X62802092Y-30262077D01*
X62713971Y-30140786D01*
X62569213Y-29996028D01*
X62403613Y-29875715D01*
X62403612Y-29875714D01*
X62403610Y-29875713D01*
X62346653Y-29846691D01*
X62221223Y-29782781D01*
X62026534Y-29719522D01*
X61851995Y-29691878D01*
X61824352Y-29687500D01*
X61619648Y-29687500D01*
X61595329Y-29691351D01*
X61417465Y-29719522D01*
X61222776Y-29782781D01*
X61040386Y-29875715D01*
X60874786Y-29996028D01*
X60730028Y-30140786D01*
X60609715Y-30306386D01*
X60516781Y-30488776D01*
X60453522Y-30683465D01*
X60421500Y-30885648D01*
X50322500Y-30885648D01*
X50314257Y-30833606D01*
X50290477Y-30683465D01*
X50259458Y-30588000D01*
X50227220Y-30488781D01*
X50227218Y-30488778D01*
X50227218Y-30488776D01*
X50134419Y-30306650D01*
X50134287Y-30306390D01*
X50102092Y-30262077D01*
X50013971Y-30140786D01*
X49869213Y-29996028D01*
X49703613Y-29875715D01*
X49703612Y-29875714D01*
X49703610Y-29875713D01*
X49646653Y-29846691D01*
X49521223Y-29782781D01*
X49326534Y-29719522D01*
X49151995Y-29691878D01*
X49124352Y-29687500D01*
X48919648Y-29687500D01*
X48895329Y-29691351D01*
X48717465Y-29719522D01*
X48522776Y-29782781D01*
X48340386Y-29875715D01*
X48174786Y-29996028D01*
X48030028Y-30140786D01*
X47909715Y-30306386D01*
X47816781Y-30488776D01*
X47753522Y-30683465D01*
X47721500Y-30885648D01*
X47020500Y-30885648D01*
X47012257Y-30833606D01*
X46988477Y-30683465D01*
X46957458Y-30588000D01*
X46925220Y-30488781D01*
X46925218Y-30488778D01*
X46925218Y-30488776D01*
X46832419Y-30306650D01*
X46832287Y-30306390D01*
X46800092Y-30262077D01*
X46711971Y-30140786D01*
X46567213Y-29996028D01*
X46401613Y-29875715D01*
X46401612Y-29875714D01*
X46401610Y-29875713D01*
X46344653Y-29846691D01*
X46219223Y-29782781D01*
X46024534Y-29719522D01*
X45849995Y-29691878D01*
X45822352Y-29687500D01*
X45617648Y-29687500D01*
X45593329Y-29691351D01*
X45415465Y-29719522D01*
X45220776Y-29782781D01*
X45038386Y-29875715D01*
X44872786Y-29996028D01*
X44728028Y-30140786D01*
X44607715Y-30306386D01*
X44514781Y-30488776D01*
X44451522Y-30683465D01*
X44419500Y-30885648D01*
X34319995Y-30885648D01*
X34287990Y-30683582D01*
X34224755Y-30488968D01*
X34131859Y-30306650D01*
X34099474Y-30262077D01*
X34099474Y-30262076D01*
X33420000Y-30941551D01*
X33420000Y-30935339D01*
X33392741Y-30833606D01*
X33340080Y-30742394D01*
X33265606Y-30667920D01*
X33174394Y-30615259D01*
X33072661Y-30588000D01*
X33066446Y-30588000D01*
X33745922Y-29908524D01*
X33745921Y-29908523D01*
X33701359Y-29876147D01*
X33701350Y-29876141D01*
X33519031Y-29783244D01*
X33324417Y-29720009D01*
X33122317Y-29688000D01*
X32917683Y-29688000D01*
X32715582Y-29720009D01*
X32520968Y-29783244D01*
X32338644Y-29876143D01*
X32294077Y-29908523D01*
X32294077Y-29908524D01*
X32973554Y-30588000D01*
X32967339Y-30588000D01*
X32865606Y-30615259D01*
X32774394Y-30667920D01*
X32699920Y-30742394D01*
X32647259Y-30833606D01*
X32620000Y-30935339D01*
X32620000Y-30941553D01*
X31940524Y-30262077D01*
X31940523Y-30262077D01*
X31908143Y-30306644D01*
X31815244Y-30488968D01*
X31752009Y-30683582D01*
X31720000Y-30885682D01*
X12565500Y-30885682D01*
X12565500Y-23462228D01*
X13151500Y-23462228D01*
X13151500Y-23629771D01*
X13184182Y-23794074D01*
X13184184Y-23794082D01*
X13248295Y-23948860D01*
X13341373Y-24088162D01*
X13459837Y-24206626D01*
X13510318Y-24240356D01*
X13599137Y-24299703D01*
X13753918Y-24363816D01*
X13901643Y-24393200D01*
X13918228Y-24396499D01*
X13918232Y-24396500D01*
X13918233Y-24396500D01*
X14085768Y-24396500D01*
X14085769Y-24396499D01*
X14250082Y-24363816D01*
X14334786Y-24328729D01*
X14404254Y-24321261D01*
X14466733Y-24352536D01*
X14502386Y-24412624D01*
X14505596Y-24455893D01*
X14501500Y-24495981D01*
X14501500Y-25796001D01*
X14501501Y-25796018D01*
X14512000Y-25898796D01*
X14512001Y-25898799D01*
X14536517Y-25972781D01*
X14567186Y-26065334D01*
X14633300Y-26172523D01*
X14659289Y-26214657D01*
X14783344Y-26338712D01*
X14938558Y-26434448D01*
X14985283Y-26486396D01*
X14996506Y-26555358D01*
X14968663Y-26619441D01*
X14961144Y-26627668D01*
X14822271Y-26766541D01*
X14697379Y-26938442D01*
X14600904Y-27127782D01*
X14535242Y-27329870D01*
X14535242Y-27329873D01*
X14524769Y-27396000D01*
X15568988Y-27396000D01*
X15536075Y-27453007D01*
X15502000Y-27580174D01*
X15502000Y-27711826D01*
X15536075Y-27838993D01*
X15568988Y-27896000D01*
X14524769Y-27896000D01*
X14535242Y-27962126D01*
X14535242Y-27962129D01*
X14600904Y-28164217D01*
X14697379Y-28353557D01*
X14822272Y-28525459D01*
X14822276Y-28525464D01*
X14972535Y-28675723D01*
X14972540Y-28675727D01*
X15144442Y-28800620D01*
X15333782Y-28897095D01*
X15535870Y-28962757D01*
X15745754Y-28996000D01*
X15752000Y-28996000D01*
X15752000Y-28079012D01*
X15809007Y-28111925D01*
X15936174Y-28146000D01*
X16067826Y-28146000D01*
X16194993Y-28111925D01*
X16252000Y-28079012D01*
X16252000Y-28996000D01*
X16258246Y-28996000D01*
X16468127Y-28962757D01*
X16468130Y-28962757D01*
X16670217Y-28897095D01*
X16859557Y-28800620D01*
X17031459Y-28675727D01*
X17031464Y-28675723D01*
X17181723Y-28525464D01*
X17181727Y-28525459D01*
X17306620Y-28353557D01*
X17403095Y-28164217D01*
X17468757Y-27962129D01*
X17468757Y-27962126D01*
X17479231Y-27896000D01*
X16435012Y-27896000D01*
X16467925Y-27838993D01*
X16502000Y-27711826D01*
X16502000Y-27580174D01*
X16467925Y-27453007D01*
X16435012Y-27396000D01*
X17479231Y-27396000D01*
X17468757Y-27329873D01*
X17468757Y-27329870D01*
X17403095Y-27127782D01*
X17306620Y-26938442D01*
X17181727Y-26766540D01*
X17181723Y-26766535D01*
X17042856Y-26627668D01*
X17009371Y-26566345D01*
X17014355Y-26496653D01*
X17056227Y-26440720D01*
X17065441Y-26434448D01*
X17071331Y-26430814D01*
X17071334Y-26430814D01*
X17220656Y-26338712D01*
X17344712Y-26214656D01*
X17436814Y-26065334D01*
X17491999Y-25898797D01*
X17502500Y-25796009D01*
X17502499Y-24495992D01*
X17491999Y-24393203D01*
X17436814Y-24226666D01*
X17344712Y-24077344D01*
X17256936Y-23989568D01*
X20613500Y-23989568D01*
X20613500Y-24270431D01*
X20644942Y-24549494D01*
X20644945Y-24549512D01*
X20707439Y-24823317D01*
X20707443Y-24823329D01*
X20800200Y-25088411D01*
X20922053Y-25341442D01*
X20930528Y-25354930D01*
X21071477Y-25579248D01*
X21198078Y-25738000D01*
X21244337Y-25796008D01*
X21246584Y-25798825D01*
X21445175Y-25997416D01*
X21664752Y-26172523D01*
X21731808Y-26214657D01*
X21902557Y-26321946D01*
X21937372Y-26338712D01*
X22155592Y-26443801D01*
X22354680Y-26513465D01*
X22420670Y-26536556D01*
X22420682Y-26536560D01*
X22694491Y-26599055D01*
X22694497Y-26599055D01*
X22694505Y-26599057D01*
X22875423Y-26619441D01*
X22973569Y-26630499D01*
X22973572Y-26630500D01*
X22973575Y-26630500D01*
X23254428Y-26630500D01*
X23254429Y-26630499D01*
X23397055Y-26614429D01*
X23533494Y-26599057D01*
X23533499Y-26599056D01*
X23533509Y-26599055D01*
X23671112Y-26567648D01*
X31719500Y-26567648D01*
X31719500Y-26772351D01*
X31751522Y-26974534D01*
X31814781Y-27169223D01*
X31846086Y-27230661D01*
X31901284Y-27338993D01*
X31907715Y-27351613D01*
X32028028Y-27517213D01*
X32172786Y-27661971D01*
X32327749Y-27774556D01*
X32338390Y-27782287D01*
X32449682Y-27838993D01*
X32520776Y-27875218D01*
X32520778Y-27875218D01*
X32520781Y-27875220D01*
X32609114Y-27903921D01*
X32715465Y-27938477D01*
X32807203Y-27953007D01*
X32917648Y-27970500D01*
X32917649Y-27970500D01*
X33122351Y-27970500D01*
X33122352Y-27970500D01*
X33324534Y-27938477D01*
X33519219Y-27875220D01*
X33701610Y-27782287D01*
X33798592Y-27711826D01*
X33867213Y-27661971D01*
X33867215Y-27661968D01*
X33867219Y-27661966D01*
X34011966Y-27517219D01*
X34011968Y-27517215D01*
X34011971Y-27517213D01*
X34100036Y-27396000D01*
X34132287Y-27351610D01*
X34225220Y-27169219D01*
X34288477Y-26974534D01*
X34320500Y-26772352D01*
X34320500Y-26567648D01*
X44419500Y-26567648D01*
X44419500Y-26772351D01*
X44451522Y-26974534D01*
X44514781Y-27169223D01*
X44546086Y-27230661D01*
X44601284Y-27338993D01*
X44607715Y-27351613D01*
X44728028Y-27517213D01*
X44872786Y-27661971D01*
X45027749Y-27774556D01*
X45038390Y-27782287D01*
X45149682Y-27838993D01*
X45220776Y-27875218D01*
X45220778Y-27875218D01*
X45220781Y-27875220D01*
X45309114Y-27903921D01*
X45415465Y-27938477D01*
X45507203Y-27953007D01*
X45617648Y-27970500D01*
X45617649Y-27970500D01*
X45822351Y-27970500D01*
X45822352Y-27970500D01*
X46024534Y-27938477D01*
X46219219Y-27875220D01*
X46401610Y-27782287D01*
X46498592Y-27711826D01*
X46567213Y-27661971D01*
X46567215Y-27661968D01*
X46567219Y-27661966D01*
X46711966Y-27517219D01*
X46711968Y-27517215D01*
X46711971Y-27517213D01*
X46800036Y-27396000D01*
X46832287Y-27351610D01*
X46925220Y-27169219D01*
X46955623Y-27075648D01*
X48483500Y-27075648D01*
X48483500Y-27280351D01*
X48515522Y-27482534D01*
X48578781Y-27677223D01*
X48632313Y-27782284D01*
X48671585Y-27859359D01*
X48671715Y-27859613D01*
X48792028Y-28025213D01*
X48936786Y-28169971D01*
X49057226Y-28257474D01*
X49102390Y-28290287D01*
X49218607Y-28349503D01*
X49284776Y-28383218D01*
X49284778Y-28383218D01*
X49284781Y-28383220D01*
X49389137Y-28417127D01*
X49479465Y-28446477D01*
X49580557Y-28462488D01*
X49681648Y-28478500D01*
X49681649Y-28478500D01*
X49886351Y-28478500D01*
X49886352Y-28478500D01*
X50088534Y-28446477D01*
X50283219Y-28383220D01*
X50465610Y-28290287D01*
X50558590Y-28222732D01*
X50631213Y-28169971D01*
X50631215Y-28169968D01*
X50631219Y-28169966D01*
X50775966Y-28025219D01*
X50775968Y-28025215D01*
X50775971Y-28025213D01*
X50838987Y-27938477D01*
X50896287Y-27859610D01*
X50989220Y-27677219D01*
X51052477Y-27482534D01*
X51084500Y-27280352D01*
X51084500Y-27075648D01*
X52801500Y-27075648D01*
X52801500Y-27280351D01*
X52833522Y-27482534D01*
X52896781Y-27677223D01*
X52950313Y-27782284D01*
X52989585Y-27859359D01*
X52989715Y-27859613D01*
X53110028Y-28025213D01*
X53254786Y-28169971D01*
X53375226Y-28257474D01*
X53420390Y-28290287D01*
X53536607Y-28349503D01*
X53602776Y-28383218D01*
X53602778Y-28383218D01*
X53602781Y-28383220D01*
X53707137Y-28417127D01*
X53797465Y-28446477D01*
X53898557Y-28462488D01*
X53999648Y-28478500D01*
X53999649Y-28478500D01*
X54204351Y-28478500D01*
X54204352Y-28478500D01*
X54406534Y-28446477D01*
X54601219Y-28383220D01*
X54783610Y-28290287D01*
X54876590Y-28222732D01*
X54949213Y-28169971D01*
X54949215Y-28169968D01*
X54949219Y-28169966D01*
X55093966Y-28025219D01*
X55093968Y-28025215D01*
X55093971Y-28025213D01*
X55156987Y-27938477D01*
X55214287Y-27859610D01*
X55307220Y-27677219D01*
X55370477Y-27482534D01*
X55402500Y-27280352D01*
X55402500Y-27075682D01*
X57120000Y-27075682D01*
X57120000Y-27280317D01*
X57152009Y-27482417D01*
X57215244Y-27677031D01*
X57308141Y-27859350D01*
X57308147Y-27859359D01*
X57340523Y-27903921D01*
X57340524Y-27903922D01*
X58020000Y-27224446D01*
X58020000Y-27230661D01*
X58047259Y-27332394D01*
X58099920Y-27423606D01*
X58174394Y-27498080D01*
X58265606Y-27550741D01*
X58367339Y-27578000D01*
X58373553Y-27578000D01*
X57694076Y-28257474D01*
X57738650Y-28289859D01*
X57920968Y-28382755D01*
X58115582Y-28445990D01*
X58317683Y-28478000D01*
X58522317Y-28478000D01*
X58724417Y-28445990D01*
X58919031Y-28382755D01*
X59101349Y-28289859D01*
X59145921Y-28257474D01*
X58466447Y-27578000D01*
X58472661Y-27578000D01*
X58574394Y-27550741D01*
X58665606Y-27498080D01*
X58740080Y-27423606D01*
X58792741Y-27332394D01*
X58820000Y-27230661D01*
X58820000Y-27224447D01*
X59499474Y-27903921D01*
X59531859Y-27859349D01*
X59624755Y-27677031D01*
X59687990Y-27482417D01*
X59720000Y-27280317D01*
X59720000Y-27075682D01*
X59687990Y-26873582D01*
X59624755Y-26678968D01*
X59531859Y-26496650D01*
X59499474Y-26452077D01*
X59499474Y-26452076D01*
X58820000Y-27131551D01*
X58820000Y-27125339D01*
X58792741Y-27023606D01*
X58740080Y-26932394D01*
X58665606Y-26857920D01*
X58574394Y-26805259D01*
X58472661Y-26778000D01*
X58466446Y-26778000D01*
X59145922Y-26098524D01*
X59145921Y-26098523D01*
X59101359Y-26066147D01*
X59101350Y-26066141D01*
X58919031Y-25973244D01*
X58724417Y-25910009D01*
X58522317Y-25878000D01*
X58317683Y-25878000D01*
X58115582Y-25910009D01*
X57920968Y-25973244D01*
X57738644Y-26066143D01*
X57694077Y-26098523D01*
X57694077Y-26098524D01*
X58373554Y-26778000D01*
X58367339Y-26778000D01*
X58265606Y-26805259D01*
X58174394Y-26857920D01*
X58099920Y-26932394D01*
X58047259Y-27023606D01*
X58020000Y-27125339D01*
X58020000Y-27131553D01*
X57340524Y-26452077D01*
X57340523Y-26452077D01*
X57308143Y-26496644D01*
X57215244Y-26678968D01*
X57152009Y-26873582D01*
X57120000Y-27075682D01*
X55402500Y-27075682D01*
X55402500Y-27075648D01*
X55394257Y-27023606D01*
X55370477Y-26873465D01*
X55335733Y-26766535D01*
X55307220Y-26678781D01*
X55307218Y-26678778D01*
X55307218Y-26678776D01*
X55273503Y-26612607D01*
X55214287Y-26496390D01*
X55182092Y-26452077D01*
X55093971Y-26330786D01*
X54949213Y-26186028D01*
X54783613Y-26065715D01*
X54783612Y-26065714D01*
X54783610Y-26065713D01*
X54726653Y-26036691D01*
X54601223Y-25972781D01*
X54406534Y-25909522D01*
X54231995Y-25881878D01*
X54204352Y-25877500D01*
X53999648Y-25877500D01*
X53975329Y-25881351D01*
X53797465Y-25909522D01*
X53602776Y-25972781D01*
X53420386Y-26065715D01*
X53254786Y-26186028D01*
X53110028Y-26330786D01*
X52989715Y-26496386D01*
X52896781Y-26678776D01*
X52833522Y-26873465D01*
X52801500Y-27075648D01*
X51084500Y-27075648D01*
X51076257Y-27023606D01*
X51052477Y-26873465D01*
X51017733Y-26766535D01*
X50989220Y-26678781D01*
X50989218Y-26678778D01*
X50989218Y-26678776D01*
X50955503Y-26612607D01*
X50896287Y-26496390D01*
X50864092Y-26452077D01*
X50775971Y-26330786D01*
X50631213Y-26186028D01*
X50465613Y-26065715D01*
X50465612Y-26065714D01*
X50465610Y-26065713D01*
X50408653Y-26036691D01*
X50283223Y-25972781D01*
X50088534Y-25909522D01*
X49913995Y-25881878D01*
X49886352Y-25877500D01*
X49681648Y-25877500D01*
X49657329Y-25881351D01*
X49479465Y-25909522D01*
X49284776Y-25972781D01*
X49102386Y-26065715D01*
X48936786Y-26186028D01*
X48792028Y-26330786D01*
X48671715Y-26496386D01*
X48578781Y-26678776D01*
X48515522Y-26873465D01*
X48483500Y-27075648D01*
X46955623Y-27075648D01*
X46988477Y-26974534D01*
X47020500Y-26772352D01*
X47020500Y-26567648D01*
X47001191Y-26445735D01*
X46988477Y-26365465D01*
X46925218Y-26170776D01*
X46871490Y-26065331D01*
X46832287Y-25988390D01*
X46821283Y-25973244D01*
X46711971Y-25822786D01*
X46567213Y-25678028D01*
X46401613Y-25557715D01*
X46401612Y-25557714D01*
X46401610Y-25557713D01*
X46318482Y-25515357D01*
X46219223Y-25464781D01*
X46024534Y-25401522D01*
X45849995Y-25373878D01*
X45822352Y-25369500D01*
X45617648Y-25369500D01*
X45593329Y-25373351D01*
X45415465Y-25401522D01*
X45220776Y-25464781D01*
X45038386Y-25557715D01*
X44872786Y-25678028D01*
X44728028Y-25822786D01*
X44607715Y-25988386D01*
X44514781Y-26170776D01*
X44451522Y-26365465D01*
X44419500Y-26567648D01*
X34320500Y-26567648D01*
X34301191Y-26445735D01*
X34288477Y-26365465D01*
X34225218Y-26170776D01*
X34171490Y-26065331D01*
X34132287Y-25988390D01*
X34121283Y-25973244D01*
X34011971Y-25822786D01*
X33867213Y-25678028D01*
X33701613Y-25557715D01*
X33701612Y-25557714D01*
X33701610Y-25557713D01*
X33618482Y-25515357D01*
X33519223Y-25464781D01*
X33324534Y-25401522D01*
X33149995Y-25373878D01*
X33122352Y-25369500D01*
X32917648Y-25369500D01*
X32893329Y-25373351D01*
X32715465Y-25401522D01*
X32520776Y-25464781D01*
X32338386Y-25557715D01*
X32172786Y-25678028D01*
X32028028Y-25822786D01*
X31907715Y-25988386D01*
X31814781Y-26170776D01*
X31751522Y-26365465D01*
X31719500Y-26567648D01*
X23671112Y-26567648D01*
X23807318Y-26536560D01*
X24072408Y-26443801D01*
X24325445Y-26321945D01*
X24563248Y-26172523D01*
X24782825Y-25997416D01*
X24981416Y-25798825D01*
X25156523Y-25579248D01*
X25305945Y-25341445D01*
X25427801Y-25088408D01*
X25520560Y-24823318D01*
X25582626Y-24551389D01*
X26617500Y-24551389D01*
X26617500Y-24724611D01*
X26644598Y-24895701D01*
X26698127Y-25060445D01*
X26776768Y-25214788D01*
X26878586Y-25354928D01*
X27001072Y-25477414D01*
X27141212Y-25579232D01*
X27295555Y-25657873D01*
X27460299Y-25711402D01*
X27631389Y-25738500D01*
X27631390Y-25738500D01*
X27804610Y-25738500D01*
X27804611Y-25738500D01*
X27975701Y-25711402D01*
X28140445Y-25657873D01*
X28294788Y-25579232D01*
X28301591Y-25574289D01*
X29135261Y-25574289D01*
X29135262Y-25574290D01*
X29141471Y-25578801D01*
X29295742Y-25657408D01*
X29460415Y-25710914D01*
X29631429Y-25738000D01*
X29804571Y-25738000D01*
X29975584Y-25710914D01*
X30140257Y-25657408D01*
X30294525Y-25578803D01*
X30300736Y-25574289D01*
X30300737Y-25574289D01*
X29718001Y-24991553D01*
X29718000Y-24991553D01*
X29135261Y-25574289D01*
X28301591Y-25574289D01*
X28434928Y-25477414D01*
X28557414Y-25354928D01*
X28623948Y-25263351D01*
X28627268Y-25259493D01*
X28652489Y-25243157D01*
X28676280Y-25224812D01*
X28682149Y-25223946D01*
X28685912Y-25221510D01*
X28698991Y-25221463D01*
X28730999Y-25216745D01*
X28781710Y-25220736D01*
X29364446Y-24638001D01*
X29364446Y-24637999D01*
X29324951Y-24598504D01*
X29418000Y-24598504D01*
X29418000Y-24677496D01*
X29438444Y-24753796D01*
X29477940Y-24822205D01*
X29533795Y-24878060D01*
X29602204Y-24917556D01*
X29678504Y-24938000D01*
X29757496Y-24938000D01*
X29833796Y-24917556D01*
X29902205Y-24878060D01*
X29958060Y-24822205D01*
X29997556Y-24753796D01*
X30018000Y-24677496D01*
X30018000Y-24637999D01*
X30071553Y-24637999D01*
X30071553Y-24638001D01*
X30654289Y-25220737D01*
X30654289Y-25220736D01*
X30658803Y-25214525D01*
X30737408Y-25060257D01*
X30790914Y-24895584D01*
X30818000Y-24724571D01*
X30818000Y-24551428D01*
X30790914Y-24380415D01*
X30737408Y-24215742D01*
X30658801Y-24061471D01*
X30654290Y-24055262D01*
X30654289Y-24055261D01*
X30071553Y-24637999D01*
X30018000Y-24637999D01*
X30018000Y-24598504D01*
X29997556Y-24522204D01*
X29958060Y-24453795D01*
X29902205Y-24397940D01*
X29833796Y-24358444D01*
X29757496Y-24338000D01*
X29678504Y-24338000D01*
X29602204Y-24358444D01*
X29533795Y-24397940D01*
X29477940Y-24453795D01*
X29438444Y-24522204D01*
X29418000Y-24598504D01*
X29324951Y-24598504D01*
X28781708Y-24055261D01*
X28731004Y-24059254D01*
X28725869Y-24058175D01*
X28720830Y-24059636D01*
X28692024Y-24051067D01*
X28662626Y-24044893D01*
X28657538Y-24040809D01*
X28653861Y-24039715D01*
X28641041Y-24027564D01*
X28627269Y-24016508D01*
X28623947Y-24012647D01*
X28557414Y-23921072D01*
X28434928Y-23798586D01*
X28301587Y-23701708D01*
X29135261Y-23701708D01*
X29135261Y-23701709D01*
X29718000Y-24284446D01*
X29718001Y-24284446D01*
X30300737Y-23701709D01*
X30294525Y-23697196D01*
X30140259Y-23618592D01*
X29975584Y-23565085D01*
X29804571Y-23538000D01*
X29631429Y-23538000D01*
X29460415Y-23565085D01*
X29295740Y-23618592D01*
X29141480Y-23697193D01*
X29141463Y-23697203D01*
X29135261Y-23701708D01*
X28301587Y-23701708D01*
X28294788Y-23696768D01*
X28140445Y-23618127D01*
X27975701Y-23564598D01*
X27975699Y-23564597D01*
X27975698Y-23564597D01*
X27842961Y-23543574D01*
X27804611Y-23537500D01*
X27631389Y-23537500D01*
X27593039Y-23543574D01*
X27460302Y-23564597D01*
X27295552Y-23618128D01*
X27141211Y-23696768D01*
X27107891Y-23720977D01*
X27001072Y-23798586D01*
X27001070Y-23798588D01*
X27001069Y-23798588D01*
X26878588Y-23921069D01*
X26878588Y-23921070D01*
X26878586Y-23921072D01*
X26858397Y-23948860D01*
X26776768Y-24061211D01*
X26698128Y-24215552D01*
X26644597Y-24380302D01*
X26639478Y-24412624D01*
X26617500Y-24551389D01*
X25582626Y-24551389D01*
X25583055Y-24549509D01*
X25583931Y-24541730D01*
X25584957Y-24532633D01*
X25584957Y-24532632D01*
X25603977Y-24363816D01*
X25614500Y-24270425D01*
X25614500Y-23989575D01*
X25600034Y-23861185D01*
X25583057Y-23710505D01*
X25583054Y-23710487D01*
X25582645Y-23708697D01*
X25520560Y-23436682D01*
X25427801Y-23171592D01*
X25305945Y-22918555D01*
X25156523Y-22680752D01*
X24981416Y-22461175D01*
X24782825Y-22262584D01*
X24563248Y-22087477D01*
X24325445Y-21938055D01*
X24325442Y-21938053D01*
X24072411Y-21816200D01*
X23807329Y-21723443D01*
X23807317Y-21723439D01*
X23533512Y-21660945D01*
X23533494Y-21660942D01*
X23254431Y-21629500D01*
X23254425Y-21629500D01*
X22973575Y-21629500D01*
X22973568Y-21629500D01*
X22694505Y-21660942D01*
X22694487Y-21660945D01*
X22420682Y-21723439D01*
X22420670Y-21723443D01*
X22155588Y-21816200D01*
X21902557Y-21938053D01*
X21664753Y-22087476D01*
X21445175Y-22262583D01*
X21246583Y-22461175D01*
X21071476Y-22680753D01*
X20922053Y-22918557D01*
X20800200Y-23171588D01*
X20707443Y-23436670D01*
X20707439Y-23436682D01*
X20644945Y-23710487D01*
X20644942Y-23710505D01*
X20613500Y-23989568D01*
X17256936Y-23989568D01*
X17220656Y-23953288D01*
X17071334Y-23861186D01*
X16904797Y-23806001D01*
X16904795Y-23806000D01*
X16802010Y-23795500D01*
X15201998Y-23795500D01*
X15201981Y-23795501D01*
X15099203Y-23806000D01*
X15099200Y-23806001D01*
X14999735Y-23838961D01*
X14929906Y-23841363D01*
X14869865Y-23805631D01*
X14838672Y-23743110D01*
X14839114Y-23697063D01*
X14839173Y-23696768D01*
X14852500Y-23629767D01*
X14852500Y-23462233D01*
X14819816Y-23297918D01*
X14767488Y-23171588D01*
X14755704Y-23143139D01*
X14662626Y-23003837D01*
X14544162Y-22885373D01*
X14404860Y-22792295D01*
X14250082Y-22728184D01*
X14250074Y-22728182D01*
X14085771Y-22695500D01*
X14085767Y-22695500D01*
X13918233Y-22695500D01*
X13918228Y-22695500D01*
X13753925Y-22728182D01*
X13753917Y-22728184D01*
X13599139Y-22792295D01*
X13459837Y-22885373D01*
X13341373Y-23003837D01*
X13248295Y-23143139D01*
X13184184Y-23297917D01*
X13184182Y-23297925D01*
X13151500Y-23462228D01*
X12565500Y-23462228D01*
X12565500Y-21606013D01*
X36292000Y-21606013D01*
X36292000Y-22356000D01*
X37276314Y-22356000D01*
X37271920Y-22360394D01*
X37219259Y-22451606D01*
X37192000Y-22553339D01*
X37192000Y-22658661D01*
X37219259Y-22760394D01*
X37271920Y-22851606D01*
X37276314Y-22856000D01*
X36292001Y-22856000D01*
X36292001Y-23605986D01*
X36302494Y-23708697D01*
X36357641Y-23875119D01*
X36357643Y-23875124D01*
X36449684Y-24024345D01*
X36573654Y-24148315D01*
X36722875Y-24240356D01*
X36722880Y-24240358D01*
X36889302Y-24295505D01*
X36889309Y-24295506D01*
X36992019Y-24305999D01*
X37341999Y-24305999D01*
X37342000Y-24305998D01*
X37342000Y-22921686D01*
X37346394Y-22926080D01*
X37437606Y-22978741D01*
X37539339Y-23006000D01*
X37644661Y-23006000D01*
X37746394Y-22978741D01*
X37837606Y-22926080D01*
X37842000Y-22921686D01*
X37842000Y-24305999D01*
X38191972Y-24305999D01*
X38191986Y-24305998D01*
X38294697Y-24295505D01*
X38461119Y-24240358D01*
X38461124Y-24240356D01*
X38610345Y-24148315D01*
X38734315Y-24024345D01*
X38826356Y-23875124D01*
X38826359Y-23875117D01*
X38853592Y-23792932D01*
X38893364Y-23735487D01*
X38957879Y-23708663D01*
X39026655Y-23720977D01*
X39071616Y-23759049D01*
X39125600Y-23833352D01*
X39140034Y-23853219D01*
X39284786Y-23997971D01*
X39394036Y-24077344D01*
X39450390Y-24118287D01*
X39566607Y-24177503D01*
X39632776Y-24211218D01*
X39632778Y-24211218D01*
X39632781Y-24211220D01*
X39722459Y-24240358D01*
X39827465Y-24274477D01*
X39928557Y-24290488D01*
X40029648Y-24306500D01*
X40029649Y-24306500D01*
X40234351Y-24306500D01*
X40234352Y-24306500D01*
X40436534Y-24274477D01*
X40631219Y-24211220D01*
X40813610Y-24118287D01*
X40938481Y-24027564D01*
X40979213Y-23997971D01*
X40979215Y-23997968D01*
X40979219Y-23997966D01*
X41123966Y-23853219D01*
X41123968Y-23853215D01*
X41123971Y-23853213D01*
X41244284Y-23687614D01*
X41244283Y-23687614D01*
X41244287Y-23687610D01*
X41291516Y-23594917D01*
X41339489Y-23544123D01*
X41407310Y-23527328D01*
X41473445Y-23549865D01*
X41512483Y-23594917D01*
X41530241Y-23629768D01*
X41559715Y-23687614D01*
X41680028Y-23853213D01*
X41824786Y-23997971D01*
X41934036Y-24077344D01*
X41990390Y-24118287D01*
X42106607Y-24177503D01*
X42172776Y-24211218D01*
X42172778Y-24211218D01*
X42172781Y-24211220D01*
X42262459Y-24240358D01*
X42367465Y-24274477D01*
X42468557Y-24290488D01*
X42569648Y-24306500D01*
X42569649Y-24306500D01*
X42774351Y-24306500D01*
X42774352Y-24306500D01*
X42976534Y-24274477D01*
X43171219Y-24211220D01*
X43353610Y-24118287D01*
X43478481Y-24027564D01*
X43519213Y-23997971D01*
X43519215Y-23997968D01*
X43519219Y-23997966D01*
X43663966Y-23853219D01*
X43663968Y-23853215D01*
X43663971Y-23853213D01*
X43784284Y-23687614D01*
X43784283Y-23687614D01*
X43784287Y-23687610D01*
X43831795Y-23594369D01*
X43879770Y-23543574D01*
X43947591Y-23526779D01*
X44013725Y-23549316D01*
X44052765Y-23594370D01*
X44100140Y-23687349D01*
X44220417Y-23852894D01*
X44220417Y-23852895D01*
X44365104Y-23997582D01*
X44530650Y-24117859D01*
X44712968Y-24210754D01*
X44907578Y-24273988D01*
X44962000Y-24282607D01*
X44962000Y-22921686D01*
X44966394Y-22926080D01*
X45057606Y-22978741D01*
X45159339Y-23006000D01*
X45264661Y-23006000D01*
X45366394Y-22978741D01*
X45457606Y-22926080D01*
X45462000Y-22921686D01*
X45462000Y-24282606D01*
X45516421Y-24273988D01*
X45711031Y-24210754D01*
X45893349Y-24117859D01*
X46058894Y-23997582D01*
X46058895Y-23997582D01*
X46066909Y-23989568D01*
X60613500Y-23989568D01*
X60613500Y-24270431D01*
X60644942Y-24549494D01*
X60644945Y-24549512D01*
X60707439Y-24823317D01*
X60707443Y-24823329D01*
X60800200Y-25088411D01*
X60922053Y-25341442D01*
X60930528Y-25354930D01*
X61071477Y-25579248D01*
X61198078Y-25738000D01*
X61244337Y-25796008D01*
X61246584Y-25798825D01*
X61445175Y-25997416D01*
X61664752Y-26172523D01*
X61731808Y-26214657D01*
X61902557Y-26321946D01*
X61937372Y-26338712D01*
X62155592Y-26443801D01*
X62354680Y-26513465D01*
X62420670Y-26536556D01*
X62420682Y-26536560D01*
X62694491Y-26599055D01*
X62694497Y-26599055D01*
X62694505Y-26599057D01*
X62875423Y-26619441D01*
X62973569Y-26630499D01*
X62973572Y-26630500D01*
X62973575Y-26630500D01*
X63254428Y-26630500D01*
X63254429Y-26630499D01*
X63397055Y-26614429D01*
X63533494Y-26599057D01*
X63533499Y-26599056D01*
X63533509Y-26599055D01*
X63807318Y-26536560D01*
X64072408Y-26443801D01*
X64325445Y-26321945D01*
X64563248Y-26172523D01*
X64782825Y-25997416D01*
X64981416Y-25798825D01*
X65156523Y-25579248D01*
X65305945Y-25341445D01*
X65427801Y-25088408D01*
X65520560Y-24823318D01*
X65583055Y-24549509D01*
X65583056Y-24549499D01*
X65583057Y-24549494D01*
X65603977Y-24363816D01*
X65614500Y-24270425D01*
X65614500Y-23989575D01*
X65600034Y-23861185D01*
X65583057Y-23710505D01*
X65583054Y-23710487D01*
X65582645Y-23708697D01*
X65520560Y-23436682D01*
X65427801Y-23171592D01*
X65305945Y-22918555D01*
X65156523Y-22680752D01*
X64981416Y-22461175D01*
X64782825Y-22262584D01*
X64563248Y-22087477D01*
X64325445Y-21938055D01*
X64325442Y-21938053D01*
X64072411Y-21816200D01*
X63807329Y-21723443D01*
X63807317Y-21723439D01*
X63533512Y-21660945D01*
X63533494Y-21660942D01*
X63254431Y-21629500D01*
X63254425Y-21629500D01*
X62973575Y-21629500D01*
X62973568Y-21629500D01*
X62694505Y-21660942D01*
X62694487Y-21660945D01*
X62420682Y-21723439D01*
X62420670Y-21723443D01*
X62155588Y-21816200D01*
X61902557Y-21938053D01*
X61664753Y-22087476D01*
X61445175Y-22262583D01*
X61246583Y-22461175D01*
X61071476Y-22680753D01*
X60922053Y-22918557D01*
X60800200Y-23171588D01*
X60707443Y-23436670D01*
X60707439Y-23436682D01*
X60644945Y-23710487D01*
X60644942Y-23710505D01*
X60613500Y-23989568D01*
X46066909Y-23989568D01*
X46158063Y-23898415D01*
X46203582Y-23852895D01*
X46203582Y-23852894D01*
X46323859Y-23687349D01*
X46416755Y-23505031D01*
X46479990Y-23310417D01*
X46512000Y-23108317D01*
X46512000Y-22856000D01*
X45527686Y-22856000D01*
X45532080Y-22851606D01*
X45584741Y-22760394D01*
X45612000Y-22658661D01*
X45612000Y-22553339D01*
X45584741Y-22451606D01*
X45532080Y-22360394D01*
X45527686Y-22356000D01*
X46512000Y-22356000D01*
X46512000Y-22103682D01*
X46479990Y-21901582D01*
X46416755Y-21706968D01*
X46323859Y-21524650D01*
X46203582Y-21359105D01*
X46203582Y-21359104D01*
X46058895Y-21214417D01*
X45893349Y-21094140D01*
X45711029Y-21001244D01*
X45516413Y-20938009D01*
X45462000Y-20929390D01*
X45462000Y-22290314D01*
X45457606Y-22285920D01*
X45366394Y-22233259D01*
X45264661Y-22206000D01*
X45159339Y-22206000D01*
X45057606Y-22233259D01*
X44966394Y-22285920D01*
X44962000Y-22290314D01*
X44962000Y-20929390D01*
X44907586Y-20938009D01*
X44712970Y-21001244D01*
X44530650Y-21094140D01*
X44365105Y-21214417D01*
X44365104Y-21214417D01*
X44220417Y-21359104D01*
X44220417Y-21359105D01*
X44100140Y-21524650D01*
X44052765Y-21617629D01*
X44004790Y-21668425D01*
X43936969Y-21685220D01*
X43870834Y-21662682D01*
X43831795Y-21617629D01*
X43784419Y-21524650D01*
X43784287Y-21524390D01*
X43744035Y-21468987D01*
X43663971Y-21358786D01*
X43519213Y-21214028D01*
X43353613Y-21093715D01*
X43353612Y-21093714D01*
X43353610Y-21093713D01*
X43294675Y-21063684D01*
X43171223Y-21000781D01*
X42976534Y-20937522D01*
X42801995Y-20909878D01*
X42774352Y-20905500D01*
X42569648Y-20905500D01*
X42545329Y-20909351D01*
X42367465Y-20937522D01*
X42172776Y-21000781D01*
X41990386Y-21093715D01*
X41824786Y-21214028D01*
X41680028Y-21358786D01*
X41559715Y-21524386D01*
X41512485Y-21617080D01*
X41464510Y-21667876D01*
X41396689Y-21684671D01*
X41330554Y-21662134D01*
X41291515Y-21617080D01*
X41244419Y-21524650D01*
X41244287Y-21524390D01*
X41204035Y-21468987D01*
X41123971Y-21358786D01*
X40979213Y-21214028D01*
X40813613Y-21093715D01*
X40813612Y-21093714D01*
X40813610Y-21093713D01*
X40754675Y-21063684D01*
X40631223Y-21000781D01*
X40436534Y-20937522D01*
X40261995Y-20909878D01*
X40234352Y-20905500D01*
X40029648Y-20905500D01*
X40005329Y-20909351D01*
X39827465Y-20937522D01*
X39632776Y-21000781D01*
X39450386Y-21093715D01*
X39284786Y-21214028D01*
X39140032Y-21358782D01*
X39071616Y-21452949D01*
X39016286Y-21495614D01*
X38946672Y-21501593D01*
X38884877Y-21468987D01*
X38853592Y-21419067D01*
X38826358Y-21336880D01*
X38826356Y-21336875D01*
X38734315Y-21187654D01*
X38610345Y-21063684D01*
X38461124Y-20971643D01*
X38461119Y-20971641D01*
X38294697Y-20916494D01*
X38294690Y-20916493D01*
X38191986Y-20906000D01*
X37842000Y-20906000D01*
X37842000Y-22290314D01*
X37837606Y-22285920D01*
X37746394Y-22233259D01*
X37644661Y-22206000D01*
X37539339Y-22206000D01*
X37437606Y-22233259D01*
X37346394Y-22285920D01*
X37342000Y-22290314D01*
X37342000Y-20906000D01*
X36992028Y-20906000D01*
X36992012Y-20906001D01*
X36889302Y-20916494D01*
X36722880Y-20971641D01*
X36722875Y-20971643D01*
X36573654Y-21063684D01*
X36449684Y-21187654D01*
X36357643Y-21336875D01*
X36357641Y-21336880D01*
X36302494Y-21503302D01*
X36302493Y-21503309D01*
X36292000Y-21606013D01*
X12565500Y-21606013D01*
X12565500Y-14445228D01*
X13151500Y-14445228D01*
X13151500Y-14612771D01*
X13184182Y-14777074D01*
X13184184Y-14777082D01*
X13248295Y-14931860D01*
X13341373Y-15071162D01*
X13459837Y-15189626D01*
X13552494Y-15251537D01*
X13599137Y-15282703D01*
X13753918Y-15346816D01*
X13918228Y-15379499D01*
X13918232Y-15379500D01*
X13918233Y-15379500D01*
X14085768Y-15379500D01*
X14085769Y-15379499D01*
X14250082Y-15346816D01*
X14335313Y-15311511D01*
X14404778Y-15304043D01*
X14467258Y-15335317D01*
X14502911Y-15395406D01*
X14506121Y-15438674D01*
X14502000Y-15479008D01*
X14502000Y-15879000D01*
X15568988Y-15879000D01*
X15536075Y-15936007D01*
X15502000Y-16063174D01*
X15502000Y-16194826D01*
X15536075Y-16321993D01*
X15568988Y-16379000D01*
X14502001Y-16379000D01*
X14502001Y-16778986D01*
X14512494Y-16881697D01*
X14567641Y-17048119D01*
X14567643Y-17048124D01*
X14659684Y-17197345D01*
X14783654Y-17321315D01*
X14938484Y-17416815D01*
X14985208Y-17468763D01*
X14996431Y-17537726D01*
X14968587Y-17601808D01*
X14961069Y-17610035D01*
X14821889Y-17749215D01*
X14696951Y-17921179D01*
X14600444Y-18110585D01*
X14534753Y-18312760D01*
X14501500Y-18522713D01*
X14501500Y-18735286D01*
X14523848Y-18876390D01*
X14534754Y-18945243D01*
X14571643Y-19058776D01*
X14600444Y-19147414D01*
X14696951Y-19336820D01*
X14821890Y-19508786D01*
X14972213Y-19659109D01*
X15144179Y-19784048D01*
X15144181Y-19784049D01*
X15144184Y-19784051D01*
X15333588Y-19880557D01*
X15535757Y-19946246D01*
X15745713Y-19979500D01*
X15745714Y-19979500D01*
X16258286Y-19979500D01*
X16258287Y-19979500D01*
X16468243Y-19946246D01*
X16670412Y-19880557D01*
X16859816Y-19784051D01*
X16881789Y-19768086D01*
X17031786Y-19659109D01*
X17031788Y-19659106D01*
X17031792Y-19659104D01*
X17182104Y-19508792D01*
X17220715Y-19455648D01*
X20289500Y-19455648D01*
X20289500Y-19660351D01*
X20321522Y-19862534D01*
X20384781Y-20057223D01*
X20477715Y-20239613D01*
X20598028Y-20405213D01*
X20742786Y-20549971D01*
X20897749Y-20662556D01*
X20908390Y-20670287D01*
X21024607Y-20729503D01*
X21090776Y-20763218D01*
X21090778Y-20763218D01*
X21090781Y-20763220D01*
X21195137Y-20797127D01*
X21285465Y-20826477D01*
X21386557Y-20842488D01*
X21487648Y-20858500D01*
X21487649Y-20858500D01*
X21692351Y-20858500D01*
X21692352Y-20858500D01*
X21894534Y-20826477D01*
X22089219Y-20763220D01*
X22271610Y-20670287D01*
X22364590Y-20602732D01*
X22437213Y-20549971D01*
X22437215Y-20549968D01*
X22437219Y-20549966D01*
X22581966Y-20405219D01*
X22581968Y-20405215D01*
X22581971Y-20405213D01*
X22634732Y-20332590D01*
X22702287Y-20239610D01*
X22795220Y-20057219D01*
X22858477Y-19862534D01*
X22890500Y-19660352D01*
X22890500Y-19455648D01*
X32989500Y-19455648D01*
X32989500Y-19660351D01*
X33021522Y-19862534D01*
X33084781Y-20057223D01*
X33177715Y-20239613D01*
X33298028Y-20405213D01*
X33442786Y-20549971D01*
X33597749Y-20662556D01*
X33608390Y-20670287D01*
X33724607Y-20729503D01*
X33790776Y-20763218D01*
X33790778Y-20763218D01*
X33790781Y-20763220D01*
X33895137Y-20797127D01*
X33985465Y-20826477D01*
X34086557Y-20842488D01*
X34187648Y-20858500D01*
X34187649Y-20858500D01*
X34392351Y-20858500D01*
X34392352Y-20858500D01*
X34594534Y-20826477D01*
X34789219Y-20763220D01*
X34971610Y-20670287D01*
X35064590Y-20602732D01*
X35137213Y-20549971D01*
X35137215Y-20549968D01*
X35137219Y-20549966D01*
X35281966Y-20405219D01*
X35281968Y-20405215D01*
X35281971Y-20405213D01*
X35334732Y-20332590D01*
X35402287Y-20239610D01*
X35495220Y-20057219D01*
X35558477Y-19862534D01*
X35590500Y-19660352D01*
X35590500Y-19455648D01*
X35558477Y-19253466D01*
X35495220Y-19058781D01*
X35495218Y-19058778D01*
X35495218Y-19058776D01*
X35437367Y-18945239D01*
X35402287Y-18876390D01*
X35394556Y-18865749D01*
X35281971Y-18710786D01*
X35137213Y-18566028D01*
X34971613Y-18445715D01*
X34971612Y-18445714D01*
X34971610Y-18445713D01*
X34914653Y-18416691D01*
X34789223Y-18352781D01*
X34594534Y-18289522D01*
X34419995Y-18261878D01*
X34392352Y-18257500D01*
X34187648Y-18257500D01*
X34163329Y-18261351D01*
X33985465Y-18289522D01*
X33790776Y-18352781D01*
X33608386Y-18445715D01*
X33442786Y-18566028D01*
X33298028Y-18710786D01*
X33177715Y-18876386D01*
X33084781Y-19058776D01*
X33021522Y-19253465D01*
X32989500Y-19455648D01*
X22890500Y-19455648D01*
X22858477Y-19253466D01*
X22795220Y-19058781D01*
X22795218Y-19058778D01*
X22795218Y-19058776D01*
X22737367Y-18945239D01*
X22702287Y-18876390D01*
X22694556Y-18865749D01*
X22581971Y-18710786D01*
X22437213Y-18566028D01*
X22271613Y-18445715D01*
X22271612Y-18445714D01*
X22271610Y-18445713D01*
X22214653Y-18416691D01*
X22089223Y-18352781D01*
X21894534Y-18289522D01*
X21719995Y-18261878D01*
X21692352Y-18257500D01*
X21487648Y-18257500D01*
X21463329Y-18261351D01*
X21285465Y-18289522D01*
X21090776Y-18352781D01*
X20908386Y-18445715D01*
X20742786Y-18566028D01*
X20598028Y-18710786D01*
X20477715Y-18876386D01*
X20384781Y-19058776D01*
X20321522Y-19253465D01*
X20289500Y-19455648D01*
X17220715Y-19455648D01*
X17307051Y-19336816D01*
X17403557Y-19147412D01*
X17469246Y-18945243D01*
X17502500Y-18735287D01*
X17502500Y-18522713D01*
X17469246Y-18312757D01*
X17403557Y-18110588D01*
X17307051Y-17921184D01*
X17307049Y-17921181D01*
X17307048Y-17921179D01*
X17182109Y-17749213D01*
X17042931Y-17610035D01*
X17009446Y-17548712D01*
X17014430Y-17479020D01*
X17056302Y-17423087D01*
X17065516Y-17416815D01*
X17220343Y-17321317D01*
X17344315Y-17197345D01*
X17436356Y-17048124D01*
X17436358Y-17048119D01*
X17491505Y-16881697D01*
X17491506Y-16881690D01*
X17501999Y-16778986D01*
X17502000Y-16778973D01*
X17502000Y-16379000D01*
X16435012Y-16379000D01*
X16467925Y-16321993D01*
X16502000Y-16194826D01*
X16502000Y-16063174D01*
X16467925Y-15936007D01*
X16435012Y-15879000D01*
X17501999Y-15879000D01*
X17501999Y-15479028D01*
X17501998Y-15479013D01*
X17493863Y-15399378D01*
X17493863Y-15399377D01*
X17493073Y-15391648D01*
X20289500Y-15391648D01*
X20289500Y-15596351D01*
X20321522Y-15798534D01*
X20384781Y-15993223D01*
X20477715Y-16175613D01*
X20598028Y-16341213D01*
X20742786Y-16485971D01*
X20880928Y-16586335D01*
X20908390Y-16606287D01*
X21002968Y-16654477D01*
X21090776Y-16699218D01*
X21090778Y-16699218D01*
X21090781Y-16699220D01*
X21195137Y-16733127D01*
X21285465Y-16762477D01*
X21386557Y-16778488D01*
X21487648Y-16794500D01*
X21487649Y-16794500D01*
X21692351Y-16794500D01*
X21692352Y-16794500D01*
X21894534Y-16762477D01*
X22089219Y-16699220D01*
X22271610Y-16606287D01*
X22377851Y-16529099D01*
X22437213Y-16485971D01*
X22437215Y-16485968D01*
X22437219Y-16485966D01*
X22581966Y-16341219D01*
X22581968Y-16341215D01*
X22581971Y-16341213D01*
X22660436Y-16233213D01*
X22702287Y-16175610D01*
X22795220Y-15993219D01*
X22858477Y-15798534D01*
X22890500Y-15596352D01*
X22890500Y-15391648D01*
X32989500Y-15391648D01*
X32989500Y-15596351D01*
X33021522Y-15798534D01*
X33084781Y-15993223D01*
X33177715Y-16175613D01*
X33298028Y-16341213D01*
X33442786Y-16485971D01*
X33580928Y-16586335D01*
X33608390Y-16606287D01*
X33702968Y-16654477D01*
X33790776Y-16699218D01*
X33790778Y-16699218D01*
X33790781Y-16699220D01*
X33895137Y-16733127D01*
X33985465Y-16762477D01*
X34086557Y-16778488D01*
X34187648Y-16794500D01*
X34187649Y-16794500D01*
X34392351Y-16794500D01*
X34392352Y-16794500D01*
X34594534Y-16762477D01*
X34789219Y-16699220D01*
X34971610Y-16606287D01*
X35077851Y-16529099D01*
X35137213Y-16485971D01*
X35137215Y-16485968D01*
X35137219Y-16485966D01*
X35281966Y-16341219D01*
X35281968Y-16341215D01*
X35281971Y-16341213D01*
X35360436Y-16233213D01*
X35402287Y-16175610D01*
X35495220Y-15993219D01*
X35558477Y-15798534D01*
X35590500Y-15596352D01*
X35590500Y-15391648D01*
X35579978Y-15325213D01*
X35558477Y-15189465D01*
X35495218Y-14994776D01*
X35461503Y-14928607D01*
X35402287Y-14812390D01*
X35385652Y-14789494D01*
X35281971Y-14646786D01*
X35137213Y-14502028D01*
X35111915Y-14483648D01*
X36291500Y-14483648D01*
X36291500Y-15488351D01*
X36323522Y-15690534D01*
X36386781Y-15885223D01*
X36479715Y-16067613D01*
X36600028Y-16233213D01*
X36744786Y-16377971D01*
X36845969Y-16451483D01*
X36910390Y-16498287D01*
X37026607Y-16557503D01*
X37092776Y-16591218D01*
X37092778Y-16591218D01*
X37092781Y-16591220D01*
X37197137Y-16625127D01*
X37287465Y-16654477D01*
X37388557Y-16670488D01*
X37489648Y-16686500D01*
X37489649Y-16686500D01*
X37694351Y-16686500D01*
X37694352Y-16686500D01*
X37896534Y-16654477D01*
X38091219Y-16591220D01*
X38273610Y-16498287D01*
X38420064Y-16391883D01*
X38439213Y-16377971D01*
X38439215Y-16377968D01*
X38439219Y-16377966D01*
X38583966Y-16233219D01*
X38583968Y-16233215D01*
X38583971Y-16233213D01*
X38704284Y-16067614D01*
X38704285Y-16067613D01*
X38704287Y-16067610D01*
X38751516Y-15974917D01*
X38799489Y-15924123D01*
X38867310Y-15907328D01*
X38933445Y-15929865D01*
X38972485Y-15974919D01*
X39019715Y-16067614D01*
X39140028Y-16233213D01*
X39284786Y-16377971D01*
X39385969Y-16451483D01*
X39450390Y-16498287D01*
X39566607Y-16557503D01*
X39632776Y-16591218D01*
X39632778Y-16591218D01*
X39632781Y-16591220D01*
X39737137Y-16625127D01*
X39827465Y-16654477D01*
X39928557Y-16670488D01*
X40029648Y-16686500D01*
X40029649Y-16686500D01*
X40234351Y-16686500D01*
X40234352Y-16686500D01*
X40436534Y-16654477D01*
X40631219Y-16591220D01*
X40813610Y-16498287D01*
X40960064Y-16391883D01*
X40979213Y-16377971D01*
X40979215Y-16377968D01*
X40979219Y-16377966D01*
X41123966Y-16233219D01*
X41123968Y-16233215D01*
X41123971Y-16233213D01*
X41244284Y-16067614D01*
X41244285Y-16067613D01*
X41244287Y-16067610D01*
X41291516Y-15974917D01*
X41339489Y-15924123D01*
X41407310Y-15907328D01*
X41473445Y-15929865D01*
X41512485Y-15974919D01*
X41559715Y-16067614D01*
X41680028Y-16233213D01*
X41824786Y-16377971D01*
X41925969Y-16451483D01*
X41990390Y-16498287D01*
X42106607Y-16557503D01*
X42172776Y-16591218D01*
X42172778Y-16591218D01*
X42172781Y-16591220D01*
X42277137Y-16625127D01*
X42367465Y-16654477D01*
X42468557Y-16670488D01*
X42569648Y-16686500D01*
X42569649Y-16686500D01*
X42774351Y-16686500D01*
X42774352Y-16686500D01*
X42976534Y-16654477D01*
X43171219Y-16591220D01*
X43353610Y-16498287D01*
X43500064Y-16391883D01*
X43519213Y-16377971D01*
X43519215Y-16377968D01*
X43519219Y-16377966D01*
X43663966Y-16233219D01*
X43663968Y-16233215D01*
X43663971Y-16233213D01*
X43784284Y-16067614D01*
X43784285Y-16067613D01*
X43784287Y-16067610D01*
X43831516Y-15974917D01*
X43879489Y-15924123D01*
X43947310Y-15907328D01*
X44013445Y-15929865D01*
X44052485Y-15974919D01*
X44099715Y-16067614D01*
X44220028Y-16233213D01*
X44364786Y-16377971D01*
X44465969Y-16451483D01*
X44530390Y-16498287D01*
X44646607Y-16557503D01*
X44712776Y-16591218D01*
X44712778Y-16591218D01*
X44712781Y-16591220D01*
X44817137Y-16625127D01*
X44907465Y-16654477D01*
X45008557Y-16670488D01*
X45109648Y-16686500D01*
X45109649Y-16686500D01*
X45314351Y-16686500D01*
X45314352Y-16686500D01*
X45516534Y-16654477D01*
X45711219Y-16591220D01*
X45893610Y-16498287D01*
X46040064Y-16391883D01*
X46059213Y-16377971D01*
X46059215Y-16377968D01*
X46059219Y-16377966D01*
X46203966Y-16233219D01*
X46203968Y-16233215D01*
X46203971Y-16233213D01*
X46256732Y-16160590D01*
X46324287Y-16067610D01*
X46417220Y-15885219D01*
X46480477Y-15690534D01*
X46512500Y-15488352D01*
X46512500Y-14483648D01*
X46495394Y-14375648D01*
X48483500Y-14375648D01*
X48483500Y-14580351D01*
X48515522Y-14782534D01*
X48578781Y-14977223D01*
X48671715Y-15159613D01*
X48792028Y-15325213D01*
X48936786Y-15469971D01*
X49091749Y-15582556D01*
X49102390Y-15590287D01*
X49218607Y-15649503D01*
X49284776Y-15683218D01*
X49284778Y-15683218D01*
X49284781Y-15683220D01*
X49389137Y-15717127D01*
X49479465Y-15746477D01*
X49580557Y-15762488D01*
X49681648Y-15778500D01*
X49681649Y-15778500D01*
X49886351Y-15778500D01*
X49886352Y-15778500D01*
X50088534Y-15746477D01*
X50283219Y-15683220D01*
X50465610Y-15590287D01*
X50605913Y-15488352D01*
X50631213Y-15469971D01*
X50631215Y-15469968D01*
X50631219Y-15469966D01*
X50775966Y-15325219D01*
X50775968Y-15325215D01*
X50775971Y-15325213D01*
X50859764Y-15209880D01*
X50896287Y-15159610D01*
X50989220Y-14977219D01*
X51052477Y-14782534D01*
X51084500Y-14580352D01*
X51084500Y-14375648D01*
X52801500Y-14375648D01*
X52801500Y-14580351D01*
X52833522Y-14782534D01*
X52896781Y-14977223D01*
X52989715Y-15159613D01*
X53110028Y-15325213D01*
X53254786Y-15469971D01*
X53409749Y-15582556D01*
X53420390Y-15590287D01*
X53536607Y-15649503D01*
X53602776Y-15683218D01*
X53602778Y-15683218D01*
X53602781Y-15683220D01*
X53707137Y-15717127D01*
X53797465Y-15746477D01*
X53898557Y-15762488D01*
X53999648Y-15778500D01*
X53999649Y-15778500D01*
X54204351Y-15778500D01*
X54204352Y-15778500D01*
X54406534Y-15746477D01*
X54601219Y-15683220D01*
X54783610Y-15590287D01*
X54923913Y-15488352D01*
X54949213Y-15469971D01*
X54949215Y-15469968D01*
X54949219Y-15469966D01*
X55093966Y-15325219D01*
X55093968Y-15325215D01*
X55093971Y-15325213D01*
X55177764Y-15209880D01*
X55214287Y-15159610D01*
X55307220Y-14977219D01*
X55370477Y-14782534D01*
X55402500Y-14580352D01*
X55402500Y-14375648D01*
X57119500Y-14375648D01*
X57119500Y-14580351D01*
X57151522Y-14782534D01*
X57214781Y-14977223D01*
X57307715Y-15159613D01*
X57428028Y-15325213D01*
X57572786Y-15469971D01*
X57727749Y-15582556D01*
X57738390Y-15590287D01*
X57854607Y-15649503D01*
X57920776Y-15683218D01*
X57920778Y-15683218D01*
X57920781Y-15683220D01*
X58025137Y-15717127D01*
X58115465Y-15746477D01*
X58216557Y-15762488D01*
X58317648Y-15778500D01*
X58317649Y-15778500D01*
X58522351Y-15778500D01*
X58522352Y-15778500D01*
X58724534Y-15746477D01*
X58919219Y-15683220D01*
X59101610Y-15590287D01*
X59241913Y-15488352D01*
X59267213Y-15469971D01*
X59267215Y-15469968D01*
X59267219Y-15469966D01*
X59411966Y-15325219D01*
X59411968Y-15325215D01*
X59411971Y-15325213D01*
X59495764Y-15209880D01*
X59532287Y-15159610D01*
X59625220Y-14977219D01*
X59688477Y-14782534D01*
X59718000Y-14596135D01*
X62403500Y-14596135D01*
X62403500Y-16391870D01*
X62403501Y-16391876D01*
X62409908Y-16451483D01*
X62460202Y-16586328D01*
X62460206Y-16586335D01*
X62546452Y-16701544D01*
X62546455Y-16701547D01*
X62661664Y-16787793D01*
X62661671Y-16787797D01*
X62796517Y-16838091D01*
X62796516Y-16838091D01*
X62803444Y-16838835D01*
X62856127Y-16844500D01*
X64651872Y-16844499D01*
X64711483Y-16838091D01*
X64846331Y-16787796D01*
X64961546Y-16701546D01*
X65047796Y-16586331D01*
X65098091Y-16451483D01*
X65104500Y-16391873D01*
X65104499Y-14596128D01*
X65098091Y-14536517D01*
X65085227Y-14502028D01*
X65047797Y-14401671D01*
X65047793Y-14401664D01*
X64961547Y-14286455D01*
X64961544Y-14286452D01*
X64846335Y-14200206D01*
X64846328Y-14200202D01*
X64711482Y-14149908D01*
X64711483Y-14149908D01*
X64651883Y-14143501D01*
X64651881Y-14143500D01*
X64651873Y-14143500D01*
X64651864Y-14143500D01*
X62856129Y-14143500D01*
X62856123Y-14143501D01*
X62796516Y-14149908D01*
X62661671Y-14200202D01*
X62661664Y-14200206D01*
X62546455Y-14286452D01*
X62546452Y-14286455D01*
X62460206Y-14401664D01*
X62460202Y-14401671D01*
X62409908Y-14536517D01*
X62405196Y-14580351D01*
X62403501Y-14596123D01*
X62403500Y-14596135D01*
X59718000Y-14596135D01*
X59720500Y-14580352D01*
X59720500Y-14375648D01*
X59688477Y-14173466D01*
X59678740Y-14143500D01*
X59647670Y-14047876D01*
X59625220Y-13978781D01*
X59625218Y-13978778D01*
X59625218Y-13978776D01*
X59587314Y-13904386D01*
X59532287Y-13796390D01*
X59470382Y-13711184D01*
X59411971Y-13630786D01*
X59267213Y-13486028D01*
X59101613Y-13365715D01*
X59101612Y-13365714D01*
X59101610Y-13365713D01*
X59044653Y-13336691D01*
X58919223Y-13272781D01*
X58724534Y-13209522D01*
X58549995Y-13181878D01*
X58522352Y-13177500D01*
X58317648Y-13177500D01*
X58293329Y-13181351D01*
X58115465Y-13209522D01*
X57920776Y-13272781D01*
X57738386Y-13365715D01*
X57572786Y-13486028D01*
X57428028Y-13630786D01*
X57307715Y-13796386D01*
X57214781Y-13978776D01*
X57151522Y-14173465D01*
X57119500Y-14375648D01*
X55402500Y-14375648D01*
X55370477Y-14173466D01*
X55360740Y-14143500D01*
X55329670Y-14047876D01*
X55307220Y-13978781D01*
X55307218Y-13978778D01*
X55307218Y-13978776D01*
X55269314Y-13904386D01*
X55214287Y-13796390D01*
X55152382Y-13711184D01*
X55093971Y-13630786D01*
X54949213Y-13486028D01*
X54783613Y-13365715D01*
X54783612Y-13365714D01*
X54783610Y-13365713D01*
X54726653Y-13336691D01*
X54601223Y-13272781D01*
X54406534Y-13209522D01*
X54231995Y-13181878D01*
X54204352Y-13177500D01*
X53999648Y-13177500D01*
X53975329Y-13181351D01*
X53797465Y-13209522D01*
X53602776Y-13272781D01*
X53420386Y-13365715D01*
X53254786Y-13486028D01*
X53110028Y-13630786D01*
X52989715Y-13796386D01*
X52896781Y-13978776D01*
X52833522Y-14173465D01*
X52801500Y-14375648D01*
X51084500Y-14375648D01*
X51052477Y-14173466D01*
X51042740Y-14143500D01*
X51011670Y-14047876D01*
X50989220Y-13978781D01*
X50989218Y-13978778D01*
X50989218Y-13978776D01*
X50951314Y-13904386D01*
X50896287Y-13796390D01*
X50834382Y-13711184D01*
X50775971Y-13630786D01*
X50631213Y-13486028D01*
X50465613Y-13365715D01*
X50465612Y-13365714D01*
X50465610Y-13365713D01*
X50408653Y-13336691D01*
X50283223Y-13272781D01*
X50088534Y-13209522D01*
X49913995Y-13181878D01*
X49886352Y-13177500D01*
X49681648Y-13177500D01*
X49657329Y-13181351D01*
X49479465Y-13209522D01*
X49284776Y-13272781D01*
X49102386Y-13365715D01*
X48936786Y-13486028D01*
X48792028Y-13630786D01*
X48671715Y-13796386D01*
X48578781Y-13978776D01*
X48515522Y-14173465D01*
X48483500Y-14375648D01*
X46495394Y-14375648D01*
X46481636Y-14288781D01*
X46480477Y-14281465D01*
X46445385Y-14173465D01*
X46417220Y-14086781D01*
X46417218Y-14086778D01*
X46417218Y-14086776D01*
X46362191Y-13978781D01*
X46324287Y-13904390D01*
X46298120Y-13868374D01*
X46203971Y-13738786D01*
X46059213Y-13594028D01*
X45893613Y-13473715D01*
X45893612Y-13473714D01*
X45893610Y-13473713D01*
X45836653Y-13444691D01*
X45711223Y-13380781D01*
X45516534Y-13317522D01*
X45341995Y-13289878D01*
X45314352Y-13285500D01*
X45109648Y-13285500D01*
X45085329Y-13289351D01*
X44907465Y-13317522D01*
X44712776Y-13380781D01*
X44530386Y-13473715D01*
X44364786Y-13594028D01*
X44220028Y-13738786D01*
X44099715Y-13904386D01*
X44052485Y-13997080D01*
X44004510Y-14047876D01*
X43936689Y-14064671D01*
X43870554Y-14042134D01*
X43831515Y-13997080D01*
X43822191Y-13978781D01*
X43784287Y-13904390D01*
X43758120Y-13868374D01*
X43663971Y-13738786D01*
X43519213Y-13594028D01*
X43353613Y-13473715D01*
X43353612Y-13473714D01*
X43353610Y-13473713D01*
X43296653Y-13444691D01*
X43171223Y-13380781D01*
X42976534Y-13317522D01*
X42801995Y-13289878D01*
X42774352Y-13285500D01*
X42569648Y-13285500D01*
X42545329Y-13289351D01*
X42367465Y-13317522D01*
X42172776Y-13380781D01*
X41990386Y-13473715D01*
X41824786Y-13594028D01*
X41680028Y-13738786D01*
X41559715Y-13904386D01*
X41512485Y-13997080D01*
X41464510Y-14047876D01*
X41396689Y-14064671D01*
X41330554Y-14042134D01*
X41291515Y-13997080D01*
X41282191Y-13978781D01*
X41244287Y-13904390D01*
X41218120Y-13868374D01*
X41123971Y-13738786D01*
X40979213Y-13594028D01*
X40813613Y-13473715D01*
X40813612Y-13473714D01*
X40813610Y-13473713D01*
X40756653Y-13444691D01*
X40631223Y-13380781D01*
X40436534Y-13317522D01*
X40261995Y-13289878D01*
X40234352Y-13285500D01*
X40029648Y-13285500D01*
X40005329Y-13289351D01*
X39827465Y-13317522D01*
X39632776Y-13380781D01*
X39450386Y-13473715D01*
X39284786Y-13594028D01*
X39140028Y-13738786D01*
X39019715Y-13904386D01*
X38972485Y-13997080D01*
X38924510Y-14047876D01*
X38856689Y-14064671D01*
X38790554Y-14042134D01*
X38751515Y-13997080D01*
X38742191Y-13978781D01*
X38704287Y-13904390D01*
X38678120Y-13868374D01*
X38583971Y-13738786D01*
X38439213Y-13594028D01*
X38273613Y-13473715D01*
X38273612Y-13473714D01*
X38273610Y-13473713D01*
X38216653Y-13444691D01*
X38091223Y-13380781D01*
X37896534Y-13317522D01*
X37721995Y-13289878D01*
X37694352Y-13285500D01*
X37489648Y-13285500D01*
X37465329Y-13289351D01*
X37287465Y-13317522D01*
X37092776Y-13380781D01*
X36910386Y-13473715D01*
X36744786Y-13594028D01*
X36600028Y-13738786D01*
X36479715Y-13904386D01*
X36386781Y-14086776D01*
X36323522Y-14281465D01*
X36291500Y-14483648D01*
X35111915Y-14483648D01*
X34971613Y-14381715D01*
X34971612Y-14381714D01*
X34971610Y-14381713D01*
X34914653Y-14352691D01*
X34789223Y-14288781D01*
X34594534Y-14225522D01*
X34419995Y-14197878D01*
X34392352Y-14193500D01*
X34187648Y-14193500D01*
X34163329Y-14197351D01*
X33985465Y-14225522D01*
X33790776Y-14288781D01*
X33608386Y-14381715D01*
X33442786Y-14502028D01*
X33298028Y-14646786D01*
X33177715Y-14812386D01*
X33084781Y-14994776D01*
X33021522Y-15189465D01*
X32989500Y-15391648D01*
X22890500Y-15391648D01*
X22879978Y-15325213D01*
X22858477Y-15189465D01*
X22795218Y-14994776D01*
X22761503Y-14928607D01*
X22702287Y-14812390D01*
X22685652Y-14789494D01*
X22581971Y-14646786D01*
X22437213Y-14502028D01*
X22271613Y-14381715D01*
X22271612Y-14381714D01*
X22271610Y-14381713D01*
X22214653Y-14352691D01*
X22089223Y-14288781D01*
X21894534Y-14225522D01*
X21719995Y-14197878D01*
X21692352Y-14193500D01*
X21487648Y-14193500D01*
X21463329Y-14197351D01*
X21285465Y-14225522D01*
X21090776Y-14288781D01*
X20908386Y-14381715D01*
X20742786Y-14502028D01*
X20598028Y-14646786D01*
X20477715Y-14812386D01*
X20384781Y-14994776D01*
X20321522Y-15189465D01*
X20289500Y-15391648D01*
X17493073Y-15391648D01*
X17491505Y-15376303D01*
X17436358Y-15209880D01*
X17436356Y-15209875D01*
X17344315Y-15060654D01*
X17220345Y-14936684D01*
X17071124Y-14844643D01*
X17071119Y-14844641D01*
X16904697Y-14789494D01*
X16904690Y-14789493D01*
X16801986Y-14779000D01*
X16252000Y-14779000D01*
X16252000Y-15695988D01*
X16194993Y-15663075D01*
X16067826Y-15629000D01*
X15936174Y-15629000D01*
X15809007Y-15663075D01*
X15752000Y-15695988D01*
X15752000Y-14779000D01*
X15202028Y-14779000D01*
X15202012Y-14779001D01*
X15099302Y-14789494D01*
X14999623Y-14822525D01*
X14929795Y-14824927D01*
X14869753Y-14789195D01*
X14838560Y-14726675D01*
X14839002Y-14680628D01*
X14852499Y-14612770D01*
X14852500Y-14612768D01*
X14852500Y-14445232D01*
X14852499Y-14445228D01*
X14841548Y-14390174D01*
X14819816Y-14280918D01*
X14765549Y-14149908D01*
X14755704Y-14126139D01*
X14662626Y-13986837D01*
X14544162Y-13868373D01*
X14404860Y-13775295D01*
X14250082Y-13711184D01*
X14250074Y-13711182D01*
X14085771Y-13678500D01*
X14085767Y-13678500D01*
X13918233Y-13678500D01*
X13918228Y-13678500D01*
X13753925Y-13711182D01*
X13753917Y-13711184D01*
X13599139Y-13775295D01*
X13459837Y-13868373D01*
X13341373Y-13986837D01*
X13248295Y-14126139D01*
X13184184Y-14280917D01*
X13184182Y-14280925D01*
X13151500Y-14445228D01*
X12565500Y-14445228D01*
X12565500Y-13071961D01*
X12566280Y-13058077D01*
X12566280Y-13058076D01*
X12576460Y-12967729D01*
X12582635Y-12940670D01*
X12610353Y-12861456D01*
X12622396Y-12836450D01*
X12667046Y-12765389D01*
X12684351Y-12743690D01*
X12743690Y-12684351D01*
X12765389Y-12667046D01*
X12836450Y-12622396D01*
X12861456Y-12610353D01*
X12940670Y-12582635D01*
X12967733Y-12576459D01*
X13030419Y-12569396D01*
X13058079Y-12566280D01*
X13071962Y-12565500D01*
X13130892Y-12565500D01*
X65863108Y-12565500D01*
X65922038Y-12565500D01*
X65935922Y-12566280D01*
G37*
%TD.AperFunction*%
%TD*%
M02*
