%TF.GenerationSoftware,KiCad,Pcbnew,9.0.2*%
%TF.CreationDate,2025-07-07T17:18:13-07:00*%
%TF.ProjectId,switch_debounce_unit,73776974-6368-45f6-9465-626f756e6365,rev?*%
%TF.SameCoordinates,Original*%
%TF.FileFunction,Drillmap*%
%TF.FilePolarity,Positive*%
%FSLAX45Y45*%
G04 Gerber Fmt 4.5, Leading zero omitted, Abs format (unit mm)*
G04 Created by KiCad (PCBNEW 9.0.2) date 2025-07-07 17:18:13*
%MOMM*%
%LPD*%
G01*
G04 APERTURE LIST*
%ADD10C,0.050000*%
%ADD11C,0.200000*%
%ADD12C,0.100000*%
G04 APERTURE END LIST*
D10*
X6692900Y-3290900D02*
G75*
G02*
X6592900Y-3390900I-100000J0D01*
G01*
X1306500Y-3390900D02*
G75*
G02*
X1206500Y-3290900I0J100000D01*
G01*
X6592900Y-1206500D02*
G75*
G02*
X6692900Y-1306500I0J-100000D01*
G01*
X1206500Y-1306500D02*
G75*
G02*
X1306500Y-1206500I100000J0D01*
G01*
X6692900Y-1306500D02*
X6692900Y-3290900D01*
X1206500Y-3290900D02*
X1206500Y-1306500D01*
X6592900Y-3390900D02*
X1306500Y-3390900D01*
X1306500Y-1206500D02*
X6592900Y-1206500D01*
X6511400Y-2413000D02*
G75*
G02*
X6111400Y-2413000I-200000J0D01*
G01*
X6111400Y-2413000D02*
G75*
G02*
X6511400Y-2413000I200000J0D01*
G01*
X2511400Y-2413000D02*
G75*
G02*
X2111400Y-2413000I-200000J0D01*
G01*
X2111400Y-2413000D02*
G75*
G02*
X2511400Y-2413000I200000J0D01*
G01*
D11*
D12*
X2741800Y-2433800D02*
X2801800Y-2493800D01*
X2801800Y-2433800D02*
X2741800Y-2493800D01*
X2941800Y-2433800D02*
X3001800Y-2493800D01*
X3001800Y-2433800D02*
X2941800Y-2493800D01*
X2199000Y-1549400D02*
G75*
G02*
X2119000Y-1549400I-40000J0D01*
G01*
X2119000Y-1549400D02*
G75*
G02*
X2199000Y-1549400I40000J0D01*
G01*
X2199000Y-1955800D02*
G75*
G02*
X2119000Y-1955800I-40000J0D01*
G01*
X2119000Y-1955800D02*
G75*
G02*
X2199000Y-1955800I40000J0D01*
G01*
X3342000Y-2667000D02*
G75*
G02*
X3262000Y-2667000I-40000J0D01*
G01*
X3262000Y-2667000D02*
G75*
G02*
X3342000Y-2667000I40000J0D01*
G01*
X3342000Y-3098800D02*
G75*
G02*
X3262000Y-3098800I-40000J0D01*
G01*
X3262000Y-3098800D02*
G75*
G02*
X3342000Y-3098800I40000J0D01*
G01*
X3469000Y-1549400D02*
G75*
G02*
X3389000Y-1549400I-40000J0D01*
G01*
X3389000Y-1549400D02*
G75*
G02*
X3469000Y-1549400I40000J0D01*
G01*
X3469000Y-1955800D02*
G75*
G02*
X3389000Y-1955800I-40000J0D01*
G01*
X3389000Y-1955800D02*
G75*
G02*
X3469000Y-1955800I40000J0D01*
G01*
X3799200Y-1498600D02*
G75*
G02*
X3719200Y-1498600I-40000J0D01*
G01*
X3719200Y-1498600D02*
G75*
G02*
X3799200Y-1498600I40000J0D01*
G01*
X3799200Y-2260600D02*
G75*
G02*
X3719200Y-2260600I-40000J0D01*
G01*
X3719200Y-2260600D02*
G75*
G02*
X3799200Y-2260600I40000J0D01*
G01*
X4053200Y-1498600D02*
G75*
G02*
X3973200Y-1498600I-40000J0D01*
G01*
X3973200Y-1498600D02*
G75*
G02*
X4053200Y-1498600I40000J0D01*
G01*
X4053200Y-2260600D02*
G75*
G02*
X3973200Y-2260600I-40000J0D01*
G01*
X3973200Y-2260600D02*
G75*
G02*
X4053200Y-2260600I40000J0D01*
G01*
X4307200Y-1498600D02*
G75*
G02*
X4227200Y-1498600I-40000J0D01*
G01*
X4227200Y-1498600D02*
G75*
G02*
X4307200Y-1498600I40000J0D01*
G01*
X4307200Y-2260600D02*
G75*
G02*
X4227200Y-2260600I-40000J0D01*
G01*
X4227200Y-2260600D02*
G75*
G02*
X4307200Y-2260600I40000J0D01*
G01*
X4561200Y-1498600D02*
G75*
G02*
X4481200Y-1498600I-40000J0D01*
G01*
X4481200Y-1498600D02*
G75*
G02*
X4561200Y-1498600I40000J0D01*
G01*
X4561200Y-2260600D02*
G75*
G02*
X4481200Y-2260600I-40000J0D01*
G01*
X4481200Y-2260600D02*
G75*
G02*
X4561200Y-2260600I40000J0D01*
G01*
X4612000Y-2667000D02*
G75*
G02*
X4532000Y-2667000I-40000J0D01*
G01*
X4532000Y-2667000D02*
G75*
G02*
X4612000Y-2667000I40000J0D01*
G01*
X4612000Y-3098800D02*
G75*
G02*
X4532000Y-3098800I-40000J0D01*
G01*
X4532000Y-3098800D02*
G75*
G02*
X4612000Y-3098800I40000J0D01*
G01*
X4942200Y-3098800D02*
G75*
G02*
X4862200Y-3098800I-40000J0D01*
G01*
X4862200Y-3098800D02*
G75*
G02*
X4942200Y-3098800I40000J0D01*
G01*
X5018400Y-1447800D02*
G75*
G02*
X4938400Y-1447800I-40000J0D01*
G01*
X4938400Y-1447800D02*
G75*
G02*
X5018400Y-1447800I40000J0D01*
G01*
X5018400Y-2717800D02*
G75*
G02*
X4938400Y-2717800I-40000J0D01*
G01*
X4938400Y-2717800D02*
G75*
G02*
X5018400Y-2717800I40000J0D01*
G01*
X5450200Y-1447800D02*
G75*
G02*
X5370200Y-1447800I-40000J0D01*
G01*
X5370200Y-1447800D02*
G75*
G02*
X5450200Y-1447800I40000J0D01*
G01*
X5450200Y-2717800D02*
G75*
G02*
X5370200Y-2717800I-40000J0D01*
G01*
X5370200Y-2717800D02*
G75*
G02*
X5450200Y-2717800I40000J0D01*
G01*
X5882000Y-1447800D02*
G75*
G02*
X5802000Y-1447800I-40000J0D01*
G01*
X5802000Y-1447800D02*
G75*
G02*
X5882000Y-1447800I40000J0D01*
G01*
X5882000Y-2717800D02*
G75*
G02*
X5802000Y-2717800I-40000J0D01*
G01*
X5802000Y-2717800D02*
G75*
G02*
X5882000Y-2717800I40000J0D01*
G01*
X6212200Y-3098800D02*
G75*
G02*
X6132200Y-3098800I-40000J0D01*
G01*
X6132200Y-3098800D02*
G75*
G02*
X6212200Y-3098800I40000J0D01*
G01*
X1600200Y-1562900D02*
X1600200Y-1662900D01*
X1550200Y-1612900D02*
X1650200Y-1612900D01*
X1600200Y-1812900D02*
X1600200Y-1912900D01*
X1550200Y-1862900D02*
X1650200Y-1862900D01*
X1600200Y-2464600D02*
X1600200Y-2564600D01*
X1550200Y-2514600D02*
X1650200Y-2514600D01*
X1600200Y-2714600D02*
X1600200Y-2814600D01*
X1550200Y-2764600D02*
X1650200Y-2764600D01*
X6375400Y-1499400D02*
X6375400Y-1599400D01*
X6325400Y-1549400D02*
X6425400Y-1549400D01*
D11*
X1464777Y-3704884D02*
X1464777Y-3504884D01*
X1464777Y-3504884D02*
X1512396Y-3504884D01*
X1512396Y-3504884D02*
X1540967Y-3514408D01*
X1540967Y-3514408D02*
X1560015Y-3533455D01*
X1560015Y-3533455D02*
X1569539Y-3552503D01*
X1569539Y-3552503D02*
X1579062Y-3590598D01*
X1579062Y-3590598D02*
X1579062Y-3619169D01*
X1579062Y-3619169D02*
X1569539Y-3657265D01*
X1569539Y-3657265D02*
X1560015Y-3676312D01*
X1560015Y-3676312D02*
X1540967Y-3695360D01*
X1540967Y-3695360D02*
X1512396Y-3704884D01*
X1512396Y-3704884D02*
X1464777Y-3704884D01*
X1664777Y-3704884D02*
X1664777Y-3571550D01*
X1664777Y-3609646D02*
X1674301Y-3590598D01*
X1674301Y-3590598D02*
X1683824Y-3581074D01*
X1683824Y-3581074D02*
X1702872Y-3571550D01*
X1702872Y-3571550D02*
X1721920Y-3571550D01*
X1788586Y-3704884D02*
X1788586Y-3571550D01*
X1788586Y-3504884D02*
X1779062Y-3514408D01*
X1779062Y-3514408D02*
X1788586Y-3523931D01*
X1788586Y-3523931D02*
X1798110Y-3514408D01*
X1798110Y-3514408D02*
X1788586Y-3504884D01*
X1788586Y-3504884D02*
X1788586Y-3523931D01*
X1912396Y-3704884D02*
X1893348Y-3695360D01*
X1893348Y-3695360D02*
X1883824Y-3676312D01*
X1883824Y-3676312D02*
X1883824Y-3504884D01*
X2017158Y-3704884D02*
X1998110Y-3695360D01*
X1998110Y-3695360D02*
X1988586Y-3676312D01*
X1988586Y-3676312D02*
X1988586Y-3504884D01*
X2245729Y-3704884D02*
X2245729Y-3504884D01*
X2245729Y-3504884D02*
X2312396Y-3647741D01*
X2312396Y-3647741D02*
X2379063Y-3504884D01*
X2379063Y-3504884D02*
X2379063Y-3704884D01*
X2560015Y-3704884D02*
X2560015Y-3600122D01*
X2560015Y-3600122D02*
X2550491Y-3581074D01*
X2550491Y-3581074D02*
X2531444Y-3571550D01*
X2531444Y-3571550D02*
X2493348Y-3571550D01*
X2493348Y-3571550D02*
X2474301Y-3581074D01*
X2560015Y-3695360D02*
X2540967Y-3704884D01*
X2540967Y-3704884D02*
X2493348Y-3704884D01*
X2493348Y-3704884D02*
X2474301Y-3695360D01*
X2474301Y-3695360D02*
X2464777Y-3676312D01*
X2464777Y-3676312D02*
X2464777Y-3657265D01*
X2464777Y-3657265D02*
X2474301Y-3638217D01*
X2474301Y-3638217D02*
X2493348Y-3628693D01*
X2493348Y-3628693D02*
X2540967Y-3628693D01*
X2540967Y-3628693D02*
X2560015Y-3619169D01*
X2655253Y-3571550D02*
X2655253Y-3771550D01*
X2655253Y-3581074D02*
X2674301Y-3571550D01*
X2674301Y-3571550D02*
X2712396Y-3571550D01*
X2712396Y-3571550D02*
X2731444Y-3581074D01*
X2731444Y-3581074D02*
X2740967Y-3590598D01*
X2740967Y-3590598D02*
X2750491Y-3609646D01*
X2750491Y-3609646D02*
X2750491Y-3666788D01*
X2750491Y-3666788D02*
X2740967Y-3685836D01*
X2740967Y-3685836D02*
X2731444Y-3695360D01*
X2731444Y-3695360D02*
X2712396Y-3704884D01*
X2712396Y-3704884D02*
X2674301Y-3704884D01*
X2674301Y-3704884D02*
X2655253Y-3695360D01*
X2836205Y-3685836D02*
X2845729Y-3695360D01*
X2845729Y-3695360D02*
X2836205Y-3704884D01*
X2836205Y-3704884D02*
X2826682Y-3695360D01*
X2826682Y-3695360D02*
X2836205Y-3685836D01*
X2836205Y-3685836D02*
X2836205Y-3704884D01*
X2836205Y-3581074D02*
X2845729Y-3590598D01*
X2845729Y-3590598D02*
X2836205Y-3600122D01*
X2836205Y-3600122D02*
X2826682Y-3590598D01*
X2826682Y-3590598D02*
X2836205Y-3581074D01*
X2836205Y-3581074D02*
X2836205Y-3600122D01*
D12*
X1144000Y-4003400D02*
X1204000Y-4063400D01*
X1204000Y-4003400D02*
X1144000Y-4063400D01*
D11*
X1502872Y-3924884D02*
X1521920Y-3924884D01*
X1521920Y-3924884D02*
X1540967Y-3934408D01*
X1540967Y-3934408D02*
X1550491Y-3943931D01*
X1550491Y-3943931D02*
X1560015Y-3962979D01*
X1560015Y-3962979D02*
X1569539Y-4001074D01*
X1569539Y-4001074D02*
X1569539Y-4048693D01*
X1569539Y-4048693D02*
X1560015Y-4086788D01*
X1560015Y-4086788D02*
X1550491Y-4105836D01*
X1550491Y-4105836D02*
X1540967Y-4115360D01*
X1540967Y-4115360D02*
X1521920Y-4124884D01*
X1521920Y-4124884D02*
X1502872Y-4124884D01*
X1502872Y-4124884D02*
X1483824Y-4115360D01*
X1483824Y-4115360D02*
X1474301Y-4105836D01*
X1474301Y-4105836D02*
X1464777Y-4086788D01*
X1464777Y-4086788D02*
X1455253Y-4048693D01*
X1455253Y-4048693D02*
X1455253Y-4001074D01*
X1455253Y-4001074D02*
X1464777Y-3962979D01*
X1464777Y-3962979D02*
X1474301Y-3943931D01*
X1474301Y-3943931D02*
X1483824Y-3934408D01*
X1483824Y-3934408D02*
X1502872Y-3924884D01*
X1655253Y-4105836D02*
X1664777Y-4115360D01*
X1664777Y-4115360D02*
X1655253Y-4124884D01*
X1655253Y-4124884D02*
X1645729Y-4115360D01*
X1645729Y-4115360D02*
X1655253Y-4105836D01*
X1655253Y-4105836D02*
X1655253Y-4124884D01*
X1836205Y-3924884D02*
X1798110Y-3924884D01*
X1798110Y-3924884D02*
X1779062Y-3934408D01*
X1779062Y-3934408D02*
X1769539Y-3943931D01*
X1769539Y-3943931D02*
X1750491Y-3972503D01*
X1750491Y-3972503D02*
X1740967Y-4010598D01*
X1740967Y-4010598D02*
X1740967Y-4086788D01*
X1740967Y-4086788D02*
X1750491Y-4105836D01*
X1750491Y-4105836D02*
X1760015Y-4115360D01*
X1760015Y-4115360D02*
X1779062Y-4124884D01*
X1779062Y-4124884D02*
X1817158Y-4124884D01*
X1817158Y-4124884D02*
X1836205Y-4115360D01*
X1836205Y-4115360D02*
X1845729Y-4105836D01*
X1845729Y-4105836D02*
X1855253Y-4086788D01*
X1855253Y-4086788D02*
X1855253Y-4039169D01*
X1855253Y-4039169D02*
X1845729Y-4020122D01*
X1845729Y-4020122D02*
X1836205Y-4010598D01*
X1836205Y-4010598D02*
X1817158Y-4001074D01*
X1817158Y-4001074D02*
X1779062Y-4001074D01*
X1779062Y-4001074D02*
X1760015Y-4010598D01*
X1760015Y-4010598D02*
X1750491Y-4020122D01*
X1750491Y-4020122D02*
X1740967Y-4039169D01*
X1979062Y-3924884D02*
X1998110Y-3924884D01*
X1998110Y-3924884D02*
X2017158Y-3934408D01*
X2017158Y-3934408D02*
X2026682Y-3943931D01*
X2026682Y-3943931D02*
X2036205Y-3962979D01*
X2036205Y-3962979D02*
X2045729Y-4001074D01*
X2045729Y-4001074D02*
X2045729Y-4048693D01*
X2045729Y-4048693D02*
X2036205Y-4086788D01*
X2036205Y-4086788D02*
X2026682Y-4105836D01*
X2026682Y-4105836D02*
X2017158Y-4115360D01*
X2017158Y-4115360D02*
X1998110Y-4124884D01*
X1998110Y-4124884D02*
X1979062Y-4124884D01*
X1979062Y-4124884D02*
X1960015Y-4115360D01*
X1960015Y-4115360D02*
X1950491Y-4105836D01*
X1950491Y-4105836D02*
X1940967Y-4086788D01*
X1940967Y-4086788D02*
X1931443Y-4048693D01*
X1931443Y-4048693D02*
X1931443Y-4001074D01*
X1931443Y-4001074D02*
X1940967Y-3962979D01*
X1940967Y-3962979D02*
X1950491Y-3943931D01*
X1950491Y-3943931D02*
X1960015Y-3934408D01*
X1960015Y-3934408D02*
X1979062Y-3924884D01*
X2169539Y-3924884D02*
X2188586Y-3924884D01*
X2188586Y-3924884D02*
X2207634Y-3934408D01*
X2207634Y-3934408D02*
X2217158Y-3943931D01*
X2217158Y-3943931D02*
X2226682Y-3962979D01*
X2226682Y-3962979D02*
X2236205Y-4001074D01*
X2236205Y-4001074D02*
X2236205Y-4048693D01*
X2236205Y-4048693D02*
X2226682Y-4086788D01*
X2226682Y-4086788D02*
X2217158Y-4105836D01*
X2217158Y-4105836D02*
X2207634Y-4115360D01*
X2207634Y-4115360D02*
X2188586Y-4124884D01*
X2188586Y-4124884D02*
X2169539Y-4124884D01*
X2169539Y-4124884D02*
X2150491Y-4115360D01*
X2150491Y-4115360D02*
X2140967Y-4105836D01*
X2140967Y-4105836D02*
X2131444Y-4086788D01*
X2131444Y-4086788D02*
X2121920Y-4048693D01*
X2121920Y-4048693D02*
X2121920Y-4001074D01*
X2121920Y-4001074D02*
X2131444Y-3962979D01*
X2131444Y-3962979D02*
X2140967Y-3943931D01*
X2140967Y-3943931D02*
X2150491Y-3934408D01*
X2150491Y-3934408D02*
X2169539Y-3924884D01*
X2321920Y-4124884D02*
X2321920Y-3991550D01*
X2321920Y-4010598D02*
X2331444Y-4001074D01*
X2331444Y-4001074D02*
X2350491Y-3991550D01*
X2350491Y-3991550D02*
X2379063Y-3991550D01*
X2379063Y-3991550D02*
X2398110Y-4001074D01*
X2398110Y-4001074D02*
X2407634Y-4020122D01*
X2407634Y-4020122D02*
X2407634Y-4124884D01*
X2407634Y-4020122D02*
X2417158Y-4001074D01*
X2417158Y-4001074D02*
X2436205Y-3991550D01*
X2436205Y-3991550D02*
X2464777Y-3991550D01*
X2464777Y-3991550D02*
X2483825Y-4001074D01*
X2483825Y-4001074D02*
X2493348Y-4020122D01*
X2493348Y-4020122D02*
X2493348Y-4124884D01*
X2588586Y-4124884D02*
X2588586Y-3991550D01*
X2588586Y-4010598D02*
X2598110Y-4001074D01*
X2598110Y-4001074D02*
X2617158Y-3991550D01*
X2617158Y-3991550D02*
X2645729Y-3991550D01*
X2645729Y-3991550D02*
X2664777Y-4001074D01*
X2664777Y-4001074D02*
X2674301Y-4020122D01*
X2674301Y-4020122D02*
X2674301Y-4124884D01*
X2674301Y-4020122D02*
X2683825Y-4001074D01*
X2683825Y-4001074D02*
X2702872Y-3991550D01*
X2702872Y-3991550D02*
X2731444Y-3991550D01*
X2731444Y-3991550D02*
X2750491Y-4001074D01*
X2750491Y-4001074D02*
X2760015Y-4020122D01*
X2760015Y-4020122D02*
X2760015Y-4124884D01*
X3150491Y-3915360D02*
X2979063Y-4172503D01*
X3407634Y-3924884D02*
X3426682Y-3924884D01*
X3426682Y-3924884D02*
X3445729Y-3934408D01*
X3445729Y-3934408D02*
X3455253Y-3943931D01*
X3455253Y-3943931D02*
X3464777Y-3962979D01*
X3464777Y-3962979D02*
X3474301Y-4001074D01*
X3474301Y-4001074D02*
X3474301Y-4048693D01*
X3474301Y-4048693D02*
X3464777Y-4086788D01*
X3464777Y-4086788D02*
X3455253Y-4105836D01*
X3455253Y-4105836D02*
X3445729Y-4115360D01*
X3445729Y-4115360D02*
X3426682Y-4124884D01*
X3426682Y-4124884D02*
X3407634Y-4124884D01*
X3407634Y-4124884D02*
X3388586Y-4115360D01*
X3388586Y-4115360D02*
X3379063Y-4105836D01*
X3379063Y-4105836D02*
X3369539Y-4086788D01*
X3369539Y-4086788D02*
X3360015Y-4048693D01*
X3360015Y-4048693D02*
X3360015Y-4001074D01*
X3360015Y-4001074D02*
X3369539Y-3962979D01*
X3369539Y-3962979D02*
X3379063Y-3943931D01*
X3379063Y-3943931D02*
X3388586Y-3934408D01*
X3388586Y-3934408D02*
X3407634Y-3924884D01*
X3560015Y-4105836D02*
X3569539Y-4115360D01*
X3569539Y-4115360D02*
X3560015Y-4124884D01*
X3560015Y-4124884D02*
X3550491Y-4115360D01*
X3550491Y-4115360D02*
X3560015Y-4105836D01*
X3560015Y-4105836D02*
X3560015Y-4124884D01*
X3693348Y-3924884D02*
X3712396Y-3924884D01*
X3712396Y-3924884D02*
X3731444Y-3934408D01*
X3731444Y-3934408D02*
X3740967Y-3943931D01*
X3740967Y-3943931D02*
X3750491Y-3962979D01*
X3750491Y-3962979D02*
X3760015Y-4001074D01*
X3760015Y-4001074D02*
X3760015Y-4048693D01*
X3760015Y-4048693D02*
X3750491Y-4086788D01*
X3750491Y-4086788D02*
X3740967Y-4105836D01*
X3740967Y-4105836D02*
X3731444Y-4115360D01*
X3731444Y-4115360D02*
X3712396Y-4124884D01*
X3712396Y-4124884D02*
X3693348Y-4124884D01*
X3693348Y-4124884D02*
X3674301Y-4115360D01*
X3674301Y-4115360D02*
X3664777Y-4105836D01*
X3664777Y-4105836D02*
X3655253Y-4086788D01*
X3655253Y-4086788D02*
X3645729Y-4048693D01*
X3645729Y-4048693D02*
X3645729Y-4001074D01*
X3645729Y-4001074D02*
X3655253Y-3962979D01*
X3655253Y-3962979D02*
X3664777Y-3943931D01*
X3664777Y-3943931D02*
X3674301Y-3934408D01*
X3674301Y-3934408D02*
X3693348Y-3924884D01*
X3836206Y-3943931D02*
X3845729Y-3934408D01*
X3845729Y-3934408D02*
X3864777Y-3924884D01*
X3864777Y-3924884D02*
X3912396Y-3924884D01*
X3912396Y-3924884D02*
X3931444Y-3934408D01*
X3931444Y-3934408D02*
X3940967Y-3943931D01*
X3940967Y-3943931D02*
X3950491Y-3962979D01*
X3950491Y-3962979D02*
X3950491Y-3982027D01*
X3950491Y-3982027D02*
X3940967Y-4010598D01*
X3940967Y-4010598D02*
X3826682Y-4124884D01*
X3826682Y-4124884D02*
X3950491Y-4124884D01*
X4017158Y-3924884D02*
X4140967Y-3924884D01*
X4140967Y-3924884D02*
X4074301Y-4001074D01*
X4074301Y-4001074D02*
X4102872Y-4001074D01*
X4102872Y-4001074D02*
X4121920Y-4010598D01*
X4121920Y-4010598D02*
X4131444Y-4020122D01*
X4131444Y-4020122D02*
X4140967Y-4039169D01*
X4140967Y-4039169D02*
X4140967Y-4086788D01*
X4140967Y-4086788D02*
X4131444Y-4105836D01*
X4131444Y-4105836D02*
X4121920Y-4115360D01*
X4121920Y-4115360D02*
X4102872Y-4124884D01*
X4102872Y-4124884D02*
X4045729Y-4124884D01*
X4045729Y-4124884D02*
X4026682Y-4115360D01*
X4026682Y-4115360D02*
X4017158Y-4105836D01*
X4312396Y-3924884D02*
X4274301Y-3924884D01*
X4274301Y-3924884D02*
X4255253Y-3934408D01*
X4255253Y-3934408D02*
X4245729Y-3943931D01*
X4245729Y-3943931D02*
X4226682Y-3972503D01*
X4226682Y-3972503D02*
X4217158Y-4010598D01*
X4217158Y-4010598D02*
X4217158Y-4086788D01*
X4217158Y-4086788D02*
X4226682Y-4105836D01*
X4226682Y-4105836D02*
X4236206Y-4115360D01*
X4236206Y-4115360D02*
X4255253Y-4124884D01*
X4255253Y-4124884D02*
X4293349Y-4124884D01*
X4293349Y-4124884D02*
X4312396Y-4115360D01*
X4312396Y-4115360D02*
X4321920Y-4105836D01*
X4321920Y-4105836D02*
X4331444Y-4086788D01*
X4331444Y-4086788D02*
X4331444Y-4039169D01*
X4331444Y-4039169D02*
X4321920Y-4020122D01*
X4321920Y-4020122D02*
X4312396Y-4010598D01*
X4312396Y-4010598D02*
X4293349Y-4001074D01*
X4293349Y-4001074D02*
X4255253Y-4001074D01*
X4255253Y-4001074D02*
X4236206Y-4010598D01*
X4236206Y-4010598D02*
X4226682Y-4020122D01*
X4226682Y-4020122D02*
X4217158Y-4039169D01*
X4407634Y-3924884D02*
X4407634Y-3962979D01*
X4483825Y-3924884D02*
X4483825Y-3962979D01*
X4779063Y-4201074D02*
X4769539Y-4191550D01*
X4769539Y-4191550D02*
X4750491Y-4162979D01*
X4750491Y-4162979D02*
X4740968Y-4143931D01*
X4740968Y-4143931D02*
X4731444Y-4115360D01*
X4731444Y-4115360D02*
X4721920Y-4067741D01*
X4721920Y-4067741D02*
X4721920Y-4029646D01*
X4721920Y-4029646D02*
X4731444Y-3982027D01*
X4731444Y-3982027D02*
X4740968Y-3953455D01*
X4740968Y-3953455D02*
X4750491Y-3934408D01*
X4750491Y-3934408D02*
X4769539Y-3905836D01*
X4769539Y-3905836D02*
X4779063Y-3896312D01*
X4845730Y-3943931D02*
X4855253Y-3934408D01*
X4855253Y-3934408D02*
X4874301Y-3924884D01*
X4874301Y-3924884D02*
X4921920Y-3924884D01*
X4921920Y-3924884D02*
X4940968Y-3934408D01*
X4940968Y-3934408D02*
X4950491Y-3943931D01*
X4950491Y-3943931D02*
X4960015Y-3962979D01*
X4960015Y-3962979D02*
X4960015Y-3982027D01*
X4960015Y-3982027D02*
X4950491Y-4010598D01*
X4950491Y-4010598D02*
X4836206Y-4124884D01*
X4836206Y-4124884D02*
X4960015Y-4124884D01*
X5198111Y-4124884D02*
X5198111Y-3924884D01*
X5283825Y-4124884D02*
X5283825Y-4020122D01*
X5283825Y-4020122D02*
X5274301Y-4001074D01*
X5274301Y-4001074D02*
X5255253Y-3991550D01*
X5255253Y-3991550D02*
X5226682Y-3991550D01*
X5226682Y-3991550D02*
X5207634Y-4001074D01*
X5207634Y-4001074D02*
X5198111Y-4010598D01*
X5407634Y-4124884D02*
X5388587Y-4115360D01*
X5388587Y-4115360D02*
X5379063Y-4105836D01*
X5379063Y-4105836D02*
X5369539Y-4086788D01*
X5369539Y-4086788D02*
X5369539Y-4029646D01*
X5369539Y-4029646D02*
X5379063Y-4010598D01*
X5379063Y-4010598D02*
X5388587Y-4001074D01*
X5388587Y-4001074D02*
X5407634Y-3991550D01*
X5407634Y-3991550D02*
X5436206Y-3991550D01*
X5436206Y-3991550D02*
X5455253Y-4001074D01*
X5455253Y-4001074D02*
X5464777Y-4010598D01*
X5464777Y-4010598D02*
X5474301Y-4029646D01*
X5474301Y-4029646D02*
X5474301Y-4086788D01*
X5474301Y-4086788D02*
X5464777Y-4105836D01*
X5464777Y-4105836D02*
X5455253Y-4115360D01*
X5455253Y-4115360D02*
X5436206Y-4124884D01*
X5436206Y-4124884D02*
X5407634Y-4124884D01*
X5588587Y-4124884D02*
X5569539Y-4115360D01*
X5569539Y-4115360D02*
X5560015Y-4096312D01*
X5560015Y-4096312D02*
X5560015Y-3924884D01*
X5740968Y-4115360D02*
X5721920Y-4124884D01*
X5721920Y-4124884D02*
X5683825Y-4124884D01*
X5683825Y-4124884D02*
X5664777Y-4115360D01*
X5664777Y-4115360D02*
X5655253Y-4096312D01*
X5655253Y-4096312D02*
X5655253Y-4020122D01*
X5655253Y-4020122D02*
X5664777Y-4001074D01*
X5664777Y-4001074D02*
X5683825Y-3991550D01*
X5683825Y-3991550D02*
X5721920Y-3991550D01*
X5721920Y-3991550D02*
X5740968Y-4001074D01*
X5740968Y-4001074D02*
X5750491Y-4020122D01*
X5750491Y-4020122D02*
X5750491Y-4039169D01*
X5750491Y-4039169D02*
X5655253Y-4058217D01*
X5826682Y-4115360D02*
X5845730Y-4124884D01*
X5845730Y-4124884D02*
X5883825Y-4124884D01*
X5883825Y-4124884D02*
X5902872Y-4115360D01*
X5902872Y-4115360D02*
X5912396Y-4096312D01*
X5912396Y-4096312D02*
X5912396Y-4086788D01*
X5912396Y-4086788D02*
X5902872Y-4067741D01*
X5902872Y-4067741D02*
X5883825Y-4058217D01*
X5883825Y-4058217D02*
X5855253Y-4058217D01*
X5855253Y-4058217D02*
X5836206Y-4048693D01*
X5836206Y-4048693D02*
X5826682Y-4029646D01*
X5826682Y-4029646D02*
X5826682Y-4020122D01*
X5826682Y-4020122D02*
X5836206Y-4001074D01*
X5836206Y-4001074D02*
X5855253Y-3991550D01*
X5855253Y-3991550D02*
X5883825Y-3991550D01*
X5883825Y-3991550D02*
X5902872Y-4001074D01*
X5979063Y-4201074D02*
X5988587Y-4191550D01*
X5988587Y-4191550D02*
X6007634Y-4162979D01*
X6007634Y-4162979D02*
X6017158Y-4143931D01*
X6017158Y-4143931D02*
X6026682Y-4115360D01*
X6026682Y-4115360D02*
X6036206Y-4067741D01*
X6036206Y-4067741D02*
X6036206Y-4029646D01*
X6036206Y-4029646D02*
X6026682Y-3982027D01*
X6026682Y-3982027D02*
X6017158Y-3953455D01*
X6017158Y-3953455D02*
X6007634Y-3934408D01*
X6007634Y-3934408D02*
X5988587Y-3905836D01*
X5988587Y-3905836D02*
X5979063Y-3896312D01*
D12*
X1204000Y-4297400D02*
G75*
G02*
X1124000Y-4297400I-40000J0D01*
G01*
X1124000Y-4297400D02*
G75*
G02*
X1204000Y-4297400I40000J0D01*
G01*
D11*
X1502872Y-4188884D02*
X1521920Y-4188884D01*
X1521920Y-4188884D02*
X1540967Y-4198408D01*
X1540967Y-4198408D02*
X1550491Y-4207931D01*
X1550491Y-4207931D02*
X1560015Y-4226979D01*
X1560015Y-4226979D02*
X1569539Y-4265074D01*
X1569539Y-4265074D02*
X1569539Y-4312693D01*
X1569539Y-4312693D02*
X1560015Y-4350789D01*
X1560015Y-4350789D02*
X1550491Y-4369836D01*
X1550491Y-4369836D02*
X1540967Y-4379360D01*
X1540967Y-4379360D02*
X1521920Y-4388884D01*
X1521920Y-4388884D02*
X1502872Y-4388884D01*
X1502872Y-4388884D02*
X1483824Y-4379360D01*
X1483824Y-4379360D02*
X1474301Y-4369836D01*
X1474301Y-4369836D02*
X1464777Y-4350789D01*
X1464777Y-4350789D02*
X1455253Y-4312693D01*
X1455253Y-4312693D02*
X1455253Y-4265074D01*
X1455253Y-4265074D02*
X1464777Y-4226979D01*
X1464777Y-4226979D02*
X1474301Y-4207931D01*
X1474301Y-4207931D02*
X1483824Y-4198408D01*
X1483824Y-4198408D02*
X1502872Y-4188884D01*
X1655253Y-4369836D02*
X1664777Y-4379360D01*
X1664777Y-4379360D02*
X1655253Y-4388884D01*
X1655253Y-4388884D02*
X1645729Y-4379360D01*
X1645729Y-4379360D02*
X1655253Y-4369836D01*
X1655253Y-4369836D02*
X1655253Y-4388884D01*
X1779062Y-4274598D02*
X1760015Y-4265074D01*
X1760015Y-4265074D02*
X1750491Y-4255550D01*
X1750491Y-4255550D02*
X1740967Y-4236503D01*
X1740967Y-4236503D02*
X1740967Y-4226979D01*
X1740967Y-4226979D02*
X1750491Y-4207931D01*
X1750491Y-4207931D02*
X1760015Y-4198408D01*
X1760015Y-4198408D02*
X1779062Y-4188884D01*
X1779062Y-4188884D02*
X1817158Y-4188884D01*
X1817158Y-4188884D02*
X1836205Y-4198408D01*
X1836205Y-4198408D02*
X1845729Y-4207931D01*
X1845729Y-4207931D02*
X1855253Y-4226979D01*
X1855253Y-4226979D02*
X1855253Y-4236503D01*
X1855253Y-4236503D02*
X1845729Y-4255550D01*
X1845729Y-4255550D02*
X1836205Y-4265074D01*
X1836205Y-4265074D02*
X1817158Y-4274598D01*
X1817158Y-4274598D02*
X1779062Y-4274598D01*
X1779062Y-4274598D02*
X1760015Y-4284122D01*
X1760015Y-4284122D02*
X1750491Y-4293646D01*
X1750491Y-4293646D02*
X1740967Y-4312693D01*
X1740967Y-4312693D02*
X1740967Y-4350789D01*
X1740967Y-4350789D02*
X1750491Y-4369836D01*
X1750491Y-4369836D02*
X1760015Y-4379360D01*
X1760015Y-4379360D02*
X1779062Y-4388884D01*
X1779062Y-4388884D02*
X1817158Y-4388884D01*
X1817158Y-4388884D02*
X1836205Y-4379360D01*
X1836205Y-4379360D02*
X1845729Y-4369836D01*
X1845729Y-4369836D02*
X1855253Y-4350789D01*
X1855253Y-4350789D02*
X1855253Y-4312693D01*
X1855253Y-4312693D02*
X1845729Y-4293646D01*
X1845729Y-4293646D02*
X1836205Y-4284122D01*
X1836205Y-4284122D02*
X1817158Y-4274598D01*
X1979062Y-4188884D02*
X1998110Y-4188884D01*
X1998110Y-4188884D02*
X2017158Y-4198408D01*
X2017158Y-4198408D02*
X2026682Y-4207931D01*
X2026682Y-4207931D02*
X2036205Y-4226979D01*
X2036205Y-4226979D02*
X2045729Y-4265074D01*
X2045729Y-4265074D02*
X2045729Y-4312693D01*
X2045729Y-4312693D02*
X2036205Y-4350789D01*
X2036205Y-4350789D02*
X2026682Y-4369836D01*
X2026682Y-4369836D02*
X2017158Y-4379360D01*
X2017158Y-4379360D02*
X1998110Y-4388884D01*
X1998110Y-4388884D02*
X1979062Y-4388884D01*
X1979062Y-4388884D02*
X1960015Y-4379360D01*
X1960015Y-4379360D02*
X1950491Y-4369836D01*
X1950491Y-4369836D02*
X1940967Y-4350789D01*
X1940967Y-4350789D02*
X1931443Y-4312693D01*
X1931443Y-4312693D02*
X1931443Y-4265074D01*
X1931443Y-4265074D02*
X1940967Y-4226979D01*
X1940967Y-4226979D02*
X1950491Y-4207931D01*
X1950491Y-4207931D02*
X1960015Y-4198408D01*
X1960015Y-4198408D02*
X1979062Y-4188884D01*
X2169539Y-4188884D02*
X2188586Y-4188884D01*
X2188586Y-4188884D02*
X2207634Y-4198408D01*
X2207634Y-4198408D02*
X2217158Y-4207931D01*
X2217158Y-4207931D02*
X2226682Y-4226979D01*
X2226682Y-4226979D02*
X2236205Y-4265074D01*
X2236205Y-4265074D02*
X2236205Y-4312693D01*
X2236205Y-4312693D02*
X2226682Y-4350789D01*
X2226682Y-4350789D02*
X2217158Y-4369836D01*
X2217158Y-4369836D02*
X2207634Y-4379360D01*
X2207634Y-4379360D02*
X2188586Y-4388884D01*
X2188586Y-4388884D02*
X2169539Y-4388884D01*
X2169539Y-4388884D02*
X2150491Y-4379360D01*
X2150491Y-4379360D02*
X2140967Y-4369836D01*
X2140967Y-4369836D02*
X2131444Y-4350789D01*
X2131444Y-4350789D02*
X2121920Y-4312693D01*
X2121920Y-4312693D02*
X2121920Y-4265074D01*
X2121920Y-4265074D02*
X2131444Y-4226979D01*
X2131444Y-4226979D02*
X2140967Y-4207931D01*
X2140967Y-4207931D02*
X2150491Y-4198408D01*
X2150491Y-4198408D02*
X2169539Y-4188884D01*
X2321920Y-4388884D02*
X2321920Y-4255550D01*
X2321920Y-4274598D02*
X2331444Y-4265074D01*
X2331444Y-4265074D02*
X2350491Y-4255550D01*
X2350491Y-4255550D02*
X2379063Y-4255550D01*
X2379063Y-4255550D02*
X2398110Y-4265074D01*
X2398110Y-4265074D02*
X2407634Y-4284122D01*
X2407634Y-4284122D02*
X2407634Y-4388884D01*
X2407634Y-4284122D02*
X2417158Y-4265074D01*
X2417158Y-4265074D02*
X2436205Y-4255550D01*
X2436205Y-4255550D02*
X2464777Y-4255550D01*
X2464777Y-4255550D02*
X2483825Y-4265074D01*
X2483825Y-4265074D02*
X2493348Y-4284122D01*
X2493348Y-4284122D02*
X2493348Y-4388884D01*
X2588586Y-4388884D02*
X2588586Y-4255550D01*
X2588586Y-4274598D02*
X2598110Y-4265074D01*
X2598110Y-4265074D02*
X2617158Y-4255550D01*
X2617158Y-4255550D02*
X2645729Y-4255550D01*
X2645729Y-4255550D02*
X2664777Y-4265074D01*
X2664777Y-4265074D02*
X2674301Y-4284122D01*
X2674301Y-4284122D02*
X2674301Y-4388884D01*
X2674301Y-4284122D02*
X2683825Y-4265074D01*
X2683825Y-4265074D02*
X2702872Y-4255550D01*
X2702872Y-4255550D02*
X2731444Y-4255550D01*
X2731444Y-4255550D02*
X2750491Y-4265074D01*
X2750491Y-4265074D02*
X2760015Y-4284122D01*
X2760015Y-4284122D02*
X2760015Y-4388884D01*
X3150491Y-4179360D02*
X2979063Y-4436503D01*
X3407634Y-4188884D02*
X3426682Y-4188884D01*
X3426682Y-4188884D02*
X3445729Y-4198408D01*
X3445729Y-4198408D02*
X3455253Y-4207931D01*
X3455253Y-4207931D02*
X3464777Y-4226979D01*
X3464777Y-4226979D02*
X3474301Y-4265074D01*
X3474301Y-4265074D02*
X3474301Y-4312693D01*
X3474301Y-4312693D02*
X3464777Y-4350789D01*
X3464777Y-4350789D02*
X3455253Y-4369836D01*
X3455253Y-4369836D02*
X3445729Y-4379360D01*
X3445729Y-4379360D02*
X3426682Y-4388884D01*
X3426682Y-4388884D02*
X3407634Y-4388884D01*
X3407634Y-4388884D02*
X3388586Y-4379360D01*
X3388586Y-4379360D02*
X3379063Y-4369836D01*
X3379063Y-4369836D02*
X3369539Y-4350789D01*
X3369539Y-4350789D02*
X3360015Y-4312693D01*
X3360015Y-4312693D02*
X3360015Y-4265074D01*
X3360015Y-4265074D02*
X3369539Y-4226979D01*
X3369539Y-4226979D02*
X3379063Y-4207931D01*
X3379063Y-4207931D02*
X3388586Y-4198408D01*
X3388586Y-4198408D02*
X3407634Y-4188884D01*
X3560015Y-4369836D02*
X3569539Y-4379360D01*
X3569539Y-4379360D02*
X3560015Y-4388884D01*
X3560015Y-4388884D02*
X3550491Y-4379360D01*
X3550491Y-4379360D02*
X3560015Y-4369836D01*
X3560015Y-4369836D02*
X3560015Y-4388884D01*
X3693348Y-4188884D02*
X3712396Y-4188884D01*
X3712396Y-4188884D02*
X3731444Y-4198408D01*
X3731444Y-4198408D02*
X3740967Y-4207931D01*
X3740967Y-4207931D02*
X3750491Y-4226979D01*
X3750491Y-4226979D02*
X3760015Y-4265074D01*
X3760015Y-4265074D02*
X3760015Y-4312693D01*
X3760015Y-4312693D02*
X3750491Y-4350789D01*
X3750491Y-4350789D02*
X3740967Y-4369836D01*
X3740967Y-4369836D02*
X3731444Y-4379360D01*
X3731444Y-4379360D02*
X3712396Y-4388884D01*
X3712396Y-4388884D02*
X3693348Y-4388884D01*
X3693348Y-4388884D02*
X3674301Y-4379360D01*
X3674301Y-4379360D02*
X3664777Y-4369836D01*
X3664777Y-4369836D02*
X3655253Y-4350789D01*
X3655253Y-4350789D02*
X3645729Y-4312693D01*
X3645729Y-4312693D02*
X3645729Y-4265074D01*
X3645729Y-4265074D02*
X3655253Y-4226979D01*
X3655253Y-4226979D02*
X3664777Y-4207931D01*
X3664777Y-4207931D02*
X3674301Y-4198408D01*
X3674301Y-4198408D02*
X3693348Y-4188884D01*
X3826682Y-4188884D02*
X3950491Y-4188884D01*
X3950491Y-4188884D02*
X3883825Y-4265074D01*
X3883825Y-4265074D02*
X3912396Y-4265074D01*
X3912396Y-4265074D02*
X3931444Y-4274598D01*
X3931444Y-4274598D02*
X3940967Y-4284122D01*
X3940967Y-4284122D02*
X3950491Y-4303170D01*
X3950491Y-4303170D02*
X3950491Y-4350789D01*
X3950491Y-4350789D02*
X3940967Y-4369836D01*
X3940967Y-4369836D02*
X3931444Y-4379360D01*
X3931444Y-4379360D02*
X3912396Y-4388884D01*
X3912396Y-4388884D02*
X3855253Y-4388884D01*
X3855253Y-4388884D02*
X3836206Y-4379360D01*
X3836206Y-4379360D02*
X3826682Y-4369836D01*
X4140967Y-4388884D02*
X4026682Y-4388884D01*
X4083825Y-4388884D02*
X4083825Y-4188884D01*
X4083825Y-4188884D02*
X4064777Y-4217455D01*
X4064777Y-4217455D02*
X4045729Y-4236503D01*
X4045729Y-4236503D02*
X4026682Y-4246027D01*
X4321920Y-4188884D02*
X4226682Y-4188884D01*
X4226682Y-4188884D02*
X4217158Y-4284122D01*
X4217158Y-4284122D02*
X4226682Y-4274598D01*
X4226682Y-4274598D02*
X4245729Y-4265074D01*
X4245729Y-4265074D02*
X4293349Y-4265074D01*
X4293349Y-4265074D02*
X4312396Y-4274598D01*
X4312396Y-4274598D02*
X4321920Y-4284122D01*
X4321920Y-4284122D02*
X4331444Y-4303170D01*
X4331444Y-4303170D02*
X4331444Y-4350789D01*
X4331444Y-4350789D02*
X4321920Y-4369836D01*
X4321920Y-4369836D02*
X4312396Y-4379360D01*
X4312396Y-4379360D02*
X4293349Y-4388884D01*
X4293349Y-4388884D02*
X4245729Y-4388884D01*
X4245729Y-4388884D02*
X4226682Y-4379360D01*
X4226682Y-4379360D02*
X4217158Y-4369836D01*
X4407634Y-4188884D02*
X4407634Y-4226979D01*
X4483825Y-4188884D02*
X4483825Y-4226979D01*
X4779063Y-4465074D02*
X4769539Y-4455550D01*
X4769539Y-4455550D02*
X4750491Y-4426979D01*
X4750491Y-4426979D02*
X4740968Y-4407931D01*
X4740968Y-4407931D02*
X4731444Y-4379360D01*
X4731444Y-4379360D02*
X4721920Y-4331741D01*
X4721920Y-4331741D02*
X4721920Y-4293646D01*
X4721920Y-4293646D02*
X4731444Y-4246027D01*
X4731444Y-4246027D02*
X4740968Y-4217455D01*
X4740968Y-4217455D02*
X4750491Y-4198408D01*
X4750491Y-4198408D02*
X4769539Y-4169836D01*
X4769539Y-4169836D02*
X4779063Y-4160312D01*
X4845730Y-4207931D02*
X4855253Y-4198408D01*
X4855253Y-4198408D02*
X4874301Y-4188884D01*
X4874301Y-4188884D02*
X4921920Y-4188884D01*
X4921920Y-4188884D02*
X4940968Y-4198408D01*
X4940968Y-4198408D02*
X4950491Y-4207931D01*
X4950491Y-4207931D02*
X4960015Y-4226979D01*
X4960015Y-4226979D02*
X4960015Y-4246027D01*
X4960015Y-4246027D02*
X4950491Y-4274598D01*
X4950491Y-4274598D02*
X4836206Y-4388884D01*
X4836206Y-4388884D02*
X4960015Y-4388884D01*
X5131444Y-4255550D02*
X5131444Y-4388884D01*
X5083825Y-4179360D02*
X5036206Y-4322217D01*
X5036206Y-4322217D02*
X5160015Y-4322217D01*
X5388587Y-4388884D02*
X5388587Y-4188884D01*
X5474301Y-4388884D02*
X5474301Y-4284122D01*
X5474301Y-4284122D02*
X5464777Y-4265074D01*
X5464777Y-4265074D02*
X5445730Y-4255550D01*
X5445730Y-4255550D02*
X5417158Y-4255550D01*
X5417158Y-4255550D02*
X5398111Y-4265074D01*
X5398111Y-4265074D02*
X5388587Y-4274598D01*
X5598110Y-4388884D02*
X5579063Y-4379360D01*
X5579063Y-4379360D02*
X5569539Y-4369836D01*
X5569539Y-4369836D02*
X5560015Y-4350789D01*
X5560015Y-4350789D02*
X5560015Y-4293646D01*
X5560015Y-4293646D02*
X5569539Y-4274598D01*
X5569539Y-4274598D02*
X5579063Y-4265074D01*
X5579063Y-4265074D02*
X5598110Y-4255550D01*
X5598110Y-4255550D02*
X5626682Y-4255550D01*
X5626682Y-4255550D02*
X5645730Y-4265074D01*
X5645730Y-4265074D02*
X5655253Y-4274598D01*
X5655253Y-4274598D02*
X5664777Y-4293646D01*
X5664777Y-4293646D02*
X5664777Y-4350789D01*
X5664777Y-4350789D02*
X5655253Y-4369836D01*
X5655253Y-4369836D02*
X5645730Y-4379360D01*
X5645730Y-4379360D02*
X5626682Y-4388884D01*
X5626682Y-4388884D02*
X5598110Y-4388884D01*
X5779063Y-4388884D02*
X5760015Y-4379360D01*
X5760015Y-4379360D02*
X5750491Y-4360312D01*
X5750491Y-4360312D02*
X5750491Y-4188884D01*
X5931444Y-4379360D02*
X5912396Y-4388884D01*
X5912396Y-4388884D02*
X5874301Y-4388884D01*
X5874301Y-4388884D02*
X5855253Y-4379360D01*
X5855253Y-4379360D02*
X5845730Y-4360312D01*
X5845730Y-4360312D02*
X5845730Y-4284122D01*
X5845730Y-4284122D02*
X5855253Y-4265074D01*
X5855253Y-4265074D02*
X5874301Y-4255550D01*
X5874301Y-4255550D02*
X5912396Y-4255550D01*
X5912396Y-4255550D02*
X5931444Y-4265074D01*
X5931444Y-4265074D02*
X5940968Y-4284122D01*
X5940968Y-4284122D02*
X5940968Y-4303170D01*
X5940968Y-4303170D02*
X5845730Y-4322217D01*
X6017158Y-4379360D02*
X6036206Y-4388884D01*
X6036206Y-4388884D02*
X6074301Y-4388884D01*
X6074301Y-4388884D02*
X6093349Y-4379360D01*
X6093349Y-4379360D02*
X6102872Y-4360312D01*
X6102872Y-4360312D02*
X6102872Y-4350789D01*
X6102872Y-4350789D02*
X6093349Y-4331741D01*
X6093349Y-4331741D02*
X6074301Y-4322217D01*
X6074301Y-4322217D02*
X6045730Y-4322217D01*
X6045730Y-4322217D02*
X6026682Y-4312693D01*
X6026682Y-4312693D02*
X6017158Y-4293646D01*
X6017158Y-4293646D02*
X6017158Y-4284122D01*
X6017158Y-4284122D02*
X6026682Y-4265074D01*
X6026682Y-4265074D02*
X6045730Y-4255550D01*
X6045730Y-4255550D02*
X6074301Y-4255550D01*
X6074301Y-4255550D02*
X6093349Y-4265074D01*
X6169539Y-4465074D02*
X6179063Y-4455550D01*
X6179063Y-4455550D02*
X6198111Y-4426979D01*
X6198111Y-4426979D02*
X6207634Y-4407931D01*
X6207634Y-4407931D02*
X6217158Y-4379360D01*
X6217158Y-4379360D02*
X6226682Y-4331741D01*
X6226682Y-4331741D02*
X6226682Y-4293646D01*
X6226682Y-4293646D02*
X6217158Y-4246027D01*
X6217158Y-4246027D02*
X6207634Y-4217455D01*
X6207634Y-4217455D02*
X6198111Y-4198408D01*
X6198111Y-4198408D02*
X6179063Y-4169836D01*
X6179063Y-4169836D02*
X6169539Y-4160312D01*
D12*
X1154000Y-4511400D02*
X1154000Y-4611400D01*
X1104000Y-4561400D02*
X1204000Y-4561400D01*
D11*
X1569539Y-4652884D02*
X1455253Y-4652884D01*
X1512396Y-4652884D02*
X1512396Y-4452884D01*
X1512396Y-4452884D02*
X1493348Y-4481455D01*
X1493348Y-4481455D02*
X1474301Y-4500503D01*
X1474301Y-4500503D02*
X1455253Y-4510027D01*
X1655253Y-4633836D02*
X1664777Y-4643360D01*
X1664777Y-4643360D02*
X1655253Y-4652884D01*
X1655253Y-4652884D02*
X1645729Y-4643360D01*
X1645729Y-4643360D02*
X1655253Y-4633836D01*
X1655253Y-4633836D02*
X1655253Y-4652884D01*
X1788586Y-4452884D02*
X1807634Y-4452884D01*
X1807634Y-4452884D02*
X1826682Y-4462408D01*
X1826682Y-4462408D02*
X1836205Y-4471931D01*
X1836205Y-4471931D02*
X1845729Y-4490979D01*
X1845729Y-4490979D02*
X1855253Y-4529074D01*
X1855253Y-4529074D02*
X1855253Y-4576693D01*
X1855253Y-4576693D02*
X1845729Y-4614789D01*
X1845729Y-4614789D02*
X1836205Y-4633836D01*
X1836205Y-4633836D02*
X1826682Y-4643360D01*
X1826682Y-4643360D02*
X1807634Y-4652884D01*
X1807634Y-4652884D02*
X1788586Y-4652884D01*
X1788586Y-4652884D02*
X1769539Y-4643360D01*
X1769539Y-4643360D02*
X1760015Y-4633836D01*
X1760015Y-4633836D02*
X1750491Y-4614789D01*
X1750491Y-4614789D02*
X1740967Y-4576693D01*
X1740967Y-4576693D02*
X1740967Y-4529074D01*
X1740967Y-4529074D02*
X1750491Y-4490979D01*
X1750491Y-4490979D02*
X1760015Y-4471931D01*
X1760015Y-4471931D02*
X1769539Y-4462408D01*
X1769539Y-4462408D02*
X1788586Y-4452884D01*
X1979062Y-4452884D02*
X1998110Y-4452884D01*
X1998110Y-4452884D02*
X2017158Y-4462408D01*
X2017158Y-4462408D02*
X2026682Y-4471931D01*
X2026682Y-4471931D02*
X2036205Y-4490979D01*
X2036205Y-4490979D02*
X2045729Y-4529074D01*
X2045729Y-4529074D02*
X2045729Y-4576693D01*
X2045729Y-4576693D02*
X2036205Y-4614789D01*
X2036205Y-4614789D02*
X2026682Y-4633836D01*
X2026682Y-4633836D02*
X2017158Y-4643360D01*
X2017158Y-4643360D02*
X1998110Y-4652884D01*
X1998110Y-4652884D02*
X1979062Y-4652884D01*
X1979062Y-4652884D02*
X1960015Y-4643360D01*
X1960015Y-4643360D02*
X1950491Y-4633836D01*
X1950491Y-4633836D02*
X1940967Y-4614789D01*
X1940967Y-4614789D02*
X1931443Y-4576693D01*
X1931443Y-4576693D02*
X1931443Y-4529074D01*
X1931443Y-4529074D02*
X1940967Y-4490979D01*
X1940967Y-4490979D02*
X1950491Y-4471931D01*
X1950491Y-4471931D02*
X1960015Y-4462408D01*
X1960015Y-4462408D02*
X1979062Y-4452884D01*
X2169539Y-4452884D02*
X2188586Y-4452884D01*
X2188586Y-4452884D02*
X2207634Y-4462408D01*
X2207634Y-4462408D02*
X2217158Y-4471931D01*
X2217158Y-4471931D02*
X2226682Y-4490979D01*
X2226682Y-4490979D02*
X2236205Y-4529074D01*
X2236205Y-4529074D02*
X2236205Y-4576693D01*
X2236205Y-4576693D02*
X2226682Y-4614789D01*
X2226682Y-4614789D02*
X2217158Y-4633836D01*
X2217158Y-4633836D02*
X2207634Y-4643360D01*
X2207634Y-4643360D02*
X2188586Y-4652884D01*
X2188586Y-4652884D02*
X2169539Y-4652884D01*
X2169539Y-4652884D02*
X2150491Y-4643360D01*
X2150491Y-4643360D02*
X2140967Y-4633836D01*
X2140967Y-4633836D02*
X2131444Y-4614789D01*
X2131444Y-4614789D02*
X2121920Y-4576693D01*
X2121920Y-4576693D02*
X2121920Y-4529074D01*
X2121920Y-4529074D02*
X2131444Y-4490979D01*
X2131444Y-4490979D02*
X2140967Y-4471931D01*
X2140967Y-4471931D02*
X2150491Y-4462408D01*
X2150491Y-4462408D02*
X2169539Y-4452884D01*
X2321920Y-4652884D02*
X2321920Y-4519550D01*
X2321920Y-4538598D02*
X2331444Y-4529074D01*
X2331444Y-4529074D02*
X2350491Y-4519550D01*
X2350491Y-4519550D02*
X2379063Y-4519550D01*
X2379063Y-4519550D02*
X2398110Y-4529074D01*
X2398110Y-4529074D02*
X2407634Y-4548122D01*
X2407634Y-4548122D02*
X2407634Y-4652884D01*
X2407634Y-4548122D02*
X2417158Y-4529074D01*
X2417158Y-4529074D02*
X2436205Y-4519550D01*
X2436205Y-4519550D02*
X2464777Y-4519550D01*
X2464777Y-4519550D02*
X2483825Y-4529074D01*
X2483825Y-4529074D02*
X2493348Y-4548122D01*
X2493348Y-4548122D02*
X2493348Y-4652884D01*
X2588586Y-4652884D02*
X2588586Y-4519550D01*
X2588586Y-4538598D02*
X2598110Y-4529074D01*
X2598110Y-4529074D02*
X2617158Y-4519550D01*
X2617158Y-4519550D02*
X2645729Y-4519550D01*
X2645729Y-4519550D02*
X2664777Y-4529074D01*
X2664777Y-4529074D02*
X2674301Y-4548122D01*
X2674301Y-4548122D02*
X2674301Y-4652884D01*
X2674301Y-4548122D02*
X2683825Y-4529074D01*
X2683825Y-4529074D02*
X2702872Y-4519550D01*
X2702872Y-4519550D02*
X2731444Y-4519550D01*
X2731444Y-4519550D02*
X2750491Y-4529074D01*
X2750491Y-4529074D02*
X2760015Y-4548122D01*
X2760015Y-4548122D02*
X2760015Y-4652884D01*
X3150491Y-4443360D02*
X2979063Y-4700503D01*
X3407634Y-4452884D02*
X3426682Y-4452884D01*
X3426682Y-4452884D02*
X3445729Y-4462408D01*
X3445729Y-4462408D02*
X3455253Y-4471931D01*
X3455253Y-4471931D02*
X3464777Y-4490979D01*
X3464777Y-4490979D02*
X3474301Y-4529074D01*
X3474301Y-4529074D02*
X3474301Y-4576693D01*
X3474301Y-4576693D02*
X3464777Y-4614789D01*
X3464777Y-4614789D02*
X3455253Y-4633836D01*
X3455253Y-4633836D02*
X3445729Y-4643360D01*
X3445729Y-4643360D02*
X3426682Y-4652884D01*
X3426682Y-4652884D02*
X3407634Y-4652884D01*
X3407634Y-4652884D02*
X3388586Y-4643360D01*
X3388586Y-4643360D02*
X3379063Y-4633836D01*
X3379063Y-4633836D02*
X3369539Y-4614789D01*
X3369539Y-4614789D02*
X3360015Y-4576693D01*
X3360015Y-4576693D02*
X3360015Y-4529074D01*
X3360015Y-4529074D02*
X3369539Y-4490979D01*
X3369539Y-4490979D02*
X3379063Y-4471931D01*
X3379063Y-4471931D02*
X3388586Y-4462408D01*
X3388586Y-4462408D02*
X3407634Y-4452884D01*
X3560015Y-4633836D02*
X3569539Y-4643360D01*
X3569539Y-4643360D02*
X3560015Y-4652884D01*
X3560015Y-4652884D02*
X3550491Y-4643360D01*
X3550491Y-4643360D02*
X3560015Y-4633836D01*
X3560015Y-4633836D02*
X3560015Y-4652884D01*
X3693348Y-4452884D02*
X3712396Y-4452884D01*
X3712396Y-4452884D02*
X3731444Y-4462408D01*
X3731444Y-4462408D02*
X3740967Y-4471931D01*
X3740967Y-4471931D02*
X3750491Y-4490979D01*
X3750491Y-4490979D02*
X3760015Y-4529074D01*
X3760015Y-4529074D02*
X3760015Y-4576693D01*
X3760015Y-4576693D02*
X3750491Y-4614789D01*
X3750491Y-4614789D02*
X3740967Y-4633836D01*
X3740967Y-4633836D02*
X3731444Y-4643360D01*
X3731444Y-4643360D02*
X3712396Y-4652884D01*
X3712396Y-4652884D02*
X3693348Y-4652884D01*
X3693348Y-4652884D02*
X3674301Y-4643360D01*
X3674301Y-4643360D02*
X3664777Y-4633836D01*
X3664777Y-4633836D02*
X3655253Y-4614789D01*
X3655253Y-4614789D02*
X3645729Y-4576693D01*
X3645729Y-4576693D02*
X3645729Y-4529074D01*
X3645729Y-4529074D02*
X3655253Y-4490979D01*
X3655253Y-4490979D02*
X3664777Y-4471931D01*
X3664777Y-4471931D02*
X3674301Y-4462408D01*
X3674301Y-4462408D02*
X3693348Y-4452884D01*
X3826682Y-4452884D02*
X3950491Y-4452884D01*
X3950491Y-4452884D02*
X3883825Y-4529074D01*
X3883825Y-4529074D02*
X3912396Y-4529074D01*
X3912396Y-4529074D02*
X3931444Y-4538598D01*
X3931444Y-4538598D02*
X3940967Y-4548122D01*
X3940967Y-4548122D02*
X3950491Y-4567170D01*
X3950491Y-4567170D02*
X3950491Y-4614789D01*
X3950491Y-4614789D02*
X3940967Y-4633836D01*
X3940967Y-4633836D02*
X3931444Y-4643360D01*
X3931444Y-4643360D02*
X3912396Y-4652884D01*
X3912396Y-4652884D02*
X3855253Y-4652884D01*
X3855253Y-4652884D02*
X3836206Y-4643360D01*
X3836206Y-4643360D02*
X3826682Y-4633836D01*
X4045729Y-4652884D02*
X4083825Y-4652884D01*
X4083825Y-4652884D02*
X4102872Y-4643360D01*
X4102872Y-4643360D02*
X4112396Y-4633836D01*
X4112396Y-4633836D02*
X4131444Y-4605265D01*
X4131444Y-4605265D02*
X4140967Y-4567170D01*
X4140967Y-4567170D02*
X4140967Y-4490979D01*
X4140967Y-4490979D02*
X4131444Y-4471931D01*
X4131444Y-4471931D02*
X4121920Y-4462408D01*
X4121920Y-4462408D02*
X4102872Y-4452884D01*
X4102872Y-4452884D02*
X4064777Y-4452884D01*
X4064777Y-4452884D02*
X4045729Y-4462408D01*
X4045729Y-4462408D02*
X4036206Y-4471931D01*
X4036206Y-4471931D02*
X4026682Y-4490979D01*
X4026682Y-4490979D02*
X4026682Y-4538598D01*
X4026682Y-4538598D02*
X4036206Y-4557646D01*
X4036206Y-4557646D02*
X4045729Y-4567170D01*
X4045729Y-4567170D02*
X4064777Y-4576693D01*
X4064777Y-4576693D02*
X4102872Y-4576693D01*
X4102872Y-4576693D02*
X4121920Y-4567170D01*
X4121920Y-4567170D02*
X4131444Y-4557646D01*
X4131444Y-4557646D02*
X4140967Y-4538598D01*
X4312396Y-4519550D02*
X4312396Y-4652884D01*
X4264777Y-4443360D02*
X4217158Y-4586217D01*
X4217158Y-4586217D02*
X4340968Y-4586217D01*
X4407634Y-4452884D02*
X4407634Y-4490979D01*
X4483825Y-4452884D02*
X4483825Y-4490979D01*
X4779063Y-4729074D02*
X4769539Y-4719550D01*
X4769539Y-4719550D02*
X4750491Y-4690979D01*
X4750491Y-4690979D02*
X4740968Y-4671931D01*
X4740968Y-4671931D02*
X4731444Y-4643360D01*
X4731444Y-4643360D02*
X4721920Y-4595741D01*
X4721920Y-4595741D02*
X4721920Y-4557646D01*
X4721920Y-4557646D02*
X4731444Y-4510027D01*
X4731444Y-4510027D02*
X4740968Y-4481455D01*
X4740968Y-4481455D02*
X4750491Y-4462408D01*
X4750491Y-4462408D02*
X4769539Y-4433836D01*
X4769539Y-4433836D02*
X4779063Y-4424312D01*
X4950491Y-4452884D02*
X4855253Y-4452884D01*
X4855253Y-4452884D02*
X4845730Y-4548122D01*
X4845730Y-4548122D02*
X4855253Y-4538598D01*
X4855253Y-4538598D02*
X4874301Y-4529074D01*
X4874301Y-4529074D02*
X4921920Y-4529074D01*
X4921920Y-4529074D02*
X4940968Y-4538598D01*
X4940968Y-4538598D02*
X4950491Y-4548122D01*
X4950491Y-4548122D02*
X4960015Y-4567170D01*
X4960015Y-4567170D02*
X4960015Y-4614789D01*
X4960015Y-4614789D02*
X4950491Y-4633836D01*
X4950491Y-4633836D02*
X4940968Y-4643360D01*
X4940968Y-4643360D02*
X4921920Y-4652884D01*
X4921920Y-4652884D02*
X4874301Y-4652884D01*
X4874301Y-4652884D02*
X4855253Y-4643360D01*
X4855253Y-4643360D02*
X4845730Y-4633836D01*
X5198111Y-4652884D02*
X5198111Y-4452884D01*
X5283825Y-4652884D02*
X5283825Y-4548122D01*
X5283825Y-4548122D02*
X5274301Y-4529074D01*
X5274301Y-4529074D02*
X5255253Y-4519550D01*
X5255253Y-4519550D02*
X5226682Y-4519550D01*
X5226682Y-4519550D02*
X5207634Y-4529074D01*
X5207634Y-4529074D02*
X5198111Y-4538598D01*
X5407634Y-4652884D02*
X5388587Y-4643360D01*
X5388587Y-4643360D02*
X5379063Y-4633836D01*
X5379063Y-4633836D02*
X5369539Y-4614789D01*
X5369539Y-4614789D02*
X5369539Y-4557646D01*
X5369539Y-4557646D02*
X5379063Y-4538598D01*
X5379063Y-4538598D02*
X5388587Y-4529074D01*
X5388587Y-4529074D02*
X5407634Y-4519550D01*
X5407634Y-4519550D02*
X5436206Y-4519550D01*
X5436206Y-4519550D02*
X5455253Y-4529074D01*
X5455253Y-4529074D02*
X5464777Y-4538598D01*
X5464777Y-4538598D02*
X5474301Y-4557646D01*
X5474301Y-4557646D02*
X5474301Y-4614789D01*
X5474301Y-4614789D02*
X5464777Y-4633836D01*
X5464777Y-4633836D02*
X5455253Y-4643360D01*
X5455253Y-4643360D02*
X5436206Y-4652884D01*
X5436206Y-4652884D02*
X5407634Y-4652884D01*
X5588587Y-4652884D02*
X5569539Y-4643360D01*
X5569539Y-4643360D02*
X5560015Y-4624312D01*
X5560015Y-4624312D02*
X5560015Y-4452884D01*
X5740968Y-4643360D02*
X5721920Y-4652884D01*
X5721920Y-4652884D02*
X5683825Y-4652884D01*
X5683825Y-4652884D02*
X5664777Y-4643360D01*
X5664777Y-4643360D02*
X5655253Y-4624312D01*
X5655253Y-4624312D02*
X5655253Y-4548122D01*
X5655253Y-4548122D02*
X5664777Y-4529074D01*
X5664777Y-4529074D02*
X5683825Y-4519550D01*
X5683825Y-4519550D02*
X5721920Y-4519550D01*
X5721920Y-4519550D02*
X5740968Y-4529074D01*
X5740968Y-4529074D02*
X5750491Y-4548122D01*
X5750491Y-4548122D02*
X5750491Y-4567170D01*
X5750491Y-4567170D02*
X5655253Y-4586217D01*
X5826682Y-4643360D02*
X5845730Y-4652884D01*
X5845730Y-4652884D02*
X5883825Y-4652884D01*
X5883825Y-4652884D02*
X5902872Y-4643360D01*
X5902872Y-4643360D02*
X5912396Y-4624312D01*
X5912396Y-4624312D02*
X5912396Y-4614789D01*
X5912396Y-4614789D02*
X5902872Y-4595741D01*
X5902872Y-4595741D02*
X5883825Y-4586217D01*
X5883825Y-4586217D02*
X5855253Y-4586217D01*
X5855253Y-4586217D02*
X5836206Y-4576693D01*
X5836206Y-4576693D02*
X5826682Y-4557646D01*
X5826682Y-4557646D02*
X5826682Y-4548122D01*
X5826682Y-4548122D02*
X5836206Y-4529074D01*
X5836206Y-4529074D02*
X5855253Y-4519550D01*
X5855253Y-4519550D02*
X5883825Y-4519550D01*
X5883825Y-4519550D02*
X5902872Y-4529074D01*
X5979063Y-4729074D02*
X5988587Y-4719550D01*
X5988587Y-4719550D02*
X6007634Y-4690979D01*
X6007634Y-4690979D02*
X6017158Y-4671931D01*
X6017158Y-4671931D02*
X6026682Y-4643360D01*
X6026682Y-4643360D02*
X6036206Y-4595741D01*
X6036206Y-4595741D02*
X6036206Y-4557646D01*
X6036206Y-4557646D02*
X6026682Y-4510027D01*
X6026682Y-4510027D02*
X6017158Y-4481455D01*
X6017158Y-4481455D02*
X6007634Y-4462408D01*
X6007634Y-4462408D02*
X5988587Y-4433836D01*
X5988587Y-4433836D02*
X5979063Y-4424312D01*
M02*
