%TF.GenerationSoftware,KiCad,Pcbnew,9.0.2*%
%TF.CreationDate,2025-07-07T17:51:26-07:00*%
%TF.ProjectId,powerBoard,706f7765-7242-46f6-9172-642e6b696361,rev?*%
%TF.SameCoordinates,Original*%
%TF.FileFunction,Drillmap*%
%TF.FilePolarity,Positive*%
%FSLAX45Y45*%
G04 Gerber Fmt 4.5, Leading zero omitted, Abs format (unit mm)*
G04 Created by KiCad (PCBNEW 9.0.2) date 2025-07-07 17:51:26*
%MOMM*%
%LPD*%
G01*
G04 APERTURE LIST*
%ADD10C,0.050000*%
%ADD11C,0.200000*%
G04 APERTURE END LIST*
D10*
X8193100Y-7137400D02*
X1293800Y-7137400D01*
X8293100Y-1395400D02*
X8293100Y-7037400D01*
X8193100Y-1295400D02*
G75*
G02*
X8293100Y-1395400I0J-100000D01*
G01*
X8293100Y-7037400D02*
G75*
G02*
X8193100Y-7137400I-100000J0D01*
G01*
X1293800Y-7137400D02*
G75*
G02*
X1193800Y-7037400I0J100000D01*
G01*
X1293800Y-1295400D02*
X8193100Y-1295400D01*
X7362800Y-6752600D02*
G75*
G02*
X6962800Y-6752600I-200000J0D01*
G01*
X6962800Y-6752600D02*
G75*
G02*
X7362800Y-6752600I200000J0D01*
G01*
X7362800Y-1752600D02*
G75*
G02*
X6962800Y-1752600I-200000J0D01*
G01*
X6962800Y-1752600D02*
G75*
G02*
X7362800Y-1752600I200000J0D01*
G01*
X1193800Y-7037400D02*
X1193800Y-1395400D01*
X1862800Y-3652600D02*
G75*
G02*
X1462800Y-3652600I-200000J0D01*
G01*
X1462800Y-3652600D02*
G75*
G02*
X1862800Y-3652600I200000J0D01*
G01*
X1193800Y-1395400D02*
G75*
G02*
X1293800Y-1295400I100000J0D01*
G01*
D11*
X1452077Y-7451384D02*
X1452077Y-7251384D01*
X1452077Y-7251384D02*
X1499696Y-7251384D01*
X1499696Y-7251384D02*
X1528267Y-7260908D01*
X1528267Y-7260908D02*
X1547315Y-7279955D01*
X1547315Y-7279955D02*
X1556839Y-7299003D01*
X1556839Y-7299003D02*
X1566362Y-7337098D01*
X1566362Y-7337098D02*
X1566362Y-7365669D01*
X1566362Y-7365669D02*
X1556839Y-7403765D01*
X1556839Y-7403765D02*
X1547315Y-7422812D01*
X1547315Y-7422812D02*
X1528267Y-7441860D01*
X1528267Y-7441860D02*
X1499696Y-7451384D01*
X1499696Y-7451384D02*
X1452077Y-7451384D01*
X1652077Y-7451384D02*
X1652077Y-7318050D01*
X1652077Y-7356146D02*
X1661601Y-7337098D01*
X1661601Y-7337098D02*
X1671124Y-7327574D01*
X1671124Y-7327574D02*
X1690172Y-7318050D01*
X1690172Y-7318050D02*
X1709220Y-7318050D01*
X1775886Y-7451384D02*
X1775886Y-7318050D01*
X1775886Y-7251384D02*
X1766362Y-7260908D01*
X1766362Y-7260908D02*
X1775886Y-7270431D01*
X1775886Y-7270431D02*
X1785410Y-7260908D01*
X1785410Y-7260908D02*
X1775886Y-7251384D01*
X1775886Y-7251384D02*
X1775886Y-7270431D01*
X1899696Y-7451384D02*
X1880648Y-7441860D01*
X1880648Y-7441860D02*
X1871124Y-7422812D01*
X1871124Y-7422812D02*
X1871124Y-7251384D01*
X2004458Y-7451384D02*
X1985410Y-7441860D01*
X1985410Y-7441860D02*
X1975886Y-7422812D01*
X1975886Y-7422812D02*
X1975886Y-7251384D01*
X2233029Y-7451384D02*
X2233029Y-7251384D01*
X2233029Y-7251384D02*
X2299696Y-7394241D01*
X2299696Y-7394241D02*
X2366363Y-7251384D01*
X2366363Y-7251384D02*
X2366363Y-7451384D01*
X2547315Y-7451384D02*
X2547315Y-7346622D01*
X2547315Y-7346622D02*
X2537791Y-7327574D01*
X2537791Y-7327574D02*
X2518744Y-7318050D01*
X2518744Y-7318050D02*
X2480648Y-7318050D01*
X2480648Y-7318050D02*
X2461601Y-7327574D01*
X2547315Y-7441860D02*
X2528267Y-7451384D01*
X2528267Y-7451384D02*
X2480648Y-7451384D01*
X2480648Y-7451384D02*
X2461601Y-7441860D01*
X2461601Y-7441860D02*
X2452077Y-7422812D01*
X2452077Y-7422812D02*
X2452077Y-7403765D01*
X2452077Y-7403765D02*
X2461601Y-7384717D01*
X2461601Y-7384717D02*
X2480648Y-7375193D01*
X2480648Y-7375193D02*
X2528267Y-7375193D01*
X2528267Y-7375193D02*
X2547315Y-7365669D01*
X2642553Y-7318050D02*
X2642553Y-7518050D01*
X2642553Y-7327574D02*
X2661601Y-7318050D01*
X2661601Y-7318050D02*
X2699696Y-7318050D01*
X2699696Y-7318050D02*
X2718744Y-7327574D01*
X2718744Y-7327574D02*
X2728267Y-7337098D01*
X2728267Y-7337098D02*
X2737791Y-7356146D01*
X2737791Y-7356146D02*
X2737791Y-7413288D01*
X2737791Y-7413288D02*
X2728267Y-7432336D01*
X2728267Y-7432336D02*
X2718744Y-7441860D01*
X2718744Y-7441860D02*
X2699696Y-7451384D01*
X2699696Y-7451384D02*
X2661601Y-7451384D01*
X2661601Y-7451384D02*
X2642553Y-7441860D01*
X2823505Y-7432336D02*
X2833029Y-7441860D01*
X2833029Y-7441860D02*
X2823505Y-7451384D01*
X2823505Y-7451384D02*
X2813982Y-7441860D01*
X2813982Y-7441860D02*
X2823505Y-7432336D01*
X2823505Y-7432336D02*
X2823505Y-7451384D01*
X2823505Y-7327574D02*
X2833029Y-7337098D01*
X2833029Y-7337098D02*
X2823505Y-7346622D01*
X2823505Y-7346622D02*
X2813982Y-7337098D01*
X2813982Y-7337098D02*
X2823505Y-7327574D01*
X2823505Y-7327574D02*
X2823505Y-7346622D01*
M02*
