M48
; DRILL file {KiCad 9.0.2} date 2025-07-07T17:51:26-0700
; FORMAT={-:-/ absolute / metric / decimal}
; #@! TF.CreationDate,2025-07-07T17:51:26-07:00
; #@! TF.GenerationSoftware,Kicad,Pcbnew,9.0.2
; #@! TF.FileFunction,Plated,1,2,PTH
FMAT,2
METRIC
; #@! TA.AperFunction,Plated,PTH,ComponentDrill
T1C1.000
%
G90
G05
T1
X15.26Y-66.548
X17.76Y-66.548
X18.034Y-17.272
X18.034Y-19.772
X18.034Y-53.634
X18.034Y-56.134
X24.638Y-66.548
X25.756Y-39.345
X25.756Y-57.226
X25.806Y-16.154
X25.806Y-34.036
X27.138Y-66.548
X34.036Y-66.548
X36.536Y-66.548
X43.434Y-66.548
X45.934Y-66.548
X52.832Y-66.548
X55.332Y-66.548
X62.23Y-66.548
X64.73Y-66.548
X65.989Y-39.345
X65.989Y-57.226
X66.04Y-16.154
X66.04Y-34.036
X78.469Y-17.286
X78.469Y-19.786
X78.469Y-26.742
X78.469Y-29.242
X78.469Y-36.192
X78.469Y-38.692
X78.469Y-45.642
X78.469Y-48.142
X78.469Y-55.092
X78.469Y-57.592
X78.469Y-64.536
X78.469Y-67.036
M30
