%TF.GenerationSoftware,KiCad,Pcbnew,9.0.2*%
%TF.CreationDate,2025-07-07T17:51:17-07:00*%
%TF.ProjectId,powerBoard,706f7765-7242-46f6-9172-642e6b696361,rev?*%
%TF.SameCoordinates,Original*%
%TF.FileFunction,Legend,Top*%
%TF.FilePolarity,Positive*%
%FSLAX46Y46*%
G04 Gerber Fmt 4.6, Leading zero omitted, Abs format (unit mm)*
G04 Created by KiCad (PCBNEW 9.0.2) date 2025-07-07 17:51:17*
%MOMM*%
%LPD*%
G01*
G04 APERTURE LIST*
G04 Aperture macros list*
%AMRoundRect*
0 Rectangle with rounded corners*
0 $1 Rounding radius*
0 $2 $3 $4 $5 $6 $7 $8 $9 X,Y pos of 4 corners*
0 Add a 4 corners polygon primitive as box body*
4,1,4,$2,$3,$4,$5,$6,$7,$8,$9,$2,$3,0*
0 Add four circle primitives for the rounded corners*
1,1,$1+$1,$2,$3*
1,1,$1+$1,$4,$5*
1,1,$1+$1,$6,$7*
1,1,$1+$1,$8,$9*
0 Add four rect primitives between the rounded corners*
20,1,$1+$1,$2,$3,$4,$5,0*
20,1,$1+$1,$4,$5,$6,$7,0*
20,1,$1+$1,$6,$7,$8,$9,0*
20,1,$1+$1,$8,$9,$2,$3,0*%
G04 Aperture macros list end*
%ADD10C,0.200000*%
%ADD11C,0.300000*%
%ADD12C,0.400000*%
%ADD13C,0.120000*%
%ADD14O,2.000000X1.700000*%
%ADD15RoundRect,0.250000X0.750000X-0.600000X0.750000X0.600000X-0.750000X0.600000X-0.750000X-0.600000X0*%
%ADD16RoundRect,0.250000X-0.600000X-0.750000X0.600000X-0.750000X0.600000X0.750000X-0.600000X0.750000X0*%
%ADD17O,1.700000X2.000000*%
%ADD18RoundRect,0.250000X-0.750000X0.600000X-0.750000X-0.600000X0.750000X-0.600000X0.750000X0.600000X0*%
%ADD19RoundRect,0.147638X1.352362X-1.352362X1.352362X1.352362X-1.352362X1.352362X-1.352362X-1.352362X0*%
G04 APERTURE END LIST*
D10*
X33135673Y-61065409D02*
X33469006Y-61065409D01*
X33611863Y-61589219D02*
X33135673Y-61589219D01*
X33135673Y-61589219D02*
X33135673Y-60589219D01*
X33135673Y-60589219D02*
X33611863Y-60589219D01*
X33992816Y-61541600D02*
X34135673Y-61589219D01*
X34135673Y-61589219D02*
X34373768Y-61589219D01*
X34373768Y-61589219D02*
X34469006Y-61541600D01*
X34469006Y-61541600D02*
X34516625Y-61493980D01*
X34516625Y-61493980D02*
X34564244Y-61398742D01*
X34564244Y-61398742D02*
X34564244Y-61303504D01*
X34564244Y-61303504D02*
X34516625Y-61208266D01*
X34516625Y-61208266D02*
X34469006Y-61160647D01*
X34469006Y-61160647D02*
X34373768Y-61113028D01*
X34373768Y-61113028D02*
X34183292Y-61065409D01*
X34183292Y-61065409D02*
X34088054Y-61017790D01*
X34088054Y-61017790D02*
X34040435Y-60970171D01*
X34040435Y-60970171D02*
X33992816Y-60874933D01*
X33992816Y-60874933D02*
X33992816Y-60779695D01*
X33992816Y-60779695D02*
X34040435Y-60684457D01*
X34040435Y-60684457D02*
X34088054Y-60636838D01*
X34088054Y-60636838D02*
X34183292Y-60589219D01*
X34183292Y-60589219D02*
X34421387Y-60589219D01*
X34421387Y-60589219D02*
X34564244Y-60636838D01*
X34992816Y-61589219D02*
X34992816Y-60589219D01*
X34992816Y-60589219D02*
X35373768Y-60589219D01*
X35373768Y-60589219D02*
X35469006Y-60636838D01*
X35469006Y-60636838D02*
X35516625Y-60684457D01*
X35516625Y-60684457D02*
X35564244Y-60779695D01*
X35564244Y-60779695D02*
X35564244Y-60922552D01*
X35564244Y-60922552D02*
X35516625Y-61017790D01*
X35516625Y-61017790D02*
X35469006Y-61065409D01*
X35469006Y-61065409D02*
X35373768Y-61113028D01*
X35373768Y-61113028D02*
X34992816Y-61113028D01*
X35897578Y-60589219D02*
X36516625Y-60589219D01*
X36516625Y-60589219D02*
X36183292Y-60970171D01*
X36183292Y-60970171D02*
X36326149Y-60970171D01*
X36326149Y-60970171D02*
X36421387Y-61017790D01*
X36421387Y-61017790D02*
X36469006Y-61065409D01*
X36469006Y-61065409D02*
X36516625Y-61160647D01*
X36516625Y-61160647D02*
X36516625Y-61398742D01*
X36516625Y-61398742D02*
X36469006Y-61493980D01*
X36469006Y-61493980D02*
X36421387Y-61541600D01*
X36421387Y-61541600D02*
X36326149Y-61589219D01*
X36326149Y-61589219D02*
X36040435Y-61589219D01*
X36040435Y-61589219D02*
X35945197Y-61541600D01*
X35945197Y-61541600D02*
X35897578Y-61493980D01*
X36897578Y-60684457D02*
X36945197Y-60636838D01*
X36945197Y-60636838D02*
X37040435Y-60589219D01*
X37040435Y-60589219D02*
X37278530Y-60589219D01*
X37278530Y-60589219D02*
X37373768Y-60636838D01*
X37373768Y-60636838D02*
X37421387Y-60684457D01*
X37421387Y-60684457D02*
X37469006Y-60779695D01*
X37469006Y-60779695D02*
X37469006Y-60874933D01*
X37469006Y-60874933D02*
X37421387Y-61017790D01*
X37421387Y-61017790D02*
X36849959Y-61589219D01*
X36849959Y-61589219D02*
X37469006Y-61589219D01*
X12561673Y-61589219D02*
X12561673Y-60589219D01*
X12561673Y-61065409D02*
X13133101Y-61065409D01*
X13133101Y-61589219D02*
X13133101Y-60589219D01*
X13561673Y-61303504D02*
X14037863Y-61303504D01*
X13466435Y-61589219D02*
X13799768Y-60589219D01*
X13799768Y-60589219D02*
X14133101Y-61589219D01*
X14942625Y-61589219D02*
X14466435Y-61589219D01*
X14466435Y-61589219D02*
X14466435Y-60589219D01*
X15752149Y-61589219D02*
X15275959Y-61589219D01*
X15275959Y-61589219D02*
X15275959Y-60589219D01*
X16037864Y-61541600D02*
X16180721Y-61589219D01*
X16180721Y-61589219D02*
X16418816Y-61589219D01*
X16418816Y-61589219D02*
X16514054Y-61541600D01*
X16514054Y-61541600D02*
X16561673Y-61493980D01*
X16561673Y-61493980D02*
X16609292Y-61398742D01*
X16609292Y-61398742D02*
X16609292Y-61303504D01*
X16609292Y-61303504D02*
X16561673Y-61208266D01*
X16561673Y-61208266D02*
X16514054Y-61160647D01*
X16514054Y-61160647D02*
X16418816Y-61113028D01*
X16418816Y-61113028D02*
X16228340Y-61065409D01*
X16228340Y-61065409D02*
X16133102Y-61017790D01*
X16133102Y-61017790D02*
X16085483Y-60970171D01*
X16085483Y-60970171D02*
X16037864Y-60874933D01*
X16037864Y-60874933D02*
X16037864Y-60779695D01*
X16037864Y-60779695D02*
X16085483Y-60684457D01*
X16085483Y-60684457D02*
X16133102Y-60636838D01*
X16133102Y-60636838D02*
X16228340Y-60589219D01*
X16228340Y-60589219D02*
X16466435Y-60589219D01*
X16466435Y-60589219D02*
X16609292Y-60636838D01*
X17037864Y-61065409D02*
X17371197Y-61065409D01*
X17514054Y-61589219D02*
X17037864Y-61589219D01*
X17037864Y-61589219D02*
X17037864Y-60589219D01*
X17037864Y-60589219D02*
X17514054Y-60589219D01*
X17942626Y-61589219D02*
X17942626Y-60589219D01*
X17942626Y-60589219D02*
X18514054Y-61589219D01*
X18514054Y-61589219D02*
X18514054Y-60589219D01*
X18942626Y-61541600D02*
X19085483Y-61589219D01*
X19085483Y-61589219D02*
X19323578Y-61589219D01*
X19323578Y-61589219D02*
X19418816Y-61541600D01*
X19418816Y-61541600D02*
X19466435Y-61493980D01*
X19466435Y-61493980D02*
X19514054Y-61398742D01*
X19514054Y-61398742D02*
X19514054Y-61303504D01*
X19514054Y-61303504D02*
X19466435Y-61208266D01*
X19466435Y-61208266D02*
X19418816Y-61160647D01*
X19418816Y-61160647D02*
X19323578Y-61113028D01*
X19323578Y-61113028D02*
X19133102Y-61065409D01*
X19133102Y-61065409D02*
X19037864Y-61017790D01*
X19037864Y-61017790D02*
X18990245Y-60970171D01*
X18990245Y-60970171D02*
X18942626Y-60874933D01*
X18942626Y-60874933D02*
X18942626Y-60779695D01*
X18942626Y-60779695D02*
X18990245Y-60684457D01*
X18990245Y-60684457D02*
X19037864Y-60636838D01*
X19037864Y-60636838D02*
X19133102Y-60589219D01*
X19133102Y-60589219D02*
X19371197Y-60589219D01*
X19371197Y-60589219D02*
X19514054Y-60636838D01*
X19942626Y-61065409D02*
X20275959Y-61065409D01*
X20418816Y-61589219D02*
X19942626Y-61589219D01*
X19942626Y-61589219D02*
X19942626Y-60589219D01*
X19942626Y-60589219D02*
X20418816Y-60589219D01*
X60050101Y-62756790D02*
X59973911Y-62718695D01*
X59973911Y-62718695D02*
X59859625Y-62718695D01*
X59859625Y-62718695D02*
X59745339Y-62756790D01*
X59745339Y-62756790D02*
X59669149Y-62832980D01*
X59669149Y-62832980D02*
X59631054Y-62909171D01*
X59631054Y-62909171D02*
X59592958Y-63061552D01*
X59592958Y-63061552D02*
X59592958Y-63175838D01*
X59592958Y-63175838D02*
X59631054Y-63328219D01*
X59631054Y-63328219D02*
X59669149Y-63404409D01*
X59669149Y-63404409D02*
X59745339Y-63480600D01*
X59745339Y-63480600D02*
X59859625Y-63518695D01*
X59859625Y-63518695D02*
X59935816Y-63518695D01*
X59935816Y-63518695D02*
X60050101Y-63480600D01*
X60050101Y-63480600D02*
X60088197Y-63442504D01*
X60088197Y-63442504D02*
X60088197Y-63175838D01*
X60088197Y-63175838D02*
X59935816Y-63175838D01*
X60431054Y-63518695D02*
X60431054Y-62718695D01*
X60431054Y-62718695D02*
X60888197Y-63518695D01*
X60888197Y-63518695D02*
X60888197Y-62718695D01*
X61269149Y-63518695D02*
X61269149Y-62718695D01*
X61269149Y-62718695D02*
X61459625Y-62718695D01*
X61459625Y-62718695D02*
X61573911Y-62756790D01*
X61573911Y-62756790D02*
X61650101Y-62832980D01*
X61650101Y-62832980D02*
X61688196Y-62909171D01*
X61688196Y-62909171D02*
X61726292Y-63061552D01*
X61726292Y-63061552D02*
X61726292Y-63175838D01*
X61726292Y-63175838D02*
X61688196Y-63328219D01*
X61688196Y-63328219D02*
X61650101Y-63404409D01*
X61650101Y-63404409D02*
X61573911Y-63480600D01*
X61573911Y-63480600D02*
X61459625Y-63518695D01*
X61459625Y-63518695D02*
X61269149Y-63518695D01*
X64330054Y-63213933D02*
X64939578Y-63213933D01*
X64634816Y-63518695D02*
X64634816Y-62909171D01*
X65739577Y-63518695D02*
X65282434Y-63518695D01*
X65511006Y-63518695D02*
X65511006Y-62718695D01*
X65511006Y-62718695D02*
X65434815Y-62832980D01*
X65434815Y-62832980D02*
X65358625Y-62909171D01*
X65358625Y-62909171D02*
X65282434Y-62947266D01*
X66044339Y-62794885D02*
X66082435Y-62756790D01*
X66082435Y-62756790D02*
X66158625Y-62718695D01*
X66158625Y-62718695D02*
X66349101Y-62718695D01*
X66349101Y-62718695D02*
X66425292Y-62756790D01*
X66425292Y-62756790D02*
X66463387Y-62794885D01*
X66463387Y-62794885D02*
X66501482Y-62871076D01*
X66501482Y-62871076D02*
X66501482Y-62947266D01*
X66501482Y-62947266D02*
X66463387Y-63061552D01*
X66463387Y-63061552D02*
X66006244Y-63518695D01*
X66006244Y-63518695D02*
X66501482Y-63518695D01*
X66730054Y-62718695D02*
X66996721Y-63518695D01*
X66996721Y-63518695D02*
X67263387Y-62718695D01*
X54932054Y-63086933D02*
X55541578Y-63086933D01*
X55236816Y-63391695D02*
X55236816Y-62782171D01*
X56341577Y-63391695D02*
X55884434Y-63391695D01*
X56113006Y-63391695D02*
X56113006Y-62591695D01*
X56113006Y-62591695D02*
X56036815Y-62705980D01*
X56036815Y-62705980D02*
X55960625Y-62782171D01*
X55960625Y-62782171D02*
X55884434Y-62820266D01*
X56646339Y-62667885D02*
X56684435Y-62629790D01*
X56684435Y-62629790D02*
X56760625Y-62591695D01*
X56760625Y-62591695D02*
X56951101Y-62591695D01*
X56951101Y-62591695D02*
X57027292Y-62629790D01*
X57027292Y-62629790D02*
X57065387Y-62667885D01*
X57065387Y-62667885D02*
X57103482Y-62744076D01*
X57103482Y-62744076D02*
X57103482Y-62820266D01*
X57103482Y-62820266D02*
X57065387Y-62934552D01*
X57065387Y-62934552D02*
X56608244Y-63391695D01*
X56608244Y-63391695D02*
X57103482Y-63391695D01*
X57332054Y-62591695D02*
X57598721Y-63391695D01*
X57598721Y-63391695D02*
X57865387Y-62591695D01*
X18229054Y-63086933D02*
X18838578Y-63086933D01*
X18533816Y-63391695D02*
X18533816Y-62782171D01*
X19257625Y-63391695D02*
X19410006Y-63391695D01*
X19410006Y-63391695D02*
X19486196Y-63353600D01*
X19486196Y-63353600D02*
X19524292Y-63315504D01*
X19524292Y-63315504D02*
X19600482Y-63201219D01*
X19600482Y-63201219D02*
X19638577Y-63048838D01*
X19638577Y-63048838D02*
X19638577Y-62744076D01*
X19638577Y-62744076D02*
X19600482Y-62667885D01*
X19600482Y-62667885D02*
X19562387Y-62629790D01*
X19562387Y-62629790D02*
X19486196Y-62591695D01*
X19486196Y-62591695D02*
X19333815Y-62591695D01*
X19333815Y-62591695D02*
X19257625Y-62629790D01*
X19257625Y-62629790D02*
X19219530Y-62667885D01*
X19219530Y-62667885D02*
X19181434Y-62744076D01*
X19181434Y-62744076D02*
X19181434Y-62934552D01*
X19181434Y-62934552D02*
X19219530Y-63010742D01*
X19219530Y-63010742D02*
X19257625Y-63048838D01*
X19257625Y-63048838D02*
X19333815Y-63086933D01*
X19333815Y-63086933D02*
X19486196Y-63086933D01*
X19486196Y-63086933D02*
X19562387Y-63048838D01*
X19562387Y-63048838D02*
X19600482Y-63010742D01*
X19600482Y-63010742D02*
X19638577Y-62934552D01*
X19867149Y-62591695D02*
X20133816Y-63391695D01*
X20133816Y-63391695D02*
X20400482Y-62591695D01*
X27500054Y-63086933D02*
X28109578Y-63086933D01*
X27804816Y-63391695D02*
X27804816Y-62782171D01*
X28871482Y-62591695D02*
X28490530Y-62591695D01*
X28490530Y-62591695D02*
X28452434Y-62972647D01*
X28452434Y-62972647D02*
X28490530Y-62934552D01*
X28490530Y-62934552D02*
X28566720Y-62896457D01*
X28566720Y-62896457D02*
X28757196Y-62896457D01*
X28757196Y-62896457D02*
X28833387Y-62934552D01*
X28833387Y-62934552D02*
X28871482Y-62972647D01*
X28871482Y-62972647D02*
X28909577Y-63048838D01*
X28909577Y-63048838D02*
X28909577Y-63239314D01*
X28909577Y-63239314D02*
X28871482Y-63315504D01*
X28871482Y-63315504D02*
X28833387Y-63353600D01*
X28833387Y-63353600D02*
X28757196Y-63391695D01*
X28757196Y-63391695D02*
X28566720Y-63391695D01*
X28566720Y-63391695D02*
X28490530Y-63353600D01*
X28490530Y-63353600D02*
X28452434Y-63315504D01*
X29138149Y-62591695D02*
X29404816Y-63391695D01*
X29404816Y-63391695D02*
X29671482Y-62591695D01*
X36898054Y-63213933D02*
X37507578Y-63213933D01*
X37202816Y-63518695D02*
X37202816Y-62909171D01*
X38269482Y-62718695D02*
X37888530Y-62718695D01*
X37888530Y-62718695D02*
X37850434Y-63099647D01*
X37850434Y-63099647D02*
X37888530Y-63061552D01*
X37888530Y-63061552D02*
X37964720Y-63023457D01*
X37964720Y-63023457D02*
X38155196Y-63023457D01*
X38155196Y-63023457D02*
X38231387Y-63061552D01*
X38231387Y-63061552D02*
X38269482Y-63099647D01*
X38269482Y-63099647D02*
X38307577Y-63175838D01*
X38307577Y-63175838D02*
X38307577Y-63366314D01*
X38307577Y-63366314D02*
X38269482Y-63442504D01*
X38269482Y-63442504D02*
X38231387Y-63480600D01*
X38231387Y-63480600D02*
X38155196Y-63518695D01*
X38155196Y-63518695D02*
X37964720Y-63518695D01*
X37964720Y-63518695D02*
X37888530Y-63480600D01*
X37888530Y-63480600D02*
X37850434Y-63442504D01*
X38536149Y-62718695D02*
X38802816Y-63518695D01*
X38802816Y-63518695D02*
X39069482Y-62718695D01*
X46296054Y-63086933D02*
X46905578Y-63086933D01*
X46600816Y-63391695D02*
X46600816Y-62782171D01*
X47667482Y-62591695D02*
X47286530Y-62591695D01*
X47286530Y-62591695D02*
X47248434Y-62972647D01*
X47248434Y-62972647D02*
X47286530Y-62934552D01*
X47286530Y-62934552D02*
X47362720Y-62896457D01*
X47362720Y-62896457D02*
X47553196Y-62896457D01*
X47553196Y-62896457D02*
X47629387Y-62934552D01*
X47629387Y-62934552D02*
X47667482Y-62972647D01*
X47667482Y-62972647D02*
X47705577Y-63048838D01*
X47705577Y-63048838D02*
X47705577Y-63239314D01*
X47705577Y-63239314D02*
X47667482Y-63315504D01*
X47667482Y-63315504D02*
X47629387Y-63353600D01*
X47629387Y-63353600D02*
X47553196Y-63391695D01*
X47553196Y-63391695D02*
X47362720Y-63391695D01*
X47362720Y-63391695D02*
X47286530Y-63353600D01*
X47286530Y-63353600D02*
X47248434Y-63315504D01*
X47934149Y-62591695D02*
X48200816Y-63391695D01*
X48200816Y-63391695D02*
X48467482Y-62591695D01*
X75024933Y-16441945D02*
X75024933Y-15832422D01*
X75329695Y-16137183D02*
X74720171Y-16137183D01*
X74529695Y-15070517D02*
X74529695Y-15451469D01*
X74529695Y-15451469D02*
X74910647Y-15489565D01*
X74910647Y-15489565D02*
X74872552Y-15451469D01*
X74872552Y-15451469D02*
X74834457Y-15375279D01*
X74834457Y-15375279D02*
X74834457Y-15184803D01*
X74834457Y-15184803D02*
X74872552Y-15108612D01*
X74872552Y-15108612D02*
X74910647Y-15070517D01*
X74910647Y-15070517D02*
X74986838Y-15032422D01*
X74986838Y-15032422D02*
X75177314Y-15032422D01*
X75177314Y-15032422D02*
X75253504Y-15070517D01*
X75253504Y-15070517D02*
X75291600Y-15108612D01*
X75291600Y-15108612D02*
X75329695Y-15184803D01*
X75329695Y-15184803D02*
X75329695Y-15375279D01*
X75329695Y-15375279D02*
X75291600Y-15451469D01*
X75291600Y-15451469D02*
X75253504Y-15489565D01*
X74529695Y-14803850D02*
X75329695Y-14537183D01*
X75329695Y-14537183D02*
X74529695Y-14270517D01*
X75024933Y-25839945D02*
X75024933Y-25230422D01*
X75329695Y-25535183D02*
X74720171Y-25535183D01*
X74529695Y-24468517D02*
X74529695Y-24849469D01*
X74529695Y-24849469D02*
X74910647Y-24887565D01*
X74910647Y-24887565D02*
X74872552Y-24849469D01*
X74872552Y-24849469D02*
X74834457Y-24773279D01*
X74834457Y-24773279D02*
X74834457Y-24582803D01*
X74834457Y-24582803D02*
X74872552Y-24506612D01*
X74872552Y-24506612D02*
X74910647Y-24468517D01*
X74910647Y-24468517D02*
X74986838Y-24430422D01*
X74986838Y-24430422D02*
X75177314Y-24430422D01*
X75177314Y-24430422D02*
X75253504Y-24468517D01*
X75253504Y-24468517D02*
X75291600Y-24506612D01*
X75291600Y-24506612D02*
X75329695Y-24582803D01*
X75329695Y-24582803D02*
X75329695Y-24773279D01*
X75329695Y-24773279D02*
X75291600Y-24849469D01*
X75291600Y-24849469D02*
X75253504Y-24887565D01*
X74529695Y-24201850D02*
X75329695Y-23935183D01*
X75329695Y-23935183D02*
X74529695Y-23668517D01*
X75024933Y-35618945D02*
X75024933Y-35009422D01*
X75329695Y-35314183D02*
X74720171Y-35314183D01*
X74529695Y-34247517D02*
X74529695Y-34628469D01*
X74529695Y-34628469D02*
X74910647Y-34666565D01*
X74910647Y-34666565D02*
X74872552Y-34628469D01*
X74872552Y-34628469D02*
X74834457Y-34552279D01*
X74834457Y-34552279D02*
X74834457Y-34361803D01*
X74834457Y-34361803D02*
X74872552Y-34285612D01*
X74872552Y-34285612D02*
X74910647Y-34247517D01*
X74910647Y-34247517D02*
X74986838Y-34209422D01*
X74986838Y-34209422D02*
X75177314Y-34209422D01*
X75177314Y-34209422D02*
X75253504Y-34247517D01*
X75253504Y-34247517D02*
X75291600Y-34285612D01*
X75291600Y-34285612D02*
X75329695Y-34361803D01*
X75329695Y-34361803D02*
X75329695Y-34552279D01*
X75329695Y-34552279D02*
X75291600Y-34628469D01*
X75291600Y-34628469D02*
X75253504Y-34666565D01*
X74529695Y-33980850D02*
X75329695Y-33714183D01*
X75329695Y-33714183D02*
X74529695Y-33447517D01*
X75024933Y-45143945D02*
X75024933Y-44534422D01*
X75329695Y-44839183D02*
X74720171Y-44839183D01*
X74529695Y-43772517D02*
X74529695Y-44153469D01*
X74529695Y-44153469D02*
X74910647Y-44191565D01*
X74910647Y-44191565D02*
X74872552Y-44153469D01*
X74872552Y-44153469D02*
X74834457Y-44077279D01*
X74834457Y-44077279D02*
X74834457Y-43886803D01*
X74834457Y-43886803D02*
X74872552Y-43810612D01*
X74872552Y-43810612D02*
X74910647Y-43772517D01*
X74910647Y-43772517D02*
X74986838Y-43734422D01*
X74986838Y-43734422D02*
X75177314Y-43734422D01*
X75177314Y-43734422D02*
X75253504Y-43772517D01*
X75253504Y-43772517D02*
X75291600Y-43810612D01*
X75291600Y-43810612D02*
X75329695Y-43886803D01*
X75329695Y-43886803D02*
X75329695Y-44077279D01*
X75329695Y-44077279D02*
X75291600Y-44153469D01*
X75291600Y-44153469D02*
X75253504Y-44191565D01*
X74529695Y-43505850D02*
X75329695Y-43239183D01*
X75329695Y-43239183D02*
X74529695Y-42972517D01*
X75024933Y-54668945D02*
X75024933Y-54059422D01*
X75329695Y-54364183D02*
X74720171Y-54364183D01*
X74529695Y-53297517D02*
X74529695Y-53678469D01*
X74529695Y-53678469D02*
X74910647Y-53716565D01*
X74910647Y-53716565D02*
X74872552Y-53678469D01*
X74872552Y-53678469D02*
X74834457Y-53602279D01*
X74834457Y-53602279D02*
X74834457Y-53411803D01*
X74834457Y-53411803D02*
X74872552Y-53335612D01*
X74872552Y-53335612D02*
X74910647Y-53297517D01*
X74910647Y-53297517D02*
X74986838Y-53259422D01*
X74986838Y-53259422D02*
X75177314Y-53259422D01*
X75177314Y-53259422D02*
X75253504Y-53297517D01*
X75253504Y-53297517D02*
X75291600Y-53335612D01*
X75291600Y-53335612D02*
X75329695Y-53411803D01*
X75329695Y-53411803D02*
X75329695Y-53602279D01*
X75329695Y-53602279D02*
X75291600Y-53678469D01*
X75291600Y-53678469D02*
X75253504Y-53716565D01*
X74529695Y-53030850D02*
X75329695Y-52764183D01*
X75329695Y-52764183D02*
X74529695Y-52497517D01*
X74440790Y-50185898D02*
X74402695Y-50262088D01*
X74402695Y-50262088D02*
X74402695Y-50376374D01*
X74402695Y-50376374D02*
X74440790Y-50490660D01*
X74440790Y-50490660D02*
X74516980Y-50566850D01*
X74516980Y-50566850D02*
X74593171Y-50604945D01*
X74593171Y-50604945D02*
X74745552Y-50643041D01*
X74745552Y-50643041D02*
X74859838Y-50643041D01*
X74859838Y-50643041D02*
X75012219Y-50604945D01*
X75012219Y-50604945D02*
X75088409Y-50566850D01*
X75088409Y-50566850D02*
X75164600Y-50490660D01*
X75164600Y-50490660D02*
X75202695Y-50376374D01*
X75202695Y-50376374D02*
X75202695Y-50300183D01*
X75202695Y-50300183D02*
X75164600Y-50185898D01*
X75164600Y-50185898D02*
X75126504Y-50147802D01*
X75126504Y-50147802D02*
X74859838Y-50147802D01*
X74859838Y-50147802D02*
X74859838Y-50300183D01*
X75202695Y-49804945D02*
X74402695Y-49804945D01*
X74402695Y-49804945D02*
X75202695Y-49347802D01*
X75202695Y-49347802D02*
X74402695Y-49347802D01*
X75202695Y-48966850D02*
X74402695Y-48966850D01*
X74402695Y-48966850D02*
X74402695Y-48776374D01*
X74402695Y-48776374D02*
X74440790Y-48662088D01*
X74440790Y-48662088D02*
X74516980Y-48585898D01*
X74516980Y-48585898D02*
X74593171Y-48547803D01*
X74593171Y-48547803D02*
X74745552Y-48509707D01*
X74745552Y-48509707D02*
X74859838Y-48509707D01*
X74859838Y-48509707D02*
X75012219Y-48547803D01*
X75012219Y-48547803D02*
X75088409Y-48585898D01*
X75088409Y-48585898D02*
X75164600Y-48662088D01*
X75164600Y-48662088D02*
X75202695Y-48776374D01*
X75202695Y-48776374D02*
X75202695Y-48966850D01*
X74313790Y-69235898D02*
X74275695Y-69312088D01*
X74275695Y-69312088D02*
X74275695Y-69426374D01*
X74275695Y-69426374D02*
X74313790Y-69540660D01*
X74313790Y-69540660D02*
X74389980Y-69616850D01*
X74389980Y-69616850D02*
X74466171Y-69654945D01*
X74466171Y-69654945D02*
X74618552Y-69693041D01*
X74618552Y-69693041D02*
X74732838Y-69693041D01*
X74732838Y-69693041D02*
X74885219Y-69654945D01*
X74885219Y-69654945D02*
X74961409Y-69616850D01*
X74961409Y-69616850D02*
X75037600Y-69540660D01*
X75037600Y-69540660D02*
X75075695Y-69426374D01*
X75075695Y-69426374D02*
X75075695Y-69350183D01*
X75075695Y-69350183D02*
X75037600Y-69235898D01*
X75037600Y-69235898D02*
X74999504Y-69197802D01*
X74999504Y-69197802D02*
X74732838Y-69197802D01*
X74732838Y-69197802D02*
X74732838Y-69350183D01*
X75075695Y-68854945D02*
X74275695Y-68854945D01*
X74275695Y-68854945D02*
X75075695Y-68397802D01*
X75075695Y-68397802D02*
X74275695Y-68397802D01*
X75075695Y-68016850D02*
X74275695Y-68016850D01*
X74275695Y-68016850D02*
X74275695Y-67826374D01*
X74275695Y-67826374D02*
X74313790Y-67712088D01*
X74313790Y-67712088D02*
X74389980Y-67635898D01*
X74389980Y-67635898D02*
X74466171Y-67597803D01*
X74466171Y-67597803D02*
X74618552Y-67559707D01*
X74618552Y-67559707D02*
X74732838Y-67559707D01*
X74732838Y-67559707D02*
X74885219Y-67597803D01*
X74885219Y-67597803D02*
X74961409Y-67635898D01*
X74961409Y-67635898D02*
X75037600Y-67712088D01*
X75037600Y-67712088D02*
X75075695Y-67826374D01*
X75075695Y-67826374D02*
X75075695Y-68016850D01*
X74567790Y-40787898D02*
X74529695Y-40864088D01*
X74529695Y-40864088D02*
X74529695Y-40978374D01*
X74529695Y-40978374D02*
X74567790Y-41092660D01*
X74567790Y-41092660D02*
X74643980Y-41168850D01*
X74643980Y-41168850D02*
X74720171Y-41206945D01*
X74720171Y-41206945D02*
X74872552Y-41245041D01*
X74872552Y-41245041D02*
X74986838Y-41245041D01*
X74986838Y-41245041D02*
X75139219Y-41206945D01*
X75139219Y-41206945D02*
X75215409Y-41168850D01*
X75215409Y-41168850D02*
X75291600Y-41092660D01*
X75291600Y-41092660D02*
X75329695Y-40978374D01*
X75329695Y-40978374D02*
X75329695Y-40902183D01*
X75329695Y-40902183D02*
X75291600Y-40787898D01*
X75291600Y-40787898D02*
X75253504Y-40749802D01*
X75253504Y-40749802D02*
X74986838Y-40749802D01*
X74986838Y-40749802D02*
X74986838Y-40902183D01*
X75329695Y-40406945D02*
X74529695Y-40406945D01*
X74529695Y-40406945D02*
X75329695Y-39949802D01*
X75329695Y-39949802D02*
X74529695Y-39949802D01*
X75329695Y-39568850D02*
X74529695Y-39568850D01*
X74529695Y-39568850D02*
X74529695Y-39378374D01*
X74529695Y-39378374D02*
X74567790Y-39264088D01*
X74567790Y-39264088D02*
X74643980Y-39187898D01*
X74643980Y-39187898D02*
X74720171Y-39149803D01*
X74720171Y-39149803D02*
X74872552Y-39111707D01*
X74872552Y-39111707D02*
X74986838Y-39111707D01*
X74986838Y-39111707D02*
X75139219Y-39149803D01*
X75139219Y-39149803D02*
X75215409Y-39187898D01*
X75215409Y-39187898D02*
X75291600Y-39264088D01*
X75291600Y-39264088D02*
X75329695Y-39378374D01*
X75329695Y-39378374D02*
X75329695Y-39568850D01*
X74440790Y-59583898D02*
X74402695Y-59660088D01*
X74402695Y-59660088D02*
X74402695Y-59774374D01*
X74402695Y-59774374D02*
X74440790Y-59888660D01*
X74440790Y-59888660D02*
X74516980Y-59964850D01*
X74516980Y-59964850D02*
X74593171Y-60002945D01*
X74593171Y-60002945D02*
X74745552Y-60041041D01*
X74745552Y-60041041D02*
X74859838Y-60041041D01*
X74859838Y-60041041D02*
X75012219Y-60002945D01*
X75012219Y-60002945D02*
X75088409Y-59964850D01*
X75088409Y-59964850D02*
X75164600Y-59888660D01*
X75164600Y-59888660D02*
X75202695Y-59774374D01*
X75202695Y-59774374D02*
X75202695Y-59698183D01*
X75202695Y-59698183D02*
X75164600Y-59583898D01*
X75164600Y-59583898D02*
X75126504Y-59545802D01*
X75126504Y-59545802D02*
X74859838Y-59545802D01*
X74859838Y-59545802D02*
X74859838Y-59698183D01*
X75202695Y-59202945D02*
X74402695Y-59202945D01*
X74402695Y-59202945D02*
X75202695Y-58745802D01*
X75202695Y-58745802D02*
X74402695Y-58745802D01*
X75202695Y-58364850D02*
X74402695Y-58364850D01*
X74402695Y-58364850D02*
X74402695Y-58174374D01*
X74402695Y-58174374D02*
X74440790Y-58060088D01*
X74440790Y-58060088D02*
X74516980Y-57983898D01*
X74516980Y-57983898D02*
X74593171Y-57945803D01*
X74593171Y-57945803D02*
X74745552Y-57907707D01*
X74745552Y-57907707D02*
X74859838Y-57907707D01*
X74859838Y-57907707D02*
X75012219Y-57945803D01*
X75012219Y-57945803D02*
X75088409Y-57983898D01*
X75088409Y-57983898D02*
X75164600Y-58060088D01*
X75164600Y-58060088D02*
X75202695Y-58174374D01*
X75202695Y-58174374D02*
X75202695Y-58364850D01*
X74897933Y-64193945D02*
X74897933Y-63584422D01*
X75202695Y-63889183D02*
X74593171Y-63889183D01*
X74402695Y-62822517D02*
X74402695Y-63203469D01*
X74402695Y-63203469D02*
X74783647Y-63241565D01*
X74783647Y-63241565D02*
X74745552Y-63203469D01*
X74745552Y-63203469D02*
X74707457Y-63127279D01*
X74707457Y-63127279D02*
X74707457Y-62936803D01*
X74707457Y-62936803D02*
X74745552Y-62860612D01*
X74745552Y-62860612D02*
X74783647Y-62822517D01*
X74783647Y-62822517D02*
X74859838Y-62784422D01*
X74859838Y-62784422D02*
X75050314Y-62784422D01*
X75050314Y-62784422D02*
X75126504Y-62822517D01*
X75126504Y-62822517D02*
X75164600Y-62860612D01*
X75164600Y-62860612D02*
X75202695Y-62936803D01*
X75202695Y-62936803D02*
X75202695Y-63127279D01*
X75202695Y-63127279D02*
X75164600Y-63203469D01*
X75164600Y-63203469D02*
X75126504Y-63241565D01*
X74402695Y-62555850D02*
X75202695Y-62289183D01*
X75202695Y-62289183D02*
X74402695Y-62022517D01*
X13060101Y-62756790D02*
X12983911Y-62718695D01*
X12983911Y-62718695D02*
X12869625Y-62718695D01*
X12869625Y-62718695D02*
X12755339Y-62756790D01*
X12755339Y-62756790D02*
X12679149Y-62832980D01*
X12679149Y-62832980D02*
X12641054Y-62909171D01*
X12641054Y-62909171D02*
X12602958Y-63061552D01*
X12602958Y-63061552D02*
X12602958Y-63175838D01*
X12602958Y-63175838D02*
X12641054Y-63328219D01*
X12641054Y-63328219D02*
X12679149Y-63404409D01*
X12679149Y-63404409D02*
X12755339Y-63480600D01*
X12755339Y-63480600D02*
X12869625Y-63518695D01*
X12869625Y-63518695D02*
X12945816Y-63518695D01*
X12945816Y-63518695D02*
X13060101Y-63480600D01*
X13060101Y-63480600D02*
X13098197Y-63442504D01*
X13098197Y-63442504D02*
X13098197Y-63175838D01*
X13098197Y-63175838D02*
X12945816Y-63175838D01*
X13441054Y-63518695D02*
X13441054Y-62718695D01*
X13441054Y-62718695D02*
X13898197Y-63518695D01*
X13898197Y-63518695D02*
X13898197Y-62718695D01*
X14279149Y-63518695D02*
X14279149Y-62718695D01*
X14279149Y-62718695D02*
X14469625Y-62718695D01*
X14469625Y-62718695D02*
X14583911Y-62756790D01*
X14583911Y-62756790D02*
X14660101Y-62832980D01*
X14660101Y-62832980D02*
X14698196Y-62909171D01*
X14698196Y-62909171D02*
X14736292Y-63061552D01*
X14736292Y-63061552D02*
X14736292Y-63175838D01*
X14736292Y-63175838D02*
X14698196Y-63328219D01*
X14698196Y-63328219D02*
X14660101Y-63404409D01*
X14660101Y-63404409D02*
X14583911Y-63480600D01*
X14583911Y-63480600D02*
X14469625Y-63518695D01*
X14469625Y-63518695D02*
X14279149Y-63518695D01*
X72644000Y-36004500D02*
X73279000Y-35242500D01*
X74567790Y-31643898D02*
X74529695Y-31720088D01*
X74529695Y-31720088D02*
X74529695Y-31834374D01*
X74529695Y-31834374D02*
X74567790Y-31948660D01*
X74567790Y-31948660D02*
X74643980Y-32024850D01*
X74643980Y-32024850D02*
X74720171Y-32062945D01*
X74720171Y-32062945D02*
X74872552Y-32101041D01*
X74872552Y-32101041D02*
X74986838Y-32101041D01*
X74986838Y-32101041D02*
X75139219Y-32062945D01*
X75139219Y-32062945D02*
X75215409Y-32024850D01*
X75215409Y-32024850D02*
X75291600Y-31948660D01*
X75291600Y-31948660D02*
X75329695Y-31834374D01*
X75329695Y-31834374D02*
X75329695Y-31758183D01*
X75329695Y-31758183D02*
X75291600Y-31643898D01*
X75291600Y-31643898D02*
X75253504Y-31605802D01*
X75253504Y-31605802D02*
X74986838Y-31605802D01*
X74986838Y-31605802D02*
X74986838Y-31758183D01*
X75329695Y-31262945D02*
X74529695Y-31262945D01*
X74529695Y-31262945D02*
X75329695Y-30805802D01*
X75329695Y-30805802D02*
X74529695Y-30805802D01*
X75329695Y-30424850D02*
X74529695Y-30424850D01*
X74529695Y-30424850D02*
X74529695Y-30234374D01*
X74529695Y-30234374D02*
X74567790Y-30120088D01*
X74567790Y-30120088D02*
X74643980Y-30043898D01*
X74643980Y-30043898D02*
X74720171Y-30005803D01*
X74720171Y-30005803D02*
X74872552Y-29967707D01*
X74872552Y-29967707D02*
X74986838Y-29967707D01*
X74986838Y-29967707D02*
X75139219Y-30005803D01*
X75139219Y-30005803D02*
X75215409Y-30043898D01*
X75215409Y-30043898D02*
X75291600Y-30120088D01*
X75291600Y-30120088D02*
X75329695Y-30234374D01*
X75329695Y-30234374D02*
X75329695Y-30424850D01*
X72644000Y-20891500D02*
X72644000Y-36004500D01*
X71921600Y-33231350D02*
X71978742Y-33059922D01*
X71978742Y-33059922D02*
X71978742Y-32774207D01*
X71978742Y-32774207D02*
X71921600Y-32659922D01*
X71921600Y-32659922D02*
X71864457Y-32602779D01*
X71864457Y-32602779D02*
X71750171Y-32545636D01*
X71750171Y-32545636D02*
X71635885Y-32545636D01*
X71635885Y-32545636D02*
X71521600Y-32602779D01*
X71521600Y-32602779D02*
X71464457Y-32659922D01*
X71464457Y-32659922D02*
X71407314Y-32774207D01*
X71407314Y-32774207D02*
X71350171Y-33002779D01*
X71350171Y-33002779D02*
X71293028Y-33117064D01*
X71293028Y-33117064D02*
X71235885Y-33174207D01*
X71235885Y-33174207D02*
X71121600Y-33231350D01*
X71121600Y-33231350D02*
X71007314Y-33231350D01*
X71007314Y-33231350D02*
X70893028Y-33174207D01*
X70893028Y-33174207D02*
X70835885Y-33117064D01*
X70835885Y-33117064D02*
X70778742Y-33002779D01*
X70778742Y-33002779D02*
X70778742Y-32717064D01*
X70778742Y-32717064D02*
X70835885Y-32545636D01*
X70778742Y-32145636D02*
X71978742Y-31859922D01*
X71978742Y-31859922D02*
X71121600Y-31631350D01*
X71121600Y-31631350D02*
X71978742Y-31402779D01*
X71978742Y-31402779D02*
X70778742Y-31117065D01*
X71978742Y-30659921D02*
X70778742Y-30659921D01*
X70778742Y-30259921D02*
X70778742Y-29574207D01*
X71978742Y-29917064D02*
X70778742Y-29917064D01*
X71864457Y-28488492D02*
X71921600Y-28545635D01*
X71921600Y-28545635D02*
X71978742Y-28717063D01*
X71978742Y-28717063D02*
X71978742Y-28831349D01*
X71978742Y-28831349D02*
X71921600Y-29002778D01*
X71921600Y-29002778D02*
X71807314Y-29117063D01*
X71807314Y-29117063D02*
X71693028Y-29174206D01*
X71693028Y-29174206D02*
X71464457Y-29231349D01*
X71464457Y-29231349D02*
X71293028Y-29231349D01*
X71293028Y-29231349D02*
X71064457Y-29174206D01*
X71064457Y-29174206D02*
X70950171Y-29117063D01*
X70950171Y-29117063D02*
X70835885Y-29002778D01*
X70835885Y-29002778D02*
X70778742Y-28831349D01*
X70778742Y-28831349D02*
X70778742Y-28717063D01*
X70778742Y-28717063D02*
X70835885Y-28545635D01*
X70835885Y-28545635D02*
X70893028Y-28488492D01*
X71978742Y-27974206D02*
X70778742Y-27974206D01*
X71350171Y-27974206D02*
X71350171Y-27288492D01*
X71978742Y-27288492D02*
X70778742Y-27288492D01*
X71350171Y-26717063D02*
X71350171Y-26317063D01*
X71978742Y-26145635D02*
X71978742Y-26717063D01*
X71978742Y-26717063D02*
X70778742Y-26717063D01*
X70778742Y-26717063D02*
X70778742Y-26145635D01*
X71921600Y-25688492D02*
X71978742Y-25517064D01*
X71978742Y-25517064D02*
X71978742Y-25231349D01*
X71978742Y-25231349D02*
X71921600Y-25117064D01*
X71921600Y-25117064D02*
X71864457Y-25059921D01*
X71864457Y-25059921D02*
X71750171Y-25002778D01*
X71750171Y-25002778D02*
X71635885Y-25002778D01*
X71635885Y-25002778D02*
X71521600Y-25059921D01*
X71521600Y-25059921D02*
X71464457Y-25117064D01*
X71464457Y-25117064D02*
X71407314Y-25231349D01*
X71407314Y-25231349D02*
X71350171Y-25459921D01*
X71350171Y-25459921D02*
X71293028Y-25574206D01*
X71293028Y-25574206D02*
X71235885Y-25631349D01*
X71235885Y-25631349D02*
X71121600Y-25688492D01*
X71121600Y-25688492D02*
X71007314Y-25688492D01*
X71007314Y-25688492D02*
X70893028Y-25631349D01*
X70893028Y-25631349D02*
X70835885Y-25574206D01*
X70835885Y-25574206D02*
X70778742Y-25459921D01*
X70778742Y-25459921D02*
X70778742Y-25174206D01*
X70778742Y-25174206D02*
X70835885Y-25002778D01*
X74567790Y-22118898D02*
X74529695Y-22195088D01*
X74529695Y-22195088D02*
X74529695Y-22309374D01*
X74529695Y-22309374D02*
X74567790Y-22423660D01*
X74567790Y-22423660D02*
X74643980Y-22499850D01*
X74643980Y-22499850D02*
X74720171Y-22537945D01*
X74720171Y-22537945D02*
X74872552Y-22576041D01*
X74872552Y-22576041D02*
X74986838Y-22576041D01*
X74986838Y-22576041D02*
X75139219Y-22537945D01*
X75139219Y-22537945D02*
X75215409Y-22499850D01*
X75215409Y-22499850D02*
X75291600Y-22423660D01*
X75291600Y-22423660D02*
X75329695Y-22309374D01*
X75329695Y-22309374D02*
X75329695Y-22233183D01*
X75329695Y-22233183D02*
X75291600Y-22118898D01*
X75291600Y-22118898D02*
X75253504Y-22080802D01*
X75253504Y-22080802D02*
X74986838Y-22080802D01*
X74986838Y-22080802D02*
X74986838Y-22233183D01*
X75329695Y-21737945D02*
X74529695Y-21737945D01*
X74529695Y-21737945D02*
X75329695Y-21280802D01*
X75329695Y-21280802D02*
X74529695Y-21280802D01*
X75329695Y-20899850D02*
X74529695Y-20899850D01*
X74529695Y-20899850D02*
X74529695Y-20709374D01*
X74529695Y-20709374D02*
X74567790Y-20595088D01*
X74567790Y-20595088D02*
X74643980Y-20518898D01*
X74643980Y-20518898D02*
X74720171Y-20480803D01*
X74720171Y-20480803D02*
X74872552Y-20442707D01*
X74872552Y-20442707D02*
X74986838Y-20442707D01*
X74986838Y-20442707D02*
X75139219Y-20480803D01*
X75139219Y-20480803D02*
X75215409Y-20518898D01*
X75215409Y-20518898D02*
X75291600Y-20595088D01*
X75291600Y-20595088D02*
X75329695Y-20709374D01*
X75329695Y-20709374D02*
X75329695Y-20899850D01*
X72644000Y-36004500D02*
X72009000Y-35242500D01*
X15367000Y-24257000D02*
X13589000Y-25146000D01*
X21590000Y-31750000D02*
X22098000Y-32512000D01*
X46634400Y-50800000D02*
X45872400Y-50292000D01*
X21590000Y-41656000D02*
X22098000Y-40894000D01*
X44577000Y-27940000D02*
X46355000Y-27940000D01*
X21590000Y-41656000D02*
X21082000Y-40894000D01*
X21590000Y-33528000D02*
X21590000Y-31750000D01*
X16129000Y-23431500D02*
X22352000Y-23431500D01*
X22352000Y-31178500D01*
X16129000Y-31178500D01*
X16129000Y-23431500D01*
X21590000Y-39878000D02*
X21590000Y-41656000D01*
X16256000Y-42291000D02*
X22479000Y-42291000D01*
X22479000Y-50038000D01*
X16256000Y-50038000D01*
X16256000Y-42291000D01*
X44856400Y-50800000D02*
X46634400Y-50800000D01*
X15367000Y-43116500D02*
X15367000Y-44894500D01*
X21590000Y-31750000D02*
X21082000Y-32512000D01*
X15367000Y-44894500D02*
X13589000Y-44005500D01*
X46634400Y-50800000D02*
X45872400Y-51308000D01*
X16129000Y-27305000D02*
X16169000Y-27305000D01*
X16969000Y-27305000D02*
X17009000Y-27305000D01*
X17809000Y-27305000D02*
X17849000Y-27305000D01*
X18649000Y-27305000D02*
X18689000Y-27305000D01*
X19489000Y-27305000D02*
X19529000Y-27305000D01*
X20329000Y-27305000D02*
X20369000Y-27305000D01*
X21169000Y-27305000D02*
X21209000Y-27305000D01*
X22009000Y-27305000D02*
X22049000Y-27305000D01*
X16256000Y-46164500D02*
X16296000Y-46164500D01*
X17096000Y-46164500D02*
X17136000Y-46164500D01*
X17936000Y-46164500D02*
X17976000Y-46164500D01*
X18776000Y-46164500D02*
X18816000Y-46164500D01*
X19616000Y-46164500D02*
X19656000Y-46164500D01*
X20456000Y-46164500D02*
X20496000Y-46164500D01*
X21296000Y-46164500D02*
X21336000Y-46164500D01*
X22136000Y-46164500D02*
X22176000Y-46164500D01*
X15367000Y-26035000D02*
X13589000Y-25146000D01*
X46355000Y-27940000D02*
X45593000Y-28448000D01*
X15367000Y-24257000D02*
X15367000Y-26035000D01*
X46355000Y-27940000D02*
X45593000Y-27432000D01*
X15367000Y-43116500D02*
X13589000Y-44005500D01*
X50652101Y-62756790D02*
X50575911Y-62718695D01*
X50575911Y-62718695D02*
X50461625Y-62718695D01*
X50461625Y-62718695D02*
X50347339Y-62756790D01*
X50347339Y-62756790D02*
X50271149Y-62832980D01*
X50271149Y-62832980D02*
X50233054Y-62909171D01*
X50233054Y-62909171D02*
X50194958Y-63061552D01*
X50194958Y-63061552D02*
X50194958Y-63175838D01*
X50194958Y-63175838D02*
X50233054Y-63328219D01*
X50233054Y-63328219D02*
X50271149Y-63404409D01*
X50271149Y-63404409D02*
X50347339Y-63480600D01*
X50347339Y-63480600D02*
X50461625Y-63518695D01*
X50461625Y-63518695D02*
X50537816Y-63518695D01*
X50537816Y-63518695D02*
X50652101Y-63480600D01*
X50652101Y-63480600D02*
X50690197Y-63442504D01*
X50690197Y-63442504D02*
X50690197Y-63175838D01*
X50690197Y-63175838D02*
X50537816Y-63175838D01*
X51033054Y-63518695D02*
X51033054Y-62718695D01*
X51033054Y-62718695D02*
X51490197Y-63518695D01*
X51490197Y-63518695D02*
X51490197Y-62718695D01*
X51871149Y-63518695D02*
X51871149Y-62718695D01*
X51871149Y-62718695D02*
X52061625Y-62718695D01*
X52061625Y-62718695D02*
X52175911Y-62756790D01*
X52175911Y-62756790D02*
X52252101Y-62832980D01*
X52252101Y-62832980D02*
X52290196Y-62909171D01*
X52290196Y-62909171D02*
X52328292Y-63061552D01*
X52328292Y-63061552D02*
X52328292Y-63175838D01*
X52328292Y-63175838D02*
X52290196Y-63328219D01*
X52290196Y-63328219D02*
X52252101Y-63404409D01*
X52252101Y-63404409D02*
X52175911Y-63480600D01*
X52175911Y-63480600D02*
X52061625Y-63518695D01*
X52061625Y-63518695D02*
X51871149Y-63518695D01*
D11*
X70537912Y-44993286D02*
X69037912Y-44993286D01*
X69037912Y-44993286D02*
X69037912Y-44421857D01*
X69037912Y-44421857D02*
X69109341Y-44279000D01*
X69109341Y-44279000D02*
X69180769Y-44207571D01*
X69180769Y-44207571D02*
X69323626Y-44136143D01*
X69323626Y-44136143D02*
X69537912Y-44136143D01*
X69537912Y-44136143D02*
X69680769Y-44207571D01*
X69680769Y-44207571D02*
X69752198Y-44279000D01*
X69752198Y-44279000D02*
X69823626Y-44421857D01*
X69823626Y-44421857D02*
X69823626Y-44993286D01*
X69037912Y-43207571D02*
X69037912Y-42921857D01*
X69037912Y-42921857D02*
X69109341Y-42779000D01*
X69109341Y-42779000D02*
X69252198Y-42636143D01*
X69252198Y-42636143D02*
X69537912Y-42564714D01*
X69537912Y-42564714D02*
X70037912Y-42564714D01*
X70037912Y-42564714D02*
X70323626Y-42636143D01*
X70323626Y-42636143D02*
X70466484Y-42779000D01*
X70466484Y-42779000D02*
X70537912Y-42921857D01*
X70537912Y-42921857D02*
X70537912Y-43207571D01*
X70537912Y-43207571D02*
X70466484Y-43350429D01*
X70466484Y-43350429D02*
X70323626Y-43493286D01*
X70323626Y-43493286D02*
X70037912Y-43564714D01*
X70037912Y-43564714D02*
X69537912Y-43564714D01*
X69537912Y-43564714D02*
X69252198Y-43493286D01*
X69252198Y-43493286D02*
X69109341Y-43350429D01*
X69109341Y-43350429D02*
X69037912Y-43207571D01*
X69037912Y-42064714D02*
X70537912Y-41707571D01*
X70537912Y-41707571D02*
X69466484Y-41421857D01*
X69466484Y-41421857D02*
X70537912Y-41136142D01*
X70537912Y-41136142D02*
X69037912Y-40779000D01*
X69752198Y-40207571D02*
X69752198Y-39707571D01*
X70537912Y-39493285D02*
X70537912Y-40207571D01*
X70537912Y-40207571D02*
X69037912Y-40207571D01*
X69037912Y-40207571D02*
X69037912Y-39493285D01*
X70537912Y-37993285D02*
X69823626Y-38493285D01*
X70537912Y-38850428D02*
X69037912Y-38850428D01*
X69037912Y-38850428D02*
X69037912Y-38278999D01*
X69037912Y-38278999D02*
X69109341Y-38136142D01*
X69109341Y-38136142D02*
X69180769Y-38064713D01*
X69180769Y-38064713D02*
X69323626Y-37993285D01*
X69323626Y-37993285D02*
X69537912Y-37993285D01*
X69537912Y-37993285D02*
X69680769Y-38064713D01*
X69680769Y-38064713D02*
X69752198Y-38136142D01*
X69752198Y-38136142D02*
X69823626Y-38278999D01*
X69823626Y-38278999D02*
X69823626Y-38850428D01*
X72167114Y-44350428D02*
X72238542Y-44136142D01*
X72238542Y-44136142D02*
X72309971Y-44064713D01*
X72309971Y-44064713D02*
X72452828Y-43993285D01*
X72452828Y-43993285D02*
X72667114Y-43993285D01*
X72667114Y-43993285D02*
X72809971Y-44064713D01*
X72809971Y-44064713D02*
X72881400Y-44136142D01*
X72881400Y-44136142D02*
X72952828Y-44278999D01*
X72952828Y-44278999D02*
X72952828Y-44850428D01*
X72952828Y-44850428D02*
X71452828Y-44850428D01*
X71452828Y-44850428D02*
X71452828Y-44350428D01*
X71452828Y-44350428D02*
X71524257Y-44207571D01*
X71524257Y-44207571D02*
X71595685Y-44136142D01*
X71595685Y-44136142D02*
X71738542Y-44064713D01*
X71738542Y-44064713D02*
X71881400Y-44064713D01*
X71881400Y-44064713D02*
X72024257Y-44136142D01*
X72024257Y-44136142D02*
X72095685Y-44207571D01*
X72095685Y-44207571D02*
X72167114Y-44350428D01*
X72167114Y-44350428D02*
X72167114Y-44850428D01*
X71452828Y-43064713D02*
X71452828Y-42778999D01*
X71452828Y-42778999D02*
X71524257Y-42636142D01*
X71524257Y-42636142D02*
X71667114Y-42493285D01*
X71667114Y-42493285D02*
X71952828Y-42421856D01*
X71952828Y-42421856D02*
X72452828Y-42421856D01*
X72452828Y-42421856D02*
X72738542Y-42493285D01*
X72738542Y-42493285D02*
X72881400Y-42636142D01*
X72881400Y-42636142D02*
X72952828Y-42778999D01*
X72952828Y-42778999D02*
X72952828Y-43064713D01*
X72952828Y-43064713D02*
X72881400Y-43207571D01*
X72881400Y-43207571D02*
X72738542Y-43350428D01*
X72738542Y-43350428D02*
X72452828Y-43421856D01*
X72452828Y-43421856D02*
X71952828Y-43421856D01*
X71952828Y-43421856D02*
X71667114Y-43350428D01*
X71667114Y-43350428D02*
X71524257Y-43207571D01*
X71524257Y-43207571D02*
X71452828Y-43064713D01*
X72524257Y-41850427D02*
X72524257Y-41136142D01*
X72952828Y-41993284D02*
X71452828Y-41493284D01*
X71452828Y-41493284D02*
X72952828Y-40993284D01*
X72952828Y-39636142D02*
X72238542Y-40136142D01*
X72952828Y-40493285D02*
X71452828Y-40493285D01*
X71452828Y-40493285D02*
X71452828Y-39921856D01*
X71452828Y-39921856D02*
X71524257Y-39778999D01*
X71524257Y-39778999D02*
X71595685Y-39707570D01*
X71595685Y-39707570D02*
X71738542Y-39636142D01*
X71738542Y-39636142D02*
X71952828Y-39636142D01*
X71952828Y-39636142D02*
X72095685Y-39707570D01*
X72095685Y-39707570D02*
X72167114Y-39778999D01*
X72167114Y-39778999D02*
X72238542Y-39921856D01*
X72238542Y-39921856D02*
X72238542Y-40493285D01*
X72952828Y-38993285D02*
X71452828Y-38993285D01*
X71452828Y-38993285D02*
X71452828Y-38636142D01*
X71452828Y-38636142D02*
X71524257Y-38421856D01*
X71524257Y-38421856D02*
X71667114Y-38278999D01*
X71667114Y-38278999D02*
X71809971Y-38207570D01*
X71809971Y-38207570D02*
X72095685Y-38136142D01*
X72095685Y-38136142D02*
X72309971Y-38136142D01*
X72309971Y-38136142D02*
X72595685Y-38207570D01*
X72595685Y-38207570D02*
X72738542Y-38278999D01*
X72738542Y-38278999D02*
X72881400Y-38421856D01*
X72881400Y-38421856D02*
X72952828Y-38636142D01*
X72952828Y-38636142D02*
X72952828Y-38993285D01*
D10*
X41005666Y-27934266D02*
X41767571Y-27934266D01*
X41386618Y-28315219D02*
X41386618Y-27553314D01*
X42291380Y-28315219D02*
X42481856Y-28315219D01*
X42481856Y-28315219D02*
X42577094Y-28267600D01*
X42577094Y-28267600D02*
X42624713Y-28219980D01*
X42624713Y-28219980D02*
X42719951Y-28077123D01*
X42719951Y-28077123D02*
X42767570Y-27886647D01*
X42767570Y-27886647D02*
X42767570Y-27505695D01*
X42767570Y-27505695D02*
X42719951Y-27410457D01*
X42719951Y-27410457D02*
X42672332Y-27362838D01*
X42672332Y-27362838D02*
X42577094Y-27315219D01*
X42577094Y-27315219D02*
X42386618Y-27315219D01*
X42386618Y-27315219D02*
X42291380Y-27362838D01*
X42291380Y-27362838D02*
X42243761Y-27410457D01*
X42243761Y-27410457D02*
X42196142Y-27505695D01*
X42196142Y-27505695D02*
X42196142Y-27743790D01*
X42196142Y-27743790D02*
X42243761Y-27839028D01*
X42243761Y-27839028D02*
X42291380Y-27886647D01*
X42291380Y-27886647D02*
X42386618Y-27934266D01*
X42386618Y-27934266D02*
X42577094Y-27934266D01*
X42577094Y-27934266D02*
X42672332Y-27886647D01*
X42672332Y-27886647D02*
X42719951Y-27839028D01*
X42719951Y-27839028D02*
X42767570Y-27743790D01*
X43053285Y-27315219D02*
X43386618Y-28315219D01*
X43386618Y-28315219D02*
X43719951Y-27315219D01*
X47100905Y-27934266D02*
X47862810Y-27934266D01*
X47481857Y-28315219D02*
X47481857Y-27553314D01*
X48815190Y-27315219D02*
X48339000Y-27315219D01*
X48339000Y-27315219D02*
X48291381Y-27791409D01*
X48291381Y-27791409D02*
X48339000Y-27743790D01*
X48339000Y-27743790D02*
X48434238Y-27696171D01*
X48434238Y-27696171D02*
X48672333Y-27696171D01*
X48672333Y-27696171D02*
X48767571Y-27743790D01*
X48767571Y-27743790D02*
X48815190Y-27791409D01*
X48815190Y-27791409D02*
X48862809Y-27886647D01*
X48862809Y-27886647D02*
X48862809Y-28124742D01*
X48862809Y-28124742D02*
X48815190Y-28219980D01*
X48815190Y-28219980D02*
X48767571Y-28267600D01*
X48767571Y-28267600D02*
X48672333Y-28315219D01*
X48672333Y-28315219D02*
X48434238Y-28315219D01*
X48434238Y-28315219D02*
X48339000Y-28267600D01*
X48339000Y-28267600D02*
X48291381Y-28219980D01*
X49148524Y-27315219D02*
X49481857Y-28315219D01*
X49481857Y-28315219D02*
X49815190Y-27315219D01*
X17288095Y-44317266D02*
X18050000Y-44317266D01*
X17669047Y-44698219D02*
X17669047Y-43936314D01*
X19049999Y-44698219D02*
X18478571Y-44698219D01*
X18764285Y-44698219D02*
X18764285Y-43698219D01*
X18764285Y-43698219D02*
X18669047Y-43841076D01*
X18669047Y-43841076D02*
X18573809Y-43936314D01*
X18573809Y-43936314D02*
X18478571Y-43983933D01*
X19907142Y-43698219D02*
X19716666Y-43698219D01*
X19716666Y-43698219D02*
X19621428Y-43745838D01*
X19621428Y-43745838D02*
X19573809Y-43793457D01*
X19573809Y-43793457D02*
X19478571Y-43936314D01*
X19478571Y-43936314D02*
X19430952Y-44126790D01*
X19430952Y-44126790D02*
X19430952Y-44507742D01*
X19430952Y-44507742D02*
X19478571Y-44602980D01*
X19478571Y-44602980D02*
X19526190Y-44650600D01*
X19526190Y-44650600D02*
X19621428Y-44698219D01*
X19621428Y-44698219D02*
X19811904Y-44698219D01*
X19811904Y-44698219D02*
X19907142Y-44650600D01*
X19907142Y-44650600D02*
X19954761Y-44602980D01*
X19954761Y-44602980D02*
X20002380Y-44507742D01*
X20002380Y-44507742D02*
X20002380Y-44269647D01*
X20002380Y-44269647D02*
X19954761Y-44174409D01*
X19954761Y-44174409D02*
X19907142Y-44126790D01*
X19907142Y-44126790D02*
X19811904Y-44079171D01*
X19811904Y-44079171D02*
X19621428Y-44079171D01*
X19621428Y-44079171D02*
X19526190Y-44126790D01*
X19526190Y-44126790D02*
X19478571Y-44174409D01*
X19478571Y-44174409D02*
X19430952Y-44269647D01*
X20288095Y-43698219D02*
X20621428Y-44698219D01*
X20621428Y-44698219D02*
X20954761Y-43698219D01*
X31856101Y-62756790D02*
X31779911Y-62718695D01*
X31779911Y-62718695D02*
X31665625Y-62718695D01*
X31665625Y-62718695D02*
X31551339Y-62756790D01*
X31551339Y-62756790D02*
X31475149Y-62832980D01*
X31475149Y-62832980D02*
X31437054Y-62909171D01*
X31437054Y-62909171D02*
X31398958Y-63061552D01*
X31398958Y-63061552D02*
X31398958Y-63175838D01*
X31398958Y-63175838D02*
X31437054Y-63328219D01*
X31437054Y-63328219D02*
X31475149Y-63404409D01*
X31475149Y-63404409D02*
X31551339Y-63480600D01*
X31551339Y-63480600D02*
X31665625Y-63518695D01*
X31665625Y-63518695D02*
X31741816Y-63518695D01*
X31741816Y-63518695D02*
X31856101Y-63480600D01*
X31856101Y-63480600D02*
X31894197Y-63442504D01*
X31894197Y-63442504D02*
X31894197Y-63175838D01*
X31894197Y-63175838D02*
X31741816Y-63175838D01*
X32237054Y-63518695D02*
X32237054Y-62718695D01*
X32237054Y-62718695D02*
X32694197Y-63518695D01*
X32694197Y-63518695D02*
X32694197Y-62718695D01*
X33075149Y-63518695D02*
X33075149Y-62718695D01*
X33075149Y-62718695D02*
X33265625Y-62718695D01*
X33265625Y-62718695D02*
X33379911Y-62756790D01*
X33379911Y-62756790D02*
X33456101Y-62832980D01*
X33456101Y-62832980D02*
X33494196Y-62909171D01*
X33494196Y-62909171D02*
X33532292Y-63061552D01*
X33532292Y-63061552D02*
X33532292Y-63175838D01*
X33532292Y-63175838D02*
X33494196Y-63328219D01*
X33494196Y-63328219D02*
X33456101Y-63404409D01*
X33456101Y-63404409D02*
X33379911Y-63480600D01*
X33379911Y-63480600D02*
X33265625Y-63518695D01*
X33265625Y-63518695D02*
X33075149Y-63518695D01*
X18542095Y-47809838D02*
X18446857Y-47762219D01*
X18446857Y-47762219D02*
X18304000Y-47762219D01*
X18304000Y-47762219D02*
X18161143Y-47809838D01*
X18161143Y-47809838D02*
X18065905Y-47905076D01*
X18065905Y-47905076D02*
X18018286Y-48000314D01*
X18018286Y-48000314D02*
X17970667Y-48190790D01*
X17970667Y-48190790D02*
X17970667Y-48333647D01*
X17970667Y-48333647D02*
X18018286Y-48524123D01*
X18018286Y-48524123D02*
X18065905Y-48619361D01*
X18065905Y-48619361D02*
X18161143Y-48714600D01*
X18161143Y-48714600D02*
X18304000Y-48762219D01*
X18304000Y-48762219D02*
X18399238Y-48762219D01*
X18399238Y-48762219D02*
X18542095Y-48714600D01*
X18542095Y-48714600D02*
X18589714Y-48666980D01*
X18589714Y-48666980D02*
X18589714Y-48333647D01*
X18589714Y-48333647D02*
X18399238Y-48333647D01*
X19018286Y-48762219D02*
X19018286Y-47762219D01*
X19018286Y-47762219D02*
X19589714Y-48762219D01*
X19589714Y-48762219D02*
X19589714Y-47762219D01*
X20065905Y-48762219D02*
X20065905Y-47762219D01*
X20065905Y-47762219D02*
X20304000Y-47762219D01*
X20304000Y-47762219D02*
X20446857Y-47809838D01*
X20446857Y-47809838D02*
X20542095Y-47905076D01*
X20542095Y-47905076D02*
X20589714Y-48000314D01*
X20589714Y-48000314D02*
X20637333Y-48190790D01*
X20637333Y-48190790D02*
X20637333Y-48333647D01*
X20637333Y-48333647D02*
X20589714Y-48524123D01*
X20589714Y-48524123D02*
X20542095Y-48619361D01*
X20542095Y-48619361D02*
X20446857Y-48714600D01*
X20446857Y-48714600D02*
X20304000Y-48762219D01*
X20304000Y-48762219D02*
X20065905Y-48762219D01*
X21965219Y-39000326D02*
X20965219Y-39000326D01*
X21965219Y-38524136D02*
X20965219Y-38524136D01*
X20965219Y-38524136D02*
X21965219Y-37952708D01*
X21965219Y-37952708D02*
X20965219Y-37952708D01*
X21965219Y-37476517D02*
X20965219Y-37476517D01*
X20965219Y-37476517D02*
X20965219Y-37095565D01*
X20965219Y-37095565D02*
X21012838Y-37000327D01*
X21012838Y-37000327D02*
X21060457Y-36952708D01*
X21060457Y-36952708D02*
X21155695Y-36905089D01*
X21155695Y-36905089D02*
X21298552Y-36905089D01*
X21298552Y-36905089D02*
X21393790Y-36952708D01*
X21393790Y-36952708D02*
X21441409Y-37000327D01*
X21441409Y-37000327D02*
X21489028Y-37095565D01*
X21489028Y-37095565D02*
X21489028Y-37476517D01*
X20965219Y-36476517D02*
X21774742Y-36476517D01*
X21774742Y-36476517D02*
X21869980Y-36428898D01*
X21869980Y-36428898D02*
X21917600Y-36381279D01*
X21917600Y-36381279D02*
X21965219Y-36286041D01*
X21965219Y-36286041D02*
X21965219Y-36095565D01*
X21965219Y-36095565D02*
X21917600Y-36000327D01*
X21917600Y-36000327D02*
X21869980Y-35952708D01*
X21869980Y-35952708D02*
X21774742Y-35905089D01*
X21774742Y-35905089D02*
X20965219Y-35905089D01*
X20965219Y-35571755D02*
X20965219Y-35000327D01*
X21965219Y-35286041D02*
X20965219Y-35286041D01*
X21917600Y-34714612D02*
X21965219Y-34571755D01*
X21965219Y-34571755D02*
X21965219Y-34333660D01*
X21965219Y-34333660D02*
X21917600Y-34238422D01*
X21917600Y-34238422D02*
X21869980Y-34190803D01*
X21869980Y-34190803D02*
X21774742Y-34143184D01*
X21774742Y-34143184D02*
X21679504Y-34143184D01*
X21679504Y-34143184D02*
X21584266Y-34190803D01*
X21584266Y-34190803D02*
X21536647Y-34238422D01*
X21536647Y-34238422D02*
X21489028Y-34333660D01*
X21489028Y-34333660D02*
X21441409Y-34524136D01*
X21441409Y-34524136D02*
X21393790Y-34619374D01*
X21393790Y-34619374D02*
X21346171Y-34666993D01*
X21346171Y-34666993D02*
X21250933Y-34714612D01*
X21250933Y-34714612D02*
X21155695Y-34714612D01*
X21155695Y-34714612D02*
X21060457Y-34666993D01*
X21060457Y-34666993D02*
X21012838Y-34619374D01*
X21012838Y-34619374D02*
X20965219Y-34524136D01*
X20965219Y-34524136D02*
X20965219Y-34286041D01*
X20965219Y-34286041D02*
X21012838Y-34143184D01*
X22331101Y-62756790D02*
X22254911Y-62718695D01*
X22254911Y-62718695D02*
X22140625Y-62718695D01*
X22140625Y-62718695D02*
X22026339Y-62756790D01*
X22026339Y-62756790D02*
X21950149Y-62832980D01*
X21950149Y-62832980D02*
X21912054Y-62909171D01*
X21912054Y-62909171D02*
X21873958Y-63061552D01*
X21873958Y-63061552D02*
X21873958Y-63175838D01*
X21873958Y-63175838D02*
X21912054Y-63328219D01*
X21912054Y-63328219D02*
X21950149Y-63404409D01*
X21950149Y-63404409D02*
X22026339Y-63480600D01*
X22026339Y-63480600D02*
X22140625Y-63518695D01*
X22140625Y-63518695D02*
X22216816Y-63518695D01*
X22216816Y-63518695D02*
X22331101Y-63480600D01*
X22331101Y-63480600D02*
X22369197Y-63442504D01*
X22369197Y-63442504D02*
X22369197Y-63175838D01*
X22369197Y-63175838D02*
X22216816Y-63175838D01*
X22712054Y-63518695D02*
X22712054Y-62718695D01*
X22712054Y-62718695D02*
X23169197Y-63518695D01*
X23169197Y-63518695D02*
X23169197Y-62718695D01*
X23550149Y-63518695D02*
X23550149Y-62718695D01*
X23550149Y-62718695D02*
X23740625Y-62718695D01*
X23740625Y-62718695D02*
X23854911Y-62756790D01*
X23854911Y-62756790D02*
X23931101Y-62832980D01*
X23931101Y-62832980D02*
X23969196Y-62909171D01*
X23969196Y-62909171D02*
X24007292Y-63061552D01*
X24007292Y-63061552D02*
X24007292Y-63175838D01*
X24007292Y-63175838D02*
X23969196Y-63328219D01*
X23969196Y-63328219D02*
X23931101Y-63404409D01*
X23931101Y-63404409D02*
X23854911Y-63480600D01*
X23854911Y-63480600D02*
X23740625Y-63518695D01*
X23740625Y-63518695D02*
X23550149Y-63518695D01*
X17637286Y-25457766D02*
X18399191Y-25457766D01*
X18018238Y-25838719D02*
X18018238Y-25076814D01*
X18923000Y-25838719D02*
X19113476Y-25838719D01*
X19113476Y-25838719D02*
X19208714Y-25791100D01*
X19208714Y-25791100D02*
X19256333Y-25743480D01*
X19256333Y-25743480D02*
X19351571Y-25600623D01*
X19351571Y-25600623D02*
X19399190Y-25410147D01*
X19399190Y-25410147D02*
X19399190Y-25029195D01*
X19399190Y-25029195D02*
X19351571Y-24933957D01*
X19351571Y-24933957D02*
X19303952Y-24886338D01*
X19303952Y-24886338D02*
X19208714Y-24838719D01*
X19208714Y-24838719D02*
X19018238Y-24838719D01*
X19018238Y-24838719D02*
X18923000Y-24886338D01*
X18923000Y-24886338D02*
X18875381Y-24933957D01*
X18875381Y-24933957D02*
X18827762Y-25029195D01*
X18827762Y-25029195D02*
X18827762Y-25267290D01*
X18827762Y-25267290D02*
X18875381Y-25362528D01*
X18875381Y-25362528D02*
X18923000Y-25410147D01*
X18923000Y-25410147D02*
X19018238Y-25457766D01*
X19018238Y-25457766D02*
X19208714Y-25457766D01*
X19208714Y-25457766D02*
X19303952Y-25410147D01*
X19303952Y-25410147D02*
X19351571Y-25362528D01*
X19351571Y-25362528D02*
X19399190Y-25267290D01*
X19684905Y-24838719D02*
X20018238Y-25838719D01*
X20018238Y-25838719D02*
X20351571Y-24838719D01*
X40434285Y-50794266D02*
X41196190Y-50794266D01*
X40815237Y-51175219D02*
X40815237Y-50413314D01*
X42196189Y-51175219D02*
X41624761Y-51175219D01*
X41910475Y-51175219D02*
X41910475Y-50175219D01*
X41910475Y-50175219D02*
X41815237Y-50318076D01*
X41815237Y-50318076D02*
X41719999Y-50413314D01*
X41719999Y-50413314D02*
X41624761Y-50460933D01*
X43053332Y-50175219D02*
X42862856Y-50175219D01*
X42862856Y-50175219D02*
X42767618Y-50222838D01*
X42767618Y-50222838D02*
X42719999Y-50270457D01*
X42719999Y-50270457D02*
X42624761Y-50413314D01*
X42624761Y-50413314D02*
X42577142Y-50603790D01*
X42577142Y-50603790D02*
X42577142Y-50984742D01*
X42577142Y-50984742D02*
X42624761Y-51079980D01*
X42624761Y-51079980D02*
X42672380Y-51127600D01*
X42672380Y-51127600D02*
X42767618Y-51175219D01*
X42767618Y-51175219D02*
X42958094Y-51175219D01*
X42958094Y-51175219D02*
X43053332Y-51127600D01*
X43053332Y-51127600D02*
X43100951Y-51079980D01*
X43100951Y-51079980D02*
X43148570Y-50984742D01*
X43148570Y-50984742D02*
X43148570Y-50746647D01*
X43148570Y-50746647D02*
X43100951Y-50651409D01*
X43100951Y-50651409D02*
X43053332Y-50603790D01*
X43053332Y-50603790D02*
X42958094Y-50556171D01*
X42958094Y-50556171D02*
X42767618Y-50556171D01*
X42767618Y-50556171D02*
X42672380Y-50603790D01*
X42672380Y-50603790D02*
X42624761Y-50651409D01*
X42624761Y-50651409D02*
X42577142Y-50746647D01*
X43434285Y-50175219D02*
X43767618Y-51175219D01*
X43767618Y-51175219D02*
X44100951Y-50175219D01*
X47481905Y-50794266D02*
X48243810Y-50794266D01*
X47862857Y-51175219D02*
X47862857Y-50413314D01*
X49243809Y-51175219D02*
X48672381Y-51175219D01*
X48958095Y-51175219D02*
X48958095Y-50175219D01*
X48958095Y-50175219D02*
X48862857Y-50318076D01*
X48862857Y-50318076D02*
X48767619Y-50413314D01*
X48767619Y-50413314D02*
X48672381Y-50460933D01*
X49624762Y-50270457D02*
X49672381Y-50222838D01*
X49672381Y-50222838D02*
X49767619Y-50175219D01*
X49767619Y-50175219D02*
X50005714Y-50175219D01*
X50005714Y-50175219D02*
X50100952Y-50222838D01*
X50100952Y-50222838D02*
X50148571Y-50270457D01*
X50148571Y-50270457D02*
X50196190Y-50365695D01*
X50196190Y-50365695D02*
X50196190Y-50460933D01*
X50196190Y-50460933D02*
X50148571Y-50603790D01*
X50148571Y-50603790D02*
X49577143Y-51175219D01*
X49577143Y-51175219D02*
X50196190Y-51175219D01*
X50481905Y-50175219D02*
X50815238Y-51175219D01*
X50815238Y-51175219D02*
X51148571Y-50175219D01*
D12*
X69510057Y-62697128D02*
X69510057Y-60982843D01*
X72510057Y-61839985D02*
X69510057Y-61839985D01*
X70938628Y-59982843D02*
X70938628Y-58982843D01*
X72510057Y-58554271D02*
X72510057Y-59982843D01*
X72510057Y-59982843D02*
X69510057Y-59982843D01*
X69510057Y-59982843D02*
X69510057Y-58554271D01*
X71652914Y-57411414D02*
X71652914Y-55982843D01*
X72510057Y-57697128D02*
X69510057Y-56697128D01*
X69510057Y-56697128D02*
X72510057Y-55697128D01*
X72510057Y-54697128D02*
X69510057Y-54697128D01*
X69510057Y-54697128D02*
X71652914Y-53697128D01*
X71652914Y-53697128D02*
X69510057Y-52697128D01*
X69510057Y-52697128D02*
X72510057Y-52697128D01*
X70795771Y-48554271D02*
X70652914Y-48839986D01*
X70652914Y-48839986D02*
X70510057Y-48982843D01*
X70510057Y-48982843D02*
X70224342Y-49125700D01*
X70224342Y-49125700D02*
X70081485Y-49125700D01*
X70081485Y-49125700D02*
X69795771Y-48982843D01*
X69795771Y-48982843D02*
X69652914Y-48839986D01*
X69652914Y-48839986D02*
X69510057Y-48554271D01*
X69510057Y-48554271D02*
X69510057Y-47982843D01*
X69510057Y-47982843D02*
X69652914Y-47697129D01*
X69652914Y-47697129D02*
X69795771Y-47554271D01*
X69795771Y-47554271D02*
X70081485Y-47411414D01*
X70081485Y-47411414D02*
X70224342Y-47411414D01*
X70224342Y-47411414D02*
X70510057Y-47554271D01*
X70510057Y-47554271D02*
X70652914Y-47697129D01*
X70652914Y-47697129D02*
X70795771Y-47982843D01*
X70795771Y-47982843D02*
X70795771Y-48554271D01*
X70795771Y-48554271D02*
X70938628Y-48839986D01*
X70938628Y-48839986D02*
X71081485Y-48982843D01*
X71081485Y-48982843D02*
X71367200Y-49125700D01*
X71367200Y-49125700D02*
X71938628Y-49125700D01*
X71938628Y-49125700D02*
X72224342Y-48982843D01*
X72224342Y-48982843D02*
X72367200Y-48839986D01*
X72367200Y-48839986D02*
X72510057Y-48554271D01*
X72510057Y-48554271D02*
X72510057Y-47982843D01*
X72510057Y-47982843D02*
X72367200Y-47697129D01*
X72367200Y-47697129D02*
X72224342Y-47554271D01*
X72224342Y-47554271D02*
X71938628Y-47411414D01*
X71938628Y-47411414D02*
X71367200Y-47411414D01*
X71367200Y-47411414D02*
X71081485Y-47554271D01*
X71081485Y-47554271D02*
X70938628Y-47697129D01*
X70938628Y-47697129D02*
X70795771Y-47982843D01*
D10*
X41254101Y-62756790D02*
X41177911Y-62718695D01*
X41177911Y-62718695D02*
X41063625Y-62718695D01*
X41063625Y-62718695D02*
X40949339Y-62756790D01*
X40949339Y-62756790D02*
X40873149Y-62832980D01*
X40873149Y-62832980D02*
X40835054Y-62909171D01*
X40835054Y-62909171D02*
X40796958Y-63061552D01*
X40796958Y-63061552D02*
X40796958Y-63175838D01*
X40796958Y-63175838D02*
X40835054Y-63328219D01*
X40835054Y-63328219D02*
X40873149Y-63404409D01*
X40873149Y-63404409D02*
X40949339Y-63480600D01*
X40949339Y-63480600D02*
X41063625Y-63518695D01*
X41063625Y-63518695D02*
X41139816Y-63518695D01*
X41139816Y-63518695D02*
X41254101Y-63480600D01*
X41254101Y-63480600D02*
X41292197Y-63442504D01*
X41292197Y-63442504D02*
X41292197Y-63175838D01*
X41292197Y-63175838D02*
X41139816Y-63175838D01*
X41635054Y-63518695D02*
X41635054Y-62718695D01*
X41635054Y-62718695D02*
X42092197Y-63518695D01*
X42092197Y-63518695D02*
X42092197Y-62718695D01*
X42473149Y-63518695D02*
X42473149Y-62718695D01*
X42473149Y-62718695D02*
X42663625Y-62718695D01*
X42663625Y-62718695D02*
X42777911Y-62756790D01*
X42777911Y-62756790D02*
X42854101Y-62832980D01*
X42854101Y-62832980D02*
X42892196Y-62909171D01*
X42892196Y-62909171D02*
X42930292Y-63061552D01*
X42930292Y-63061552D02*
X42930292Y-63175838D01*
X42930292Y-63175838D02*
X42892196Y-63328219D01*
X42892196Y-63328219D02*
X42854101Y-63404409D01*
X42854101Y-63404409D02*
X42777911Y-63480600D01*
X42777911Y-63480600D02*
X42663625Y-63518695D01*
X42663625Y-63518695D02*
X42473149Y-63518695D01*
X18415095Y-28950338D02*
X18319857Y-28902719D01*
X18319857Y-28902719D02*
X18177000Y-28902719D01*
X18177000Y-28902719D02*
X18034143Y-28950338D01*
X18034143Y-28950338D02*
X17938905Y-29045576D01*
X17938905Y-29045576D02*
X17891286Y-29140814D01*
X17891286Y-29140814D02*
X17843667Y-29331290D01*
X17843667Y-29331290D02*
X17843667Y-29474147D01*
X17843667Y-29474147D02*
X17891286Y-29664623D01*
X17891286Y-29664623D02*
X17938905Y-29759861D01*
X17938905Y-29759861D02*
X18034143Y-29855100D01*
X18034143Y-29855100D02*
X18177000Y-29902719D01*
X18177000Y-29902719D02*
X18272238Y-29902719D01*
X18272238Y-29902719D02*
X18415095Y-29855100D01*
X18415095Y-29855100D02*
X18462714Y-29807480D01*
X18462714Y-29807480D02*
X18462714Y-29474147D01*
X18462714Y-29474147D02*
X18272238Y-29474147D01*
X18891286Y-29902719D02*
X18891286Y-28902719D01*
X18891286Y-28902719D02*
X19462714Y-29902719D01*
X19462714Y-29902719D02*
X19462714Y-28902719D01*
X19938905Y-29902719D02*
X19938905Y-28902719D01*
X19938905Y-28902719D02*
X20177000Y-28902719D01*
X20177000Y-28902719D02*
X20319857Y-28950338D01*
X20319857Y-28950338D02*
X20415095Y-29045576D01*
X20415095Y-29045576D02*
X20462714Y-29140814D01*
X20462714Y-29140814D02*
X20510333Y-29331290D01*
X20510333Y-29331290D02*
X20510333Y-29474147D01*
X20510333Y-29474147D02*
X20462714Y-29664623D01*
X20462714Y-29664623D02*
X20415095Y-29759861D01*
X20415095Y-29759861D02*
X20319857Y-29855100D01*
X20319857Y-29855100D02*
X20177000Y-29902719D01*
X20177000Y-29902719D02*
X19938905Y-29902719D01*
X24149905Y-61618600D02*
X24292762Y-61666219D01*
X24292762Y-61666219D02*
X24530857Y-61666219D01*
X24530857Y-61666219D02*
X24626095Y-61618600D01*
X24626095Y-61618600D02*
X24673714Y-61570980D01*
X24673714Y-61570980D02*
X24721333Y-61475742D01*
X24721333Y-61475742D02*
X24721333Y-61380504D01*
X24721333Y-61380504D02*
X24673714Y-61285266D01*
X24673714Y-61285266D02*
X24626095Y-61237647D01*
X24626095Y-61237647D02*
X24530857Y-61190028D01*
X24530857Y-61190028D02*
X24340381Y-61142409D01*
X24340381Y-61142409D02*
X24245143Y-61094790D01*
X24245143Y-61094790D02*
X24197524Y-61047171D01*
X24197524Y-61047171D02*
X24149905Y-60951933D01*
X24149905Y-60951933D02*
X24149905Y-60856695D01*
X24149905Y-60856695D02*
X24197524Y-60761457D01*
X24197524Y-60761457D02*
X24245143Y-60713838D01*
X24245143Y-60713838D02*
X24340381Y-60666219D01*
X24340381Y-60666219D02*
X24578476Y-60666219D01*
X24578476Y-60666219D02*
X24721333Y-60713838D01*
X25673714Y-60713838D02*
X25578476Y-60666219D01*
X25578476Y-60666219D02*
X25435619Y-60666219D01*
X25435619Y-60666219D02*
X25292762Y-60713838D01*
X25292762Y-60713838D02*
X25197524Y-60809076D01*
X25197524Y-60809076D02*
X25149905Y-60904314D01*
X25149905Y-60904314D02*
X25102286Y-61094790D01*
X25102286Y-61094790D02*
X25102286Y-61237647D01*
X25102286Y-61237647D02*
X25149905Y-61428123D01*
X25149905Y-61428123D02*
X25197524Y-61523361D01*
X25197524Y-61523361D02*
X25292762Y-61618600D01*
X25292762Y-61618600D02*
X25435619Y-61666219D01*
X25435619Y-61666219D02*
X25530857Y-61666219D01*
X25530857Y-61666219D02*
X25673714Y-61618600D01*
X25673714Y-61618600D02*
X25721333Y-61570980D01*
X25721333Y-61570980D02*
X25721333Y-61237647D01*
X25721333Y-61237647D02*
X25530857Y-61237647D01*
X26197524Y-61666219D02*
X26388000Y-61666219D01*
X26388000Y-61666219D02*
X26483238Y-61618600D01*
X26483238Y-61618600D02*
X26530857Y-61570980D01*
X26530857Y-61570980D02*
X26626095Y-61428123D01*
X26626095Y-61428123D02*
X26673714Y-61237647D01*
X26673714Y-61237647D02*
X26673714Y-60856695D01*
X26673714Y-60856695D02*
X26626095Y-60761457D01*
X26626095Y-60761457D02*
X26578476Y-60713838D01*
X26578476Y-60713838D02*
X26483238Y-60666219D01*
X26483238Y-60666219D02*
X26292762Y-60666219D01*
X26292762Y-60666219D02*
X26197524Y-60713838D01*
X26197524Y-60713838D02*
X26149905Y-60761457D01*
X26149905Y-60761457D02*
X26102286Y-60856695D01*
X26102286Y-60856695D02*
X26102286Y-61094790D01*
X26102286Y-61094790D02*
X26149905Y-61190028D01*
X26149905Y-61190028D02*
X26197524Y-61237647D01*
X26197524Y-61237647D02*
X26292762Y-61285266D01*
X26292762Y-61285266D02*
X26483238Y-61285266D01*
X26483238Y-61285266D02*
X26578476Y-61237647D01*
X26578476Y-61237647D02*
X26626095Y-61190028D01*
X26626095Y-61190028D02*
X26673714Y-61094790D01*
X27292762Y-60666219D02*
X27388000Y-60666219D01*
X27388000Y-60666219D02*
X27483238Y-60713838D01*
X27483238Y-60713838D02*
X27530857Y-60761457D01*
X27530857Y-60761457D02*
X27578476Y-60856695D01*
X27578476Y-60856695D02*
X27626095Y-61047171D01*
X27626095Y-61047171D02*
X27626095Y-61285266D01*
X27626095Y-61285266D02*
X27578476Y-61475742D01*
X27578476Y-61475742D02*
X27530857Y-61570980D01*
X27530857Y-61570980D02*
X27483238Y-61618600D01*
X27483238Y-61618600D02*
X27388000Y-61666219D01*
X27388000Y-61666219D02*
X27292762Y-61666219D01*
X27292762Y-61666219D02*
X27197524Y-61618600D01*
X27197524Y-61618600D02*
X27149905Y-61570980D01*
X27149905Y-61570980D02*
X27102286Y-61475742D01*
X27102286Y-61475742D02*
X27054667Y-61285266D01*
X27054667Y-61285266D02*
X27054667Y-61047171D01*
X27054667Y-61047171D02*
X27102286Y-60856695D01*
X27102286Y-60856695D02*
X27149905Y-60761457D01*
X27149905Y-60761457D02*
X27197524Y-60713838D01*
X27197524Y-60713838D02*
X27292762Y-60666219D01*
X59646667Y-61539219D02*
X59646667Y-60539219D01*
X59646667Y-61015409D02*
X60218095Y-61015409D01*
X60218095Y-61539219D02*
X60218095Y-60539219D01*
X61027619Y-61015409D02*
X61170476Y-61063028D01*
X61170476Y-61063028D02*
X61218095Y-61110647D01*
X61218095Y-61110647D02*
X61265714Y-61205885D01*
X61265714Y-61205885D02*
X61265714Y-61348742D01*
X61265714Y-61348742D02*
X61218095Y-61443980D01*
X61218095Y-61443980D02*
X61170476Y-61491600D01*
X61170476Y-61491600D02*
X61075238Y-61539219D01*
X61075238Y-61539219D02*
X60694286Y-61539219D01*
X60694286Y-61539219D02*
X60694286Y-60539219D01*
X60694286Y-60539219D02*
X61027619Y-60539219D01*
X61027619Y-60539219D02*
X61122857Y-60586838D01*
X61122857Y-60586838D02*
X61170476Y-60634457D01*
X61170476Y-60634457D02*
X61218095Y-60729695D01*
X61218095Y-60729695D02*
X61218095Y-60824933D01*
X61218095Y-60824933D02*
X61170476Y-60920171D01*
X61170476Y-60920171D02*
X61122857Y-60967790D01*
X61122857Y-60967790D02*
X61027619Y-61015409D01*
X61027619Y-61015409D02*
X60694286Y-61015409D01*
X62265714Y-61539219D02*
X61932381Y-61063028D01*
X61694286Y-61539219D02*
X61694286Y-60539219D01*
X61694286Y-60539219D02*
X62075238Y-60539219D01*
X62075238Y-60539219D02*
X62170476Y-60586838D01*
X62170476Y-60586838D02*
X62218095Y-60634457D01*
X62218095Y-60634457D02*
X62265714Y-60729695D01*
X62265714Y-60729695D02*
X62265714Y-60872552D01*
X62265714Y-60872552D02*
X62218095Y-60967790D01*
X62218095Y-60967790D02*
X62170476Y-61015409D01*
X62170476Y-61015409D02*
X62075238Y-61063028D01*
X62075238Y-61063028D02*
X61694286Y-61063028D01*
X62694286Y-61539219D02*
X62694286Y-60539219D01*
X63170476Y-61539219D02*
X63170476Y-60539219D01*
X63170476Y-60539219D02*
X63408571Y-60539219D01*
X63408571Y-60539219D02*
X63551428Y-60586838D01*
X63551428Y-60586838D02*
X63646666Y-60682076D01*
X63646666Y-60682076D02*
X63694285Y-60777314D01*
X63694285Y-60777314D02*
X63741904Y-60967790D01*
X63741904Y-60967790D02*
X63741904Y-61110647D01*
X63741904Y-61110647D02*
X63694285Y-61301123D01*
X63694285Y-61301123D02*
X63646666Y-61396361D01*
X63646666Y-61396361D02*
X63551428Y-61491600D01*
X63551428Y-61491600D02*
X63408571Y-61539219D01*
X63408571Y-61539219D02*
X63170476Y-61539219D01*
X64694285Y-60586838D02*
X64599047Y-60539219D01*
X64599047Y-60539219D02*
X64456190Y-60539219D01*
X64456190Y-60539219D02*
X64313333Y-60586838D01*
X64313333Y-60586838D02*
X64218095Y-60682076D01*
X64218095Y-60682076D02*
X64170476Y-60777314D01*
X64170476Y-60777314D02*
X64122857Y-60967790D01*
X64122857Y-60967790D02*
X64122857Y-61110647D01*
X64122857Y-61110647D02*
X64170476Y-61301123D01*
X64170476Y-61301123D02*
X64218095Y-61396361D01*
X64218095Y-61396361D02*
X64313333Y-61491600D01*
X64313333Y-61491600D02*
X64456190Y-61539219D01*
X64456190Y-61539219D02*
X64551428Y-61539219D01*
X64551428Y-61539219D02*
X64694285Y-61491600D01*
X64694285Y-61491600D02*
X64741904Y-61443980D01*
X64741904Y-61443980D02*
X64741904Y-61110647D01*
X64741904Y-61110647D02*
X64551428Y-61110647D01*
X65170476Y-61015409D02*
X65503809Y-61015409D01*
X65646666Y-61539219D02*
X65170476Y-61539219D01*
X65170476Y-61539219D02*
X65170476Y-60539219D01*
X65170476Y-60539219D02*
X65646666Y-60539219D01*
X65837143Y-61634457D02*
X66599047Y-61634457D01*
X66789524Y-60634457D02*
X66837143Y-60586838D01*
X66837143Y-60586838D02*
X66932381Y-60539219D01*
X66932381Y-60539219D02*
X67170476Y-60539219D01*
X67170476Y-60539219D02*
X67265714Y-60586838D01*
X67265714Y-60586838D02*
X67313333Y-60634457D01*
X67313333Y-60634457D02*
X67360952Y-60729695D01*
X67360952Y-60729695D02*
X67360952Y-60824933D01*
X67360952Y-60824933D02*
X67313333Y-60967790D01*
X67313333Y-60967790D02*
X66741905Y-61539219D01*
X66741905Y-61539219D02*
X67360952Y-61539219D01*
X50248667Y-61539219D02*
X50248667Y-60539219D01*
X50248667Y-61015409D02*
X50820095Y-61015409D01*
X50820095Y-61539219D02*
X50820095Y-60539219D01*
X51629619Y-61015409D02*
X51772476Y-61063028D01*
X51772476Y-61063028D02*
X51820095Y-61110647D01*
X51820095Y-61110647D02*
X51867714Y-61205885D01*
X51867714Y-61205885D02*
X51867714Y-61348742D01*
X51867714Y-61348742D02*
X51820095Y-61443980D01*
X51820095Y-61443980D02*
X51772476Y-61491600D01*
X51772476Y-61491600D02*
X51677238Y-61539219D01*
X51677238Y-61539219D02*
X51296286Y-61539219D01*
X51296286Y-61539219D02*
X51296286Y-60539219D01*
X51296286Y-60539219D02*
X51629619Y-60539219D01*
X51629619Y-60539219D02*
X51724857Y-60586838D01*
X51724857Y-60586838D02*
X51772476Y-60634457D01*
X51772476Y-60634457D02*
X51820095Y-60729695D01*
X51820095Y-60729695D02*
X51820095Y-60824933D01*
X51820095Y-60824933D02*
X51772476Y-60920171D01*
X51772476Y-60920171D02*
X51724857Y-60967790D01*
X51724857Y-60967790D02*
X51629619Y-61015409D01*
X51629619Y-61015409D02*
X51296286Y-61015409D01*
X52867714Y-61539219D02*
X52534381Y-61063028D01*
X52296286Y-61539219D02*
X52296286Y-60539219D01*
X52296286Y-60539219D02*
X52677238Y-60539219D01*
X52677238Y-60539219D02*
X52772476Y-60586838D01*
X52772476Y-60586838D02*
X52820095Y-60634457D01*
X52820095Y-60634457D02*
X52867714Y-60729695D01*
X52867714Y-60729695D02*
X52867714Y-60872552D01*
X52867714Y-60872552D02*
X52820095Y-60967790D01*
X52820095Y-60967790D02*
X52772476Y-61015409D01*
X52772476Y-61015409D02*
X52677238Y-61063028D01*
X52677238Y-61063028D02*
X52296286Y-61063028D01*
X53296286Y-61539219D02*
X53296286Y-60539219D01*
X53772476Y-61539219D02*
X53772476Y-60539219D01*
X53772476Y-60539219D02*
X54010571Y-60539219D01*
X54010571Y-60539219D02*
X54153428Y-60586838D01*
X54153428Y-60586838D02*
X54248666Y-60682076D01*
X54248666Y-60682076D02*
X54296285Y-60777314D01*
X54296285Y-60777314D02*
X54343904Y-60967790D01*
X54343904Y-60967790D02*
X54343904Y-61110647D01*
X54343904Y-61110647D02*
X54296285Y-61301123D01*
X54296285Y-61301123D02*
X54248666Y-61396361D01*
X54248666Y-61396361D02*
X54153428Y-61491600D01*
X54153428Y-61491600D02*
X54010571Y-61539219D01*
X54010571Y-61539219D02*
X53772476Y-61539219D01*
X55296285Y-60586838D02*
X55201047Y-60539219D01*
X55201047Y-60539219D02*
X55058190Y-60539219D01*
X55058190Y-60539219D02*
X54915333Y-60586838D01*
X54915333Y-60586838D02*
X54820095Y-60682076D01*
X54820095Y-60682076D02*
X54772476Y-60777314D01*
X54772476Y-60777314D02*
X54724857Y-60967790D01*
X54724857Y-60967790D02*
X54724857Y-61110647D01*
X54724857Y-61110647D02*
X54772476Y-61301123D01*
X54772476Y-61301123D02*
X54820095Y-61396361D01*
X54820095Y-61396361D02*
X54915333Y-61491600D01*
X54915333Y-61491600D02*
X55058190Y-61539219D01*
X55058190Y-61539219D02*
X55153428Y-61539219D01*
X55153428Y-61539219D02*
X55296285Y-61491600D01*
X55296285Y-61491600D02*
X55343904Y-61443980D01*
X55343904Y-61443980D02*
X55343904Y-61110647D01*
X55343904Y-61110647D02*
X55153428Y-61110647D01*
X55772476Y-61015409D02*
X56105809Y-61015409D01*
X56248666Y-61539219D02*
X55772476Y-61539219D01*
X55772476Y-61539219D02*
X55772476Y-60539219D01*
X55772476Y-60539219D02*
X56248666Y-60539219D01*
X56439143Y-61634457D02*
X57201047Y-61634457D01*
X57962952Y-61539219D02*
X57391524Y-61539219D01*
X57677238Y-61539219D02*
X57677238Y-60539219D01*
X57677238Y-60539219D02*
X57582000Y-60682076D01*
X57582000Y-60682076D02*
X57486762Y-60777314D01*
X57486762Y-60777314D02*
X57391524Y-60824933D01*
X42041143Y-61412219D02*
X42041143Y-60412219D01*
X42041143Y-60412219D02*
X42279238Y-60412219D01*
X42279238Y-60412219D02*
X42422095Y-60459838D01*
X42422095Y-60459838D02*
X42517333Y-60555076D01*
X42517333Y-60555076D02*
X42564952Y-60650314D01*
X42564952Y-60650314D02*
X42612571Y-60840790D01*
X42612571Y-60840790D02*
X42612571Y-60983647D01*
X42612571Y-60983647D02*
X42564952Y-61174123D01*
X42564952Y-61174123D02*
X42517333Y-61269361D01*
X42517333Y-61269361D02*
X42422095Y-61364600D01*
X42422095Y-61364600D02*
X42279238Y-61412219D01*
X42279238Y-61412219D02*
X42041143Y-61412219D01*
X42993524Y-61364600D02*
X43136381Y-61412219D01*
X43136381Y-61412219D02*
X43374476Y-61412219D01*
X43374476Y-61412219D02*
X43469714Y-61364600D01*
X43469714Y-61364600D02*
X43517333Y-61316980D01*
X43517333Y-61316980D02*
X43564952Y-61221742D01*
X43564952Y-61221742D02*
X43564952Y-61126504D01*
X43564952Y-61126504D02*
X43517333Y-61031266D01*
X43517333Y-61031266D02*
X43469714Y-60983647D01*
X43469714Y-60983647D02*
X43374476Y-60936028D01*
X43374476Y-60936028D02*
X43184000Y-60888409D01*
X43184000Y-60888409D02*
X43088762Y-60840790D01*
X43088762Y-60840790D02*
X43041143Y-60793171D01*
X43041143Y-60793171D02*
X42993524Y-60697933D01*
X42993524Y-60697933D02*
X42993524Y-60602695D01*
X42993524Y-60602695D02*
X43041143Y-60507457D01*
X43041143Y-60507457D02*
X43088762Y-60459838D01*
X43088762Y-60459838D02*
X43184000Y-60412219D01*
X43184000Y-60412219D02*
X43422095Y-60412219D01*
X43422095Y-60412219D02*
X43564952Y-60459838D01*
X43898286Y-60412219D02*
X44517333Y-60412219D01*
X44517333Y-60412219D02*
X44184000Y-60793171D01*
X44184000Y-60793171D02*
X44326857Y-60793171D01*
X44326857Y-60793171D02*
X44422095Y-60840790D01*
X44422095Y-60840790D02*
X44469714Y-60888409D01*
X44469714Y-60888409D02*
X44517333Y-60983647D01*
X44517333Y-60983647D02*
X44517333Y-61221742D01*
X44517333Y-61221742D02*
X44469714Y-61316980D01*
X44469714Y-61316980D02*
X44422095Y-61364600D01*
X44422095Y-61364600D02*
X44326857Y-61412219D01*
X44326857Y-61412219D02*
X44041143Y-61412219D01*
X44041143Y-61412219D02*
X43945905Y-61364600D01*
X43945905Y-61364600D02*
X43898286Y-61316980D01*
X44898286Y-60507457D02*
X44945905Y-60459838D01*
X44945905Y-60459838D02*
X45041143Y-60412219D01*
X45041143Y-60412219D02*
X45279238Y-60412219D01*
X45279238Y-60412219D02*
X45374476Y-60459838D01*
X45374476Y-60459838D02*
X45422095Y-60507457D01*
X45422095Y-60507457D02*
X45469714Y-60602695D01*
X45469714Y-60602695D02*
X45469714Y-60697933D01*
X45469714Y-60697933D02*
X45422095Y-60840790D01*
X45422095Y-60840790D02*
X44850667Y-61412219D01*
X44850667Y-61412219D02*
X45469714Y-61412219D01*
X45803048Y-60412219D02*
X46422095Y-60412219D01*
X46422095Y-60412219D02*
X46088762Y-60793171D01*
X46088762Y-60793171D02*
X46231619Y-60793171D01*
X46231619Y-60793171D02*
X46326857Y-60840790D01*
X46326857Y-60840790D02*
X46374476Y-60888409D01*
X46374476Y-60888409D02*
X46422095Y-60983647D01*
X46422095Y-60983647D02*
X46422095Y-61221742D01*
X46422095Y-61221742D02*
X46374476Y-61316980D01*
X46374476Y-61316980D02*
X46326857Y-61364600D01*
X46326857Y-61364600D02*
X46231619Y-61412219D01*
X46231619Y-61412219D02*
X45945905Y-61412219D01*
X45945905Y-61412219D02*
X45850667Y-61364600D01*
X45850667Y-61364600D02*
X45803048Y-61316980D01*
X47326857Y-60412219D02*
X46850667Y-60412219D01*
X46850667Y-60412219D02*
X46803048Y-60888409D01*
X46803048Y-60888409D02*
X46850667Y-60840790D01*
X46850667Y-60840790D02*
X46945905Y-60793171D01*
X46945905Y-60793171D02*
X47184000Y-60793171D01*
X47184000Y-60793171D02*
X47279238Y-60840790D01*
X47279238Y-60840790D02*
X47326857Y-60888409D01*
X47326857Y-60888409D02*
X47374476Y-60983647D01*
X47374476Y-60983647D02*
X47374476Y-61221742D01*
X47374476Y-61221742D02*
X47326857Y-61316980D01*
X47326857Y-61316980D02*
X47279238Y-61364600D01*
X47279238Y-61364600D02*
X47184000Y-61412219D01*
X47184000Y-61412219D02*
X46945905Y-61412219D01*
X46945905Y-61412219D02*
X46850667Y-61364600D01*
X46850667Y-61364600D02*
X46803048Y-61316980D01*
X21512409Y-19307714D02*
X21560028Y-19164857D01*
X21560028Y-19164857D02*
X21607647Y-19117238D01*
X21607647Y-19117238D02*
X21702885Y-19069619D01*
X21702885Y-19069619D02*
X21845742Y-19069619D01*
X21845742Y-19069619D02*
X21940980Y-19117238D01*
X21940980Y-19117238D02*
X21988600Y-19164857D01*
X21988600Y-19164857D02*
X22036219Y-19260095D01*
X22036219Y-19260095D02*
X22036219Y-19641047D01*
X22036219Y-19641047D02*
X21036219Y-19641047D01*
X21036219Y-19641047D02*
X21036219Y-19307714D01*
X21036219Y-19307714D02*
X21083838Y-19212476D01*
X21083838Y-19212476D02*
X21131457Y-19164857D01*
X21131457Y-19164857D02*
X21226695Y-19117238D01*
X21226695Y-19117238D02*
X21321933Y-19117238D01*
X21321933Y-19117238D02*
X21417171Y-19164857D01*
X21417171Y-19164857D02*
X21464790Y-19212476D01*
X21464790Y-19212476D02*
X21512409Y-19307714D01*
X21512409Y-19307714D02*
X21512409Y-19641047D01*
X21036219Y-18783904D02*
X21036219Y-18212476D01*
X22036219Y-18498190D02*
X21036219Y-18498190D01*
X21131457Y-17926761D02*
X21083838Y-17879142D01*
X21083838Y-17879142D02*
X21036219Y-17783904D01*
X21036219Y-17783904D02*
X21036219Y-17545809D01*
X21036219Y-17545809D02*
X21083838Y-17450571D01*
X21083838Y-17450571D02*
X21131457Y-17402952D01*
X21131457Y-17402952D02*
X21226695Y-17355333D01*
X21226695Y-17355333D02*
X21321933Y-17355333D01*
X21321933Y-17355333D02*
X21464790Y-17402952D01*
X21464790Y-17402952D02*
X22036219Y-17974380D01*
X22036219Y-17974380D02*
X22036219Y-17355333D01*
X21512409Y-55669714D02*
X21560028Y-55526857D01*
X21560028Y-55526857D02*
X21607647Y-55479238D01*
X21607647Y-55479238D02*
X21702885Y-55431619D01*
X21702885Y-55431619D02*
X21845742Y-55431619D01*
X21845742Y-55431619D02*
X21940980Y-55479238D01*
X21940980Y-55479238D02*
X21988600Y-55526857D01*
X21988600Y-55526857D02*
X22036219Y-55622095D01*
X22036219Y-55622095D02*
X22036219Y-56003047D01*
X22036219Y-56003047D02*
X21036219Y-56003047D01*
X21036219Y-56003047D02*
X21036219Y-55669714D01*
X21036219Y-55669714D02*
X21083838Y-55574476D01*
X21083838Y-55574476D02*
X21131457Y-55526857D01*
X21131457Y-55526857D02*
X21226695Y-55479238D01*
X21226695Y-55479238D02*
X21321933Y-55479238D01*
X21321933Y-55479238D02*
X21417171Y-55526857D01*
X21417171Y-55526857D02*
X21464790Y-55574476D01*
X21464790Y-55574476D02*
X21512409Y-55669714D01*
X21512409Y-55669714D02*
X21512409Y-56003047D01*
X21036219Y-55145904D02*
X21036219Y-54574476D01*
X22036219Y-54860190D02*
X21036219Y-54860190D01*
X22036219Y-53717333D02*
X22036219Y-54288761D01*
X22036219Y-54003047D02*
X21036219Y-54003047D01*
X21036219Y-54003047D02*
X21179076Y-54098285D01*
X21179076Y-54098285D02*
X21274314Y-54193523D01*
X21274314Y-54193523D02*
X21321933Y-54288761D01*
X34256532Y-26010038D02*
X33304151Y-26010038D01*
X33304151Y-26010038D02*
X33304151Y-24010038D01*
X34923199Y-26010038D02*
X34923199Y-24010038D01*
X34923199Y-24010038D02*
X35589866Y-25438609D01*
X35589866Y-25438609D02*
X36256532Y-24010038D01*
X36256532Y-24010038D02*
X36256532Y-26010038D01*
X37113675Y-24200514D02*
X37208913Y-24105276D01*
X37208913Y-24105276D02*
X37399389Y-24010038D01*
X37399389Y-24010038D02*
X37875580Y-24010038D01*
X37875580Y-24010038D02*
X38066056Y-24105276D01*
X38066056Y-24105276D02*
X38161294Y-24200514D01*
X38161294Y-24200514D02*
X38256532Y-24390990D01*
X38256532Y-24390990D02*
X38256532Y-24581466D01*
X38256532Y-24581466D02*
X38161294Y-24867180D01*
X38161294Y-24867180D02*
X37018437Y-26010038D01*
X37018437Y-26010038D02*
X38256532Y-26010038D01*
X40066056Y-24010038D02*
X39113675Y-24010038D01*
X39113675Y-24010038D02*
X39018437Y-24962419D01*
X39018437Y-24962419D02*
X39113675Y-24867180D01*
X39113675Y-24867180D02*
X39304151Y-24771942D01*
X39304151Y-24771942D02*
X39780342Y-24771942D01*
X39780342Y-24771942D02*
X39970818Y-24867180D01*
X39970818Y-24867180D02*
X40066056Y-24962419D01*
X40066056Y-24962419D02*
X40161294Y-25152895D01*
X40161294Y-25152895D02*
X40161294Y-25629085D01*
X40161294Y-25629085D02*
X40066056Y-25819561D01*
X40066056Y-25819561D02*
X39970818Y-25914800D01*
X39970818Y-25914800D02*
X39780342Y-26010038D01*
X39780342Y-26010038D02*
X39304151Y-26010038D01*
X39304151Y-26010038D02*
X39113675Y-25914800D01*
X39113675Y-25914800D02*
X39018437Y-25819561D01*
X41113675Y-26010038D02*
X41494627Y-26010038D01*
X41494627Y-26010038D02*
X41685104Y-25914800D01*
X41685104Y-25914800D02*
X41780342Y-25819561D01*
X41780342Y-25819561D02*
X41970818Y-25533847D01*
X41970818Y-25533847D02*
X42066056Y-25152895D01*
X42066056Y-25152895D02*
X42066056Y-24390990D01*
X42066056Y-24390990D02*
X41970818Y-24200514D01*
X41970818Y-24200514D02*
X41875580Y-24105276D01*
X41875580Y-24105276D02*
X41685104Y-24010038D01*
X41685104Y-24010038D02*
X41304151Y-24010038D01*
X41304151Y-24010038D02*
X41113675Y-24105276D01*
X41113675Y-24105276D02*
X41018437Y-24200514D01*
X41018437Y-24200514D02*
X40923199Y-24390990D01*
X40923199Y-24390990D02*
X40923199Y-24867180D01*
X40923199Y-24867180D02*
X41018437Y-25057657D01*
X41018437Y-25057657D02*
X41113675Y-25152895D01*
X41113675Y-25152895D02*
X41304151Y-25248133D01*
X41304151Y-25248133D02*
X41685104Y-25248133D01*
X41685104Y-25248133D02*
X41875580Y-25152895D01*
X41875580Y-25152895D02*
X41970818Y-25057657D01*
X41970818Y-25057657D02*
X42066056Y-24867180D01*
X43780342Y-24010038D02*
X43399389Y-24010038D01*
X43399389Y-24010038D02*
X43208913Y-24105276D01*
X43208913Y-24105276D02*
X43113675Y-24200514D01*
X43113675Y-24200514D02*
X42923199Y-24486228D01*
X42923199Y-24486228D02*
X42827961Y-24867180D01*
X42827961Y-24867180D02*
X42827961Y-25629085D01*
X42827961Y-25629085D02*
X42923199Y-25819561D01*
X42923199Y-25819561D02*
X43018437Y-25914800D01*
X43018437Y-25914800D02*
X43208913Y-26010038D01*
X43208913Y-26010038D02*
X43589866Y-26010038D01*
X43589866Y-26010038D02*
X43780342Y-25914800D01*
X43780342Y-25914800D02*
X43875580Y-25819561D01*
X43875580Y-25819561D02*
X43970818Y-25629085D01*
X43970818Y-25629085D02*
X43970818Y-25152895D01*
X43970818Y-25152895D02*
X43875580Y-24962419D01*
X43875580Y-24962419D02*
X43780342Y-24867180D01*
X43780342Y-24867180D02*
X43589866Y-24771942D01*
X43589866Y-24771942D02*
X43208913Y-24771942D01*
X43208913Y-24771942D02*
X43018437Y-24867180D01*
X43018437Y-24867180D02*
X42923199Y-24962419D01*
X42923199Y-24962419D02*
X42827961Y-25152895D01*
X44351771Y-26200514D02*
X45875580Y-26200514D01*
X47018438Y-24962419D02*
X47304152Y-25057657D01*
X47304152Y-25057657D02*
X47399390Y-25152895D01*
X47399390Y-25152895D02*
X47494628Y-25343371D01*
X47494628Y-25343371D02*
X47494628Y-25629085D01*
X47494628Y-25629085D02*
X47399390Y-25819561D01*
X47399390Y-25819561D02*
X47304152Y-25914800D01*
X47304152Y-25914800D02*
X47113676Y-26010038D01*
X47113676Y-26010038D02*
X46351771Y-26010038D01*
X46351771Y-26010038D02*
X46351771Y-24010038D01*
X46351771Y-24010038D02*
X47018438Y-24010038D01*
X47018438Y-24010038D02*
X47208914Y-24105276D01*
X47208914Y-24105276D02*
X47304152Y-24200514D01*
X47304152Y-24200514D02*
X47399390Y-24390990D01*
X47399390Y-24390990D02*
X47399390Y-24581466D01*
X47399390Y-24581466D02*
X47304152Y-24771942D01*
X47304152Y-24771942D02*
X47208914Y-24867180D01*
X47208914Y-24867180D02*
X47018438Y-24962419D01*
X47018438Y-24962419D02*
X46351771Y-24962419D01*
X48351771Y-26010038D02*
X48351771Y-24676704D01*
X48351771Y-25057657D02*
X48447009Y-24867180D01*
X48447009Y-24867180D02*
X48542247Y-24771942D01*
X48542247Y-24771942D02*
X48732723Y-24676704D01*
X48732723Y-24676704D02*
X48923200Y-24676704D01*
X50351771Y-25914800D02*
X50161295Y-26010038D01*
X50161295Y-26010038D02*
X49780342Y-26010038D01*
X49780342Y-26010038D02*
X49589866Y-25914800D01*
X49589866Y-25914800D02*
X49494628Y-25724323D01*
X49494628Y-25724323D02*
X49494628Y-24962419D01*
X49494628Y-24962419D02*
X49589866Y-24771942D01*
X49589866Y-24771942D02*
X49780342Y-24676704D01*
X49780342Y-24676704D02*
X50161295Y-24676704D01*
X50161295Y-24676704D02*
X50351771Y-24771942D01*
X50351771Y-24771942D02*
X50447009Y-24962419D01*
X50447009Y-24962419D02*
X50447009Y-25152895D01*
X50447009Y-25152895D02*
X49494628Y-25343371D01*
X52161295Y-26010038D02*
X52161295Y-24962419D01*
X52161295Y-24962419D02*
X52066057Y-24771942D01*
X52066057Y-24771942D02*
X51875581Y-24676704D01*
X51875581Y-24676704D02*
X51494628Y-24676704D01*
X51494628Y-24676704D02*
X51304152Y-24771942D01*
X52161295Y-25914800D02*
X51970819Y-26010038D01*
X51970819Y-26010038D02*
X51494628Y-26010038D01*
X51494628Y-26010038D02*
X51304152Y-25914800D01*
X51304152Y-25914800D02*
X51208914Y-25724323D01*
X51208914Y-25724323D02*
X51208914Y-25533847D01*
X51208914Y-25533847D02*
X51304152Y-25343371D01*
X51304152Y-25343371D02*
X51494628Y-25248133D01*
X51494628Y-25248133D02*
X51970819Y-25248133D01*
X51970819Y-25248133D02*
X52161295Y-25152895D01*
X53113676Y-26010038D02*
X53113676Y-24010038D01*
X53304152Y-25248133D02*
X53875581Y-26010038D01*
X53875581Y-24676704D02*
X53113676Y-25438609D01*
X55018438Y-26010038D02*
X54827962Y-25914800D01*
X54827962Y-25914800D02*
X54732724Y-25819561D01*
X54732724Y-25819561D02*
X54637486Y-25629085D01*
X54637486Y-25629085D02*
X54637486Y-25057657D01*
X54637486Y-25057657D02*
X54732724Y-24867180D01*
X54732724Y-24867180D02*
X54827962Y-24771942D01*
X54827962Y-24771942D02*
X55018438Y-24676704D01*
X55018438Y-24676704D02*
X55304153Y-24676704D01*
X55304153Y-24676704D02*
X55494629Y-24771942D01*
X55494629Y-24771942D02*
X55589867Y-24867180D01*
X55589867Y-24867180D02*
X55685105Y-25057657D01*
X55685105Y-25057657D02*
X55685105Y-25629085D01*
X55685105Y-25629085D02*
X55589867Y-25819561D01*
X55589867Y-25819561D02*
X55494629Y-25914800D01*
X55494629Y-25914800D02*
X55304153Y-26010038D01*
X55304153Y-26010038D02*
X55018438Y-26010038D01*
X57399391Y-24676704D02*
X57399391Y-26010038D01*
X56542248Y-24676704D02*
X56542248Y-25724323D01*
X56542248Y-25724323D02*
X56637486Y-25914800D01*
X56637486Y-25914800D02*
X56827962Y-26010038D01*
X56827962Y-26010038D02*
X57113677Y-26010038D01*
X57113677Y-26010038D02*
X57304153Y-25914800D01*
X57304153Y-25914800D02*
X57399391Y-25819561D01*
X58066058Y-24676704D02*
X58827962Y-24676704D01*
X58351772Y-24010038D02*
X58351772Y-25724323D01*
X58351772Y-25724323D02*
X58447010Y-25914800D01*
X58447010Y-25914800D02*
X58637486Y-26010038D01*
X58637486Y-26010038D02*
X58827962Y-26010038D01*
X59956915Y-15606619D02*
X60290248Y-16606619D01*
X60290248Y-16606619D02*
X60623581Y-15606619D01*
X60956915Y-16606619D02*
X60956915Y-15606619D01*
X61433105Y-16606619D02*
X61433105Y-15606619D01*
X61433105Y-15606619D02*
X62004533Y-16606619D01*
X62004533Y-16606619D02*
X62004533Y-15606619D01*
X62480724Y-16225666D02*
X63242629Y-16225666D01*
X59956915Y-33437419D02*
X60290248Y-34437419D01*
X60290248Y-34437419D02*
X60623581Y-33437419D01*
X60956915Y-34437419D02*
X60956915Y-33437419D01*
X61433105Y-34437419D02*
X61433105Y-33437419D01*
X61433105Y-33437419D02*
X62004533Y-34437419D01*
X62004533Y-34437419D02*
X62004533Y-33437419D01*
X62480724Y-34056466D02*
X63242629Y-34056466D01*
X62861676Y-34437419D02*
X62861676Y-33675514D01*
X28429248Y-15606619D02*
X28762581Y-16606619D01*
X28762581Y-16606619D02*
X29095914Y-15606619D01*
X29619724Y-15606619D02*
X29810200Y-15606619D01*
X29810200Y-15606619D02*
X29905438Y-15654238D01*
X29905438Y-15654238D02*
X30000676Y-15749476D01*
X30000676Y-15749476D02*
X30048295Y-15939952D01*
X30048295Y-15939952D02*
X30048295Y-16273285D01*
X30048295Y-16273285D02*
X30000676Y-16463761D01*
X30000676Y-16463761D02*
X29905438Y-16559000D01*
X29905438Y-16559000D02*
X29810200Y-16606619D01*
X29810200Y-16606619D02*
X29619724Y-16606619D01*
X29619724Y-16606619D02*
X29524486Y-16559000D01*
X29524486Y-16559000D02*
X29429248Y-16463761D01*
X29429248Y-16463761D02*
X29381629Y-16273285D01*
X29381629Y-16273285D02*
X29381629Y-15939952D01*
X29381629Y-15939952D02*
X29429248Y-15749476D01*
X29429248Y-15749476D02*
X29524486Y-15654238D01*
X29524486Y-15654238D02*
X29619724Y-15606619D01*
X30476867Y-15606619D02*
X30476867Y-16416142D01*
X30476867Y-16416142D02*
X30524486Y-16511380D01*
X30524486Y-16511380D02*
X30572105Y-16559000D01*
X30572105Y-16559000D02*
X30667343Y-16606619D01*
X30667343Y-16606619D02*
X30857819Y-16606619D01*
X30857819Y-16606619D02*
X30953057Y-16559000D01*
X30953057Y-16559000D02*
X31000676Y-16511380D01*
X31000676Y-16511380D02*
X31048295Y-16416142D01*
X31048295Y-16416142D02*
X31048295Y-15606619D01*
X31381629Y-15606619D02*
X31953057Y-15606619D01*
X31667343Y-16606619D02*
X31667343Y-15606619D01*
X32286391Y-16225666D02*
X33048296Y-16225666D01*
X28302248Y-33488219D02*
X28635581Y-34488219D01*
X28635581Y-34488219D02*
X28968914Y-33488219D01*
X29492724Y-33488219D02*
X29683200Y-33488219D01*
X29683200Y-33488219D02*
X29778438Y-33535838D01*
X29778438Y-33535838D02*
X29873676Y-33631076D01*
X29873676Y-33631076D02*
X29921295Y-33821552D01*
X29921295Y-33821552D02*
X29921295Y-34154885D01*
X29921295Y-34154885D02*
X29873676Y-34345361D01*
X29873676Y-34345361D02*
X29778438Y-34440600D01*
X29778438Y-34440600D02*
X29683200Y-34488219D01*
X29683200Y-34488219D02*
X29492724Y-34488219D01*
X29492724Y-34488219D02*
X29397486Y-34440600D01*
X29397486Y-34440600D02*
X29302248Y-34345361D01*
X29302248Y-34345361D02*
X29254629Y-34154885D01*
X29254629Y-34154885D02*
X29254629Y-33821552D01*
X29254629Y-33821552D02*
X29302248Y-33631076D01*
X29302248Y-33631076D02*
X29397486Y-33535838D01*
X29397486Y-33535838D02*
X29492724Y-33488219D01*
X30349867Y-33488219D02*
X30349867Y-34297742D01*
X30349867Y-34297742D02*
X30397486Y-34392980D01*
X30397486Y-34392980D02*
X30445105Y-34440600D01*
X30445105Y-34440600D02*
X30540343Y-34488219D01*
X30540343Y-34488219D02*
X30730819Y-34488219D01*
X30730819Y-34488219D02*
X30826057Y-34440600D01*
X30826057Y-34440600D02*
X30873676Y-34392980D01*
X30873676Y-34392980D02*
X30921295Y-34297742D01*
X30921295Y-34297742D02*
X30921295Y-33488219D01*
X31254629Y-33488219D02*
X31826057Y-33488219D01*
X31540343Y-34488219D02*
X31540343Y-33488219D01*
X32159391Y-34107266D02*
X32921296Y-34107266D01*
X32540343Y-34488219D02*
X32540343Y-33726314D01*
X34205732Y-49200238D02*
X33253351Y-49200238D01*
X33253351Y-49200238D02*
X33253351Y-47200238D01*
X34872399Y-49200238D02*
X34872399Y-47200238D01*
X34872399Y-47200238D02*
X35539066Y-48628809D01*
X35539066Y-48628809D02*
X36205732Y-47200238D01*
X36205732Y-47200238D02*
X36205732Y-49200238D01*
X37062875Y-47390714D02*
X37158113Y-47295476D01*
X37158113Y-47295476D02*
X37348589Y-47200238D01*
X37348589Y-47200238D02*
X37824780Y-47200238D01*
X37824780Y-47200238D02*
X38015256Y-47295476D01*
X38015256Y-47295476D02*
X38110494Y-47390714D01*
X38110494Y-47390714D02*
X38205732Y-47581190D01*
X38205732Y-47581190D02*
X38205732Y-47771666D01*
X38205732Y-47771666D02*
X38110494Y-48057380D01*
X38110494Y-48057380D02*
X36967637Y-49200238D01*
X36967637Y-49200238D02*
X38205732Y-49200238D01*
X40015256Y-47200238D02*
X39062875Y-47200238D01*
X39062875Y-47200238D02*
X38967637Y-48152619D01*
X38967637Y-48152619D02*
X39062875Y-48057380D01*
X39062875Y-48057380D02*
X39253351Y-47962142D01*
X39253351Y-47962142D02*
X39729542Y-47962142D01*
X39729542Y-47962142D02*
X39920018Y-48057380D01*
X39920018Y-48057380D02*
X40015256Y-48152619D01*
X40015256Y-48152619D02*
X40110494Y-48343095D01*
X40110494Y-48343095D02*
X40110494Y-48819285D01*
X40110494Y-48819285D02*
X40015256Y-49009761D01*
X40015256Y-49009761D02*
X39920018Y-49105000D01*
X39920018Y-49105000D02*
X39729542Y-49200238D01*
X39729542Y-49200238D02*
X39253351Y-49200238D01*
X39253351Y-49200238D02*
X39062875Y-49105000D01*
X39062875Y-49105000D02*
X38967637Y-49009761D01*
X41062875Y-49200238D02*
X41443827Y-49200238D01*
X41443827Y-49200238D02*
X41634304Y-49105000D01*
X41634304Y-49105000D02*
X41729542Y-49009761D01*
X41729542Y-49009761D02*
X41920018Y-48724047D01*
X41920018Y-48724047D02*
X42015256Y-48343095D01*
X42015256Y-48343095D02*
X42015256Y-47581190D01*
X42015256Y-47581190D02*
X41920018Y-47390714D01*
X41920018Y-47390714D02*
X41824780Y-47295476D01*
X41824780Y-47295476D02*
X41634304Y-47200238D01*
X41634304Y-47200238D02*
X41253351Y-47200238D01*
X41253351Y-47200238D02*
X41062875Y-47295476D01*
X41062875Y-47295476D02*
X40967637Y-47390714D01*
X40967637Y-47390714D02*
X40872399Y-47581190D01*
X40872399Y-47581190D02*
X40872399Y-48057380D01*
X40872399Y-48057380D02*
X40967637Y-48247857D01*
X40967637Y-48247857D02*
X41062875Y-48343095D01*
X41062875Y-48343095D02*
X41253351Y-48438333D01*
X41253351Y-48438333D02*
X41634304Y-48438333D01*
X41634304Y-48438333D02*
X41824780Y-48343095D01*
X41824780Y-48343095D02*
X41920018Y-48247857D01*
X41920018Y-48247857D02*
X42015256Y-48057380D01*
X43729542Y-47200238D02*
X43348589Y-47200238D01*
X43348589Y-47200238D02*
X43158113Y-47295476D01*
X43158113Y-47295476D02*
X43062875Y-47390714D01*
X43062875Y-47390714D02*
X42872399Y-47676428D01*
X42872399Y-47676428D02*
X42777161Y-48057380D01*
X42777161Y-48057380D02*
X42777161Y-48819285D01*
X42777161Y-48819285D02*
X42872399Y-49009761D01*
X42872399Y-49009761D02*
X42967637Y-49105000D01*
X42967637Y-49105000D02*
X43158113Y-49200238D01*
X43158113Y-49200238D02*
X43539066Y-49200238D01*
X43539066Y-49200238D02*
X43729542Y-49105000D01*
X43729542Y-49105000D02*
X43824780Y-49009761D01*
X43824780Y-49009761D02*
X43920018Y-48819285D01*
X43920018Y-48819285D02*
X43920018Y-48343095D01*
X43920018Y-48343095D02*
X43824780Y-48152619D01*
X43824780Y-48152619D02*
X43729542Y-48057380D01*
X43729542Y-48057380D02*
X43539066Y-47962142D01*
X43539066Y-47962142D02*
X43158113Y-47962142D01*
X43158113Y-47962142D02*
X42967637Y-48057380D01*
X42967637Y-48057380D02*
X42872399Y-48152619D01*
X42872399Y-48152619D02*
X42777161Y-48343095D01*
X44300971Y-49390714D02*
X45824780Y-49390714D01*
X46967638Y-48152619D02*
X47253352Y-48247857D01*
X47253352Y-48247857D02*
X47348590Y-48343095D01*
X47348590Y-48343095D02*
X47443828Y-48533571D01*
X47443828Y-48533571D02*
X47443828Y-48819285D01*
X47443828Y-48819285D02*
X47348590Y-49009761D01*
X47348590Y-49009761D02*
X47253352Y-49105000D01*
X47253352Y-49105000D02*
X47062876Y-49200238D01*
X47062876Y-49200238D02*
X46300971Y-49200238D01*
X46300971Y-49200238D02*
X46300971Y-47200238D01*
X46300971Y-47200238D02*
X46967638Y-47200238D01*
X46967638Y-47200238D02*
X47158114Y-47295476D01*
X47158114Y-47295476D02*
X47253352Y-47390714D01*
X47253352Y-47390714D02*
X47348590Y-47581190D01*
X47348590Y-47581190D02*
X47348590Y-47771666D01*
X47348590Y-47771666D02*
X47253352Y-47962142D01*
X47253352Y-47962142D02*
X47158114Y-48057380D01*
X47158114Y-48057380D02*
X46967638Y-48152619D01*
X46967638Y-48152619D02*
X46300971Y-48152619D01*
X48300971Y-49200238D02*
X48300971Y-47866904D01*
X48300971Y-48247857D02*
X48396209Y-48057380D01*
X48396209Y-48057380D02*
X48491447Y-47962142D01*
X48491447Y-47962142D02*
X48681923Y-47866904D01*
X48681923Y-47866904D02*
X48872400Y-47866904D01*
X50300971Y-49105000D02*
X50110495Y-49200238D01*
X50110495Y-49200238D02*
X49729542Y-49200238D01*
X49729542Y-49200238D02*
X49539066Y-49105000D01*
X49539066Y-49105000D02*
X49443828Y-48914523D01*
X49443828Y-48914523D02*
X49443828Y-48152619D01*
X49443828Y-48152619D02*
X49539066Y-47962142D01*
X49539066Y-47962142D02*
X49729542Y-47866904D01*
X49729542Y-47866904D02*
X50110495Y-47866904D01*
X50110495Y-47866904D02*
X50300971Y-47962142D01*
X50300971Y-47962142D02*
X50396209Y-48152619D01*
X50396209Y-48152619D02*
X50396209Y-48343095D01*
X50396209Y-48343095D02*
X49443828Y-48533571D01*
X52110495Y-49200238D02*
X52110495Y-48152619D01*
X52110495Y-48152619D02*
X52015257Y-47962142D01*
X52015257Y-47962142D02*
X51824781Y-47866904D01*
X51824781Y-47866904D02*
X51443828Y-47866904D01*
X51443828Y-47866904D02*
X51253352Y-47962142D01*
X52110495Y-49105000D02*
X51920019Y-49200238D01*
X51920019Y-49200238D02*
X51443828Y-49200238D01*
X51443828Y-49200238D02*
X51253352Y-49105000D01*
X51253352Y-49105000D02*
X51158114Y-48914523D01*
X51158114Y-48914523D02*
X51158114Y-48724047D01*
X51158114Y-48724047D02*
X51253352Y-48533571D01*
X51253352Y-48533571D02*
X51443828Y-48438333D01*
X51443828Y-48438333D02*
X51920019Y-48438333D01*
X51920019Y-48438333D02*
X52110495Y-48343095D01*
X53062876Y-49200238D02*
X53062876Y-47200238D01*
X53253352Y-48438333D02*
X53824781Y-49200238D01*
X53824781Y-47866904D02*
X53062876Y-48628809D01*
X54967638Y-49200238D02*
X54777162Y-49105000D01*
X54777162Y-49105000D02*
X54681924Y-49009761D01*
X54681924Y-49009761D02*
X54586686Y-48819285D01*
X54586686Y-48819285D02*
X54586686Y-48247857D01*
X54586686Y-48247857D02*
X54681924Y-48057380D01*
X54681924Y-48057380D02*
X54777162Y-47962142D01*
X54777162Y-47962142D02*
X54967638Y-47866904D01*
X54967638Y-47866904D02*
X55253353Y-47866904D01*
X55253353Y-47866904D02*
X55443829Y-47962142D01*
X55443829Y-47962142D02*
X55539067Y-48057380D01*
X55539067Y-48057380D02*
X55634305Y-48247857D01*
X55634305Y-48247857D02*
X55634305Y-48819285D01*
X55634305Y-48819285D02*
X55539067Y-49009761D01*
X55539067Y-49009761D02*
X55443829Y-49105000D01*
X55443829Y-49105000D02*
X55253353Y-49200238D01*
X55253353Y-49200238D02*
X54967638Y-49200238D01*
X57348591Y-47866904D02*
X57348591Y-49200238D01*
X56491448Y-47866904D02*
X56491448Y-48914523D01*
X56491448Y-48914523D02*
X56586686Y-49105000D01*
X56586686Y-49105000D02*
X56777162Y-49200238D01*
X56777162Y-49200238D02*
X57062877Y-49200238D01*
X57062877Y-49200238D02*
X57253353Y-49105000D01*
X57253353Y-49105000D02*
X57348591Y-49009761D01*
X58015258Y-47866904D02*
X58777162Y-47866904D01*
X58300972Y-47200238D02*
X58300972Y-48914523D01*
X58300972Y-48914523D02*
X58396210Y-49105000D01*
X58396210Y-49105000D02*
X58586686Y-49200238D01*
X58586686Y-49200238D02*
X58777162Y-49200238D01*
X28251448Y-56678419D02*
X28584781Y-57678419D01*
X28584781Y-57678419D02*
X28918114Y-56678419D01*
X29441924Y-56678419D02*
X29632400Y-56678419D01*
X29632400Y-56678419D02*
X29727638Y-56726038D01*
X29727638Y-56726038D02*
X29822876Y-56821276D01*
X29822876Y-56821276D02*
X29870495Y-57011752D01*
X29870495Y-57011752D02*
X29870495Y-57345085D01*
X29870495Y-57345085D02*
X29822876Y-57535561D01*
X29822876Y-57535561D02*
X29727638Y-57630800D01*
X29727638Y-57630800D02*
X29632400Y-57678419D01*
X29632400Y-57678419D02*
X29441924Y-57678419D01*
X29441924Y-57678419D02*
X29346686Y-57630800D01*
X29346686Y-57630800D02*
X29251448Y-57535561D01*
X29251448Y-57535561D02*
X29203829Y-57345085D01*
X29203829Y-57345085D02*
X29203829Y-57011752D01*
X29203829Y-57011752D02*
X29251448Y-56821276D01*
X29251448Y-56821276D02*
X29346686Y-56726038D01*
X29346686Y-56726038D02*
X29441924Y-56678419D01*
X30299067Y-56678419D02*
X30299067Y-57487942D01*
X30299067Y-57487942D02*
X30346686Y-57583180D01*
X30346686Y-57583180D02*
X30394305Y-57630800D01*
X30394305Y-57630800D02*
X30489543Y-57678419D01*
X30489543Y-57678419D02*
X30680019Y-57678419D01*
X30680019Y-57678419D02*
X30775257Y-57630800D01*
X30775257Y-57630800D02*
X30822876Y-57583180D01*
X30822876Y-57583180D02*
X30870495Y-57487942D01*
X30870495Y-57487942D02*
X30870495Y-56678419D01*
X31203829Y-56678419D02*
X31775257Y-56678419D01*
X31489543Y-57678419D02*
X31489543Y-56678419D01*
X32108591Y-57297466D02*
X32870496Y-57297466D01*
X32489543Y-57678419D02*
X32489543Y-56916514D01*
X59906115Y-38796819D02*
X60239448Y-39796819D01*
X60239448Y-39796819D02*
X60572781Y-38796819D01*
X60906115Y-39796819D02*
X60906115Y-38796819D01*
X61382305Y-39796819D02*
X61382305Y-38796819D01*
X61382305Y-38796819D02*
X61953733Y-39796819D01*
X61953733Y-39796819D02*
X61953733Y-38796819D01*
X62429924Y-39415866D02*
X63191829Y-39415866D01*
X28378448Y-38796819D02*
X28711781Y-39796819D01*
X28711781Y-39796819D02*
X29045114Y-38796819D01*
X29568924Y-38796819D02*
X29759400Y-38796819D01*
X29759400Y-38796819D02*
X29854638Y-38844438D01*
X29854638Y-38844438D02*
X29949876Y-38939676D01*
X29949876Y-38939676D02*
X29997495Y-39130152D01*
X29997495Y-39130152D02*
X29997495Y-39463485D01*
X29997495Y-39463485D02*
X29949876Y-39653961D01*
X29949876Y-39653961D02*
X29854638Y-39749200D01*
X29854638Y-39749200D02*
X29759400Y-39796819D01*
X29759400Y-39796819D02*
X29568924Y-39796819D01*
X29568924Y-39796819D02*
X29473686Y-39749200D01*
X29473686Y-39749200D02*
X29378448Y-39653961D01*
X29378448Y-39653961D02*
X29330829Y-39463485D01*
X29330829Y-39463485D02*
X29330829Y-39130152D01*
X29330829Y-39130152D02*
X29378448Y-38939676D01*
X29378448Y-38939676D02*
X29473686Y-38844438D01*
X29473686Y-38844438D02*
X29568924Y-38796819D01*
X30426067Y-38796819D02*
X30426067Y-39606342D01*
X30426067Y-39606342D02*
X30473686Y-39701580D01*
X30473686Y-39701580D02*
X30521305Y-39749200D01*
X30521305Y-39749200D02*
X30616543Y-39796819D01*
X30616543Y-39796819D02*
X30807019Y-39796819D01*
X30807019Y-39796819D02*
X30902257Y-39749200D01*
X30902257Y-39749200D02*
X30949876Y-39701580D01*
X30949876Y-39701580D02*
X30997495Y-39606342D01*
X30997495Y-39606342D02*
X30997495Y-38796819D01*
X31330829Y-38796819D02*
X31902257Y-38796819D01*
X31616543Y-39796819D02*
X31616543Y-38796819D01*
X32235591Y-39415866D02*
X32997496Y-39415866D01*
X59906115Y-56627619D02*
X60239448Y-57627619D01*
X60239448Y-57627619D02*
X60572781Y-56627619D01*
X60906115Y-57627619D02*
X60906115Y-56627619D01*
X61382305Y-57627619D02*
X61382305Y-56627619D01*
X61382305Y-56627619D02*
X61953733Y-57627619D01*
X61953733Y-57627619D02*
X61953733Y-56627619D01*
X62429924Y-57246666D02*
X63191829Y-57246666D01*
X62810876Y-57627619D02*
X62810876Y-56865714D01*
D13*
%TO.C,SW2*%
X81979000Y-52532000D02*
X76009000Y-52532000D01*
X76009000Y-52532000D02*
X76009000Y-60152000D01*
X78269000Y-52542000D02*
X78269000Y-53292000D01*
X76769000Y-52542000D02*
X76019000Y-52542000D01*
X76019000Y-52542000D02*
X76019000Y-54342000D01*
X81219000Y-53292000D02*
X81219000Y-56342000D01*
X78269000Y-53292000D02*
X81219000Y-53292000D01*
X76769000Y-54342000D02*
X76769000Y-52542000D01*
X76019000Y-54342000D02*
X76769000Y-54342000D01*
X76769000Y-55842000D02*
X76019000Y-55842000D01*
X76019000Y-55842000D02*
X76019000Y-56842000D01*
X76769000Y-56842000D02*
X76769000Y-55842000D01*
X76019000Y-56842000D02*
X76769000Y-56842000D01*
X76769000Y-58342000D02*
X76019000Y-58342000D01*
X76019000Y-58342000D02*
X76019000Y-60142000D01*
X75719000Y-59192000D02*
X75719000Y-60442000D01*
X81219000Y-59392000D02*
X81219000Y-56342000D01*
X78269000Y-59392000D02*
X81219000Y-59392000D01*
X78269000Y-60142000D02*
X78269000Y-59392000D01*
X76769000Y-60142000D02*
X76769000Y-58342000D01*
X76019000Y-60142000D02*
X76769000Y-60142000D01*
X81979000Y-60152000D02*
X81979000Y-52532000D01*
X76009000Y-60152000D02*
X81979000Y-60152000D01*
X75719000Y-60442000D02*
X76969000Y-60442000D01*
%TO.C,SW6*%
X75719000Y-22636000D02*
X76969000Y-22636000D01*
X76009000Y-22346000D02*
X81979000Y-22346000D01*
X81979000Y-22346000D02*
X81979000Y-14726000D01*
X76019000Y-22336000D02*
X76769000Y-22336000D01*
X76769000Y-22336000D02*
X76769000Y-20536000D01*
X78269000Y-22336000D02*
X78269000Y-21586000D01*
X78269000Y-21586000D02*
X81219000Y-21586000D01*
X81219000Y-21586000D02*
X81219000Y-18536000D01*
X75719000Y-21386000D02*
X75719000Y-22636000D01*
X76019000Y-20536000D02*
X76019000Y-22336000D01*
X76769000Y-20536000D02*
X76019000Y-20536000D01*
X76019000Y-19036000D02*
X76769000Y-19036000D01*
X76769000Y-19036000D02*
X76769000Y-18036000D01*
X76019000Y-18036000D02*
X76019000Y-19036000D01*
X76769000Y-18036000D02*
X76019000Y-18036000D01*
X76019000Y-16536000D02*
X76769000Y-16536000D01*
X76769000Y-16536000D02*
X76769000Y-14736000D01*
X78269000Y-15486000D02*
X81219000Y-15486000D01*
X81219000Y-15486000D02*
X81219000Y-18536000D01*
X76019000Y-14736000D02*
X76019000Y-16536000D01*
X76769000Y-14736000D02*
X76019000Y-14736000D01*
X78269000Y-14736000D02*
X78269000Y-15486000D01*
X76009000Y-14726000D02*
X76009000Y-22346000D01*
X81979000Y-14726000D02*
X76009000Y-14726000D01*
%TO.C,SW5*%
X75719000Y-32092000D02*
X76969000Y-32092000D01*
X76009000Y-31802000D02*
X81979000Y-31802000D01*
X81979000Y-31802000D02*
X81979000Y-24182000D01*
X76019000Y-31792000D02*
X76769000Y-31792000D01*
X76769000Y-31792000D02*
X76769000Y-29992000D01*
X78269000Y-31792000D02*
X78269000Y-31042000D01*
X78269000Y-31042000D02*
X81219000Y-31042000D01*
X81219000Y-31042000D02*
X81219000Y-27992000D01*
X75719000Y-30842000D02*
X75719000Y-32092000D01*
X76019000Y-29992000D02*
X76019000Y-31792000D01*
X76769000Y-29992000D02*
X76019000Y-29992000D01*
X76019000Y-28492000D02*
X76769000Y-28492000D01*
X76769000Y-28492000D02*
X76769000Y-27492000D01*
X76019000Y-27492000D02*
X76019000Y-28492000D01*
X76769000Y-27492000D02*
X76019000Y-27492000D01*
X76019000Y-25992000D02*
X76769000Y-25992000D01*
X76769000Y-25992000D02*
X76769000Y-24192000D01*
X78269000Y-24942000D02*
X81219000Y-24942000D01*
X81219000Y-24942000D02*
X81219000Y-27992000D01*
X76019000Y-24192000D02*
X76019000Y-25992000D01*
X76769000Y-24192000D02*
X76019000Y-24192000D01*
X78269000Y-24192000D02*
X78269000Y-24942000D01*
X76009000Y-24182000D02*
X76009000Y-31802000D01*
X81979000Y-24182000D02*
X76009000Y-24182000D01*
%TO.C,SW4*%
X75719000Y-41542000D02*
X76969000Y-41542000D01*
X76009000Y-41252000D02*
X81979000Y-41252000D01*
X81979000Y-41252000D02*
X81979000Y-33632000D01*
X76019000Y-41242000D02*
X76769000Y-41242000D01*
X76769000Y-41242000D02*
X76769000Y-39442000D01*
X78269000Y-41242000D02*
X78269000Y-40492000D01*
X78269000Y-40492000D02*
X81219000Y-40492000D01*
X81219000Y-40492000D02*
X81219000Y-37442000D01*
X75719000Y-40292000D02*
X75719000Y-41542000D01*
X76019000Y-39442000D02*
X76019000Y-41242000D01*
X76769000Y-39442000D02*
X76019000Y-39442000D01*
X76019000Y-37942000D02*
X76769000Y-37942000D01*
X76769000Y-37942000D02*
X76769000Y-36942000D01*
X76019000Y-36942000D02*
X76019000Y-37942000D01*
X76769000Y-36942000D02*
X76019000Y-36942000D01*
X76019000Y-35442000D02*
X76769000Y-35442000D01*
X76769000Y-35442000D02*
X76769000Y-33642000D01*
X78269000Y-34392000D02*
X81219000Y-34392000D01*
X81219000Y-34392000D02*
X81219000Y-37442000D01*
X76019000Y-33642000D02*
X76019000Y-35442000D01*
X76769000Y-33642000D02*
X76019000Y-33642000D01*
X78269000Y-33642000D02*
X78269000Y-34392000D01*
X76009000Y-33632000D02*
X76009000Y-41252000D01*
X81979000Y-33632000D02*
X76009000Y-33632000D01*
%TO.C,SW3*%
X75719000Y-50992000D02*
X76969000Y-50992000D01*
X76009000Y-50702000D02*
X81979000Y-50702000D01*
X81979000Y-50702000D02*
X81979000Y-43082000D01*
X76019000Y-50692000D02*
X76769000Y-50692000D01*
X76769000Y-50692000D02*
X76769000Y-48892000D01*
X78269000Y-50692000D02*
X78269000Y-49942000D01*
X78269000Y-49942000D02*
X81219000Y-49942000D01*
X81219000Y-49942000D02*
X81219000Y-46892000D01*
X75719000Y-49742000D02*
X75719000Y-50992000D01*
X76019000Y-48892000D02*
X76019000Y-50692000D01*
X76769000Y-48892000D02*
X76019000Y-48892000D01*
X76019000Y-47392000D02*
X76769000Y-47392000D01*
X76769000Y-47392000D02*
X76769000Y-46392000D01*
X76019000Y-46392000D02*
X76019000Y-47392000D01*
X76769000Y-46392000D02*
X76019000Y-46392000D01*
X76019000Y-44892000D02*
X76769000Y-44892000D01*
X76769000Y-44892000D02*
X76769000Y-43092000D01*
X78269000Y-43842000D02*
X81219000Y-43842000D01*
X81219000Y-43842000D02*
X81219000Y-46892000D01*
X76019000Y-43092000D02*
X76019000Y-44892000D01*
X76769000Y-43092000D02*
X76019000Y-43092000D01*
X78269000Y-43092000D02*
X78269000Y-43842000D01*
X76009000Y-43082000D02*
X76009000Y-50702000D01*
X81979000Y-43082000D02*
X76009000Y-43082000D01*
%TO.C,SW1*%
X75719000Y-69886000D02*
X76969000Y-69886000D01*
X76009000Y-69596000D02*
X81979000Y-69596000D01*
X81979000Y-69596000D02*
X81979000Y-61976000D01*
X76019000Y-69586000D02*
X76769000Y-69586000D01*
X76769000Y-69586000D02*
X76769000Y-67786000D01*
X78269000Y-69586000D02*
X78269000Y-68836000D01*
X78269000Y-68836000D02*
X81219000Y-68836000D01*
X81219000Y-68836000D02*
X81219000Y-65786000D01*
X75719000Y-68636000D02*
X75719000Y-69886000D01*
X76019000Y-67786000D02*
X76019000Y-69586000D01*
X76769000Y-67786000D02*
X76019000Y-67786000D01*
X76019000Y-66286000D02*
X76769000Y-66286000D01*
X76769000Y-66286000D02*
X76769000Y-65286000D01*
X76019000Y-65286000D02*
X76019000Y-66286000D01*
X76769000Y-65286000D02*
X76019000Y-65286000D01*
X76019000Y-63786000D02*
X76769000Y-63786000D01*
X76769000Y-63786000D02*
X76769000Y-61986000D01*
X78269000Y-62736000D02*
X81219000Y-62736000D01*
X81219000Y-62736000D02*
X81219000Y-65786000D01*
X76019000Y-61986000D02*
X76019000Y-63786000D01*
X76769000Y-61986000D02*
X76019000Y-61986000D01*
X78269000Y-61986000D02*
X78269000Y-62736000D01*
X76009000Y-61976000D02*
X76009000Y-69596000D01*
X81979000Y-61976000D02*
X76009000Y-61976000D01*
%TO.C,SG90*%
X21788000Y-63798000D02*
X21788000Y-65048000D01*
X22078000Y-64088000D02*
X22078000Y-70058000D01*
X22078000Y-70058000D02*
X29698000Y-70058000D01*
X22088000Y-64098000D02*
X22088000Y-64848000D01*
X22088000Y-64848000D02*
X23888000Y-64848000D01*
X22088000Y-66348000D02*
X22838000Y-66348000D01*
X22838000Y-66348000D02*
X22838000Y-69298000D01*
X22838000Y-69298000D02*
X25888000Y-69298000D01*
X23038000Y-63798000D02*
X21788000Y-63798000D01*
X23888000Y-64098000D02*
X22088000Y-64098000D01*
X23888000Y-64848000D02*
X23888000Y-64098000D01*
X25388000Y-64098000D02*
X25388000Y-64848000D01*
X25388000Y-64848000D02*
X26388000Y-64848000D01*
X26388000Y-64098000D02*
X25388000Y-64098000D01*
X26388000Y-64848000D02*
X26388000Y-64098000D01*
X27888000Y-64098000D02*
X27888000Y-64848000D01*
X27888000Y-64848000D02*
X29688000Y-64848000D01*
X28938000Y-66348000D02*
X28938000Y-69298000D01*
X28938000Y-69298000D02*
X25888000Y-69298000D01*
X29688000Y-64098000D02*
X27888000Y-64098000D01*
X29688000Y-64848000D02*
X29688000Y-64098000D01*
X29688000Y-66348000D02*
X28938000Y-66348000D01*
X29698000Y-64088000D02*
X22078000Y-64088000D01*
X29698000Y-70058000D02*
X29698000Y-64088000D01*
%TO.C,HBRIDGE_2*%
X59380000Y-63798000D02*
X59380000Y-65048000D01*
X59670000Y-64088000D02*
X59670000Y-70058000D01*
X59670000Y-70058000D02*
X67290000Y-70058000D01*
X59680000Y-64098000D02*
X59680000Y-64848000D01*
X59680000Y-64848000D02*
X61480000Y-64848000D01*
X59680000Y-66348000D02*
X60430000Y-66348000D01*
X60430000Y-66348000D02*
X60430000Y-69298000D01*
X60430000Y-69298000D02*
X63480000Y-69298000D01*
X60630000Y-63798000D02*
X59380000Y-63798000D01*
X61480000Y-64098000D02*
X59680000Y-64098000D01*
X61480000Y-64848000D02*
X61480000Y-64098000D01*
X62980000Y-64098000D02*
X62980000Y-64848000D01*
X62980000Y-64848000D02*
X63980000Y-64848000D01*
X63980000Y-64098000D02*
X62980000Y-64098000D01*
X63980000Y-64848000D02*
X63980000Y-64098000D01*
X65480000Y-64098000D02*
X65480000Y-64848000D01*
X65480000Y-64848000D02*
X67280000Y-64848000D01*
X66530000Y-66348000D02*
X66530000Y-69298000D01*
X66530000Y-69298000D02*
X63480000Y-69298000D01*
X67280000Y-64098000D02*
X65480000Y-64098000D01*
X67280000Y-64848000D02*
X67280000Y-64098000D01*
X67280000Y-66348000D02*
X66530000Y-66348000D01*
X67290000Y-64088000D02*
X59670000Y-64088000D01*
X67290000Y-70058000D02*
X67290000Y-64088000D01*
%TO.C,HBRIDGE_1*%
X49982000Y-63798000D02*
X49982000Y-65048000D01*
X50272000Y-64088000D02*
X50272000Y-70058000D01*
X50272000Y-70058000D02*
X57892000Y-70058000D01*
X50282000Y-64098000D02*
X50282000Y-64848000D01*
X50282000Y-64848000D02*
X52082000Y-64848000D01*
X50282000Y-66348000D02*
X51032000Y-66348000D01*
X51032000Y-66348000D02*
X51032000Y-69298000D01*
X51032000Y-69298000D02*
X54082000Y-69298000D01*
X51232000Y-63798000D02*
X49982000Y-63798000D01*
X52082000Y-64098000D02*
X50282000Y-64098000D01*
X52082000Y-64848000D02*
X52082000Y-64098000D01*
X53582000Y-64098000D02*
X53582000Y-64848000D01*
X53582000Y-64848000D02*
X54582000Y-64848000D01*
X54582000Y-64098000D02*
X53582000Y-64098000D01*
X54582000Y-64848000D02*
X54582000Y-64098000D01*
X56082000Y-64098000D02*
X56082000Y-64848000D01*
X56082000Y-64848000D02*
X57882000Y-64848000D01*
X57132000Y-66348000D02*
X57132000Y-69298000D01*
X57132000Y-69298000D02*
X54082000Y-69298000D01*
X57882000Y-64098000D02*
X56082000Y-64098000D01*
X57882000Y-64848000D02*
X57882000Y-64098000D01*
X57882000Y-66348000D02*
X57132000Y-66348000D01*
X57892000Y-64088000D02*
X50272000Y-64088000D01*
X57892000Y-70058000D02*
X57892000Y-64088000D01*
%TO.C,HALLSENSOR1*%
X12410000Y-63798000D02*
X12410000Y-65048000D01*
X12700000Y-64088000D02*
X12700000Y-70058000D01*
X12700000Y-70058000D02*
X20320000Y-70058000D01*
X12710000Y-64098000D02*
X12710000Y-64848000D01*
X12710000Y-64848000D02*
X14510000Y-64848000D01*
X12710000Y-66348000D02*
X13460000Y-66348000D01*
X13460000Y-66348000D02*
X13460000Y-69298000D01*
X13460000Y-69298000D02*
X16510000Y-69298000D01*
X13660000Y-63798000D02*
X12410000Y-63798000D01*
X14510000Y-64098000D02*
X12710000Y-64098000D01*
X14510000Y-64848000D02*
X14510000Y-64098000D01*
X16010000Y-64098000D02*
X16010000Y-64848000D01*
X16010000Y-64848000D02*
X17010000Y-64848000D01*
X17010000Y-64098000D02*
X16010000Y-64098000D01*
X17010000Y-64848000D02*
X17010000Y-64098000D01*
X18510000Y-64098000D02*
X18510000Y-64848000D01*
X18510000Y-64848000D02*
X20310000Y-64848000D01*
X19560000Y-66348000D02*
X19560000Y-69298000D01*
X19560000Y-69298000D02*
X16510000Y-69298000D01*
X20310000Y-64098000D02*
X18510000Y-64098000D01*
X20310000Y-64848000D02*
X20310000Y-64098000D01*
X20310000Y-66348000D02*
X19560000Y-66348000D01*
X20320000Y-64088000D02*
X12700000Y-64088000D01*
X20320000Y-70058000D02*
X20320000Y-64088000D01*
%TO.C,ESP32PWR1*%
X31186000Y-63798000D02*
X31186000Y-65048000D01*
X31476000Y-64088000D02*
X31476000Y-70058000D01*
X31476000Y-70058000D02*
X39096000Y-70058000D01*
X31486000Y-64098000D02*
X31486000Y-64848000D01*
X31486000Y-64848000D02*
X33286000Y-64848000D01*
X31486000Y-66348000D02*
X32236000Y-66348000D01*
X32236000Y-66348000D02*
X32236000Y-69298000D01*
X32236000Y-69298000D02*
X35286000Y-69298000D01*
X32436000Y-63798000D02*
X31186000Y-63798000D01*
X33286000Y-64098000D02*
X31486000Y-64098000D01*
X33286000Y-64848000D02*
X33286000Y-64098000D01*
X34786000Y-64098000D02*
X34786000Y-64848000D01*
X34786000Y-64848000D02*
X35786000Y-64848000D01*
X35786000Y-64098000D02*
X34786000Y-64098000D01*
X35786000Y-64848000D02*
X35786000Y-64098000D01*
X37286000Y-64098000D02*
X37286000Y-64848000D01*
X37286000Y-64848000D02*
X39086000Y-64848000D01*
X38336000Y-66348000D02*
X38336000Y-69298000D01*
X38336000Y-69298000D02*
X35286000Y-69298000D01*
X39086000Y-64098000D02*
X37286000Y-64098000D01*
X39086000Y-64848000D02*
X39086000Y-64098000D01*
X39086000Y-66348000D02*
X38336000Y-66348000D01*
X39096000Y-64088000D02*
X31476000Y-64088000D01*
X39096000Y-70058000D02*
X39096000Y-64088000D01*
%TO.C,DS3235*%
X40584000Y-63798000D02*
X40584000Y-65048000D01*
X40874000Y-64088000D02*
X40874000Y-70058000D01*
X40874000Y-70058000D02*
X48494000Y-70058000D01*
X40884000Y-64098000D02*
X40884000Y-64848000D01*
X40884000Y-64848000D02*
X42684000Y-64848000D01*
X40884000Y-66348000D02*
X41634000Y-66348000D01*
X41634000Y-66348000D02*
X41634000Y-69298000D01*
X41634000Y-69298000D02*
X44684000Y-69298000D01*
X41834000Y-63798000D02*
X40584000Y-63798000D01*
X42684000Y-64098000D02*
X40884000Y-64098000D01*
X42684000Y-64848000D02*
X42684000Y-64098000D01*
X44184000Y-64098000D02*
X44184000Y-64848000D01*
X44184000Y-64848000D02*
X45184000Y-64848000D01*
X45184000Y-64098000D02*
X44184000Y-64098000D01*
X45184000Y-64848000D02*
X45184000Y-64098000D01*
X46684000Y-64098000D02*
X46684000Y-64848000D01*
X46684000Y-64848000D02*
X48484000Y-64848000D01*
X47734000Y-66348000D02*
X47734000Y-69298000D01*
X47734000Y-69298000D02*
X44684000Y-69298000D01*
X48484000Y-64098000D02*
X46684000Y-64098000D01*
X48484000Y-64848000D02*
X48484000Y-64098000D01*
X48484000Y-66348000D02*
X47734000Y-66348000D01*
X48494000Y-64088000D02*
X40874000Y-64088000D01*
X48494000Y-70058000D02*
X48494000Y-64088000D01*
%TO.C,BT2*%
X20784000Y-14422000D02*
X19534000Y-14422000D01*
X20494000Y-14712000D02*
X14524000Y-14712000D01*
X14524000Y-14712000D02*
X14524000Y-22332000D01*
X20484000Y-14722000D02*
X19734000Y-14722000D01*
X19734000Y-14722000D02*
X19734000Y-16522000D01*
X18234000Y-14722000D02*
X18234000Y-15472000D01*
X18234000Y-15472000D02*
X15284000Y-15472000D01*
X15284000Y-15472000D02*
X15284000Y-18522000D01*
X20784000Y-15672000D02*
X20784000Y-14422000D01*
X20484000Y-16522000D02*
X20484000Y-14722000D01*
X19734000Y-16522000D02*
X20484000Y-16522000D01*
X20484000Y-18022000D02*
X19734000Y-18022000D01*
X19734000Y-18022000D02*
X19734000Y-19022000D01*
X20484000Y-19022000D02*
X20484000Y-18022000D01*
X19734000Y-19022000D02*
X20484000Y-19022000D01*
X20484000Y-20522000D02*
X19734000Y-20522000D01*
X19734000Y-20522000D02*
X19734000Y-22322000D01*
X18234000Y-21572000D02*
X15284000Y-21572000D01*
X15284000Y-21572000D02*
X15284000Y-18522000D01*
X20484000Y-22322000D02*
X20484000Y-20522000D01*
X19734000Y-22322000D02*
X20484000Y-22322000D01*
X18234000Y-22322000D02*
X18234000Y-21572000D01*
X20494000Y-22332000D02*
X20494000Y-14712000D01*
X14524000Y-22332000D02*
X20494000Y-22332000D01*
%TO.C,BT1*%
X20784000Y-50784000D02*
X19534000Y-50784000D01*
X20494000Y-51074000D02*
X14524000Y-51074000D01*
X14524000Y-51074000D02*
X14524000Y-58694000D01*
X20484000Y-51084000D02*
X19734000Y-51084000D01*
X19734000Y-51084000D02*
X19734000Y-52884000D01*
X18234000Y-51084000D02*
X18234000Y-51834000D01*
X18234000Y-51834000D02*
X15284000Y-51834000D01*
X15284000Y-51834000D02*
X15284000Y-54884000D01*
X20784000Y-52034000D02*
X20784000Y-50784000D01*
X20484000Y-52884000D02*
X20484000Y-51084000D01*
X19734000Y-52884000D02*
X20484000Y-52884000D01*
X20484000Y-54384000D02*
X19734000Y-54384000D01*
X19734000Y-54384000D02*
X19734000Y-55384000D01*
X20484000Y-55384000D02*
X20484000Y-54384000D01*
X19734000Y-55384000D02*
X20484000Y-55384000D01*
X20484000Y-56884000D02*
X19734000Y-56884000D01*
X19734000Y-56884000D02*
X19734000Y-58684000D01*
X18234000Y-57934000D02*
X15284000Y-57934000D01*
X15284000Y-57934000D02*
X15284000Y-54884000D01*
X20484000Y-58684000D02*
X20484000Y-56884000D01*
X19734000Y-58684000D02*
X20484000Y-58684000D01*
X18234000Y-58684000D02*
X18234000Y-57934000D01*
X20494000Y-58694000D02*
X20494000Y-51074000D01*
X14524000Y-58694000D02*
X20494000Y-58694000D01*
%TO.C,U2*%
D10*
X24079200Y-35763200D02*
X67767200Y-35763200D01*
X67767200Y-14427200D01*
X24079200Y-14427200D01*
X24079200Y-35763200D01*
%TO.C,U1*%
X24028400Y-58953400D02*
X67716400Y-58953400D01*
X67716400Y-37617400D01*
X24028400Y-37617400D01*
X24028400Y-58953400D01*
%TD*%
%LPC*%
D14*
%TO.C,SW2*%
X78469000Y-55092000D03*
D15*
X78469000Y-57592000D03*
%TD*%
%TO.C,SW6*%
X78469000Y-19786000D03*
D14*
X78469000Y-17286000D03*
%TD*%
D15*
%TO.C,SW5*%
X78469000Y-29242000D03*
D14*
X78469000Y-26742000D03*
%TD*%
D15*
%TO.C,SW4*%
X78469000Y-38692000D03*
D14*
X78469000Y-36192000D03*
%TD*%
D15*
%TO.C,SW3*%
X78469000Y-48142000D03*
D14*
X78469000Y-45642000D03*
%TD*%
D15*
%TO.C,SW1*%
X78469000Y-67036000D03*
D14*
X78469000Y-64536000D03*
%TD*%
D16*
%TO.C,SG90*%
X24638000Y-66548000D03*
D17*
X27138000Y-66548000D03*
%TD*%
D16*
%TO.C,HBRIDGE_2*%
X62230000Y-66548000D03*
D17*
X64730000Y-66548000D03*
%TD*%
D16*
%TO.C,HBRIDGE_1*%
X52832000Y-66548000D03*
D17*
X55332000Y-66548000D03*
%TD*%
D16*
%TO.C,HALLSENSOR1*%
X15260000Y-66548000D03*
D17*
X17760000Y-66548000D03*
%TD*%
D16*
%TO.C,ESP32PWR1*%
X34036000Y-66548000D03*
D17*
X36536000Y-66548000D03*
%TD*%
D16*
%TO.C,DS3235*%
X43434000Y-66548000D03*
D17*
X45934000Y-66548000D03*
%TD*%
D18*
%TO.C,BT2*%
X18034000Y-17272000D03*
D14*
X18034000Y-19772000D03*
%TD*%
D18*
%TO.C,BT1*%
X18034000Y-53634000D03*
D14*
X18034000Y-56134000D03*
%TD*%
D19*
%TO.C,U2*%
X25806400Y-16154400D03*
X25806400Y-34036000D03*
X66040000Y-34036000D03*
X66040000Y-16154400D03*
%TD*%
%TO.C,U1*%
X25755600Y-39344600D03*
X25755600Y-57226200D03*
X65989200Y-57226200D03*
X65989200Y-39344600D03*
%TD*%
%LPD*%
M02*
