%TF.GenerationSoftware,KiCad,Pcbnew,9.0.2*%
%TF.CreationDate,2025-07-11T23:57:31-07:00*%
%TF.ProjectId,motherboard,6d6f7468-6572-4626-9f61-72642e6b6963,rev?*%
%TF.SameCoordinates,Original*%
%TF.FileFunction,Soldermask,Bot*%
%TF.FilePolarity,Negative*%
%FSLAX46Y46*%
G04 Gerber Fmt 4.6, Leading zero omitted, Abs format (unit mm)*
G04 Created by KiCad (PCBNEW 9.0.2) date 2025-07-11 23:57:31*
%MOMM*%
%LPD*%
G01*
G04 APERTURE LIST*
G04 Aperture macros list*
%AMRoundRect*
0 Rectangle with rounded corners*
0 $1 Rounding radius*
0 $2 $3 $4 $5 $6 $7 $8 $9 X,Y pos of 4 corners*
0 Add a 4 corners polygon primitive as box body*
4,1,4,$2,$3,$4,$5,$6,$7,$8,$9,$2,$3,0*
0 Add four circle primitives for the rounded corners*
1,1,$1+$1,$2,$3*
1,1,$1+$1,$4,$5*
1,1,$1+$1,$6,$7*
1,1,$1+$1,$8,$9*
0 Add four rect primitives between the rounded corners*
20,1,$1+$1,$2,$3,$4,$5,0*
20,1,$1+$1,$4,$5,$6,$7,0*
20,1,$1+$1,$6,$7,$8,$9,0*
20,1,$1+$1,$8,$9,$2,$3,0*%
G04 Aperture macros list end*
%ADD10O,1.700000X1.950000*%
%ADD11RoundRect,0.250000X0.600000X0.725000X-0.600000X0.725000X-0.600000X-0.725000X0.600000X-0.725000X0*%
%ADD12O,1.270000X2.540000*%
%ADD13RoundRect,0.250000X0.385000X-1.020000X0.385000X1.020000X-0.385000X1.020000X-0.385000X-1.020000X0*%
%ADD14RoundRect,0.250000X-0.600000X-0.725000X0.600000X-0.725000X0.600000X0.725000X-0.600000X0.725000X0*%
%ADD15C,1.600000*%
%ADD16O,1.950000X1.700000*%
%ADD17RoundRect,0.250000X0.725000X-0.600000X0.725000X0.600000X-0.725000X0.600000X-0.725000X-0.600000X0*%
%ADD18RoundRect,0.250000X0.600000X0.750000X-0.600000X0.750000X-0.600000X-0.750000X0.600000X-0.750000X0*%
%ADD19O,1.700000X2.000000*%
%ADD20R,1.700000X1.700000*%
%ADD21RoundRect,0.250000X0.550000X-0.550000X0.550000X0.550000X-0.550000X0.550000X-0.550000X-0.550000X0*%
%ADD22RoundRect,0.250000X0.750000X-0.600000X0.750000X0.600000X-0.750000X0.600000X-0.750000X-0.600000X0*%
%ADD23O,2.000000X1.700000*%
%ADD24RoundRect,0.250000X-0.750000X0.600000X-0.750000X-0.600000X0.750000X-0.600000X0.750000X0.600000X0*%
G04 APERTURE END LIST*
D10*
%TO.C,U4*%
X64028000Y-18304000D03*
X66528000Y-18304000D03*
D11*
X69028000Y-18304000D03*
%TD*%
D12*
%TO.C,U1*%
X17272000Y-44704000D03*
X19812000Y-44704000D03*
D13*
X55372000Y-26924000D03*
X55372000Y-44704000D03*
X14732000Y-44704000D03*
D12*
X52832000Y-26924000D03*
X47752000Y-26924000D03*
X50292000Y-26924000D03*
X42672000Y-26924000D03*
X45212000Y-26924000D03*
X29972000Y-44704000D03*
X27432000Y-44704000D03*
X32512000Y-44704000D03*
X24892000Y-44704000D03*
X22352000Y-44704000D03*
X19812000Y-26924000D03*
X17272000Y-26924000D03*
X14732000Y-26924000D03*
X22352000Y-26924000D03*
X42672000Y-44704000D03*
X35052000Y-44704000D03*
X40132000Y-44704000D03*
X37592000Y-44704000D03*
X32512000Y-26924000D03*
X35052000Y-26924000D03*
X24892000Y-26924000D03*
X27432000Y-26924000D03*
X57912000Y-44704000D03*
X29972000Y-26924000D03*
X47752000Y-44704000D03*
X57912000Y-26924000D03*
X52832000Y-44704000D03*
X37592000Y-26924000D03*
X45212000Y-44704000D03*
X40132000Y-26924000D03*
X50292000Y-44704000D03*
%TD*%
D10*
%TO.C,MG996R_1*%
X74168000Y-70462500D03*
X71668000Y-70462500D03*
D14*
X69168000Y-70462500D03*
%TD*%
D15*
%TO.C,R24*%
X84328000Y-47498000D03*
X97028000Y-47498000D03*
%TD*%
%TO.C,R16*%
X84328000Y-33858000D03*
X97028000Y-33858000D03*
%TD*%
%TO.C,R17*%
X84328000Y-38430000D03*
X97028000Y-38430000D03*
%TD*%
%TO.C,R18*%
X84328000Y-24968000D03*
X97028000Y-24968000D03*
%TD*%
%TO.C,R22*%
X84328000Y-29286000D03*
X97028000Y-29286000D03*
%TD*%
%TO.C,R23*%
X84328000Y-43002000D03*
X97028000Y-43002000D03*
%TD*%
%TO.C,R9*%
X80518000Y-48260000D03*
X80518000Y-35560000D03*
%TD*%
%TO.C,R8*%
X74676000Y-22352000D03*
X74676000Y-35052000D03*
%TD*%
%TO.C,R1*%
X63500000Y-38354000D03*
X63500000Y-51054000D03*
%TD*%
%TO.C,R20*%
X39268000Y-49022000D03*
X39268000Y-61722000D03*
%TD*%
%TO.C,R30*%
X48768000Y-49022000D03*
X48768000Y-61722000D03*
%TD*%
%TO.C,R19*%
X34518000Y-49022000D03*
X34518000Y-61722000D03*
%TD*%
%TO.C,R21*%
X44018000Y-49022000D03*
X44018000Y-61722000D03*
%TD*%
%TO.C,R11*%
X29768000Y-49022000D03*
X29768000Y-61722000D03*
%TD*%
%TO.C,R10*%
X25018000Y-49022000D03*
X25018000Y-61722000D03*
%TD*%
%TO.C,R3*%
X74676000Y-51054000D03*
X74676000Y-38354000D03*
%TD*%
D16*
%TO.C,U5*%
X109296500Y-40894000D03*
X109296500Y-43394000D03*
X109296500Y-45894000D03*
D17*
X109296500Y-48394000D03*
%TD*%
D15*
%TO.C,R15*%
X80594000Y-64770000D03*
X80594000Y-52070000D03*
%TD*%
%TO.C,R13*%
X95326000Y-64516000D03*
X95326000Y-51816000D03*
%TD*%
%TO.C,R12*%
X100076000Y-64516000D03*
X100076000Y-51816000D03*
%TD*%
%TO.C,R14*%
X85344000Y-64770000D03*
X85344000Y-52070000D03*
%TD*%
D18*
%TO.C,motor1*%
X18502000Y-18288000D03*
D19*
X16002000Y-18288000D03*
%TD*%
D18*
%TO.C,motor2*%
X27646000Y-18288000D03*
D19*
X25146000Y-18288000D03*
%TD*%
D14*
%TO.C,U9*%
X96554000Y-70180500D03*
D10*
X99054000Y-70180500D03*
X101554000Y-70180500D03*
X104054000Y-70180500D03*
%TD*%
D14*
%TO.C,SG90_1*%
X44276000Y-70358000D03*
D10*
X46776000Y-70358000D03*
X49276000Y-70358000D03*
%TD*%
D20*
%TO.C,J1*%
X102362000Y-14986000D03*
%TD*%
%TO.C,J5*%
X88900000Y-14986000D03*
%TD*%
D14*
%TO.C,Switches1*%
X24330000Y-70358000D03*
D10*
X26830000Y-70358000D03*
X29330000Y-70358000D03*
X31830000Y-70358000D03*
X34330000Y-70358000D03*
X36830000Y-70358000D03*
%TD*%
D15*
%TO.C,R7*%
X57912000Y-61722000D03*
X57912000Y-49022000D03*
%TD*%
D20*
%TO.C,J4*%
X84328000Y-14986000D03*
%TD*%
%TO.C,J7*%
X93472000Y-14986000D03*
%TD*%
D15*
%TO.C,R6*%
X53340000Y-61722000D03*
X53340000Y-49022000D03*
%TD*%
%TO.C,R4*%
X62738000Y-55880000D03*
X75438000Y-55880000D03*
%TD*%
D21*
%TO.C,U2*%
X62992000Y-33777000D03*
D15*
X65532000Y-33777000D03*
X68072000Y-33777000D03*
X70612000Y-33777000D03*
X70612000Y-26157000D03*
X68072000Y-26157000D03*
X65532000Y-26157000D03*
X62992000Y-26157000D03*
%TD*%
D11*
%TO.C,U3*%
X57364000Y-18304000D03*
D10*
X54864000Y-18304000D03*
X52364000Y-18304000D03*
%TD*%
D22*
%TO.C,PI_Connect1*%
X109220000Y-18756000D03*
D23*
X109220000Y-16256000D03*
%TD*%
D20*
%TO.C,J6*%
X98044000Y-14986000D03*
%TD*%
D24*
%TO.C,BT2*%
X19050000Y-51856000D03*
D23*
X19050000Y-54356000D03*
%TD*%
D24*
%TO.C,BT1*%
X19056500Y-61742000D03*
D23*
X19056500Y-64242000D03*
%TD*%
D15*
%TO.C,R2*%
X69088000Y-38354000D03*
X69088000Y-51054000D03*
%TD*%
D20*
%TO.C,J2*%
X75184000Y-14986000D03*
%TD*%
D14*
%TO.C,DS1*%
X56722000Y-70358000D03*
D10*
X59222000Y-70358000D03*
X61722000Y-70358000D03*
%TD*%
D20*
%TO.C,J3*%
X79756000Y-14986000D03*
%TD*%
D18*
%TO.C,motor3*%
X36790000Y-18288000D03*
D19*
X34290000Y-18288000D03*
%TD*%
D14*
%TO.C,U7*%
X81688000Y-70257000D03*
D10*
X84188000Y-70257000D03*
X86688000Y-70257000D03*
X89188000Y-70257000D03*
%TD*%
D17*
%TO.C,U6*%
X109474000Y-33094000D03*
D16*
X109474000Y-30594000D03*
X109474000Y-28094000D03*
X109474000Y-25594000D03*
%TD*%
D18*
%TO.C,motor4*%
X45934000Y-18288000D03*
D19*
X43434000Y-18288000D03*
%TD*%
D15*
%TO.C,R5*%
X62738000Y-60960000D03*
X75438000Y-60960000D03*
%TD*%
D17*
%TO.C,U8*%
X109296500Y-63694000D03*
D16*
X109296500Y-61194000D03*
X109296500Y-58694000D03*
X109296500Y-56194000D03*
%TD*%
M02*
