%TF.GenerationSoftware,KiCad,Pcbnew,9.0.2*%
%TF.CreationDate,2025-07-11T23:58:16-07:00*%
%TF.ProjectId,motherboard,6d6f7468-6572-4626-9f61-72642e6b6963,rev?*%
%TF.SameCoordinates,Original*%
%TF.FileFunction,Drillmap*%
%TF.FilePolarity,Positive*%
%FSLAX45Y45*%
G04 Gerber Fmt 4.5, Leading zero omitted, Abs format (unit mm)*
G04 Created by KiCad (PCBNEW 9.0.2) date 2025-07-11 23:58:16*
%MOMM*%
%LPD*%
G01*
G04 APERTURE LIST*
%ADD10C,0.050000*%
%ADD11C,0.200000*%
%ADD12C,0.100000*%
G04 APERTURE END LIST*
D10*
X10537800Y-2209800D02*
G75*
G02*
X10137800Y-2209800I-200000J0D01*
G01*
X10137800Y-2209800D02*
G75*
G02*
X10537800Y-2209800I200000J0D01*
G01*
X1978000Y-2209800D02*
G75*
G02*
X1578000Y-2209800I-200000J0D01*
G01*
X1578000Y-2209800D02*
G75*
G02*
X1978000Y-2209800I200000J0D01*
G01*
X1244600Y-1193800D02*
X11455400Y-1193800D01*
X11455400Y-7670800D01*
X1244600Y-7670800D01*
X1244600Y-1193800D01*
X1978000Y-7010400D02*
G75*
G02*
X1578000Y-7010400I-200000J0D01*
G01*
X1578000Y-7010400D02*
G75*
G02*
X1978000Y-7010400I200000J0D01*
G01*
X11274400Y-7010400D02*
G75*
G02*
X10874400Y-7010400I-200000J0D01*
G01*
X10874400Y-7010400D02*
G75*
G02*
X11274400Y-7010400I200000J0D01*
G01*
D11*
D12*
X3693400Y-4176000D02*
X3723400Y-4206000D01*
X3723400Y-4176000D02*
X3693400Y-4206000D01*
X4366500Y-3985500D02*
X4396500Y-4015500D01*
X4396500Y-3985500D02*
X4366500Y-4015500D01*
X4972600Y-3371747D02*
X5002600Y-3401747D01*
X5002600Y-3371747D02*
X4972600Y-3401747D01*
X5115800Y-3160000D02*
X5145800Y-3190000D01*
X5145800Y-3160000D02*
X5115800Y-3190000D01*
X5268200Y-3896600D02*
X5298200Y-3926600D01*
X5298200Y-3896600D02*
X5268200Y-3926600D01*
X5496800Y-3668000D02*
X5526800Y-3698000D01*
X5526800Y-3668000D02*
X5496800Y-3698000D01*
X5522200Y-3566400D02*
X5552200Y-3596400D01*
X5552200Y-3566400D02*
X5522200Y-3596400D01*
X5750800Y-4099800D02*
X5780800Y-4129800D01*
X5780800Y-4099800D02*
X5750800Y-4129800D01*
X5928600Y-4176000D02*
X5958600Y-4206000D01*
X5958600Y-4176000D02*
X5928600Y-4206000D01*
X5979400Y-3261600D02*
X6009400Y-3291600D01*
X6009400Y-3261600D02*
X5979400Y-3291600D01*
X5995600Y-3515600D02*
X6025600Y-3545600D01*
X6025600Y-3515600D02*
X5995600Y-3545600D01*
X6233400Y-2118600D02*
X6263400Y-2148600D01*
X6263400Y-2118600D02*
X6233400Y-2148600D01*
X6512800Y-2398000D02*
X6542800Y-2428000D01*
X6542800Y-2398000D02*
X6512800Y-2428000D01*
X6741400Y-2321800D02*
X6771400Y-2351800D01*
X6771400Y-2321800D02*
X6741400Y-2351800D01*
X6843000Y-2017000D02*
X6873000Y-2047000D01*
X6873000Y-2017000D02*
X6843000Y-2047000D01*
X7147800Y-3769600D02*
X7177800Y-3799600D01*
X7177800Y-3769600D02*
X7147800Y-3799600D01*
X8062200Y-2194800D02*
X8092200Y-2224800D01*
X8092200Y-2194800D02*
X8062200Y-2224800D01*
X8062200Y-2575800D02*
X8092200Y-2605800D01*
X8092200Y-2575800D02*
X8062200Y-2605800D01*
X1513200Y-2692400D02*
G75*
G02*
X1433200Y-2692400I-40000J0D01*
G01*
X1433200Y-2692400D02*
G75*
G02*
X1513200Y-2692400I40000J0D01*
G01*
X1513200Y-4470400D02*
G75*
G02*
X1433200Y-4470400I-40000J0D01*
G01*
X1433200Y-4470400D02*
G75*
G02*
X1513200Y-4470400I40000J0D01*
G01*
X1767200Y-2692400D02*
G75*
G02*
X1687200Y-2692400I-40000J0D01*
G01*
X1687200Y-2692400D02*
G75*
G02*
X1767200Y-2692400I40000J0D01*
G01*
X1767200Y-4470400D02*
G75*
G02*
X1687200Y-4470400I-40000J0D01*
G01*
X1687200Y-4470400D02*
G75*
G02*
X1767200Y-4470400I40000J0D01*
G01*
X2021200Y-2692400D02*
G75*
G02*
X1941200Y-2692400I-40000J0D01*
G01*
X1941200Y-2692400D02*
G75*
G02*
X2021200Y-2692400I40000J0D01*
G01*
X2021200Y-4470400D02*
G75*
G02*
X1941200Y-4470400I-40000J0D01*
G01*
X1941200Y-4470400D02*
G75*
G02*
X2021200Y-4470400I40000J0D01*
G01*
X2275200Y-2692400D02*
G75*
G02*
X2195200Y-2692400I-40000J0D01*
G01*
X2195200Y-2692400D02*
G75*
G02*
X2275200Y-2692400I40000J0D01*
G01*
X2275200Y-4470400D02*
G75*
G02*
X2195200Y-4470400I-40000J0D01*
G01*
X2195200Y-4470400D02*
G75*
G02*
X2275200Y-4470400I40000J0D01*
G01*
X2529200Y-2692400D02*
G75*
G02*
X2449200Y-2692400I-40000J0D01*
G01*
X2449200Y-2692400D02*
G75*
G02*
X2529200Y-2692400I40000J0D01*
G01*
X2529200Y-4470400D02*
G75*
G02*
X2449200Y-4470400I-40000J0D01*
G01*
X2449200Y-4470400D02*
G75*
G02*
X2529200Y-4470400I40000J0D01*
G01*
X2541800Y-4902200D02*
G75*
G02*
X2461800Y-4902200I-40000J0D01*
G01*
X2461800Y-4902200D02*
G75*
G02*
X2541800Y-4902200I40000J0D01*
G01*
X2541800Y-6172200D02*
G75*
G02*
X2461800Y-6172200I-40000J0D01*
G01*
X2461800Y-6172200D02*
G75*
G02*
X2541800Y-6172200I40000J0D01*
G01*
X2783200Y-2692400D02*
G75*
G02*
X2703200Y-2692400I-40000J0D01*
G01*
X2703200Y-2692400D02*
G75*
G02*
X2783200Y-2692400I40000J0D01*
G01*
X2783200Y-4470400D02*
G75*
G02*
X2703200Y-4470400I-40000J0D01*
G01*
X2703200Y-4470400D02*
G75*
G02*
X2783200Y-4470400I40000J0D01*
G01*
X3016800Y-4902200D02*
G75*
G02*
X2936800Y-4902200I-40000J0D01*
G01*
X2936800Y-4902200D02*
G75*
G02*
X3016800Y-4902200I40000J0D01*
G01*
X3016800Y-6172200D02*
G75*
G02*
X2936800Y-6172200I-40000J0D01*
G01*
X2936800Y-6172200D02*
G75*
G02*
X3016800Y-6172200I40000J0D01*
G01*
X3037200Y-2692400D02*
G75*
G02*
X2957200Y-2692400I-40000J0D01*
G01*
X2957200Y-2692400D02*
G75*
G02*
X3037200Y-2692400I40000J0D01*
G01*
X3037200Y-4470400D02*
G75*
G02*
X2957200Y-4470400I-40000J0D01*
G01*
X2957200Y-4470400D02*
G75*
G02*
X3037200Y-4470400I40000J0D01*
G01*
X3291200Y-2692400D02*
G75*
G02*
X3211200Y-2692400I-40000J0D01*
G01*
X3211200Y-2692400D02*
G75*
G02*
X3291200Y-2692400I40000J0D01*
G01*
X3291200Y-4470400D02*
G75*
G02*
X3211200Y-4470400I-40000J0D01*
G01*
X3211200Y-4470400D02*
G75*
G02*
X3291200Y-4470400I40000J0D01*
G01*
X3491800Y-4902200D02*
G75*
G02*
X3411800Y-4902200I-40000J0D01*
G01*
X3411800Y-4902200D02*
G75*
G02*
X3491800Y-4902200I40000J0D01*
G01*
X3491800Y-6172200D02*
G75*
G02*
X3411800Y-6172200I-40000J0D01*
G01*
X3411800Y-6172200D02*
G75*
G02*
X3491800Y-6172200I40000J0D01*
G01*
X3545200Y-2692400D02*
G75*
G02*
X3465200Y-2692400I-40000J0D01*
G01*
X3465200Y-2692400D02*
G75*
G02*
X3545200Y-2692400I40000J0D01*
G01*
X3545200Y-4470400D02*
G75*
G02*
X3465200Y-4470400I-40000J0D01*
G01*
X3465200Y-4470400D02*
G75*
G02*
X3545200Y-4470400I40000J0D01*
G01*
X3799200Y-2692400D02*
G75*
G02*
X3719200Y-2692400I-40000J0D01*
G01*
X3719200Y-2692400D02*
G75*
G02*
X3799200Y-2692400I40000J0D01*
G01*
X3799200Y-4470400D02*
G75*
G02*
X3719200Y-4470400I-40000J0D01*
G01*
X3719200Y-4470400D02*
G75*
G02*
X3799200Y-4470400I40000J0D01*
G01*
X3966800Y-4902200D02*
G75*
G02*
X3886800Y-4902200I-40000J0D01*
G01*
X3886800Y-4902200D02*
G75*
G02*
X3966800Y-4902200I40000J0D01*
G01*
X3966800Y-6172200D02*
G75*
G02*
X3886800Y-6172200I-40000J0D01*
G01*
X3886800Y-6172200D02*
G75*
G02*
X3966800Y-6172200I40000J0D01*
G01*
X4053200Y-2692400D02*
G75*
G02*
X3973200Y-2692400I-40000J0D01*
G01*
X3973200Y-2692400D02*
G75*
G02*
X4053200Y-2692400I40000J0D01*
G01*
X4053200Y-4470400D02*
G75*
G02*
X3973200Y-4470400I-40000J0D01*
G01*
X3973200Y-4470400D02*
G75*
G02*
X4053200Y-4470400I40000J0D01*
G01*
X4307200Y-2692400D02*
G75*
G02*
X4227200Y-2692400I-40000J0D01*
G01*
X4227200Y-2692400D02*
G75*
G02*
X4307200Y-2692400I40000J0D01*
G01*
X4307200Y-4470400D02*
G75*
G02*
X4227200Y-4470400I-40000J0D01*
G01*
X4227200Y-4470400D02*
G75*
G02*
X4307200Y-4470400I40000J0D01*
G01*
X4441800Y-4902200D02*
G75*
G02*
X4361800Y-4902200I-40000J0D01*
G01*
X4361800Y-4902200D02*
G75*
G02*
X4441800Y-4902200I40000J0D01*
G01*
X4441800Y-6172200D02*
G75*
G02*
X4361800Y-6172200I-40000J0D01*
G01*
X4361800Y-6172200D02*
G75*
G02*
X4441800Y-6172200I40000J0D01*
G01*
X4561200Y-2692400D02*
G75*
G02*
X4481200Y-2692400I-40000J0D01*
G01*
X4481200Y-2692400D02*
G75*
G02*
X4561200Y-2692400I40000J0D01*
G01*
X4561200Y-4470400D02*
G75*
G02*
X4481200Y-4470400I-40000J0D01*
G01*
X4481200Y-4470400D02*
G75*
G02*
X4561200Y-4470400I40000J0D01*
G01*
X4815200Y-2692400D02*
G75*
G02*
X4735200Y-2692400I-40000J0D01*
G01*
X4735200Y-2692400D02*
G75*
G02*
X4815200Y-2692400I40000J0D01*
G01*
X4815200Y-4470400D02*
G75*
G02*
X4735200Y-4470400I-40000J0D01*
G01*
X4735200Y-4470400D02*
G75*
G02*
X4815200Y-4470400I40000J0D01*
G01*
X4916800Y-4902200D02*
G75*
G02*
X4836800Y-4902200I-40000J0D01*
G01*
X4836800Y-4902200D02*
G75*
G02*
X4916800Y-4902200I40000J0D01*
G01*
X4916800Y-6172200D02*
G75*
G02*
X4836800Y-6172200I-40000J0D01*
G01*
X4836800Y-6172200D02*
G75*
G02*
X4916800Y-6172200I40000J0D01*
G01*
X5069200Y-2692400D02*
G75*
G02*
X4989200Y-2692400I-40000J0D01*
G01*
X4989200Y-2692400D02*
G75*
G02*
X5069200Y-2692400I40000J0D01*
G01*
X5069200Y-4470400D02*
G75*
G02*
X4989200Y-4470400I-40000J0D01*
G01*
X4989200Y-4470400D02*
G75*
G02*
X5069200Y-4470400I40000J0D01*
G01*
X5323200Y-2692400D02*
G75*
G02*
X5243200Y-2692400I-40000J0D01*
G01*
X5243200Y-2692400D02*
G75*
G02*
X5323200Y-2692400I40000J0D01*
G01*
X5323200Y-4470400D02*
G75*
G02*
X5243200Y-4470400I-40000J0D01*
G01*
X5243200Y-4470400D02*
G75*
G02*
X5323200Y-4470400I40000J0D01*
G01*
X5374000Y-4902200D02*
G75*
G02*
X5294000Y-4902200I-40000J0D01*
G01*
X5294000Y-4902200D02*
G75*
G02*
X5374000Y-4902200I40000J0D01*
G01*
X5374000Y-6172200D02*
G75*
G02*
X5294000Y-6172200I-40000J0D01*
G01*
X5294000Y-6172200D02*
G75*
G02*
X5374000Y-6172200I40000J0D01*
G01*
X5577200Y-2692400D02*
G75*
G02*
X5497200Y-2692400I-40000J0D01*
G01*
X5497200Y-2692400D02*
G75*
G02*
X5577200Y-2692400I40000J0D01*
G01*
X5577200Y-4470400D02*
G75*
G02*
X5497200Y-4470400I-40000J0D01*
G01*
X5497200Y-4470400D02*
G75*
G02*
X5577200Y-4470400I40000J0D01*
G01*
X5831200Y-2692400D02*
G75*
G02*
X5751200Y-2692400I-40000J0D01*
G01*
X5751200Y-2692400D02*
G75*
G02*
X5831200Y-2692400I40000J0D01*
G01*
X5831200Y-4470400D02*
G75*
G02*
X5751200Y-4470400I-40000J0D01*
G01*
X5751200Y-4470400D02*
G75*
G02*
X5831200Y-4470400I40000J0D01*
G01*
X5831200Y-4902200D02*
G75*
G02*
X5751200Y-4902200I-40000J0D01*
G01*
X5751200Y-4902200D02*
G75*
G02*
X5831200Y-4902200I40000J0D01*
G01*
X5831200Y-6172200D02*
G75*
G02*
X5751200Y-6172200I-40000J0D01*
G01*
X5751200Y-6172200D02*
G75*
G02*
X5831200Y-6172200I40000J0D01*
G01*
X6313800Y-5588000D02*
G75*
G02*
X6233800Y-5588000I-40000J0D01*
G01*
X6233800Y-5588000D02*
G75*
G02*
X6313800Y-5588000I40000J0D01*
G01*
X6313800Y-6096000D02*
G75*
G02*
X6233800Y-6096000I-40000J0D01*
G01*
X6233800Y-6096000D02*
G75*
G02*
X6313800Y-6096000I40000J0D01*
G01*
X6339200Y-2615700D02*
G75*
G02*
X6259200Y-2615700I-40000J0D01*
G01*
X6259200Y-2615700D02*
G75*
G02*
X6339200Y-2615700I40000J0D01*
G01*
X6339200Y-3377700D02*
G75*
G02*
X6259200Y-3377700I-40000J0D01*
G01*
X6259200Y-3377700D02*
G75*
G02*
X6339200Y-3377700I40000J0D01*
G01*
X6390000Y-3835400D02*
G75*
G02*
X6310000Y-3835400I-40000J0D01*
G01*
X6310000Y-3835400D02*
G75*
G02*
X6390000Y-3835400I40000J0D01*
G01*
X6390000Y-5105400D02*
G75*
G02*
X6310000Y-5105400I-40000J0D01*
G01*
X6310000Y-5105400D02*
G75*
G02*
X6390000Y-5105400I40000J0D01*
G01*
X6593200Y-2615700D02*
G75*
G02*
X6513200Y-2615700I-40000J0D01*
G01*
X6513200Y-2615700D02*
G75*
G02*
X6593200Y-2615700I40000J0D01*
G01*
X6593200Y-3377700D02*
G75*
G02*
X6513200Y-3377700I-40000J0D01*
G01*
X6513200Y-3377700D02*
G75*
G02*
X6593200Y-3377700I40000J0D01*
G01*
X6847200Y-2615700D02*
G75*
G02*
X6767200Y-2615700I-40000J0D01*
G01*
X6767200Y-2615700D02*
G75*
G02*
X6847200Y-2615700I40000J0D01*
G01*
X6847200Y-3377700D02*
G75*
G02*
X6767200Y-3377700I-40000J0D01*
G01*
X6767200Y-3377700D02*
G75*
G02*
X6847200Y-3377700I40000J0D01*
G01*
X6948800Y-3835400D02*
G75*
G02*
X6868800Y-3835400I-40000J0D01*
G01*
X6868800Y-3835400D02*
G75*
G02*
X6948800Y-3835400I40000J0D01*
G01*
X6948800Y-5105400D02*
G75*
G02*
X6868800Y-5105400I-40000J0D01*
G01*
X6868800Y-5105400D02*
G75*
G02*
X6948800Y-5105400I40000J0D01*
G01*
X7101200Y-2615700D02*
G75*
G02*
X7021200Y-2615700I-40000J0D01*
G01*
X7021200Y-2615700D02*
G75*
G02*
X7101200Y-2615700I40000J0D01*
G01*
X7101200Y-3377700D02*
G75*
G02*
X7021200Y-3377700I-40000J0D01*
G01*
X7021200Y-3377700D02*
G75*
G02*
X7101200Y-3377700I40000J0D01*
G01*
X7507600Y-2235200D02*
G75*
G02*
X7427600Y-2235200I-40000J0D01*
G01*
X7427600Y-2235200D02*
G75*
G02*
X7507600Y-2235200I40000J0D01*
G01*
X7507600Y-3505200D02*
G75*
G02*
X7427600Y-3505200I-40000J0D01*
G01*
X7427600Y-3505200D02*
G75*
G02*
X7507600Y-3505200I40000J0D01*
G01*
X7507600Y-3835400D02*
G75*
G02*
X7427600Y-3835400I-40000J0D01*
G01*
X7427600Y-3835400D02*
G75*
G02*
X7507600Y-3835400I40000J0D01*
G01*
X7507600Y-5105400D02*
G75*
G02*
X7427600Y-5105400I-40000J0D01*
G01*
X7427600Y-5105400D02*
G75*
G02*
X7507600Y-5105400I40000J0D01*
G01*
X7583800Y-5588000D02*
G75*
G02*
X7503800Y-5588000I-40000J0D01*
G01*
X7503800Y-5588000D02*
G75*
G02*
X7583800Y-5588000I40000J0D01*
G01*
X7583800Y-6096000D02*
G75*
G02*
X7503800Y-6096000I-40000J0D01*
G01*
X7503800Y-6096000D02*
G75*
G02*
X7583800Y-6096000I40000J0D01*
G01*
X8091800Y-3556000D02*
G75*
G02*
X8011800Y-3556000I-40000J0D01*
G01*
X8011800Y-3556000D02*
G75*
G02*
X8091800Y-3556000I40000J0D01*
G01*
X8091800Y-4826000D02*
G75*
G02*
X8011800Y-4826000I-40000J0D01*
G01*
X8011800Y-4826000D02*
G75*
G02*
X8091800Y-4826000I40000J0D01*
G01*
X8099400Y-5207000D02*
G75*
G02*
X8019400Y-5207000I-40000J0D01*
G01*
X8019400Y-5207000D02*
G75*
G02*
X8099400Y-5207000I40000J0D01*
G01*
X8099400Y-6477000D02*
G75*
G02*
X8019400Y-6477000I-40000J0D01*
G01*
X8019400Y-6477000D02*
G75*
G02*
X8099400Y-6477000I40000J0D01*
G01*
X8472800Y-2496800D02*
G75*
G02*
X8392800Y-2496800I-40000J0D01*
G01*
X8392800Y-2496800D02*
G75*
G02*
X8472800Y-2496800I40000J0D01*
G01*
X8472800Y-2928600D02*
G75*
G02*
X8392800Y-2928600I-40000J0D01*
G01*
X8392800Y-2928600D02*
G75*
G02*
X8472800Y-2928600I40000J0D01*
G01*
X8472800Y-3385800D02*
G75*
G02*
X8392800Y-3385800I-40000J0D01*
G01*
X8392800Y-3385800D02*
G75*
G02*
X8472800Y-3385800I40000J0D01*
G01*
X8472800Y-3843000D02*
G75*
G02*
X8392800Y-3843000I-40000J0D01*
G01*
X8392800Y-3843000D02*
G75*
G02*
X8472800Y-3843000I40000J0D01*
G01*
X8472800Y-4300200D02*
G75*
G02*
X8392800Y-4300200I-40000J0D01*
G01*
X8392800Y-4300200D02*
G75*
G02*
X8472800Y-4300200I40000J0D01*
G01*
X8472800Y-4749800D02*
G75*
G02*
X8392800Y-4749800I-40000J0D01*
G01*
X8392800Y-4749800D02*
G75*
G02*
X8472800Y-4749800I40000J0D01*
G01*
X8574400Y-5207000D02*
G75*
G02*
X8494400Y-5207000I-40000J0D01*
G01*
X8494400Y-5207000D02*
G75*
G02*
X8574400Y-5207000I40000J0D01*
G01*
X8574400Y-6477000D02*
G75*
G02*
X8494400Y-6477000I-40000J0D01*
G01*
X8494400Y-6477000D02*
G75*
G02*
X8574400Y-6477000I40000J0D01*
G01*
X9572600Y-5181600D02*
G75*
G02*
X9492600Y-5181600I-40000J0D01*
G01*
X9492600Y-5181600D02*
G75*
G02*
X9572600Y-5181600I40000J0D01*
G01*
X9572600Y-6451600D02*
G75*
G02*
X9492600Y-6451600I-40000J0D01*
G01*
X9492600Y-6451600D02*
G75*
G02*
X9572600Y-6451600I40000J0D01*
G01*
X9742800Y-2496800D02*
G75*
G02*
X9662800Y-2496800I-40000J0D01*
G01*
X9662800Y-2496800D02*
G75*
G02*
X9742800Y-2496800I40000J0D01*
G01*
X9742800Y-2928600D02*
G75*
G02*
X9662800Y-2928600I-40000J0D01*
G01*
X9662800Y-2928600D02*
G75*
G02*
X9742800Y-2928600I40000J0D01*
G01*
X9742800Y-3385800D02*
G75*
G02*
X9662800Y-3385800I-40000J0D01*
G01*
X9662800Y-3385800D02*
G75*
G02*
X9742800Y-3385800I40000J0D01*
G01*
X9742800Y-3843000D02*
G75*
G02*
X9662800Y-3843000I-40000J0D01*
G01*
X9662800Y-3843000D02*
G75*
G02*
X9742800Y-3843000I40000J0D01*
G01*
X9742800Y-4300200D02*
G75*
G02*
X9662800Y-4300200I-40000J0D01*
G01*
X9662800Y-4300200D02*
G75*
G02*
X9742800Y-4300200I40000J0D01*
G01*
X9742800Y-4749800D02*
G75*
G02*
X9662800Y-4749800I-40000J0D01*
G01*
X9662800Y-4749800D02*
G75*
G02*
X9742800Y-4749800I40000J0D01*
G01*
X10047600Y-5181600D02*
G75*
G02*
X9967600Y-5181600I-40000J0D01*
G01*
X9967600Y-5181600D02*
G75*
G02*
X10047600Y-5181600I40000J0D01*
G01*
X10047600Y-6451600D02*
G75*
G02*
X9967600Y-6451600I-40000J0D01*
G01*
X9967600Y-6451600D02*
G75*
G02*
X10047600Y-6451600I40000J0D01*
G01*
X2433000Y-6988300D02*
X2433000Y-7083300D01*
X2385500Y-7035800D02*
X2480500Y-7035800D01*
X2683000Y-6988300D02*
X2683000Y-7083300D01*
X2635500Y-7035800D02*
X2730500Y-7035800D01*
X2933000Y-6988300D02*
X2933000Y-7083300D01*
X2885500Y-7035800D02*
X2980500Y-7035800D01*
X3183000Y-6988300D02*
X3183000Y-7083300D01*
X3135500Y-7035800D02*
X3230500Y-7035800D01*
X3433000Y-6988300D02*
X3433000Y-7083300D01*
X3385500Y-7035800D02*
X3480500Y-7035800D01*
X3683000Y-6988300D02*
X3683000Y-7083300D01*
X3635500Y-7035800D02*
X3730500Y-7035800D01*
X4427600Y-6988300D02*
X4427600Y-7083300D01*
X4380100Y-7035800D02*
X4475100Y-7035800D01*
X4677600Y-6988300D02*
X4677600Y-7083300D01*
X4630100Y-7035800D02*
X4725100Y-7035800D01*
X4927600Y-6988300D02*
X4927600Y-7083300D01*
X4880100Y-7035800D02*
X4975100Y-7035800D01*
X5236400Y-1782900D02*
X5236400Y-1877900D01*
X5188900Y-1830400D02*
X5283900Y-1830400D01*
X5486400Y-1782900D02*
X5486400Y-1877900D01*
X5438900Y-1830400D02*
X5533900Y-1830400D01*
X5672200Y-6988300D02*
X5672200Y-7083300D01*
X5624700Y-7035800D02*
X5719700Y-7035800D01*
X5736400Y-1782900D02*
X5736400Y-1877900D01*
X5688900Y-1830400D02*
X5783900Y-1830400D01*
X5922200Y-6988300D02*
X5922200Y-7083300D01*
X5874700Y-7035800D02*
X5969700Y-7035800D01*
X6172200Y-6988300D02*
X6172200Y-7083300D01*
X6124700Y-7035800D02*
X6219700Y-7035800D01*
X6402800Y-1782900D02*
X6402800Y-1877900D01*
X6355300Y-1830400D02*
X6450300Y-1830400D01*
X6652800Y-1782900D02*
X6652800Y-1877900D01*
X6605300Y-1830400D02*
X6700300Y-1830400D01*
X6902800Y-1782900D02*
X6902800Y-1877900D01*
X6855300Y-1830400D02*
X6950300Y-1830400D01*
X6916800Y-6998750D02*
X6916800Y-7093750D01*
X6869300Y-7046250D02*
X6964300Y-7046250D01*
X7166800Y-6998750D02*
X7166800Y-7093750D01*
X7119300Y-7046250D02*
X7214300Y-7046250D01*
X7416800Y-6998750D02*
X7416800Y-7093750D01*
X7369300Y-7046250D02*
X7464300Y-7046250D01*
X8168800Y-6978200D02*
X8168800Y-7073200D01*
X8121300Y-7025700D02*
X8216300Y-7025700D01*
X8418800Y-6978200D02*
X8418800Y-7073200D01*
X8371300Y-7025700D02*
X8466300Y-7025700D01*
X8668800Y-6978200D02*
X8668800Y-7073200D01*
X8621300Y-7025700D02*
X8716300Y-7025700D01*
X8918800Y-6978200D02*
X8918800Y-7073200D01*
X8871300Y-7025700D02*
X8966300Y-7025700D01*
X9655400Y-6970550D02*
X9655400Y-7065550D01*
X9607900Y-7018050D02*
X9702900Y-7018050D01*
X9905400Y-6970550D02*
X9905400Y-7065550D01*
X9857900Y-7018050D02*
X9952900Y-7018050D01*
X10155400Y-6970550D02*
X10155400Y-7065550D01*
X10107900Y-7018050D02*
X10202900Y-7018050D01*
X10405400Y-6970550D02*
X10405400Y-7065550D01*
X10357900Y-7018050D02*
X10452900Y-7018050D01*
X10929650Y-4041900D02*
X10929650Y-4136900D01*
X10882150Y-4089400D02*
X10977150Y-4089400D01*
X10929650Y-4291900D02*
X10929650Y-4386900D01*
X10882150Y-4339400D02*
X10977150Y-4339400D01*
X10929650Y-4541900D02*
X10929650Y-4636900D01*
X10882150Y-4589400D02*
X10977150Y-4589400D01*
X10929650Y-4791900D02*
X10929650Y-4886900D01*
X10882150Y-4839400D02*
X10977150Y-4839400D01*
X10929650Y-5571900D02*
X10929650Y-5666900D01*
X10882150Y-5619400D02*
X10977150Y-5619400D01*
X10929650Y-5821900D02*
X10929650Y-5916900D01*
X10882150Y-5869400D02*
X10977150Y-5869400D01*
X10929650Y-6071900D02*
X10929650Y-6166900D01*
X10882150Y-6119400D02*
X10977150Y-6119400D01*
X10929650Y-6321900D02*
X10929650Y-6416900D01*
X10882150Y-6369400D02*
X10977150Y-6369400D01*
X10947400Y-2511900D02*
X10947400Y-2606900D01*
X10899900Y-2559400D02*
X10994900Y-2559400D01*
X10947400Y-2761900D02*
X10947400Y-2856900D01*
X10899900Y-2809400D02*
X10994900Y-2809400D01*
X10947400Y-3011900D02*
X10947400Y-3106900D01*
X10899900Y-3059400D02*
X10994900Y-3059400D01*
X10947400Y-3261900D02*
X10947400Y-3356900D01*
X10899900Y-3309400D02*
X10994900Y-3309400D01*
X1635556Y-1864156D02*
X1635556Y-1793444D01*
X1564844Y-1793444D01*
X1564844Y-1864156D01*
X1635556Y-1864156D01*
X1885556Y-1864156D02*
X1885556Y-1793444D01*
X1814844Y-1793444D01*
X1814844Y-1864156D01*
X1885556Y-1864156D01*
X1940356Y-5220956D02*
X1940356Y-5150244D01*
X1869644Y-5150244D01*
X1869644Y-5220956D01*
X1940356Y-5220956D01*
X1940356Y-5470956D02*
X1940356Y-5400244D01*
X1869644Y-5400244D01*
X1869644Y-5470956D01*
X1940356Y-5470956D01*
X1941006Y-6209556D02*
X1941006Y-6138844D01*
X1870294Y-6138844D01*
X1870294Y-6209556D01*
X1941006Y-6209556D01*
X1941006Y-6459556D02*
X1941006Y-6388844D01*
X1870294Y-6388844D01*
X1870294Y-6459556D01*
X1941006Y-6459556D01*
X2549956Y-1864156D02*
X2549956Y-1793444D01*
X2479244Y-1793444D01*
X2479244Y-1864156D01*
X2549956Y-1864156D01*
X2799956Y-1864156D02*
X2799956Y-1793444D01*
X2729244Y-1793444D01*
X2729244Y-1864156D01*
X2799956Y-1864156D01*
X3464356Y-1864156D02*
X3464356Y-1793444D01*
X3393644Y-1793444D01*
X3393644Y-1864156D01*
X3464356Y-1864156D01*
X3714356Y-1864156D02*
X3714356Y-1793444D01*
X3643644Y-1793444D01*
X3643644Y-1864156D01*
X3714356Y-1864156D01*
X4378756Y-1864156D02*
X4378756Y-1793444D01*
X4308044Y-1793444D01*
X4308044Y-1864156D01*
X4378756Y-1864156D01*
X4628756Y-1864156D02*
X4628756Y-1793444D01*
X4558044Y-1793444D01*
X4558044Y-1864156D01*
X4628756Y-1864156D01*
X7553756Y-1533956D02*
X7553756Y-1463244D01*
X7483044Y-1463244D01*
X7483044Y-1533956D01*
X7553756Y-1533956D01*
X8010956Y-1533956D02*
X8010956Y-1463244D01*
X7940244Y-1463244D01*
X7940244Y-1533956D01*
X8010956Y-1533956D01*
X8468156Y-1533956D02*
X8468156Y-1463244D01*
X8397444Y-1463244D01*
X8397444Y-1533956D01*
X8468156Y-1533956D01*
X8925356Y-1533956D02*
X8925356Y-1463244D01*
X8854644Y-1463244D01*
X8854644Y-1533956D01*
X8925356Y-1533956D01*
X9382556Y-1533956D02*
X9382556Y-1463244D01*
X9311844Y-1463244D01*
X9311844Y-1533956D01*
X9382556Y-1533956D01*
X9839756Y-1533956D02*
X9839756Y-1463244D01*
X9769044Y-1463244D01*
X9769044Y-1533956D01*
X9839756Y-1533956D01*
X10271556Y-1533956D02*
X10271556Y-1463244D01*
X10200844Y-1463244D01*
X10200844Y-1533956D01*
X10271556Y-1533956D01*
X10957356Y-1660956D02*
X10957356Y-1590244D01*
X10886644Y-1590244D01*
X10886644Y-1660956D01*
X10957356Y-1660956D01*
X10957356Y-1910956D02*
X10957356Y-1840244D01*
X10886644Y-1840244D01*
X10886644Y-1910956D01*
X10957356Y-1910956D01*
D11*
X1502877Y-7984784D02*
X1502877Y-7784784D01*
X1502877Y-7784784D02*
X1550496Y-7784784D01*
X1550496Y-7784784D02*
X1579067Y-7794308D01*
X1579067Y-7794308D02*
X1598115Y-7813355D01*
X1598115Y-7813355D02*
X1607639Y-7832403D01*
X1607639Y-7832403D02*
X1617162Y-7870498D01*
X1617162Y-7870498D02*
X1617162Y-7899069D01*
X1617162Y-7899069D02*
X1607639Y-7937165D01*
X1607639Y-7937165D02*
X1598115Y-7956212D01*
X1598115Y-7956212D02*
X1579067Y-7975260D01*
X1579067Y-7975260D02*
X1550496Y-7984784D01*
X1550496Y-7984784D02*
X1502877Y-7984784D01*
X1702877Y-7984784D02*
X1702877Y-7851450D01*
X1702877Y-7889546D02*
X1712401Y-7870498D01*
X1712401Y-7870498D02*
X1721924Y-7860974D01*
X1721924Y-7860974D02*
X1740972Y-7851450D01*
X1740972Y-7851450D02*
X1760020Y-7851450D01*
X1826686Y-7984784D02*
X1826686Y-7851450D01*
X1826686Y-7784784D02*
X1817162Y-7794308D01*
X1817162Y-7794308D02*
X1826686Y-7803831D01*
X1826686Y-7803831D02*
X1836210Y-7794308D01*
X1836210Y-7794308D02*
X1826686Y-7784784D01*
X1826686Y-7784784D02*
X1826686Y-7803831D01*
X1950496Y-7984784D02*
X1931448Y-7975260D01*
X1931448Y-7975260D02*
X1921924Y-7956212D01*
X1921924Y-7956212D02*
X1921924Y-7784784D01*
X2055258Y-7984784D02*
X2036210Y-7975260D01*
X2036210Y-7975260D02*
X2026686Y-7956212D01*
X2026686Y-7956212D02*
X2026686Y-7784784D01*
X2283829Y-7984784D02*
X2283829Y-7784784D01*
X2283829Y-7784784D02*
X2350496Y-7927641D01*
X2350496Y-7927641D02*
X2417163Y-7784784D01*
X2417163Y-7784784D02*
X2417163Y-7984784D01*
X2598115Y-7984784D02*
X2598115Y-7880022D01*
X2598115Y-7880022D02*
X2588591Y-7860974D01*
X2588591Y-7860974D02*
X2569544Y-7851450D01*
X2569544Y-7851450D02*
X2531448Y-7851450D01*
X2531448Y-7851450D02*
X2512401Y-7860974D01*
X2598115Y-7975260D02*
X2579067Y-7984784D01*
X2579067Y-7984784D02*
X2531448Y-7984784D01*
X2531448Y-7984784D02*
X2512401Y-7975260D01*
X2512401Y-7975260D02*
X2502877Y-7956212D01*
X2502877Y-7956212D02*
X2502877Y-7937165D01*
X2502877Y-7937165D02*
X2512401Y-7918117D01*
X2512401Y-7918117D02*
X2531448Y-7908593D01*
X2531448Y-7908593D02*
X2579067Y-7908593D01*
X2579067Y-7908593D02*
X2598115Y-7899069D01*
X2693353Y-7851450D02*
X2693353Y-8051450D01*
X2693353Y-7860974D02*
X2712401Y-7851450D01*
X2712401Y-7851450D02*
X2750496Y-7851450D01*
X2750496Y-7851450D02*
X2769544Y-7860974D01*
X2769544Y-7860974D02*
X2779067Y-7870498D01*
X2779067Y-7870498D02*
X2788591Y-7889546D01*
X2788591Y-7889546D02*
X2788591Y-7946688D01*
X2788591Y-7946688D02*
X2779067Y-7965736D01*
X2779067Y-7965736D02*
X2769544Y-7975260D01*
X2769544Y-7975260D02*
X2750496Y-7984784D01*
X2750496Y-7984784D02*
X2712401Y-7984784D01*
X2712401Y-7984784D02*
X2693353Y-7975260D01*
X2874305Y-7965736D02*
X2883829Y-7975260D01*
X2883829Y-7975260D02*
X2874305Y-7984784D01*
X2874305Y-7984784D02*
X2864782Y-7975260D01*
X2864782Y-7975260D02*
X2874305Y-7965736D01*
X2874305Y-7965736D02*
X2874305Y-7984784D01*
X2874305Y-7860974D02*
X2883829Y-7870498D01*
X2883829Y-7870498D02*
X2874305Y-7880022D01*
X2874305Y-7880022D02*
X2864782Y-7870498D01*
X2864782Y-7870498D02*
X2874305Y-7860974D01*
X2874305Y-7860974D02*
X2874305Y-7880022D01*
D12*
X1212100Y-8298300D02*
X1242100Y-8328300D01*
X1242100Y-8298300D02*
X1212100Y-8328300D01*
D11*
X1540972Y-8204784D02*
X1560020Y-8204784D01*
X1560020Y-8204784D02*
X1579067Y-8214308D01*
X1579067Y-8214308D02*
X1588591Y-8223831D01*
X1588591Y-8223831D02*
X1598115Y-8242879D01*
X1598115Y-8242879D02*
X1607639Y-8280974D01*
X1607639Y-8280974D02*
X1607639Y-8328593D01*
X1607639Y-8328593D02*
X1598115Y-8366688D01*
X1598115Y-8366688D02*
X1588591Y-8385736D01*
X1588591Y-8385736D02*
X1579067Y-8395260D01*
X1579067Y-8395260D02*
X1560020Y-8404784D01*
X1560020Y-8404784D02*
X1540972Y-8404784D01*
X1540972Y-8404784D02*
X1521924Y-8395260D01*
X1521924Y-8395260D02*
X1512401Y-8385736D01*
X1512401Y-8385736D02*
X1502877Y-8366688D01*
X1502877Y-8366688D02*
X1493353Y-8328593D01*
X1493353Y-8328593D02*
X1493353Y-8280974D01*
X1493353Y-8280974D02*
X1502877Y-8242879D01*
X1502877Y-8242879D02*
X1512401Y-8223831D01*
X1512401Y-8223831D02*
X1521924Y-8214308D01*
X1521924Y-8214308D02*
X1540972Y-8204784D01*
X1693353Y-8385736D02*
X1702877Y-8395260D01*
X1702877Y-8395260D02*
X1693353Y-8404784D01*
X1693353Y-8404784D02*
X1683829Y-8395260D01*
X1683829Y-8395260D02*
X1693353Y-8385736D01*
X1693353Y-8385736D02*
X1693353Y-8404784D01*
X1769543Y-8204784D02*
X1893353Y-8204784D01*
X1893353Y-8204784D02*
X1826686Y-8280974D01*
X1826686Y-8280974D02*
X1855258Y-8280974D01*
X1855258Y-8280974D02*
X1874305Y-8290498D01*
X1874305Y-8290498D02*
X1883829Y-8300022D01*
X1883829Y-8300022D02*
X1893353Y-8319069D01*
X1893353Y-8319069D02*
X1893353Y-8366688D01*
X1893353Y-8366688D02*
X1883829Y-8385736D01*
X1883829Y-8385736D02*
X1874305Y-8395260D01*
X1874305Y-8395260D02*
X1855258Y-8404784D01*
X1855258Y-8404784D02*
X1798115Y-8404784D01*
X1798115Y-8404784D02*
X1779067Y-8395260D01*
X1779067Y-8395260D02*
X1769543Y-8385736D01*
X2017162Y-8204784D02*
X2036210Y-8204784D01*
X2036210Y-8204784D02*
X2055258Y-8214308D01*
X2055258Y-8214308D02*
X2064782Y-8223831D01*
X2064782Y-8223831D02*
X2074305Y-8242879D01*
X2074305Y-8242879D02*
X2083829Y-8280974D01*
X2083829Y-8280974D02*
X2083829Y-8328593D01*
X2083829Y-8328593D02*
X2074305Y-8366688D01*
X2074305Y-8366688D02*
X2064782Y-8385736D01*
X2064782Y-8385736D02*
X2055258Y-8395260D01*
X2055258Y-8395260D02*
X2036210Y-8404784D01*
X2036210Y-8404784D02*
X2017162Y-8404784D01*
X2017162Y-8404784D02*
X1998115Y-8395260D01*
X1998115Y-8395260D02*
X1988591Y-8385736D01*
X1988591Y-8385736D02*
X1979067Y-8366688D01*
X1979067Y-8366688D02*
X1969543Y-8328593D01*
X1969543Y-8328593D02*
X1969543Y-8280974D01*
X1969543Y-8280974D02*
X1979067Y-8242879D01*
X1979067Y-8242879D02*
X1988591Y-8223831D01*
X1988591Y-8223831D02*
X1998115Y-8214308D01*
X1998115Y-8214308D02*
X2017162Y-8204784D01*
X2207639Y-8204784D02*
X2226686Y-8204784D01*
X2226686Y-8204784D02*
X2245734Y-8214308D01*
X2245734Y-8214308D02*
X2255258Y-8223831D01*
X2255258Y-8223831D02*
X2264782Y-8242879D01*
X2264782Y-8242879D02*
X2274305Y-8280974D01*
X2274305Y-8280974D02*
X2274305Y-8328593D01*
X2274305Y-8328593D02*
X2264782Y-8366688D01*
X2264782Y-8366688D02*
X2255258Y-8385736D01*
X2255258Y-8385736D02*
X2245734Y-8395260D01*
X2245734Y-8395260D02*
X2226686Y-8404784D01*
X2226686Y-8404784D02*
X2207639Y-8404784D01*
X2207639Y-8404784D02*
X2188591Y-8395260D01*
X2188591Y-8395260D02*
X2179067Y-8385736D01*
X2179067Y-8385736D02*
X2169544Y-8366688D01*
X2169544Y-8366688D02*
X2160020Y-8328593D01*
X2160020Y-8328593D02*
X2160020Y-8280974D01*
X2160020Y-8280974D02*
X2169544Y-8242879D01*
X2169544Y-8242879D02*
X2179067Y-8223831D01*
X2179067Y-8223831D02*
X2188591Y-8214308D01*
X2188591Y-8214308D02*
X2207639Y-8204784D01*
X2360020Y-8404784D02*
X2360020Y-8271450D01*
X2360020Y-8290498D02*
X2369544Y-8280974D01*
X2369544Y-8280974D02*
X2388591Y-8271450D01*
X2388591Y-8271450D02*
X2417163Y-8271450D01*
X2417163Y-8271450D02*
X2436210Y-8280974D01*
X2436210Y-8280974D02*
X2445734Y-8300022D01*
X2445734Y-8300022D02*
X2445734Y-8404784D01*
X2445734Y-8300022D02*
X2455258Y-8280974D01*
X2455258Y-8280974D02*
X2474305Y-8271450D01*
X2474305Y-8271450D02*
X2502877Y-8271450D01*
X2502877Y-8271450D02*
X2521925Y-8280974D01*
X2521925Y-8280974D02*
X2531448Y-8300022D01*
X2531448Y-8300022D02*
X2531448Y-8404784D01*
X2626686Y-8404784D02*
X2626686Y-8271450D01*
X2626686Y-8290498D02*
X2636210Y-8280974D01*
X2636210Y-8280974D02*
X2655258Y-8271450D01*
X2655258Y-8271450D02*
X2683829Y-8271450D01*
X2683829Y-8271450D02*
X2702877Y-8280974D01*
X2702877Y-8280974D02*
X2712401Y-8300022D01*
X2712401Y-8300022D02*
X2712401Y-8404784D01*
X2712401Y-8300022D02*
X2721925Y-8280974D01*
X2721925Y-8280974D02*
X2740972Y-8271450D01*
X2740972Y-8271450D02*
X2769544Y-8271450D01*
X2769544Y-8271450D02*
X2788591Y-8280974D01*
X2788591Y-8280974D02*
X2798115Y-8300022D01*
X2798115Y-8300022D02*
X2798115Y-8404784D01*
X3188591Y-8195260D02*
X3017163Y-8452403D01*
X3445734Y-8204784D02*
X3464782Y-8204784D01*
X3464782Y-8204784D02*
X3483829Y-8214308D01*
X3483829Y-8214308D02*
X3493353Y-8223831D01*
X3493353Y-8223831D02*
X3502877Y-8242879D01*
X3502877Y-8242879D02*
X3512401Y-8280974D01*
X3512401Y-8280974D02*
X3512401Y-8328593D01*
X3512401Y-8328593D02*
X3502877Y-8366688D01*
X3502877Y-8366688D02*
X3493353Y-8385736D01*
X3493353Y-8385736D02*
X3483829Y-8395260D01*
X3483829Y-8395260D02*
X3464782Y-8404784D01*
X3464782Y-8404784D02*
X3445734Y-8404784D01*
X3445734Y-8404784D02*
X3426686Y-8395260D01*
X3426686Y-8395260D02*
X3417163Y-8385736D01*
X3417163Y-8385736D02*
X3407639Y-8366688D01*
X3407639Y-8366688D02*
X3398115Y-8328593D01*
X3398115Y-8328593D02*
X3398115Y-8280974D01*
X3398115Y-8280974D02*
X3407639Y-8242879D01*
X3407639Y-8242879D02*
X3417163Y-8223831D01*
X3417163Y-8223831D02*
X3426686Y-8214308D01*
X3426686Y-8214308D02*
X3445734Y-8204784D01*
X3598115Y-8385736D02*
X3607639Y-8395260D01*
X3607639Y-8395260D02*
X3598115Y-8404784D01*
X3598115Y-8404784D02*
X3588591Y-8395260D01*
X3588591Y-8395260D02*
X3598115Y-8385736D01*
X3598115Y-8385736D02*
X3598115Y-8404784D01*
X3731448Y-8204784D02*
X3750496Y-8204784D01*
X3750496Y-8204784D02*
X3769544Y-8214308D01*
X3769544Y-8214308D02*
X3779067Y-8223831D01*
X3779067Y-8223831D02*
X3788591Y-8242879D01*
X3788591Y-8242879D02*
X3798115Y-8280974D01*
X3798115Y-8280974D02*
X3798115Y-8328593D01*
X3798115Y-8328593D02*
X3788591Y-8366688D01*
X3788591Y-8366688D02*
X3779067Y-8385736D01*
X3779067Y-8385736D02*
X3769544Y-8395260D01*
X3769544Y-8395260D02*
X3750496Y-8404784D01*
X3750496Y-8404784D02*
X3731448Y-8404784D01*
X3731448Y-8404784D02*
X3712401Y-8395260D01*
X3712401Y-8395260D02*
X3702877Y-8385736D01*
X3702877Y-8385736D02*
X3693353Y-8366688D01*
X3693353Y-8366688D02*
X3683829Y-8328593D01*
X3683829Y-8328593D02*
X3683829Y-8280974D01*
X3683829Y-8280974D02*
X3693353Y-8242879D01*
X3693353Y-8242879D02*
X3702877Y-8223831D01*
X3702877Y-8223831D02*
X3712401Y-8214308D01*
X3712401Y-8214308D02*
X3731448Y-8204784D01*
X3988591Y-8404784D02*
X3874306Y-8404784D01*
X3931448Y-8404784D02*
X3931448Y-8204784D01*
X3931448Y-8204784D02*
X3912401Y-8233355D01*
X3912401Y-8233355D02*
X3893353Y-8252403D01*
X3893353Y-8252403D02*
X3874306Y-8261927D01*
X4179067Y-8404784D02*
X4064782Y-8404784D01*
X4121925Y-8404784D02*
X4121925Y-8204784D01*
X4121925Y-8204784D02*
X4102877Y-8233355D01*
X4102877Y-8233355D02*
X4083829Y-8252403D01*
X4083829Y-8252403D02*
X4064782Y-8261927D01*
X4293353Y-8290498D02*
X4274306Y-8280974D01*
X4274306Y-8280974D02*
X4264782Y-8271450D01*
X4264782Y-8271450D02*
X4255258Y-8252403D01*
X4255258Y-8252403D02*
X4255258Y-8242879D01*
X4255258Y-8242879D02*
X4264782Y-8223831D01*
X4264782Y-8223831D02*
X4274306Y-8214308D01*
X4274306Y-8214308D02*
X4293353Y-8204784D01*
X4293353Y-8204784D02*
X4331449Y-8204784D01*
X4331449Y-8204784D02*
X4350496Y-8214308D01*
X4350496Y-8214308D02*
X4360020Y-8223831D01*
X4360020Y-8223831D02*
X4369544Y-8242879D01*
X4369544Y-8242879D02*
X4369544Y-8252403D01*
X4369544Y-8252403D02*
X4360020Y-8271450D01*
X4360020Y-8271450D02*
X4350496Y-8280974D01*
X4350496Y-8280974D02*
X4331449Y-8290498D01*
X4331449Y-8290498D02*
X4293353Y-8290498D01*
X4293353Y-8290498D02*
X4274306Y-8300022D01*
X4274306Y-8300022D02*
X4264782Y-8309546D01*
X4264782Y-8309546D02*
X4255258Y-8328593D01*
X4255258Y-8328593D02*
X4255258Y-8366688D01*
X4255258Y-8366688D02*
X4264782Y-8385736D01*
X4264782Y-8385736D02*
X4274306Y-8395260D01*
X4274306Y-8395260D02*
X4293353Y-8404784D01*
X4293353Y-8404784D02*
X4331449Y-8404784D01*
X4331449Y-8404784D02*
X4350496Y-8395260D01*
X4350496Y-8395260D02*
X4360020Y-8385736D01*
X4360020Y-8385736D02*
X4369544Y-8366688D01*
X4369544Y-8366688D02*
X4369544Y-8328593D01*
X4369544Y-8328593D02*
X4360020Y-8309546D01*
X4360020Y-8309546D02*
X4350496Y-8300022D01*
X4350496Y-8300022D02*
X4331449Y-8290498D01*
X4445734Y-8204784D02*
X4445734Y-8242879D01*
X4521925Y-8204784D02*
X4521925Y-8242879D01*
X4817163Y-8480974D02*
X4807639Y-8471450D01*
X4807639Y-8471450D02*
X4788591Y-8442879D01*
X4788591Y-8442879D02*
X4779068Y-8423831D01*
X4779068Y-8423831D02*
X4769544Y-8395260D01*
X4769544Y-8395260D02*
X4760020Y-8347641D01*
X4760020Y-8347641D02*
X4760020Y-8309546D01*
X4760020Y-8309546D02*
X4769544Y-8261927D01*
X4769544Y-8261927D02*
X4779068Y-8233355D01*
X4779068Y-8233355D02*
X4788591Y-8214308D01*
X4788591Y-8214308D02*
X4807639Y-8185736D01*
X4807639Y-8185736D02*
X4817163Y-8176212D01*
X4998115Y-8404784D02*
X4883830Y-8404784D01*
X4940972Y-8404784D02*
X4940972Y-8204784D01*
X4940972Y-8204784D02*
X4921925Y-8233355D01*
X4921925Y-8233355D02*
X4902877Y-8252403D01*
X4902877Y-8252403D02*
X4883830Y-8261927D01*
X5112401Y-8290498D02*
X5093353Y-8280974D01*
X5093353Y-8280974D02*
X5083830Y-8271450D01*
X5083830Y-8271450D02*
X5074306Y-8252403D01*
X5074306Y-8252403D02*
X5074306Y-8242879D01*
X5074306Y-8242879D02*
X5083830Y-8223831D01*
X5083830Y-8223831D02*
X5093353Y-8214308D01*
X5093353Y-8214308D02*
X5112401Y-8204784D01*
X5112401Y-8204784D02*
X5150496Y-8204784D01*
X5150496Y-8204784D02*
X5169544Y-8214308D01*
X5169544Y-8214308D02*
X5179068Y-8223831D01*
X5179068Y-8223831D02*
X5188591Y-8242879D01*
X5188591Y-8242879D02*
X5188591Y-8252403D01*
X5188591Y-8252403D02*
X5179068Y-8271450D01*
X5179068Y-8271450D02*
X5169544Y-8280974D01*
X5169544Y-8280974D02*
X5150496Y-8290498D01*
X5150496Y-8290498D02*
X5112401Y-8290498D01*
X5112401Y-8290498D02*
X5093353Y-8300022D01*
X5093353Y-8300022D02*
X5083830Y-8309546D01*
X5083830Y-8309546D02*
X5074306Y-8328593D01*
X5074306Y-8328593D02*
X5074306Y-8366688D01*
X5074306Y-8366688D02*
X5083830Y-8385736D01*
X5083830Y-8385736D02*
X5093353Y-8395260D01*
X5093353Y-8395260D02*
X5112401Y-8404784D01*
X5112401Y-8404784D02*
X5150496Y-8404784D01*
X5150496Y-8404784D02*
X5169544Y-8395260D01*
X5169544Y-8395260D02*
X5179068Y-8385736D01*
X5179068Y-8385736D02*
X5188591Y-8366688D01*
X5188591Y-8366688D02*
X5188591Y-8328593D01*
X5188591Y-8328593D02*
X5179068Y-8309546D01*
X5179068Y-8309546D02*
X5169544Y-8300022D01*
X5169544Y-8300022D02*
X5150496Y-8290498D01*
X5426687Y-8404784D02*
X5426687Y-8204784D01*
X5512401Y-8404784D02*
X5512401Y-8300022D01*
X5512401Y-8300022D02*
X5502877Y-8280974D01*
X5502877Y-8280974D02*
X5483830Y-8271450D01*
X5483830Y-8271450D02*
X5455258Y-8271450D01*
X5455258Y-8271450D02*
X5436211Y-8280974D01*
X5436211Y-8280974D02*
X5426687Y-8290498D01*
X5636210Y-8404784D02*
X5617163Y-8395260D01*
X5617163Y-8395260D02*
X5607639Y-8385736D01*
X5607639Y-8385736D02*
X5598115Y-8366688D01*
X5598115Y-8366688D02*
X5598115Y-8309546D01*
X5598115Y-8309546D02*
X5607639Y-8290498D01*
X5607639Y-8290498D02*
X5617163Y-8280974D01*
X5617163Y-8280974D02*
X5636210Y-8271450D01*
X5636210Y-8271450D02*
X5664782Y-8271450D01*
X5664782Y-8271450D02*
X5683830Y-8280974D01*
X5683830Y-8280974D02*
X5693353Y-8290498D01*
X5693353Y-8290498D02*
X5702877Y-8309546D01*
X5702877Y-8309546D02*
X5702877Y-8366688D01*
X5702877Y-8366688D02*
X5693353Y-8385736D01*
X5693353Y-8385736D02*
X5683830Y-8395260D01*
X5683830Y-8395260D02*
X5664782Y-8404784D01*
X5664782Y-8404784D02*
X5636210Y-8404784D01*
X5817163Y-8404784D02*
X5798115Y-8395260D01*
X5798115Y-8395260D02*
X5788591Y-8376212D01*
X5788591Y-8376212D02*
X5788591Y-8204784D01*
X5969544Y-8395260D02*
X5950496Y-8404784D01*
X5950496Y-8404784D02*
X5912401Y-8404784D01*
X5912401Y-8404784D02*
X5893353Y-8395260D01*
X5893353Y-8395260D02*
X5883830Y-8376212D01*
X5883830Y-8376212D02*
X5883830Y-8300022D01*
X5883830Y-8300022D02*
X5893353Y-8280974D01*
X5893353Y-8280974D02*
X5912401Y-8271450D01*
X5912401Y-8271450D02*
X5950496Y-8271450D01*
X5950496Y-8271450D02*
X5969544Y-8280974D01*
X5969544Y-8280974D02*
X5979068Y-8300022D01*
X5979068Y-8300022D02*
X5979068Y-8319069D01*
X5979068Y-8319069D02*
X5883830Y-8338117D01*
X6055258Y-8395260D02*
X6074306Y-8404784D01*
X6074306Y-8404784D02*
X6112401Y-8404784D01*
X6112401Y-8404784D02*
X6131449Y-8395260D01*
X6131449Y-8395260D02*
X6140972Y-8376212D01*
X6140972Y-8376212D02*
X6140972Y-8366688D01*
X6140972Y-8366688D02*
X6131449Y-8347641D01*
X6131449Y-8347641D02*
X6112401Y-8338117D01*
X6112401Y-8338117D02*
X6083830Y-8338117D01*
X6083830Y-8338117D02*
X6064782Y-8328593D01*
X6064782Y-8328593D02*
X6055258Y-8309546D01*
X6055258Y-8309546D02*
X6055258Y-8300022D01*
X6055258Y-8300022D02*
X6064782Y-8280974D01*
X6064782Y-8280974D02*
X6083830Y-8271450D01*
X6083830Y-8271450D02*
X6112401Y-8271450D01*
X6112401Y-8271450D02*
X6131449Y-8280974D01*
X6207639Y-8480974D02*
X6217163Y-8471450D01*
X6217163Y-8471450D02*
X6236211Y-8442879D01*
X6236211Y-8442879D02*
X6245734Y-8423831D01*
X6245734Y-8423831D02*
X6255258Y-8395260D01*
X6255258Y-8395260D02*
X6264782Y-8347641D01*
X6264782Y-8347641D02*
X6264782Y-8309546D01*
X6264782Y-8309546D02*
X6255258Y-8261927D01*
X6255258Y-8261927D02*
X6245734Y-8233355D01*
X6245734Y-8233355D02*
X6236211Y-8214308D01*
X6236211Y-8214308D02*
X6217163Y-8185736D01*
X6217163Y-8185736D02*
X6207639Y-8176212D01*
D12*
X1242100Y-8577300D02*
G75*
G02*
X1162100Y-8577300I-40000J0D01*
G01*
X1162100Y-8577300D02*
G75*
G02*
X1242100Y-8577300I40000J0D01*
G01*
D11*
X1540972Y-8468784D02*
X1560020Y-8468784D01*
X1560020Y-8468784D02*
X1579067Y-8478308D01*
X1579067Y-8478308D02*
X1588591Y-8487831D01*
X1588591Y-8487831D02*
X1598115Y-8506879D01*
X1598115Y-8506879D02*
X1607639Y-8544974D01*
X1607639Y-8544974D02*
X1607639Y-8592593D01*
X1607639Y-8592593D02*
X1598115Y-8630689D01*
X1598115Y-8630689D02*
X1588591Y-8649736D01*
X1588591Y-8649736D02*
X1579067Y-8659260D01*
X1579067Y-8659260D02*
X1560020Y-8668784D01*
X1560020Y-8668784D02*
X1540972Y-8668784D01*
X1540972Y-8668784D02*
X1521924Y-8659260D01*
X1521924Y-8659260D02*
X1512401Y-8649736D01*
X1512401Y-8649736D02*
X1502877Y-8630689D01*
X1502877Y-8630689D02*
X1493353Y-8592593D01*
X1493353Y-8592593D02*
X1493353Y-8544974D01*
X1493353Y-8544974D02*
X1502877Y-8506879D01*
X1502877Y-8506879D02*
X1512401Y-8487831D01*
X1512401Y-8487831D02*
X1521924Y-8478308D01*
X1521924Y-8478308D02*
X1540972Y-8468784D01*
X1693353Y-8649736D02*
X1702877Y-8659260D01*
X1702877Y-8659260D02*
X1693353Y-8668784D01*
X1693353Y-8668784D02*
X1683829Y-8659260D01*
X1683829Y-8659260D02*
X1693353Y-8649736D01*
X1693353Y-8649736D02*
X1693353Y-8668784D01*
X1817162Y-8554498D02*
X1798115Y-8544974D01*
X1798115Y-8544974D02*
X1788591Y-8535450D01*
X1788591Y-8535450D02*
X1779067Y-8516403D01*
X1779067Y-8516403D02*
X1779067Y-8506879D01*
X1779067Y-8506879D02*
X1788591Y-8487831D01*
X1788591Y-8487831D02*
X1798115Y-8478308D01*
X1798115Y-8478308D02*
X1817162Y-8468784D01*
X1817162Y-8468784D02*
X1855258Y-8468784D01*
X1855258Y-8468784D02*
X1874305Y-8478308D01*
X1874305Y-8478308D02*
X1883829Y-8487831D01*
X1883829Y-8487831D02*
X1893353Y-8506879D01*
X1893353Y-8506879D02*
X1893353Y-8516403D01*
X1893353Y-8516403D02*
X1883829Y-8535450D01*
X1883829Y-8535450D02*
X1874305Y-8544974D01*
X1874305Y-8544974D02*
X1855258Y-8554498D01*
X1855258Y-8554498D02*
X1817162Y-8554498D01*
X1817162Y-8554498D02*
X1798115Y-8564022D01*
X1798115Y-8564022D02*
X1788591Y-8573546D01*
X1788591Y-8573546D02*
X1779067Y-8592593D01*
X1779067Y-8592593D02*
X1779067Y-8630689D01*
X1779067Y-8630689D02*
X1788591Y-8649736D01*
X1788591Y-8649736D02*
X1798115Y-8659260D01*
X1798115Y-8659260D02*
X1817162Y-8668784D01*
X1817162Y-8668784D02*
X1855258Y-8668784D01*
X1855258Y-8668784D02*
X1874305Y-8659260D01*
X1874305Y-8659260D02*
X1883829Y-8649736D01*
X1883829Y-8649736D02*
X1893353Y-8630689D01*
X1893353Y-8630689D02*
X1893353Y-8592593D01*
X1893353Y-8592593D02*
X1883829Y-8573546D01*
X1883829Y-8573546D02*
X1874305Y-8564022D01*
X1874305Y-8564022D02*
X1855258Y-8554498D01*
X2017162Y-8468784D02*
X2036210Y-8468784D01*
X2036210Y-8468784D02*
X2055258Y-8478308D01*
X2055258Y-8478308D02*
X2064782Y-8487831D01*
X2064782Y-8487831D02*
X2074305Y-8506879D01*
X2074305Y-8506879D02*
X2083829Y-8544974D01*
X2083829Y-8544974D02*
X2083829Y-8592593D01*
X2083829Y-8592593D02*
X2074305Y-8630689D01*
X2074305Y-8630689D02*
X2064782Y-8649736D01*
X2064782Y-8649736D02*
X2055258Y-8659260D01*
X2055258Y-8659260D02*
X2036210Y-8668784D01*
X2036210Y-8668784D02*
X2017162Y-8668784D01*
X2017162Y-8668784D02*
X1998115Y-8659260D01*
X1998115Y-8659260D02*
X1988591Y-8649736D01*
X1988591Y-8649736D02*
X1979067Y-8630689D01*
X1979067Y-8630689D02*
X1969543Y-8592593D01*
X1969543Y-8592593D02*
X1969543Y-8544974D01*
X1969543Y-8544974D02*
X1979067Y-8506879D01*
X1979067Y-8506879D02*
X1988591Y-8487831D01*
X1988591Y-8487831D02*
X1998115Y-8478308D01*
X1998115Y-8478308D02*
X2017162Y-8468784D01*
X2207639Y-8468784D02*
X2226686Y-8468784D01*
X2226686Y-8468784D02*
X2245734Y-8478308D01*
X2245734Y-8478308D02*
X2255258Y-8487831D01*
X2255258Y-8487831D02*
X2264782Y-8506879D01*
X2264782Y-8506879D02*
X2274305Y-8544974D01*
X2274305Y-8544974D02*
X2274305Y-8592593D01*
X2274305Y-8592593D02*
X2264782Y-8630689D01*
X2264782Y-8630689D02*
X2255258Y-8649736D01*
X2255258Y-8649736D02*
X2245734Y-8659260D01*
X2245734Y-8659260D02*
X2226686Y-8668784D01*
X2226686Y-8668784D02*
X2207639Y-8668784D01*
X2207639Y-8668784D02*
X2188591Y-8659260D01*
X2188591Y-8659260D02*
X2179067Y-8649736D01*
X2179067Y-8649736D02*
X2169544Y-8630689D01*
X2169544Y-8630689D02*
X2160020Y-8592593D01*
X2160020Y-8592593D02*
X2160020Y-8544974D01*
X2160020Y-8544974D02*
X2169544Y-8506879D01*
X2169544Y-8506879D02*
X2179067Y-8487831D01*
X2179067Y-8487831D02*
X2188591Y-8478308D01*
X2188591Y-8478308D02*
X2207639Y-8468784D01*
X2360020Y-8668784D02*
X2360020Y-8535450D01*
X2360020Y-8554498D02*
X2369544Y-8544974D01*
X2369544Y-8544974D02*
X2388591Y-8535450D01*
X2388591Y-8535450D02*
X2417163Y-8535450D01*
X2417163Y-8535450D02*
X2436210Y-8544974D01*
X2436210Y-8544974D02*
X2445734Y-8564022D01*
X2445734Y-8564022D02*
X2445734Y-8668784D01*
X2445734Y-8564022D02*
X2455258Y-8544974D01*
X2455258Y-8544974D02*
X2474305Y-8535450D01*
X2474305Y-8535450D02*
X2502877Y-8535450D01*
X2502877Y-8535450D02*
X2521925Y-8544974D01*
X2521925Y-8544974D02*
X2531448Y-8564022D01*
X2531448Y-8564022D02*
X2531448Y-8668784D01*
X2626686Y-8668784D02*
X2626686Y-8535450D01*
X2626686Y-8554498D02*
X2636210Y-8544974D01*
X2636210Y-8544974D02*
X2655258Y-8535450D01*
X2655258Y-8535450D02*
X2683829Y-8535450D01*
X2683829Y-8535450D02*
X2702877Y-8544974D01*
X2702877Y-8544974D02*
X2712401Y-8564022D01*
X2712401Y-8564022D02*
X2712401Y-8668784D01*
X2712401Y-8564022D02*
X2721925Y-8544974D01*
X2721925Y-8544974D02*
X2740972Y-8535450D01*
X2740972Y-8535450D02*
X2769544Y-8535450D01*
X2769544Y-8535450D02*
X2788591Y-8544974D01*
X2788591Y-8544974D02*
X2798115Y-8564022D01*
X2798115Y-8564022D02*
X2798115Y-8668784D01*
X3188591Y-8459260D02*
X3017163Y-8716403D01*
X3445734Y-8468784D02*
X3464782Y-8468784D01*
X3464782Y-8468784D02*
X3483829Y-8478308D01*
X3483829Y-8478308D02*
X3493353Y-8487831D01*
X3493353Y-8487831D02*
X3502877Y-8506879D01*
X3502877Y-8506879D02*
X3512401Y-8544974D01*
X3512401Y-8544974D02*
X3512401Y-8592593D01*
X3512401Y-8592593D02*
X3502877Y-8630689D01*
X3502877Y-8630689D02*
X3493353Y-8649736D01*
X3493353Y-8649736D02*
X3483829Y-8659260D01*
X3483829Y-8659260D02*
X3464782Y-8668784D01*
X3464782Y-8668784D02*
X3445734Y-8668784D01*
X3445734Y-8668784D02*
X3426686Y-8659260D01*
X3426686Y-8659260D02*
X3417163Y-8649736D01*
X3417163Y-8649736D02*
X3407639Y-8630689D01*
X3407639Y-8630689D02*
X3398115Y-8592593D01*
X3398115Y-8592593D02*
X3398115Y-8544974D01*
X3398115Y-8544974D02*
X3407639Y-8506879D01*
X3407639Y-8506879D02*
X3417163Y-8487831D01*
X3417163Y-8487831D02*
X3426686Y-8478308D01*
X3426686Y-8478308D02*
X3445734Y-8468784D01*
X3598115Y-8649736D02*
X3607639Y-8659260D01*
X3607639Y-8659260D02*
X3598115Y-8668784D01*
X3598115Y-8668784D02*
X3588591Y-8659260D01*
X3588591Y-8659260D02*
X3598115Y-8649736D01*
X3598115Y-8649736D02*
X3598115Y-8668784D01*
X3731448Y-8468784D02*
X3750496Y-8468784D01*
X3750496Y-8468784D02*
X3769544Y-8478308D01*
X3769544Y-8478308D02*
X3779067Y-8487831D01*
X3779067Y-8487831D02*
X3788591Y-8506879D01*
X3788591Y-8506879D02*
X3798115Y-8544974D01*
X3798115Y-8544974D02*
X3798115Y-8592593D01*
X3798115Y-8592593D02*
X3788591Y-8630689D01*
X3788591Y-8630689D02*
X3779067Y-8649736D01*
X3779067Y-8649736D02*
X3769544Y-8659260D01*
X3769544Y-8659260D02*
X3750496Y-8668784D01*
X3750496Y-8668784D02*
X3731448Y-8668784D01*
X3731448Y-8668784D02*
X3712401Y-8659260D01*
X3712401Y-8659260D02*
X3702877Y-8649736D01*
X3702877Y-8649736D02*
X3693353Y-8630689D01*
X3693353Y-8630689D02*
X3683829Y-8592593D01*
X3683829Y-8592593D02*
X3683829Y-8544974D01*
X3683829Y-8544974D02*
X3693353Y-8506879D01*
X3693353Y-8506879D02*
X3702877Y-8487831D01*
X3702877Y-8487831D02*
X3712401Y-8478308D01*
X3712401Y-8478308D02*
X3731448Y-8468784D01*
X3864782Y-8468784D02*
X3988591Y-8468784D01*
X3988591Y-8468784D02*
X3921925Y-8544974D01*
X3921925Y-8544974D02*
X3950496Y-8544974D01*
X3950496Y-8544974D02*
X3969544Y-8554498D01*
X3969544Y-8554498D02*
X3979067Y-8564022D01*
X3979067Y-8564022D02*
X3988591Y-8583070D01*
X3988591Y-8583070D02*
X3988591Y-8630689D01*
X3988591Y-8630689D02*
X3979067Y-8649736D01*
X3979067Y-8649736D02*
X3969544Y-8659260D01*
X3969544Y-8659260D02*
X3950496Y-8668784D01*
X3950496Y-8668784D02*
X3893353Y-8668784D01*
X3893353Y-8668784D02*
X3874306Y-8659260D01*
X3874306Y-8659260D02*
X3864782Y-8649736D01*
X4179067Y-8668784D02*
X4064782Y-8668784D01*
X4121925Y-8668784D02*
X4121925Y-8468784D01*
X4121925Y-8468784D02*
X4102877Y-8497355D01*
X4102877Y-8497355D02*
X4083829Y-8516403D01*
X4083829Y-8516403D02*
X4064782Y-8525927D01*
X4360020Y-8468784D02*
X4264782Y-8468784D01*
X4264782Y-8468784D02*
X4255258Y-8564022D01*
X4255258Y-8564022D02*
X4264782Y-8554498D01*
X4264782Y-8554498D02*
X4283829Y-8544974D01*
X4283829Y-8544974D02*
X4331449Y-8544974D01*
X4331449Y-8544974D02*
X4350496Y-8554498D01*
X4350496Y-8554498D02*
X4360020Y-8564022D01*
X4360020Y-8564022D02*
X4369544Y-8583070D01*
X4369544Y-8583070D02*
X4369544Y-8630689D01*
X4369544Y-8630689D02*
X4360020Y-8649736D01*
X4360020Y-8649736D02*
X4350496Y-8659260D01*
X4350496Y-8659260D02*
X4331449Y-8668784D01*
X4331449Y-8668784D02*
X4283829Y-8668784D01*
X4283829Y-8668784D02*
X4264782Y-8659260D01*
X4264782Y-8659260D02*
X4255258Y-8649736D01*
X4445734Y-8468784D02*
X4445734Y-8506879D01*
X4521925Y-8468784D02*
X4521925Y-8506879D01*
X4817163Y-8744974D02*
X4807639Y-8735450D01*
X4807639Y-8735450D02*
X4788591Y-8706879D01*
X4788591Y-8706879D02*
X4779068Y-8687831D01*
X4779068Y-8687831D02*
X4769544Y-8659260D01*
X4769544Y-8659260D02*
X4760020Y-8611641D01*
X4760020Y-8611641D02*
X4760020Y-8573546D01*
X4760020Y-8573546D02*
X4769544Y-8525927D01*
X4769544Y-8525927D02*
X4779068Y-8497355D01*
X4779068Y-8497355D02*
X4788591Y-8478308D01*
X4788591Y-8478308D02*
X4807639Y-8449736D01*
X4807639Y-8449736D02*
X4817163Y-8440212D01*
X4902877Y-8668784D02*
X4940972Y-8668784D01*
X4940972Y-8668784D02*
X4960020Y-8659260D01*
X4960020Y-8659260D02*
X4969544Y-8649736D01*
X4969544Y-8649736D02*
X4988591Y-8621165D01*
X4988591Y-8621165D02*
X4998115Y-8583070D01*
X4998115Y-8583070D02*
X4998115Y-8506879D01*
X4998115Y-8506879D02*
X4988591Y-8487831D01*
X4988591Y-8487831D02*
X4979068Y-8478308D01*
X4979068Y-8478308D02*
X4960020Y-8468784D01*
X4960020Y-8468784D02*
X4921925Y-8468784D01*
X4921925Y-8468784D02*
X4902877Y-8478308D01*
X4902877Y-8478308D02*
X4893353Y-8487831D01*
X4893353Y-8487831D02*
X4883830Y-8506879D01*
X4883830Y-8506879D02*
X4883830Y-8554498D01*
X4883830Y-8554498D02*
X4893353Y-8573546D01*
X4893353Y-8573546D02*
X4902877Y-8583070D01*
X4902877Y-8583070D02*
X4921925Y-8592593D01*
X4921925Y-8592593D02*
X4960020Y-8592593D01*
X4960020Y-8592593D02*
X4979068Y-8583070D01*
X4979068Y-8583070D02*
X4988591Y-8573546D01*
X4988591Y-8573546D02*
X4998115Y-8554498D01*
X5169544Y-8535450D02*
X5169544Y-8668784D01*
X5121925Y-8459260D02*
X5074306Y-8602117D01*
X5074306Y-8602117D02*
X5198115Y-8602117D01*
X5426687Y-8668784D02*
X5426687Y-8468784D01*
X5512401Y-8668784D02*
X5512401Y-8564022D01*
X5512401Y-8564022D02*
X5502877Y-8544974D01*
X5502877Y-8544974D02*
X5483830Y-8535450D01*
X5483830Y-8535450D02*
X5455258Y-8535450D01*
X5455258Y-8535450D02*
X5436211Y-8544974D01*
X5436211Y-8544974D02*
X5426687Y-8554498D01*
X5636210Y-8668784D02*
X5617163Y-8659260D01*
X5617163Y-8659260D02*
X5607639Y-8649736D01*
X5607639Y-8649736D02*
X5598115Y-8630689D01*
X5598115Y-8630689D02*
X5598115Y-8573546D01*
X5598115Y-8573546D02*
X5607639Y-8554498D01*
X5607639Y-8554498D02*
X5617163Y-8544974D01*
X5617163Y-8544974D02*
X5636210Y-8535450D01*
X5636210Y-8535450D02*
X5664782Y-8535450D01*
X5664782Y-8535450D02*
X5683830Y-8544974D01*
X5683830Y-8544974D02*
X5693353Y-8554498D01*
X5693353Y-8554498D02*
X5702877Y-8573546D01*
X5702877Y-8573546D02*
X5702877Y-8630689D01*
X5702877Y-8630689D02*
X5693353Y-8649736D01*
X5693353Y-8649736D02*
X5683830Y-8659260D01*
X5683830Y-8659260D02*
X5664782Y-8668784D01*
X5664782Y-8668784D02*
X5636210Y-8668784D01*
X5817163Y-8668784D02*
X5798115Y-8659260D01*
X5798115Y-8659260D02*
X5788591Y-8640212D01*
X5788591Y-8640212D02*
X5788591Y-8468784D01*
X5969544Y-8659260D02*
X5950496Y-8668784D01*
X5950496Y-8668784D02*
X5912401Y-8668784D01*
X5912401Y-8668784D02*
X5893353Y-8659260D01*
X5893353Y-8659260D02*
X5883830Y-8640212D01*
X5883830Y-8640212D02*
X5883830Y-8564022D01*
X5883830Y-8564022D02*
X5893353Y-8544974D01*
X5893353Y-8544974D02*
X5912401Y-8535450D01*
X5912401Y-8535450D02*
X5950496Y-8535450D01*
X5950496Y-8535450D02*
X5969544Y-8544974D01*
X5969544Y-8544974D02*
X5979068Y-8564022D01*
X5979068Y-8564022D02*
X5979068Y-8583070D01*
X5979068Y-8583070D02*
X5883830Y-8602117D01*
X6055258Y-8659260D02*
X6074306Y-8668784D01*
X6074306Y-8668784D02*
X6112401Y-8668784D01*
X6112401Y-8668784D02*
X6131449Y-8659260D01*
X6131449Y-8659260D02*
X6140972Y-8640212D01*
X6140972Y-8640212D02*
X6140972Y-8630689D01*
X6140972Y-8630689D02*
X6131449Y-8611641D01*
X6131449Y-8611641D02*
X6112401Y-8602117D01*
X6112401Y-8602117D02*
X6083830Y-8602117D01*
X6083830Y-8602117D02*
X6064782Y-8592593D01*
X6064782Y-8592593D02*
X6055258Y-8573546D01*
X6055258Y-8573546D02*
X6055258Y-8564022D01*
X6055258Y-8564022D02*
X6064782Y-8544974D01*
X6064782Y-8544974D02*
X6083830Y-8535450D01*
X6083830Y-8535450D02*
X6112401Y-8535450D01*
X6112401Y-8535450D02*
X6131449Y-8544974D01*
X6207639Y-8744974D02*
X6217163Y-8735450D01*
X6217163Y-8735450D02*
X6236211Y-8706879D01*
X6236211Y-8706879D02*
X6245734Y-8687831D01*
X6245734Y-8687831D02*
X6255258Y-8659260D01*
X6255258Y-8659260D02*
X6264782Y-8611641D01*
X6264782Y-8611641D02*
X6264782Y-8573546D01*
X6264782Y-8573546D02*
X6255258Y-8525927D01*
X6255258Y-8525927D02*
X6245734Y-8497355D01*
X6245734Y-8497355D02*
X6236211Y-8478308D01*
X6236211Y-8478308D02*
X6217163Y-8449736D01*
X6217163Y-8449736D02*
X6207639Y-8440212D01*
D12*
X1194600Y-8793800D02*
X1194600Y-8888800D01*
X1147100Y-8841300D02*
X1242100Y-8841300D01*
D11*
X1540972Y-8732784D02*
X1560020Y-8732784D01*
X1560020Y-8732784D02*
X1579067Y-8742308D01*
X1579067Y-8742308D02*
X1588591Y-8751831D01*
X1588591Y-8751831D02*
X1598115Y-8770879D01*
X1598115Y-8770879D02*
X1607639Y-8808974D01*
X1607639Y-8808974D02*
X1607639Y-8856593D01*
X1607639Y-8856593D02*
X1598115Y-8894689D01*
X1598115Y-8894689D02*
X1588591Y-8913736D01*
X1588591Y-8913736D02*
X1579067Y-8923260D01*
X1579067Y-8923260D02*
X1560020Y-8932784D01*
X1560020Y-8932784D02*
X1540972Y-8932784D01*
X1540972Y-8932784D02*
X1521924Y-8923260D01*
X1521924Y-8923260D02*
X1512401Y-8913736D01*
X1512401Y-8913736D02*
X1502877Y-8894689D01*
X1502877Y-8894689D02*
X1493353Y-8856593D01*
X1493353Y-8856593D02*
X1493353Y-8808974D01*
X1493353Y-8808974D02*
X1502877Y-8770879D01*
X1502877Y-8770879D02*
X1512401Y-8751831D01*
X1512401Y-8751831D02*
X1521924Y-8742308D01*
X1521924Y-8742308D02*
X1540972Y-8732784D01*
X1693353Y-8913736D02*
X1702877Y-8923260D01*
X1702877Y-8923260D02*
X1693353Y-8932784D01*
X1693353Y-8932784D02*
X1683829Y-8923260D01*
X1683829Y-8923260D02*
X1693353Y-8913736D01*
X1693353Y-8913736D02*
X1693353Y-8932784D01*
X1798115Y-8932784D02*
X1836210Y-8932784D01*
X1836210Y-8932784D02*
X1855258Y-8923260D01*
X1855258Y-8923260D02*
X1864782Y-8913736D01*
X1864782Y-8913736D02*
X1883829Y-8885165D01*
X1883829Y-8885165D02*
X1893353Y-8847070D01*
X1893353Y-8847070D02*
X1893353Y-8770879D01*
X1893353Y-8770879D02*
X1883829Y-8751831D01*
X1883829Y-8751831D02*
X1874305Y-8742308D01*
X1874305Y-8742308D02*
X1855258Y-8732784D01*
X1855258Y-8732784D02*
X1817162Y-8732784D01*
X1817162Y-8732784D02*
X1798115Y-8742308D01*
X1798115Y-8742308D02*
X1788591Y-8751831D01*
X1788591Y-8751831D02*
X1779067Y-8770879D01*
X1779067Y-8770879D02*
X1779067Y-8818498D01*
X1779067Y-8818498D02*
X1788591Y-8837546D01*
X1788591Y-8837546D02*
X1798115Y-8847070D01*
X1798115Y-8847070D02*
X1817162Y-8856593D01*
X1817162Y-8856593D02*
X1855258Y-8856593D01*
X1855258Y-8856593D02*
X1874305Y-8847070D01*
X1874305Y-8847070D02*
X1883829Y-8837546D01*
X1883829Y-8837546D02*
X1893353Y-8818498D01*
X2074305Y-8732784D02*
X1979067Y-8732784D01*
X1979067Y-8732784D02*
X1969543Y-8828022D01*
X1969543Y-8828022D02*
X1979067Y-8818498D01*
X1979067Y-8818498D02*
X1998115Y-8808974D01*
X1998115Y-8808974D02*
X2045734Y-8808974D01*
X2045734Y-8808974D02*
X2064782Y-8818498D01*
X2064782Y-8818498D02*
X2074305Y-8828022D01*
X2074305Y-8828022D02*
X2083829Y-8847070D01*
X2083829Y-8847070D02*
X2083829Y-8894689D01*
X2083829Y-8894689D02*
X2074305Y-8913736D01*
X2074305Y-8913736D02*
X2064782Y-8923260D01*
X2064782Y-8923260D02*
X2045734Y-8932784D01*
X2045734Y-8932784D02*
X1998115Y-8932784D01*
X1998115Y-8932784D02*
X1979067Y-8923260D01*
X1979067Y-8923260D02*
X1969543Y-8913736D01*
X2207639Y-8732784D02*
X2226686Y-8732784D01*
X2226686Y-8732784D02*
X2245734Y-8742308D01*
X2245734Y-8742308D02*
X2255258Y-8751831D01*
X2255258Y-8751831D02*
X2264782Y-8770879D01*
X2264782Y-8770879D02*
X2274305Y-8808974D01*
X2274305Y-8808974D02*
X2274305Y-8856593D01*
X2274305Y-8856593D02*
X2264782Y-8894689D01*
X2264782Y-8894689D02*
X2255258Y-8913736D01*
X2255258Y-8913736D02*
X2245734Y-8923260D01*
X2245734Y-8923260D02*
X2226686Y-8932784D01*
X2226686Y-8932784D02*
X2207639Y-8932784D01*
X2207639Y-8932784D02*
X2188591Y-8923260D01*
X2188591Y-8923260D02*
X2179067Y-8913736D01*
X2179067Y-8913736D02*
X2169544Y-8894689D01*
X2169544Y-8894689D02*
X2160020Y-8856593D01*
X2160020Y-8856593D02*
X2160020Y-8808974D01*
X2160020Y-8808974D02*
X2169544Y-8770879D01*
X2169544Y-8770879D02*
X2179067Y-8751831D01*
X2179067Y-8751831D02*
X2188591Y-8742308D01*
X2188591Y-8742308D02*
X2207639Y-8732784D01*
X2360020Y-8932784D02*
X2360020Y-8799450D01*
X2360020Y-8818498D02*
X2369544Y-8808974D01*
X2369544Y-8808974D02*
X2388591Y-8799450D01*
X2388591Y-8799450D02*
X2417163Y-8799450D01*
X2417163Y-8799450D02*
X2436210Y-8808974D01*
X2436210Y-8808974D02*
X2445734Y-8828022D01*
X2445734Y-8828022D02*
X2445734Y-8932784D01*
X2445734Y-8828022D02*
X2455258Y-8808974D01*
X2455258Y-8808974D02*
X2474305Y-8799450D01*
X2474305Y-8799450D02*
X2502877Y-8799450D01*
X2502877Y-8799450D02*
X2521925Y-8808974D01*
X2521925Y-8808974D02*
X2531448Y-8828022D01*
X2531448Y-8828022D02*
X2531448Y-8932784D01*
X2626686Y-8932784D02*
X2626686Y-8799450D01*
X2626686Y-8818498D02*
X2636210Y-8808974D01*
X2636210Y-8808974D02*
X2655258Y-8799450D01*
X2655258Y-8799450D02*
X2683829Y-8799450D01*
X2683829Y-8799450D02*
X2702877Y-8808974D01*
X2702877Y-8808974D02*
X2712401Y-8828022D01*
X2712401Y-8828022D02*
X2712401Y-8932784D01*
X2712401Y-8828022D02*
X2721925Y-8808974D01*
X2721925Y-8808974D02*
X2740972Y-8799450D01*
X2740972Y-8799450D02*
X2769544Y-8799450D01*
X2769544Y-8799450D02*
X2788591Y-8808974D01*
X2788591Y-8808974D02*
X2798115Y-8828022D01*
X2798115Y-8828022D02*
X2798115Y-8932784D01*
X3188591Y-8723260D02*
X3017163Y-8980403D01*
X3445734Y-8732784D02*
X3464782Y-8732784D01*
X3464782Y-8732784D02*
X3483829Y-8742308D01*
X3483829Y-8742308D02*
X3493353Y-8751831D01*
X3493353Y-8751831D02*
X3502877Y-8770879D01*
X3502877Y-8770879D02*
X3512401Y-8808974D01*
X3512401Y-8808974D02*
X3512401Y-8856593D01*
X3512401Y-8856593D02*
X3502877Y-8894689D01*
X3502877Y-8894689D02*
X3493353Y-8913736D01*
X3493353Y-8913736D02*
X3483829Y-8923260D01*
X3483829Y-8923260D02*
X3464782Y-8932784D01*
X3464782Y-8932784D02*
X3445734Y-8932784D01*
X3445734Y-8932784D02*
X3426686Y-8923260D01*
X3426686Y-8923260D02*
X3417163Y-8913736D01*
X3417163Y-8913736D02*
X3407639Y-8894689D01*
X3407639Y-8894689D02*
X3398115Y-8856593D01*
X3398115Y-8856593D02*
X3398115Y-8808974D01*
X3398115Y-8808974D02*
X3407639Y-8770879D01*
X3407639Y-8770879D02*
X3417163Y-8751831D01*
X3417163Y-8751831D02*
X3426686Y-8742308D01*
X3426686Y-8742308D02*
X3445734Y-8732784D01*
X3598115Y-8913736D02*
X3607639Y-8923260D01*
X3607639Y-8923260D02*
X3598115Y-8932784D01*
X3598115Y-8932784D02*
X3588591Y-8923260D01*
X3588591Y-8923260D02*
X3598115Y-8913736D01*
X3598115Y-8913736D02*
X3598115Y-8932784D01*
X3731448Y-8732784D02*
X3750496Y-8732784D01*
X3750496Y-8732784D02*
X3769544Y-8742308D01*
X3769544Y-8742308D02*
X3779067Y-8751831D01*
X3779067Y-8751831D02*
X3788591Y-8770879D01*
X3788591Y-8770879D02*
X3798115Y-8808974D01*
X3798115Y-8808974D02*
X3798115Y-8856593D01*
X3798115Y-8856593D02*
X3788591Y-8894689D01*
X3788591Y-8894689D02*
X3779067Y-8913736D01*
X3779067Y-8913736D02*
X3769544Y-8923260D01*
X3769544Y-8923260D02*
X3750496Y-8932784D01*
X3750496Y-8932784D02*
X3731448Y-8932784D01*
X3731448Y-8932784D02*
X3712401Y-8923260D01*
X3712401Y-8923260D02*
X3702877Y-8913736D01*
X3702877Y-8913736D02*
X3693353Y-8894689D01*
X3693353Y-8894689D02*
X3683829Y-8856593D01*
X3683829Y-8856593D02*
X3683829Y-8808974D01*
X3683829Y-8808974D02*
X3693353Y-8770879D01*
X3693353Y-8770879D02*
X3702877Y-8751831D01*
X3702877Y-8751831D02*
X3712401Y-8742308D01*
X3712401Y-8742308D02*
X3731448Y-8732784D01*
X3864782Y-8732784D02*
X3988591Y-8732784D01*
X3988591Y-8732784D02*
X3921925Y-8808974D01*
X3921925Y-8808974D02*
X3950496Y-8808974D01*
X3950496Y-8808974D02*
X3969544Y-8818498D01*
X3969544Y-8818498D02*
X3979067Y-8828022D01*
X3979067Y-8828022D02*
X3988591Y-8847070D01*
X3988591Y-8847070D02*
X3988591Y-8894689D01*
X3988591Y-8894689D02*
X3979067Y-8913736D01*
X3979067Y-8913736D02*
X3969544Y-8923260D01*
X3969544Y-8923260D02*
X3950496Y-8932784D01*
X3950496Y-8932784D02*
X3893353Y-8932784D01*
X3893353Y-8932784D02*
X3874306Y-8923260D01*
X3874306Y-8923260D02*
X3864782Y-8913736D01*
X4055258Y-8732784D02*
X4188591Y-8732784D01*
X4188591Y-8732784D02*
X4102877Y-8932784D01*
X4350496Y-8799450D02*
X4350496Y-8932784D01*
X4302877Y-8723260D02*
X4255258Y-8866117D01*
X4255258Y-8866117D02*
X4379068Y-8866117D01*
X4445734Y-8732784D02*
X4445734Y-8770879D01*
X4521925Y-8732784D02*
X4521925Y-8770879D01*
X4817163Y-9008974D02*
X4807639Y-8999450D01*
X4807639Y-8999450D02*
X4788591Y-8970879D01*
X4788591Y-8970879D02*
X4779068Y-8951831D01*
X4779068Y-8951831D02*
X4769544Y-8923260D01*
X4769544Y-8923260D02*
X4760020Y-8875641D01*
X4760020Y-8875641D02*
X4760020Y-8837546D01*
X4760020Y-8837546D02*
X4769544Y-8789927D01*
X4769544Y-8789927D02*
X4779068Y-8761355D01*
X4779068Y-8761355D02*
X4788591Y-8742308D01*
X4788591Y-8742308D02*
X4807639Y-8713736D01*
X4807639Y-8713736D02*
X4817163Y-8704212D01*
X4979068Y-8799450D02*
X4979068Y-8932784D01*
X4931449Y-8723260D02*
X4883830Y-8866117D01*
X4883830Y-8866117D02*
X5007639Y-8866117D01*
X5188591Y-8932784D02*
X5074306Y-8932784D01*
X5131449Y-8932784D02*
X5131449Y-8732784D01*
X5131449Y-8732784D02*
X5112401Y-8761355D01*
X5112401Y-8761355D02*
X5093353Y-8780403D01*
X5093353Y-8780403D02*
X5074306Y-8789927D01*
X5426687Y-8932784D02*
X5426687Y-8732784D01*
X5512401Y-8932784D02*
X5512401Y-8828022D01*
X5512401Y-8828022D02*
X5502877Y-8808974D01*
X5502877Y-8808974D02*
X5483830Y-8799450D01*
X5483830Y-8799450D02*
X5455258Y-8799450D01*
X5455258Y-8799450D02*
X5436211Y-8808974D01*
X5436211Y-8808974D02*
X5426687Y-8818498D01*
X5636210Y-8932784D02*
X5617163Y-8923260D01*
X5617163Y-8923260D02*
X5607639Y-8913736D01*
X5607639Y-8913736D02*
X5598115Y-8894689D01*
X5598115Y-8894689D02*
X5598115Y-8837546D01*
X5598115Y-8837546D02*
X5607639Y-8818498D01*
X5607639Y-8818498D02*
X5617163Y-8808974D01*
X5617163Y-8808974D02*
X5636210Y-8799450D01*
X5636210Y-8799450D02*
X5664782Y-8799450D01*
X5664782Y-8799450D02*
X5683830Y-8808974D01*
X5683830Y-8808974D02*
X5693353Y-8818498D01*
X5693353Y-8818498D02*
X5702877Y-8837546D01*
X5702877Y-8837546D02*
X5702877Y-8894689D01*
X5702877Y-8894689D02*
X5693353Y-8913736D01*
X5693353Y-8913736D02*
X5683830Y-8923260D01*
X5683830Y-8923260D02*
X5664782Y-8932784D01*
X5664782Y-8932784D02*
X5636210Y-8932784D01*
X5817163Y-8932784D02*
X5798115Y-8923260D01*
X5798115Y-8923260D02*
X5788591Y-8904212D01*
X5788591Y-8904212D02*
X5788591Y-8732784D01*
X5969544Y-8923260D02*
X5950496Y-8932784D01*
X5950496Y-8932784D02*
X5912401Y-8932784D01*
X5912401Y-8932784D02*
X5893353Y-8923260D01*
X5893353Y-8923260D02*
X5883830Y-8904212D01*
X5883830Y-8904212D02*
X5883830Y-8828022D01*
X5883830Y-8828022D02*
X5893353Y-8808974D01*
X5893353Y-8808974D02*
X5912401Y-8799450D01*
X5912401Y-8799450D02*
X5950496Y-8799450D01*
X5950496Y-8799450D02*
X5969544Y-8808974D01*
X5969544Y-8808974D02*
X5979068Y-8828022D01*
X5979068Y-8828022D02*
X5979068Y-8847070D01*
X5979068Y-8847070D02*
X5883830Y-8866117D01*
X6055258Y-8923260D02*
X6074306Y-8932784D01*
X6074306Y-8932784D02*
X6112401Y-8932784D01*
X6112401Y-8932784D02*
X6131449Y-8923260D01*
X6131449Y-8923260D02*
X6140972Y-8904212D01*
X6140972Y-8904212D02*
X6140972Y-8894689D01*
X6140972Y-8894689D02*
X6131449Y-8875641D01*
X6131449Y-8875641D02*
X6112401Y-8866117D01*
X6112401Y-8866117D02*
X6083830Y-8866117D01*
X6083830Y-8866117D02*
X6064782Y-8856593D01*
X6064782Y-8856593D02*
X6055258Y-8837546D01*
X6055258Y-8837546D02*
X6055258Y-8828022D01*
X6055258Y-8828022D02*
X6064782Y-8808974D01*
X6064782Y-8808974D02*
X6083830Y-8799450D01*
X6083830Y-8799450D02*
X6112401Y-8799450D01*
X6112401Y-8799450D02*
X6131449Y-8808974D01*
X6207639Y-9008974D02*
X6217163Y-8999450D01*
X6217163Y-8999450D02*
X6236211Y-8970879D01*
X6236211Y-8970879D02*
X6245734Y-8951831D01*
X6245734Y-8951831D02*
X6255258Y-8923260D01*
X6255258Y-8923260D02*
X6264782Y-8875641D01*
X6264782Y-8875641D02*
X6264782Y-8837546D01*
X6264782Y-8837546D02*
X6255258Y-8789927D01*
X6255258Y-8789927D02*
X6245734Y-8761355D01*
X6245734Y-8761355D02*
X6236211Y-8742308D01*
X6236211Y-8742308D02*
X6217163Y-8713736D01*
X6217163Y-8713736D02*
X6207639Y-8704212D01*
D12*
X1227456Y-9140656D02*
X1227456Y-9069944D01*
X1156744Y-9069944D01*
X1156744Y-9140656D01*
X1227456Y-9140656D01*
D11*
X1607639Y-9196784D02*
X1493353Y-9196784D01*
X1550496Y-9196784D02*
X1550496Y-8996784D01*
X1550496Y-8996784D02*
X1531448Y-9025355D01*
X1531448Y-9025355D02*
X1512401Y-9044403D01*
X1512401Y-9044403D02*
X1493353Y-9053927D01*
X1693353Y-9177736D02*
X1702877Y-9187260D01*
X1702877Y-9187260D02*
X1693353Y-9196784D01*
X1693353Y-9196784D02*
X1683829Y-9187260D01*
X1683829Y-9187260D02*
X1693353Y-9177736D01*
X1693353Y-9177736D02*
X1693353Y-9196784D01*
X1826686Y-8996784D02*
X1845734Y-8996784D01*
X1845734Y-8996784D02*
X1864782Y-9006308D01*
X1864782Y-9006308D02*
X1874305Y-9015831D01*
X1874305Y-9015831D02*
X1883829Y-9034879D01*
X1883829Y-9034879D02*
X1893353Y-9072974D01*
X1893353Y-9072974D02*
X1893353Y-9120593D01*
X1893353Y-9120593D02*
X1883829Y-9158689D01*
X1883829Y-9158689D02*
X1874305Y-9177736D01*
X1874305Y-9177736D02*
X1864782Y-9187260D01*
X1864782Y-9187260D02*
X1845734Y-9196784D01*
X1845734Y-9196784D02*
X1826686Y-9196784D01*
X1826686Y-9196784D02*
X1807639Y-9187260D01*
X1807639Y-9187260D02*
X1798115Y-9177736D01*
X1798115Y-9177736D02*
X1788591Y-9158689D01*
X1788591Y-9158689D02*
X1779067Y-9120593D01*
X1779067Y-9120593D02*
X1779067Y-9072974D01*
X1779067Y-9072974D02*
X1788591Y-9034879D01*
X1788591Y-9034879D02*
X1798115Y-9015831D01*
X1798115Y-9015831D02*
X1807639Y-9006308D01*
X1807639Y-9006308D02*
X1826686Y-8996784D01*
X2017162Y-8996784D02*
X2036210Y-8996784D01*
X2036210Y-8996784D02*
X2055258Y-9006308D01*
X2055258Y-9006308D02*
X2064782Y-9015831D01*
X2064782Y-9015831D02*
X2074305Y-9034879D01*
X2074305Y-9034879D02*
X2083829Y-9072974D01*
X2083829Y-9072974D02*
X2083829Y-9120593D01*
X2083829Y-9120593D02*
X2074305Y-9158689D01*
X2074305Y-9158689D02*
X2064782Y-9177736D01*
X2064782Y-9177736D02*
X2055258Y-9187260D01*
X2055258Y-9187260D02*
X2036210Y-9196784D01*
X2036210Y-9196784D02*
X2017162Y-9196784D01*
X2017162Y-9196784D02*
X1998115Y-9187260D01*
X1998115Y-9187260D02*
X1988591Y-9177736D01*
X1988591Y-9177736D02*
X1979067Y-9158689D01*
X1979067Y-9158689D02*
X1969543Y-9120593D01*
X1969543Y-9120593D02*
X1969543Y-9072974D01*
X1969543Y-9072974D02*
X1979067Y-9034879D01*
X1979067Y-9034879D02*
X1988591Y-9015831D01*
X1988591Y-9015831D02*
X1998115Y-9006308D01*
X1998115Y-9006308D02*
X2017162Y-8996784D01*
X2207639Y-8996784D02*
X2226686Y-8996784D01*
X2226686Y-8996784D02*
X2245734Y-9006308D01*
X2245734Y-9006308D02*
X2255258Y-9015831D01*
X2255258Y-9015831D02*
X2264782Y-9034879D01*
X2264782Y-9034879D02*
X2274305Y-9072974D01*
X2274305Y-9072974D02*
X2274305Y-9120593D01*
X2274305Y-9120593D02*
X2264782Y-9158689D01*
X2264782Y-9158689D02*
X2255258Y-9177736D01*
X2255258Y-9177736D02*
X2245734Y-9187260D01*
X2245734Y-9187260D02*
X2226686Y-9196784D01*
X2226686Y-9196784D02*
X2207639Y-9196784D01*
X2207639Y-9196784D02*
X2188591Y-9187260D01*
X2188591Y-9187260D02*
X2179067Y-9177736D01*
X2179067Y-9177736D02*
X2169544Y-9158689D01*
X2169544Y-9158689D02*
X2160020Y-9120593D01*
X2160020Y-9120593D02*
X2160020Y-9072974D01*
X2160020Y-9072974D02*
X2169544Y-9034879D01*
X2169544Y-9034879D02*
X2179067Y-9015831D01*
X2179067Y-9015831D02*
X2188591Y-9006308D01*
X2188591Y-9006308D02*
X2207639Y-8996784D01*
X2360020Y-9196784D02*
X2360020Y-9063450D01*
X2360020Y-9082498D02*
X2369544Y-9072974D01*
X2369544Y-9072974D02*
X2388591Y-9063450D01*
X2388591Y-9063450D02*
X2417163Y-9063450D01*
X2417163Y-9063450D02*
X2436210Y-9072974D01*
X2436210Y-9072974D02*
X2445734Y-9092022D01*
X2445734Y-9092022D02*
X2445734Y-9196784D01*
X2445734Y-9092022D02*
X2455258Y-9072974D01*
X2455258Y-9072974D02*
X2474305Y-9063450D01*
X2474305Y-9063450D02*
X2502877Y-9063450D01*
X2502877Y-9063450D02*
X2521925Y-9072974D01*
X2521925Y-9072974D02*
X2531448Y-9092022D01*
X2531448Y-9092022D02*
X2531448Y-9196784D01*
X2626686Y-9196784D02*
X2626686Y-9063450D01*
X2626686Y-9082498D02*
X2636210Y-9072974D01*
X2636210Y-9072974D02*
X2655258Y-9063450D01*
X2655258Y-9063450D02*
X2683829Y-9063450D01*
X2683829Y-9063450D02*
X2702877Y-9072974D01*
X2702877Y-9072974D02*
X2712401Y-9092022D01*
X2712401Y-9092022D02*
X2712401Y-9196784D01*
X2712401Y-9092022D02*
X2721925Y-9072974D01*
X2721925Y-9072974D02*
X2740972Y-9063450D01*
X2740972Y-9063450D02*
X2769544Y-9063450D01*
X2769544Y-9063450D02*
X2788591Y-9072974D01*
X2788591Y-9072974D02*
X2798115Y-9092022D01*
X2798115Y-9092022D02*
X2798115Y-9196784D01*
X3188591Y-8987260D02*
X3017163Y-9244403D01*
X3445734Y-8996784D02*
X3464782Y-8996784D01*
X3464782Y-8996784D02*
X3483829Y-9006308D01*
X3483829Y-9006308D02*
X3493353Y-9015831D01*
X3493353Y-9015831D02*
X3502877Y-9034879D01*
X3502877Y-9034879D02*
X3512401Y-9072974D01*
X3512401Y-9072974D02*
X3512401Y-9120593D01*
X3512401Y-9120593D02*
X3502877Y-9158689D01*
X3502877Y-9158689D02*
X3493353Y-9177736D01*
X3493353Y-9177736D02*
X3483829Y-9187260D01*
X3483829Y-9187260D02*
X3464782Y-9196784D01*
X3464782Y-9196784D02*
X3445734Y-9196784D01*
X3445734Y-9196784D02*
X3426686Y-9187260D01*
X3426686Y-9187260D02*
X3417163Y-9177736D01*
X3417163Y-9177736D02*
X3407639Y-9158689D01*
X3407639Y-9158689D02*
X3398115Y-9120593D01*
X3398115Y-9120593D02*
X3398115Y-9072974D01*
X3398115Y-9072974D02*
X3407639Y-9034879D01*
X3407639Y-9034879D02*
X3417163Y-9015831D01*
X3417163Y-9015831D02*
X3426686Y-9006308D01*
X3426686Y-9006308D02*
X3445734Y-8996784D01*
X3598115Y-9177736D02*
X3607639Y-9187260D01*
X3607639Y-9187260D02*
X3598115Y-9196784D01*
X3598115Y-9196784D02*
X3588591Y-9187260D01*
X3588591Y-9187260D02*
X3598115Y-9177736D01*
X3598115Y-9177736D02*
X3598115Y-9196784D01*
X3731448Y-8996784D02*
X3750496Y-8996784D01*
X3750496Y-8996784D02*
X3769544Y-9006308D01*
X3769544Y-9006308D02*
X3779067Y-9015831D01*
X3779067Y-9015831D02*
X3788591Y-9034879D01*
X3788591Y-9034879D02*
X3798115Y-9072974D01*
X3798115Y-9072974D02*
X3798115Y-9120593D01*
X3798115Y-9120593D02*
X3788591Y-9158689D01*
X3788591Y-9158689D02*
X3779067Y-9177736D01*
X3779067Y-9177736D02*
X3769544Y-9187260D01*
X3769544Y-9187260D02*
X3750496Y-9196784D01*
X3750496Y-9196784D02*
X3731448Y-9196784D01*
X3731448Y-9196784D02*
X3712401Y-9187260D01*
X3712401Y-9187260D02*
X3702877Y-9177736D01*
X3702877Y-9177736D02*
X3693353Y-9158689D01*
X3693353Y-9158689D02*
X3683829Y-9120593D01*
X3683829Y-9120593D02*
X3683829Y-9072974D01*
X3683829Y-9072974D02*
X3693353Y-9034879D01*
X3693353Y-9034879D02*
X3702877Y-9015831D01*
X3702877Y-9015831D02*
X3712401Y-9006308D01*
X3712401Y-9006308D02*
X3731448Y-8996784D01*
X3864782Y-8996784D02*
X3988591Y-8996784D01*
X3988591Y-8996784D02*
X3921925Y-9072974D01*
X3921925Y-9072974D02*
X3950496Y-9072974D01*
X3950496Y-9072974D02*
X3969544Y-9082498D01*
X3969544Y-9082498D02*
X3979067Y-9092022D01*
X3979067Y-9092022D02*
X3988591Y-9111070D01*
X3988591Y-9111070D02*
X3988591Y-9158689D01*
X3988591Y-9158689D02*
X3979067Y-9177736D01*
X3979067Y-9177736D02*
X3969544Y-9187260D01*
X3969544Y-9187260D02*
X3950496Y-9196784D01*
X3950496Y-9196784D02*
X3893353Y-9196784D01*
X3893353Y-9196784D02*
X3874306Y-9187260D01*
X3874306Y-9187260D02*
X3864782Y-9177736D01*
X4083829Y-9196784D02*
X4121925Y-9196784D01*
X4121925Y-9196784D02*
X4140972Y-9187260D01*
X4140972Y-9187260D02*
X4150496Y-9177736D01*
X4150496Y-9177736D02*
X4169544Y-9149165D01*
X4169544Y-9149165D02*
X4179067Y-9111070D01*
X4179067Y-9111070D02*
X4179067Y-9034879D01*
X4179067Y-9034879D02*
X4169544Y-9015831D01*
X4169544Y-9015831D02*
X4160020Y-9006308D01*
X4160020Y-9006308D02*
X4140972Y-8996784D01*
X4140972Y-8996784D02*
X4102877Y-8996784D01*
X4102877Y-8996784D02*
X4083829Y-9006308D01*
X4083829Y-9006308D02*
X4074306Y-9015831D01*
X4074306Y-9015831D02*
X4064782Y-9034879D01*
X4064782Y-9034879D02*
X4064782Y-9082498D01*
X4064782Y-9082498D02*
X4074306Y-9101546D01*
X4074306Y-9101546D02*
X4083829Y-9111070D01*
X4083829Y-9111070D02*
X4102877Y-9120593D01*
X4102877Y-9120593D02*
X4140972Y-9120593D01*
X4140972Y-9120593D02*
X4160020Y-9111070D01*
X4160020Y-9111070D02*
X4169544Y-9101546D01*
X4169544Y-9101546D02*
X4179067Y-9082498D01*
X4350496Y-9063450D02*
X4350496Y-9196784D01*
X4302877Y-8987260D02*
X4255258Y-9130117D01*
X4255258Y-9130117D02*
X4379068Y-9130117D01*
X4445734Y-8996784D02*
X4445734Y-9034879D01*
X4521925Y-8996784D02*
X4521925Y-9034879D01*
X4817163Y-9272974D02*
X4807639Y-9263450D01*
X4807639Y-9263450D02*
X4788591Y-9234879D01*
X4788591Y-9234879D02*
X4779068Y-9215831D01*
X4779068Y-9215831D02*
X4769544Y-9187260D01*
X4769544Y-9187260D02*
X4760020Y-9139641D01*
X4760020Y-9139641D02*
X4760020Y-9101546D01*
X4760020Y-9101546D02*
X4769544Y-9053927D01*
X4769544Y-9053927D02*
X4779068Y-9025355D01*
X4779068Y-9025355D02*
X4788591Y-9006308D01*
X4788591Y-9006308D02*
X4807639Y-8977736D01*
X4807639Y-8977736D02*
X4817163Y-8968212D01*
X4883830Y-9015831D02*
X4893353Y-9006308D01*
X4893353Y-9006308D02*
X4912401Y-8996784D01*
X4912401Y-8996784D02*
X4960020Y-8996784D01*
X4960020Y-8996784D02*
X4979068Y-9006308D01*
X4979068Y-9006308D02*
X4988591Y-9015831D01*
X4988591Y-9015831D02*
X4998115Y-9034879D01*
X4998115Y-9034879D02*
X4998115Y-9053927D01*
X4998115Y-9053927D02*
X4988591Y-9082498D01*
X4988591Y-9082498D02*
X4874306Y-9196784D01*
X4874306Y-9196784D02*
X4998115Y-9196784D01*
X5188591Y-9196784D02*
X5074306Y-9196784D01*
X5131449Y-9196784D02*
X5131449Y-8996784D01*
X5131449Y-8996784D02*
X5112401Y-9025355D01*
X5112401Y-9025355D02*
X5093353Y-9044403D01*
X5093353Y-9044403D02*
X5074306Y-9053927D01*
X5426687Y-9196784D02*
X5426687Y-8996784D01*
X5512401Y-9196784D02*
X5512401Y-9092022D01*
X5512401Y-9092022D02*
X5502877Y-9072974D01*
X5502877Y-9072974D02*
X5483830Y-9063450D01*
X5483830Y-9063450D02*
X5455258Y-9063450D01*
X5455258Y-9063450D02*
X5436211Y-9072974D01*
X5436211Y-9072974D02*
X5426687Y-9082498D01*
X5636210Y-9196784D02*
X5617163Y-9187260D01*
X5617163Y-9187260D02*
X5607639Y-9177736D01*
X5607639Y-9177736D02*
X5598115Y-9158689D01*
X5598115Y-9158689D02*
X5598115Y-9101546D01*
X5598115Y-9101546D02*
X5607639Y-9082498D01*
X5607639Y-9082498D02*
X5617163Y-9072974D01*
X5617163Y-9072974D02*
X5636210Y-9063450D01*
X5636210Y-9063450D02*
X5664782Y-9063450D01*
X5664782Y-9063450D02*
X5683830Y-9072974D01*
X5683830Y-9072974D02*
X5693353Y-9082498D01*
X5693353Y-9082498D02*
X5702877Y-9101546D01*
X5702877Y-9101546D02*
X5702877Y-9158689D01*
X5702877Y-9158689D02*
X5693353Y-9177736D01*
X5693353Y-9177736D02*
X5683830Y-9187260D01*
X5683830Y-9187260D02*
X5664782Y-9196784D01*
X5664782Y-9196784D02*
X5636210Y-9196784D01*
X5817163Y-9196784D02*
X5798115Y-9187260D01*
X5798115Y-9187260D02*
X5788591Y-9168212D01*
X5788591Y-9168212D02*
X5788591Y-8996784D01*
X5969544Y-9187260D02*
X5950496Y-9196784D01*
X5950496Y-9196784D02*
X5912401Y-9196784D01*
X5912401Y-9196784D02*
X5893353Y-9187260D01*
X5893353Y-9187260D02*
X5883830Y-9168212D01*
X5883830Y-9168212D02*
X5883830Y-9092022D01*
X5883830Y-9092022D02*
X5893353Y-9072974D01*
X5893353Y-9072974D02*
X5912401Y-9063450D01*
X5912401Y-9063450D02*
X5950496Y-9063450D01*
X5950496Y-9063450D02*
X5969544Y-9072974D01*
X5969544Y-9072974D02*
X5979068Y-9092022D01*
X5979068Y-9092022D02*
X5979068Y-9111070D01*
X5979068Y-9111070D02*
X5883830Y-9130117D01*
X6055258Y-9187260D02*
X6074306Y-9196784D01*
X6074306Y-9196784D02*
X6112401Y-9196784D01*
X6112401Y-9196784D02*
X6131449Y-9187260D01*
X6131449Y-9187260D02*
X6140972Y-9168212D01*
X6140972Y-9168212D02*
X6140972Y-9158689D01*
X6140972Y-9158689D02*
X6131449Y-9139641D01*
X6131449Y-9139641D02*
X6112401Y-9130117D01*
X6112401Y-9130117D02*
X6083830Y-9130117D01*
X6083830Y-9130117D02*
X6064782Y-9120593D01*
X6064782Y-9120593D02*
X6055258Y-9101546D01*
X6055258Y-9101546D02*
X6055258Y-9092022D01*
X6055258Y-9092022D02*
X6064782Y-9072974D01*
X6064782Y-9072974D02*
X6083830Y-9063450D01*
X6083830Y-9063450D02*
X6112401Y-9063450D01*
X6112401Y-9063450D02*
X6131449Y-9072974D01*
X6207639Y-9272974D02*
X6217163Y-9263450D01*
X6217163Y-9263450D02*
X6236211Y-9234879D01*
X6236211Y-9234879D02*
X6245734Y-9215831D01*
X6245734Y-9215831D02*
X6255258Y-9187260D01*
X6255258Y-9187260D02*
X6264782Y-9139641D01*
X6264782Y-9139641D02*
X6264782Y-9101546D01*
X6264782Y-9101546D02*
X6255258Y-9053927D01*
X6255258Y-9053927D02*
X6245734Y-9025355D01*
X6245734Y-9025355D02*
X6236211Y-9006308D01*
X6236211Y-9006308D02*
X6217163Y-8977736D01*
X6217163Y-8977736D02*
X6207639Y-8968212D01*
M02*
