%TF.GenerationSoftware,KiCad,Pcbnew,9.0.2*%
%TF.CreationDate,2025-07-11T17:02:26-07:00*%
%TF.ProjectId,hbridge_rev,68627269-6467-4655-9f72-65762e6b6963,rev?*%
%TF.SameCoordinates,Original*%
%TF.FileFunction,Legend,Top*%
%TF.FilePolarity,Positive*%
%FSLAX46Y46*%
G04 Gerber Fmt 4.6, Leading zero omitted, Abs format (unit mm)*
G04 Created by KiCad (PCBNEW 9.0.2) date 2025-07-11 17:02:26*
%MOMM*%
%LPD*%
G01*
G04 APERTURE LIST*
G04 Aperture macros list*
%AMRoundRect*
0 Rectangle with rounded corners*
0 $1 Rounding radius*
0 $2 $3 $4 $5 $6 $7 $8 $9 X,Y pos of 4 corners*
0 Add a 4 corners polygon primitive as box body*
4,1,4,$2,$3,$4,$5,$6,$7,$8,$9,$2,$3,0*
0 Add four circle primitives for the rounded corners*
1,1,$1+$1,$2,$3*
1,1,$1+$1,$4,$5*
1,1,$1+$1,$6,$7*
1,1,$1+$1,$8,$9*
0 Add four rect primitives between the rounded corners*
20,1,$1+$1,$2,$3,$4,$5,0*
20,1,$1+$1,$4,$5,$6,$7,0*
20,1,$1+$1,$6,$7,$8,$9,0*
20,1,$1+$1,$8,$9,$2,$3,0*%
G04 Aperture macros list end*
%ADD10C,0.200000*%
%ADD11C,0.100000*%
%ADD12C,0.250000*%
%ADD13C,0.400000*%
%ADD14C,0.120000*%
%ADD15C,0.600000*%
%ADD16C,0.300000*%
%ADD17R,1.800000X2.600000*%
%ADD18O,1.800000X2.600000*%
%ADD19C,1.600000*%
%ADD20O,1.600000X1.600000*%
%ADD21R,1.500000X1.050000*%
%ADD22O,1.500000X1.050000*%
%ADD23R,1.350000X1.350000*%
%ADD24R,1.500000X1.500000*%
%ADD25C,1.500000*%
%ADD26C,1.200000*%
%ADD27RoundRect,0.250000X-0.750000X0.600000X-0.750000X-0.600000X0.750000X-0.600000X0.750000X0.600000X0*%
%ADD28O,2.000000X1.700000*%
%ADD29RoundRect,0.250000X0.750000X-0.600000X0.750000X0.600000X-0.750000X0.600000X-0.750000X-0.600000X0*%
%ADD30RoundRect,0.250000X-0.725000X0.600000X-0.725000X-0.600000X0.725000X-0.600000X0.725000X0.600000X0*%
%ADD31O,1.950000X1.700000*%
%ADD32R,1.500000X2.000000*%
%ADD33O,1.500000X2.000000*%
%ADD34R,1.133000X1.133000*%
%ADD35C,1.133000*%
G04 APERTURE END LIST*
D10*
X60325000Y-13970000D02*
X108839000Y-13970000D01*
X108839000Y-21463000D01*
X60325000Y-21463000D01*
X60325000Y-13970000D01*
X40259000Y-43180000D02*
X61976000Y-43180000D01*
X61976000Y-54991000D01*
X40259000Y-54991000D01*
X40259000Y-43180000D01*
D11*
X52383961Y-16129000D02*
G75*
G02*
X51248039Y-16129000I-567961J0D01*
G01*
X51248039Y-16129000D02*
G75*
G02*
X52383961Y-16129000I567961J0D01*
G01*
D10*
X60452000Y-31115000D02*
X108966000Y-31115000D01*
X108966000Y-38608000D01*
X60452000Y-38608000D01*
X60452000Y-31115000D01*
X110254695Y-21648945D02*
X109454695Y-21648945D01*
X109454695Y-21648945D02*
X110026123Y-21382279D01*
X110026123Y-21382279D02*
X109454695Y-21115612D01*
X109454695Y-21115612D02*
X110254695Y-21115612D01*
X110254695Y-20315612D02*
X110254695Y-20772755D01*
X110254695Y-20544183D02*
X109454695Y-20544183D01*
X109454695Y-20544183D02*
X109568980Y-20620374D01*
X109568980Y-20620374D02*
X109645171Y-20696564D01*
X109645171Y-20696564D02*
X109683266Y-20772755D01*
X109949933Y-19972754D02*
X109949933Y-19363231D01*
X110254695Y-19667992D02*
X109645171Y-19667992D01*
X111016482Y-40697838D02*
X110921244Y-40650219D01*
X110921244Y-40650219D02*
X110778387Y-40650219D01*
X110778387Y-40650219D02*
X110635530Y-40697838D01*
X110635530Y-40697838D02*
X110540292Y-40793076D01*
X110540292Y-40793076D02*
X110492673Y-40888314D01*
X110492673Y-40888314D02*
X110445054Y-41078790D01*
X110445054Y-41078790D02*
X110445054Y-41221647D01*
X110445054Y-41221647D02*
X110492673Y-41412123D01*
X110492673Y-41412123D02*
X110540292Y-41507361D01*
X110540292Y-41507361D02*
X110635530Y-41602600D01*
X110635530Y-41602600D02*
X110778387Y-41650219D01*
X110778387Y-41650219D02*
X110873625Y-41650219D01*
X110873625Y-41650219D02*
X111016482Y-41602600D01*
X111016482Y-41602600D02*
X111064101Y-41554980D01*
X111064101Y-41554980D02*
X111064101Y-41221647D01*
X111064101Y-41221647D02*
X110873625Y-41221647D01*
X112016482Y-41650219D02*
X111445054Y-41650219D01*
X111730768Y-41650219D02*
X111730768Y-40650219D01*
X111730768Y-40650219D02*
X111635530Y-40793076D01*
X111635530Y-40793076D02*
X111540292Y-40888314D01*
X111540292Y-40888314D02*
X111445054Y-40935933D01*
X110254695Y-38793945D02*
X109454695Y-38793945D01*
X109454695Y-38793945D02*
X110026123Y-38527279D01*
X110026123Y-38527279D02*
X109454695Y-38260612D01*
X109454695Y-38260612D02*
X110254695Y-38260612D01*
X109530885Y-37917755D02*
X109492790Y-37879659D01*
X109492790Y-37879659D02*
X109454695Y-37803469D01*
X109454695Y-37803469D02*
X109454695Y-37612993D01*
X109454695Y-37612993D02*
X109492790Y-37536802D01*
X109492790Y-37536802D02*
X109530885Y-37498707D01*
X109530885Y-37498707D02*
X109607076Y-37460612D01*
X109607076Y-37460612D02*
X109683266Y-37460612D01*
X109683266Y-37460612D02*
X109797552Y-37498707D01*
X109797552Y-37498707D02*
X110254695Y-37955850D01*
X110254695Y-37955850D02*
X110254695Y-37460612D01*
X109949933Y-37117754D02*
X109949933Y-36508231D01*
X110254695Y-36812992D02*
X109645171Y-36812992D01*
X20943673Y-24632219D02*
X20943673Y-23632219D01*
X20943673Y-23632219D02*
X21181768Y-23632219D01*
X21181768Y-23632219D02*
X21324625Y-23679838D01*
X21324625Y-23679838D02*
X21419863Y-23775076D01*
X21419863Y-23775076D02*
X21467482Y-23870314D01*
X21467482Y-23870314D02*
X21515101Y-24060790D01*
X21515101Y-24060790D02*
X21515101Y-24203647D01*
X21515101Y-24203647D02*
X21467482Y-24394123D01*
X21467482Y-24394123D02*
X21419863Y-24489361D01*
X21419863Y-24489361D02*
X21324625Y-24584600D01*
X21324625Y-24584600D02*
X21181768Y-24632219D01*
X21181768Y-24632219D02*
X20943673Y-24632219D01*
X21896054Y-23727457D02*
X21943673Y-23679838D01*
X21943673Y-23679838D02*
X22038911Y-23632219D01*
X22038911Y-23632219D02*
X22277006Y-23632219D01*
X22277006Y-23632219D02*
X22372244Y-23679838D01*
X22372244Y-23679838D02*
X22419863Y-23727457D01*
X22419863Y-23727457D02*
X22467482Y-23822695D01*
X22467482Y-23822695D02*
X22467482Y-23917933D01*
X22467482Y-23917933D02*
X22419863Y-24060790D01*
X22419863Y-24060790D02*
X21848435Y-24632219D01*
X21848435Y-24632219D02*
X22467482Y-24632219D01*
X106938482Y-40697838D02*
X106843244Y-40650219D01*
X106843244Y-40650219D02*
X106700387Y-40650219D01*
X106700387Y-40650219D02*
X106557530Y-40697838D01*
X106557530Y-40697838D02*
X106462292Y-40793076D01*
X106462292Y-40793076D02*
X106414673Y-40888314D01*
X106414673Y-40888314D02*
X106367054Y-41078790D01*
X106367054Y-41078790D02*
X106367054Y-41221647D01*
X106367054Y-41221647D02*
X106414673Y-41412123D01*
X106414673Y-41412123D02*
X106462292Y-41507361D01*
X106462292Y-41507361D02*
X106557530Y-41602600D01*
X106557530Y-41602600D02*
X106700387Y-41650219D01*
X106700387Y-41650219D02*
X106795625Y-41650219D01*
X106795625Y-41650219D02*
X106938482Y-41602600D01*
X106938482Y-41602600D02*
X106986101Y-41554980D01*
X106986101Y-41554980D02*
X106986101Y-41221647D01*
X106986101Y-41221647D02*
X106795625Y-41221647D01*
X107319435Y-40650219D02*
X107938482Y-40650219D01*
X107938482Y-40650219D02*
X107605149Y-41031171D01*
X107605149Y-41031171D02*
X107748006Y-41031171D01*
X107748006Y-41031171D02*
X107843244Y-41078790D01*
X107843244Y-41078790D02*
X107890863Y-41126409D01*
X107890863Y-41126409D02*
X107938482Y-41221647D01*
X107938482Y-41221647D02*
X107938482Y-41459742D01*
X107938482Y-41459742D02*
X107890863Y-41554980D01*
X107890863Y-41554980D02*
X107843244Y-41602600D01*
X107843244Y-41602600D02*
X107748006Y-41650219D01*
X107748006Y-41650219D02*
X107462292Y-41650219D01*
X107462292Y-41650219D02*
X107367054Y-41602600D01*
X107367054Y-41602600D02*
X107319435Y-41554980D01*
X20943673Y-17012219D02*
X20943673Y-16012219D01*
X20943673Y-16012219D02*
X21324625Y-16012219D01*
X21324625Y-16012219D02*
X21419863Y-16059838D01*
X21419863Y-16059838D02*
X21467482Y-16107457D01*
X21467482Y-16107457D02*
X21515101Y-16202695D01*
X21515101Y-16202695D02*
X21515101Y-16345552D01*
X21515101Y-16345552D02*
X21467482Y-16440790D01*
X21467482Y-16440790D02*
X21419863Y-16488409D01*
X21419863Y-16488409D02*
X21324625Y-16536028D01*
X21324625Y-16536028D02*
X20943673Y-16536028D01*
X22467482Y-17012219D02*
X21896054Y-17012219D01*
X22181768Y-17012219D02*
X22181768Y-16012219D01*
X22181768Y-16012219D02*
X22086530Y-16155076D01*
X22086530Y-16155076D02*
X21991292Y-16250314D01*
X21991292Y-16250314D02*
X21896054Y-16297933D01*
X20943673Y-19552219D02*
X20943673Y-18552219D01*
X20943673Y-18552219D02*
X21181768Y-18552219D01*
X21181768Y-18552219D02*
X21324625Y-18599838D01*
X21324625Y-18599838D02*
X21419863Y-18695076D01*
X21419863Y-18695076D02*
X21467482Y-18790314D01*
X21467482Y-18790314D02*
X21515101Y-18980790D01*
X21515101Y-18980790D02*
X21515101Y-19123647D01*
X21515101Y-19123647D02*
X21467482Y-19314123D01*
X21467482Y-19314123D02*
X21419863Y-19409361D01*
X21419863Y-19409361D02*
X21324625Y-19504600D01*
X21324625Y-19504600D02*
X21181768Y-19552219D01*
X21181768Y-19552219D02*
X20943673Y-19552219D01*
X22467482Y-19552219D02*
X21896054Y-19552219D01*
X22181768Y-19552219D02*
X22181768Y-18552219D01*
X22181768Y-18552219D02*
X22086530Y-18695076D01*
X22086530Y-18695076D02*
X21991292Y-18790314D01*
X21991292Y-18790314D02*
X21896054Y-18837933D01*
X61075673Y-20949219D02*
X61075673Y-19949219D01*
X62123291Y-20949219D02*
X61789958Y-20473028D01*
X61551863Y-20949219D02*
X61551863Y-19949219D01*
X61551863Y-19949219D02*
X61932815Y-19949219D01*
X61932815Y-19949219D02*
X62028053Y-19996838D01*
X62028053Y-19996838D02*
X62075672Y-20044457D01*
X62075672Y-20044457D02*
X62123291Y-20139695D01*
X62123291Y-20139695D02*
X62123291Y-20282552D01*
X62123291Y-20282552D02*
X62075672Y-20377790D01*
X62075672Y-20377790D02*
X62028053Y-20425409D01*
X62028053Y-20425409D02*
X61932815Y-20473028D01*
X61932815Y-20473028D02*
X61551863Y-20473028D01*
X62885196Y-20425409D02*
X62551863Y-20425409D01*
X62551863Y-20949219D02*
X62551863Y-19949219D01*
X62551863Y-19949219D02*
X63028053Y-19949219D01*
X63313768Y-19949219D02*
X63980434Y-19949219D01*
X63980434Y-19949219D02*
X63313768Y-20949219D01*
X63313768Y-20949219D02*
X63980434Y-20949219D01*
X64789958Y-20282552D02*
X64789958Y-20949219D01*
X64551863Y-19901600D02*
X64313768Y-20615885D01*
X64313768Y-20615885D02*
X64932815Y-20615885D01*
X65742339Y-20282552D02*
X65742339Y-20949219D01*
X65504244Y-19901600D02*
X65266149Y-20615885D01*
X65266149Y-20615885D02*
X65885196Y-20615885D01*
X66266149Y-20949219D02*
X66266149Y-19949219D01*
X66266149Y-19949219D02*
X66837577Y-20949219D01*
X66837577Y-20949219D02*
X66837577Y-19949219D01*
X67313768Y-20949219D02*
X67313768Y-19949219D01*
X67313768Y-19949219D02*
X67694720Y-19949219D01*
X67694720Y-19949219D02*
X67789958Y-19996838D01*
X67789958Y-19996838D02*
X67837577Y-20044457D01*
X67837577Y-20044457D02*
X67885196Y-20139695D01*
X67885196Y-20139695D02*
X67885196Y-20282552D01*
X67885196Y-20282552D02*
X67837577Y-20377790D01*
X67837577Y-20377790D02*
X67789958Y-20425409D01*
X67789958Y-20425409D02*
X67694720Y-20473028D01*
X67694720Y-20473028D02*
X67313768Y-20473028D01*
X68647101Y-20425409D02*
X68789958Y-20473028D01*
X68789958Y-20473028D02*
X68837577Y-20520647D01*
X68837577Y-20520647D02*
X68885196Y-20615885D01*
X68885196Y-20615885D02*
X68885196Y-20758742D01*
X68885196Y-20758742D02*
X68837577Y-20853980D01*
X68837577Y-20853980D02*
X68789958Y-20901600D01*
X68789958Y-20901600D02*
X68694720Y-20949219D01*
X68694720Y-20949219D02*
X68313768Y-20949219D01*
X68313768Y-20949219D02*
X68313768Y-19949219D01*
X68313768Y-19949219D02*
X68647101Y-19949219D01*
X68647101Y-19949219D02*
X68742339Y-19996838D01*
X68742339Y-19996838D02*
X68789958Y-20044457D01*
X68789958Y-20044457D02*
X68837577Y-20139695D01*
X68837577Y-20139695D02*
X68837577Y-20234933D01*
X68837577Y-20234933D02*
X68789958Y-20330171D01*
X68789958Y-20330171D02*
X68742339Y-20377790D01*
X68742339Y-20377790D02*
X68647101Y-20425409D01*
X68647101Y-20425409D02*
X68313768Y-20425409D01*
X69647101Y-20425409D02*
X69313768Y-20425409D01*
X69313768Y-20949219D02*
X69313768Y-19949219D01*
X69313768Y-19949219D02*
X69789958Y-19949219D01*
X110478673Y-48762219D02*
X110478673Y-47762219D01*
X110478673Y-47762219D02*
X110859625Y-47762219D01*
X110859625Y-47762219D02*
X110954863Y-47809838D01*
X110954863Y-47809838D02*
X111002482Y-47857457D01*
X111002482Y-47857457D02*
X111050101Y-47952695D01*
X111050101Y-47952695D02*
X111050101Y-48095552D01*
X111050101Y-48095552D02*
X111002482Y-48190790D01*
X111002482Y-48190790D02*
X110954863Y-48238409D01*
X110954863Y-48238409D02*
X110859625Y-48286028D01*
X110859625Y-48286028D02*
X110478673Y-48286028D01*
X112002482Y-48762219D02*
X111431054Y-48762219D01*
X111716768Y-48762219D02*
X111716768Y-47762219D01*
X111716768Y-47762219D02*
X111621530Y-47905076D01*
X111621530Y-47905076D02*
X111526292Y-48000314D01*
X111526292Y-48000314D02*
X111431054Y-48047933D01*
X60139054Y-27335838D02*
X61281911Y-27335838D01*
X60710482Y-29335838D02*
X60710482Y-27335838D01*
X61948578Y-28288219D02*
X62615245Y-28288219D01*
X62900959Y-29335838D02*
X61948578Y-29335838D01*
X61948578Y-29335838D02*
X61948578Y-27335838D01*
X61948578Y-27335838D02*
X62900959Y-27335838D01*
X63662864Y-28764409D02*
X64615245Y-28764409D01*
X63472388Y-29335838D02*
X64139054Y-27335838D01*
X64139054Y-27335838D02*
X64805721Y-29335838D01*
X65472388Y-29335838D02*
X65472388Y-27335838D01*
X65472388Y-27335838D02*
X66139055Y-28764409D01*
X66139055Y-28764409D02*
X66805721Y-27335838D01*
X66805721Y-27335838D02*
X66805721Y-29335838D01*
X69567626Y-28192980D02*
X69377150Y-28097742D01*
X69377150Y-28097742D02*
X69281912Y-28002504D01*
X69281912Y-28002504D02*
X69186674Y-27812028D01*
X69186674Y-27812028D02*
X69186674Y-27716790D01*
X69186674Y-27716790D02*
X69281912Y-27526314D01*
X69281912Y-27526314D02*
X69377150Y-27431076D01*
X69377150Y-27431076D02*
X69567626Y-27335838D01*
X69567626Y-27335838D02*
X69948579Y-27335838D01*
X69948579Y-27335838D02*
X70139055Y-27431076D01*
X70139055Y-27431076D02*
X70234293Y-27526314D01*
X70234293Y-27526314D02*
X70329531Y-27716790D01*
X70329531Y-27716790D02*
X70329531Y-27812028D01*
X70329531Y-27812028D02*
X70234293Y-28002504D01*
X70234293Y-28002504D02*
X70139055Y-28097742D01*
X70139055Y-28097742D02*
X69948579Y-28192980D01*
X69948579Y-28192980D02*
X69567626Y-28192980D01*
X69567626Y-28192980D02*
X69377150Y-28288219D01*
X69377150Y-28288219D02*
X69281912Y-28383457D01*
X69281912Y-28383457D02*
X69186674Y-28573933D01*
X69186674Y-28573933D02*
X69186674Y-28954885D01*
X69186674Y-28954885D02*
X69281912Y-29145361D01*
X69281912Y-29145361D02*
X69377150Y-29240600D01*
X69377150Y-29240600D02*
X69567626Y-29335838D01*
X69567626Y-29335838D02*
X69948579Y-29335838D01*
X69948579Y-29335838D02*
X70139055Y-29240600D01*
X70139055Y-29240600D02*
X70234293Y-29145361D01*
X70234293Y-29145361D02*
X70329531Y-28954885D01*
X70329531Y-28954885D02*
X70329531Y-28573933D01*
X70329531Y-28573933D02*
X70234293Y-28383457D01*
X70234293Y-28383457D02*
X70139055Y-28288219D01*
X70139055Y-28288219D02*
X69948579Y-28192980D01*
X106938482Y-44253838D02*
X106843244Y-44206219D01*
X106843244Y-44206219D02*
X106700387Y-44206219D01*
X106700387Y-44206219D02*
X106557530Y-44253838D01*
X106557530Y-44253838D02*
X106462292Y-44349076D01*
X106462292Y-44349076D02*
X106414673Y-44444314D01*
X106414673Y-44444314D02*
X106367054Y-44634790D01*
X106367054Y-44634790D02*
X106367054Y-44777647D01*
X106367054Y-44777647D02*
X106414673Y-44968123D01*
X106414673Y-44968123D02*
X106462292Y-45063361D01*
X106462292Y-45063361D02*
X106557530Y-45158600D01*
X106557530Y-45158600D02*
X106700387Y-45206219D01*
X106700387Y-45206219D02*
X106795625Y-45206219D01*
X106795625Y-45206219D02*
X106938482Y-45158600D01*
X106938482Y-45158600D02*
X106986101Y-45110980D01*
X106986101Y-45110980D02*
X106986101Y-44777647D01*
X106986101Y-44777647D02*
X106795625Y-44777647D01*
X107843244Y-44539552D02*
X107843244Y-45206219D01*
X107605149Y-44158600D02*
X107367054Y-44872885D01*
X107367054Y-44872885D02*
X107986101Y-44872885D01*
X20943673Y-26648409D02*
X21277006Y-26648409D01*
X21419863Y-27172219D02*
X20943673Y-27172219D01*
X20943673Y-27172219D02*
X20943673Y-26172219D01*
X20943673Y-26172219D02*
X21419863Y-26172219D01*
X22372244Y-26219838D02*
X22277006Y-26172219D01*
X22277006Y-26172219D02*
X22134149Y-26172219D01*
X22134149Y-26172219D02*
X21991292Y-26219838D01*
X21991292Y-26219838D02*
X21896054Y-26315076D01*
X21896054Y-26315076D02*
X21848435Y-26410314D01*
X21848435Y-26410314D02*
X21800816Y-26600790D01*
X21800816Y-26600790D02*
X21800816Y-26743647D01*
X21800816Y-26743647D02*
X21848435Y-26934123D01*
X21848435Y-26934123D02*
X21896054Y-27029361D01*
X21896054Y-27029361D02*
X21991292Y-27124600D01*
X21991292Y-27124600D02*
X22134149Y-27172219D01*
X22134149Y-27172219D02*
X22229387Y-27172219D01*
X22229387Y-27172219D02*
X22372244Y-27124600D01*
X22372244Y-27124600D02*
X22419863Y-27076980D01*
X22419863Y-27076980D02*
X22419863Y-26743647D01*
X22419863Y-26743647D02*
X22229387Y-26743647D01*
X59922457Y-51874945D02*
X59874838Y-51827326D01*
X59874838Y-51827326D02*
X59827219Y-51732088D01*
X59827219Y-51732088D02*
X59827219Y-51493993D01*
X59827219Y-51493993D02*
X59874838Y-51398755D01*
X59874838Y-51398755D02*
X59922457Y-51351136D01*
X59922457Y-51351136D02*
X60017695Y-51303517D01*
X60017695Y-51303517D02*
X60112933Y-51303517D01*
X60112933Y-51303517D02*
X60255790Y-51351136D01*
X60255790Y-51351136D02*
X60827219Y-51922564D01*
X60827219Y-51922564D02*
X60827219Y-51303517D01*
X60827219Y-50874945D02*
X59827219Y-50874945D01*
X59827219Y-50874945D02*
X60827219Y-50303517D01*
X60827219Y-50303517D02*
X59827219Y-50303517D01*
X59827219Y-49922564D02*
X59827219Y-49303517D01*
X59827219Y-49303517D02*
X60208171Y-49636850D01*
X60208171Y-49636850D02*
X60208171Y-49493993D01*
X60208171Y-49493993D02*
X60255790Y-49398755D01*
X60255790Y-49398755D02*
X60303409Y-49351136D01*
X60303409Y-49351136D02*
X60398647Y-49303517D01*
X60398647Y-49303517D02*
X60636742Y-49303517D01*
X60636742Y-49303517D02*
X60731980Y-49351136D01*
X60731980Y-49351136D02*
X60779600Y-49398755D01*
X60779600Y-49398755D02*
X60827219Y-49493993D01*
X60827219Y-49493993D02*
X60827219Y-49779707D01*
X60827219Y-49779707D02*
X60779600Y-49874945D01*
X60779600Y-49874945D02*
X60731980Y-49922564D01*
X60827219Y-48827326D02*
X60827219Y-48636850D01*
X60827219Y-48636850D02*
X60779600Y-48541612D01*
X60779600Y-48541612D02*
X60731980Y-48493993D01*
X60731980Y-48493993D02*
X60589123Y-48398755D01*
X60589123Y-48398755D02*
X60398647Y-48351136D01*
X60398647Y-48351136D02*
X60017695Y-48351136D01*
X60017695Y-48351136D02*
X59922457Y-48398755D01*
X59922457Y-48398755D02*
X59874838Y-48446374D01*
X59874838Y-48446374D02*
X59827219Y-48541612D01*
X59827219Y-48541612D02*
X59827219Y-48732088D01*
X59827219Y-48732088D02*
X59874838Y-48827326D01*
X59874838Y-48827326D02*
X59922457Y-48874945D01*
X59922457Y-48874945D02*
X60017695Y-48922564D01*
X60017695Y-48922564D02*
X60255790Y-48922564D01*
X60255790Y-48922564D02*
X60351028Y-48874945D01*
X60351028Y-48874945D02*
X60398647Y-48827326D01*
X60398647Y-48827326D02*
X60446266Y-48732088D01*
X60446266Y-48732088D02*
X60446266Y-48541612D01*
X60446266Y-48541612D02*
X60398647Y-48446374D01*
X60398647Y-48446374D02*
X60351028Y-48398755D01*
X60351028Y-48398755D02*
X60255790Y-48351136D01*
X59827219Y-47732088D02*
X59827219Y-47636850D01*
X59827219Y-47636850D02*
X59874838Y-47541612D01*
X59874838Y-47541612D02*
X59922457Y-47493993D01*
X59922457Y-47493993D02*
X60017695Y-47446374D01*
X60017695Y-47446374D02*
X60208171Y-47398755D01*
X60208171Y-47398755D02*
X60446266Y-47398755D01*
X60446266Y-47398755D02*
X60636742Y-47446374D01*
X60636742Y-47446374D02*
X60731980Y-47493993D01*
X60731980Y-47493993D02*
X60779600Y-47541612D01*
X60779600Y-47541612D02*
X60827219Y-47636850D01*
X60827219Y-47636850D02*
X60827219Y-47732088D01*
X60827219Y-47732088D02*
X60779600Y-47827326D01*
X60779600Y-47827326D02*
X60731980Y-47874945D01*
X60731980Y-47874945D02*
X60636742Y-47922564D01*
X60636742Y-47922564D02*
X60446266Y-47970183D01*
X60446266Y-47970183D02*
X60208171Y-47970183D01*
X60208171Y-47970183D02*
X60017695Y-47922564D01*
X60017695Y-47922564D02*
X59922457Y-47874945D01*
X59922457Y-47874945D02*
X59874838Y-47827326D01*
X59874838Y-47827326D02*
X59827219Y-47732088D01*
X60160552Y-46541612D02*
X60827219Y-46541612D01*
X59779600Y-46779707D02*
X60493885Y-47017802D01*
X60493885Y-47017802D02*
X60493885Y-46398755D01*
X20943673Y-22092219D02*
X20943673Y-21092219D01*
X20943673Y-21092219D02*
X21324625Y-21092219D01*
X21324625Y-21092219D02*
X21419863Y-21139838D01*
X21419863Y-21139838D02*
X21467482Y-21187457D01*
X21467482Y-21187457D02*
X21515101Y-21282695D01*
X21515101Y-21282695D02*
X21515101Y-21425552D01*
X21515101Y-21425552D02*
X21467482Y-21520790D01*
X21467482Y-21520790D02*
X21419863Y-21568409D01*
X21419863Y-21568409D02*
X21324625Y-21616028D01*
X21324625Y-21616028D02*
X20943673Y-21616028D01*
X21896054Y-21187457D02*
X21943673Y-21139838D01*
X21943673Y-21139838D02*
X22038911Y-21092219D01*
X22038911Y-21092219D02*
X22277006Y-21092219D01*
X22277006Y-21092219D02*
X22372244Y-21139838D01*
X22372244Y-21139838D02*
X22419863Y-21187457D01*
X22419863Y-21187457D02*
X22467482Y-21282695D01*
X22467482Y-21282695D02*
X22467482Y-21377933D01*
X22467482Y-21377933D02*
X22419863Y-21520790D01*
X22419863Y-21520790D02*
X21848435Y-22092219D01*
X21848435Y-22092219D02*
X22467482Y-22092219D01*
X21266838Y-47874517D02*
X21219219Y-47969755D01*
X21219219Y-47969755D02*
X21219219Y-48112612D01*
X21219219Y-48112612D02*
X21266838Y-48255469D01*
X21266838Y-48255469D02*
X21362076Y-48350707D01*
X21362076Y-48350707D02*
X21457314Y-48398326D01*
X21457314Y-48398326D02*
X21647790Y-48445945D01*
X21647790Y-48445945D02*
X21790647Y-48445945D01*
X21790647Y-48445945D02*
X21981123Y-48398326D01*
X21981123Y-48398326D02*
X22076361Y-48350707D01*
X22076361Y-48350707D02*
X22171600Y-48255469D01*
X22171600Y-48255469D02*
X22219219Y-48112612D01*
X22219219Y-48112612D02*
X22219219Y-48017374D01*
X22219219Y-48017374D02*
X22171600Y-47874517D01*
X22171600Y-47874517D02*
X22123980Y-47826898D01*
X22123980Y-47826898D02*
X21790647Y-47826898D01*
X21790647Y-47826898D02*
X21790647Y-48017374D01*
X22219219Y-47398326D02*
X21219219Y-47398326D01*
X21219219Y-47398326D02*
X22219219Y-46826898D01*
X22219219Y-46826898D02*
X21219219Y-46826898D01*
X22219219Y-46350707D02*
X21219219Y-46350707D01*
X21219219Y-46350707D02*
X21219219Y-46112612D01*
X21219219Y-46112612D02*
X21266838Y-45969755D01*
X21266838Y-45969755D02*
X21362076Y-45874517D01*
X21362076Y-45874517D02*
X21457314Y-45826898D01*
X21457314Y-45826898D02*
X21647790Y-45779279D01*
X21647790Y-45779279D02*
X21790647Y-45779279D01*
X21790647Y-45779279D02*
X21981123Y-45826898D01*
X21981123Y-45826898D02*
X22076361Y-45874517D01*
X22076361Y-45874517D02*
X22171600Y-45969755D01*
X22171600Y-45969755D02*
X22219219Y-46112612D01*
X22219219Y-46112612D02*
X22219219Y-46350707D01*
X21711266Y-44588326D02*
X21711266Y-43826422D01*
X22092219Y-44207374D02*
X21330314Y-44207374D01*
X22092219Y-42826422D02*
X22092219Y-43397850D01*
X22092219Y-43112136D02*
X21092219Y-43112136D01*
X21092219Y-43112136D02*
X21235076Y-43207374D01*
X21235076Y-43207374D02*
X21330314Y-43302612D01*
X21330314Y-43302612D02*
X21377933Y-43397850D01*
X21187457Y-42445469D02*
X21139838Y-42397850D01*
X21139838Y-42397850D02*
X21092219Y-42302612D01*
X21092219Y-42302612D02*
X21092219Y-42064517D01*
X21092219Y-42064517D02*
X21139838Y-41969279D01*
X21139838Y-41969279D02*
X21187457Y-41921660D01*
X21187457Y-41921660D02*
X21282695Y-41874041D01*
X21282695Y-41874041D02*
X21377933Y-41874041D01*
X21377933Y-41874041D02*
X21520790Y-41921660D01*
X21520790Y-41921660D02*
X22092219Y-42493088D01*
X22092219Y-42493088D02*
X22092219Y-41874041D01*
X21092219Y-41588326D02*
X22092219Y-41254993D01*
X22092219Y-41254993D02*
X21092219Y-40921660D01*
X111002482Y-44253838D02*
X110907244Y-44206219D01*
X110907244Y-44206219D02*
X110764387Y-44206219D01*
X110764387Y-44206219D02*
X110621530Y-44253838D01*
X110621530Y-44253838D02*
X110526292Y-44349076D01*
X110526292Y-44349076D02*
X110478673Y-44444314D01*
X110478673Y-44444314D02*
X110431054Y-44634790D01*
X110431054Y-44634790D02*
X110431054Y-44777647D01*
X110431054Y-44777647D02*
X110478673Y-44968123D01*
X110478673Y-44968123D02*
X110526292Y-45063361D01*
X110526292Y-45063361D02*
X110621530Y-45158600D01*
X110621530Y-45158600D02*
X110764387Y-45206219D01*
X110764387Y-45206219D02*
X110859625Y-45206219D01*
X110859625Y-45206219D02*
X111002482Y-45158600D01*
X111002482Y-45158600D02*
X111050101Y-45110980D01*
X111050101Y-45110980D02*
X111050101Y-44777647D01*
X111050101Y-44777647D02*
X110859625Y-44777647D01*
X111431054Y-44301457D02*
X111478673Y-44253838D01*
X111478673Y-44253838D02*
X111573911Y-44206219D01*
X111573911Y-44206219D02*
X111812006Y-44206219D01*
X111812006Y-44206219D02*
X111907244Y-44253838D01*
X111907244Y-44253838D02*
X111954863Y-44301457D01*
X111954863Y-44301457D02*
X112002482Y-44396695D01*
X112002482Y-44396695D02*
X112002482Y-44491933D01*
X112002482Y-44491933D02*
X111954863Y-44634790D01*
X111954863Y-44634790D02*
X111383435Y-45206219D01*
X111383435Y-45206219D02*
X112002482Y-45206219D01*
X110254695Y-15933945D02*
X109454695Y-15933945D01*
X109454695Y-15933945D02*
X110026123Y-15667279D01*
X110026123Y-15667279D02*
X109454695Y-15400612D01*
X109454695Y-15400612D02*
X110254695Y-15400612D01*
X110254695Y-14600612D02*
X110254695Y-15057755D01*
X110254695Y-14829183D02*
X109454695Y-14829183D01*
X109454695Y-14829183D02*
X109568980Y-14905374D01*
X109568980Y-14905374D02*
X109645171Y-14981564D01*
X109645171Y-14981564D02*
X109683266Y-15057755D01*
X109949933Y-14257754D02*
X109949933Y-13648231D01*
X61075673Y-32760219D02*
X61075673Y-31760219D01*
X62123291Y-32760219D02*
X61789958Y-32284028D01*
X61551863Y-32760219D02*
X61551863Y-31760219D01*
X61551863Y-31760219D02*
X61932815Y-31760219D01*
X61932815Y-31760219D02*
X62028053Y-31807838D01*
X62028053Y-31807838D02*
X62075672Y-31855457D01*
X62075672Y-31855457D02*
X62123291Y-31950695D01*
X62123291Y-31950695D02*
X62123291Y-32093552D01*
X62123291Y-32093552D02*
X62075672Y-32188790D01*
X62075672Y-32188790D02*
X62028053Y-32236409D01*
X62028053Y-32236409D02*
X61932815Y-32284028D01*
X61932815Y-32284028D02*
X61551863Y-32284028D01*
X62885196Y-32236409D02*
X62551863Y-32236409D01*
X62551863Y-32760219D02*
X62551863Y-31760219D01*
X62551863Y-31760219D02*
X63028053Y-31760219D01*
X63313768Y-31760219D02*
X63980434Y-31760219D01*
X63980434Y-31760219D02*
X63313768Y-32760219D01*
X63313768Y-32760219D02*
X63980434Y-32760219D01*
X64789958Y-32093552D02*
X64789958Y-32760219D01*
X64551863Y-31712600D02*
X64313768Y-32426885D01*
X64313768Y-32426885D02*
X64932815Y-32426885D01*
X65742339Y-32093552D02*
X65742339Y-32760219D01*
X65504244Y-31712600D02*
X65266149Y-32426885D01*
X65266149Y-32426885D02*
X65885196Y-32426885D01*
X66266149Y-32760219D02*
X66266149Y-31760219D01*
X66266149Y-31760219D02*
X66837577Y-32760219D01*
X66837577Y-32760219D02*
X66837577Y-31760219D01*
X67313768Y-32760219D02*
X67313768Y-31760219D01*
X67313768Y-31760219D02*
X67694720Y-31760219D01*
X67694720Y-31760219D02*
X67789958Y-31807838D01*
X67789958Y-31807838D02*
X67837577Y-31855457D01*
X67837577Y-31855457D02*
X67885196Y-31950695D01*
X67885196Y-31950695D02*
X67885196Y-32093552D01*
X67885196Y-32093552D02*
X67837577Y-32188790D01*
X67837577Y-32188790D02*
X67789958Y-32236409D01*
X67789958Y-32236409D02*
X67694720Y-32284028D01*
X67694720Y-32284028D02*
X67313768Y-32284028D01*
X68647101Y-32236409D02*
X68789958Y-32284028D01*
X68789958Y-32284028D02*
X68837577Y-32331647D01*
X68837577Y-32331647D02*
X68885196Y-32426885D01*
X68885196Y-32426885D02*
X68885196Y-32569742D01*
X68885196Y-32569742D02*
X68837577Y-32664980D01*
X68837577Y-32664980D02*
X68789958Y-32712600D01*
X68789958Y-32712600D02*
X68694720Y-32760219D01*
X68694720Y-32760219D02*
X68313768Y-32760219D01*
X68313768Y-32760219D02*
X68313768Y-31760219D01*
X68313768Y-31760219D02*
X68647101Y-31760219D01*
X68647101Y-31760219D02*
X68742339Y-31807838D01*
X68742339Y-31807838D02*
X68789958Y-31855457D01*
X68789958Y-31855457D02*
X68837577Y-31950695D01*
X68837577Y-31950695D02*
X68837577Y-32045933D01*
X68837577Y-32045933D02*
X68789958Y-32141171D01*
X68789958Y-32141171D02*
X68742339Y-32188790D01*
X68742339Y-32188790D02*
X68647101Y-32236409D01*
X68647101Y-32236409D02*
X68313768Y-32236409D01*
X69647101Y-32236409D02*
X69313768Y-32236409D01*
X69313768Y-32760219D02*
X69313768Y-31760219D01*
X69313768Y-31760219D02*
X69789958Y-31760219D01*
X106414673Y-48762219D02*
X106414673Y-47762219D01*
X106414673Y-47762219D02*
X106795625Y-47762219D01*
X106795625Y-47762219D02*
X106890863Y-47809838D01*
X106890863Y-47809838D02*
X106938482Y-47857457D01*
X106938482Y-47857457D02*
X106986101Y-47952695D01*
X106986101Y-47952695D02*
X106986101Y-48095552D01*
X106986101Y-48095552D02*
X106938482Y-48190790D01*
X106938482Y-48190790D02*
X106890863Y-48238409D01*
X106890863Y-48238409D02*
X106795625Y-48286028D01*
X106795625Y-48286028D02*
X106414673Y-48286028D01*
X107367054Y-47857457D02*
X107414673Y-47809838D01*
X107414673Y-47809838D02*
X107509911Y-47762219D01*
X107509911Y-47762219D02*
X107748006Y-47762219D01*
X107748006Y-47762219D02*
X107843244Y-47809838D01*
X107843244Y-47809838D02*
X107890863Y-47857457D01*
X107890863Y-47857457D02*
X107938482Y-47952695D01*
X107938482Y-47952695D02*
X107938482Y-48047933D01*
X107938482Y-48047933D02*
X107890863Y-48190790D01*
X107890863Y-48190790D02*
X107319435Y-48762219D01*
X107319435Y-48762219D02*
X107938482Y-48762219D01*
X54731219Y-29634136D02*
X54731219Y-30110326D01*
X54731219Y-30110326D02*
X53731219Y-30110326D01*
X53731219Y-29443659D02*
X53731219Y-28872231D01*
X54731219Y-29157945D02*
X53731219Y-29157945D01*
X54731219Y-28015088D02*
X54731219Y-28586516D01*
X54731219Y-28300802D02*
X53731219Y-28300802D01*
X53731219Y-28300802D02*
X53874076Y-28396040D01*
X53874076Y-28396040D02*
X53969314Y-28491278D01*
X53969314Y-28491278D02*
X54016933Y-28586516D01*
X54731219Y-27062707D02*
X54731219Y-27634135D01*
X54731219Y-27348421D02*
X53731219Y-27348421D01*
X53731219Y-27348421D02*
X53874076Y-27443659D01*
X53874076Y-27443659D02*
X53969314Y-27538897D01*
X53969314Y-27538897D02*
X54016933Y-27634135D01*
X53731219Y-26205564D02*
X53731219Y-26396040D01*
X53731219Y-26396040D02*
X53778838Y-26491278D01*
X53778838Y-26491278D02*
X53826457Y-26538897D01*
X53826457Y-26538897D02*
X53969314Y-26634135D01*
X53969314Y-26634135D02*
X54159790Y-26681754D01*
X54159790Y-26681754D02*
X54540742Y-26681754D01*
X54540742Y-26681754D02*
X54635980Y-26634135D01*
X54635980Y-26634135D02*
X54683600Y-26586516D01*
X54683600Y-26586516D02*
X54731219Y-26491278D01*
X54731219Y-26491278D02*
X54731219Y-26300802D01*
X54731219Y-26300802D02*
X54683600Y-26205564D01*
X54683600Y-26205564D02*
X54635980Y-26157945D01*
X54635980Y-26157945D02*
X54540742Y-26110326D01*
X54540742Y-26110326D02*
X54302647Y-26110326D01*
X54302647Y-26110326D02*
X54207409Y-26157945D01*
X54207409Y-26157945D02*
X54159790Y-26205564D01*
X54159790Y-26205564D02*
X54112171Y-26300802D01*
X54112171Y-26300802D02*
X54112171Y-26491278D01*
X54112171Y-26491278D02*
X54159790Y-26586516D01*
X54159790Y-26586516D02*
X54207409Y-26634135D01*
X54207409Y-26634135D02*
X54302647Y-26681754D01*
X54731219Y-25157945D02*
X54731219Y-25729373D01*
X54731219Y-25443659D02*
X53731219Y-25443659D01*
X53731219Y-25443659D02*
X53874076Y-25538897D01*
X53874076Y-25538897D02*
X53969314Y-25634135D01*
X53969314Y-25634135D02*
X54016933Y-25729373D01*
X110254695Y-33459945D02*
X109454695Y-33459945D01*
X109454695Y-33459945D02*
X110026123Y-33193279D01*
X110026123Y-33193279D02*
X109454695Y-32926612D01*
X109454695Y-32926612D02*
X110254695Y-32926612D01*
X109530885Y-32583755D02*
X109492790Y-32545659D01*
X109492790Y-32545659D02*
X109454695Y-32469469D01*
X109454695Y-32469469D02*
X109454695Y-32278993D01*
X109454695Y-32278993D02*
X109492790Y-32202802D01*
X109492790Y-32202802D02*
X109530885Y-32164707D01*
X109530885Y-32164707D02*
X109607076Y-32126612D01*
X109607076Y-32126612D02*
X109683266Y-32126612D01*
X109683266Y-32126612D02*
X109797552Y-32164707D01*
X109797552Y-32164707D02*
X110254695Y-32621850D01*
X110254695Y-32621850D02*
X110254695Y-32126612D01*
X109949933Y-31783754D02*
X109949933Y-31174231D01*
X60337435Y-26165457D02*
X60337435Y-23165457D01*
X60337435Y-24594028D02*
X61880292Y-24594028D01*
X61880292Y-26165457D02*
X61880292Y-23165457D01*
X63166006Y-25022600D02*
X65223149Y-25022600D01*
X67408863Y-24594028D02*
X67794577Y-24736885D01*
X67794577Y-24736885D02*
X67923148Y-24879742D01*
X67923148Y-24879742D02*
X68051720Y-25165457D01*
X68051720Y-25165457D02*
X68051720Y-25594028D01*
X68051720Y-25594028D02*
X67923148Y-25879742D01*
X67923148Y-25879742D02*
X67794577Y-26022600D01*
X67794577Y-26022600D02*
X67537434Y-26165457D01*
X67537434Y-26165457D02*
X66508863Y-26165457D01*
X66508863Y-26165457D02*
X66508863Y-23165457D01*
X66508863Y-23165457D02*
X67408863Y-23165457D01*
X67408863Y-23165457D02*
X67666006Y-23308314D01*
X67666006Y-23308314D02*
X67794577Y-23451171D01*
X67794577Y-23451171D02*
X67923148Y-23736885D01*
X67923148Y-23736885D02*
X67923148Y-24022600D01*
X67923148Y-24022600D02*
X67794577Y-24308314D01*
X67794577Y-24308314D02*
X67666006Y-24451171D01*
X67666006Y-24451171D02*
X67408863Y-24594028D01*
X67408863Y-24594028D02*
X66508863Y-24594028D01*
X70751720Y-26165457D02*
X69851720Y-24736885D01*
X69208863Y-26165457D02*
X69208863Y-23165457D01*
X69208863Y-23165457D02*
X70237434Y-23165457D01*
X70237434Y-23165457D02*
X70494577Y-23308314D01*
X70494577Y-23308314D02*
X70623148Y-23451171D01*
X70623148Y-23451171D02*
X70751720Y-23736885D01*
X70751720Y-23736885D02*
X70751720Y-24165457D01*
X70751720Y-24165457D02*
X70623148Y-24451171D01*
X70623148Y-24451171D02*
X70494577Y-24594028D01*
X70494577Y-24594028D02*
X70237434Y-24736885D01*
X70237434Y-24736885D02*
X69208863Y-24736885D01*
X71908863Y-26165457D02*
X71908863Y-23165457D01*
X73194577Y-26165457D02*
X73194577Y-23165457D01*
X73194577Y-23165457D02*
X73837434Y-23165457D01*
X73837434Y-23165457D02*
X74223148Y-23308314D01*
X74223148Y-23308314D02*
X74480291Y-23594028D01*
X74480291Y-23594028D02*
X74608862Y-23879742D01*
X74608862Y-23879742D02*
X74737434Y-24451171D01*
X74737434Y-24451171D02*
X74737434Y-24879742D01*
X74737434Y-24879742D02*
X74608862Y-25451171D01*
X74608862Y-25451171D02*
X74480291Y-25736885D01*
X74480291Y-25736885D02*
X74223148Y-26022600D01*
X74223148Y-26022600D02*
X73837434Y-26165457D01*
X73837434Y-26165457D02*
X73194577Y-26165457D01*
X77308862Y-23308314D02*
X77051720Y-23165457D01*
X77051720Y-23165457D02*
X76666005Y-23165457D01*
X76666005Y-23165457D02*
X76280291Y-23308314D01*
X76280291Y-23308314D02*
X76023148Y-23594028D01*
X76023148Y-23594028D02*
X75894577Y-23879742D01*
X75894577Y-23879742D02*
X75766005Y-24451171D01*
X75766005Y-24451171D02*
X75766005Y-24879742D01*
X75766005Y-24879742D02*
X75894577Y-25451171D01*
X75894577Y-25451171D02*
X76023148Y-25736885D01*
X76023148Y-25736885D02*
X76280291Y-26022600D01*
X76280291Y-26022600D02*
X76666005Y-26165457D01*
X76666005Y-26165457D02*
X76923148Y-26165457D01*
X76923148Y-26165457D02*
X77308862Y-26022600D01*
X77308862Y-26022600D02*
X77437434Y-25879742D01*
X77437434Y-25879742D02*
X77437434Y-24879742D01*
X77437434Y-24879742D02*
X76923148Y-24879742D01*
X78594577Y-24594028D02*
X79494577Y-24594028D01*
X79880291Y-26165457D02*
X78594577Y-26165457D01*
X78594577Y-26165457D02*
X78594577Y-23165457D01*
X78594577Y-23165457D02*
X79880291Y-23165457D01*
X83094577Y-26165457D02*
X83094577Y-23165457D01*
X83094577Y-23165457D02*
X83994577Y-25308314D01*
X83994577Y-25308314D02*
X84894577Y-23165457D01*
X84894577Y-23165457D02*
X84894577Y-26165457D01*
X86694576Y-23165457D02*
X87208862Y-23165457D01*
X87208862Y-23165457D02*
X87466005Y-23308314D01*
X87466005Y-23308314D02*
X87723148Y-23594028D01*
X87723148Y-23594028D02*
X87851719Y-24165457D01*
X87851719Y-24165457D02*
X87851719Y-25165457D01*
X87851719Y-25165457D02*
X87723148Y-25736885D01*
X87723148Y-25736885D02*
X87466005Y-26022600D01*
X87466005Y-26022600D02*
X87208862Y-26165457D01*
X87208862Y-26165457D02*
X86694576Y-26165457D01*
X86694576Y-26165457D02*
X86437434Y-26022600D01*
X86437434Y-26022600D02*
X86180291Y-25736885D01*
X86180291Y-25736885D02*
X86051719Y-25165457D01*
X86051719Y-25165457D02*
X86051719Y-24165457D01*
X86051719Y-24165457D02*
X86180291Y-23594028D01*
X86180291Y-23594028D02*
X86437434Y-23308314D01*
X86437434Y-23308314D02*
X86694576Y-23165457D01*
X88623147Y-23165457D02*
X90166005Y-23165457D01*
X89394576Y-26165457D02*
X89394576Y-23165457D01*
X91580290Y-23165457D02*
X92094576Y-23165457D01*
X92094576Y-23165457D02*
X92351719Y-23308314D01*
X92351719Y-23308314D02*
X92608862Y-23594028D01*
X92608862Y-23594028D02*
X92737433Y-24165457D01*
X92737433Y-24165457D02*
X92737433Y-25165457D01*
X92737433Y-25165457D02*
X92608862Y-25736885D01*
X92608862Y-25736885D02*
X92351719Y-26022600D01*
X92351719Y-26022600D02*
X92094576Y-26165457D01*
X92094576Y-26165457D02*
X91580290Y-26165457D01*
X91580290Y-26165457D02*
X91323148Y-26022600D01*
X91323148Y-26022600D02*
X91066005Y-25736885D01*
X91066005Y-25736885D02*
X90937433Y-25165457D01*
X90937433Y-25165457D02*
X90937433Y-24165457D01*
X90937433Y-24165457D02*
X91066005Y-23594028D01*
X91066005Y-23594028D02*
X91323148Y-23308314D01*
X91323148Y-23308314D02*
X91580290Y-23165457D01*
X95437433Y-26165457D02*
X94537433Y-24736885D01*
X93894576Y-26165457D02*
X93894576Y-23165457D01*
X93894576Y-23165457D02*
X94923147Y-23165457D01*
X94923147Y-23165457D02*
X95180290Y-23308314D01*
X95180290Y-23308314D02*
X95308861Y-23451171D01*
X95308861Y-23451171D02*
X95437433Y-23736885D01*
X95437433Y-23736885D02*
X95437433Y-24165457D01*
X95437433Y-24165457D02*
X95308861Y-24451171D01*
X95308861Y-24451171D02*
X95180290Y-24594028D01*
X95180290Y-24594028D02*
X94923147Y-24736885D01*
X94923147Y-24736885D02*
X93894576Y-24736885D01*
X98651719Y-26165457D02*
X98651719Y-23165457D01*
X98651719Y-23165457D02*
X99294576Y-23165457D01*
X99294576Y-23165457D02*
X99680290Y-23308314D01*
X99680290Y-23308314D02*
X99937433Y-23594028D01*
X99937433Y-23594028D02*
X100066004Y-23879742D01*
X100066004Y-23879742D02*
X100194576Y-24451171D01*
X100194576Y-24451171D02*
X100194576Y-24879742D01*
X100194576Y-24879742D02*
X100066004Y-25451171D01*
X100066004Y-25451171D02*
X99937433Y-25736885D01*
X99937433Y-25736885D02*
X99680290Y-26022600D01*
X99680290Y-26022600D02*
X99294576Y-26165457D01*
X99294576Y-26165457D02*
X98651719Y-26165457D01*
X102894576Y-26165457D02*
X101994576Y-24736885D01*
X101351719Y-26165457D02*
X101351719Y-23165457D01*
X101351719Y-23165457D02*
X102380290Y-23165457D01*
X102380290Y-23165457D02*
X102637433Y-23308314D01*
X102637433Y-23308314D02*
X102766004Y-23451171D01*
X102766004Y-23451171D02*
X102894576Y-23736885D01*
X102894576Y-23736885D02*
X102894576Y-24165457D01*
X102894576Y-24165457D02*
X102766004Y-24451171D01*
X102766004Y-24451171D02*
X102637433Y-24594028D01*
X102637433Y-24594028D02*
X102380290Y-24736885D01*
X102380290Y-24736885D02*
X101351719Y-24736885D01*
X104051719Y-26165457D02*
X104051719Y-23165457D01*
X104951718Y-23165457D02*
X105851718Y-26165457D01*
X105851718Y-26165457D02*
X106751718Y-23165457D01*
X107651719Y-24594028D02*
X108551719Y-24594028D01*
X108937433Y-26165457D02*
X107651719Y-26165457D01*
X107651719Y-26165457D02*
X107651719Y-23165457D01*
X107651719Y-23165457D02*
X108937433Y-23165457D01*
X111637433Y-26165457D02*
X110737433Y-24736885D01*
X110094576Y-26165457D02*
X110094576Y-23165457D01*
X110094576Y-23165457D02*
X111123147Y-23165457D01*
X111123147Y-23165457D02*
X111380290Y-23308314D01*
X111380290Y-23308314D02*
X111508861Y-23451171D01*
X111508861Y-23451171D02*
X111637433Y-23736885D01*
X111637433Y-23736885D02*
X111637433Y-24165457D01*
X111637433Y-24165457D02*
X111508861Y-24451171D01*
X111508861Y-24451171D02*
X111380290Y-24594028D01*
X111380290Y-24594028D02*
X111123147Y-24736885D01*
X111123147Y-24736885D02*
X110094576Y-24736885D01*
X30106952Y-32456219D02*
X29535524Y-32456219D01*
X29821238Y-32456219D02*
X29821238Y-31456219D01*
X29821238Y-31456219D02*
X29726000Y-31599076D01*
X29726000Y-31599076D02*
X29630762Y-31694314D01*
X29630762Y-31694314D02*
X29535524Y-31741933D01*
X30535524Y-32456219D02*
X30535524Y-31456219D01*
X30630762Y-32075266D02*
X30916476Y-32456219D01*
X30916476Y-31789552D02*
X30535524Y-32170504D01*
X43886219Y-33694475D02*
X42886219Y-33694475D01*
X42886219Y-33694475D02*
X43600504Y-33361142D01*
X43600504Y-33361142D02*
X42886219Y-33027809D01*
X42886219Y-33027809D02*
X43886219Y-33027809D01*
X43790980Y-31980190D02*
X43838600Y-32027809D01*
X43838600Y-32027809D02*
X43886219Y-32170666D01*
X43886219Y-32170666D02*
X43886219Y-32265904D01*
X43886219Y-32265904D02*
X43838600Y-32408761D01*
X43838600Y-32408761D02*
X43743361Y-32503999D01*
X43743361Y-32503999D02*
X43648123Y-32551618D01*
X43648123Y-32551618D02*
X43457647Y-32599237D01*
X43457647Y-32599237D02*
X43314790Y-32599237D01*
X43314790Y-32599237D02*
X43124314Y-32551618D01*
X43124314Y-32551618D02*
X43029076Y-32503999D01*
X43029076Y-32503999D02*
X42933838Y-32408761D01*
X42933838Y-32408761D02*
X42886219Y-32265904D01*
X42886219Y-32265904D02*
X42886219Y-32170666D01*
X42886219Y-32170666D02*
X42933838Y-32027809D01*
X42933838Y-32027809D02*
X42981457Y-31980190D01*
X42886219Y-31694475D02*
X42886219Y-31123047D01*
X43886219Y-31408761D02*
X42886219Y-31408761D01*
X42886219Y-30361142D02*
X42886219Y-30551618D01*
X42886219Y-30551618D02*
X42933838Y-30646856D01*
X42933838Y-30646856D02*
X42981457Y-30694475D01*
X42981457Y-30694475D02*
X43124314Y-30789713D01*
X43124314Y-30789713D02*
X43314790Y-30837332D01*
X43314790Y-30837332D02*
X43695742Y-30837332D01*
X43695742Y-30837332D02*
X43790980Y-30789713D01*
X43790980Y-30789713D02*
X43838600Y-30742094D01*
X43838600Y-30742094D02*
X43886219Y-30646856D01*
X43886219Y-30646856D02*
X43886219Y-30456380D01*
X43886219Y-30456380D02*
X43838600Y-30361142D01*
X43838600Y-30361142D02*
X43790980Y-30313523D01*
X43790980Y-30313523D02*
X43695742Y-30265904D01*
X43695742Y-30265904D02*
X43457647Y-30265904D01*
X43457647Y-30265904D02*
X43362409Y-30313523D01*
X43362409Y-30313523D02*
X43314790Y-30361142D01*
X43314790Y-30361142D02*
X43267171Y-30456380D01*
X43267171Y-30456380D02*
X43267171Y-30646856D01*
X43267171Y-30646856D02*
X43314790Y-30742094D01*
X43314790Y-30742094D02*
X43362409Y-30789713D01*
X43362409Y-30789713D02*
X43457647Y-30837332D01*
X115212761Y-47188219D02*
X114641333Y-47188219D01*
X114927047Y-47188219D02*
X114927047Y-46188219D01*
X114927047Y-46188219D02*
X114831809Y-46331076D01*
X114831809Y-46331076D02*
X114736571Y-46426314D01*
X114736571Y-46426314D02*
X114641333Y-46473933D01*
X116069904Y-46521552D02*
X116069904Y-47188219D01*
X115641333Y-46521552D02*
X115641333Y-47045361D01*
X115641333Y-47045361D02*
X115688952Y-47140600D01*
X115688952Y-47140600D02*
X115784190Y-47188219D01*
X115784190Y-47188219D02*
X115927047Y-47188219D01*
X115927047Y-47188219D02*
X116022285Y-47140600D01*
X116022285Y-47140600D02*
X116069904Y-47092980D01*
X116879428Y-46664409D02*
X116546095Y-46664409D01*
X116546095Y-47188219D02*
X116546095Y-46188219D01*
X116546095Y-46188219D02*
X117022285Y-46188219D01*
X34107219Y-48569428D02*
X34107219Y-49140856D01*
X34107219Y-48855142D02*
X33107219Y-48855142D01*
X33107219Y-48855142D02*
X33250076Y-48950380D01*
X33250076Y-48950380D02*
X33345314Y-49045618D01*
X33345314Y-49045618D02*
X33392933Y-49140856D01*
X33107219Y-47950380D02*
X33107219Y-47855142D01*
X33107219Y-47855142D02*
X33154838Y-47759904D01*
X33154838Y-47759904D02*
X33202457Y-47712285D01*
X33202457Y-47712285D02*
X33297695Y-47664666D01*
X33297695Y-47664666D02*
X33488171Y-47617047D01*
X33488171Y-47617047D02*
X33726266Y-47617047D01*
X33726266Y-47617047D02*
X33916742Y-47664666D01*
X33916742Y-47664666D02*
X34011980Y-47712285D01*
X34011980Y-47712285D02*
X34059600Y-47759904D01*
X34059600Y-47759904D02*
X34107219Y-47855142D01*
X34107219Y-47855142D02*
X34107219Y-47950380D01*
X34107219Y-47950380D02*
X34059600Y-48045618D01*
X34059600Y-48045618D02*
X34011980Y-48093237D01*
X34011980Y-48093237D02*
X33916742Y-48140856D01*
X33916742Y-48140856D02*
X33726266Y-48188475D01*
X33726266Y-48188475D02*
X33488171Y-48188475D01*
X33488171Y-48188475D02*
X33297695Y-48140856D01*
X33297695Y-48140856D02*
X33202457Y-48093237D01*
X33202457Y-48093237D02*
X33154838Y-48045618D01*
X33154838Y-48045618D02*
X33107219Y-47950380D01*
X33107219Y-46997999D02*
X33107219Y-46902761D01*
X33107219Y-46902761D02*
X33154838Y-46807523D01*
X33154838Y-46807523D02*
X33202457Y-46759904D01*
X33202457Y-46759904D02*
X33297695Y-46712285D01*
X33297695Y-46712285D02*
X33488171Y-46664666D01*
X33488171Y-46664666D02*
X33726266Y-46664666D01*
X33726266Y-46664666D02*
X33916742Y-46712285D01*
X33916742Y-46712285D02*
X34011980Y-46759904D01*
X34011980Y-46759904D02*
X34059600Y-46807523D01*
X34059600Y-46807523D02*
X34107219Y-46902761D01*
X34107219Y-46902761D02*
X34107219Y-46997999D01*
X34107219Y-46997999D02*
X34059600Y-47093237D01*
X34059600Y-47093237D02*
X34011980Y-47140856D01*
X34011980Y-47140856D02*
X33916742Y-47188475D01*
X33916742Y-47188475D02*
X33726266Y-47236094D01*
X33726266Y-47236094D02*
X33488171Y-47236094D01*
X33488171Y-47236094D02*
X33297695Y-47188475D01*
X33297695Y-47188475D02*
X33202457Y-47140856D01*
X33202457Y-47140856D02*
X33154838Y-47093237D01*
X33154838Y-47093237D02*
X33107219Y-46997999D01*
X34107219Y-46236094D02*
X33107219Y-46236094D01*
X33726266Y-46140856D02*
X34107219Y-45855142D01*
X33440552Y-45855142D02*
X33821504Y-46236094D01*
X19462904Y-50016695D02*
X19005761Y-50016695D01*
X19234333Y-50016695D02*
X19234333Y-49216695D01*
X19234333Y-49216695D02*
X19158142Y-49330980D01*
X19158142Y-49330980D02*
X19081952Y-49407171D01*
X19081952Y-49407171D02*
X19005761Y-49445266D01*
X19958143Y-49216695D02*
X20034333Y-49216695D01*
X20034333Y-49216695D02*
X20110524Y-49254790D01*
X20110524Y-49254790D02*
X20148619Y-49292885D01*
X20148619Y-49292885D02*
X20186714Y-49369076D01*
X20186714Y-49369076D02*
X20224809Y-49521457D01*
X20224809Y-49521457D02*
X20224809Y-49711933D01*
X20224809Y-49711933D02*
X20186714Y-49864314D01*
X20186714Y-49864314D02*
X20148619Y-49940504D01*
X20148619Y-49940504D02*
X20110524Y-49978600D01*
X20110524Y-49978600D02*
X20034333Y-50016695D01*
X20034333Y-50016695D02*
X19958143Y-50016695D01*
X19958143Y-50016695D02*
X19881952Y-49978600D01*
X19881952Y-49978600D02*
X19843857Y-49940504D01*
X19843857Y-49940504D02*
X19805762Y-49864314D01*
X19805762Y-49864314D02*
X19767666Y-49711933D01*
X19767666Y-49711933D02*
X19767666Y-49521457D01*
X19767666Y-49521457D02*
X19805762Y-49369076D01*
X19805762Y-49369076D02*
X19843857Y-49292885D01*
X19843857Y-49292885D02*
X19881952Y-49254790D01*
X19881952Y-49254790D02*
X19958143Y-49216695D01*
X20720048Y-49216695D02*
X20796238Y-49216695D01*
X20796238Y-49216695D02*
X20872429Y-49254790D01*
X20872429Y-49254790D02*
X20910524Y-49292885D01*
X20910524Y-49292885D02*
X20948619Y-49369076D01*
X20948619Y-49369076D02*
X20986714Y-49521457D01*
X20986714Y-49521457D02*
X20986714Y-49711933D01*
X20986714Y-49711933D02*
X20948619Y-49864314D01*
X20948619Y-49864314D02*
X20910524Y-49940504D01*
X20910524Y-49940504D02*
X20872429Y-49978600D01*
X20872429Y-49978600D02*
X20796238Y-50016695D01*
X20796238Y-50016695D02*
X20720048Y-50016695D01*
X20720048Y-50016695D02*
X20643857Y-49978600D01*
X20643857Y-49978600D02*
X20605762Y-49940504D01*
X20605762Y-49940504D02*
X20567667Y-49864314D01*
X20567667Y-49864314D02*
X20529571Y-49711933D01*
X20529571Y-49711933D02*
X20529571Y-49521457D01*
X20529571Y-49521457D02*
X20567667Y-49369076D01*
X20567667Y-49369076D02*
X20605762Y-49292885D01*
X20605762Y-49292885D02*
X20643857Y-49254790D01*
X20643857Y-49254790D02*
X20720048Y-49216695D01*
X21329572Y-49483361D02*
X21329572Y-50283361D01*
X21329572Y-49521457D02*
X21405762Y-49483361D01*
X21405762Y-49483361D02*
X21558143Y-49483361D01*
X21558143Y-49483361D02*
X21634334Y-49521457D01*
X21634334Y-49521457D02*
X21672429Y-49559552D01*
X21672429Y-49559552D02*
X21710524Y-49635742D01*
X21710524Y-49635742D02*
X21710524Y-49864314D01*
X21710524Y-49864314D02*
X21672429Y-49940504D01*
X21672429Y-49940504D02*
X21634334Y-49978600D01*
X21634334Y-49978600D02*
X21558143Y-50016695D01*
X21558143Y-50016695D02*
X21405762Y-50016695D01*
X21405762Y-50016695D02*
X21329572Y-49978600D01*
X22320048Y-49597647D02*
X22053382Y-49597647D01*
X22053382Y-50016695D02*
X22053382Y-49216695D01*
X22053382Y-49216695D02*
X22434334Y-49216695D01*
X80970219Y-47585238D02*
X80970219Y-48156666D01*
X80970219Y-47870952D02*
X79970219Y-47870952D01*
X79970219Y-47870952D02*
X80113076Y-47966190D01*
X80113076Y-47966190D02*
X80208314Y-48061428D01*
X80208314Y-48061428D02*
X80255933Y-48156666D01*
X79970219Y-46966190D02*
X79970219Y-46870952D01*
X79970219Y-46870952D02*
X80017838Y-46775714D01*
X80017838Y-46775714D02*
X80065457Y-46728095D01*
X80065457Y-46728095D02*
X80160695Y-46680476D01*
X80160695Y-46680476D02*
X80351171Y-46632857D01*
X80351171Y-46632857D02*
X80589266Y-46632857D01*
X80589266Y-46632857D02*
X80779742Y-46680476D01*
X80779742Y-46680476D02*
X80874980Y-46728095D01*
X80874980Y-46728095D02*
X80922600Y-46775714D01*
X80922600Y-46775714D02*
X80970219Y-46870952D01*
X80970219Y-46870952D02*
X80970219Y-46966190D01*
X80970219Y-46966190D02*
X80922600Y-47061428D01*
X80922600Y-47061428D02*
X80874980Y-47109047D01*
X80874980Y-47109047D02*
X80779742Y-47156666D01*
X80779742Y-47156666D02*
X80589266Y-47204285D01*
X80589266Y-47204285D02*
X80351171Y-47204285D01*
X80351171Y-47204285D02*
X80160695Y-47156666D01*
X80160695Y-47156666D02*
X80065457Y-47109047D01*
X80065457Y-47109047D02*
X80017838Y-47061428D01*
X80017838Y-47061428D02*
X79970219Y-46966190D01*
X80970219Y-46204285D02*
X79970219Y-46204285D01*
X80589266Y-46109047D02*
X80970219Y-45823333D01*
X80303552Y-45823333D02*
X80684504Y-46204285D01*
X85034219Y-47585238D02*
X85034219Y-48156666D01*
X85034219Y-47870952D02*
X84034219Y-47870952D01*
X84034219Y-47870952D02*
X84177076Y-47966190D01*
X84177076Y-47966190D02*
X84272314Y-48061428D01*
X84272314Y-48061428D02*
X84319933Y-48156666D01*
X84034219Y-46966190D02*
X84034219Y-46870952D01*
X84034219Y-46870952D02*
X84081838Y-46775714D01*
X84081838Y-46775714D02*
X84129457Y-46728095D01*
X84129457Y-46728095D02*
X84224695Y-46680476D01*
X84224695Y-46680476D02*
X84415171Y-46632857D01*
X84415171Y-46632857D02*
X84653266Y-46632857D01*
X84653266Y-46632857D02*
X84843742Y-46680476D01*
X84843742Y-46680476D02*
X84938980Y-46728095D01*
X84938980Y-46728095D02*
X84986600Y-46775714D01*
X84986600Y-46775714D02*
X85034219Y-46870952D01*
X85034219Y-46870952D02*
X85034219Y-46966190D01*
X85034219Y-46966190D02*
X84986600Y-47061428D01*
X84986600Y-47061428D02*
X84938980Y-47109047D01*
X84938980Y-47109047D02*
X84843742Y-47156666D01*
X84843742Y-47156666D02*
X84653266Y-47204285D01*
X84653266Y-47204285D02*
X84415171Y-47204285D01*
X84415171Y-47204285D02*
X84224695Y-47156666D01*
X84224695Y-47156666D02*
X84129457Y-47109047D01*
X84129457Y-47109047D02*
X84081838Y-47061428D01*
X84081838Y-47061428D02*
X84034219Y-46966190D01*
X85034219Y-46204285D02*
X84034219Y-46204285D01*
X84653266Y-46109047D02*
X85034219Y-45823333D01*
X84367552Y-45823333D02*
X84748504Y-46204285D01*
X64714219Y-48061428D02*
X64714219Y-48632856D01*
X64714219Y-48347142D02*
X63714219Y-48347142D01*
X63714219Y-48347142D02*
X63857076Y-48442380D01*
X63857076Y-48442380D02*
X63952314Y-48537618D01*
X63952314Y-48537618D02*
X63999933Y-48632856D01*
X63714219Y-47442380D02*
X63714219Y-47347142D01*
X63714219Y-47347142D02*
X63761838Y-47251904D01*
X63761838Y-47251904D02*
X63809457Y-47204285D01*
X63809457Y-47204285D02*
X63904695Y-47156666D01*
X63904695Y-47156666D02*
X64095171Y-47109047D01*
X64095171Y-47109047D02*
X64333266Y-47109047D01*
X64333266Y-47109047D02*
X64523742Y-47156666D01*
X64523742Y-47156666D02*
X64618980Y-47204285D01*
X64618980Y-47204285D02*
X64666600Y-47251904D01*
X64666600Y-47251904D02*
X64714219Y-47347142D01*
X64714219Y-47347142D02*
X64714219Y-47442380D01*
X64714219Y-47442380D02*
X64666600Y-47537618D01*
X64666600Y-47537618D02*
X64618980Y-47585237D01*
X64618980Y-47585237D02*
X64523742Y-47632856D01*
X64523742Y-47632856D02*
X64333266Y-47680475D01*
X64333266Y-47680475D02*
X64095171Y-47680475D01*
X64095171Y-47680475D02*
X63904695Y-47632856D01*
X63904695Y-47632856D02*
X63809457Y-47585237D01*
X63809457Y-47585237D02*
X63761838Y-47537618D01*
X63761838Y-47537618D02*
X63714219Y-47442380D01*
X63714219Y-46489999D02*
X63714219Y-46394761D01*
X63714219Y-46394761D02*
X63761838Y-46299523D01*
X63761838Y-46299523D02*
X63809457Y-46251904D01*
X63809457Y-46251904D02*
X63904695Y-46204285D01*
X63904695Y-46204285D02*
X64095171Y-46156666D01*
X64095171Y-46156666D02*
X64333266Y-46156666D01*
X64333266Y-46156666D02*
X64523742Y-46204285D01*
X64523742Y-46204285D02*
X64618980Y-46251904D01*
X64618980Y-46251904D02*
X64666600Y-46299523D01*
X64666600Y-46299523D02*
X64714219Y-46394761D01*
X64714219Y-46394761D02*
X64714219Y-46489999D01*
X64714219Y-46489999D02*
X64666600Y-46585237D01*
X64666600Y-46585237D02*
X64618980Y-46632856D01*
X64618980Y-46632856D02*
X64523742Y-46680475D01*
X64523742Y-46680475D02*
X64333266Y-46728094D01*
X64333266Y-46728094D02*
X64095171Y-46728094D01*
X64095171Y-46728094D02*
X63904695Y-46680475D01*
X63904695Y-46680475D02*
X63809457Y-46632856D01*
X63809457Y-46632856D02*
X63761838Y-46585237D01*
X63761838Y-46585237D02*
X63714219Y-46489999D01*
X64714219Y-45728094D02*
X63714219Y-45728094D01*
X64333266Y-45632856D02*
X64714219Y-45347142D01*
X64047552Y-45347142D02*
X64428504Y-45728094D01*
X28940286Y-27392219D02*
X29559333Y-27392219D01*
X29559333Y-27392219D02*
X29226000Y-27773171D01*
X29226000Y-27773171D02*
X29368857Y-27773171D01*
X29368857Y-27773171D02*
X29464095Y-27820790D01*
X29464095Y-27820790D02*
X29511714Y-27868409D01*
X29511714Y-27868409D02*
X29559333Y-27963647D01*
X29559333Y-27963647D02*
X29559333Y-28201742D01*
X29559333Y-28201742D02*
X29511714Y-28296980D01*
X29511714Y-28296980D02*
X29464095Y-28344600D01*
X29464095Y-28344600D02*
X29368857Y-28392219D01*
X29368857Y-28392219D02*
X29083143Y-28392219D01*
X29083143Y-28392219D02*
X28987905Y-28344600D01*
X28987905Y-28344600D02*
X28940286Y-28296980D01*
X29892667Y-27392219D02*
X30511714Y-27392219D01*
X30511714Y-27392219D02*
X30178381Y-27773171D01*
X30178381Y-27773171D02*
X30321238Y-27773171D01*
X30321238Y-27773171D02*
X30416476Y-27820790D01*
X30416476Y-27820790D02*
X30464095Y-27868409D01*
X30464095Y-27868409D02*
X30511714Y-27963647D01*
X30511714Y-27963647D02*
X30511714Y-28201742D01*
X30511714Y-28201742D02*
X30464095Y-28296980D01*
X30464095Y-28296980D02*
X30416476Y-28344600D01*
X30416476Y-28344600D02*
X30321238Y-28392219D01*
X30321238Y-28392219D02*
X30035524Y-28392219D01*
X30035524Y-28392219D02*
X29940286Y-28344600D01*
X29940286Y-28344600D02*
X29892667Y-28296980D01*
X31130762Y-27392219D02*
X31226000Y-27392219D01*
X31226000Y-27392219D02*
X31321238Y-27439838D01*
X31321238Y-27439838D02*
X31368857Y-27487457D01*
X31368857Y-27487457D02*
X31416476Y-27582695D01*
X31416476Y-27582695D02*
X31464095Y-27773171D01*
X31464095Y-27773171D02*
X31464095Y-28011266D01*
X31464095Y-28011266D02*
X31416476Y-28201742D01*
X31416476Y-28201742D02*
X31368857Y-28296980D01*
X31368857Y-28296980D02*
X31321238Y-28344600D01*
X31321238Y-28344600D02*
X31226000Y-28392219D01*
X31226000Y-28392219D02*
X31130762Y-28392219D01*
X31130762Y-28392219D02*
X31035524Y-28344600D01*
X31035524Y-28344600D02*
X30987905Y-28296980D01*
X30987905Y-28296980D02*
X30940286Y-28201742D01*
X30940286Y-28201742D02*
X30892667Y-28011266D01*
X30892667Y-28011266D02*
X30892667Y-27773171D01*
X30892667Y-27773171D02*
X30940286Y-27582695D01*
X30940286Y-27582695D02*
X30987905Y-27487457D01*
X30987905Y-27487457D02*
X31035524Y-27439838D01*
X31035524Y-27439838D02*
X31130762Y-27392219D01*
X29630761Y-36520219D02*
X29059333Y-36520219D01*
X29345047Y-36520219D02*
X29345047Y-35520219D01*
X29345047Y-35520219D02*
X29249809Y-35663076D01*
X29249809Y-35663076D02*
X29154571Y-35758314D01*
X29154571Y-35758314D02*
X29059333Y-35805933D01*
X30249809Y-35520219D02*
X30345047Y-35520219D01*
X30345047Y-35520219D02*
X30440285Y-35567838D01*
X30440285Y-35567838D02*
X30487904Y-35615457D01*
X30487904Y-35615457D02*
X30535523Y-35710695D01*
X30535523Y-35710695D02*
X30583142Y-35901171D01*
X30583142Y-35901171D02*
X30583142Y-36139266D01*
X30583142Y-36139266D02*
X30535523Y-36329742D01*
X30535523Y-36329742D02*
X30487904Y-36424980D01*
X30487904Y-36424980D02*
X30440285Y-36472600D01*
X30440285Y-36472600D02*
X30345047Y-36520219D01*
X30345047Y-36520219D02*
X30249809Y-36520219D01*
X30249809Y-36520219D02*
X30154571Y-36472600D01*
X30154571Y-36472600D02*
X30106952Y-36424980D01*
X30106952Y-36424980D02*
X30059333Y-36329742D01*
X30059333Y-36329742D02*
X30011714Y-36139266D01*
X30011714Y-36139266D02*
X30011714Y-35901171D01*
X30011714Y-35901171D02*
X30059333Y-35710695D01*
X30059333Y-35710695D02*
X30106952Y-35615457D01*
X30106952Y-35615457D02*
X30154571Y-35567838D01*
X30154571Y-35567838D02*
X30249809Y-35520219D01*
X31011714Y-36520219D02*
X31011714Y-35520219D01*
X31106952Y-36139266D02*
X31392666Y-36520219D01*
X31392666Y-35853552D02*
X31011714Y-36234504D01*
X101290219Y-47109047D02*
X101290219Y-47680475D01*
X101290219Y-47394761D02*
X100290219Y-47394761D01*
X100290219Y-47394761D02*
X100433076Y-47489999D01*
X100433076Y-47489999D02*
X100528314Y-47585237D01*
X100528314Y-47585237D02*
X100575933Y-47680475D01*
X101290219Y-46680475D02*
X100290219Y-46680475D01*
X100909266Y-46585237D02*
X101290219Y-46299523D01*
X100623552Y-46299523D02*
X101004504Y-46680475D01*
X47061219Y-40949428D02*
X47061219Y-41520856D01*
X47061219Y-41235142D02*
X46061219Y-41235142D01*
X46061219Y-41235142D02*
X46204076Y-41330380D01*
X46204076Y-41330380D02*
X46299314Y-41425618D01*
X46299314Y-41425618D02*
X46346933Y-41520856D01*
X46061219Y-40330380D02*
X46061219Y-40235142D01*
X46061219Y-40235142D02*
X46108838Y-40139904D01*
X46108838Y-40139904D02*
X46156457Y-40092285D01*
X46156457Y-40092285D02*
X46251695Y-40044666D01*
X46251695Y-40044666D02*
X46442171Y-39997047D01*
X46442171Y-39997047D02*
X46680266Y-39997047D01*
X46680266Y-39997047D02*
X46870742Y-40044666D01*
X46870742Y-40044666D02*
X46965980Y-40092285D01*
X46965980Y-40092285D02*
X47013600Y-40139904D01*
X47013600Y-40139904D02*
X47061219Y-40235142D01*
X47061219Y-40235142D02*
X47061219Y-40330380D01*
X47061219Y-40330380D02*
X47013600Y-40425618D01*
X47013600Y-40425618D02*
X46965980Y-40473237D01*
X46965980Y-40473237D02*
X46870742Y-40520856D01*
X46870742Y-40520856D02*
X46680266Y-40568475D01*
X46680266Y-40568475D02*
X46442171Y-40568475D01*
X46442171Y-40568475D02*
X46251695Y-40520856D01*
X46251695Y-40520856D02*
X46156457Y-40473237D01*
X46156457Y-40473237D02*
X46108838Y-40425618D01*
X46108838Y-40425618D02*
X46061219Y-40330380D01*
X46394552Y-39139904D02*
X47061219Y-39139904D01*
X46394552Y-39568475D02*
X46918361Y-39568475D01*
X46918361Y-39568475D02*
X47013600Y-39520856D01*
X47013600Y-39520856D02*
X47061219Y-39425618D01*
X47061219Y-39425618D02*
X47061219Y-39282761D01*
X47061219Y-39282761D02*
X47013600Y-39187523D01*
X47013600Y-39187523D02*
X46965980Y-39139904D01*
X46537409Y-38330380D02*
X46537409Y-38663713D01*
X47061219Y-38663713D02*
X46061219Y-38663713D01*
X46061219Y-38663713D02*
X46061219Y-38187523D01*
X68778219Y-48061428D02*
X68778219Y-48632856D01*
X68778219Y-48347142D02*
X67778219Y-48347142D01*
X67778219Y-48347142D02*
X67921076Y-48442380D01*
X67921076Y-48442380D02*
X68016314Y-48537618D01*
X68016314Y-48537618D02*
X68063933Y-48632856D01*
X67778219Y-47442380D02*
X67778219Y-47347142D01*
X67778219Y-47347142D02*
X67825838Y-47251904D01*
X67825838Y-47251904D02*
X67873457Y-47204285D01*
X67873457Y-47204285D02*
X67968695Y-47156666D01*
X67968695Y-47156666D02*
X68159171Y-47109047D01*
X68159171Y-47109047D02*
X68397266Y-47109047D01*
X68397266Y-47109047D02*
X68587742Y-47156666D01*
X68587742Y-47156666D02*
X68682980Y-47204285D01*
X68682980Y-47204285D02*
X68730600Y-47251904D01*
X68730600Y-47251904D02*
X68778219Y-47347142D01*
X68778219Y-47347142D02*
X68778219Y-47442380D01*
X68778219Y-47442380D02*
X68730600Y-47537618D01*
X68730600Y-47537618D02*
X68682980Y-47585237D01*
X68682980Y-47585237D02*
X68587742Y-47632856D01*
X68587742Y-47632856D02*
X68397266Y-47680475D01*
X68397266Y-47680475D02*
X68159171Y-47680475D01*
X68159171Y-47680475D02*
X67968695Y-47632856D01*
X67968695Y-47632856D02*
X67873457Y-47585237D01*
X67873457Y-47585237D02*
X67825838Y-47537618D01*
X67825838Y-47537618D02*
X67778219Y-47442380D01*
X67778219Y-46489999D02*
X67778219Y-46394761D01*
X67778219Y-46394761D02*
X67825838Y-46299523D01*
X67825838Y-46299523D02*
X67873457Y-46251904D01*
X67873457Y-46251904D02*
X67968695Y-46204285D01*
X67968695Y-46204285D02*
X68159171Y-46156666D01*
X68159171Y-46156666D02*
X68397266Y-46156666D01*
X68397266Y-46156666D02*
X68587742Y-46204285D01*
X68587742Y-46204285D02*
X68682980Y-46251904D01*
X68682980Y-46251904D02*
X68730600Y-46299523D01*
X68730600Y-46299523D02*
X68778219Y-46394761D01*
X68778219Y-46394761D02*
X68778219Y-46489999D01*
X68778219Y-46489999D02*
X68730600Y-46585237D01*
X68730600Y-46585237D02*
X68682980Y-46632856D01*
X68682980Y-46632856D02*
X68587742Y-46680475D01*
X68587742Y-46680475D02*
X68397266Y-46728094D01*
X68397266Y-46728094D02*
X68159171Y-46728094D01*
X68159171Y-46728094D02*
X67968695Y-46680475D01*
X67968695Y-46680475D02*
X67873457Y-46632856D01*
X67873457Y-46632856D02*
X67825838Y-46585237D01*
X67825838Y-46585237D02*
X67778219Y-46489999D01*
X68778219Y-45728094D02*
X67778219Y-45728094D01*
X68397266Y-45632856D02*
X68778219Y-45347142D01*
X68111552Y-45347142D02*
X68492504Y-45728094D01*
X28940286Y-15200219D02*
X29559333Y-15200219D01*
X29559333Y-15200219D02*
X29226000Y-15581171D01*
X29226000Y-15581171D02*
X29368857Y-15581171D01*
X29368857Y-15581171D02*
X29464095Y-15628790D01*
X29464095Y-15628790D02*
X29511714Y-15676409D01*
X29511714Y-15676409D02*
X29559333Y-15771647D01*
X29559333Y-15771647D02*
X29559333Y-16009742D01*
X29559333Y-16009742D02*
X29511714Y-16104980D01*
X29511714Y-16104980D02*
X29464095Y-16152600D01*
X29464095Y-16152600D02*
X29368857Y-16200219D01*
X29368857Y-16200219D02*
X29083143Y-16200219D01*
X29083143Y-16200219D02*
X28987905Y-16152600D01*
X28987905Y-16152600D02*
X28940286Y-16104980D01*
X29892667Y-15200219D02*
X30511714Y-15200219D01*
X30511714Y-15200219D02*
X30178381Y-15581171D01*
X30178381Y-15581171D02*
X30321238Y-15581171D01*
X30321238Y-15581171D02*
X30416476Y-15628790D01*
X30416476Y-15628790D02*
X30464095Y-15676409D01*
X30464095Y-15676409D02*
X30511714Y-15771647D01*
X30511714Y-15771647D02*
X30511714Y-16009742D01*
X30511714Y-16009742D02*
X30464095Y-16104980D01*
X30464095Y-16104980D02*
X30416476Y-16152600D01*
X30416476Y-16152600D02*
X30321238Y-16200219D01*
X30321238Y-16200219D02*
X30035524Y-16200219D01*
X30035524Y-16200219D02*
X29940286Y-16152600D01*
X29940286Y-16152600D02*
X29892667Y-16104980D01*
X31130762Y-15200219D02*
X31226000Y-15200219D01*
X31226000Y-15200219D02*
X31321238Y-15247838D01*
X31321238Y-15247838D02*
X31368857Y-15295457D01*
X31368857Y-15295457D02*
X31416476Y-15390695D01*
X31416476Y-15390695D02*
X31464095Y-15581171D01*
X31464095Y-15581171D02*
X31464095Y-15819266D01*
X31464095Y-15819266D02*
X31416476Y-16009742D01*
X31416476Y-16009742D02*
X31368857Y-16104980D01*
X31368857Y-16104980D02*
X31321238Y-16152600D01*
X31321238Y-16152600D02*
X31226000Y-16200219D01*
X31226000Y-16200219D02*
X31130762Y-16200219D01*
X31130762Y-16200219D02*
X31035524Y-16152600D01*
X31035524Y-16152600D02*
X30987905Y-16104980D01*
X30987905Y-16104980D02*
X30940286Y-16009742D01*
X30940286Y-16009742D02*
X30892667Y-15819266D01*
X30892667Y-15819266D02*
X30892667Y-15581171D01*
X30892667Y-15581171D02*
X30940286Y-15390695D01*
X30940286Y-15390695D02*
X30987905Y-15295457D01*
X30987905Y-15295457D02*
X31035524Y-15247838D01*
X31035524Y-15247838D02*
X31130762Y-15200219D01*
X29662219Y-48569428D02*
X29662219Y-49140856D01*
X29662219Y-48855142D02*
X28662219Y-48855142D01*
X28662219Y-48855142D02*
X28805076Y-48950380D01*
X28805076Y-48950380D02*
X28900314Y-49045618D01*
X28900314Y-49045618D02*
X28947933Y-49140856D01*
X28662219Y-47950380D02*
X28662219Y-47855142D01*
X28662219Y-47855142D02*
X28709838Y-47759904D01*
X28709838Y-47759904D02*
X28757457Y-47712285D01*
X28757457Y-47712285D02*
X28852695Y-47664666D01*
X28852695Y-47664666D02*
X29043171Y-47617047D01*
X29043171Y-47617047D02*
X29281266Y-47617047D01*
X29281266Y-47617047D02*
X29471742Y-47664666D01*
X29471742Y-47664666D02*
X29566980Y-47712285D01*
X29566980Y-47712285D02*
X29614600Y-47759904D01*
X29614600Y-47759904D02*
X29662219Y-47855142D01*
X29662219Y-47855142D02*
X29662219Y-47950380D01*
X29662219Y-47950380D02*
X29614600Y-48045618D01*
X29614600Y-48045618D02*
X29566980Y-48093237D01*
X29566980Y-48093237D02*
X29471742Y-48140856D01*
X29471742Y-48140856D02*
X29281266Y-48188475D01*
X29281266Y-48188475D02*
X29043171Y-48188475D01*
X29043171Y-48188475D02*
X28852695Y-48140856D01*
X28852695Y-48140856D02*
X28757457Y-48093237D01*
X28757457Y-48093237D02*
X28709838Y-48045618D01*
X28709838Y-48045618D02*
X28662219Y-47950380D01*
X28662219Y-46997999D02*
X28662219Y-46902761D01*
X28662219Y-46902761D02*
X28709838Y-46807523D01*
X28709838Y-46807523D02*
X28757457Y-46759904D01*
X28757457Y-46759904D02*
X28852695Y-46712285D01*
X28852695Y-46712285D02*
X29043171Y-46664666D01*
X29043171Y-46664666D02*
X29281266Y-46664666D01*
X29281266Y-46664666D02*
X29471742Y-46712285D01*
X29471742Y-46712285D02*
X29566980Y-46759904D01*
X29566980Y-46759904D02*
X29614600Y-46807523D01*
X29614600Y-46807523D02*
X29662219Y-46902761D01*
X29662219Y-46902761D02*
X29662219Y-46997999D01*
X29662219Y-46997999D02*
X29614600Y-47093237D01*
X29614600Y-47093237D02*
X29566980Y-47140856D01*
X29566980Y-47140856D02*
X29471742Y-47188475D01*
X29471742Y-47188475D02*
X29281266Y-47236094D01*
X29281266Y-47236094D02*
X29043171Y-47236094D01*
X29043171Y-47236094D02*
X28852695Y-47188475D01*
X28852695Y-47188475D02*
X28757457Y-47140856D01*
X28757457Y-47140856D02*
X28709838Y-47093237D01*
X28709838Y-47093237D02*
X28662219Y-46997999D01*
X29662219Y-46236094D02*
X28662219Y-46236094D01*
X29281266Y-46140856D02*
X29662219Y-45855142D01*
X28995552Y-45855142D02*
X29376504Y-46236094D01*
X104211219Y-52887428D02*
X104211219Y-53458856D01*
X104211219Y-53173142D02*
X103211219Y-53173142D01*
X103211219Y-53173142D02*
X103354076Y-53268380D01*
X103354076Y-53268380D02*
X103449314Y-53363618D01*
X103449314Y-53363618D02*
X103496933Y-53458856D01*
X103211219Y-52268380D02*
X103211219Y-52173142D01*
X103211219Y-52173142D02*
X103258838Y-52077904D01*
X103258838Y-52077904D02*
X103306457Y-52030285D01*
X103306457Y-52030285D02*
X103401695Y-51982666D01*
X103401695Y-51982666D02*
X103592171Y-51935047D01*
X103592171Y-51935047D02*
X103830266Y-51935047D01*
X103830266Y-51935047D02*
X104020742Y-51982666D01*
X104020742Y-51982666D02*
X104115980Y-52030285D01*
X104115980Y-52030285D02*
X104163600Y-52077904D01*
X104163600Y-52077904D02*
X104211219Y-52173142D01*
X104211219Y-52173142D02*
X104211219Y-52268380D01*
X104211219Y-52268380D02*
X104163600Y-52363618D01*
X104163600Y-52363618D02*
X104115980Y-52411237D01*
X104115980Y-52411237D02*
X104020742Y-52458856D01*
X104020742Y-52458856D02*
X103830266Y-52506475D01*
X103830266Y-52506475D02*
X103592171Y-52506475D01*
X103592171Y-52506475D02*
X103401695Y-52458856D01*
X103401695Y-52458856D02*
X103306457Y-52411237D01*
X103306457Y-52411237D02*
X103258838Y-52363618D01*
X103258838Y-52363618D02*
X103211219Y-52268380D01*
X103544552Y-51077904D02*
X104211219Y-51077904D01*
X103544552Y-51506475D02*
X104068361Y-51506475D01*
X104068361Y-51506475D02*
X104163600Y-51458856D01*
X104163600Y-51458856D02*
X104211219Y-51363618D01*
X104211219Y-51363618D02*
X104211219Y-51220761D01*
X104211219Y-51220761D02*
X104163600Y-51125523D01*
X104163600Y-51125523D02*
X104115980Y-51077904D01*
X103687409Y-50268380D02*
X103687409Y-50601713D01*
X104211219Y-50601713D02*
X103211219Y-50601713D01*
X103211219Y-50601713D02*
X103211219Y-50125523D01*
X28940286Y-23328219D02*
X29559333Y-23328219D01*
X29559333Y-23328219D02*
X29226000Y-23709171D01*
X29226000Y-23709171D02*
X29368857Y-23709171D01*
X29368857Y-23709171D02*
X29464095Y-23756790D01*
X29464095Y-23756790D02*
X29511714Y-23804409D01*
X29511714Y-23804409D02*
X29559333Y-23899647D01*
X29559333Y-23899647D02*
X29559333Y-24137742D01*
X29559333Y-24137742D02*
X29511714Y-24232980D01*
X29511714Y-24232980D02*
X29464095Y-24280600D01*
X29464095Y-24280600D02*
X29368857Y-24328219D01*
X29368857Y-24328219D02*
X29083143Y-24328219D01*
X29083143Y-24328219D02*
X28987905Y-24280600D01*
X28987905Y-24280600D02*
X28940286Y-24232980D01*
X29892667Y-23328219D02*
X30511714Y-23328219D01*
X30511714Y-23328219D02*
X30178381Y-23709171D01*
X30178381Y-23709171D02*
X30321238Y-23709171D01*
X30321238Y-23709171D02*
X30416476Y-23756790D01*
X30416476Y-23756790D02*
X30464095Y-23804409D01*
X30464095Y-23804409D02*
X30511714Y-23899647D01*
X30511714Y-23899647D02*
X30511714Y-24137742D01*
X30511714Y-24137742D02*
X30464095Y-24232980D01*
X30464095Y-24232980D02*
X30416476Y-24280600D01*
X30416476Y-24280600D02*
X30321238Y-24328219D01*
X30321238Y-24328219D02*
X30035524Y-24328219D01*
X30035524Y-24328219D02*
X29940286Y-24280600D01*
X29940286Y-24280600D02*
X29892667Y-24232980D01*
X31130762Y-23328219D02*
X31226000Y-23328219D01*
X31226000Y-23328219D02*
X31321238Y-23375838D01*
X31321238Y-23375838D02*
X31368857Y-23423457D01*
X31368857Y-23423457D02*
X31416476Y-23518695D01*
X31416476Y-23518695D02*
X31464095Y-23709171D01*
X31464095Y-23709171D02*
X31464095Y-23947266D01*
X31464095Y-23947266D02*
X31416476Y-24137742D01*
X31416476Y-24137742D02*
X31368857Y-24232980D01*
X31368857Y-24232980D02*
X31321238Y-24280600D01*
X31321238Y-24280600D02*
X31226000Y-24328219D01*
X31226000Y-24328219D02*
X31130762Y-24328219D01*
X31130762Y-24328219D02*
X31035524Y-24280600D01*
X31035524Y-24280600D02*
X30987905Y-24232980D01*
X30987905Y-24232980D02*
X30940286Y-24137742D01*
X30940286Y-24137742D02*
X30892667Y-23947266D01*
X30892667Y-23947266D02*
X30892667Y-23709171D01*
X30892667Y-23709171D02*
X30940286Y-23518695D01*
X30940286Y-23518695D02*
X30987905Y-23423457D01*
X30987905Y-23423457D02*
X31035524Y-23375838D01*
X31035524Y-23375838D02*
X31130762Y-23328219D01*
X72842219Y-47585238D02*
X72842219Y-48156666D01*
X72842219Y-47870952D02*
X71842219Y-47870952D01*
X71842219Y-47870952D02*
X71985076Y-47966190D01*
X71985076Y-47966190D02*
X72080314Y-48061428D01*
X72080314Y-48061428D02*
X72127933Y-48156666D01*
X71842219Y-46966190D02*
X71842219Y-46870952D01*
X71842219Y-46870952D02*
X71889838Y-46775714D01*
X71889838Y-46775714D02*
X71937457Y-46728095D01*
X71937457Y-46728095D02*
X72032695Y-46680476D01*
X72032695Y-46680476D02*
X72223171Y-46632857D01*
X72223171Y-46632857D02*
X72461266Y-46632857D01*
X72461266Y-46632857D02*
X72651742Y-46680476D01*
X72651742Y-46680476D02*
X72746980Y-46728095D01*
X72746980Y-46728095D02*
X72794600Y-46775714D01*
X72794600Y-46775714D02*
X72842219Y-46870952D01*
X72842219Y-46870952D02*
X72842219Y-46966190D01*
X72842219Y-46966190D02*
X72794600Y-47061428D01*
X72794600Y-47061428D02*
X72746980Y-47109047D01*
X72746980Y-47109047D02*
X72651742Y-47156666D01*
X72651742Y-47156666D02*
X72461266Y-47204285D01*
X72461266Y-47204285D02*
X72223171Y-47204285D01*
X72223171Y-47204285D02*
X72032695Y-47156666D01*
X72032695Y-47156666D02*
X71937457Y-47109047D01*
X71937457Y-47109047D02*
X71889838Y-47061428D01*
X71889838Y-47061428D02*
X71842219Y-46966190D01*
X72842219Y-46204285D02*
X71842219Y-46204285D01*
X72461266Y-46109047D02*
X72842219Y-45823333D01*
X72175552Y-45823333D02*
X72556504Y-46204285D01*
X20153219Y-35099332D02*
X20153219Y-34432666D01*
X20153219Y-34432666D02*
X21153219Y-34861237D01*
X20581790Y-33908856D02*
X20534171Y-34004094D01*
X20534171Y-34004094D02*
X20486552Y-34051713D01*
X20486552Y-34051713D02*
X20391314Y-34099332D01*
X20391314Y-34099332D02*
X20343695Y-34099332D01*
X20343695Y-34099332D02*
X20248457Y-34051713D01*
X20248457Y-34051713D02*
X20200838Y-34004094D01*
X20200838Y-34004094D02*
X20153219Y-33908856D01*
X20153219Y-33908856D02*
X20153219Y-33718380D01*
X20153219Y-33718380D02*
X20200838Y-33623142D01*
X20200838Y-33623142D02*
X20248457Y-33575523D01*
X20248457Y-33575523D02*
X20343695Y-33527904D01*
X20343695Y-33527904D02*
X20391314Y-33527904D01*
X20391314Y-33527904D02*
X20486552Y-33575523D01*
X20486552Y-33575523D02*
X20534171Y-33623142D01*
X20534171Y-33623142D02*
X20581790Y-33718380D01*
X20581790Y-33718380D02*
X20581790Y-33908856D01*
X20581790Y-33908856D02*
X20629409Y-34004094D01*
X20629409Y-34004094D02*
X20677028Y-34051713D01*
X20677028Y-34051713D02*
X20772266Y-34099332D01*
X20772266Y-34099332D02*
X20962742Y-34099332D01*
X20962742Y-34099332D02*
X21057980Y-34051713D01*
X21057980Y-34051713D02*
X21105600Y-34004094D01*
X21105600Y-34004094D02*
X21153219Y-33908856D01*
X21153219Y-33908856D02*
X21153219Y-33718380D01*
X21153219Y-33718380D02*
X21105600Y-33623142D01*
X21105600Y-33623142D02*
X21057980Y-33575523D01*
X21057980Y-33575523D02*
X20962742Y-33527904D01*
X20962742Y-33527904D02*
X20772266Y-33527904D01*
X20772266Y-33527904D02*
X20677028Y-33575523D01*
X20677028Y-33575523D02*
X20629409Y-33623142D01*
X20629409Y-33623142D02*
X20581790Y-33718380D01*
X21153219Y-33099332D02*
X20153219Y-33099332D01*
X20153219Y-33099332D02*
X20867504Y-32765999D01*
X20867504Y-32765999D02*
X20153219Y-32432666D01*
X20153219Y-32432666D02*
X21153219Y-32432666D01*
X20153219Y-32051713D02*
X20153219Y-31432666D01*
X20153219Y-31432666D02*
X20534171Y-31765999D01*
X20534171Y-31765999D02*
X20534171Y-31623142D01*
X20534171Y-31623142D02*
X20581790Y-31527904D01*
X20581790Y-31527904D02*
X20629409Y-31480285D01*
X20629409Y-31480285D02*
X20724647Y-31432666D01*
X20724647Y-31432666D02*
X20962742Y-31432666D01*
X20962742Y-31432666D02*
X21057980Y-31480285D01*
X21057980Y-31480285D02*
X21105600Y-31527904D01*
X21105600Y-31527904D02*
X21153219Y-31623142D01*
X21153219Y-31623142D02*
X21153219Y-31908856D01*
X21153219Y-31908856D02*
X21105600Y-32004094D01*
X21105600Y-32004094D02*
X21057980Y-32051713D01*
X20153219Y-31099332D02*
X20153219Y-30480285D01*
X20153219Y-30480285D02*
X20534171Y-30813618D01*
X20534171Y-30813618D02*
X20534171Y-30670761D01*
X20534171Y-30670761D02*
X20581790Y-30575523D01*
X20581790Y-30575523D02*
X20629409Y-30527904D01*
X20629409Y-30527904D02*
X20724647Y-30480285D01*
X20724647Y-30480285D02*
X20962742Y-30480285D01*
X20962742Y-30480285D02*
X21057980Y-30527904D01*
X21057980Y-30527904D02*
X21105600Y-30575523D01*
X21105600Y-30575523D02*
X21153219Y-30670761D01*
X21153219Y-30670761D02*
X21153219Y-30956475D01*
X21153219Y-30956475D02*
X21105600Y-31051713D01*
X21105600Y-31051713D02*
X21057980Y-31099332D01*
X38298219Y-48442428D02*
X38298219Y-49013856D01*
X38298219Y-48728142D02*
X37298219Y-48728142D01*
X37298219Y-48728142D02*
X37441076Y-48823380D01*
X37441076Y-48823380D02*
X37536314Y-48918618D01*
X37536314Y-48918618D02*
X37583933Y-49013856D01*
X37298219Y-47823380D02*
X37298219Y-47728142D01*
X37298219Y-47728142D02*
X37345838Y-47632904D01*
X37345838Y-47632904D02*
X37393457Y-47585285D01*
X37393457Y-47585285D02*
X37488695Y-47537666D01*
X37488695Y-47537666D02*
X37679171Y-47490047D01*
X37679171Y-47490047D02*
X37917266Y-47490047D01*
X37917266Y-47490047D02*
X38107742Y-47537666D01*
X38107742Y-47537666D02*
X38202980Y-47585285D01*
X38202980Y-47585285D02*
X38250600Y-47632904D01*
X38250600Y-47632904D02*
X38298219Y-47728142D01*
X38298219Y-47728142D02*
X38298219Y-47823380D01*
X38298219Y-47823380D02*
X38250600Y-47918618D01*
X38250600Y-47918618D02*
X38202980Y-47966237D01*
X38202980Y-47966237D02*
X38107742Y-48013856D01*
X38107742Y-48013856D02*
X37917266Y-48061475D01*
X37917266Y-48061475D02*
X37679171Y-48061475D01*
X37679171Y-48061475D02*
X37488695Y-48013856D01*
X37488695Y-48013856D02*
X37393457Y-47966237D01*
X37393457Y-47966237D02*
X37345838Y-47918618D01*
X37345838Y-47918618D02*
X37298219Y-47823380D01*
X37298219Y-46870999D02*
X37298219Y-46775761D01*
X37298219Y-46775761D02*
X37345838Y-46680523D01*
X37345838Y-46680523D02*
X37393457Y-46632904D01*
X37393457Y-46632904D02*
X37488695Y-46585285D01*
X37488695Y-46585285D02*
X37679171Y-46537666D01*
X37679171Y-46537666D02*
X37917266Y-46537666D01*
X37917266Y-46537666D02*
X38107742Y-46585285D01*
X38107742Y-46585285D02*
X38202980Y-46632904D01*
X38202980Y-46632904D02*
X38250600Y-46680523D01*
X38250600Y-46680523D02*
X38298219Y-46775761D01*
X38298219Y-46775761D02*
X38298219Y-46870999D01*
X38298219Y-46870999D02*
X38250600Y-46966237D01*
X38250600Y-46966237D02*
X38202980Y-47013856D01*
X38202980Y-47013856D02*
X38107742Y-47061475D01*
X38107742Y-47061475D02*
X37917266Y-47109094D01*
X37917266Y-47109094D02*
X37679171Y-47109094D01*
X37679171Y-47109094D02*
X37488695Y-47061475D01*
X37488695Y-47061475D02*
X37393457Y-47013856D01*
X37393457Y-47013856D02*
X37345838Y-46966237D01*
X37345838Y-46966237D02*
X37298219Y-46870999D01*
X38298219Y-46109094D02*
X37298219Y-46109094D01*
X37917266Y-46013856D02*
X38298219Y-45728142D01*
X37631552Y-45728142D02*
X38012504Y-46109094D01*
X28940286Y-19264219D02*
X29559333Y-19264219D01*
X29559333Y-19264219D02*
X29226000Y-19645171D01*
X29226000Y-19645171D02*
X29368857Y-19645171D01*
X29368857Y-19645171D02*
X29464095Y-19692790D01*
X29464095Y-19692790D02*
X29511714Y-19740409D01*
X29511714Y-19740409D02*
X29559333Y-19835647D01*
X29559333Y-19835647D02*
X29559333Y-20073742D01*
X29559333Y-20073742D02*
X29511714Y-20168980D01*
X29511714Y-20168980D02*
X29464095Y-20216600D01*
X29464095Y-20216600D02*
X29368857Y-20264219D01*
X29368857Y-20264219D02*
X29083143Y-20264219D01*
X29083143Y-20264219D02*
X28987905Y-20216600D01*
X28987905Y-20216600D02*
X28940286Y-20168980D01*
X29892667Y-19264219D02*
X30511714Y-19264219D01*
X30511714Y-19264219D02*
X30178381Y-19645171D01*
X30178381Y-19645171D02*
X30321238Y-19645171D01*
X30321238Y-19645171D02*
X30416476Y-19692790D01*
X30416476Y-19692790D02*
X30464095Y-19740409D01*
X30464095Y-19740409D02*
X30511714Y-19835647D01*
X30511714Y-19835647D02*
X30511714Y-20073742D01*
X30511714Y-20073742D02*
X30464095Y-20168980D01*
X30464095Y-20168980D02*
X30416476Y-20216600D01*
X30416476Y-20216600D02*
X30321238Y-20264219D01*
X30321238Y-20264219D02*
X30035524Y-20264219D01*
X30035524Y-20264219D02*
X29940286Y-20216600D01*
X29940286Y-20216600D02*
X29892667Y-20168980D01*
X31130762Y-19264219D02*
X31226000Y-19264219D01*
X31226000Y-19264219D02*
X31321238Y-19311838D01*
X31321238Y-19311838D02*
X31368857Y-19359457D01*
X31368857Y-19359457D02*
X31416476Y-19454695D01*
X31416476Y-19454695D02*
X31464095Y-19645171D01*
X31464095Y-19645171D02*
X31464095Y-19883266D01*
X31464095Y-19883266D02*
X31416476Y-20073742D01*
X31416476Y-20073742D02*
X31368857Y-20168980D01*
X31368857Y-20168980D02*
X31321238Y-20216600D01*
X31321238Y-20216600D02*
X31226000Y-20264219D01*
X31226000Y-20264219D02*
X31130762Y-20264219D01*
X31130762Y-20264219D02*
X31035524Y-20216600D01*
X31035524Y-20216600D02*
X30987905Y-20168980D01*
X30987905Y-20168980D02*
X30940286Y-20073742D01*
X30940286Y-20073742D02*
X30892667Y-19883266D01*
X30892667Y-19883266D02*
X30892667Y-19645171D01*
X30892667Y-19645171D02*
X30940286Y-19454695D01*
X30940286Y-19454695D02*
X30987905Y-19359457D01*
X30987905Y-19359457D02*
X31035524Y-19311838D01*
X31035524Y-19311838D02*
X31130762Y-19264219D01*
X93162219Y-47585238D02*
X93162219Y-48156666D01*
X93162219Y-47870952D02*
X92162219Y-47870952D01*
X92162219Y-47870952D02*
X92305076Y-47966190D01*
X92305076Y-47966190D02*
X92400314Y-48061428D01*
X92400314Y-48061428D02*
X92447933Y-48156666D01*
X92162219Y-46966190D02*
X92162219Y-46870952D01*
X92162219Y-46870952D02*
X92209838Y-46775714D01*
X92209838Y-46775714D02*
X92257457Y-46728095D01*
X92257457Y-46728095D02*
X92352695Y-46680476D01*
X92352695Y-46680476D02*
X92543171Y-46632857D01*
X92543171Y-46632857D02*
X92781266Y-46632857D01*
X92781266Y-46632857D02*
X92971742Y-46680476D01*
X92971742Y-46680476D02*
X93066980Y-46728095D01*
X93066980Y-46728095D02*
X93114600Y-46775714D01*
X93114600Y-46775714D02*
X93162219Y-46870952D01*
X93162219Y-46870952D02*
X93162219Y-46966190D01*
X93162219Y-46966190D02*
X93114600Y-47061428D01*
X93114600Y-47061428D02*
X93066980Y-47109047D01*
X93066980Y-47109047D02*
X92971742Y-47156666D01*
X92971742Y-47156666D02*
X92781266Y-47204285D01*
X92781266Y-47204285D02*
X92543171Y-47204285D01*
X92543171Y-47204285D02*
X92352695Y-47156666D01*
X92352695Y-47156666D02*
X92257457Y-47109047D01*
X92257457Y-47109047D02*
X92209838Y-47061428D01*
X92209838Y-47061428D02*
X92162219Y-46966190D01*
X93162219Y-46204285D02*
X92162219Y-46204285D01*
X92781266Y-46109047D02*
X93162219Y-45823333D01*
X92495552Y-45823333D02*
X92876504Y-46204285D01*
X76906219Y-47585238D02*
X76906219Y-48156666D01*
X76906219Y-47870952D02*
X75906219Y-47870952D01*
X75906219Y-47870952D02*
X76049076Y-47966190D01*
X76049076Y-47966190D02*
X76144314Y-48061428D01*
X76144314Y-48061428D02*
X76191933Y-48156666D01*
X75906219Y-46966190D02*
X75906219Y-46870952D01*
X75906219Y-46870952D02*
X75953838Y-46775714D01*
X75953838Y-46775714D02*
X76001457Y-46728095D01*
X76001457Y-46728095D02*
X76096695Y-46680476D01*
X76096695Y-46680476D02*
X76287171Y-46632857D01*
X76287171Y-46632857D02*
X76525266Y-46632857D01*
X76525266Y-46632857D02*
X76715742Y-46680476D01*
X76715742Y-46680476D02*
X76810980Y-46728095D01*
X76810980Y-46728095D02*
X76858600Y-46775714D01*
X76858600Y-46775714D02*
X76906219Y-46870952D01*
X76906219Y-46870952D02*
X76906219Y-46966190D01*
X76906219Y-46966190D02*
X76858600Y-47061428D01*
X76858600Y-47061428D02*
X76810980Y-47109047D01*
X76810980Y-47109047D02*
X76715742Y-47156666D01*
X76715742Y-47156666D02*
X76525266Y-47204285D01*
X76525266Y-47204285D02*
X76287171Y-47204285D01*
X76287171Y-47204285D02*
X76096695Y-47156666D01*
X76096695Y-47156666D02*
X76001457Y-47109047D01*
X76001457Y-47109047D02*
X75953838Y-47061428D01*
X75953838Y-47061428D02*
X75906219Y-46966190D01*
X76906219Y-46204285D02*
X75906219Y-46204285D01*
X76525266Y-46109047D02*
X76906219Y-45823333D01*
X76239552Y-45823333D02*
X76620504Y-46204285D01*
X89098219Y-47585238D02*
X89098219Y-48156666D01*
X89098219Y-47870952D02*
X88098219Y-47870952D01*
X88098219Y-47870952D02*
X88241076Y-47966190D01*
X88241076Y-47966190D02*
X88336314Y-48061428D01*
X88336314Y-48061428D02*
X88383933Y-48156666D01*
X88098219Y-46966190D02*
X88098219Y-46870952D01*
X88098219Y-46870952D02*
X88145838Y-46775714D01*
X88145838Y-46775714D02*
X88193457Y-46728095D01*
X88193457Y-46728095D02*
X88288695Y-46680476D01*
X88288695Y-46680476D02*
X88479171Y-46632857D01*
X88479171Y-46632857D02*
X88717266Y-46632857D01*
X88717266Y-46632857D02*
X88907742Y-46680476D01*
X88907742Y-46680476D02*
X89002980Y-46728095D01*
X89002980Y-46728095D02*
X89050600Y-46775714D01*
X89050600Y-46775714D02*
X89098219Y-46870952D01*
X89098219Y-46870952D02*
X89098219Y-46966190D01*
X89098219Y-46966190D02*
X89050600Y-47061428D01*
X89050600Y-47061428D02*
X89002980Y-47109047D01*
X89002980Y-47109047D02*
X88907742Y-47156666D01*
X88907742Y-47156666D02*
X88717266Y-47204285D01*
X88717266Y-47204285D02*
X88479171Y-47204285D01*
X88479171Y-47204285D02*
X88288695Y-47156666D01*
X88288695Y-47156666D02*
X88193457Y-47109047D01*
X88193457Y-47109047D02*
X88145838Y-47061428D01*
X88145838Y-47061428D02*
X88098219Y-46966190D01*
X89098219Y-46204285D02*
X88098219Y-46204285D01*
X88717266Y-46109047D02*
X89098219Y-45823333D01*
X88431552Y-45823333D02*
X88812504Y-46204285D01*
X25344219Y-48696428D02*
X25344219Y-49267856D01*
X25344219Y-48982142D02*
X24344219Y-48982142D01*
X24344219Y-48982142D02*
X24487076Y-49077380D01*
X24487076Y-49077380D02*
X24582314Y-49172618D01*
X24582314Y-49172618D02*
X24629933Y-49267856D01*
X24344219Y-48077380D02*
X24344219Y-47982142D01*
X24344219Y-47982142D02*
X24391838Y-47886904D01*
X24391838Y-47886904D02*
X24439457Y-47839285D01*
X24439457Y-47839285D02*
X24534695Y-47791666D01*
X24534695Y-47791666D02*
X24725171Y-47744047D01*
X24725171Y-47744047D02*
X24963266Y-47744047D01*
X24963266Y-47744047D02*
X25153742Y-47791666D01*
X25153742Y-47791666D02*
X25248980Y-47839285D01*
X25248980Y-47839285D02*
X25296600Y-47886904D01*
X25296600Y-47886904D02*
X25344219Y-47982142D01*
X25344219Y-47982142D02*
X25344219Y-48077380D01*
X25344219Y-48077380D02*
X25296600Y-48172618D01*
X25296600Y-48172618D02*
X25248980Y-48220237D01*
X25248980Y-48220237D02*
X25153742Y-48267856D01*
X25153742Y-48267856D02*
X24963266Y-48315475D01*
X24963266Y-48315475D02*
X24725171Y-48315475D01*
X24725171Y-48315475D02*
X24534695Y-48267856D01*
X24534695Y-48267856D02*
X24439457Y-48220237D01*
X24439457Y-48220237D02*
X24391838Y-48172618D01*
X24391838Y-48172618D02*
X24344219Y-48077380D01*
X24344219Y-47124999D02*
X24344219Y-47029761D01*
X24344219Y-47029761D02*
X24391838Y-46934523D01*
X24391838Y-46934523D02*
X24439457Y-46886904D01*
X24439457Y-46886904D02*
X24534695Y-46839285D01*
X24534695Y-46839285D02*
X24725171Y-46791666D01*
X24725171Y-46791666D02*
X24963266Y-46791666D01*
X24963266Y-46791666D02*
X25153742Y-46839285D01*
X25153742Y-46839285D02*
X25248980Y-46886904D01*
X25248980Y-46886904D02*
X25296600Y-46934523D01*
X25296600Y-46934523D02*
X25344219Y-47029761D01*
X25344219Y-47029761D02*
X25344219Y-47124999D01*
X25344219Y-47124999D02*
X25296600Y-47220237D01*
X25296600Y-47220237D02*
X25248980Y-47267856D01*
X25248980Y-47267856D02*
X25153742Y-47315475D01*
X25153742Y-47315475D02*
X24963266Y-47363094D01*
X24963266Y-47363094D02*
X24725171Y-47363094D01*
X24725171Y-47363094D02*
X24534695Y-47315475D01*
X24534695Y-47315475D02*
X24439457Y-47267856D01*
X24439457Y-47267856D02*
X24391838Y-47220237D01*
X24391838Y-47220237D02*
X24344219Y-47124999D01*
X25344219Y-46363094D02*
X24344219Y-46363094D01*
X24963266Y-46267856D02*
X25344219Y-45982142D01*
X24677552Y-45982142D02*
X25058504Y-46363094D01*
X43886219Y-20632475D02*
X42886219Y-20632475D01*
X42886219Y-20632475D02*
X43600504Y-20299142D01*
X43600504Y-20299142D02*
X42886219Y-19965809D01*
X42886219Y-19965809D02*
X43886219Y-19965809D01*
X43790980Y-18918190D02*
X43838600Y-18965809D01*
X43838600Y-18965809D02*
X43886219Y-19108666D01*
X43886219Y-19108666D02*
X43886219Y-19203904D01*
X43886219Y-19203904D02*
X43838600Y-19346761D01*
X43838600Y-19346761D02*
X43743361Y-19441999D01*
X43743361Y-19441999D02*
X43648123Y-19489618D01*
X43648123Y-19489618D02*
X43457647Y-19537237D01*
X43457647Y-19537237D02*
X43314790Y-19537237D01*
X43314790Y-19537237D02*
X43124314Y-19489618D01*
X43124314Y-19489618D02*
X43029076Y-19441999D01*
X43029076Y-19441999D02*
X42933838Y-19346761D01*
X42933838Y-19346761D02*
X42886219Y-19203904D01*
X42886219Y-19203904D02*
X42886219Y-19108666D01*
X42886219Y-19108666D02*
X42933838Y-18965809D01*
X42933838Y-18965809D02*
X42981457Y-18918190D01*
X42886219Y-18632475D02*
X42886219Y-18061047D01*
X43886219Y-18346761D02*
X42886219Y-18346761D01*
X42886219Y-17299142D02*
X42886219Y-17489618D01*
X42886219Y-17489618D02*
X42933838Y-17584856D01*
X42933838Y-17584856D02*
X42981457Y-17632475D01*
X42981457Y-17632475D02*
X43124314Y-17727713D01*
X43124314Y-17727713D02*
X43314790Y-17775332D01*
X43314790Y-17775332D02*
X43695742Y-17775332D01*
X43695742Y-17775332D02*
X43790980Y-17727713D01*
X43790980Y-17727713D02*
X43838600Y-17680094D01*
X43838600Y-17680094D02*
X43886219Y-17584856D01*
X43886219Y-17584856D02*
X43886219Y-17394380D01*
X43886219Y-17394380D02*
X43838600Y-17299142D01*
X43838600Y-17299142D02*
X43790980Y-17251523D01*
X43790980Y-17251523D02*
X43695742Y-17203904D01*
X43695742Y-17203904D02*
X43457647Y-17203904D01*
X43457647Y-17203904D02*
X43362409Y-17251523D01*
X43362409Y-17251523D02*
X43314790Y-17299142D01*
X43314790Y-17299142D02*
X43267171Y-17394380D01*
X43267171Y-17394380D02*
X43267171Y-17584856D01*
X43267171Y-17584856D02*
X43314790Y-17680094D01*
X43314790Y-17680094D02*
X43362409Y-17727713D01*
X43362409Y-17727713D02*
X43457647Y-17775332D01*
X97226219Y-47585238D02*
X97226219Y-48156666D01*
X97226219Y-47870952D02*
X96226219Y-47870952D01*
X96226219Y-47870952D02*
X96369076Y-47966190D01*
X96369076Y-47966190D02*
X96464314Y-48061428D01*
X96464314Y-48061428D02*
X96511933Y-48156666D01*
X96226219Y-46966190D02*
X96226219Y-46870952D01*
X96226219Y-46870952D02*
X96273838Y-46775714D01*
X96273838Y-46775714D02*
X96321457Y-46728095D01*
X96321457Y-46728095D02*
X96416695Y-46680476D01*
X96416695Y-46680476D02*
X96607171Y-46632857D01*
X96607171Y-46632857D02*
X96845266Y-46632857D01*
X96845266Y-46632857D02*
X97035742Y-46680476D01*
X97035742Y-46680476D02*
X97130980Y-46728095D01*
X97130980Y-46728095D02*
X97178600Y-46775714D01*
X97178600Y-46775714D02*
X97226219Y-46870952D01*
X97226219Y-46870952D02*
X97226219Y-46966190D01*
X97226219Y-46966190D02*
X97178600Y-47061428D01*
X97178600Y-47061428D02*
X97130980Y-47109047D01*
X97130980Y-47109047D02*
X97035742Y-47156666D01*
X97035742Y-47156666D02*
X96845266Y-47204285D01*
X96845266Y-47204285D02*
X96607171Y-47204285D01*
X96607171Y-47204285D02*
X96416695Y-47156666D01*
X96416695Y-47156666D02*
X96321457Y-47109047D01*
X96321457Y-47109047D02*
X96273838Y-47061428D01*
X96273838Y-47061428D02*
X96226219Y-46966190D01*
X97226219Y-46204285D02*
X96226219Y-46204285D01*
X96845266Y-46109047D02*
X97226219Y-45823333D01*
X96559552Y-45823333D02*
X96940504Y-46204285D01*
D12*
%TO.C,Q4*%
X85378000Y-14436000D02*
X95978000Y-14436000D01*
X85378000Y-14446000D02*
X85378000Y-14436000D01*
X85378000Y-19236000D02*
X85378000Y-14446000D01*
X95978000Y-14436000D02*
X95978000Y-19236000D01*
X95978000Y-15036000D02*
X85378000Y-15036000D01*
X95978000Y-19236000D02*
X85378000Y-19236000D01*
D13*
X87918000Y-19856000D02*
G75*
G02*
X87908474Y-19855738I-9992J-190000D01*
G01*
D14*
%TO.C,R4*%
X24916000Y-32004000D02*
X25606000Y-32004000D01*
X25606000Y-30284000D02*
X25606000Y-33724000D01*
X25606000Y-33724000D02*
X34846000Y-33724000D01*
X34846000Y-30284000D02*
X25606000Y-30284000D01*
X34846000Y-33724000D02*
X34846000Y-30284000D01*
X35536000Y-32004000D02*
X34846000Y-32004000D01*
%TO.C,Q7*%
X59000000Y-47774000D02*
X59000000Y-44174000D01*
X54550000Y-45974000D02*
G75*
G02*
X58988478Y-44135522I2600000J0D01*
G01*
X58988478Y-47812478D02*
G75*
G02*
X54549999Y-45974000I-1838478J1838478D01*
G01*
%TO.C,test_gate2*%
X108414000Y-43263000D02*
X109474000Y-43263000D01*
X108414000Y-44323000D02*
X108414000Y-43263000D01*
X108414000Y-45323000D02*
X108414000Y-45383000D01*
X108414000Y-45323000D02*
X110534000Y-45323000D01*
X108414000Y-45383000D02*
X110534000Y-45383000D01*
X110534000Y-45323000D02*
X110534000Y-45383000D01*
%TO.C,test_pwm1*%
X108414000Y-46438000D02*
X109474000Y-46438000D01*
X108414000Y-47498000D02*
X108414000Y-46438000D01*
X108414000Y-48498000D02*
X108414000Y-48558000D01*
X108414000Y-48498000D02*
X110534000Y-48498000D01*
X108414000Y-48558000D02*
X110534000Y-48558000D01*
X110534000Y-48498000D02*
X110534000Y-48558000D01*
D12*
%TO.C,Q2*%
X60994000Y-14436000D02*
X71594000Y-14436000D01*
X60994000Y-14446000D02*
X60994000Y-14436000D01*
X60994000Y-19236000D02*
X60994000Y-14446000D01*
X71594000Y-14436000D02*
X71594000Y-19236000D01*
X71594000Y-15036000D02*
X60994000Y-15036000D01*
X71594000Y-19236000D02*
X60994000Y-19236000D01*
D10*
%TO.C,U3*%
X40784000Y-27064000D02*
X42804000Y-27064000D01*
X40784000Y-36964000D02*
X40784000Y-27064000D01*
X42804000Y-27064000D02*
X42794000Y-27064000D01*
X44074000Y-27064000D02*
X44074000Y-27064000D01*
X44074000Y-27064000D02*
X46084000Y-27064000D01*
X46084000Y-27064000D02*
X46084000Y-36964000D01*
X46084000Y-36964000D02*
X40784000Y-36964000D01*
D12*
X39624001Y-26764000D02*
X39624001Y-26764000D01*
X39624001Y-26764000D01*
X39624001Y-26764000D01*
X39624001Y-26764000D01*
X39624001Y-26764000D01*
X39624001Y-26764001D01*
X39624001Y-26764001D01*
X39624001Y-26764001D01*
X39624001Y-26764001D01*
X39624001Y-26764001D01*
X39624001Y-26764001D01*
X39624001Y-26764001D01*
X39624000Y-26764001D01*
X39624000Y-26764001D01*
X39624000Y-26764001D01*
X39624000Y-26764001D01*
X39624000Y-26764001D01*
X39624000Y-26764001D01*
X39624000Y-26764001D01*
X39624000Y-26764001D01*
X39624000Y-26764001D01*
X39624000Y-26764001D01*
X39624000Y-26764001D01*
X39624000Y-26764001D01*
X39623999Y-26764001D01*
X39623999Y-26764001D01*
X39623999Y-26764001D01*
X39623999Y-26764001D01*
X39623999Y-26764001D01*
X39623999Y-26764001D01*
X39623999Y-26764000D01*
X39623999Y-26764000D01*
X39623999Y-26764000D01*
X39623999Y-26764000D01*
X39623999Y-26764000D01*
X39623999Y-26764000D01*
X39623999Y-26764000D02*
X39623999Y-26764000D01*
X39623999Y-26764000D01*
X39623999Y-26764000D01*
X39623999Y-26764000D01*
X39623999Y-26764000D01*
X39623999Y-26764000D01*
X39623999Y-26763999D01*
X39623999Y-26763999D01*
X39623999Y-26763999D01*
X39623999Y-26763999D01*
X39623999Y-26763999D01*
X39624000Y-26763999D01*
X39624000Y-26763999D01*
X39624000Y-26763999D01*
X39624000Y-26763999D01*
X39624000Y-26763999D01*
X39624000Y-26763999D01*
X39624000Y-26763999D01*
X39624000Y-26763999D01*
X39624000Y-26763999D01*
X39624000Y-26763999D01*
X39624000Y-26763999D01*
X39624000Y-26763999D01*
X39624001Y-26763999D01*
X39624001Y-26763999D01*
X39624001Y-26763999D01*
X39624001Y-26763999D01*
X39624001Y-26763999D01*
X39624001Y-26763999D01*
X39624001Y-26764000D01*
X39624001Y-26764000D01*
X39624001Y-26764000D01*
X39624001Y-26764000D01*
X39624001Y-26764000D01*
X39624001Y-26764000D01*
X39624001Y-26764000D01*
D15*
X41784001Y-27554000D02*
X41784001Y-27554000D01*
X41784001Y-27554000D01*
X41784001Y-27554000D01*
X41784001Y-27554000D01*
X41784001Y-27554000D01*
X41784001Y-27554001D01*
X41784001Y-27554001D01*
X41784001Y-27554001D01*
X41784001Y-27554001D01*
X41784001Y-27554001D01*
X41784001Y-27554001D01*
X41784001Y-27554001D01*
X41784000Y-27554001D01*
X41784000Y-27554001D01*
X41784000Y-27554001D01*
X41784000Y-27554001D01*
X41784000Y-27554001D01*
X41784000Y-27554001D01*
X41784000Y-27554001D01*
X41784000Y-27554001D01*
X41784000Y-27554001D01*
X41784000Y-27554001D01*
X41784000Y-27554001D01*
X41784000Y-27554001D01*
X41783999Y-27554001D01*
X41783999Y-27554001D01*
X41783999Y-27554001D01*
X41783999Y-27554001D01*
X41783999Y-27554001D01*
X41783999Y-27554001D01*
X41783999Y-27554000D01*
X41783999Y-27554000D01*
X41783999Y-27554000D01*
X41783999Y-27554000D01*
X41783999Y-27554000D01*
X41783999Y-27554000D01*
X41783999Y-27554000D02*
X41783999Y-27554000D01*
X41783999Y-27554000D01*
X41783999Y-27554000D01*
X41783999Y-27554000D01*
X41783999Y-27554000D01*
X41783999Y-27554000D01*
X41783999Y-27553999D01*
X41783999Y-27553999D01*
X41783999Y-27553999D01*
X41783999Y-27553999D01*
X41783999Y-27553999D01*
X41784000Y-27553999D01*
X41784000Y-27553999D01*
X41784000Y-27553999D01*
X41784000Y-27553999D01*
X41784000Y-27553999D01*
X41784000Y-27553999D01*
X41784000Y-27553999D01*
X41784000Y-27553999D01*
X41784000Y-27553999D01*
X41784000Y-27553999D01*
X41784000Y-27553999D01*
X41784000Y-27553999D01*
X41784001Y-27553999D01*
X41784001Y-27553999D01*
X41784001Y-27553999D01*
X41784001Y-27553999D01*
X41784001Y-27553999D01*
X41784001Y-27553999D01*
X41784001Y-27554000D01*
X41784001Y-27554000D01*
X41784001Y-27554000D01*
X41784001Y-27554000D01*
X41784001Y-27554000D01*
X41784001Y-27554000D01*
X41784001Y-27554000D01*
D10*
X44064000Y-27064000D02*
G75*
G02*
X42784112Y-27064893I-640000J80001D01*
G01*
D14*
%TO.C,C2*%
X118428000Y-43180000D02*
G75*
G02*
X113188000Y-43180000I-2620000J0D01*
G01*
X113188000Y-43180000D02*
G75*
G02*
X118428000Y-43180000I2620000J0D01*
G01*
%TO.C,R6*%
X31808000Y-42878000D02*
X31808000Y-52118000D01*
X31808000Y-52118000D02*
X35248000Y-52118000D01*
X33528000Y-42188000D02*
X33528000Y-42878000D01*
X33528000Y-52808000D02*
X33528000Y-52118000D01*
X35248000Y-42878000D02*
X31808000Y-42878000D01*
X35248000Y-52118000D02*
X35248000Y-42878000D01*
%TO.C,Q10*%
X52248000Y-53870000D02*
X52248000Y-50270000D01*
X47798000Y-52070000D02*
G75*
G02*
X52236478Y-50231522I2600000J0D01*
G01*
X52236478Y-53908478D02*
G75*
G02*
X47797999Y-52070000I-1838478J1838478D01*
G01*
D12*
%TO.C,Q12*%
X73186000Y-33342000D02*
X83786000Y-33342000D01*
X73186000Y-37542000D02*
X83786000Y-37542000D01*
X73186000Y-38142000D02*
X73186000Y-33342000D01*
X83786000Y-33342000D02*
X83786000Y-38132000D01*
X83786000Y-38132000D02*
X83786000Y-38142000D01*
X83786000Y-38142000D02*
X73186000Y-38142000D01*
D13*
X81246000Y-32722000D02*
G75*
G02*
X81255526Y-32722262I9992J190000D01*
G01*
D14*
%TO.C,BT1*%
X14397000Y-41128000D02*
X14397000Y-48748000D01*
X14397000Y-48748000D02*
X20367000Y-48748000D01*
X15157000Y-41888000D02*
X15157000Y-44938000D01*
X15157000Y-47988000D02*
X15157000Y-44938000D01*
X18107000Y-41138000D02*
X18107000Y-41888000D01*
X18107000Y-41888000D02*
X15157000Y-41888000D01*
X18107000Y-47988000D02*
X15157000Y-47988000D01*
X18107000Y-48738000D02*
X18107000Y-47988000D01*
X19607000Y-41138000D02*
X19607000Y-42938000D01*
X19607000Y-42938000D02*
X20357000Y-42938000D01*
X19607000Y-44438000D02*
X19607000Y-45438000D01*
X19607000Y-45438000D02*
X20357000Y-45438000D01*
X19607000Y-46938000D02*
X19607000Y-48738000D01*
X19607000Y-48738000D02*
X20357000Y-48738000D01*
X20357000Y-41138000D02*
X19607000Y-41138000D01*
X20357000Y-42938000D02*
X20357000Y-41138000D01*
X20357000Y-44438000D02*
X19607000Y-44438000D01*
X20357000Y-45438000D02*
X20357000Y-44438000D01*
X20357000Y-46938000D02*
X19607000Y-46938000D01*
X20357000Y-48738000D02*
X20357000Y-46938000D01*
X20367000Y-41128000D02*
X14397000Y-41128000D01*
X20367000Y-48748000D02*
X20367000Y-41128000D01*
X20657000Y-40838000D02*
X19407000Y-40838000D01*
X20657000Y-42088000D02*
X20657000Y-40838000D01*
%TO.C,C6*%
X19658000Y-50758000D02*
X19903000Y-50758000D01*
X19658000Y-54398000D02*
X19658000Y-50758000D01*
X19658000Y-54398000D02*
X19903000Y-54398000D01*
X21753000Y-50758000D02*
X21998000Y-50758000D01*
X21753000Y-54398000D02*
X21998000Y-54398000D01*
X21998000Y-54398000D02*
X21998000Y-50758000D01*
%TO.C,M2*%
X110716000Y-37648000D02*
X110716000Y-38898000D01*
X110716000Y-38898000D02*
X111966000Y-38898000D01*
X111006000Y-30988000D02*
X111006000Y-38608000D01*
X111006000Y-38608000D02*
X116976000Y-38608000D01*
X111016000Y-30998000D02*
X111016000Y-32798000D01*
X111016000Y-32798000D02*
X111766000Y-32798000D01*
X111016000Y-34298000D02*
X111016000Y-35298000D01*
X111016000Y-35298000D02*
X111766000Y-35298000D01*
X111016000Y-36798000D02*
X111016000Y-38598000D01*
X111016000Y-38598000D02*
X111766000Y-38598000D01*
X111766000Y-30998000D02*
X111016000Y-30998000D01*
X111766000Y-32798000D02*
X111766000Y-30998000D01*
X111766000Y-34298000D02*
X111016000Y-34298000D01*
X111766000Y-35298000D02*
X111766000Y-34298000D01*
X111766000Y-36798000D02*
X111016000Y-36798000D01*
X111766000Y-38598000D02*
X111766000Y-36798000D01*
X113266000Y-30998000D02*
X113266000Y-31748000D01*
X113266000Y-31748000D02*
X116216000Y-31748000D01*
X113266000Y-37848000D02*
X116216000Y-37848000D01*
X113266000Y-38598000D02*
X113266000Y-37848000D01*
X116216000Y-31748000D02*
X116216000Y-34798000D01*
X116216000Y-37848000D02*
X116216000Y-34798000D01*
X116976000Y-30988000D02*
X111006000Y-30988000D01*
X116976000Y-38608000D02*
X116976000Y-30988000D01*
%TO.C,R20*%
X78798000Y-42370000D02*
X78798000Y-51610000D01*
X78798000Y-51610000D02*
X82238000Y-51610000D01*
X80518000Y-41680000D02*
X80518000Y-42370000D01*
X80518000Y-52300000D02*
X80518000Y-51610000D01*
X82238000Y-42370000D02*
X78798000Y-42370000D01*
X82238000Y-51610000D02*
X82238000Y-42370000D01*
D12*
%TO.C,Q13*%
X85378000Y-33342000D02*
X95978000Y-33342000D01*
X85378000Y-37542000D02*
X95978000Y-37542000D01*
X85378000Y-38142000D02*
X85378000Y-33342000D01*
X95978000Y-33342000D02*
X95978000Y-38132000D01*
X95978000Y-38132000D02*
X95978000Y-38142000D01*
X95978000Y-38142000D02*
X85378000Y-38142000D01*
D13*
X93438000Y-32722000D02*
G75*
G02*
X93447526Y-32722262I9992J190000D01*
G01*
D14*
%TO.C,R10*%
X82862000Y-42370000D02*
X82862000Y-51610000D01*
X82862000Y-51610000D02*
X86302000Y-51610000D01*
X84582000Y-41680000D02*
X84582000Y-42370000D01*
X84582000Y-52300000D02*
X84582000Y-51610000D01*
X86302000Y-42370000D02*
X82862000Y-42370000D01*
X86302000Y-51610000D02*
X86302000Y-42370000D01*
%TO.C,R17*%
X62542000Y-42370000D02*
X62542000Y-51610000D01*
X62542000Y-51610000D02*
X65982000Y-51610000D01*
X64262000Y-41680000D02*
X64262000Y-42370000D01*
X64262000Y-52300000D02*
X64262000Y-51610000D01*
X65982000Y-42370000D02*
X62542000Y-42370000D01*
X65982000Y-51610000D02*
X65982000Y-42370000D01*
%TO.C,R11*%
X24916000Y-27940000D02*
X25606000Y-27940000D01*
X25606000Y-26220000D02*
X25606000Y-29660000D01*
X25606000Y-29660000D02*
X34846000Y-29660000D01*
X34846000Y-26220000D02*
X25606000Y-26220000D01*
X34846000Y-29660000D02*
X34846000Y-26220000D01*
X35536000Y-27940000D02*
X34846000Y-27940000D01*
%TO.C,R3*%
X24916000Y-36068000D02*
X25606000Y-36068000D01*
X25606000Y-34348000D02*
X25606000Y-37788000D01*
X25606000Y-37788000D02*
X34846000Y-37788000D01*
X34846000Y-34348000D02*
X25606000Y-34348000D01*
X34846000Y-37788000D02*
X34846000Y-34348000D01*
X35536000Y-36068000D02*
X34846000Y-36068000D01*
%TO.C,R14*%
X99118000Y-42370000D02*
X99118000Y-51610000D01*
X99118000Y-51610000D02*
X102558000Y-51610000D01*
X100838000Y-41680000D02*
X100838000Y-42370000D01*
X100838000Y-52300000D02*
X100838000Y-51610000D01*
X102558000Y-42370000D02*
X99118000Y-42370000D01*
X102558000Y-51610000D02*
X102558000Y-42370000D01*
%TO.C,test_gate1*%
X108428000Y-40088000D02*
X109488000Y-40088000D01*
X108428000Y-41148000D02*
X108428000Y-40088000D01*
X108428000Y-42148000D02*
X108428000Y-42208000D01*
X108428000Y-42148000D02*
X110548000Y-42148000D01*
X108428000Y-42208000D02*
X110548000Y-42208000D01*
X110548000Y-42148000D02*
X110548000Y-42208000D01*
D12*
%TO.C,Q5*%
X97570000Y-14436000D02*
X108170000Y-14436000D01*
X97570000Y-14446000D02*
X97570000Y-14436000D01*
X97570000Y-19236000D02*
X97570000Y-14446000D01*
X108170000Y-14436000D02*
X108170000Y-19236000D01*
X108170000Y-15036000D02*
X97570000Y-15036000D01*
X108170000Y-19236000D02*
X97570000Y-19236000D01*
D13*
X100110000Y-19856000D02*
G75*
G02*
X100100474Y-19855738I-9992J-190000D01*
G01*
D12*
%TO.C,Q3*%
X73186000Y-14436000D02*
X83786000Y-14436000D01*
X73186000Y-14446000D02*
X73186000Y-14436000D01*
X73186000Y-19236000D02*
X73186000Y-14446000D01*
X83786000Y-14436000D02*
X83786000Y-19236000D01*
X83786000Y-15036000D02*
X73186000Y-15036000D01*
X83786000Y-19236000D02*
X73186000Y-19236000D01*
D13*
X75726000Y-19856000D02*
G75*
G02*
X75716474Y-19855738I-9992J-190000D01*
G01*
D14*
%TO.C,C1*%
X45546000Y-40116000D02*
G75*
G02*
X40306000Y-40116000I-2620000J0D01*
G01*
X40306000Y-40116000D02*
G75*
G02*
X45546000Y-40116000I2620000J0D01*
G01*
%TO.C,R8*%
X66606000Y-42370000D02*
X66606000Y-51610000D01*
X66606000Y-51610000D02*
X70046000Y-51610000D01*
X68326000Y-41680000D02*
X68326000Y-42370000D01*
X68326000Y-52300000D02*
X68326000Y-51610000D01*
X70046000Y-42370000D02*
X66606000Y-42370000D01*
X70046000Y-51610000D02*
X70046000Y-42370000D01*
%TO.C,R2*%
X24916000Y-15748000D02*
X25606000Y-15748000D01*
X25606000Y-14028000D02*
X25606000Y-17468000D01*
X25606000Y-17468000D02*
X34846000Y-17468000D01*
X34846000Y-14028000D02*
X25606000Y-14028000D01*
X34846000Y-17468000D02*
X34846000Y-14028000D01*
X35536000Y-15748000D02*
X34846000Y-15748000D01*
%TO.C,R15*%
X27490000Y-42878000D02*
X27490000Y-52118000D01*
X27490000Y-52118000D02*
X30930000Y-52118000D01*
X29210000Y-42188000D02*
X29210000Y-42878000D01*
X29210000Y-52808000D02*
X29210000Y-52118000D01*
X30930000Y-42878000D02*
X27490000Y-42878000D01*
X30930000Y-52118000D02*
X30930000Y-42878000D01*
%TO.C,test_gate3*%
X104350000Y-40088000D02*
X105410000Y-40088000D01*
X104350000Y-41148000D02*
X104350000Y-40088000D01*
X104350000Y-42148000D02*
X104350000Y-42208000D01*
X104350000Y-42148000D02*
X106470000Y-42148000D01*
X104350000Y-42208000D02*
X106470000Y-42208000D01*
X106470000Y-42148000D02*
X106470000Y-42208000D01*
%TO.C,C3*%
X110046000Y-51816000D02*
G75*
G02*
X104806000Y-51816000I-2620000J0D01*
G01*
X104806000Y-51816000D02*
G75*
G02*
X110046000Y-51816000I2620000J0D01*
G01*
D12*
%TO.C,Q11*%
X60994000Y-33342000D02*
X71594000Y-33342000D01*
X60994000Y-37542000D02*
X71594000Y-37542000D01*
X60994000Y-38142000D02*
X60994000Y-33342000D01*
X71594000Y-33342000D02*
X71594000Y-38132000D01*
X71594000Y-38132000D02*
X71594000Y-38142000D01*
X71594000Y-38142000D02*
X60994000Y-38142000D01*
D14*
%TO.C,R12*%
X24916000Y-23876000D02*
X25606000Y-23876000D01*
X25606000Y-22156000D02*
X25606000Y-25596000D01*
X25606000Y-25596000D02*
X34846000Y-25596000D01*
X34846000Y-22156000D02*
X25606000Y-22156000D01*
X34846000Y-25596000D02*
X34846000Y-22156000D01*
X35536000Y-23876000D02*
X34846000Y-23876000D01*
%TO.C,Q9*%
X59000000Y-53870000D02*
X59000000Y-50270000D01*
X54550000Y-52070000D02*
G75*
G02*
X58988478Y-50231522I2600000J0D01*
G01*
X58988478Y-53908478D02*
G75*
G02*
X54549999Y-52070000I-1838478J1838478D01*
G01*
%TO.C,test_gate4*%
X104350000Y-43263000D02*
X105410000Y-43263000D01*
X104350000Y-44323000D02*
X104350000Y-43263000D01*
X104350000Y-45323000D02*
X104350000Y-45383000D01*
X104350000Y-45323000D02*
X106470000Y-45323000D01*
X104350000Y-45383000D02*
X106470000Y-45383000D01*
X106470000Y-45323000D02*
X106470000Y-45383000D01*
%TO.C,R16*%
X70670000Y-42370000D02*
X70670000Y-51610000D01*
X70670000Y-51610000D02*
X74110000Y-51610000D01*
X72390000Y-41680000D02*
X72390000Y-42370000D01*
X72390000Y-52300000D02*
X72390000Y-51610000D01*
X74110000Y-42370000D02*
X70670000Y-42370000D01*
X74110000Y-51610000D02*
X74110000Y-42370000D01*
D12*
%TO.C,Q14*%
X97570000Y-33342000D02*
X108170000Y-33342000D01*
X97570000Y-37542000D02*
X108170000Y-37542000D01*
X97570000Y-38142000D02*
X97570000Y-33342000D01*
X108170000Y-33342000D02*
X108170000Y-38132000D01*
X108170000Y-38132000D02*
X108170000Y-38142000D01*
X108170000Y-38142000D02*
X97570000Y-38142000D01*
D13*
X105630000Y-32722000D02*
G75*
G02*
X105639526Y-32722262I9992J190000D01*
G01*
D14*
%TO.C,J2*%
X14287000Y-29023000D02*
X20257000Y-29023000D01*
X17997000Y-13913000D02*
X17997000Y-14663000D01*
X17997000Y-29013000D02*
X17997000Y-28263000D01*
X19497000Y-13913000D02*
X19497000Y-15713000D01*
X19497000Y-15713000D02*
X20247000Y-15713000D01*
X19497000Y-17213000D02*
X19497000Y-25713000D01*
X19497000Y-25713000D02*
X20247000Y-25713000D01*
X19497000Y-27213000D02*
X19497000Y-29013000D01*
X19497000Y-29013000D02*
X20247000Y-29013000D01*
X20247000Y-13913000D02*
X19497000Y-13913000D01*
X20247000Y-15713000D02*
X20247000Y-13913000D01*
X20247000Y-17213000D02*
X19497000Y-17213000D01*
X20247000Y-25713000D02*
X20247000Y-17213000D01*
X20247000Y-27213000D02*
X19497000Y-27213000D01*
X20247000Y-29013000D02*
X20247000Y-27213000D01*
X20257000Y-13903000D02*
X14287000Y-13903000D01*
X20257000Y-29023000D02*
X20257000Y-13903000D01*
X20547000Y-13613000D02*
X19297000Y-13613000D01*
X20547000Y-14863000D02*
X20547000Y-13613000D01*
D12*
%TO.C,U2*%
X14920000Y-30226000D02*
X19500000Y-30226000D01*
X14920000Y-40386000D02*
X14920000Y-30226000D01*
X16170000Y-40386000D02*
X16170000Y-30226000D01*
X19500000Y-30226000D02*
X19500000Y-40386000D01*
X19500000Y-40386000D02*
X14920000Y-40386000D01*
D16*
X20150000Y-37846000D02*
G75*
G02*
X19850000Y-37846000I-150000J0D01*
G01*
X19850000Y-37846000D02*
G75*
G02*
X20150000Y-37846000I150000J0D01*
G01*
D14*
%TO.C,R18*%
X36126000Y-42878000D02*
X36126000Y-52118000D01*
X36126000Y-52118000D02*
X39566000Y-52118000D01*
X37846000Y-42188000D02*
X37846000Y-42878000D01*
X37846000Y-52808000D02*
X37846000Y-52118000D01*
X39566000Y-42878000D02*
X36126000Y-42878000D01*
X39566000Y-52118000D02*
X39566000Y-42878000D01*
%TO.C,R1*%
X24916000Y-19812000D02*
X25606000Y-19812000D01*
X25606000Y-18092000D02*
X25606000Y-21532000D01*
X25606000Y-21532000D02*
X34846000Y-21532000D01*
X34846000Y-18092000D02*
X25606000Y-18092000D01*
X34846000Y-21532000D02*
X34846000Y-18092000D01*
X35536000Y-19812000D02*
X34846000Y-19812000D01*
%TO.C,M1*%
X110788000Y-20650000D02*
X110788000Y-21900000D01*
X110788000Y-21900000D02*
X112038000Y-21900000D01*
X111078000Y-13990000D02*
X111078000Y-21610000D01*
X111078000Y-21610000D02*
X117048000Y-21610000D01*
X111088000Y-14000000D02*
X111088000Y-15800000D01*
X111088000Y-15800000D02*
X111838000Y-15800000D01*
X111088000Y-17300000D02*
X111088000Y-18300000D01*
X111088000Y-18300000D02*
X111838000Y-18300000D01*
X111088000Y-19800000D02*
X111088000Y-21600000D01*
X111088000Y-21600000D02*
X111838000Y-21600000D01*
X111838000Y-14000000D02*
X111088000Y-14000000D01*
X111838000Y-15800000D02*
X111838000Y-14000000D01*
X111838000Y-17300000D02*
X111088000Y-17300000D01*
X111838000Y-18300000D02*
X111838000Y-17300000D01*
X111838000Y-19800000D02*
X111088000Y-19800000D01*
X111838000Y-21600000D02*
X111838000Y-19800000D01*
X113338000Y-14000000D02*
X113338000Y-14750000D01*
X113338000Y-14750000D02*
X116288000Y-14750000D01*
X113338000Y-20850000D02*
X116288000Y-20850000D01*
X113338000Y-21600000D02*
X113338000Y-20850000D01*
X116288000Y-14750000D02*
X116288000Y-17800000D01*
X116288000Y-20850000D02*
X116288000Y-17800000D01*
X117048000Y-13990000D02*
X111078000Y-13990000D01*
X117048000Y-21610000D02*
X117048000Y-13990000D01*
%TO.C,R19*%
X90990000Y-42370000D02*
X90990000Y-51610000D01*
X90990000Y-51610000D02*
X94430000Y-51610000D01*
X92710000Y-41680000D02*
X92710000Y-42370000D01*
X92710000Y-52300000D02*
X92710000Y-51610000D01*
X94430000Y-42370000D02*
X90990000Y-42370000D01*
X94430000Y-51610000D02*
X94430000Y-42370000D01*
%TO.C,Q6*%
X45136000Y-47774000D02*
X45136000Y-44174000D01*
X40686000Y-45974000D02*
G75*
G02*
X45124478Y-44135522I2600000J0D01*
G01*
X45124478Y-47812478D02*
G75*
G02*
X40685999Y-45974000I-1838478J1838478D01*
G01*
%TO.C,Q8*%
X52248000Y-47774000D02*
X52248000Y-44174000D01*
X47798000Y-45974000D02*
G75*
G02*
X52236478Y-44135522I2600000J0D01*
G01*
X52236478Y-47812478D02*
G75*
G02*
X47797999Y-45974000I-1838478J1838478D01*
G01*
%TO.C,R5*%
X74734000Y-42370000D02*
X74734000Y-51610000D01*
X74734000Y-51610000D02*
X78174000Y-51610000D01*
X76454000Y-41680000D02*
X76454000Y-42370000D01*
X76454000Y-52300000D02*
X76454000Y-51610000D01*
X78174000Y-42370000D02*
X74734000Y-42370000D01*
X78174000Y-51610000D02*
X78174000Y-42370000D01*
%TO.C,R9*%
X86926000Y-42370000D02*
X86926000Y-51610000D01*
X86926000Y-51610000D02*
X90366000Y-51610000D01*
X88646000Y-41680000D02*
X88646000Y-42370000D01*
X88646000Y-52300000D02*
X88646000Y-51610000D01*
X90366000Y-42370000D02*
X86926000Y-42370000D01*
X90366000Y-51610000D02*
X90366000Y-42370000D01*
%TO.C,Q1*%
X45284000Y-53870000D02*
X45284000Y-50270000D01*
X40834000Y-52070000D02*
G75*
G02*
X45272478Y-50231522I2600000J0D01*
G01*
X45272478Y-53908478D02*
G75*
G02*
X40833999Y-52070000I-1838478J1838478D01*
G01*
%TO.C,R7*%
X23172000Y-42878000D02*
X23172000Y-52118000D01*
X23172000Y-52118000D02*
X26612000Y-52118000D01*
X24892000Y-42188000D02*
X24892000Y-42878000D01*
X24892000Y-52808000D02*
X24892000Y-52118000D01*
X26612000Y-42878000D02*
X23172000Y-42878000D01*
X26612000Y-52118000D02*
X26612000Y-42878000D01*
D10*
%TO.C,U1*%
X40784000Y-14002000D02*
X42804000Y-14002000D01*
X40784000Y-23902000D02*
X40784000Y-14002000D01*
X42804000Y-14002000D02*
X42794000Y-14002000D01*
X44074000Y-14002000D02*
X44074000Y-14002000D01*
X44074000Y-14002000D02*
X46084000Y-14002000D01*
X46084000Y-14002000D02*
X46084000Y-23902000D01*
X46084000Y-23902000D02*
X40784000Y-23902000D01*
D12*
X39624001Y-13702000D02*
X39624001Y-13702000D01*
X39624001Y-13702000D01*
X39624001Y-13702000D01*
X39624001Y-13702000D01*
X39624001Y-13702000D01*
X39624001Y-13702001D01*
X39624001Y-13702001D01*
X39624001Y-13702001D01*
X39624001Y-13702001D01*
X39624001Y-13702001D01*
X39624001Y-13702001D01*
X39624001Y-13702001D01*
X39624000Y-13702001D01*
X39624000Y-13702001D01*
X39624000Y-13702001D01*
X39624000Y-13702001D01*
X39624000Y-13702001D01*
X39624000Y-13702001D01*
X39624000Y-13702001D01*
X39624000Y-13702001D01*
X39624000Y-13702001D01*
X39624000Y-13702001D01*
X39624000Y-13702001D01*
X39624000Y-13702001D01*
X39623999Y-13702001D01*
X39623999Y-13702001D01*
X39623999Y-13702001D01*
X39623999Y-13702001D01*
X39623999Y-13702001D01*
X39623999Y-13702001D01*
X39623999Y-13702000D01*
X39623999Y-13702000D01*
X39623999Y-13702000D01*
X39623999Y-13702000D01*
X39623999Y-13702000D01*
X39623999Y-13702000D01*
X39623999Y-13702000D02*
X39623999Y-13702000D01*
X39623999Y-13702000D01*
X39623999Y-13702000D01*
X39623999Y-13702000D01*
X39623999Y-13702000D01*
X39623999Y-13702000D01*
X39623999Y-13701999D01*
X39623999Y-13701999D01*
X39623999Y-13701999D01*
X39623999Y-13701999D01*
X39623999Y-13701999D01*
X39624000Y-13701999D01*
X39624000Y-13701999D01*
X39624000Y-13701999D01*
X39624000Y-13701999D01*
X39624000Y-13701999D01*
X39624000Y-13701999D01*
X39624000Y-13701999D01*
X39624000Y-13701999D01*
X39624000Y-13701999D01*
X39624000Y-13701999D01*
X39624000Y-13701999D01*
X39624000Y-13701999D01*
X39624001Y-13701999D01*
X39624001Y-13701999D01*
X39624001Y-13701999D01*
X39624001Y-13701999D01*
X39624001Y-13701999D01*
X39624001Y-13701999D01*
X39624001Y-13702000D01*
X39624001Y-13702000D01*
X39624001Y-13702000D01*
X39624001Y-13702000D01*
X39624001Y-13702000D01*
X39624001Y-13702000D01*
X39624001Y-13702000D01*
D15*
X41784001Y-14492000D02*
X41784001Y-14492000D01*
X41784001Y-14492000D01*
X41784001Y-14492000D01*
X41784001Y-14492000D01*
X41784001Y-14492000D01*
X41784001Y-14492001D01*
X41784001Y-14492001D01*
X41784001Y-14492001D01*
X41784001Y-14492001D01*
X41784001Y-14492001D01*
X41784001Y-14492001D01*
X41784001Y-14492001D01*
X41784000Y-14492001D01*
X41784000Y-14492001D01*
X41784000Y-14492001D01*
X41784000Y-14492001D01*
X41784000Y-14492001D01*
X41784000Y-14492001D01*
X41784000Y-14492001D01*
X41784000Y-14492001D01*
X41784000Y-14492001D01*
X41784000Y-14492001D01*
X41784000Y-14492001D01*
X41784000Y-14492001D01*
X41783999Y-14492001D01*
X41783999Y-14492001D01*
X41783999Y-14492001D01*
X41783999Y-14492001D01*
X41783999Y-14492001D01*
X41783999Y-14492001D01*
X41783999Y-14492000D01*
X41783999Y-14492000D01*
X41783999Y-14492000D01*
X41783999Y-14492000D01*
X41783999Y-14492000D01*
X41783999Y-14492000D01*
X41783999Y-14492000D02*
X41783999Y-14492000D01*
X41783999Y-14492000D01*
X41783999Y-14492000D01*
X41783999Y-14492000D01*
X41783999Y-14492000D01*
X41783999Y-14492000D01*
X41783999Y-14491999D01*
X41783999Y-14491999D01*
X41783999Y-14491999D01*
X41783999Y-14491999D01*
X41783999Y-14491999D01*
X41784000Y-14491999D01*
X41784000Y-14491999D01*
X41784000Y-14491999D01*
X41784000Y-14491999D01*
X41784000Y-14491999D01*
X41784000Y-14491999D01*
X41784000Y-14491999D01*
X41784000Y-14491999D01*
X41784000Y-14491999D01*
X41784000Y-14491999D01*
X41784000Y-14491999D01*
X41784000Y-14491999D01*
X41784001Y-14491999D01*
X41784001Y-14491999D01*
X41784001Y-14491999D01*
X41784001Y-14491999D01*
X41784001Y-14491999D01*
X41784001Y-14491999D01*
X41784001Y-14492000D01*
X41784001Y-14492000D01*
X41784001Y-14492000D01*
X41784001Y-14492000D01*
X41784001Y-14492000D01*
X41784001Y-14492000D01*
X41784001Y-14492000D01*
D10*
X44064000Y-14002000D02*
G75*
G02*
X42784112Y-14002893I-640000J80001D01*
G01*
%TO.C,IC1*%
X49472000Y-14224000D02*
X57436000Y-14224000D01*
X50578000Y-41148000D02*
X57436000Y-41148000D01*
D14*
%TO.C,test_pwm2*%
X104350000Y-46438000D02*
X105410000Y-46438000D01*
X104350000Y-47498000D02*
X104350000Y-46438000D01*
X104350000Y-48498000D02*
X104350000Y-48558000D01*
X104350000Y-48498000D02*
X106470000Y-48498000D01*
X104350000Y-48558000D02*
X106470000Y-48558000D01*
X106470000Y-48498000D02*
X106470000Y-48558000D01*
%TO.C,R13*%
X95054000Y-42370000D02*
X95054000Y-51610000D01*
X95054000Y-51610000D02*
X98494000Y-51610000D01*
X96774000Y-41680000D02*
X96774000Y-42370000D01*
X96774000Y-52300000D02*
X96774000Y-51610000D01*
X98494000Y-42370000D02*
X95054000Y-42370000D01*
X98494000Y-51610000D02*
X98494000Y-42370000D01*
%TD*%
%LPC*%
D17*
%TO.C,Q4*%
X88138000Y-17526000D03*
D18*
X90678000Y-17526000D03*
X93218000Y-17526000D03*
%TD*%
D19*
%TO.C,R4*%
X36576000Y-32004000D03*
D20*
X23876000Y-32004000D03*
%TD*%
D21*
%TO.C,Q7*%
X57150000Y-47244000D03*
D22*
X57150000Y-45974000D03*
X57150000Y-44704000D03*
%TD*%
D23*
%TO.C,test_gate2*%
X109474000Y-44323000D03*
%TD*%
%TO.C,test_pwm1*%
X109474000Y-47498000D03*
%TD*%
D17*
%TO.C,Q2*%
X63754000Y-17526000D03*
D18*
X66294000Y-17526000D03*
X68834000Y-17526000D03*
%TD*%
D24*
%TO.C,U3*%
X39624000Y-28194000D03*
D25*
X39624000Y-30734000D03*
X39624000Y-33274000D03*
X39624000Y-35814000D03*
X47244000Y-35814000D03*
X47244000Y-33274000D03*
X47244000Y-30734000D03*
X47244000Y-28194000D03*
%TD*%
D26*
%TO.C,C2*%
X114808000Y-43180000D03*
X116808000Y-43180000D03*
%TD*%
D19*
%TO.C,R6*%
X33528000Y-41148000D03*
D20*
X33528000Y-53848000D03*
%TD*%
D21*
%TO.C,Q10*%
X50398000Y-53340000D03*
D22*
X50398000Y-52070000D03*
X50398000Y-50800000D03*
%TD*%
D17*
%TO.C,Q12*%
X81026000Y-35052000D03*
D18*
X78486000Y-35052000D03*
X75946000Y-35052000D03*
%TD*%
D27*
%TO.C,BT1*%
X17907000Y-43688000D03*
D28*
X17907000Y-46188000D03*
%TD*%
D19*
%TO.C,C6*%
X20828000Y-53828000D03*
X20828000Y-51328000D03*
%TD*%
D29*
%TO.C,M2*%
X113466000Y-36048000D03*
D28*
X113466000Y-33548000D03*
%TD*%
D19*
%TO.C,R20*%
X80518000Y-53340000D03*
D20*
X80518000Y-40640000D03*
%TD*%
D17*
%TO.C,Q13*%
X93218000Y-35052000D03*
D18*
X90678000Y-35052000D03*
X88138000Y-35052000D03*
%TD*%
D19*
%TO.C,R10*%
X84582000Y-53340000D03*
D20*
X84582000Y-40640000D03*
%TD*%
D19*
%TO.C,R17*%
X64262000Y-40640000D03*
D20*
X64262000Y-53340000D03*
%TD*%
D19*
%TO.C,R11*%
X23876000Y-27940000D03*
D20*
X36576000Y-27940000D03*
%TD*%
D19*
%TO.C,R3*%
X23876000Y-36068000D03*
D20*
X36576000Y-36068000D03*
%TD*%
D19*
%TO.C,R14*%
X100838000Y-40640000D03*
D20*
X100838000Y-53340000D03*
%TD*%
D23*
%TO.C,test_gate1*%
X109488000Y-41148000D03*
%TD*%
D17*
%TO.C,Q5*%
X100330000Y-17526000D03*
D18*
X102870000Y-17526000D03*
X105410000Y-17526000D03*
%TD*%
D17*
%TO.C,Q3*%
X75946000Y-17526000D03*
D18*
X78486000Y-17526000D03*
X81026000Y-17526000D03*
%TD*%
D26*
%TO.C,C1*%
X42926000Y-39116000D03*
X42926000Y-41116000D03*
%TD*%
D19*
%TO.C,R8*%
X68326000Y-53340000D03*
D20*
X68326000Y-40640000D03*
%TD*%
D19*
%TO.C,R2*%
X23876000Y-15748000D03*
D20*
X36576000Y-15748000D03*
%TD*%
D19*
%TO.C,R15*%
X29210000Y-41148000D03*
D20*
X29210000Y-53848000D03*
%TD*%
D23*
%TO.C,test_gate3*%
X105410000Y-41148000D03*
%TD*%
D26*
%TO.C,C3*%
X106426000Y-51816000D03*
X108426000Y-51816000D03*
%TD*%
D17*
%TO.C,Q11*%
X68834000Y-35052000D03*
D18*
X66294000Y-35052000D03*
X63754000Y-35052000D03*
%TD*%
D19*
%TO.C,R12*%
X23876000Y-23876000D03*
D20*
X36576000Y-23876000D03*
%TD*%
D21*
%TO.C,Q9*%
X57150000Y-53340000D03*
D22*
X57150000Y-52070000D03*
X57150000Y-50800000D03*
%TD*%
D23*
%TO.C,test_gate4*%
X105410000Y-44323000D03*
%TD*%
D19*
%TO.C,R16*%
X72390000Y-53340000D03*
D20*
X72390000Y-40640000D03*
%TD*%
D17*
%TO.C,Q14*%
X105410000Y-35052000D03*
D18*
X102870000Y-35052000D03*
X100330000Y-35052000D03*
%TD*%
D30*
%TO.C,J2*%
X17797000Y-16463000D03*
D31*
X17797000Y-18963000D03*
X17797000Y-21463000D03*
X17797000Y-23963000D03*
X17797000Y-26463000D03*
%TD*%
D32*
%TO.C,U2*%
X17780000Y-37846000D03*
D33*
X17780000Y-35306000D03*
X17780000Y-32766000D03*
%TD*%
D19*
%TO.C,R18*%
X37846000Y-41148000D03*
D20*
X37846000Y-53848000D03*
%TD*%
D19*
%TO.C,R1*%
X23876000Y-19812000D03*
D20*
X36576000Y-19812000D03*
%TD*%
D29*
%TO.C,M1*%
X113538000Y-19050000D03*
D28*
X113538000Y-16550000D03*
%TD*%
D19*
%TO.C,R19*%
X92710000Y-53340000D03*
D20*
X92710000Y-40640000D03*
%TD*%
D21*
%TO.C,Q6*%
X43286000Y-47244000D03*
D22*
X43286000Y-45974000D03*
X43286000Y-44704000D03*
%TD*%
D21*
%TO.C,Q8*%
X50398000Y-47244000D03*
D22*
X50398000Y-45974000D03*
X50398000Y-44704000D03*
%TD*%
D19*
%TO.C,R5*%
X76454000Y-53340000D03*
D20*
X76454000Y-40640000D03*
%TD*%
D19*
%TO.C,R9*%
X88646000Y-53340000D03*
D20*
X88646000Y-40640000D03*
%TD*%
D21*
%TO.C,Q1*%
X43434000Y-53340000D03*
D22*
X43434000Y-52070000D03*
X43434000Y-50800000D03*
%TD*%
D19*
%TO.C,R7*%
X24892000Y-41148000D03*
D20*
X24892000Y-53848000D03*
%TD*%
D24*
%TO.C,U1*%
X39624000Y-15132000D03*
D25*
X39624000Y-17672000D03*
X39624000Y-20212000D03*
X39624000Y-22752000D03*
X47244000Y-22752000D03*
X47244000Y-20212000D03*
X47244000Y-17672000D03*
X47244000Y-15132000D03*
%TD*%
D34*
%TO.C,IC1*%
X50038000Y-16256000D03*
D35*
X50038000Y-18796000D03*
X50038000Y-21336000D03*
X50038000Y-23876000D03*
X50038000Y-26416000D03*
X50038000Y-28956000D03*
X50038000Y-31496000D03*
X50038000Y-34036000D03*
X50038000Y-36576000D03*
X50038000Y-39116000D03*
X57976000Y-39116000D03*
X57976000Y-36576000D03*
X57976000Y-34036000D03*
X57976000Y-31496000D03*
X57976000Y-28956000D03*
X57976000Y-26416000D03*
X57976000Y-23876000D03*
X57976000Y-21336000D03*
X57976000Y-18796000D03*
X57976000Y-16256000D03*
%TD*%
D23*
%TO.C,test_pwm2*%
X105410000Y-47498000D03*
%TD*%
D19*
%TO.C,R13*%
X96774000Y-53340000D03*
D20*
X96774000Y-40640000D03*
%TD*%
%LPD*%
M02*
