%TF.GenerationSoftware,KiCad,Pcbnew,9.0.2*%
%TF.CreationDate,2025-07-11T17:02:37-07:00*%
%TF.ProjectId,hbridge_rev,68627269-6467-4655-9f72-65762e6b6963,rev?*%
%TF.SameCoordinates,Original*%
%TF.FileFunction,Drillmap*%
%TF.FilePolarity,Positive*%
%FSLAX45Y45*%
G04 Gerber Fmt 4.5, Leading zero omitted, Abs format (unit mm)*
G04 Created by KiCad (PCBNEW 9.0.2) date 2025-07-11 17:02:37*
%MOMM*%
%LPD*%
G01*
G04 APERTURE LIST*
%ADD10C,0.050000*%
%ADD11C,0.200000*%
%ADD12C,0.100000*%
%ADD13C,0.119999*%
G04 APERTURE END LIST*
D10*
X1320800Y-1370000D02*
G75*
G02*
X1420800Y-1270000I100000J0D01*
G01*
X1420800Y-1270000D02*
X11838000Y-1270000D01*
X11938000Y-5488000D02*
G75*
G02*
X11838000Y-5588000I-100000J0D01*
G01*
X11744300Y-5186000D02*
G75*
G02*
X11344300Y-5186000I-200000J0D01*
G01*
X11344300Y-5186000D02*
G75*
G02*
X11744300Y-5186000I200000J0D01*
G01*
X11838000Y-5588000D02*
X1420800Y-5588000D01*
X1420800Y-5588000D02*
G75*
G02*
X1320800Y-5488000I0J100000D01*
G01*
X11938000Y-1370000D02*
X11938000Y-5488000D01*
X1844300Y-5186000D02*
G75*
G02*
X1444300Y-5186000I-200000J0D01*
G01*
X1444300Y-5186000D02*
G75*
G02*
X1844300Y-5186000I200000J0D01*
G01*
X11838000Y-1270000D02*
G75*
G02*
X11938000Y-1370000I0J-100000D01*
G01*
X1320800Y-5488000D02*
X1320800Y-1370000D01*
X11744300Y-2486000D02*
G75*
G02*
X11344300Y-2486000I-200000J0D01*
G01*
X11344300Y-2486000D02*
G75*
G02*
X11744300Y-2486000I200000J0D01*
G01*
D11*
D12*
X4722100Y-4087100D02*
X4752100Y-4117100D01*
X4752100Y-4087100D02*
X4722100Y-4117100D01*
X5001500Y-4087100D02*
X5031500Y-4117100D01*
X5031500Y-4087100D02*
X5001500Y-4117100D01*
X5268200Y-3566400D02*
X5298200Y-3596400D01*
X5298200Y-3566400D02*
X5268200Y-3596400D01*
X5268200Y-4023600D02*
X5298200Y-4053600D01*
X5298200Y-4023600D02*
X5268200Y-4053600D01*
X5344400Y-4760200D02*
X5374400Y-4790200D01*
X5374400Y-4760200D02*
X5344400Y-4790200D01*
X6123426Y-2534200D02*
X6153426Y-2564200D01*
X6153426Y-2534200D02*
X6123426Y-2564200D01*
X6436600Y-2058600D02*
X6466600Y-2088600D01*
X6466600Y-2058600D02*
X6436600Y-2088600D01*
X6589000Y-2906000D02*
X6619000Y-2936000D01*
X6619000Y-2906000D02*
X6589000Y-2936000D01*
X6652500Y-4709400D02*
X6682500Y-4739400D01*
X6682500Y-4709400D02*
X6652500Y-4739400D01*
X6965400Y-2585000D02*
X6995400Y-2615000D01*
X6995400Y-2585000D02*
X6965400Y-2615000D01*
X6995400Y-4582400D02*
X7025400Y-4612400D01*
X7025400Y-4582400D02*
X6995400Y-4612400D01*
X7058900Y-4950700D02*
X7088900Y-4980700D01*
X7088900Y-4950700D02*
X7058900Y-4980700D01*
X7579600Y-2178600D02*
X7609600Y-2208600D01*
X7609600Y-2178600D02*
X7579600Y-2208600D01*
X7579600Y-2396400D02*
X7609600Y-2426400D01*
X7609600Y-2396400D02*
X7579600Y-2426400D01*
X8443200Y-2829800D02*
X8473200Y-2859800D01*
X8473200Y-2829800D02*
X8443200Y-2859800D01*
X8443200Y-3617200D02*
X8473200Y-3647200D01*
X8473200Y-3617200D02*
X8443200Y-3647200D01*
X8523200Y-2829800D02*
X8553200Y-2859800D01*
X8553200Y-2829800D02*
X8523200Y-2859800D01*
X8523200Y-3617200D02*
X8553200Y-3647200D01*
X8553200Y-3617200D02*
X8523200Y-3647200D01*
X9281400Y-4684000D02*
X9311400Y-4714000D01*
X9311400Y-4684000D02*
X9281400Y-4714000D01*
X9535400Y-2396400D02*
X9565400Y-2426400D01*
X9565400Y-2396400D02*
X9535400Y-2426400D01*
X10805400Y-2690100D02*
X10835400Y-2720100D01*
X10835400Y-2690100D02*
X10805400Y-2720100D01*
X11161000Y-2334500D02*
X11191000Y-2364500D01*
X11191000Y-2334500D02*
X11161000Y-2364500D01*
X4322600Y-3911600D02*
G75*
G02*
X4262600Y-3911600I-30000J0D01*
G01*
X4262600Y-3911600D02*
G75*
G02*
X4322600Y-3911600I30000J0D01*
G01*
X4322600Y-4111600D02*
G75*
G02*
X4262600Y-4111600I-30000J0D01*
G01*
X4262600Y-4111600D02*
G75*
G02*
X4322600Y-4111600I30000J0D01*
G01*
X10672600Y-5181600D02*
G75*
G02*
X10612600Y-5181600I-30000J0D01*
G01*
X10612600Y-5181600D02*
G75*
G02*
X10672600Y-5181600I30000J0D01*
G01*
X10872600Y-5181600D02*
G75*
G02*
X10812600Y-5181600I-30000J0D01*
G01*
X10812600Y-5181600D02*
G75*
G02*
X10872600Y-5181600I30000J0D01*
G01*
X11510800Y-4318000D02*
G75*
G02*
X11450800Y-4318000I-30000J0D01*
G01*
X11450800Y-4318000D02*
G75*
G02*
X11510800Y-4318000I30000J0D01*
G01*
X11710800Y-4318000D02*
G75*
G02*
X11650800Y-4318000I-30000J0D01*
G01*
X11650800Y-4318000D02*
G75*
G02*
X11710800Y-4318000I30000J0D01*
G01*
X5003800Y-1588950D02*
X5003800Y-1662250D01*
X4967150Y-1625600D02*
X5040450Y-1625600D01*
X5003800Y-1842950D02*
X5003800Y-1916250D01*
X4967150Y-1879600D02*
X5040450Y-1879600D01*
X5003800Y-2096950D02*
X5003800Y-2170250D01*
X4967150Y-2133600D02*
X5040450Y-2133600D01*
X5003800Y-2350950D02*
X5003800Y-2424250D01*
X4967150Y-2387600D02*
X5040450Y-2387600D01*
X5003800Y-2604950D02*
X5003800Y-2678250D01*
X4967150Y-2641600D02*
X5040450Y-2641600D01*
X5003800Y-2858950D02*
X5003800Y-2932250D01*
X4967150Y-2895600D02*
X5040450Y-2895600D01*
X5003800Y-3112950D02*
X5003800Y-3186250D01*
X4967150Y-3149600D02*
X5040450Y-3149600D01*
X5003800Y-3366950D02*
X5003800Y-3440250D01*
X4967150Y-3403600D02*
X5040450Y-3403600D01*
X5003800Y-3620950D02*
X5003800Y-3694250D01*
X4967150Y-3657600D02*
X5040450Y-3657600D01*
X5003800Y-3874950D02*
X5003800Y-3948250D01*
X4967150Y-3911600D02*
X5040450Y-3911600D01*
X5797600Y-1588950D02*
X5797600Y-1662250D01*
X5760950Y-1625600D02*
X5834250Y-1625600D01*
X5797600Y-1842950D02*
X5797600Y-1916250D01*
X5760950Y-1879600D02*
X5834250Y-1879600D01*
X5797600Y-2096950D02*
X5797600Y-2170250D01*
X5760950Y-2133600D02*
X5834250Y-2133600D01*
X5797600Y-2350950D02*
X5797600Y-2424250D01*
X5760950Y-2387600D02*
X5834250Y-2387600D01*
X5797600Y-2604950D02*
X5797600Y-2678250D01*
X5760950Y-2641600D02*
X5834250Y-2641600D01*
X5797600Y-2858950D02*
X5797600Y-2932250D01*
X5760950Y-2895600D02*
X5834250Y-2895600D01*
X5797600Y-3112950D02*
X5797600Y-3186250D01*
X5760950Y-3149600D02*
X5834250Y-3149600D01*
X5797600Y-3366950D02*
X5797600Y-3440250D01*
X5760950Y-3403600D02*
X5834250Y-3403600D01*
X5797600Y-3620950D02*
X5797600Y-3694250D01*
X5760950Y-3657600D02*
X5834250Y-3657600D01*
X5797600Y-3874950D02*
X5797600Y-3948250D01*
X5760950Y-3911600D02*
X5834250Y-3911600D01*
X4355117Y-4496917D02*
X4355117Y-4443883D01*
X4302083Y-4443883D01*
X4302083Y-4496917D01*
X4355117Y-4496917D01*
X4355117Y-4623917D02*
X4355117Y-4570883D01*
X4302083Y-4570883D01*
X4302083Y-4623917D01*
X4355117Y-4623917D01*
X4355117Y-4750917D02*
X4355117Y-4697883D01*
X4302083Y-4697883D01*
X4302083Y-4750917D01*
X4355117Y-4750917D01*
X4369917Y-5106517D02*
X4369917Y-5053483D01*
X4316883Y-5053483D01*
X4316883Y-5106517D01*
X4369917Y-5106517D01*
X4369917Y-5233517D02*
X4369917Y-5180483D01*
X4316883Y-5180483D01*
X4316883Y-5233517D01*
X4369917Y-5233517D01*
X4369917Y-5360517D02*
X4369917Y-5307483D01*
X4316883Y-5307483D01*
X4316883Y-5360517D01*
X4369917Y-5360517D01*
X5066317Y-4496917D02*
X5066317Y-4443883D01*
X5013283Y-4443883D01*
X5013283Y-4496917D01*
X5066317Y-4496917D01*
X5066317Y-4623917D02*
X5066317Y-4570883D01*
X5013283Y-4570883D01*
X5013283Y-4623917D01*
X5066317Y-4623917D01*
X5066317Y-4750917D02*
X5066317Y-4697883D01*
X5013283Y-4697883D01*
X5013283Y-4750917D01*
X5066317Y-4750917D01*
X5066317Y-5106517D02*
X5066317Y-5053483D01*
X5013283Y-5053483D01*
X5013283Y-5106517D01*
X5066317Y-5106517D01*
X5066317Y-5233517D02*
X5066317Y-5180483D01*
X5013283Y-5180483D01*
X5013283Y-5233517D01*
X5066317Y-5233517D01*
X5066317Y-5360517D02*
X5066317Y-5307483D01*
X5013283Y-5307483D01*
X5013283Y-5360517D01*
X5066317Y-5360517D01*
X5741517Y-4496917D02*
X5741517Y-4443883D01*
X5688483Y-4443883D01*
X5688483Y-4496917D01*
X5741517Y-4496917D01*
X5741517Y-4623917D02*
X5741517Y-4570883D01*
X5688483Y-4570883D01*
X5688483Y-4623917D01*
X5741517Y-4623917D01*
X5741517Y-4750917D02*
X5741517Y-4697883D01*
X5688483Y-4697883D01*
X5688483Y-4750917D01*
X5741517Y-4750917D01*
X5741517Y-5106517D02*
X5741517Y-5053483D01*
X5688483Y-5053483D01*
X5688483Y-5106517D01*
X5741517Y-5106517D01*
X5741517Y-5233517D02*
X5741517Y-5180483D01*
X5688483Y-5180483D01*
X5688483Y-5233517D01*
X5741517Y-5233517D01*
X5741517Y-5360517D02*
X5741517Y-5307483D01*
X5688483Y-5307483D01*
X5688483Y-5360517D01*
X5741517Y-5360517D01*
X1778000Y-3316600D02*
X1818000Y-3276600D01*
X1778000Y-3236600D01*
X1738000Y-3276600D01*
X1778000Y-3316600D01*
X1818000Y-3306600D02*
X1818000Y-3246600D01*
X1738000Y-3246600D02*
G75*
G02*
X1818000Y-3246600I40000J0D01*
G01*
X1738000Y-3246600D02*
X1738000Y-3306600D01*
X1738000Y-3306600D02*
G75*
G03*
X1818000Y-3306600I40000J0D01*
G01*
X1778000Y-3570600D02*
X1818000Y-3530600D01*
X1778000Y-3490600D01*
X1738000Y-3530600D01*
X1778000Y-3570600D01*
X1818000Y-3560600D02*
X1818000Y-3500600D01*
X1738000Y-3500600D02*
G75*
G02*
X1818000Y-3500600I40000J0D01*
G01*
X1738000Y-3500600D02*
X1738000Y-3560600D01*
X1738000Y-3560600D02*
G75*
G03*
X1818000Y-3560600I40000J0D01*
G01*
X1778000Y-3824600D02*
X1818000Y-3784600D01*
X1778000Y-3744600D01*
X1738000Y-3784600D01*
X1778000Y-3824600D01*
X1818000Y-3814600D02*
X1818000Y-3754600D01*
X1738000Y-3754600D02*
G75*
G02*
X1818000Y-3754600I40000J0D01*
G01*
X1738000Y-3754600D02*
X1738000Y-3814600D01*
X1738000Y-3814600D02*
G75*
G03*
X1818000Y-3814600I40000J0D01*
G01*
X2042800Y-5092800D02*
X2122800Y-5172800D01*
X2122800Y-5092800D02*
X2042800Y-5172800D01*
X2122800Y-5132800D02*
G75*
G02*
X2042800Y-5132800I-40000J0D01*
G01*
X2042800Y-5132800D02*
G75*
G02*
X2122800Y-5132800I40000J0D01*
G01*
X2042800Y-5342800D02*
X2122800Y-5422800D01*
X2122800Y-5342800D02*
X2042800Y-5422800D01*
X2122800Y-5382800D02*
G75*
G02*
X2042800Y-5382800I-40000J0D01*
G01*
X2042800Y-5382800D02*
G75*
G02*
X2122800Y-5382800I40000J0D01*
G01*
X2347600Y-1534800D02*
X2427600Y-1614800D01*
X2427600Y-1534800D02*
X2347600Y-1614800D01*
X2427600Y-1574800D02*
G75*
G02*
X2347600Y-1574800I-40000J0D01*
G01*
X2347600Y-1574800D02*
G75*
G02*
X2427600Y-1574800I40000J0D01*
G01*
X2347600Y-1941200D02*
X2427600Y-2021200D01*
X2427600Y-1941200D02*
X2347600Y-2021200D01*
X2427600Y-1981200D02*
G75*
G02*
X2347600Y-1981200I-40000J0D01*
G01*
X2347600Y-1981200D02*
G75*
G02*
X2427600Y-1981200I40000J0D01*
G01*
X2347600Y-2347600D02*
X2427600Y-2427600D01*
X2427600Y-2347600D02*
X2347600Y-2427600D01*
X2427600Y-2387600D02*
G75*
G02*
X2347600Y-2387600I-40000J0D01*
G01*
X2347600Y-2387600D02*
G75*
G02*
X2427600Y-2387600I40000J0D01*
G01*
X2347600Y-2754000D02*
X2427600Y-2834000D01*
X2427600Y-2754000D02*
X2347600Y-2834000D01*
X2427600Y-2794000D02*
G75*
G02*
X2347600Y-2794000I-40000J0D01*
G01*
X2347600Y-2794000D02*
G75*
G02*
X2427600Y-2794000I40000J0D01*
G01*
X2347600Y-3160400D02*
X2427600Y-3240400D01*
X2427600Y-3160400D02*
X2347600Y-3240400D01*
X2427600Y-3200400D02*
G75*
G02*
X2347600Y-3200400I-40000J0D01*
G01*
X2347600Y-3200400D02*
G75*
G02*
X2427600Y-3200400I40000J0D01*
G01*
X2347600Y-3566800D02*
X2427600Y-3646800D01*
X2427600Y-3566800D02*
X2347600Y-3646800D01*
X2427600Y-3606800D02*
G75*
G02*
X2347600Y-3606800I-40000J0D01*
G01*
X2347600Y-3606800D02*
G75*
G02*
X2427600Y-3606800I40000J0D01*
G01*
X2449200Y-4074800D02*
X2529200Y-4154800D01*
X2529200Y-4074800D02*
X2449200Y-4154800D01*
X2529200Y-4114800D02*
G75*
G02*
X2449200Y-4114800I-40000J0D01*
G01*
X2449200Y-4114800D02*
G75*
G02*
X2529200Y-4114800I40000J0D01*
G01*
X2449200Y-5344800D02*
X2529200Y-5424800D01*
X2529200Y-5344800D02*
X2449200Y-5424800D01*
X2529200Y-5384800D02*
G75*
G02*
X2449200Y-5384800I-40000J0D01*
G01*
X2449200Y-5384800D02*
G75*
G02*
X2529200Y-5384800I40000J0D01*
G01*
X2881000Y-4074800D02*
X2961000Y-4154800D01*
X2961000Y-4074800D02*
X2881000Y-4154800D01*
X2961000Y-4114800D02*
G75*
G02*
X2881000Y-4114800I-40000J0D01*
G01*
X2881000Y-4114800D02*
G75*
G02*
X2961000Y-4114800I40000J0D01*
G01*
X2881000Y-5344800D02*
X2961000Y-5424800D01*
X2961000Y-5344800D02*
X2881000Y-5424800D01*
X2961000Y-5384800D02*
G75*
G02*
X2881000Y-5384800I-40000J0D01*
G01*
X2881000Y-5384800D02*
G75*
G02*
X2961000Y-5384800I40000J0D01*
G01*
X3312800Y-4074800D02*
X3392800Y-4154800D01*
X3392800Y-4074800D02*
X3312800Y-4154800D01*
X3392800Y-4114800D02*
G75*
G02*
X3312800Y-4114800I-40000J0D01*
G01*
X3312800Y-4114800D02*
G75*
G02*
X3392800Y-4114800I40000J0D01*
G01*
X3312800Y-5344800D02*
X3392800Y-5424800D01*
X3392800Y-5344800D02*
X3312800Y-5424800D01*
X3392800Y-5384800D02*
G75*
G02*
X3312800Y-5384800I-40000J0D01*
G01*
X3312800Y-5384800D02*
G75*
G02*
X3392800Y-5384800I40000J0D01*
G01*
X3617600Y-1534800D02*
X3697600Y-1614800D01*
X3697600Y-1534800D02*
X3617600Y-1614800D01*
X3697600Y-1574800D02*
G75*
G02*
X3617600Y-1574800I-40000J0D01*
G01*
X3617600Y-1574800D02*
G75*
G02*
X3697600Y-1574800I40000J0D01*
G01*
X3617600Y-1941200D02*
X3697600Y-2021200D01*
X3697600Y-1941200D02*
X3617600Y-2021200D01*
X3697600Y-1981200D02*
G75*
G02*
X3617600Y-1981200I-40000J0D01*
G01*
X3617600Y-1981200D02*
G75*
G02*
X3697600Y-1981200I40000J0D01*
G01*
X3617600Y-2347600D02*
X3697600Y-2427600D01*
X3697600Y-2347600D02*
X3617600Y-2427600D01*
X3697600Y-2387600D02*
G75*
G02*
X3617600Y-2387600I-40000J0D01*
G01*
X3617600Y-2387600D02*
G75*
G02*
X3697600Y-2387600I40000J0D01*
G01*
X3617600Y-2754000D02*
X3697600Y-2834000D01*
X3697600Y-2754000D02*
X3617600Y-2834000D01*
X3697600Y-2794000D02*
G75*
G02*
X3617600Y-2794000I-40000J0D01*
G01*
X3617600Y-2794000D02*
G75*
G02*
X3697600Y-2794000I40000J0D01*
G01*
X3617600Y-3160400D02*
X3697600Y-3240400D01*
X3697600Y-3160400D02*
X3617600Y-3240400D01*
X3697600Y-3200400D02*
G75*
G02*
X3617600Y-3200400I-40000J0D01*
G01*
X3617600Y-3200400D02*
G75*
G02*
X3697600Y-3200400I40000J0D01*
G01*
X3617600Y-3566800D02*
X3697600Y-3646800D01*
X3697600Y-3566800D02*
X3617600Y-3646800D01*
X3697600Y-3606800D02*
G75*
G02*
X3617600Y-3606800I-40000J0D01*
G01*
X3617600Y-3606800D02*
G75*
G02*
X3697600Y-3606800I40000J0D01*
G01*
X3744600Y-4074800D02*
X3824600Y-4154800D01*
X3824600Y-4074800D02*
X3744600Y-4154800D01*
X3824600Y-4114800D02*
G75*
G02*
X3744600Y-4114800I-40000J0D01*
G01*
X3744600Y-4114800D02*
G75*
G02*
X3824600Y-4114800I40000J0D01*
G01*
X3744600Y-5344800D02*
X3824600Y-5424800D01*
X3824600Y-5344800D02*
X3744600Y-5424800D01*
X3824600Y-5384800D02*
G75*
G02*
X3744600Y-5384800I-40000J0D01*
G01*
X3744600Y-5384800D02*
G75*
G02*
X3824600Y-5384800I40000J0D01*
G01*
X6386200Y-4024000D02*
X6466200Y-4104000D01*
X6466200Y-4024000D02*
X6386200Y-4104000D01*
X6466200Y-4064000D02*
G75*
G02*
X6386200Y-4064000I-40000J0D01*
G01*
X6386200Y-4064000D02*
G75*
G02*
X6466200Y-4064000I40000J0D01*
G01*
X6386200Y-5294000D02*
X6466200Y-5374000D01*
X6466200Y-5294000D02*
X6386200Y-5374000D01*
X6466200Y-5334000D02*
G75*
G02*
X6386200Y-5334000I-40000J0D01*
G01*
X6386200Y-5334000D02*
G75*
G02*
X6466200Y-5334000I40000J0D01*
G01*
X6792600Y-4024000D02*
X6872600Y-4104000D01*
X6872600Y-4024000D02*
X6792600Y-4104000D01*
X6872600Y-4064000D02*
G75*
G02*
X6792600Y-4064000I-40000J0D01*
G01*
X6792600Y-4064000D02*
G75*
G02*
X6872600Y-4064000I40000J0D01*
G01*
X6792600Y-5294000D02*
X6872600Y-5374000D01*
X6872600Y-5294000D02*
X6792600Y-5374000D01*
X6872600Y-5334000D02*
G75*
G02*
X6792600Y-5334000I-40000J0D01*
G01*
X6792600Y-5334000D02*
G75*
G02*
X6872600Y-5334000I40000J0D01*
G01*
X7199000Y-4024000D02*
X7279000Y-4104000D01*
X7279000Y-4024000D02*
X7199000Y-4104000D01*
X7279000Y-4064000D02*
G75*
G02*
X7199000Y-4064000I-40000J0D01*
G01*
X7199000Y-4064000D02*
G75*
G02*
X7279000Y-4064000I40000J0D01*
G01*
X7199000Y-5294000D02*
X7279000Y-5374000D01*
X7279000Y-5294000D02*
X7199000Y-5374000D01*
X7279000Y-5334000D02*
G75*
G02*
X7199000Y-5334000I-40000J0D01*
G01*
X7199000Y-5334000D02*
G75*
G02*
X7279000Y-5334000I40000J0D01*
G01*
X7605400Y-4024000D02*
X7685400Y-4104000D01*
X7685400Y-4024000D02*
X7605400Y-4104000D01*
X7685400Y-4064000D02*
G75*
G02*
X7605400Y-4064000I-40000J0D01*
G01*
X7605400Y-4064000D02*
G75*
G02*
X7685400Y-4064000I40000J0D01*
G01*
X7605400Y-5294000D02*
X7685400Y-5374000D01*
X7685400Y-5294000D02*
X7605400Y-5374000D01*
X7685400Y-5334000D02*
G75*
G02*
X7605400Y-5334000I-40000J0D01*
G01*
X7605400Y-5334000D02*
G75*
G02*
X7685400Y-5334000I40000J0D01*
G01*
X8011800Y-4024000D02*
X8091800Y-4104000D01*
X8091800Y-4024000D02*
X8011800Y-4104000D01*
X8091800Y-4064000D02*
G75*
G02*
X8011800Y-4064000I-40000J0D01*
G01*
X8011800Y-4064000D02*
G75*
G02*
X8091800Y-4064000I40000J0D01*
G01*
X8011800Y-5294000D02*
X8091800Y-5374000D01*
X8091800Y-5294000D02*
X8011800Y-5374000D01*
X8091800Y-5334000D02*
G75*
G02*
X8011800Y-5334000I-40000J0D01*
G01*
X8011800Y-5334000D02*
G75*
G02*
X8091800Y-5334000I40000J0D01*
G01*
X8418200Y-4024000D02*
X8498200Y-4104000D01*
X8498200Y-4024000D02*
X8418200Y-4104000D01*
X8498200Y-4064000D02*
G75*
G02*
X8418200Y-4064000I-40000J0D01*
G01*
X8418200Y-4064000D02*
G75*
G02*
X8498200Y-4064000I40000J0D01*
G01*
X8418200Y-5294000D02*
X8498200Y-5374000D01*
X8498200Y-5294000D02*
X8418200Y-5374000D01*
X8498200Y-5334000D02*
G75*
G02*
X8418200Y-5334000I-40000J0D01*
G01*
X8418200Y-5334000D02*
G75*
G02*
X8498200Y-5334000I40000J0D01*
G01*
X8824600Y-4024000D02*
X8904600Y-4104000D01*
X8904600Y-4024000D02*
X8824600Y-4104000D01*
X8904600Y-4064000D02*
G75*
G02*
X8824600Y-4064000I-40000J0D01*
G01*
X8824600Y-4064000D02*
G75*
G02*
X8904600Y-4064000I40000J0D01*
G01*
X8824600Y-5294000D02*
X8904600Y-5374000D01*
X8904600Y-5294000D02*
X8824600Y-5374000D01*
X8904600Y-5334000D02*
G75*
G02*
X8824600Y-5334000I-40000J0D01*
G01*
X8824600Y-5334000D02*
G75*
G02*
X8904600Y-5334000I40000J0D01*
G01*
X9231000Y-4024000D02*
X9311000Y-4104000D01*
X9311000Y-4024000D02*
X9231000Y-4104000D01*
X9311000Y-4064000D02*
G75*
G02*
X9231000Y-4064000I-40000J0D01*
G01*
X9231000Y-4064000D02*
G75*
G02*
X9311000Y-4064000I40000J0D01*
G01*
X9231000Y-5294000D02*
X9311000Y-5374000D01*
X9311000Y-5294000D02*
X9231000Y-5374000D01*
X9311000Y-5334000D02*
G75*
G02*
X9231000Y-5334000I-40000J0D01*
G01*
X9231000Y-5334000D02*
G75*
G02*
X9311000Y-5334000I40000J0D01*
G01*
X9637400Y-4024000D02*
X9717400Y-4104000D01*
X9717400Y-4024000D02*
X9637400Y-4104000D01*
X9717400Y-4064000D02*
G75*
G02*
X9637400Y-4064000I-40000J0D01*
G01*
X9637400Y-4064000D02*
G75*
G02*
X9717400Y-4064000I40000J0D01*
G01*
X9637400Y-5294000D02*
X9717400Y-5374000D01*
X9717400Y-5294000D02*
X9637400Y-5374000D01*
X9717400Y-5334000D02*
G75*
G02*
X9637400Y-5334000I-40000J0D01*
G01*
X9637400Y-5334000D02*
G75*
G02*
X9717400Y-5334000I40000J0D01*
G01*
X10043800Y-4024000D02*
X10123800Y-4104000D01*
X10123800Y-4024000D02*
X10043800Y-4104000D01*
X10123800Y-4064000D02*
G75*
G02*
X10043800Y-4064000I-40000J0D01*
G01*
X10043800Y-4064000D02*
G75*
G02*
X10123800Y-4064000I40000J0D01*
G01*
X10043800Y-5294000D02*
X10123800Y-5374000D01*
X10123800Y-5294000D02*
X10043800Y-5374000D01*
X10123800Y-5334000D02*
G75*
G02*
X10043800Y-5334000I-40000J0D01*
G01*
X10043800Y-5334000D02*
G75*
G02*
X10123800Y-5334000I40000J0D01*
G01*
X10501000Y-4074800D02*
X10581000Y-4154800D01*
X10581000Y-4074800D02*
X10501000Y-4154800D01*
X10581000Y-4114800D02*
G75*
G02*
X10501000Y-4114800I-40000J0D01*
G01*
X10501000Y-4114800D02*
G75*
G02*
X10581000Y-4114800I40000J0D01*
G01*
X10501000Y-4392300D02*
X10581000Y-4472300D01*
X10581000Y-4392300D02*
X10501000Y-4472300D01*
X10581000Y-4432300D02*
G75*
G02*
X10501000Y-4432300I-40000J0D01*
G01*
X10501000Y-4432300D02*
G75*
G02*
X10581000Y-4432300I40000J0D01*
G01*
X10501000Y-4709800D02*
X10581000Y-4789800D01*
X10581000Y-4709800D02*
X10501000Y-4789800D01*
X10581000Y-4749800D02*
G75*
G02*
X10501000Y-4749800I-40000J0D01*
G01*
X10501000Y-4749800D02*
G75*
G02*
X10581000Y-4749800I40000J0D01*
G01*
X10907400Y-4392300D02*
X10987400Y-4472300D01*
X10987400Y-4392300D02*
X10907400Y-4472300D01*
X10987400Y-4432300D02*
G75*
G02*
X10907400Y-4432300I-40000J0D01*
G01*
X10907400Y-4432300D02*
G75*
G02*
X10987400Y-4432300I40000J0D01*
G01*
X10907400Y-4709800D02*
X10987400Y-4789800D01*
X10987400Y-4709800D02*
X10907400Y-4789800D01*
X10987400Y-4749800D02*
G75*
G02*
X10907400Y-4749800I-40000J0D01*
G01*
X10907400Y-4749800D02*
G75*
G02*
X10987400Y-4749800I40000J0D01*
G01*
X10908800Y-4074800D02*
X10988800Y-4154800D01*
X10988800Y-4074800D02*
X10908800Y-4154800D01*
X10988800Y-4114800D02*
G75*
G02*
X10908800Y-4114800I-40000J0D01*
G01*
X10908800Y-4114800D02*
G75*
G02*
X10988800Y-4114800I40000J0D01*
G01*
X3917399Y-1468199D02*
X4007401Y-1558201D01*
X4007401Y-1468199D02*
X3917399Y-1558201D01*
X3962400Y-1468199D02*
X3962400Y-1558201D01*
X3917399Y-1513200D02*
X4007401Y-1513200D01*
X3917399Y-1722199D02*
X4007401Y-1812201D01*
X4007401Y-1722199D02*
X3917399Y-1812201D01*
X3962400Y-1722199D02*
X3962400Y-1812201D01*
X3917399Y-1767200D02*
X4007401Y-1767200D01*
X3917399Y-1976199D02*
X4007401Y-2066201D01*
X4007401Y-1976199D02*
X3917399Y-2066201D01*
X3962400Y-1976199D02*
X3962400Y-2066201D01*
X3917399Y-2021200D02*
X4007401Y-2021200D01*
X3917399Y-2230199D02*
X4007401Y-2320201D01*
X4007401Y-2230199D02*
X3917399Y-2320201D01*
X3962400Y-2230199D02*
X3962400Y-2320201D01*
X3917399Y-2275200D02*
X4007401Y-2275200D01*
X3917399Y-2774399D02*
X4007401Y-2864401D01*
X4007401Y-2774399D02*
X3917399Y-2864401D01*
X3962400Y-2774399D02*
X3962400Y-2864401D01*
X3917399Y-2819400D02*
X4007401Y-2819400D01*
X3917399Y-3028399D02*
X4007401Y-3118401D01*
X4007401Y-3028399D02*
X3917399Y-3118401D01*
X3962400Y-3028399D02*
X3962400Y-3118401D01*
X3917399Y-3073400D02*
X4007401Y-3073400D01*
X3917399Y-3282399D02*
X4007401Y-3372401D01*
X4007401Y-3282399D02*
X3917399Y-3372401D01*
X3962400Y-3282399D02*
X3962400Y-3372401D01*
X3917399Y-3327400D02*
X4007401Y-3327400D01*
X3917399Y-3536399D02*
X4007401Y-3626401D01*
X4007401Y-3536399D02*
X3917399Y-3626401D01*
X3962400Y-3536399D02*
X3962400Y-3626401D01*
X3917399Y-3581400D02*
X4007401Y-3581400D01*
X4679399Y-1468199D02*
X4769401Y-1558201D01*
X4769401Y-1468199D02*
X4679399Y-1558201D01*
X4724400Y-1468199D02*
X4724400Y-1558201D01*
X4679399Y-1513200D02*
X4769401Y-1513200D01*
X4679399Y-1722199D02*
X4769401Y-1812201D01*
X4769401Y-1722199D02*
X4679399Y-1812201D01*
X4724400Y-1722199D02*
X4724400Y-1812201D01*
X4679399Y-1767200D02*
X4769401Y-1767200D01*
X4679399Y-1976199D02*
X4769401Y-2066201D01*
X4769401Y-1976199D02*
X4679399Y-2066201D01*
X4724400Y-1976199D02*
X4724400Y-2066201D01*
X4679399Y-2021200D02*
X4769401Y-2021200D01*
X4679399Y-2230199D02*
X4769401Y-2320201D01*
X4769401Y-2230199D02*
X4679399Y-2320201D01*
X4724400Y-2230199D02*
X4724400Y-2320201D01*
X4679399Y-2275200D02*
X4769401Y-2275200D01*
X4679399Y-2774399D02*
X4769401Y-2864401D01*
X4769401Y-2774399D02*
X4679399Y-2864401D01*
X4724400Y-2774399D02*
X4724400Y-2864401D01*
X4679399Y-2819400D02*
X4769401Y-2819400D01*
X4679399Y-3028399D02*
X4769401Y-3118401D01*
X4769401Y-3028399D02*
X4679399Y-3118401D01*
X4724400Y-3028399D02*
X4724400Y-3118401D01*
X4679399Y-3073400D02*
X4769401Y-3073400D01*
X4679399Y-3282399D02*
X4769401Y-3372401D01*
X4769401Y-3282399D02*
X4679399Y-3372401D01*
X4724400Y-3282399D02*
X4724400Y-3372401D01*
X4679399Y-3327400D02*
X4769401Y-3327400D01*
X4679399Y-3536399D02*
X4769401Y-3626401D01*
X4769401Y-3536399D02*
X4679399Y-3626401D01*
X4724400Y-3536399D02*
X4724400Y-3626401D01*
X4679399Y-3581400D02*
X4769401Y-3581400D01*
X1732200Y-1598800D02*
X1827200Y-1693800D01*
X1827200Y-1598800D02*
X1732200Y-1693800D01*
X1813288Y-1679888D02*
X1813288Y-1612712D01*
X1746112Y-1612712D01*
X1746112Y-1679888D01*
X1813288Y-1679888D01*
X1732200Y-1848800D02*
X1827200Y-1943800D01*
X1827200Y-1848800D02*
X1732200Y-1943800D01*
X1813288Y-1929888D02*
X1813288Y-1862712D01*
X1746112Y-1862712D01*
X1746112Y-1929888D01*
X1813288Y-1929888D01*
X1732200Y-2098800D02*
X1827200Y-2193800D01*
X1827200Y-2098800D02*
X1732200Y-2193800D01*
X1813288Y-2179888D02*
X1813288Y-2112712D01*
X1746112Y-2112712D01*
X1746112Y-2179888D01*
X1813288Y-2179888D01*
X1732200Y-2348800D02*
X1827200Y-2443800D01*
X1827200Y-2348800D02*
X1732200Y-2443800D01*
X1813288Y-2429888D02*
X1813288Y-2362712D01*
X1746112Y-2362712D01*
X1746112Y-2429888D01*
X1813288Y-2429888D01*
X1732200Y-2598800D02*
X1827200Y-2693800D01*
X1827200Y-2598800D02*
X1732200Y-2693800D01*
X1813288Y-2679888D02*
X1813288Y-2612712D01*
X1746112Y-2612712D01*
X1746112Y-2679888D01*
X1813288Y-2679888D01*
X1740700Y-4318800D02*
X1840700Y-4418800D01*
X1840700Y-4318800D02*
X1740700Y-4418800D01*
X1790700Y-4418800D02*
X1840700Y-4368800D01*
X1790700Y-4318800D01*
X1740700Y-4368800D01*
X1790700Y-4418800D01*
X1740700Y-4568800D02*
X1840700Y-4668800D01*
X1840700Y-4568800D02*
X1740700Y-4668800D01*
X1790700Y-4668800D02*
X1840700Y-4618800D01*
X1790700Y-4568800D01*
X1740700Y-4618800D01*
X1790700Y-4668800D01*
X11296600Y-3304800D02*
X11396600Y-3404800D01*
X11396600Y-3304800D02*
X11296600Y-3404800D01*
X11346600Y-3404800D02*
X11396600Y-3354800D01*
X11346600Y-3304800D01*
X11296600Y-3354800D01*
X11346600Y-3404800D01*
X11296600Y-3554800D02*
X11396600Y-3654800D01*
X11396600Y-3554800D02*
X11296600Y-3654800D01*
X11346600Y-3654800D02*
X11396600Y-3604800D01*
X11346600Y-3554800D01*
X11296600Y-3604800D01*
X11346600Y-3654800D01*
X11303800Y-1605000D02*
X11403800Y-1705000D01*
X11403800Y-1605000D02*
X11303800Y-1705000D01*
X11353800Y-1705000D02*
X11403800Y-1655000D01*
X11353800Y-1605000D01*
X11303800Y-1655000D01*
X11353800Y-1705000D01*
X11303800Y-1855000D02*
X11403800Y-1955000D01*
X11403800Y-1855000D02*
X11303800Y-1955000D01*
X11353800Y-1955000D02*
X11403800Y-1905000D01*
X11353800Y-1855000D01*
X11303800Y-1905000D01*
X11353800Y-1955000D01*
D13*
X6375400Y-1692600D02*
X6375400Y-1812600D01*
X6315400Y-1752600D02*
X6435400Y-1752600D01*
X6435400Y-1752600D02*
G75*
G02*
X6315400Y-1752600I-60000J0D01*
G01*
X6315400Y-1752600D02*
G75*
G02*
X6435400Y-1752600I60000J0D01*
G01*
X6375400Y-3445200D02*
X6375400Y-3565200D01*
X6315400Y-3505200D02*
X6435400Y-3505200D01*
X6435400Y-3505200D02*
G75*
G02*
X6315400Y-3505200I-60000J0D01*
G01*
X6315400Y-3505200D02*
G75*
G02*
X6435400Y-3505200I60000J0D01*
G01*
X6629400Y-1692600D02*
X6629400Y-1812600D01*
X6569400Y-1752600D02*
X6689400Y-1752600D01*
X6689400Y-1752600D02*
G75*
G02*
X6569400Y-1752600I-60000J0D01*
G01*
X6569400Y-1752600D02*
G75*
G02*
X6689400Y-1752600I60000J0D01*
G01*
X6629400Y-3445200D02*
X6629400Y-3565200D01*
X6569400Y-3505200D02*
X6689400Y-3505200D01*
X6689400Y-3505200D02*
G75*
G02*
X6569400Y-3505200I-60000J0D01*
G01*
X6569400Y-3505200D02*
G75*
G02*
X6689400Y-3505200I60000J0D01*
G01*
X6883400Y-1692600D02*
X6883400Y-1812600D01*
X6823400Y-1752600D02*
X6943400Y-1752600D01*
X6943400Y-1752600D02*
G75*
G02*
X6823400Y-1752600I-60000J0D01*
G01*
X6823400Y-1752600D02*
G75*
G02*
X6943400Y-1752600I60000J0D01*
G01*
X6883400Y-3445200D02*
X6883400Y-3565200D01*
X6823400Y-3505200D02*
X6943400Y-3505200D01*
X6943400Y-3505200D02*
G75*
G02*
X6823400Y-3505200I-60000J0D01*
G01*
X6823400Y-3505200D02*
G75*
G02*
X6943400Y-3505200I60000J0D01*
G01*
X7594600Y-1692600D02*
X7594600Y-1812600D01*
X7534600Y-1752600D02*
X7654600Y-1752600D01*
X7654600Y-1752600D02*
G75*
G02*
X7534600Y-1752600I-60000J0D01*
G01*
X7534600Y-1752600D02*
G75*
G02*
X7654600Y-1752600I60000J0D01*
G01*
X7594600Y-3445200D02*
X7594600Y-3565200D01*
X7534600Y-3505200D02*
X7654600Y-3505200D01*
X7654600Y-3505200D02*
G75*
G02*
X7534600Y-3505200I-60000J0D01*
G01*
X7534600Y-3505200D02*
G75*
G02*
X7654600Y-3505200I60000J0D01*
G01*
X7848600Y-1692600D02*
X7848600Y-1812600D01*
X7788600Y-1752600D02*
X7908600Y-1752600D01*
X7908600Y-1752600D02*
G75*
G02*
X7788600Y-1752600I-60000J0D01*
G01*
X7788600Y-1752600D02*
G75*
G02*
X7908600Y-1752600I60000J0D01*
G01*
X7848600Y-3445200D02*
X7848600Y-3565200D01*
X7788600Y-3505200D02*
X7908600Y-3505200D01*
X7908600Y-3505200D02*
G75*
G02*
X7788600Y-3505200I-60000J0D01*
G01*
X7788600Y-3505200D02*
G75*
G02*
X7908600Y-3505200I60000J0D01*
G01*
X8102600Y-1692600D02*
X8102600Y-1812600D01*
X8042600Y-1752600D02*
X8162600Y-1752600D01*
X8162600Y-1752600D02*
G75*
G02*
X8042600Y-1752600I-60000J0D01*
G01*
X8042600Y-1752600D02*
G75*
G02*
X8162600Y-1752600I60000J0D01*
G01*
X8102600Y-3445200D02*
X8102600Y-3565200D01*
X8042600Y-3505200D02*
X8162600Y-3505200D01*
X8162600Y-3505200D02*
G75*
G02*
X8042600Y-3505200I-60000J0D01*
G01*
X8042600Y-3505200D02*
G75*
G02*
X8162600Y-3505200I60000J0D01*
G01*
X8813800Y-1692600D02*
X8813800Y-1812600D01*
X8753800Y-1752600D02*
X8873800Y-1752600D01*
X8873800Y-1752600D02*
G75*
G02*
X8753800Y-1752600I-60000J0D01*
G01*
X8753800Y-1752600D02*
G75*
G02*
X8873800Y-1752600I60000J0D01*
G01*
X8813800Y-3445200D02*
X8813800Y-3565200D01*
X8753800Y-3505200D02*
X8873800Y-3505200D01*
X8873800Y-3505200D02*
G75*
G02*
X8753800Y-3505200I-60000J0D01*
G01*
X8753800Y-3505200D02*
G75*
G02*
X8873800Y-3505200I60000J0D01*
G01*
X9067800Y-1692600D02*
X9067800Y-1812600D01*
X9007800Y-1752600D02*
X9127800Y-1752600D01*
X9127800Y-1752600D02*
G75*
G02*
X9007800Y-1752600I-60000J0D01*
G01*
X9007800Y-1752600D02*
G75*
G02*
X9127800Y-1752600I60000J0D01*
G01*
X9067800Y-3445200D02*
X9067800Y-3565200D01*
X9007800Y-3505200D02*
X9127800Y-3505200D01*
X9127800Y-3505200D02*
G75*
G02*
X9007800Y-3505200I-60000J0D01*
G01*
X9007800Y-3505200D02*
G75*
G02*
X9127800Y-3505200I60000J0D01*
G01*
X9321800Y-1692600D02*
X9321800Y-1812600D01*
X9261800Y-1752600D02*
X9381800Y-1752600D01*
X9381800Y-1752600D02*
G75*
G02*
X9261800Y-1752600I-60000J0D01*
G01*
X9261800Y-1752600D02*
G75*
G02*
X9381800Y-1752600I60000J0D01*
G01*
X9321800Y-3445200D02*
X9321800Y-3565200D01*
X9261800Y-3505200D02*
X9381800Y-3505200D01*
X9381800Y-3505200D02*
G75*
G02*
X9261800Y-3505200I-60000J0D01*
G01*
X9261800Y-3505200D02*
G75*
G02*
X9381800Y-3505200I60000J0D01*
G01*
X10033000Y-1692600D02*
X10033000Y-1812600D01*
X9973000Y-1752600D02*
X10093000Y-1752600D01*
X10093000Y-1752600D02*
G75*
G02*
X9973000Y-1752600I-60000J0D01*
G01*
X9973000Y-1752600D02*
G75*
G02*
X10093000Y-1752600I60000J0D01*
G01*
X10033000Y-3445200D02*
X10033000Y-3565200D01*
X9973000Y-3505200D02*
X10093000Y-3505200D01*
X10093000Y-3505200D02*
G75*
G02*
X9973000Y-3505200I-60000J0D01*
G01*
X9973000Y-3505200D02*
G75*
G02*
X10093000Y-3505200I60000J0D01*
G01*
X10287000Y-1692600D02*
X10287000Y-1812600D01*
X10227000Y-1752600D02*
X10347000Y-1752600D01*
X10347000Y-1752600D02*
G75*
G02*
X10227000Y-1752600I-60000J0D01*
G01*
X10227000Y-1752600D02*
G75*
G02*
X10347000Y-1752600I60000J0D01*
G01*
X10287000Y-3445200D02*
X10287000Y-3565200D01*
X10227000Y-3505200D02*
X10347000Y-3505200D01*
X10347000Y-3505200D02*
G75*
G02*
X10227000Y-3505200I-60000J0D01*
G01*
X10227000Y-3505200D02*
G75*
G02*
X10347000Y-3505200I60000J0D01*
G01*
X10541000Y-1692600D02*
X10541000Y-1812600D01*
X10481000Y-1752600D02*
X10601000Y-1752600D01*
X10601000Y-1752600D02*
G75*
G02*
X10481000Y-1752600I-60000J0D01*
G01*
X10481000Y-1752600D02*
G75*
G02*
X10601000Y-1752600I60000J0D01*
G01*
X10541000Y-3445200D02*
X10541000Y-3565200D01*
X10481000Y-3505200D02*
X10601000Y-3505200D01*
X10601000Y-3505200D02*
G75*
G02*
X10481000Y-3505200I-60000J0D01*
G01*
X10481000Y-3505200D02*
G75*
G02*
X10601000Y-3505200I60000J0D01*
G01*
D11*
X1579077Y-5901984D02*
X1579077Y-5701984D01*
X1579077Y-5701984D02*
X1626696Y-5701984D01*
X1626696Y-5701984D02*
X1655267Y-5711508D01*
X1655267Y-5711508D02*
X1674315Y-5730555D01*
X1674315Y-5730555D02*
X1683839Y-5749603D01*
X1683839Y-5749603D02*
X1693362Y-5787698D01*
X1693362Y-5787698D02*
X1693362Y-5816269D01*
X1693362Y-5816269D02*
X1683839Y-5854365D01*
X1683839Y-5854365D02*
X1674315Y-5873412D01*
X1674315Y-5873412D02*
X1655267Y-5892460D01*
X1655267Y-5892460D02*
X1626696Y-5901984D01*
X1626696Y-5901984D02*
X1579077Y-5901984D01*
X1779077Y-5901984D02*
X1779077Y-5768650D01*
X1779077Y-5806746D02*
X1788601Y-5787698D01*
X1788601Y-5787698D02*
X1798124Y-5778174D01*
X1798124Y-5778174D02*
X1817172Y-5768650D01*
X1817172Y-5768650D02*
X1836220Y-5768650D01*
X1902886Y-5901984D02*
X1902886Y-5768650D01*
X1902886Y-5701984D02*
X1893362Y-5711508D01*
X1893362Y-5711508D02*
X1902886Y-5721031D01*
X1902886Y-5721031D02*
X1912410Y-5711508D01*
X1912410Y-5711508D02*
X1902886Y-5701984D01*
X1902886Y-5701984D02*
X1902886Y-5721031D01*
X2026696Y-5901984D02*
X2007648Y-5892460D01*
X2007648Y-5892460D02*
X1998124Y-5873412D01*
X1998124Y-5873412D02*
X1998124Y-5701984D01*
X2131458Y-5901984D02*
X2112410Y-5892460D01*
X2112410Y-5892460D02*
X2102886Y-5873412D01*
X2102886Y-5873412D02*
X2102886Y-5701984D01*
X2360029Y-5901984D02*
X2360029Y-5701984D01*
X2360029Y-5701984D02*
X2426696Y-5844841D01*
X2426696Y-5844841D02*
X2493363Y-5701984D01*
X2493363Y-5701984D02*
X2493363Y-5901984D01*
X2674315Y-5901984D02*
X2674315Y-5797222D01*
X2674315Y-5797222D02*
X2664791Y-5778174D01*
X2664791Y-5778174D02*
X2645744Y-5768650D01*
X2645744Y-5768650D02*
X2607648Y-5768650D01*
X2607648Y-5768650D02*
X2588601Y-5778174D01*
X2674315Y-5892460D02*
X2655267Y-5901984D01*
X2655267Y-5901984D02*
X2607648Y-5901984D01*
X2607648Y-5901984D02*
X2588601Y-5892460D01*
X2588601Y-5892460D02*
X2579077Y-5873412D01*
X2579077Y-5873412D02*
X2579077Y-5854365D01*
X2579077Y-5854365D02*
X2588601Y-5835317D01*
X2588601Y-5835317D02*
X2607648Y-5825793D01*
X2607648Y-5825793D02*
X2655267Y-5825793D01*
X2655267Y-5825793D02*
X2674315Y-5816269D01*
X2769553Y-5768650D02*
X2769553Y-5968650D01*
X2769553Y-5778174D02*
X2788601Y-5768650D01*
X2788601Y-5768650D02*
X2826696Y-5768650D01*
X2826696Y-5768650D02*
X2845743Y-5778174D01*
X2845743Y-5778174D02*
X2855267Y-5787698D01*
X2855267Y-5787698D02*
X2864791Y-5806746D01*
X2864791Y-5806746D02*
X2864791Y-5863888D01*
X2864791Y-5863888D02*
X2855267Y-5882936D01*
X2855267Y-5882936D02*
X2845743Y-5892460D01*
X2845743Y-5892460D02*
X2826696Y-5901984D01*
X2826696Y-5901984D02*
X2788601Y-5901984D01*
X2788601Y-5901984D02*
X2769553Y-5892460D01*
X2950505Y-5882936D02*
X2960029Y-5892460D01*
X2960029Y-5892460D02*
X2950505Y-5901984D01*
X2950505Y-5901984D02*
X2940982Y-5892460D01*
X2940982Y-5892460D02*
X2950505Y-5882936D01*
X2950505Y-5882936D02*
X2950505Y-5901984D01*
X2950505Y-5778174D02*
X2960029Y-5787698D01*
X2960029Y-5787698D02*
X2950505Y-5797222D01*
X2950505Y-5797222D02*
X2940982Y-5787698D01*
X2940982Y-5787698D02*
X2950505Y-5778174D01*
X2950505Y-5778174D02*
X2950505Y-5797222D01*
D12*
X1288300Y-6215500D02*
X1318300Y-6245500D01*
X1318300Y-6215500D02*
X1288300Y-6245500D01*
D11*
X1617172Y-6121984D02*
X1636220Y-6121984D01*
X1636220Y-6121984D02*
X1655267Y-6131508D01*
X1655267Y-6131508D02*
X1664791Y-6141031D01*
X1664791Y-6141031D02*
X1674315Y-6160079D01*
X1674315Y-6160079D02*
X1683839Y-6198174D01*
X1683839Y-6198174D02*
X1683839Y-6245793D01*
X1683839Y-6245793D02*
X1674315Y-6283888D01*
X1674315Y-6283888D02*
X1664791Y-6302936D01*
X1664791Y-6302936D02*
X1655267Y-6312460D01*
X1655267Y-6312460D02*
X1636220Y-6321984D01*
X1636220Y-6321984D02*
X1617172Y-6321984D01*
X1617172Y-6321984D02*
X1598124Y-6312460D01*
X1598124Y-6312460D02*
X1588601Y-6302936D01*
X1588601Y-6302936D02*
X1579077Y-6283888D01*
X1579077Y-6283888D02*
X1569553Y-6245793D01*
X1569553Y-6245793D02*
X1569553Y-6198174D01*
X1569553Y-6198174D02*
X1579077Y-6160079D01*
X1579077Y-6160079D02*
X1588601Y-6141031D01*
X1588601Y-6141031D02*
X1598124Y-6131508D01*
X1598124Y-6131508D02*
X1617172Y-6121984D01*
X1769553Y-6302936D02*
X1779077Y-6312460D01*
X1779077Y-6312460D02*
X1769553Y-6321984D01*
X1769553Y-6321984D02*
X1760029Y-6312460D01*
X1760029Y-6312460D02*
X1769553Y-6302936D01*
X1769553Y-6302936D02*
X1769553Y-6321984D01*
X1845743Y-6121984D02*
X1969553Y-6121984D01*
X1969553Y-6121984D02*
X1902886Y-6198174D01*
X1902886Y-6198174D02*
X1931458Y-6198174D01*
X1931458Y-6198174D02*
X1950505Y-6207698D01*
X1950505Y-6207698D02*
X1960029Y-6217222D01*
X1960029Y-6217222D02*
X1969553Y-6236269D01*
X1969553Y-6236269D02*
X1969553Y-6283888D01*
X1969553Y-6283888D02*
X1960029Y-6302936D01*
X1960029Y-6302936D02*
X1950505Y-6312460D01*
X1950505Y-6312460D02*
X1931458Y-6321984D01*
X1931458Y-6321984D02*
X1874315Y-6321984D01*
X1874315Y-6321984D02*
X1855267Y-6312460D01*
X1855267Y-6312460D02*
X1845743Y-6302936D01*
X2093362Y-6121984D02*
X2112410Y-6121984D01*
X2112410Y-6121984D02*
X2131458Y-6131508D01*
X2131458Y-6131508D02*
X2140982Y-6141031D01*
X2140982Y-6141031D02*
X2150505Y-6160079D01*
X2150505Y-6160079D02*
X2160029Y-6198174D01*
X2160029Y-6198174D02*
X2160029Y-6245793D01*
X2160029Y-6245793D02*
X2150505Y-6283888D01*
X2150505Y-6283888D02*
X2140982Y-6302936D01*
X2140982Y-6302936D02*
X2131458Y-6312460D01*
X2131458Y-6312460D02*
X2112410Y-6321984D01*
X2112410Y-6321984D02*
X2093362Y-6321984D01*
X2093362Y-6321984D02*
X2074315Y-6312460D01*
X2074315Y-6312460D02*
X2064791Y-6302936D01*
X2064791Y-6302936D02*
X2055267Y-6283888D01*
X2055267Y-6283888D02*
X2045743Y-6245793D01*
X2045743Y-6245793D02*
X2045743Y-6198174D01*
X2045743Y-6198174D02*
X2055267Y-6160079D01*
X2055267Y-6160079D02*
X2064791Y-6141031D01*
X2064791Y-6141031D02*
X2074315Y-6131508D01*
X2074315Y-6131508D02*
X2093362Y-6121984D01*
X2283839Y-6121984D02*
X2302886Y-6121984D01*
X2302886Y-6121984D02*
X2321934Y-6131508D01*
X2321934Y-6131508D02*
X2331458Y-6141031D01*
X2331458Y-6141031D02*
X2340982Y-6160079D01*
X2340982Y-6160079D02*
X2350505Y-6198174D01*
X2350505Y-6198174D02*
X2350505Y-6245793D01*
X2350505Y-6245793D02*
X2340982Y-6283888D01*
X2340982Y-6283888D02*
X2331458Y-6302936D01*
X2331458Y-6302936D02*
X2321934Y-6312460D01*
X2321934Y-6312460D02*
X2302886Y-6321984D01*
X2302886Y-6321984D02*
X2283839Y-6321984D01*
X2283839Y-6321984D02*
X2264791Y-6312460D01*
X2264791Y-6312460D02*
X2255267Y-6302936D01*
X2255267Y-6302936D02*
X2245744Y-6283888D01*
X2245744Y-6283888D02*
X2236220Y-6245793D01*
X2236220Y-6245793D02*
X2236220Y-6198174D01*
X2236220Y-6198174D02*
X2245744Y-6160079D01*
X2245744Y-6160079D02*
X2255267Y-6141031D01*
X2255267Y-6141031D02*
X2264791Y-6131508D01*
X2264791Y-6131508D02*
X2283839Y-6121984D01*
X2436220Y-6321984D02*
X2436220Y-6188650D01*
X2436220Y-6207698D02*
X2445744Y-6198174D01*
X2445744Y-6198174D02*
X2464791Y-6188650D01*
X2464791Y-6188650D02*
X2493363Y-6188650D01*
X2493363Y-6188650D02*
X2512410Y-6198174D01*
X2512410Y-6198174D02*
X2521934Y-6217222D01*
X2521934Y-6217222D02*
X2521934Y-6321984D01*
X2521934Y-6217222D02*
X2531458Y-6198174D01*
X2531458Y-6198174D02*
X2550505Y-6188650D01*
X2550505Y-6188650D02*
X2579077Y-6188650D01*
X2579077Y-6188650D02*
X2598125Y-6198174D01*
X2598125Y-6198174D02*
X2607648Y-6217222D01*
X2607648Y-6217222D02*
X2607648Y-6321984D01*
X2702886Y-6321984D02*
X2702886Y-6188650D01*
X2702886Y-6207698D02*
X2712410Y-6198174D01*
X2712410Y-6198174D02*
X2731458Y-6188650D01*
X2731458Y-6188650D02*
X2760029Y-6188650D01*
X2760029Y-6188650D02*
X2779077Y-6198174D01*
X2779077Y-6198174D02*
X2788601Y-6217222D01*
X2788601Y-6217222D02*
X2788601Y-6321984D01*
X2788601Y-6217222D02*
X2798124Y-6198174D01*
X2798124Y-6198174D02*
X2817172Y-6188650D01*
X2817172Y-6188650D02*
X2845743Y-6188650D01*
X2845743Y-6188650D02*
X2864791Y-6198174D01*
X2864791Y-6198174D02*
X2874315Y-6217222D01*
X2874315Y-6217222D02*
X2874315Y-6321984D01*
X3264791Y-6112460D02*
X3093363Y-6369603D01*
X3521934Y-6121984D02*
X3540982Y-6121984D01*
X3540982Y-6121984D02*
X3560029Y-6131508D01*
X3560029Y-6131508D02*
X3569553Y-6141031D01*
X3569553Y-6141031D02*
X3579077Y-6160079D01*
X3579077Y-6160079D02*
X3588601Y-6198174D01*
X3588601Y-6198174D02*
X3588601Y-6245793D01*
X3588601Y-6245793D02*
X3579077Y-6283888D01*
X3579077Y-6283888D02*
X3569553Y-6302936D01*
X3569553Y-6302936D02*
X3560029Y-6312460D01*
X3560029Y-6312460D02*
X3540982Y-6321984D01*
X3540982Y-6321984D02*
X3521934Y-6321984D01*
X3521934Y-6321984D02*
X3502886Y-6312460D01*
X3502886Y-6312460D02*
X3493363Y-6302936D01*
X3493363Y-6302936D02*
X3483839Y-6283888D01*
X3483839Y-6283888D02*
X3474315Y-6245793D01*
X3474315Y-6245793D02*
X3474315Y-6198174D01*
X3474315Y-6198174D02*
X3483839Y-6160079D01*
X3483839Y-6160079D02*
X3493363Y-6141031D01*
X3493363Y-6141031D02*
X3502886Y-6131508D01*
X3502886Y-6131508D02*
X3521934Y-6121984D01*
X3674315Y-6302936D02*
X3683839Y-6312460D01*
X3683839Y-6312460D02*
X3674315Y-6321984D01*
X3674315Y-6321984D02*
X3664791Y-6312460D01*
X3664791Y-6312460D02*
X3674315Y-6302936D01*
X3674315Y-6302936D02*
X3674315Y-6321984D01*
X3807648Y-6121984D02*
X3826696Y-6121984D01*
X3826696Y-6121984D02*
X3845744Y-6131508D01*
X3845744Y-6131508D02*
X3855267Y-6141031D01*
X3855267Y-6141031D02*
X3864791Y-6160079D01*
X3864791Y-6160079D02*
X3874315Y-6198174D01*
X3874315Y-6198174D02*
X3874315Y-6245793D01*
X3874315Y-6245793D02*
X3864791Y-6283888D01*
X3864791Y-6283888D02*
X3855267Y-6302936D01*
X3855267Y-6302936D02*
X3845744Y-6312460D01*
X3845744Y-6312460D02*
X3826696Y-6321984D01*
X3826696Y-6321984D02*
X3807648Y-6321984D01*
X3807648Y-6321984D02*
X3788601Y-6312460D01*
X3788601Y-6312460D02*
X3779077Y-6302936D01*
X3779077Y-6302936D02*
X3769553Y-6283888D01*
X3769553Y-6283888D02*
X3760029Y-6245793D01*
X3760029Y-6245793D02*
X3760029Y-6198174D01*
X3760029Y-6198174D02*
X3769553Y-6160079D01*
X3769553Y-6160079D02*
X3779077Y-6141031D01*
X3779077Y-6141031D02*
X3788601Y-6131508D01*
X3788601Y-6131508D02*
X3807648Y-6121984D01*
X4064791Y-6321984D02*
X3950506Y-6321984D01*
X4007648Y-6321984D02*
X4007648Y-6121984D01*
X4007648Y-6121984D02*
X3988601Y-6150555D01*
X3988601Y-6150555D02*
X3969553Y-6169603D01*
X3969553Y-6169603D02*
X3950506Y-6179127D01*
X4255268Y-6321984D02*
X4140982Y-6321984D01*
X4198125Y-6321984D02*
X4198125Y-6121984D01*
X4198125Y-6121984D02*
X4179077Y-6150555D01*
X4179077Y-6150555D02*
X4160029Y-6169603D01*
X4160029Y-6169603D02*
X4140982Y-6179127D01*
X4369553Y-6207698D02*
X4350506Y-6198174D01*
X4350506Y-6198174D02*
X4340982Y-6188650D01*
X4340982Y-6188650D02*
X4331458Y-6169603D01*
X4331458Y-6169603D02*
X4331458Y-6160079D01*
X4331458Y-6160079D02*
X4340982Y-6141031D01*
X4340982Y-6141031D02*
X4350506Y-6131508D01*
X4350506Y-6131508D02*
X4369553Y-6121984D01*
X4369553Y-6121984D02*
X4407649Y-6121984D01*
X4407649Y-6121984D02*
X4426696Y-6131508D01*
X4426696Y-6131508D02*
X4436220Y-6141031D01*
X4436220Y-6141031D02*
X4445744Y-6160079D01*
X4445744Y-6160079D02*
X4445744Y-6169603D01*
X4445744Y-6169603D02*
X4436220Y-6188650D01*
X4436220Y-6188650D02*
X4426696Y-6198174D01*
X4426696Y-6198174D02*
X4407649Y-6207698D01*
X4407649Y-6207698D02*
X4369553Y-6207698D01*
X4369553Y-6207698D02*
X4350506Y-6217222D01*
X4350506Y-6217222D02*
X4340982Y-6226746D01*
X4340982Y-6226746D02*
X4331458Y-6245793D01*
X4331458Y-6245793D02*
X4331458Y-6283888D01*
X4331458Y-6283888D02*
X4340982Y-6302936D01*
X4340982Y-6302936D02*
X4350506Y-6312460D01*
X4350506Y-6312460D02*
X4369553Y-6321984D01*
X4369553Y-6321984D02*
X4407649Y-6321984D01*
X4407649Y-6321984D02*
X4426696Y-6312460D01*
X4426696Y-6312460D02*
X4436220Y-6302936D01*
X4436220Y-6302936D02*
X4445744Y-6283888D01*
X4445744Y-6283888D02*
X4445744Y-6245793D01*
X4445744Y-6245793D02*
X4436220Y-6226746D01*
X4436220Y-6226746D02*
X4426696Y-6217222D01*
X4426696Y-6217222D02*
X4407649Y-6207698D01*
X4521934Y-6121984D02*
X4521934Y-6160079D01*
X4598125Y-6121984D02*
X4598125Y-6160079D01*
X4893363Y-6398174D02*
X4883839Y-6388650D01*
X4883839Y-6388650D02*
X4864791Y-6360079D01*
X4864791Y-6360079D02*
X4855268Y-6341031D01*
X4855268Y-6341031D02*
X4845744Y-6312460D01*
X4845744Y-6312460D02*
X4836220Y-6264841D01*
X4836220Y-6264841D02*
X4836220Y-6226746D01*
X4836220Y-6226746D02*
X4845744Y-6179127D01*
X4845744Y-6179127D02*
X4855268Y-6150555D01*
X4855268Y-6150555D02*
X4864791Y-6131508D01*
X4864791Y-6131508D02*
X4883839Y-6102936D01*
X4883839Y-6102936D02*
X4893363Y-6093412D01*
X4960030Y-6141031D02*
X4969553Y-6131508D01*
X4969553Y-6131508D02*
X4988601Y-6121984D01*
X4988601Y-6121984D02*
X5036220Y-6121984D01*
X5036220Y-6121984D02*
X5055268Y-6131508D01*
X5055268Y-6131508D02*
X5064791Y-6141031D01*
X5064791Y-6141031D02*
X5074315Y-6160079D01*
X5074315Y-6160079D02*
X5074315Y-6179127D01*
X5074315Y-6179127D02*
X5064791Y-6207698D01*
X5064791Y-6207698D02*
X4950506Y-6321984D01*
X4950506Y-6321984D02*
X5074315Y-6321984D01*
X5150506Y-6141031D02*
X5160030Y-6131508D01*
X5160030Y-6131508D02*
X5179077Y-6121984D01*
X5179077Y-6121984D02*
X5226696Y-6121984D01*
X5226696Y-6121984D02*
X5245744Y-6131508D01*
X5245744Y-6131508D02*
X5255268Y-6141031D01*
X5255268Y-6141031D02*
X5264791Y-6160079D01*
X5264791Y-6160079D02*
X5264791Y-6179127D01*
X5264791Y-6179127D02*
X5255268Y-6207698D01*
X5255268Y-6207698D02*
X5140982Y-6321984D01*
X5140982Y-6321984D02*
X5264791Y-6321984D01*
X5502887Y-6321984D02*
X5502887Y-6121984D01*
X5588601Y-6321984D02*
X5588601Y-6217222D01*
X5588601Y-6217222D02*
X5579077Y-6198174D01*
X5579077Y-6198174D02*
X5560030Y-6188650D01*
X5560030Y-6188650D02*
X5531458Y-6188650D01*
X5531458Y-6188650D02*
X5512411Y-6198174D01*
X5512411Y-6198174D02*
X5502887Y-6207698D01*
X5712410Y-6321984D02*
X5693363Y-6312460D01*
X5693363Y-6312460D02*
X5683839Y-6302936D01*
X5683839Y-6302936D02*
X5674315Y-6283888D01*
X5674315Y-6283888D02*
X5674315Y-6226746D01*
X5674315Y-6226746D02*
X5683839Y-6207698D01*
X5683839Y-6207698D02*
X5693363Y-6198174D01*
X5693363Y-6198174D02*
X5712410Y-6188650D01*
X5712410Y-6188650D02*
X5740982Y-6188650D01*
X5740982Y-6188650D02*
X5760030Y-6198174D01*
X5760030Y-6198174D02*
X5769553Y-6207698D01*
X5769553Y-6207698D02*
X5779077Y-6226746D01*
X5779077Y-6226746D02*
X5779077Y-6283888D01*
X5779077Y-6283888D02*
X5769553Y-6302936D01*
X5769553Y-6302936D02*
X5760030Y-6312460D01*
X5760030Y-6312460D02*
X5740982Y-6321984D01*
X5740982Y-6321984D02*
X5712410Y-6321984D01*
X5893363Y-6321984D02*
X5874315Y-6312460D01*
X5874315Y-6312460D02*
X5864791Y-6293412D01*
X5864791Y-6293412D02*
X5864791Y-6121984D01*
X6045744Y-6312460D02*
X6026696Y-6321984D01*
X6026696Y-6321984D02*
X5988601Y-6321984D01*
X5988601Y-6321984D02*
X5969553Y-6312460D01*
X5969553Y-6312460D02*
X5960030Y-6293412D01*
X5960030Y-6293412D02*
X5960030Y-6217222D01*
X5960030Y-6217222D02*
X5969553Y-6198174D01*
X5969553Y-6198174D02*
X5988601Y-6188650D01*
X5988601Y-6188650D02*
X6026696Y-6188650D01*
X6026696Y-6188650D02*
X6045744Y-6198174D01*
X6045744Y-6198174D02*
X6055268Y-6217222D01*
X6055268Y-6217222D02*
X6055268Y-6236269D01*
X6055268Y-6236269D02*
X5960030Y-6255317D01*
X6131458Y-6312460D02*
X6150506Y-6321984D01*
X6150506Y-6321984D02*
X6188601Y-6321984D01*
X6188601Y-6321984D02*
X6207649Y-6312460D01*
X6207649Y-6312460D02*
X6217172Y-6293412D01*
X6217172Y-6293412D02*
X6217172Y-6283888D01*
X6217172Y-6283888D02*
X6207649Y-6264841D01*
X6207649Y-6264841D02*
X6188601Y-6255317D01*
X6188601Y-6255317D02*
X6160030Y-6255317D01*
X6160030Y-6255317D02*
X6140982Y-6245793D01*
X6140982Y-6245793D02*
X6131458Y-6226746D01*
X6131458Y-6226746D02*
X6131458Y-6217222D01*
X6131458Y-6217222D02*
X6140982Y-6198174D01*
X6140982Y-6198174D02*
X6160030Y-6188650D01*
X6160030Y-6188650D02*
X6188601Y-6188650D01*
X6188601Y-6188650D02*
X6207649Y-6198174D01*
X6283839Y-6398174D02*
X6293363Y-6388650D01*
X6293363Y-6388650D02*
X6312411Y-6360079D01*
X6312411Y-6360079D02*
X6321934Y-6341031D01*
X6321934Y-6341031D02*
X6331458Y-6312460D01*
X6331458Y-6312460D02*
X6340982Y-6264841D01*
X6340982Y-6264841D02*
X6340982Y-6226746D01*
X6340982Y-6226746D02*
X6331458Y-6179127D01*
X6331458Y-6179127D02*
X6321934Y-6150555D01*
X6321934Y-6150555D02*
X6312411Y-6131508D01*
X6312411Y-6131508D02*
X6293363Y-6102936D01*
X6293363Y-6102936D02*
X6283839Y-6093412D01*
D12*
X1318300Y-6494500D02*
G75*
G02*
X1258300Y-6494500I-30000J0D01*
G01*
X1258300Y-6494500D02*
G75*
G02*
X1318300Y-6494500I30000J0D01*
G01*
D11*
X1617172Y-6385984D02*
X1636220Y-6385984D01*
X1636220Y-6385984D02*
X1655267Y-6395508D01*
X1655267Y-6395508D02*
X1664791Y-6405031D01*
X1664791Y-6405031D02*
X1674315Y-6424079D01*
X1674315Y-6424079D02*
X1683839Y-6462174D01*
X1683839Y-6462174D02*
X1683839Y-6509793D01*
X1683839Y-6509793D02*
X1674315Y-6547888D01*
X1674315Y-6547888D02*
X1664791Y-6566936D01*
X1664791Y-6566936D02*
X1655267Y-6576460D01*
X1655267Y-6576460D02*
X1636220Y-6585984D01*
X1636220Y-6585984D02*
X1617172Y-6585984D01*
X1617172Y-6585984D02*
X1598124Y-6576460D01*
X1598124Y-6576460D02*
X1588601Y-6566936D01*
X1588601Y-6566936D02*
X1579077Y-6547888D01*
X1579077Y-6547888D02*
X1569553Y-6509793D01*
X1569553Y-6509793D02*
X1569553Y-6462174D01*
X1569553Y-6462174D02*
X1579077Y-6424079D01*
X1579077Y-6424079D02*
X1588601Y-6405031D01*
X1588601Y-6405031D02*
X1598124Y-6395508D01*
X1598124Y-6395508D02*
X1617172Y-6385984D01*
X1769553Y-6566936D02*
X1779077Y-6576460D01*
X1779077Y-6576460D02*
X1769553Y-6585984D01*
X1769553Y-6585984D02*
X1760029Y-6576460D01*
X1760029Y-6576460D02*
X1769553Y-6566936D01*
X1769553Y-6566936D02*
X1769553Y-6585984D01*
X1950505Y-6385984D02*
X1912410Y-6385984D01*
X1912410Y-6385984D02*
X1893362Y-6395508D01*
X1893362Y-6395508D02*
X1883839Y-6405031D01*
X1883839Y-6405031D02*
X1864791Y-6433603D01*
X1864791Y-6433603D02*
X1855267Y-6471698D01*
X1855267Y-6471698D02*
X1855267Y-6547888D01*
X1855267Y-6547888D02*
X1864791Y-6566936D01*
X1864791Y-6566936D02*
X1874315Y-6576460D01*
X1874315Y-6576460D02*
X1893362Y-6585984D01*
X1893362Y-6585984D02*
X1931458Y-6585984D01*
X1931458Y-6585984D02*
X1950505Y-6576460D01*
X1950505Y-6576460D02*
X1960029Y-6566936D01*
X1960029Y-6566936D02*
X1969553Y-6547888D01*
X1969553Y-6547888D02*
X1969553Y-6500269D01*
X1969553Y-6500269D02*
X1960029Y-6481222D01*
X1960029Y-6481222D02*
X1950505Y-6471698D01*
X1950505Y-6471698D02*
X1931458Y-6462174D01*
X1931458Y-6462174D02*
X1893362Y-6462174D01*
X1893362Y-6462174D02*
X1874315Y-6471698D01*
X1874315Y-6471698D02*
X1864791Y-6481222D01*
X1864791Y-6481222D02*
X1855267Y-6500269D01*
X2093362Y-6385984D02*
X2112410Y-6385984D01*
X2112410Y-6385984D02*
X2131458Y-6395508D01*
X2131458Y-6395508D02*
X2140982Y-6405031D01*
X2140982Y-6405031D02*
X2150505Y-6424079D01*
X2150505Y-6424079D02*
X2160029Y-6462174D01*
X2160029Y-6462174D02*
X2160029Y-6509793D01*
X2160029Y-6509793D02*
X2150505Y-6547888D01*
X2150505Y-6547888D02*
X2140982Y-6566936D01*
X2140982Y-6566936D02*
X2131458Y-6576460D01*
X2131458Y-6576460D02*
X2112410Y-6585984D01*
X2112410Y-6585984D02*
X2093362Y-6585984D01*
X2093362Y-6585984D02*
X2074315Y-6576460D01*
X2074315Y-6576460D02*
X2064791Y-6566936D01*
X2064791Y-6566936D02*
X2055267Y-6547888D01*
X2055267Y-6547888D02*
X2045743Y-6509793D01*
X2045743Y-6509793D02*
X2045743Y-6462174D01*
X2045743Y-6462174D02*
X2055267Y-6424079D01*
X2055267Y-6424079D02*
X2064791Y-6405031D01*
X2064791Y-6405031D02*
X2074315Y-6395508D01*
X2074315Y-6395508D02*
X2093362Y-6385984D01*
X2283839Y-6385984D02*
X2302886Y-6385984D01*
X2302886Y-6385984D02*
X2321934Y-6395508D01*
X2321934Y-6395508D02*
X2331458Y-6405031D01*
X2331458Y-6405031D02*
X2340982Y-6424079D01*
X2340982Y-6424079D02*
X2350505Y-6462174D01*
X2350505Y-6462174D02*
X2350505Y-6509793D01*
X2350505Y-6509793D02*
X2340982Y-6547888D01*
X2340982Y-6547888D02*
X2331458Y-6566936D01*
X2331458Y-6566936D02*
X2321934Y-6576460D01*
X2321934Y-6576460D02*
X2302886Y-6585984D01*
X2302886Y-6585984D02*
X2283839Y-6585984D01*
X2283839Y-6585984D02*
X2264791Y-6576460D01*
X2264791Y-6576460D02*
X2255267Y-6566936D01*
X2255267Y-6566936D02*
X2245744Y-6547888D01*
X2245744Y-6547888D02*
X2236220Y-6509793D01*
X2236220Y-6509793D02*
X2236220Y-6462174D01*
X2236220Y-6462174D02*
X2245744Y-6424079D01*
X2245744Y-6424079D02*
X2255267Y-6405031D01*
X2255267Y-6405031D02*
X2264791Y-6395508D01*
X2264791Y-6395508D02*
X2283839Y-6385984D01*
X2436220Y-6585984D02*
X2436220Y-6452650D01*
X2436220Y-6471698D02*
X2445744Y-6462174D01*
X2445744Y-6462174D02*
X2464791Y-6452650D01*
X2464791Y-6452650D02*
X2493363Y-6452650D01*
X2493363Y-6452650D02*
X2512410Y-6462174D01*
X2512410Y-6462174D02*
X2521934Y-6481222D01*
X2521934Y-6481222D02*
X2521934Y-6585984D01*
X2521934Y-6481222D02*
X2531458Y-6462174D01*
X2531458Y-6462174D02*
X2550505Y-6452650D01*
X2550505Y-6452650D02*
X2579077Y-6452650D01*
X2579077Y-6452650D02*
X2598125Y-6462174D01*
X2598125Y-6462174D02*
X2607648Y-6481222D01*
X2607648Y-6481222D02*
X2607648Y-6585984D01*
X2702886Y-6585984D02*
X2702886Y-6452650D01*
X2702886Y-6471698D02*
X2712410Y-6462174D01*
X2712410Y-6462174D02*
X2731458Y-6452650D01*
X2731458Y-6452650D02*
X2760029Y-6452650D01*
X2760029Y-6452650D02*
X2779077Y-6462174D01*
X2779077Y-6462174D02*
X2788601Y-6481222D01*
X2788601Y-6481222D02*
X2788601Y-6585984D01*
X2788601Y-6481222D02*
X2798124Y-6462174D01*
X2798124Y-6462174D02*
X2817172Y-6452650D01*
X2817172Y-6452650D02*
X2845743Y-6452650D01*
X2845743Y-6452650D02*
X2864791Y-6462174D01*
X2864791Y-6462174D02*
X2874315Y-6481222D01*
X2874315Y-6481222D02*
X2874315Y-6585984D01*
X3264791Y-6376460D02*
X3093363Y-6633603D01*
X3521934Y-6385984D02*
X3540982Y-6385984D01*
X3540982Y-6385984D02*
X3560029Y-6395508D01*
X3560029Y-6395508D02*
X3569553Y-6405031D01*
X3569553Y-6405031D02*
X3579077Y-6424079D01*
X3579077Y-6424079D02*
X3588601Y-6462174D01*
X3588601Y-6462174D02*
X3588601Y-6509793D01*
X3588601Y-6509793D02*
X3579077Y-6547888D01*
X3579077Y-6547888D02*
X3569553Y-6566936D01*
X3569553Y-6566936D02*
X3560029Y-6576460D01*
X3560029Y-6576460D02*
X3540982Y-6585984D01*
X3540982Y-6585984D02*
X3521934Y-6585984D01*
X3521934Y-6585984D02*
X3502886Y-6576460D01*
X3502886Y-6576460D02*
X3493363Y-6566936D01*
X3493363Y-6566936D02*
X3483839Y-6547888D01*
X3483839Y-6547888D02*
X3474315Y-6509793D01*
X3474315Y-6509793D02*
X3474315Y-6462174D01*
X3474315Y-6462174D02*
X3483839Y-6424079D01*
X3483839Y-6424079D02*
X3493363Y-6405031D01*
X3493363Y-6405031D02*
X3502886Y-6395508D01*
X3502886Y-6395508D02*
X3521934Y-6385984D01*
X3674315Y-6566936D02*
X3683839Y-6576460D01*
X3683839Y-6576460D02*
X3674315Y-6585984D01*
X3674315Y-6585984D02*
X3664791Y-6576460D01*
X3664791Y-6576460D02*
X3674315Y-6566936D01*
X3674315Y-6566936D02*
X3674315Y-6585984D01*
X3807648Y-6385984D02*
X3826696Y-6385984D01*
X3826696Y-6385984D02*
X3845744Y-6395508D01*
X3845744Y-6395508D02*
X3855267Y-6405031D01*
X3855267Y-6405031D02*
X3864791Y-6424079D01*
X3864791Y-6424079D02*
X3874315Y-6462174D01*
X3874315Y-6462174D02*
X3874315Y-6509793D01*
X3874315Y-6509793D02*
X3864791Y-6547888D01*
X3864791Y-6547888D02*
X3855267Y-6566936D01*
X3855267Y-6566936D02*
X3845744Y-6576460D01*
X3845744Y-6576460D02*
X3826696Y-6585984D01*
X3826696Y-6585984D02*
X3807648Y-6585984D01*
X3807648Y-6585984D02*
X3788601Y-6576460D01*
X3788601Y-6576460D02*
X3779077Y-6566936D01*
X3779077Y-6566936D02*
X3769553Y-6547888D01*
X3769553Y-6547888D02*
X3760029Y-6509793D01*
X3760029Y-6509793D02*
X3760029Y-6462174D01*
X3760029Y-6462174D02*
X3769553Y-6424079D01*
X3769553Y-6424079D02*
X3779077Y-6405031D01*
X3779077Y-6405031D02*
X3788601Y-6395508D01*
X3788601Y-6395508D02*
X3807648Y-6385984D01*
X3950506Y-6405031D02*
X3960029Y-6395508D01*
X3960029Y-6395508D02*
X3979077Y-6385984D01*
X3979077Y-6385984D02*
X4026696Y-6385984D01*
X4026696Y-6385984D02*
X4045744Y-6395508D01*
X4045744Y-6395508D02*
X4055267Y-6405031D01*
X4055267Y-6405031D02*
X4064791Y-6424079D01*
X4064791Y-6424079D02*
X4064791Y-6443127D01*
X4064791Y-6443127D02*
X4055267Y-6471698D01*
X4055267Y-6471698D02*
X3940982Y-6585984D01*
X3940982Y-6585984D02*
X4064791Y-6585984D01*
X4131458Y-6385984D02*
X4255268Y-6385984D01*
X4255268Y-6385984D02*
X4188601Y-6462174D01*
X4188601Y-6462174D02*
X4217172Y-6462174D01*
X4217172Y-6462174D02*
X4236220Y-6471698D01*
X4236220Y-6471698D02*
X4245744Y-6481222D01*
X4245744Y-6481222D02*
X4255268Y-6500269D01*
X4255268Y-6500269D02*
X4255268Y-6547888D01*
X4255268Y-6547888D02*
X4245744Y-6566936D01*
X4245744Y-6566936D02*
X4236220Y-6576460D01*
X4236220Y-6576460D02*
X4217172Y-6585984D01*
X4217172Y-6585984D02*
X4160029Y-6585984D01*
X4160029Y-6585984D02*
X4140982Y-6576460D01*
X4140982Y-6576460D02*
X4131458Y-6566936D01*
X4426696Y-6385984D02*
X4388601Y-6385984D01*
X4388601Y-6385984D02*
X4369553Y-6395508D01*
X4369553Y-6395508D02*
X4360029Y-6405031D01*
X4360029Y-6405031D02*
X4340982Y-6433603D01*
X4340982Y-6433603D02*
X4331458Y-6471698D01*
X4331458Y-6471698D02*
X4331458Y-6547888D01*
X4331458Y-6547888D02*
X4340982Y-6566936D01*
X4340982Y-6566936D02*
X4350506Y-6576460D01*
X4350506Y-6576460D02*
X4369553Y-6585984D01*
X4369553Y-6585984D02*
X4407649Y-6585984D01*
X4407649Y-6585984D02*
X4426696Y-6576460D01*
X4426696Y-6576460D02*
X4436220Y-6566936D01*
X4436220Y-6566936D02*
X4445744Y-6547888D01*
X4445744Y-6547888D02*
X4445744Y-6500269D01*
X4445744Y-6500269D02*
X4436220Y-6481222D01*
X4436220Y-6481222D02*
X4426696Y-6471698D01*
X4426696Y-6471698D02*
X4407649Y-6462174D01*
X4407649Y-6462174D02*
X4369553Y-6462174D01*
X4369553Y-6462174D02*
X4350506Y-6471698D01*
X4350506Y-6471698D02*
X4340982Y-6481222D01*
X4340982Y-6481222D02*
X4331458Y-6500269D01*
X4521934Y-6385984D02*
X4521934Y-6424079D01*
X4598125Y-6385984D02*
X4598125Y-6424079D01*
X4893363Y-6662174D02*
X4883839Y-6652650D01*
X4883839Y-6652650D02*
X4864791Y-6624079D01*
X4864791Y-6624079D02*
X4855268Y-6605031D01*
X4855268Y-6605031D02*
X4845744Y-6576460D01*
X4845744Y-6576460D02*
X4836220Y-6528841D01*
X4836220Y-6528841D02*
X4836220Y-6490746D01*
X4836220Y-6490746D02*
X4845744Y-6443127D01*
X4845744Y-6443127D02*
X4855268Y-6414555D01*
X4855268Y-6414555D02*
X4864791Y-6395508D01*
X4864791Y-6395508D02*
X4883839Y-6366936D01*
X4883839Y-6366936D02*
X4893363Y-6357412D01*
X5055268Y-6385984D02*
X5017172Y-6385984D01*
X5017172Y-6385984D02*
X4998125Y-6395508D01*
X4998125Y-6395508D02*
X4988601Y-6405031D01*
X4988601Y-6405031D02*
X4969553Y-6433603D01*
X4969553Y-6433603D02*
X4960030Y-6471698D01*
X4960030Y-6471698D02*
X4960030Y-6547888D01*
X4960030Y-6547888D02*
X4969553Y-6566936D01*
X4969553Y-6566936D02*
X4979077Y-6576460D01*
X4979077Y-6576460D02*
X4998125Y-6585984D01*
X4998125Y-6585984D02*
X5036220Y-6585984D01*
X5036220Y-6585984D02*
X5055268Y-6576460D01*
X5055268Y-6576460D02*
X5064791Y-6566936D01*
X5064791Y-6566936D02*
X5074315Y-6547888D01*
X5074315Y-6547888D02*
X5074315Y-6500269D01*
X5074315Y-6500269D02*
X5064791Y-6481222D01*
X5064791Y-6481222D02*
X5055268Y-6471698D01*
X5055268Y-6471698D02*
X5036220Y-6462174D01*
X5036220Y-6462174D02*
X4998125Y-6462174D01*
X4998125Y-6462174D02*
X4979077Y-6471698D01*
X4979077Y-6471698D02*
X4969553Y-6481222D01*
X4969553Y-6481222D02*
X4960030Y-6500269D01*
X5312411Y-6585984D02*
X5312411Y-6385984D01*
X5398125Y-6585984D02*
X5398125Y-6481222D01*
X5398125Y-6481222D02*
X5388601Y-6462174D01*
X5388601Y-6462174D02*
X5369553Y-6452650D01*
X5369553Y-6452650D02*
X5340982Y-6452650D01*
X5340982Y-6452650D02*
X5321934Y-6462174D01*
X5321934Y-6462174D02*
X5312411Y-6471698D01*
X5521934Y-6585984D02*
X5502887Y-6576460D01*
X5502887Y-6576460D02*
X5493363Y-6566936D01*
X5493363Y-6566936D02*
X5483839Y-6547888D01*
X5483839Y-6547888D02*
X5483839Y-6490746D01*
X5483839Y-6490746D02*
X5493363Y-6471698D01*
X5493363Y-6471698D02*
X5502887Y-6462174D01*
X5502887Y-6462174D02*
X5521934Y-6452650D01*
X5521934Y-6452650D02*
X5550506Y-6452650D01*
X5550506Y-6452650D02*
X5569553Y-6462174D01*
X5569553Y-6462174D02*
X5579077Y-6471698D01*
X5579077Y-6471698D02*
X5588601Y-6490746D01*
X5588601Y-6490746D02*
X5588601Y-6547888D01*
X5588601Y-6547888D02*
X5579077Y-6566936D01*
X5579077Y-6566936D02*
X5569553Y-6576460D01*
X5569553Y-6576460D02*
X5550506Y-6585984D01*
X5550506Y-6585984D02*
X5521934Y-6585984D01*
X5702887Y-6585984D02*
X5683839Y-6576460D01*
X5683839Y-6576460D02*
X5674315Y-6557412D01*
X5674315Y-6557412D02*
X5674315Y-6385984D01*
X5855268Y-6576460D02*
X5836220Y-6585984D01*
X5836220Y-6585984D02*
X5798125Y-6585984D01*
X5798125Y-6585984D02*
X5779077Y-6576460D01*
X5779077Y-6576460D02*
X5769553Y-6557412D01*
X5769553Y-6557412D02*
X5769553Y-6481222D01*
X5769553Y-6481222D02*
X5779077Y-6462174D01*
X5779077Y-6462174D02*
X5798125Y-6452650D01*
X5798125Y-6452650D02*
X5836220Y-6452650D01*
X5836220Y-6452650D02*
X5855268Y-6462174D01*
X5855268Y-6462174D02*
X5864791Y-6481222D01*
X5864791Y-6481222D02*
X5864791Y-6500269D01*
X5864791Y-6500269D02*
X5769553Y-6519317D01*
X5940982Y-6576460D02*
X5960030Y-6585984D01*
X5960030Y-6585984D02*
X5998125Y-6585984D01*
X5998125Y-6585984D02*
X6017172Y-6576460D01*
X6017172Y-6576460D02*
X6026696Y-6557412D01*
X6026696Y-6557412D02*
X6026696Y-6547888D01*
X6026696Y-6547888D02*
X6017172Y-6528841D01*
X6017172Y-6528841D02*
X5998125Y-6519317D01*
X5998125Y-6519317D02*
X5969553Y-6519317D01*
X5969553Y-6519317D02*
X5950506Y-6509793D01*
X5950506Y-6509793D02*
X5940982Y-6490746D01*
X5940982Y-6490746D02*
X5940982Y-6481222D01*
X5940982Y-6481222D02*
X5950506Y-6462174D01*
X5950506Y-6462174D02*
X5969553Y-6452650D01*
X5969553Y-6452650D02*
X5998125Y-6452650D01*
X5998125Y-6452650D02*
X6017172Y-6462174D01*
X6093363Y-6662174D02*
X6102887Y-6652650D01*
X6102887Y-6652650D02*
X6121934Y-6624079D01*
X6121934Y-6624079D02*
X6131458Y-6605031D01*
X6131458Y-6605031D02*
X6140982Y-6576460D01*
X6140982Y-6576460D02*
X6150506Y-6528841D01*
X6150506Y-6528841D02*
X6150506Y-6490746D01*
X6150506Y-6490746D02*
X6140982Y-6443127D01*
X6140982Y-6443127D02*
X6131458Y-6414555D01*
X6131458Y-6414555D02*
X6121934Y-6395508D01*
X6121934Y-6395508D02*
X6102887Y-6366936D01*
X6102887Y-6366936D02*
X6093363Y-6357412D01*
D12*
X1281650Y-6721850D02*
X1281650Y-6795150D01*
X1245000Y-6758500D02*
X1318300Y-6758500D01*
D11*
X1617172Y-6649984D02*
X1636220Y-6649984D01*
X1636220Y-6649984D02*
X1655267Y-6659508D01*
X1655267Y-6659508D02*
X1664791Y-6669031D01*
X1664791Y-6669031D02*
X1674315Y-6688079D01*
X1674315Y-6688079D02*
X1683839Y-6726174D01*
X1683839Y-6726174D02*
X1683839Y-6773793D01*
X1683839Y-6773793D02*
X1674315Y-6811888D01*
X1674315Y-6811888D02*
X1664791Y-6830936D01*
X1664791Y-6830936D02*
X1655267Y-6840460D01*
X1655267Y-6840460D02*
X1636220Y-6849984D01*
X1636220Y-6849984D02*
X1617172Y-6849984D01*
X1617172Y-6849984D02*
X1598124Y-6840460D01*
X1598124Y-6840460D02*
X1588601Y-6830936D01*
X1588601Y-6830936D02*
X1579077Y-6811888D01*
X1579077Y-6811888D02*
X1569553Y-6773793D01*
X1569553Y-6773793D02*
X1569553Y-6726174D01*
X1569553Y-6726174D02*
X1579077Y-6688079D01*
X1579077Y-6688079D02*
X1588601Y-6669031D01*
X1588601Y-6669031D02*
X1598124Y-6659508D01*
X1598124Y-6659508D02*
X1617172Y-6649984D01*
X1769553Y-6830936D02*
X1779077Y-6840460D01*
X1779077Y-6840460D02*
X1769553Y-6849984D01*
X1769553Y-6849984D02*
X1760029Y-6840460D01*
X1760029Y-6840460D02*
X1769553Y-6830936D01*
X1769553Y-6830936D02*
X1769553Y-6849984D01*
X1845743Y-6649984D02*
X1979077Y-6649984D01*
X1979077Y-6649984D02*
X1893362Y-6849984D01*
X2036220Y-6649984D02*
X2160029Y-6649984D01*
X2160029Y-6649984D02*
X2093362Y-6726174D01*
X2093362Y-6726174D02*
X2121934Y-6726174D01*
X2121934Y-6726174D02*
X2140982Y-6735698D01*
X2140982Y-6735698D02*
X2150505Y-6745222D01*
X2150505Y-6745222D02*
X2160029Y-6764269D01*
X2160029Y-6764269D02*
X2160029Y-6811888D01*
X2160029Y-6811888D02*
X2150505Y-6830936D01*
X2150505Y-6830936D02*
X2140982Y-6840460D01*
X2140982Y-6840460D02*
X2121934Y-6849984D01*
X2121934Y-6849984D02*
X2064791Y-6849984D01*
X2064791Y-6849984D02*
X2045743Y-6840460D01*
X2045743Y-6840460D02*
X2036220Y-6830936D01*
X2226696Y-6649984D02*
X2350505Y-6649984D01*
X2350505Y-6649984D02*
X2283839Y-6726174D01*
X2283839Y-6726174D02*
X2312410Y-6726174D01*
X2312410Y-6726174D02*
X2331458Y-6735698D01*
X2331458Y-6735698D02*
X2340982Y-6745222D01*
X2340982Y-6745222D02*
X2350505Y-6764269D01*
X2350505Y-6764269D02*
X2350505Y-6811888D01*
X2350505Y-6811888D02*
X2340982Y-6830936D01*
X2340982Y-6830936D02*
X2331458Y-6840460D01*
X2331458Y-6840460D02*
X2312410Y-6849984D01*
X2312410Y-6849984D02*
X2255267Y-6849984D01*
X2255267Y-6849984D02*
X2236220Y-6840460D01*
X2236220Y-6840460D02*
X2226696Y-6830936D01*
X2436220Y-6849984D02*
X2436220Y-6716650D01*
X2436220Y-6735698D02*
X2445744Y-6726174D01*
X2445744Y-6726174D02*
X2464791Y-6716650D01*
X2464791Y-6716650D02*
X2493363Y-6716650D01*
X2493363Y-6716650D02*
X2512410Y-6726174D01*
X2512410Y-6726174D02*
X2521934Y-6745222D01*
X2521934Y-6745222D02*
X2521934Y-6849984D01*
X2521934Y-6745222D02*
X2531458Y-6726174D01*
X2531458Y-6726174D02*
X2550505Y-6716650D01*
X2550505Y-6716650D02*
X2579077Y-6716650D01*
X2579077Y-6716650D02*
X2598125Y-6726174D01*
X2598125Y-6726174D02*
X2607648Y-6745222D01*
X2607648Y-6745222D02*
X2607648Y-6849984D01*
X2702886Y-6849984D02*
X2702886Y-6716650D01*
X2702886Y-6735698D02*
X2712410Y-6726174D01*
X2712410Y-6726174D02*
X2731458Y-6716650D01*
X2731458Y-6716650D02*
X2760029Y-6716650D01*
X2760029Y-6716650D02*
X2779077Y-6726174D01*
X2779077Y-6726174D02*
X2788601Y-6745222D01*
X2788601Y-6745222D02*
X2788601Y-6849984D01*
X2788601Y-6745222D02*
X2798124Y-6726174D01*
X2798124Y-6726174D02*
X2817172Y-6716650D01*
X2817172Y-6716650D02*
X2845743Y-6716650D01*
X2845743Y-6716650D02*
X2864791Y-6726174D01*
X2864791Y-6726174D02*
X2874315Y-6745222D01*
X2874315Y-6745222D02*
X2874315Y-6849984D01*
X3264791Y-6640460D02*
X3093363Y-6897603D01*
X3521934Y-6649984D02*
X3540982Y-6649984D01*
X3540982Y-6649984D02*
X3560029Y-6659508D01*
X3560029Y-6659508D02*
X3569553Y-6669031D01*
X3569553Y-6669031D02*
X3579077Y-6688079D01*
X3579077Y-6688079D02*
X3588601Y-6726174D01*
X3588601Y-6726174D02*
X3588601Y-6773793D01*
X3588601Y-6773793D02*
X3579077Y-6811888D01*
X3579077Y-6811888D02*
X3569553Y-6830936D01*
X3569553Y-6830936D02*
X3560029Y-6840460D01*
X3560029Y-6840460D02*
X3540982Y-6849984D01*
X3540982Y-6849984D02*
X3521934Y-6849984D01*
X3521934Y-6849984D02*
X3502886Y-6840460D01*
X3502886Y-6840460D02*
X3493363Y-6830936D01*
X3493363Y-6830936D02*
X3483839Y-6811888D01*
X3483839Y-6811888D02*
X3474315Y-6773793D01*
X3474315Y-6773793D02*
X3474315Y-6726174D01*
X3474315Y-6726174D02*
X3483839Y-6688079D01*
X3483839Y-6688079D02*
X3493363Y-6669031D01*
X3493363Y-6669031D02*
X3502886Y-6659508D01*
X3502886Y-6659508D02*
X3521934Y-6649984D01*
X3674315Y-6830936D02*
X3683839Y-6840460D01*
X3683839Y-6840460D02*
X3674315Y-6849984D01*
X3674315Y-6849984D02*
X3664791Y-6840460D01*
X3664791Y-6840460D02*
X3674315Y-6830936D01*
X3674315Y-6830936D02*
X3674315Y-6849984D01*
X3807648Y-6649984D02*
X3826696Y-6649984D01*
X3826696Y-6649984D02*
X3845744Y-6659508D01*
X3845744Y-6659508D02*
X3855267Y-6669031D01*
X3855267Y-6669031D02*
X3864791Y-6688079D01*
X3864791Y-6688079D02*
X3874315Y-6726174D01*
X3874315Y-6726174D02*
X3874315Y-6773793D01*
X3874315Y-6773793D02*
X3864791Y-6811888D01*
X3864791Y-6811888D02*
X3855267Y-6830936D01*
X3855267Y-6830936D02*
X3845744Y-6840460D01*
X3845744Y-6840460D02*
X3826696Y-6849984D01*
X3826696Y-6849984D02*
X3807648Y-6849984D01*
X3807648Y-6849984D02*
X3788601Y-6840460D01*
X3788601Y-6840460D02*
X3779077Y-6830936D01*
X3779077Y-6830936D02*
X3769553Y-6811888D01*
X3769553Y-6811888D02*
X3760029Y-6773793D01*
X3760029Y-6773793D02*
X3760029Y-6726174D01*
X3760029Y-6726174D02*
X3769553Y-6688079D01*
X3769553Y-6688079D02*
X3779077Y-6669031D01*
X3779077Y-6669031D02*
X3788601Y-6659508D01*
X3788601Y-6659508D02*
X3807648Y-6649984D01*
X3950506Y-6669031D02*
X3960029Y-6659508D01*
X3960029Y-6659508D02*
X3979077Y-6649984D01*
X3979077Y-6649984D02*
X4026696Y-6649984D01*
X4026696Y-6649984D02*
X4045744Y-6659508D01*
X4045744Y-6659508D02*
X4055267Y-6669031D01*
X4055267Y-6669031D02*
X4064791Y-6688079D01*
X4064791Y-6688079D02*
X4064791Y-6707127D01*
X4064791Y-6707127D02*
X4055267Y-6735698D01*
X4055267Y-6735698D02*
X3940982Y-6849984D01*
X3940982Y-6849984D02*
X4064791Y-6849984D01*
X4179077Y-6735698D02*
X4160029Y-6726174D01*
X4160029Y-6726174D02*
X4150506Y-6716650D01*
X4150506Y-6716650D02*
X4140982Y-6697603D01*
X4140982Y-6697603D02*
X4140982Y-6688079D01*
X4140982Y-6688079D02*
X4150506Y-6669031D01*
X4150506Y-6669031D02*
X4160029Y-6659508D01*
X4160029Y-6659508D02*
X4179077Y-6649984D01*
X4179077Y-6649984D02*
X4217172Y-6649984D01*
X4217172Y-6649984D02*
X4236220Y-6659508D01*
X4236220Y-6659508D02*
X4245744Y-6669031D01*
X4245744Y-6669031D02*
X4255268Y-6688079D01*
X4255268Y-6688079D02*
X4255268Y-6697603D01*
X4255268Y-6697603D02*
X4245744Y-6716650D01*
X4245744Y-6716650D02*
X4236220Y-6726174D01*
X4236220Y-6726174D02*
X4217172Y-6735698D01*
X4217172Y-6735698D02*
X4179077Y-6735698D01*
X4179077Y-6735698D02*
X4160029Y-6745222D01*
X4160029Y-6745222D02*
X4150506Y-6754746D01*
X4150506Y-6754746D02*
X4140982Y-6773793D01*
X4140982Y-6773793D02*
X4140982Y-6811888D01*
X4140982Y-6811888D02*
X4150506Y-6830936D01*
X4150506Y-6830936D02*
X4160029Y-6840460D01*
X4160029Y-6840460D02*
X4179077Y-6849984D01*
X4179077Y-6849984D02*
X4217172Y-6849984D01*
X4217172Y-6849984D02*
X4236220Y-6840460D01*
X4236220Y-6840460D02*
X4245744Y-6830936D01*
X4245744Y-6830936D02*
X4255268Y-6811888D01*
X4255268Y-6811888D02*
X4255268Y-6773793D01*
X4255268Y-6773793D02*
X4245744Y-6754746D01*
X4245744Y-6754746D02*
X4236220Y-6745222D01*
X4236220Y-6745222D02*
X4217172Y-6735698D01*
X4350506Y-6849984D02*
X4388601Y-6849984D01*
X4388601Y-6849984D02*
X4407649Y-6840460D01*
X4407649Y-6840460D02*
X4417172Y-6830936D01*
X4417172Y-6830936D02*
X4436220Y-6802365D01*
X4436220Y-6802365D02*
X4445744Y-6764269D01*
X4445744Y-6764269D02*
X4445744Y-6688079D01*
X4445744Y-6688079D02*
X4436220Y-6669031D01*
X4436220Y-6669031D02*
X4426696Y-6659508D01*
X4426696Y-6659508D02*
X4407649Y-6649984D01*
X4407649Y-6649984D02*
X4369553Y-6649984D01*
X4369553Y-6649984D02*
X4350506Y-6659508D01*
X4350506Y-6659508D02*
X4340982Y-6669031D01*
X4340982Y-6669031D02*
X4331458Y-6688079D01*
X4331458Y-6688079D02*
X4331458Y-6735698D01*
X4331458Y-6735698D02*
X4340982Y-6754746D01*
X4340982Y-6754746D02*
X4350506Y-6764269D01*
X4350506Y-6764269D02*
X4369553Y-6773793D01*
X4369553Y-6773793D02*
X4407649Y-6773793D01*
X4407649Y-6773793D02*
X4426696Y-6764269D01*
X4426696Y-6764269D02*
X4436220Y-6754746D01*
X4436220Y-6754746D02*
X4445744Y-6735698D01*
X4521934Y-6649984D02*
X4521934Y-6688079D01*
X4598125Y-6649984D02*
X4598125Y-6688079D01*
X4893363Y-6926174D02*
X4883839Y-6916650D01*
X4883839Y-6916650D02*
X4864791Y-6888079D01*
X4864791Y-6888079D02*
X4855268Y-6869031D01*
X4855268Y-6869031D02*
X4845744Y-6840460D01*
X4845744Y-6840460D02*
X4836220Y-6792841D01*
X4836220Y-6792841D02*
X4836220Y-6754746D01*
X4836220Y-6754746D02*
X4845744Y-6707127D01*
X4845744Y-6707127D02*
X4855268Y-6678555D01*
X4855268Y-6678555D02*
X4864791Y-6659508D01*
X4864791Y-6659508D02*
X4883839Y-6630936D01*
X4883839Y-6630936D02*
X4893363Y-6621412D01*
X4960030Y-6669031D02*
X4969553Y-6659508D01*
X4969553Y-6659508D02*
X4988601Y-6649984D01*
X4988601Y-6649984D02*
X5036220Y-6649984D01*
X5036220Y-6649984D02*
X5055268Y-6659508D01*
X5055268Y-6659508D02*
X5064791Y-6669031D01*
X5064791Y-6669031D02*
X5074315Y-6688079D01*
X5074315Y-6688079D02*
X5074315Y-6707127D01*
X5074315Y-6707127D02*
X5064791Y-6735698D01*
X5064791Y-6735698D02*
X4950506Y-6849984D01*
X4950506Y-6849984D02*
X5074315Y-6849984D01*
X5198125Y-6649984D02*
X5217172Y-6649984D01*
X5217172Y-6649984D02*
X5236220Y-6659508D01*
X5236220Y-6659508D02*
X5245744Y-6669031D01*
X5245744Y-6669031D02*
X5255268Y-6688079D01*
X5255268Y-6688079D02*
X5264791Y-6726174D01*
X5264791Y-6726174D02*
X5264791Y-6773793D01*
X5264791Y-6773793D02*
X5255268Y-6811888D01*
X5255268Y-6811888D02*
X5245744Y-6830936D01*
X5245744Y-6830936D02*
X5236220Y-6840460D01*
X5236220Y-6840460D02*
X5217172Y-6849984D01*
X5217172Y-6849984D02*
X5198125Y-6849984D01*
X5198125Y-6849984D02*
X5179077Y-6840460D01*
X5179077Y-6840460D02*
X5169553Y-6830936D01*
X5169553Y-6830936D02*
X5160030Y-6811888D01*
X5160030Y-6811888D02*
X5150506Y-6773793D01*
X5150506Y-6773793D02*
X5150506Y-6726174D01*
X5150506Y-6726174D02*
X5160030Y-6688079D01*
X5160030Y-6688079D02*
X5169553Y-6669031D01*
X5169553Y-6669031D02*
X5179077Y-6659508D01*
X5179077Y-6659508D02*
X5198125Y-6649984D01*
X5502887Y-6849984D02*
X5502887Y-6649984D01*
X5588601Y-6849984D02*
X5588601Y-6745222D01*
X5588601Y-6745222D02*
X5579077Y-6726174D01*
X5579077Y-6726174D02*
X5560030Y-6716650D01*
X5560030Y-6716650D02*
X5531458Y-6716650D01*
X5531458Y-6716650D02*
X5512411Y-6726174D01*
X5512411Y-6726174D02*
X5502887Y-6735698D01*
X5712410Y-6849984D02*
X5693363Y-6840460D01*
X5693363Y-6840460D02*
X5683839Y-6830936D01*
X5683839Y-6830936D02*
X5674315Y-6811888D01*
X5674315Y-6811888D02*
X5674315Y-6754746D01*
X5674315Y-6754746D02*
X5683839Y-6735698D01*
X5683839Y-6735698D02*
X5693363Y-6726174D01*
X5693363Y-6726174D02*
X5712410Y-6716650D01*
X5712410Y-6716650D02*
X5740982Y-6716650D01*
X5740982Y-6716650D02*
X5760030Y-6726174D01*
X5760030Y-6726174D02*
X5769553Y-6735698D01*
X5769553Y-6735698D02*
X5779077Y-6754746D01*
X5779077Y-6754746D02*
X5779077Y-6811888D01*
X5779077Y-6811888D02*
X5769553Y-6830936D01*
X5769553Y-6830936D02*
X5760030Y-6840460D01*
X5760030Y-6840460D02*
X5740982Y-6849984D01*
X5740982Y-6849984D02*
X5712410Y-6849984D01*
X5893363Y-6849984D02*
X5874315Y-6840460D01*
X5874315Y-6840460D02*
X5864791Y-6821412D01*
X5864791Y-6821412D02*
X5864791Y-6649984D01*
X6045744Y-6840460D02*
X6026696Y-6849984D01*
X6026696Y-6849984D02*
X5988601Y-6849984D01*
X5988601Y-6849984D02*
X5969553Y-6840460D01*
X5969553Y-6840460D02*
X5960030Y-6821412D01*
X5960030Y-6821412D02*
X5960030Y-6745222D01*
X5960030Y-6745222D02*
X5969553Y-6726174D01*
X5969553Y-6726174D02*
X5988601Y-6716650D01*
X5988601Y-6716650D02*
X6026696Y-6716650D01*
X6026696Y-6716650D02*
X6045744Y-6726174D01*
X6045744Y-6726174D02*
X6055268Y-6745222D01*
X6055268Y-6745222D02*
X6055268Y-6764269D01*
X6055268Y-6764269D02*
X5960030Y-6783317D01*
X6131458Y-6840460D02*
X6150506Y-6849984D01*
X6150506Y-6849984D02*
X6188601Y-6849984D01*
X6188601Y-6849984D02*
X6207649Y-6840460D01*
X6207649Y-6840460D02*
X6217172Y-6821412D01*
X6217172Y-6821412D02*
X6217172Y-6811888D01*
X6217172Y-6811888D02*
X6207649Y-6792841D01*
X6207649Y-6792841D02*
X6188601Y-6783317D01*
X6188601Y-6783317D02*
X6160030Y-6783317D01*
X6160030Y-6783317D02*
X6140982Y-6773793D01*
X6140982Y-6773793D02*
X6131458Y-6754746D01*
X6131458Y-6754746D02*
X6131458Y-6745222D01*
X6131458Y-6745222D02*
X6140982Y-6726174D01*
X6140982Y-6726174D02*
X6160030Y-6716650D01*
X6160030Y-6716650D02*
X6188601Y-6716650D01*
X6188601Y-6716650D02*
X6207649Y-6726174D01*
X6283839Y-6926174D02*
X6293363Y-6916650D01*
X6293363Y-6916650D02*
X6312411Y-6888079D01*
X6312411Y-6888079D02*
X6321934Y-6869031D01*
X6321934Y-6869031D02*
X6331458Y-6840460D01*
X6331458Y-6840460D02*
X6340982Y-6792841D01*
X6340982Y-6792841D02*
X6340982Y-6754746D01*
X6340982Y-6754746D02*
X6331458Y-6707127D01*
X6331458Y-6707127D02*
X6321934Y-6678555D01*
X6321934Y-6678555D02*
X6312411Y-6659508D01*
X6312411Y-6659508D02*
X6293363Y-6630936D01*
X6293363Y-6630936D02*
X6283839Y-6621412D01*
D12*
X1307317Y-7049017D02*
X1307317Y-6995983D01*
X1254283Y-6995983D01*
X1254283Y-7049017D01*
X1307317Y-7049017D01*
D11*
X1617172Y-6913984D02*
X1636220Y-6913984D01*
X1636220Y-6913984D02*
X1655267Y-6923508D01*
X1655267Y-6923508D02*
X1664791Y-6933031D01*
X1664791Y-6933031D02*
X1674315Y-6952079D01*
X1674315Y-6952079D02*
X1683839Y-6990174D01*
X1683839Y-6990174D02*
X1683839Y-7037793D01*
X1683839Y-7037793D02*
X1674315Y-7075888D01*
X1674315Y-7075888D02*
X1664791Y-7094936D01*
X1664791Y-7094936D02*
X1655267Y-7104460D01*
X1655267Y-7104460D02*
X1636220Y-7113984D01*
X1636220Y-7113984D02*
X1617172Y-7113984D01*
X1617172Y-7113984D02*
X1598124Y-7104460D01*
X1598124Y-7104460D02*
X1588601Y-7094936D01*
X1588601Y-7094936D02*
X1579077Y-7075888D01*
X1579077Y-7075888D02*
X1569553Y-7037793D01*
X1569553Y-7037793D02*
X1569553Y-6990174D01*
X1569553Y-6990174D02*
X1579077Y-6952079D01*
X1579077Y-6952079D02*
X1588601Y-6933031D01*
X1588601Y-6933031D02*
X1598124Y-6923508D01*
X1598124Y-6923508D02*
X1617172Y-6913984D01*
X1769553Y-7094936D02*
X1779077Y-7104460D01*
X1779077Y-7104460D02*
X1769553Y-7113984D01*
X1769553Y-7113984D02*
X1760029Y-7104460D01*
X1760029Y-7104460D02*
X1769553Y-7094936D01*
X1769553Y-7094936D02*
X1769553Y-7113984D01*
X1845743Y-6913984D02*
X1979077Y-6913984D01*
X1979077Y-6913984D02*
X1893362Y-7113984D01*
X2150505Y-6913984D02*
X2055267Y-6913984D01*
X2055267Y-6913984D02*
X2045743Y-7009222D01*
X2045743Y-7009222D02*
X2055267Y-6999698D01*
X2055267Y-6999698D02*
X2074315Y-6990174D01*
X2074315Y-6990174D02*
X2121934Y-6990174D01*
X2121934Y-6990174D02*
X2140982Y-6999698D01*
X2140982Y-6999698D02*
X2150505Y-7009222D01*
X2150505Y-7009222D02*
X2160029Y-7028269D01*
X2160029Y-7028269D02*
X2160029Y-7075888D01*
X2160029Y-7075888D02*
X2150505Y-7094936D01*
X2150505Y-7094936D02*
X2140982Y-7104460D01*
X2140982Y-7104460D02*
X2121934Y-7113984D01*
X2121934Y-7113984D02*
X2074315Y-7113984D01*
X2074315Y-7113984D02*
X2055267Y-7104460D01*
X2055267Y-7104460D02*
X2045743Y-7094936D01*
X2283839Y-6913984D02*
X2302886Y-6913984D01*
X2302886Y-6913984D02*
X2321934Y-6923508D01*
X2321934Y-6923508D02*
X2331458Y-6933031D01*
X2331458Y-6933031D02*
X2340982Y-6952079D01*
X2340982Y-6952079D02*
X2350505Y-6990174D01*
X2350505Y-6990174D02*
X2350505Y-7037793D01*
X2350505Y-7037793D02*
X2340982Y-7075888D01*
X2340982Y-7075888D02*
X2331458Y-7094936D01*
X2331458Y-7094936D02*
X2321934Y-7104460D01*
X2321934Y-7104460D02*
X2302886Y-7113984D01*
X2302886Y-7113984D02*
X2283839Y-7113984D01*
X2283839Y-7113984D02*
X2264791Y-7104460D01*
X2264791Y-7104460D02*
X2255267Y-7094936D01*
X2255267Y-7094936D02*
X2245744Y-7075888D01*
X2245744Y-7075888D02*
X2236220Y-7037793D01*
X2236220Y-7037793D02*
X2236220Y-6990174D01*
X2236220Y-6990174D02*
X2245744Y-6952079D01*
X2245744Y-6952079D02*
X2255267Y-6933031D01*
X2255267Y-6933031D02*
X2264791Y-6923508D01*
X2264791Y-6923508D02*
X2283839Y-6913984D01*
X2436220Y-7113984D02*
X2436220Y-6980650D01*
X2436220Y-6999698D02*
X2445744Y-6990174D01*
X2445744Y-6990174D02*
X2464791Y-6980650D01*
X2464791Y-6980650D02*
X2493363Y-6980650D01*
X2493363Y-6980650D02*
X2512410Y-6990174D01*
X2512410Y-6990174D02*
X2521934Y-7009222D01*
X2521934Y-7009222D02*
X2521934Y-7113984D01*
X2521934Y-7009222D02*
X2531458Y-6990174D01*
X2531458Y-6990174D02*
X2550505Y-6980650D01*
X2550505Y-6980650D02*
X2579077Y-6980650D01*
X2579077Y-6980650D02*
X2598125Y-6990174D01*
X2598125Y-6990174D02*
X2607648Y-7009222D01*
X2607648Y-7009222D02*
X2607648Y-7113984D01*
X2702886Y-7113984D02*
X2702886Y-6980650D01*
X2702886Y-6999698D02*
X2712410Y-6990174D01*
X2712410Y-6990174D02*
X2731458Y-6980650D01*
X2731458Y-6980650D02*
X2760029Y-6980650D01*
X2760029Y-6980650D02*
X2779077Y-6990174D01*
X2779077Y-6990174D02*
X2788601Y-7009222D01*
X2788601Y-7009222D02*
X2788601Y-7113984D01*
X2788601Y-7009222D02*
X2798124Y-6990174D01*
X2798124Y-6990174D02*
X2817172Y-6980650D01*
X2817172Y-6980650D02*
X2845743Y-6980650D01*
X2845743Y-6980650D02*
X2864791Y-6990174D01*
X2864791Y-6990174D02*
X2874315Y-7009222D01*
X2874315Y-7009222D02*
X2874315Y-7113984D01*
X3264791Y-6904460D02*
X3093363Y-7161603D01*
X3521934Y-6913984D02*
X3540982Y-6913984D01*
X3540982Y-6913984D02*
X3560029Y-6923508D01*
X3560029Y-6923508D02*
X3569553Y-6933031D01*
X3569553Y-6933031D02*
X3579077Y-6952079D01*
X3579077Y-6952079D02*
X3588601Y-6990174D01*
X3588601Y-6990174D02*
X3588601Y-7037793D01*
X3588601Y-7037793D02*
X3579077Y-7075888D01*
X3579077Y-7075888D02*
X3569553Y-7094936D01*
X3569553Y-7094936D02*
X3560029Y-7104460D01*
X3560029Y-7104460D02*
X3540982Y-7113984D01*
X3540982Y-7113984D02*
X3521934Y-7113984D01*
X3521934Y-7113984D02*
X3502886Y-7104460D01*
X3502886Y-7104460D02*
X3493363Y-7094936D01*
X3493363Y-7094936D02*
X3483839Y-7075888D01*
X3483839Y-7075888D02*
X3474315Y-7037793D01*
X3474315Y-7037793D02*
X3474315Y-6990174D01*
X3474315Y-6990174D02*
X3483839Y-6952079D01*
X3483839Y-6952079D02*
X3493363Y-6933031D01*
X3493363Y-6933031D02*
X3502886Y-6923508D01*
X3502886Y-6923508D02*
X3521934Y-6913984D01*
X3674315Y-7094936D02*
X3683839Y-7104460D01*
X3683839Y-7104460D02*
X3674315Y-7113984D01*
X3674315Y-7113984D02*
X3664791Y-7104460D01*
X3664791Y-7104460D02*
X3674315Y-7094936D01*
X3674315Y-7094936D02*
X3674315Y-7113984D01*
X3807648Y-6913984D02*
X3826696Y-6913984D01*
X3826696Y-6913984D02*
X3845744Y-6923508D01*
X3845744Y-6923508D02*
X3855267Y-6933031D01*
X3855267Y-6933031D02*
X3864791Y-6952079D01*
X3864791Y-6952079D02*
X3874315Y-6990174D01*
X3874315Y-6990174D02*
X3874315Y-7037793D01*
X3874315Y-7037793D02*
X3864791Y-7075888D01*
X3864791Y-7075888D02*
X3855267Y-7094936D01*
X3855267Y-7094936D02*
X3845744Y-7104460D01*
X3845744Y-7104460D02*
X3826696Y-7113984D01*
X3826696Y-7113984D02*
X3807648Y-7113984D01*
X3807648Y-7113984D02*
X3788601Y-7104460D01*
X3788601Y-7104460D02*
X3779077Y-7094936D01*
X3779077Y-7094936D02*
X3769553Y-7075888D01*
X3769553Y-7075888D02*
X3760029Y-7037793D01*
X3760029Y-7037793D02*
X3760029Y-6990174D01*
X3760029Y-6990174D02*
X3769553Y-6952079D01*
X3769553Y-6952079D02*
X3779077Y-6933031D01*
X3779077Y-6933031D02*
X3788601Y-6923508D01*
X3788601Y-6923508D02*
X3807648Y-6913984D01*
X3950506Y-6933031D02*
X3960029Y-6923508D01*
X3960029Y-6923508D02*
X3979077Y-6913984D01*
X3979077Y-6913984D02*
X4026696Y-6913984D01*
X4026696Y-6913984D02*
X4045744Y-6923508D01*
X4045744Y-6923508D02*
X4055267Y-6933031D01*
X4055267Y-6933031D02*
X4064791Y-6952079D01*
X4064791Y-6952079D02*
X4064791Y-6971127D01*
X4064791Y-6971127D02*
X4055267Y-6999698D01*
X4055267Y-6999698D02*
X3940982Y-7113984D01*
X3940982Y-7113984D02*
X4064791Y-7113984D01*
X4160029Y-7113984D02*
X4198125Y-7113984D01*
X4198125Y-7113984D02*
X4217172Y-7104460D01*
X4217172Y-7104460D02*
X4226696Y-7094936D01*
X4226696Y-7094936D02*
X4245744Y-7066365D01*
X4245744Y-7066365D02*
X4255268Y-7028269D01*
X4255268Y-7028269D02*
X4255268Y-6952079D01*
X4255268Y-6952079D02*
X4245744Y-6933031D01*
X4245744Y-6933031D02*
X4236220Y-6923508D01*
X4236220Y-6923508D02*
X4217172Y-6913984D01*
X4217172Y-6913984D02*
X4179077Y-6913984D01*
X4179077Y-6913984D02*
X4160029Y-6923508D01*
X4160029Y-6923508D02*
X4150506Y-6933031D01*
X4150506Y-6933031D02*
X4140982Y-6952079D01*
X4140982Y-6952079D02*
X4140982Y-6999698D01*
X4140982Y-6999698D02*
X4150506Y-7018746D01*
X4150506Y-7018746D02*
X4160029Y-7028269D01*
X4160029Y-7028269D02*
X4179077Y-7037793D01*
X4179077Y-7037793D02*
X4217172Y-7037793D01*
X4217172Y-7037793D02*
X4236220Y-7028269D01*
X4236220Y-7028269D02*
X4245744Y-7018746D01*
X4245744Y-7018746D02*
X4255268Y-6999698D01*
X4436220Y-6913984D02*
X4340982Y-6913984D01*
X4340982Y-6913984D02*
X4331458Y-7009222D01*
X4331458Y-7009222D02*
X4340982Y-6999698D01*
X4340982Y-6999698D02*
X4360029Y-6990174D01*
X4360029Y-6990174D02*
X4407649Y-6990174D01*
X4407649Y-6990174D02*
X4426696Y-6999698D01*
X4426696Y-6999698D02*
X4436220Y-7009222D01*
X4436220Y-7009222D02*
X4445744Y-7028269D01*
X4445744Y-7028269D02*
X4445744Y-7075888D01*
X4445744Y-7075888D02*
X4436220Y-7094936D01*
X4436220Y-7094936D02*
X4426696Y-7104460D01*
X4426696Y-7104460D02*
X4407649Y-7113984D01*
X4407649Y-7113984D02*
X4360029Y-7113984D01*
X4360029Y-7113984D02*
X4340982Y-7104460D01*
X4340982Y-7104460D02*
X4331458Y-7094936D01*
X4521934Y-6913984D02*
X4521934Y-6952079D01*
X4598125Y-6913984D02*
X4598125Y-6952079D01*
X4893363Y-7190174D02*
X4883839Y-7180650D01*
X4883839Y-7180650D02*
X4864791Y-7152079D01*
X4864791Y-7152079D02*
X4855268Y-7133031D01*
X4855268Y-7133031D02*
X4845744Y-7104460D01*
X4845744Y-7104460D02*
X4836220Y-7056841D01*
X4836220Y-7056841D02*
X4836220Y-7018746D01*
X4836220Y-7018746D02*
X4845744Y-6971127D01*
X4845744Y-6971127D02*
X4855268Y-6942555D01*
X4855268Y-6942555D02*
X4864791Y-6923508D01*
X4864791Y-6923508D02*
X4883839Y-6894936D01*
X4883839Y-6894936D02*
X4893363Y-6885412D01*
X5074315Y-7113984D02*
X4960030Y-7113984D01*
X5017172Y-7113984D02*
X5017172Y-6913984D01*
X5017172Y-6913984D02*
X4998125Y-6942555D01*
X4998125Y-6942555D02*
X4979077Y-6961603D01*
X4979077Y-6961603D02*
X4960030Y-6971127D01*
X5188601Y-6999698D02*
X5169553Y-6990174D01*
X5169553Y-6990174D02*
X5160030Y-6980650D01*
X5160030Y-6980650D02*
X5150506Y-6961603D01*
X5150506Y-6961603D02*
X5150506Y-6952079D01*
X5150506Y-6952079D02*
X5160030Y-6933031D01*
X5160030Y-6933031D02*
X5169553Y-6923508D01*
X5169553Y-6923508D02*
X5188601Y-6913984D01*
X5188601Y-6913984D02*
X5226696Y-6913984D01*
X5226696Y-6913984D02*
X5245744Y-6923508D01*
X5245744Y-6923508D02*
X5255268Y-6933031D01*
X5255268Y-6933031D02*
X5264791Y-6952079D01*
X5264791Y-6952079D02*
X5264791Y-6961603D01*
X5264791Y-6961603D02*
X5255268Y-6980650D01*
X5255268Y-6980650D02*
X5245744Y-6990174D01*
X5245744Y-6990174D02*
X5226696Y-6999698D01*
X5226696Y-6999698D02*
X5188601Y-6999698D01*
X5188601Y-6999698D02*
X5169553Y-7009222D01*
X5169553Y-7009222D02*
X5160030Y-7018746D01*
X5160030Y-7018746D02*
X5150506Y-7037793D01*
X5150506Y-7037793D02*
X5150506Y-7075888D01*
X5150506Y-7075888D02*
X5160030Y-7094936D01*
X5160030Y-7094936D02*
X5169553Y-7104460D01*
X5169553Y-7104460D02*
X5188601Y-7113984D01*
X5188601Y-7113984D02*
X5226696Y-7113984D01*
X5226696Y-7113984D02*
X5245744Y-7104460D01*
X5245744Y-7104460D02*
X5255268Y-7094936D01*
X5255268Y-7094936D02*
X5264791Y-7075888D01*
X5264791Y-7075888D02*
X5264791Y-7037793D01*
X5264791Y-7037793D02*
X5255268Y-7018746D01*
X5255268Y-7018746D02*
X5245744Y-7009222D01*
X5245744Y-7009222D02*
X5226696Y-6999698D01*
X5502887Y-7113984D02*
X5502887Y-6913984D01*
X5588601Y-7113984D02*
X5588601Y-7009222D01*
X5588601Y-7009222D02*
X5579077Y-6990174D01*
X5579077Y-6990174D02*
X5560030Y-6980650D01*
X5560030Y-6980650D02*
X5531458Y-6980650D01*
X5531458Y-6980650D02*
X5512411Y-6990174D01*
X5512411Y-6990174D02*
X5502887Y-6999698D01*
X5712410Y-7113984D02*
X5693363Y-7104460D01*
X5693363Y-7104460D02*
X5683839Y-7094936D01*
X5683839Y-7094936D02*
X5674315Y-7075888D01*
X5674315Y-7075888D02*
X5674315Y-7018746D01*
X5674315Y-7018746D02*
X5683839Y-6999698D01*
X5683839Y-6999698D02*
X5693363Y-6990174D01*
X5693363Y-6990174D02*
X5712410Y-6980650D01*
X5712410Y-6980650D02*
X5740982Y-6980650D01*
X5740982Y-6980650D02*
X5760030Y-6990174D01*
X5760030Y-6990174D02*
X5769553Y-6999698D01*
X5769553Y-6999698D02*
X5779077Y-7018746D01*
X5779077Y-7018746D02*
X5779077Y-7075888D01*
X5779077Y-7075888D02*
X5769553Y-7094936D01*
X5769553Y-7094936D02*
X5760030Y-7104460D01*
X5760030Y-7104460D02*
X5740982Y-7113984D01*
X5740982Y-7113984D02*
X5712410Y-7113984D01*
X5893363Y-7113984D02*
X5874315Y-7104460D01*
X5874315Y-7104460D02*
X5864791Y-7085412D01*
X5864791Y-7085412D02*
X5864791Y-6913984D01*
X6045744Y-7104460D02*
X6026696Y-7113984D01*
X6026696Y-7113984D02*
X5988601Y-7113984D01*
X5988601Y-7113984D02*
X5969553Y-7104460D01*
X5969553Y-7104460D02*
X5960030Y-7085412D01*
X5960030Y-7085412D02*
X5960030Y-7009222D01*
X5960030Y-7009222D02*
X5969553Y-6990174D01*
X5969553Y-6990174D02*
X5988601Y-6980650D01*
X5988601Y-6980650D02*
X6026696Y-6980650D01*
X6026696Y-6980650D02*
X6045744Y-6990174D01*
X6045744Y-6990174D02*
X6055268Y-7009222D01*
X6055268Y-7009222D02*
X6055268Y-7028269D01*
X6055268Y-7028269D02*
X5960030Y-7047317D01*
X6131458Y-7104460D02*
X6150506Y-7113984D01*
X6150506Y-7113984D02*
X6188601Y-7113984D01*
X6188601Y-7113984D02*
X6207649Y-7104460D01*
X6207649Y-7104460D02*
X6217172Y-7085412D01*
X6217172Y-7085412D02*
X6217172Y-7075888D01*
X6217172Y-7075888D02*
X6207649Y-7056841D01*
X6207649Y-7056841D02*
X6188601Y-7047317D01*
X6188601Y-7047317D02*
X6160030Y-7047317D01*
X6160030Y-7047317D02*
X6140982Y-7037793D01*
X6140982Y-7037793D02*
X6131458Y-7018746D01*
X6131458Y-7018746D02*
X6131458Y-7009222D01*
X6131458Y-7009222D02*
X6140982Y-6990174D01*
X6140982Y-6990174D02*
X6160030Y-6980650D01*
X6160030Y-6980650D02*
X6188601Y-6980650D01*
X6188601Y-6980650D02*
X6207649Y-6990174D01*
X6283839Y-7190174D02*
X6293363Y-7180650D01*
X6293363Y-7180650D02*
X6312411Y-7152079D01*
X6312411Y-7152079D02*
X6321934Y-7133031D01*
X6321934Y-7133031D02*
X6331458Y-7104460D01*
X6331458Y-7104460D02*
X6340982Y-7056841D01*
X6340982Y-7056841D02*
X6340982Y-7018746D01*
X6340982Y-7018746D02*
X6331458Y-6971127D01*
X6331458Y-6971127D02*
X6321934Y-6942555D01*
X6321934Y-6942555D02*
X6312411Y-6923508D01*
X6312411Y-6923508D02*
X6293363Y-6894936D01*
X6293363Y-6894936D02*
X6283839Y-6885412D01*
D12*
X1278300Y-7326500D02*
X1318300Y-7286500D01*
X1278300Y-7246500D01*
X1238300Y-7286500D01*
X1278300Y-7326500D01*
D11*
X1617172Y-7177984D02*
X1636220Y-7177984D01*
X1636220Y-7177984D02*
X1655267Y-7187508D01*
X1655267Y-7187508D02*
X1664791Y-7197031D01*
X1664791Y-7197031D02*
X1674315Y-7216079D01*
X1674315Y-7216079D02*
X1683839Y-7254174D01*
X1683839Y-7254174D02*
X1683839Y-7301793D01*
X1683839Y-7301793D02*
X1674315Y-7339888D01*
X1674315Y-7339888D02*
X1664791Y-7358936D01*
X1664791Y-7358936D02*
X1655267Y-7368460D01*
X1655267Y-7368460D02*
X1636220Y-7377984D01*
X1636220Y-7377984D02*
X1617172Y-7377984D01*
X1617172Y-7377984D02*
X1598124Y-7368460D01*
X1598124Y-7368460D02*
X1588601Y-7358936D01*
X1588601Y-7358936D02*
X1579077Y-7339888D01*
X1579077Y-7339888D02*
X1569553Y-7301793D01*
X1569553Y-7301793D02*
X1569553Y-7254174D01*
X1569553Y-7254174D02*
X1579077Y-7216079D01*
X1579077Y-7216079D02*
X1588601Y-7197031D01*
X1588601Y-7197031D02*
X1598124Y-7187508D01*
X1598124Y-7187508D02*
X1617172Y-7177984D01*
X1769553Y-7358936D02*
X1779077Y-7368460D01*
X1779077Y-7368460D02*
X1769553Y-7377984D01*
X1769553Y-7377984D02*
X1760029Y-7368460D01*
X1760029Y-7368460D02*
X1769553Y-7358936D01*
X1769553Y-7358936D02*
X1769553Y-7377984D01*
X1893362Y-7263698D02*
X1874315Y-7254174D01*
X1874315Y-7254174D02*
X1864791Y-7244650D01*
X1864791Y-7244650D02*
X1855267Y-7225603D01*
X1855267Y-7225603D02*
X1855267Y-7216079D01*
X1855267Y-7216079D02*
X1864791Y-7197031D01*
X1864791Y-7197031D02*
X1874315Y-7187508D01*
X1874315Y-7187508D02*
X1893362Y-7177984D01*
X1893362Y-7177984D02*
X1931458Y-7177984D01*
X1931458Y-7177984D02*
X1950505Y-7187508D01*
X1950505Y-7187508D02*
X1960029Y-7197031D01*
X1960029Y-7197031D02*
X1969553Y-7216079D01*
X1969553Y-7216079D02*
X1969553Y-7225603D01*
X1969553Y-7225603D02*
X1960029Y-7244650D01*
X1960029Y-7244650D02*
X1950505Y-7254174D01*
X1950505Y-7254174D02*
X1931458Y-7263698D01*
X1931458Y-7263698D02*
X1893362Y-7263698D01*
X1893362Y-7263698D02*
X1874315Y-7273222D01*
X1874315Y-7273222D02*
X1864791Y-7282746D01*
X1864791Y-7282746D02*
X1855267Y-7301793D01*
X1855267Y-7301793D02*
X1855267Y-7339888D01*
X1855267Y-7339888D02*
X1864791Y-7358936D01*
X1864791Y-7358936D02*
X1874315Y-7368460D01*
X1874315Y-7368460D02*
X1893362Y-7377984D01*
X1893362Y-7377984D02*
X1931458Y-7377984D01*
X1931458Y-7377984D02*
X1950505Y-7368460D01*
X1950505Y-7368460D02*
X1960029Y-7358936D01*
X1960029Y-7358936D02*
X1969553Y-7339888D01*
X1969553Y-7339888D02*
X1969553Y-7301793D01*
X1969553Y-7301793D02*
X1960029Y-7282746D01*
X1960029Y-7282746D02*
X1950505Y-7273222D01*
X1950505Y-7273222D02*
X1931458Y-7263698D01*
X2093362Y-7177984D02*
X2112410Y-7177984D01*
X2112410Y-7177984D02*
X2131458Y-7187508D01*
X2131458Y-7187508D02*
X2140982Y-7197031D01*
X2140982Y-7197031D02*
X2150505Y-7216079D01*
X2150505Y-7216079D02*
X2160029Y-7254174D01*
X2160029Y-7254174D02*
X2160029Y-7301793D01*
X2160029Y-7301793D02*
X2150505Y-7339888D01*
X2150505Y-7339888D02*
X2140982Y-7358936D01*
X2140982Y-7358936D02*
X2131458Y-7368460D01*
X2131458Y-7368460D02*
X2112410Y-7377984D01*
X2112410Y-7377984D02*
X2093362Y-7377984D01*
X2093362Y-7377984D02*
X2074315Y-7368460D01*
X2074315Y-7368460D02*
X2064791Y-7358936D01*
X2064791Y-7358936D02*
X2055267Y-7339888D01*
X2055267Y-7339888D02*
X2045743Y-7301793D01*
X2045743Y-7301793D02*
X2045743Y-7254174D01*
X2045743Y-7254174D02*
X2055267Y-7216079D01*
X2055267Y-7216079D02*
X2064791Y-7197031D01*
X2064791Y-7197031D02*
X2074315Y-7187508D01*
X2074315Y-7187508D02*
X2093362Y-7177984D01*
X2283839Y-7177984D02*
X2302886Y-7177984D01*
X2302886Y-7177984D02*
X2321934Y-7187508D01*
X2321934Y-7187508D02*
X2331458Y-7197031D01*
X2331458Y-7197031D02*
X2340982Y-7216079D01*
X2340982Y-7216079D02*
X2350505Y-7254174D01*
X2350505Y-7254174D02*
X2350505Y-7301793D01*
X2350505Y-7301793D02*
X2340982Y-7339888D01*
X2340982Y-7339888D02*
X2331458Y-7358936D01*
X2331458Y-7358936D02*
X2321934Y-7368460D01*
X2321934Y-7368460D02*
X2302886Y-7377984D01*
X2302886Y-7377984D02*
X2283839Y-7377984D01*
X2283839Y-7377984D02*
X2264791Y-7368460D01*
X2264791Y-7368460D02*
X2255267Y-7358936D01*
X2255267Y-7358936D02*
X2245744Y-7339888D01*
X2245744Y-7339888D02*
X2236220Y-7301793D01*
X2236220Y-7301793D02*
X2236220Y-7254174D01*
X2236220Y-7254174D02*
X2245744Y-7216079D01*
X2245744Y-7216079D02*
X2255267Y-7197031D01*
X2255267Y-7197031D02*
X2264791Y-7187508D01*
X2264791Y-7187508D02*
X2283839Y-7177984D01*
X2436220Y-7377984D02*
X2436220Y-7244650D01*
X2436220Y-7263698D02*
X2445744Y-7254174D01*
X2445744Y-7254174D02*
X2464791Y-7244650D01*
X2464791Y-7244650D02*
X2493363Y-7244650D01*
X2493363Y-7244650D02*
X2512410Y-7254174D01*
X2512410Y-7254174D02*
X2521934Y-7273222D01*
X2521934Y-7273222D02*
X2521934Y-7377984D01*
X2521934Y-7273222D02*
X2531458Y-7254174D01*
X2531458Y-7254174D02*
X2550505Y-7244650D01*
X2550505Y-7244650D02*
X2579077Y-7244650D01*
X2579077Y-7244650D02*
X2598125Y-7254174D01*
X2598125Y-7254174D02*
X2607648Y-7273222D01*
X2607648Y-7273222D02*
X2607648Y-7377984D01*
X2702886Y-7377984D02*
X2702886Y-7244650D01*
X2702886Y-7263698D02*
X2712410Y-7254174D01*
X2712410Y-7254174D02*
X2731458Y-7244650D01*
X2731458Y-7244650D02*
X2760029Y-7244650D01*
X2760029Y-7244650D02*
X2779077Y-7254174D01*
X2779077Y-7254174D02*
X2788601Y-7273222D01*
X2788601Y-7273222D02*
X2788601Y-7377984D01*
X2788601Y-7273222D02*
X2798124Y-7254174D01*
X2798124Y-7254174D02*
X2817172Y-7244650D01*
X2817172Y-7244650D02*
X2845743Y-7244650D01*
X2845743Y-7244650D02*
X2864791Y-7254174D01*
X2864791Y-7254174D02*
X2874315Y-7273222D01*
X2874315Y-7273222D02*
X2874315Y-7377984D01*
X3264791Y-7168460D02*
X3093363Y-7425603D01*
X3521934Y-7177984D02*
X3540982Y-7177984D01*
X3540982Y-7177984D02*
X3560029Y-7187508D01*
X3560029Y-7187508D02*
X3569553Y-7197031D01*
X3569553Y-7197031D02*
X3579077Y-7216079D01*
X3579077Y-7216079D02*
X3588601Y-7254174D01*
X3588601Y-7254174D02*
X3588601Y-7301793D01*
X3588601Y-7301793D02*
X3579077Y-7339888D01*
X3579077Y-7339888D02*
X3569553Y-7358936D01*
X3569553Y-7358936D02*
X3560029Y-7368460D01*
X3560029Y-7368460D02*
X3540982Y-7377984D01*
X3540982Y-7377984D02*
X3521934Y-7377984D01*
X3521934Y-7377984D02*
X3502886Y-7368460D01*
X3502886Y-7368460D02*
X3493363Y-7358936D01*
X3493363Y-7358936D02*
X3483839Y-7339888D01*
X3483839Y-7339888D02*
X3474315Y-7301793D01*
X3474315Y-7301793D02*
X3474315Y-7254174D01*
X3474315Y-7254174D02*
X3483839Y-7216079D01*
X3483839Y-7216079D02*
X3493363Y-7197031D01*
X3493363Y-7197031D02*
X3502886Y-7187508D01*
X3502886Y-7187508D02*
X3521934Y-7177984D01*
X3674315Y-7358936D02*
X3683839Y-7368460D01*
X3683839Y-7368460D02*
X3674315Y-7377984D01*
X3674315Y-7377984D02*
X3664791Y-7368460D01*
X3664791Y-7368460D02*
X3674315Y-7358936D01*
X3674315Y-7358936D02*
X3674315Y-7377984D01*
X3807648Y-7177984D02*
X3826696Y-7177984D01*
X3826696Y-7177984D02*
X3845744Y-7187508D01*
X3845744Y-7187508D02*
X3855267Y-7197031D01*
X3855267Y-7197031D02*
X3864791Y-7216079D01*
X3864791Y-7216079D02*
X3874315Y-7254174D01*
X3874315Y-7254174D02*
X3874315Y-7301793D01*
X3874315Y-7301793D02*
X3864791Y-7339888D01*
X3864791Y-7339888D02*
X3855267Y-7358936D01*
X3855267Y-7358936D02*
X3845744Y-7368460D01*
X3845744Y-7368460D02*
X3826696Y-7377984D01*
X3826696Y-7377984D02*
X3807648Y-7377984D01*
X3807648Y-7377984D02*
X3788601Y-7368460D01*
X3788601Y-7368460D02*
X3779077Y-7358936D01*
X3779077Y-7358936D02*
X3769553Y-7339888D01*
X3769553Y-7339888D02*
X3760029Y-7301793D01*
X3760029Y-7301793D02*
X3760029Y-7254174D01*
X3760029Y-7254174D02*
X3769553Y-7216079D01*
X3769553Y-7216079D02*
X3779077Y-7197031D01*
X3779077Y-7197031D02*
X3788601Y-7187508D01*
X3788601Y-7187508D02*
X3807648Y-7177984D01*
X3940982Y-7177984D02*
X4064791Y-7177984D01*
X4064791Y-7177984D02*
X3998125Y-7254174D01*
X3998125Y-7254174D02*
X4026696Y-7254174D01*
X4026696Y-7254174D02*
X4045744Y-7263698D01*
X4045744Y-7263698D02*
X4055267Y-7273222D01*
X4055267Y-7273222D02*
X4064791Y-7292269D01*
X4064791Y-7292269D02*
X4064791Y-7339888D01*
X4064791Y-7339888D02*
X4055267Y-7358936D01*
X4055267Y-7358936D02*
X4045744Y-7368460D01*
X4045744Y-7368460D02*
X4026696Y-7377984D01*
X4026696Y-7377984D02*
X3969553Y-7377984D01*
X3969553Y-7377984D02*
X3950506Y-7368460D01*
X3950506Y-7368460D02*
X3940982Y-7358936D01*
X4255268Y-7377984D02*
X4140982Y-7377984D01*
X4198125Y-7377984D02*
X4198125Y-7177984D01*
X4198125Y-7177984D02*
X4179077Y-7206555D01*
X4179077Y-7206555D02*
X4160029Y-7225603D01*
X4160029Y-7225603D02*
X4140982Y-7235127D01*
X4436220Y-7177984D02*
X4340982Y-7177984D01*
X4340982Y-7177984D02*
X4331458Y-7273222D01*
X4331458Y-7273222D02*
X4340982Y-7263698D01*
X4340982Y-7263698D02*
X4360029Y-7254174D01*
X4360029Y-7254174D02*
X4407649Y-7254174D01*
X4407649Y-7254174D02*
X4426696Y-7263698D01*
X4426696Y-7263698D02*
X4436220Y-7273222D01*
X4436220Y-7273222D02*
X4445744Y-7292269D01*
X4445744Y-7292269D02*
X4445744Y-7339888D01*
X4445744Y-7339888D02*
X4436220Y-7358936D01*
X4436220Y-7358936D02*
X4426696Y-7368460D01*
X4426696Y-7368460D02*
X4407649Y-7377984D01*
X4407649Y-7377984D02*
X4360029Y-7377984D01*
X4360029Y-7377984D02*
X4340982Y-7368460D01*
X4340982Y-7368460D02*
X4331458Y-7358936D01*
X4521934Y-7177984D02*
X4521934Y-7216079D01*
X4598125Y-7177984D02*
X4598125Y-7216079D01*
X4893363Y-7454174D02*
X4883839Y-7444650D01*
X4883839Y-7444650D02*
X4864791Y-7416079D01*
X4864791Y-7416079D02*
X4855268Y-7397031D01*
X4855268Y-7397031D02*
X4845744Y-7368460D01*
X4845744Y-7368460D02*
X4836220Y-7320841D01*
X4836220Y-7320841D02*
X4836220Y-7282746D01*
X4836220Y-7282746D02*
X4845744Y-7235127D01*
X4845744Y-7235127D02*
X4855268Y-7206555D01*
X4855268Y-7206555D02*
X4864791Y-7187508D01*
X4864791Y-7187508D02*
X4883839Y-7158936D01*
X4883839Y-7158936D02*
X4893363Y-7149412D01*
X5007649Y-7177984D02*
X5026696Y-7177984D01*
X5026696Y-7177984D02*
X5045744Y-7187508D01*
X5045744Y-7187508D02*
X5055268Y-7197031D01*
X5055268Y-7197031D02*
X5064791Y-7216079D01*
X5064791Y-7216079D02*
X5074315Y-7254174D01*
X5074315Y-7254174D02*
X5074315Y-7301793D01*
X5074315Y-7301793D02*
X5064791Y-7339888D01*
X5064791Y-7339888D02*
X5055268Y-7358936D01*
X5055268Y-7358936D02*
X5045744Y-7368460D01*
X5045744Y-7368460D02*
X5026696Y-7377984D01*
X5026696Y-7377984D02*
X5007649Y-7377984D01*
X5007649Y-7377984D02*
X4988601Y-7368460D01*
X4988601Y-7368460D02*
X4979077Y-7358936D01*
X4979077Y-7358936D02*
X4969553Y-7339888D01*
X4969553Y-7339888D02*
X4960030Y-7301793D01*
X4960030Y-7301793D02*
X4960030Y-7254174D01*
X4960030Y-7254174D02*
X4969553Y-7216079D01*
X4969553Y-7216079D02*
X4979077Y-7197031D01*
X4979077Y-7197031D02*
X4988601Y-7187508D01*
X4988601Y-7187508D02*
X5007649Y-7177984D01*
X5312411Y-7377984D02*
X5312411Y-7177984D01*
X5398125Y-7377984D02*
X5398125Y-7273222D01*
X5398125Y-7273222D02*
X5388601Y-7254174D01*
X5388601Y-7254174D02*
X5369553Y-7244650D01*
X5369553Y-7244650D02*
X5340982Y-7244650D01*
X5340982Y-7244650D02*
X5321934Y-7254174D01*
X5321934Y-7254174D02*
X5312411Y-7263698D01*
X5521934Y-7377984D02*
X5502887Y-7368460D01*
X5502887Y-7368460D02*
X5493363Y-7358936D01*
X5493363Y-7358936D02*
X5483839Y-7339888D01*
X5483839Y-7339888D02*
X5483839Y-7282746D01*
X5483839Y-7282746D02*
X5493363Y-7263698D01*
X5493363Y-7263698D02*
X5502887Y-7254174D01*
X5502887Y-7254174D02*
X5521934Y-7244650D01*
X5521934Y-7244650D02*
X5550506Y-7244650D01*
X5550506Y-7244650D02*
X5569553Y-7254174D01*
X5569553Y-7254174D02*
X5579077Y-7263698D01*
X5579077Y-7263698D02*
X5588601Y-7282746D01*
X5588601Y-7282746D02*
X5588601Y-7339888D01*
X5588601Y-7339888D02*
X5579077Y-7358936D01*
X5579077Y-7358936D02*
X5569553Y-7368460D01*
X5569553Y-7368460D02*
X5550506Y-7377984D01*
X5550506Y-7377984D02*
X5521934Y-7377984D01*
X5702887Y-7377984D02*
X5683839Y-7368460D01*
X5683839Y-7368460D02*
X5674315Y-7349412D01*
X5674315Y-7349412D02*
X5674315Y-7177984D01*
X5855268Y-7368460D02*
X5836220Y-7377984D01*
X5836220Y-7377984D02*
X5798125Y-7377984D01*
X5798125Y-7377984D02*
X5779077Y-7368460D01*
X5779077Y-7368460D02*
X5769553Y-7349412D01*
X5769553Y-7349412D02*
X5769553Y-7273222D01*
X5769553Y-7273222D02*
X5779077Y-7254174D01*
X5779077Y-7254174D02*
X5798125Y-7244650D01*
X5798125Y-7244650D02*
X5836220Y-7244650D01*
X5836220Y-7244650D02*
X5855268Y-7254174D01*
X5855268Y-7254174D02*
X5864791Y-7273222D01*
X5864791Y-7273222D02*
X5864791Y-7292269D01*
X5864791Y-7292269D02*
X5769553Y-7311317D01*
X5940982Y-7368460D02*
X5960030Y-7377984D01*
X5960030Y-7377984D02*
X5998125Y-7377984D01*
X5998125Y-7377984D02*
X6017172Y-7368460D01*
X6017172Y-7368460D02*
X6026696Y-7349412D01*
X6026696Y-7349412D02*
X6026696Y-7339888D01*
X6026696Y-7339888D02*
X6017172Y-7320841D01*
X6017172Y-7320841D02*
X5998125Y-7311317D01*
X5998125Y-7311317D02*
X5969553Y-7311317D01*
X5969553Y-7311317D02*
X5950506Y-7301793D01*
X5950506Y-7301793D02*
X5940982Y-7282746D01*
X5940982Y-7282746D02*
X5940982Y-7273222D01*
X5940982Y-7273222D02*
X5950506Y-7254174D01*
X5950506Y-7254174D02*
X5969553Y-7244650D01*
X5969553Y-7244650D02*
X5998125Y-7244650D01*
X5998125Y-7244650D02*
X6017172Y-7254174D01*
X6264792Y-7301793D02*
X6417173Y-7301793D01*
X6340982Y-7377984D02*
X6340982Y-7225603D01*
X6645744Y-7177984D02*
X6769553Y-7177984D01*
X6769553Y-7177984D02*
X6702887Y-7254174D01*
X6702887Y-7254174D02*
X6731458Y-7254174D01*
X6731458Y-7254174D02*
X6750506Y-7263698D01*
X6750506Y-7263698D02*
X6760030Y-7273222D01*
X6760030Y-7273222D02*
X6769553Y-7292269D01*
X6769553Y-7292269D02*
X6769553Y-7339888D01*
X6769553Y-7339888D02*
X6760030Y-7358936D01*
X6760030Y-7358936D02*
X6750506Y-7368460D01*
X6750506Y-7368460D02*
X6731458Y-7377984D01*
X6731458Y-7377984D02*
X6674315Y-7377984D01*
X6674315Y-7377984D02*
X6655268Y-7368460D01*
X6655268Y-7368460D02*
X6645744Y-7358936D01*
X6998125Y-7368460D02*
X7017173Y-7377984D01*
X7017173Y-7377984D02*
X7055268Y-7377984D01*
X7055268Y-7377984D02*
X7074315Y-7368460D01*
X7074315Y-7368460D02*
X7083839Y-7349412D01*
X7083839Y-7349412D02*
X7083839Y-7339888D01*
X7083839Y-7339888D02*
X7074315Y-7320841D01*
X7074315Y-7320841D02*
X7055268Y-7311317D01*
X7055268Y-7311317D02*
X7026696Y-7311317D01*
X7026696Y-7311317D02*
X7007649Y-7301793D01*
X7007649Y-7301793D02*
X6998125Y-7282746D01*
X6998125Y-7282746D02*
X6998125Y-7273222D01*
X6998125Y-7273222D02*
X7007649Y-7254174D01*
X7007649Y-7254174D02*
X7026696Y-7244650D01*
X7026696Y-7244650D02*
X7055268Y-7244650D01*
X7055268Y-7244650D02*
X7074315Y-7254174D01*
X7198125Y-7377984D02*
X7179077Y-7368460D01*
X7179077Y-7368460D02*
X7169554Y-7349412D01*
X7169554Y-7349412D02*
X7169554Y-7177984D01*
X7302887Y-7377984D02*
X7283839Y-7368460D01*
X7283839Y-7368460D02*
X7274315Y-7358936D01*
X7274315Y-7358936D02*
X7264792Y-7339888D01*
X7264792Y-7339888D02*
X7264792Y-7282746D01*
X7264792Y-7282746D02*
X7274315Y-7263698D01*
X7274315Y-7263698D02*
X7283839Y-7254174D01*
X7283839Y-7254174D02*
X7302887Y-7244650D01*
X7302887Y-7244650D02*
X7331458Y-7244650D01*
X7331458Y-7244650D02*
X7350506Y-7254174D01*
X7350506Y-7254174D02*
X7360030Y-7263698D01*
X7360030Y-7263698D02*
X7369554Y-7282746D01*
X7369554Y-7282746D02*
X7369554Y-7339888D01*
X7369554Y-7339888D02*
X7360030Y-7358936D01*
X7360030Y-7358936D02*
X7350506Y-7368460D01*
X7350506Y-7368460D02*
X7331458Y-7377984D01*
X7331458Y-7377984D02*
X7302887Y-7377984D01*
X7426696Y-7244650D02*
X7502887Y-7244650D01*
X7455268Y-7177984D02*
X7455268Y-7349412D01*
X7455268Y-7349412D02*
X7464792Y-7368460D01*
X7464792Y-7368460D02*
X7483839Y-7377984D01*
X7483839Y-7377984D02*
X7502887Y-7377984D01*
X7560030Y-7368460D02*
X7579077Y-7377984D01*
X7579077Y-7377984D02*
X7617173Y-7377984D01*
X7617173Y-7377984D02*
X7636220Y-7368460D01*
X7636220Y-7368460D02*
X7645744Y-7349412D01*
X7645744Y-7349412D02*
X7645744Y-7339888D01*
X7645744Y-7339888D02*
X7636220Y-7320841D01*
X7636220Y-7320841D02*
X7617173Y-7311317D01*
X7617173Y-7311317D02*
X7588601Y-7311317D01*
X7588601Y-7311317D02*
X7569554Y-7301793D01*
X7569554Y-7301793D02*
X7560030Y-7282746D01*
X7560030Y-7282746D02*
X7560030Y-7273222D01*
X7560030Y-7273222D02*
X7569554Y-7254174D01*
X7569554Y-7254174D02*
X7588601Y-7244650D01*
X7588601Y-7244650D02*
X7617173Y-7244650D01*
X7617173Y-7244650D02*
X7636220Y-7254174D01*
X7712411Y-7454174D02*
X7721935Y-7444650D01*
X7721935Y-7444650D02*
X7740982Y-7416079D01*
X7740982Y-7416079D02*
X7750506Y-7397031D01*
X7750506Y-7397031D02*
X7760030Y-7368460D01*
X7760030Y-7368460D02*
X7769554Y-7320841D01*
X7769554Y-7320841D02*
X7769554Y-7282746D01*
X7769554Y-7282746D02*
X7760030Y-7235127D01*
X7760030Y-7235127D02*
X7750506Y-7206555D01*
X7750506Y-7206555D02*
X7740982Y-7187508D01*
X7740982Y-7187508D02*
X7721935Y-7158936D01*
X7721935Y-7158936D02*
X7712411Y-7149412D01*
D12*
X1238300Y-7510500D02*
X1318300Y-7590500D01*
X1318300Y-7510500D02*
X1238300Y-7590500D01*
X1318300Y-7550500D02*
G75*
G02*
X1238300Y-7550500I-40000J0D01*
G01*
X1238300Y-7550500D02*
G75*
G02*
X1318300Y-7550500I40000J0D01*
G01*
D11*
X1617172Y-7441984D02*
X1636220Y-7441984D01*
X1636220Y-7441984D02*
X1655267Y-7451508D01*
X1655267Y-7451508D02*
X1664791Y-7461031D01*
X1664791Y-7461031D02*
X1674315Y-7480079D01*
X1674315Y-7480079D02*
X1683839Y-7518174D01*
X1683839Y-7518174D02*
X1683839Y-7565793D01*
X1683839Y-7565793D02*
X1674315Y-7603888D01*
X1674315Y-7603888D02*
X1664791Y-7622936D01*
X1664791Y-7622936D02*
X1655267Y-7632460D01*
X1655267Y-7632460D02*
X1636220Y-7641984D01*
X1636220Y-7641984D02*
X1617172Y-7641984D01*
X1617172Y-7641984D02*
X1598124Y-7632460D01*
X1598124Y-7632460D02*
X1588601Y-7622936D01*
X1588601Y-7622936D02*
X1579077Y-7603888D01*
X1579077Y-7603888D02*
X1569553Y-7565793D01*
X1569553Y-7565793D02*
X1569553Y-7518174D01*
X1569553Y-7518174D02*
X1579077Y-7480079D01*
X1579077Y-7480079D02*
X1588601Y-7461031D01*
X1588601Y-7461031D02*
X1598124Y-7451508D01*
X1598124Y-7451508D02*
X1617172Y-7441984D01*
X1769553Y-7622936D02*
X1779077Y-7632460D01*
X1779077Y-7632460D02*
X1769553Y-7641984D01*
X1769553Y-7641984D02*
X1760029Y-7632460D01*
X1760029Y-7632460D02*
X1769553Y-7622936D01*
X1769553Y-7622936D02*
X1769553Y-7641984D01*
X1893362Y-7527698D02*
X1874315Y-7518174D01*
X1874315Y-7518174D02*
X1864791Y-7508650D01*
X1864791Y-7508650D02*
X1855267Y-7489603D01*
X1855267Y-7489603D02*
X1855267Y-7480079D01*
X1855267Y-7480079D02*
X1864791Y-7461031D01*
X1864791Y-7461031D02*
X1874315Y-7451508D01*
X1874315Y-7451508D02*
X1893362Y-7441984D01*
X1893362Y-7441984D02*
X1931458Y-7441984D01*
X1931458Y-7441984D02*
X1950505Y-7451508D01*
X1950505Y-7451508D02*
X1960029Y-7461031D01*
X1960029Y-7461031D02*
X1969553Y-7480079D01*
X1969553Y-7480079D02*
X1969553Y-7489603D01*
X1969553Y-7489603D02*
X1960029Y-7508650D01*
X1960029Y-7508650D02*
X1950505Y-7518174D01*
X1950505Y-7518174D02*
X1931458Y-7527698D01*
X1931458Y-7527698D02*
X1893362Y-7527698D01*
X1893362Y-7527698D02*
X1874315Y-7537222D01*
X1874315Y-7537222D02*
X1864791Y-7546746D01*
X1864791Y-7546746D02*
X1855267Y-7565793D01*
X1855267Y-7565793D02*
X1855267Y-7603888D01*
X1855267Y-7603888D02*
X1864791Y-7622936D01*
X1864791Y-7622936D02*
X1874315Y-7632460D01*
X1874315Y-7632460D02*
X1893362Y-7641984D01*
X1893362Y-7641984D02*
X1931458Y-7641984D01*
X1931458Y-7641984D02*
X1950505Y-7632460D01*
X1950505Y-7632460D02*
X1960029Y-7622936D01*
X1960029Y-7622936D02*
X1969553Y-7603888D01*
X1969553Y-7603888D02*
X1969553Y-7565793D01*
X1969553Y-7565793D02*
X1960029Y-7546746D01*
X1960029Y-7546746D02*
X1950505Y-7537222D01*
X1950505Y-7537222D02*
X1931458Y-7527698D01*
X2093362Y-7441984D02*
X2112410Y-7441984D01*
X2112410Y-7441984D02*
X2131458Y-7451508D01*
X2131458Y-7451508D02*
X2140982Y-7461031D01*
X2140982Y-7461031D02*
X2150505Y-7480079D01*
X2150505Y-7480079D02*
X2160029Y-7518174D01*
X2160029Y-7518174D02*
X2160029Y-7565793D01*
X2160029Y-7565793D02*
X2150505Y-7603888D01*
X2150505Y-7603888D02*
X2140982Y-7622936D01*
X2140982Y-7622936D02*
X2131458Y-7632460D01*
X2131458Y-7632460D02*
X2112410Y-7641984D01*
X2112410Y-7641984D02*
X2093362Y-7641984D01*
X2093362Y-7641984D02*
X2074315Y-7632460D01*
X2074315Y-7632460D02*
X2064791Y-7622936D01*
X2064791Y-7622936D02*
X2055267Y-7603888D01*
X2055267Y-7603888D02*
X2045743Y-7565793D01*
X2045743Y-7565793D02*
X2045743Y-7518174D01*
X2045743Y-7518174D02*
X2055267Y-7480079D01*
X2055267Y-7480079D02*
X2064791Y-7461031D01*
X2064791Y-7461031D02*
X2074315Y-7451508D01*
X2074315Y-7451508D02*
X2093362Y-7441984D01*
X2283839Y-7441984D02*
X2302886Y-7441984D01*
X2302886Y-7441984D02*
X2321934Y-7451508D01*
X2321934Y-7451508D02*
X2331458Y-7461031D01*
X2331458Y-7461031D02*
X2340982Y-7480079D01*
X2340982Y-7480079D02*
X2350505Y-7518174D01*
X2350505Y-7518174D02*
X2350505Y-7565793D01*
X2350505Y-7565793D02*
X2340982Y-7603888D01*
X2340982Y-7603888D02*
X2331458Y-7622936D01*
X2331458Y-7622936D02*
X2321934Y-7632460D01*
X2321934Y-7632460D02*
X2302886Y-7641984D01*
X2302886Y-7641984D02*
X2283839Y-7641984D01*
X2283839Y-7641984D02*
X2264791Y-7632460D01*
X2264791Y-7632460D02*
X2255267Y-7622936D01*
X2255267Y-7622936D02*
X2245744Y-7603888D01*
X2245744Y-7603888D02*
X2236220Y-7565793D01*
X2236220Y-7565793D02*
X2236220Y-7518174D01*
X2236220Y-7518174D02*
X2245744Y-7480079D01*
X2245744Y-7480079D02*
X2255267Y-7461031D01*
X2255267Y-7461031D02*
X2264791Y-7451508D01*
X2264791Y-7451508D02*
X2283839Y-7441984D01*
X2436220Y-7641984D02*
X2436220Y-7508650D01*
X2436220Y-7527698D02*
X2445744Y-7518174D01*
X2445744Y-7518174D02*
X2464791Y-7508650D01*
X2464791Y-7508650D02*
X2493363Y-7508650D01*
X2493363Y-7508650D02*
X2512410Y-7518174D01*
X2512410Y-7518174D02*
X2521934Y-7537222D01*
X2521934Y-7537222D02*
X2521934Y-7641984D01*
X2521934Y-7537222D02*
X2531458Y-7518174D01*
X2531458Y-7518174D02*
X2550505Y-7508650D01*
X2550505Y-7508650D02*
X2579077Y-7508650D01*
X2579077Y-7508650D02*
X2598125Y-7518174D01*
X2598125Y-7518174D02*
X2607648Y-7537222D01*
X2607648Y-7537222D02*
X2607648Y-7641984D01*
X2702886Y-7641984D02*
X2702886Y-7508650D01*
X2702886Y-7527698D02*
X2712410Y-7518174D01*
X2712410Y-7518174D02*
X2731458Y-7508650D01*
X2731458Y-7508650D02*
X2760029Y-7508650D01*
X2760029Y-7508650D02*
X2779077Y-7518174D01*
X2779077Y-7518174D02*
X2788601Y-7537222D01*
X2788601Y-7537222D02*
X2788601Y-7641984D01*
X2788601Y-7537222D02*
X2798124Y-7518174D01*
X2798124Y-7518174D02*
X2817172Y-7508650D01*
X2817172Y-7508650D02*
X2845743Y-7508650D01*
X2845743Y-7508650D02*
X2864791Y-7518174D01*
X2864791Y-7518174D02*
X2874315Y-7537222D01*
X2874315Y-7537222D02*
X2874315Y-7641984D01*
X3264791Y-7432460D02*
X3093363Y-7689603D01*
X3521934Y-7441984D02*
X3540982Y-7441984D01*
X3540982Y-7441984D02*
X3560029Y-7451508D01*
X3560029Y-7451508D02*
X3569553Y-7461031D01*
X3569553Y-7461031D02*
X3579077Y-7480079D01*
X3579077Y-7480079D02*
X3588601Y-7518174D01*
X3588601Y-7518174D02*
X3588601Y-7565793D01*
X3588601Y-7565793D02*
X3579077Y-7603888D01*
X3579077Y-7603888D02*
X3569553Y-7622936D01*
X3569553Y-7622936D02*
X3560029Y-7632460D01*
X3560029Y-7632460D02*
X3540982Y-7641984D01*
X3540982Y-7641984D02*
X3521934Y-7641984D01*
X3521934Y-7641984D02*
X3502886Y-7632460D01*
X3502886Y-7632460D02*
X3493363Y-7622936D01*
X3493363Y-7622936D02*
X3483839Y-7603888D01*
X3483839Y-7603888D02*
X3474315Y-7565793D01*
X3474315Y-7565793D02*
X3474315Y-7518174D01*
X3474315Y-7518174D02*
X3483839Y-7480079D01*
X3483839Y-7480079D02*
X3493363Y-7461031D01*
X3493363Y-7461031D02*
X3502886Y-7451508D01*
X3502886Y-7451508D02*
X3521934Y-7441984D01*
X3674315Y-7622936D02*
X3683839Y-7632460D01*
X3683839Y-7632460D02*
X3674315Y-7641984D01*
X3674315Y-7641984D02*
X3664791Y-7632460D01*
X3664791Y-7632460D02*
X3674315Y-7622936D01*
X3674315Y-7622936D02*
X3674315Y-7641984D01*
X3807648Y-7441984D02*
X3826696Y-7441984D01*
X3826696Y-7441984D02*
X3845744Y-7451508D01*
X3845744Y-7451508D02*
X3855267Y-7461031D01*
X3855267Y-7461031D02*
X3864791Y-7480079D01*
X3864791Y-7480079D02*
X3874315Y-7518174D01*
X3874315Y-7518174D02*
X3874315Y-7565793D01*
X3874315Y-7565793D02*
X3864791Y-7603888D01*
X3864791Y-7603888D02*
X3855267Y-7622936D01*
X3855267Y-7622936D02*
X3845744Y-7632460D01*
X3845744Y-7632460D02*
X3826696Y-7641984D01*
X3826696Y-7641984D02*
X3807648Y-7641984D01*
X3807648Y-7641984D02*
X3788601Y-7632460D01*
X3788601Y-7632460D02*
X3779077Y-7622936D01*
X3779077Y-7622936D02*
X3769553Y-7603888D01*
X3769553Y-7603888D02*
X3760029Y-7565793D01*
X3760029Y-7565793D02*
X3760029Y-7518174D01*
X3760029Y-7518174D02*
X3769553Y-7480079D01*
X3769553Y-7480079D02*
X3779077Y-7461031D01*
X3779077Y-7461031D02*
X3788601Y-7451508D01*
X3788601Y-7451508D02*
X3807648Y-7441984D01*
X3940982Y-7441984D02*
X4064791Y-7441984D01*
X4064791Y-7441984D02*
X3998125Y-7518174D01*
X3998125Y-7518174D02*
X4026696Y-7518174D01*
X4026696Y-7518174D02*
X4045744Y-7527698D01*
X4045744Y-7527698D02*
X4055267Y-7537222D01*
X4055267Y-7537222D02*
X4064791Y-7556269D01*
X4064791Y-7556269D02*
X4064791Y-7603888D01*
X4064791Y-7603888D02*
X4055267Y-7622936D01*
X4055267Y-7622936D02*
X4045744Y-7632460D01*
X4045744Y-7632460D02*
X4026696Y-7641984D01*
X4026696Y-7641984D02*
X3969553Y-7641984D01*
X3969553Y-7641984D02*
X3950506Y-7632460D01*
X3950506Y-7632460D02*
X3940982Y-7622936D01*
X4255268Y-7641984D02*
X4140982Y-7641984D01*
X4198125Y-7641984D02*
X4198125Y-7441984D01*
X4198125Y-7441984D02*
X4179077Y-7470555D01*
X4179077Y-7470555D02*
X4160029Y-7489603D01*
X4160029Y-7489603D02*
X4140982Y-7499127D01*
X4436220Y-7441984D02*
X4340982Y-7441984D01*
X4340982Y-7441984D02*
X4331458Y-7537222D01*
X4331458Y-7537222D02*
X4340982Y-7527698D01*
X4340982Y-7527698D02*
X4360029Y-7518174D01*
X4360029Y-7518174D02*
X4407649Y-7518174D01*
X4407649Y-7518174D02*
X4426696Y-7527698D01*
X4426696Y-7527698D02*
X4436220Y-7537222D01*
X4436220Y-7537222D02*
X4445744Y-7556269D01*
X4445744Y-7556269D02*
X4445744Y-7603888D01*
X4445744Y-7603888D02*
X4436220Y-7622936D01*
X4436220Y-7622936D02*
X4426696Y-7632460D01*
X4426696Y-7632460D02*
X4407649Y-7641984D01*
X4407649Y-7641984D02*
X4360029Y-7641984D01*
X4360029Y-7641984D02*
X4340982Y-7632460D01*
X4340982Y-7632460D02*
X4331458Y-7622936D01*
X4521934Y-7441984D02*
X4521934Y-7480079D01*
X4598125Y-7441984D02*
X4598125Y-7480079D01*
X4893363Y-7718174D02*
X4883839Y-7708650D01*
X4883839Y-7708650D02*
X4864791Y-7680079D01*
X4864791Y-7680079D02*
X4855268Y-7661031D01*
X4855268Y-7661031D02*
X4845744Y-7632460D01*
X4845744Y-7632460D02*
X4836220Y-7584841D01*
X4836220Y-7584841D02*
X4836220Y-7546746D01*
X4836220Y-7546746D02*
X4845744Y-7499127D01*
X4845744Y-7499127D02*
X4855268Y-7470555D01*
X4855268Y-7470555D02*
X4864791Y-7451508D01*
X4864791Y-7451508D02*
X4883839Y-7422936D01*
X4883839Y-7422936D02*
X4893363Y-7413412D01*
X5055268Y-7508650D02*
X5055268Y-7641984D01*
X5007649Y-7432460D02*
X4960030Y-7575317D01*
X4960030Y-7575317D02*
X5083839Y-7575317D01*
X5188601Y-7527698D02*
X5169553Y-7518174D01*
X5169553Y-7518174D02*
X5160030Y-7508650D01*
X5160030Y-7508650D02*
X5150506Y-7489603D01*
X5150506Y-7489603D02*
X5150506Y-7480079D01*
X5150506Y-7480079D02*
X5160030Y-7461031D01*
X5160030Y-7461031D02*
X5169553Y-7451508D01*
X5169553Y-7451508D02*
X5188601Y-7441984D01*
X5188601Y-7441984D02*
X5226696Y-7441984D01*
X5226696Y-7441984D02*
X5245744Y-7451508D01*
X5245744Y-7451508D02*
X5255268Y-7461031D01*
X5255268Y-7461031D02*
X5264791Y-7480079D01*
X5264791Y-7480079D02*
X5264791Y-7489603D01*
X5264791Y-7489603D02*
X5255268Y-7508650D01*
X5255268Y-7508650D02*
X5245744Y-7518174D01*
X5245744Y-7518174D02*
X5226696Y-7527698D01*
X5226696Y-7527698D02*
X5188601Y-7527698D01*
X5188601Y-7527698D02*
X5169553Y-7537222D01*
X5169553Y-7537222D02*
X5160030Y-7546746D01*
X5160030Y-7546746D02*
X5150506Y-7565793D01*
X5150506Y-7565793D02*
X5150506Y-7603888D01*
X5150506Y-7603888D02*
X5160030Y-7622936D01*
X5160030Y-7622936D02*
X5169553Y-7632460D01*
X5169553Y-7632460D02*
X5188601Y-7641984D01*
X5188601Y-7641984D02*
X5226696Y-7641984D01*
X5226696Y-7641984D02*
X5245744Y-7632460D01*
X5245744Y-7632460D02*
X5255268Y-7622936D01*
X5255268Y-7622936D02*
X5264791Y-7603888D01*
X5264791Y-7603888D02*
X5264791Y-7565793D01*
X5264791Y-7565793D02*
X5255268Y-7546746D01*
X5255268Y-7546746D02*
X5245744Y-7537222D01*
X5245744Y-7537222D02*
X5226696Y-7527698D01*
X5502887Y-7641984D02*
X5502887Y-7441984D01*
X5588601Y-7641984D02*
X5588601Y-7537222D01*
X5588601Y-7537222D02*
X5579077Y-7518174D01*
X5579077Y-7518174D02*
X5560030Y-7508650D01*
X5560030Y-7508650D02*
X5531458Y-7508650D01*
X5531458Y-7508650D02*
X5512411Y-7518174D01*
X5512411Y-7518174D02*
X5502887Y-7527698D01*
X5712410Y-7641984D02*
X5693363Y-7632460D01*
X5693363Y-7632460D02*
X5683839Y-7622936D01*
X5683839Y-7622936D02*
X5674315Y-7603888D01*
X5674315Y-7603888D02*
X5674315Y-7546746D01*
X5674315Y-7546746D02*
X5683839Y-7527698D01*
X5683839Y-7527698D02*
X5693363Y-7518174D01*
X5693363Y-7518174D02*
X5712410Y-7508650D01*
X5712410Y-7508650D02*
X5740982Y-7508650D01*
X5740982Y-7508650D02*
X5760030Y-7518174D01*
X5760030Y-7518174D02*
X5769553Y-7527698D01*
X5769553Y-7527698D02*
X5779077Y-7546746D01*
X5779077Y-7546746D02*
X5779077Y-7603888D01*
X5779077Y-7603888D02*
X5769553Y-7622936D01*
X5769553Y-7622936D02*
X5760030Y-7632460D01*
X5760030Y-7632460D02*
X5740982Y-7641984D01*
X5740982Y-7641984D02*
X5712410Y-7641984D01*
X5893363Y-7641984D02*
X5874315Y-7632460D01*
X5874315Y-7632460D02*
X5864791Y-7613412D01*
X5864791Y-7613412D02*
X5864791Y-7441984D01*
X6045744Y-7632460D02*
X6026696Y-7641984D01*
X6026696Y-7641984D02*
X5988601Y-7641984D01*
X5988601Y-7641984D02*
X5969553Y-7632460D01*
X5969553Y-7632460D02*
X5960030Y-7613412D01*
X5960030Y-7613412D02*
X5960030Y-7537222D01*
X5960030Y-7537222D02*
X5969553Y-7518174D01*
X5969553Y-7518174D02*
X5988601Y-7508650D01*
X5988601Y-7508650D02*
X6026696Y-7508650D01*
X6026696Y-7508650D02*
X6045744Y-7518174D01*
X6045744Y-7518174D02*
X6055268Y-7537222D01*
X6055268Y-7537222D02*
X6055268Y-7556269D01*
X6055268Y-7556269D02*
X5960030Y-7575317D01*
X6131458Y-7632460D02*
X6150506Y-7641984D01*
X6150506Y-7641984D02*
X6188601Y-7641984D01*
X6188601Y-7641984D02*
X6207649Y-7632460D01*
X6207649Y-7632460D02*
X6217172Y-7613412D01*
X6217172Y-7613412D02*
X6217172Y-7603888D01*
X6217172Y-7603888D02*
X6207649Y-7584841D01*
X6207649Y-7584841D02*
X6188601Y-7575317D01*
X6188601Y-7575317D02*
X6160030Y-7575317D01*
X6160030Y-7575317D02*
X6140982Y-7565793D01*
X6140982Y-7565793D02*
X6131458Y-7546746D01*
X6131458Y-7546746D02*
X6131458Y-7537222D01*
X6131458Y-7537222D02*
X6140982Y-7518174D01*
X6140982Y-7518174D02*
X6160030Y-7508650D01*
X6160030Y-7508650D02*
X6188601Y-7508650D01*
X6188601Y-7508650D02*
X6207649Y-7518174D01*
X6283839Y-7718174D02*
X6293363Y-7708650D01*
X6293363Y-7708650D02*
X6312411Y-7680079D01*
X6312411Y-7680079D02*
X6321934Y-7661031D01*
X6321934Y-7661031D02*
X6331458Y-7632460D01*
X6331458Y-7632460D02*
X6340982Y-7584841D01*
X6340982Y-7584841D02*
X6340982Y-7546746D01*
X6340982Y-7546746D02*
X6331458Y-7499127D01*
X6331458Y-7499127D02*
X6321934Y-7470555D01*
X6321934Y-7470555D02*
X6312411Y-7451508D01*
X6312411Y-7451508D02*
X6293363Y-7422936D01*
X6293363Y-7422936D02*
X6283839Y-7413412D01*
D12*
X1228298Y-7769499D02*
X1318300Y-7859501D01*
X1318300Y-7769499D02*
X1228298Y-7859501D01*
X1273299Y-7769499D02*
X1273299Y-7859501D01*
X1228298Y-7814500D02*
X1318300Y-7814500D01*
D11*
X1617172Y-7705984D02*
X1636220Y-7705984D01*
X1636220Y-7705984D02*
X1655267Y-7715508D01*
X1655267Y-7715508D02*
X1664791Y-7725031D01*
X1664791Y-7725031D02*
X1674315Y-7744079D01*
X1674315Y-7744079D02*
X1683839Y-7782174D01*
X1683839Y-7782174D02*
X1683839Y-7829793D01*
X1683839Y-7829793D02*
X1674315Y-7867888D01*
X1674315Y-7867888D02*
X1664791Y-7886936D01*
X1664791Y-7886936D02*
X1655267Y-7896460D01*
X1655267Y-7896460D02*
X1636220Y-7905984D01*
X1636220Y-7905984D02*
X1617172Y-7905984D01*
X1617172Y-7905984D02*
X1598124Y-7896460D01*
X1598124Y-7896460D02*
X1588601Y-7886936D01*
X1588601Y-7886936D02*
X1579077Y-7867888D01*
X1579077Y-7867888D02*
X1569553Y-7829793D01*
X1569553Y-7829793D02*
X1569553Y-7782174D01*
X1569553Y-7782174D02*
X1579077Y-7744079D01*
X1579077Y-7744079D02*
X1588601Y-7725031D01*
X1588601Y-7725031D02*
X1598124Y-7715508D01*
X1598124Y-7715508D02*
X1617172Y-7705984D01*
X1769553Y-7886936D02*
X1779077Y-7896460D01*
X1779077Y-7896460D02*
X1769553Y-7905984D01*
X1769553Y-7905984D02*
X1760029Y-7896460D01*
X1760029Y-7896460D02*
X1769553Y-7886936D01*
X1769553Y-7886936D02*
X1769553Y-7905984D01*
X1874315Y-7905984D02*
X1912410Y-7905984D01*
X1912410Y-7905984D02*
X1931458Y-7896460D01*
X1931458Y-7896460D02*
X1940982Y-7886936D01*
X1940982Y-7886936D02*
X1960029Y-7858365D01*
X1960029Y-7858365D02*
X1969553Y-7820269D01*
X1969553Y-7820269D02*
X1969553Y-7744079D01*
X1969553Y-7744079D02*
X1960029Y-7725031D01*
X1960029Y-7725031D02*
X1950505Y-7715508D01*
X1950505Y-7715508D02*
X1931458Y-7705984D01*
X1931458Y-7705984D02*
X1893362Y-7705984D01*
X1893362Y-7705984D02*
X1874315Y-7715508D01*
X1874315Y-7715508D02*
X1864791Y-7725031D01*
X1864791Y-7725031D02*
X1855267Y-7744079D01*
X1855267Y-7744079D02*
X1855267Y-7791698D01*
X1855267Y-7791698D02*
X1864791Y-7810746D01*
X1864791Y-7810746D02*
X1874315Y-7820269D01*
X1874315Y-7820269D02*
X1893362Y-7829793D01*
X1893362Y-7829793D02*
X1931458Y-7829793D01*
X1931458Y-7829793D02*
X1950505Y-7820269D01*
X1950505Y-7820269D02*
X1960029Y-7810746D01*
X1960029Y-7810746D02*
X1969553Y-7791698D01*
X2093362Y-7705984D02*
X2112410Y-7705984D01*
X2112410Y-7705984D02*
X2131458Y-7715508D01*
X2131458Y-7715508D02*
X2140982Y-7725031D01*
X2140982Y-7725031D02*
X2150505Y-7744079D01*
X2150505Y-7744079D02*
X2160029Y-7782174D01*
X2160029Y-7782174D02*
X2160029Y-7829793D01*
X2160029Y-7829793D02*
X2150505Y-7867888D01*
X2150505Y-7867888D02*
X2140982Y-7886936D01*
X2140982Y-7886936D02*
X2131458Y-7896460D01*
X2131458Y-7896460D02*
X2112410Y-7905984D01*
X2112410Y-7905984D02*
X2093362Y-7905984D01*
X2093362Y-7905984D02*
X2074315Y-7896460D01*
X2074315Y-7896460D02*
X2064791Y-7886936D01*
X2064791Y-7886936D02*
X2055267Y-7867888D01*
X2055267Y-7867888D02*
X2045743Y-7829793D01*
X2045743Y-7829793D02*
X2045743Y-7782174D01*
X2045743Y-7782174D02*
X2055267Y-7744079D01*
X2055267Y-7744079D02*
X2064791Y-7725031D01*
X2064791Y-7725031D02*
X2074315Y-7715508D01*
X2074315Y-7715508D02*
X2093362Y-7705984D01*
X2283839Y-7705984D02*
X2302886Y-7705984D01*
X2302886Y-7705984D02*
X2321934Y-7715508D01*
X2321934Y-7715508D02*
X2331458Y-7725031D01*
X2331458Y-7725031D02*
X2340982Y-7744079D01*
X2340982Y-7744079D02*
X2350505Y-7782174D01*
X2350505Y-7782174D02*
X2350505Y-7829793D01*
X2350505Y-7829793D02*
X2340982Y-7867888D01*
X2340982Y-7867888D02*
X2331458Y-7886936D01*
X2331458Y-7886936D02*
X2321934Y-7896460D01*
X2321934Y-7896460D02*
X2302886Y-7905984D01*
X2302886Y-7905984D02*
X2283839Y-7905984D01*
X2283839Y-7905984D02*
X2264791Y-7896460D01*
X2264791Y-7896460D02*
X2255267Y-7886936D01*
X2255267Y-7886936D02*
X2245744Y-7867888D01*
X2245744Y-7867888D02*
X2236220Y-7829793D01*
X2236220Y-7829793D02*
X2236220Y-7782174D01*
X2236220Y-7782174D02*
X2245744Y-7744079D01*
X2245744Y-7744079D02*
X2255267Y-7725031D01*
X2255267Y-7725031D02*
X2264791Y-7715508D01*
X2264791Y-7715508D02*
X2283839Y-7705984D01*
X2436220Y-7905984D02*
X2436220Y-7772650D01*
X2436220Y-7791698D02*
X2445744Y-7782174D01*
X2445744Y-7782174D02*
X2464791Y-7772650D01*
X2464791Y-7772650D02*
X2493363Y-7772650D01*
X2493363Y-7772650D02*
X2512410Y-7782174D01*
X2512410Y-7782174D02*
X2521934Y-7801222D01*
X2521934Y-7801222D02*
X2521934Y-7905984D01*
X2521934Y-7801222D02*
X2531458Y-7782174D01*
X2531458Y-7782174D02*
X2550505Y-7772650D01*
X2550505Y-7772650D02*
X2579077Y-7772650D01*
X2579077Y-7772650D02*
X2598125Y-7782174D01*
X2598125Y-7782174D02*
X2607648Y-7801222D01*
X2607648Y-7801222D02*
X2607648Y-7905984D01*
X2702886Y-7905984D02*
X2702886Y-7772650D01*
X2702886Y-7791698D02*
X2712410Y-7782174D01*
X2712410Y-7782174D02*
X2731458Y-7772650D01*
X2731458Y-7772650D02*
X2760029Y-7772650D01*
X2760029Y-7772650D02*
X2779077Y-7782174D01*
X2779077Y-7782174D02*
X2788601Y-7801222D01*
X2788601Y-7801222D02*
X2788601Y-7905984D01*
X2788601Y-7801222D02*
X2798124Y-7782174D01*
X2798124Y-7782174D02*
X2817172Y-7772650D01*
X2817172Y-7772650D02*
X2845743Y-7772650D01*
X2845743Y-7772650D02*
X2864791Y-7782174D01*
X2864791Y-7782174D02*
X2874315Y-7801222D01*
X2874315Y-7801222D02*
X2874315Y-7905984D01*
X3264791Y-7696460D02*
X3093363Y-7953603D01*
X3521934Y-7705984D02*
X3540982Y-7705984D01*
X3540982Y-7705984D02*
X3560029Y-7715508D01*
X3560029Y-7715508D02*
X3569553Y-7725031D01*
X3569553Y-7725031D02*
X3579077Y-7744079D01*
X3579077Y-7744079D02*
X3588601Y-7782174D01*
X3588601Y-7782174D02*
X3588601Y-7829793D01*
X3588601Y-7829793D02*
X3579077Y-7867888D01*
X3579077Y-7867888D02*
X3569553Y-7886936D01*
X3569553Y-7886936D02*
X3560029Y-7896460D01*
X3560029Y-7896460D02*
X3540982Y-7905984D01*
X3540982Y-7905984D02*
X3521934Y-7905984D01*
X3521934Y-7905984D02*
X3502886Y-7896460D01*
X3502886Y-7896460D02*
X3493363Y-7886936D01*
X3493363Y-7886936D02*
X3483839Y-7867888D01*
X3483839Y-7867888D02*
X3474315Y-7829793D01*
X3474315Y-7829793D02*
X3474315Y-7782174D01*
X3474315Y-7782174D02*
X3483839Y-7744079D01*
X3483839Y-7744079D02*
X3493363Y-7725031D01*
X3493363Y-7725031D02*
X3502886Y-7715508D01*
X3502886Y-7715508D02*
X3521934Y-7705984D01*
X3674315Y-7886936D02*
X3683839Y-7896460D01*
X3683839Y-7896460D02*
X3674315Y-7905984D01*
X3674315Y-7905984D02*
X3664791Y-7896460D01*
X3664791Y-7896460D02*
X3674315Y-7886936D01*
X3674315Y-7886936D02*
X3674315Y-7905984D01*
X3807648Y-7705984D02*
X3826696Y-7705984D01*
X3826696Y-7705984D02*
X3845744Y-7715508D01*
X3845744Y-7715508D02*
X3855267Y-7725031D01*
X3855267Y-7725031D02*
X3864791Y-7744079D01*
X3864791Y-7744079D02*
X3874315Y-7782174D01*
X3874315Y-7782174D02*
X3874315Y-7829793D01*
X3874315Y-7829793D02*
X3864791Y-7867888D01*
X3864791Y-7867888D02*
X3855267Y-7886936D01*
X3855267Y-7886936D02*
X3845744Y-7896460D01*
X3845744Y-7896460D02*
X3826696Y-7905984D01*
X3826696Y-7905984D02*
X3807648Y-7905984D01*
X3807648Y-7905984D02*
X3788601Y-7896460D01*
X3788601Y-7896460D02*
X3779077Y-7886936D01*
X3779077Y-7886936D02*
X3769553Y-7867888D01*
X3769553Y-7867888D02*
X3760029Y-7829793D01*
X3760029Y-7829793D02*
X3760029Y-7782174D01*
X3760029Y-7782174D02*
X3769553Y-7744079D01*
X3769553Y-7744079D02*
X3779077Y-7725031D01*
X3779077Y-7725031D02*
X3788601Y-7715508D01*
X3788601Y-7715508D02*
X3807648Y-7705984D01*
X3940982Y-7705984D02*
X4064791Y-7705984D01*
X4064791Y-7705984D02*
X3998125Y-7782174D01*
X3998125Y-7782174D02*
X4026696Y-7782174D01*
X4026696Y-7782174D02*
X4045744Y-7791698D01*
X4045744Y-7791698D02*
X4055267Y-7801222D01*
X4055267Y-7801222D02*
X4064791Y-7820269D01*
X4064791Y-7820269D02*
X4064791Y-7867888D01*
X4064791Y-7867888D02*
X4055267Y-7886936D01*
X4055267Y-7886936D02*
X4045744Y-7896460D01*
X4045744Y-7896460D02*
X4026696Y-7905984D01*
X4026696Y-7905984D02*
X3969553Y-7905984D01*
X3969553Y-7905984D02*
X3950506Y-7896460D01*
X3950506Y-7896460D02*
X3940982Y-7886936D01*
X4245744Y-7705984D02*
X4150506Y-7705984D01*
X4150506Y-7705984D02*
X4140982Y-7801222D01*
X4140982Y-7801222D02*
X4150506Y-7791698D01*
X4150506Y-7791698D02*
X4169553Y-7782174D01*
X4169553Y-7782174D02*
X4217172Y-7782174D01*
X4217172Y-7782174D02*
X4236220Y-7791698D01*
X4236220Y-7791698D02*
X4245744Y-7801222D01*
X4245744Y-7801222D02*
X4255268Y-7820269D01*
X4255268Y-7820269D02*
X4255268Y-7867888D01*
X4255268Y-7867888D02*
X4245744Y-7886936D01*
X4245744Y-7886936D02*
X4236220Y-7896460D01*
X4236220Y-7896460D02*
X4217172Y-7905984D01*
X4217172Y-7905984D02*
X4169553Y-7905984D01*
X4169553Y-7905984D02*
X4150506Y-7896460D01*
X4150506Y-7896460D02*
X4140982Y-7886936D01*
X4426696Y-7772650D02*
X4426696Y-7905984D01*
X4379077Y-7696460D02*
X4331458Y-7839317D01*
X4331458Y-7839317D02*
X4455268Y-7839317D01*
X4521934Y-7705984D02*
X4521934Y-7744079D01*
X4598125Y-7705984D02*
X4598125Y-7744079D01*
X4893363Y-7982174D02*
X4883839Y-7972650D01*
X4883839Y-7972650D02*
X4864791Y-7944079D01*
X4864791Y-7944079D02*
X4855268Y-7925031D01*
X4855268Y-7925031D02*
X4845744Y-7896460D01*
X4845744Y-7896460D02*
X4836220Y-7848841D01*
X4836220Y-7848841D02*
X4836220Y-7810746D01*
X4836220Y-7810746D02*
X4845744Y-7763127D01*
X4845744Y-7763127D02*
X4855268Y-7734555D01*
X4855268Y-7734555D02*
X4864791Y-7715508D01*
X4864791Y-7715508D02*
X4883839Y-7686936D01*
X4883839Y-7686936D02*
X4893363Y-7677412D01*
X5074315Y-7905984D02*
X4960030Y-7905984D01*
X5017172Y-7905984D02*
X5017172Y-7705984D01*
X5017172Y-7705984D02*
X4998125Y-7734555D01*
X4998125Y-7734555D02*
X4979077Y-7753603D01*
X4979077Y-7753603D02*
X4960030Y-7763127D01*
X5245744Y-7705984D02*
X5207649Y-7705984D01*
X5207649Y-7705984D02*
X5188601Y-7715508D01*
X5188601Y-7715508D02*
X5179077Y-7725031D01*
X5179077Y-7725031D02*
X5160030Y-7753603D01*
X5160030Y-7753603D02*
X5150506Y-7791698D01*
X5150506Y-7791698D02*
X5150506Y-7867888D01*
X5150506Y-7867888D02*
X5160030Y-7886936D01*
X5160030Y-7886936D02*
X5169553Y-7896460D01*
X5169553Y-7896460D02*
X5188601Y-7905984D01*
X5188601Y-7905984D02*
X5226696Y-7905984D01*
X5226696Y-7905984D02*
X5245744Y-7896460D01*
X5245744Y-7896460D02*
X5255268Y-7886936D01*
X5255268Y-7886936D02*
X5264791Y-7867888D01*
X5264791Y-7867888D02*
X5264791Y-7820269D01*
X5264791Y-7820269D02*
X5255268Y-7801222D01*
X5255268Y-7801222D02*
X5245744Y-7791698D01*
X5245744Y-7791698D02*
X5226696Y-7782174D01*
X5226696Y-7782174D02*
X5188601Y-7782174D01*
X5188601Y-7782174D02*
X5169553Y-7791698D01*
X5169553Y-7791698D02*
X5160030Y-7801222D01*
X5160030Y-7801222D02*
X5150506Y-7820269D01*
X5502887Y-7905984D02*
X5502887Y-7705984D01*
X5588601Y-7905984D02*
X5588601Y-7801222D01*
X5588601Y-7801222D02*
X5579077Y-7782174D01*
X5579077Y-7782174D02*
X5560030Y-7772650D01*
X5560030Y-7772650D02*
X5531458Y-7772650D01*
X5531458Y-7772650D02*
X5512411Y-7782174D01*
X5512411Y-7782174D02*
X5502887Y-7791698D01*
X5712410Y-7905984D02*
X5693363Y-7896460D01*
X5693363Y-7896460D02*
X5683839Y-7886936D01*
X5683839Y-7886936D02*
X5674315Y-7867888D01*
X5674315Y-7867888D02*
X5674315Y-7810746D01*
X5674315Y-7810746D02*
X5683839Y-7791698D01*
X5683839Y-7791698D02*
X5693363Y-7782174D01*
X5693363Y-7782174D02*
X5712410Y-7772650D01*
X5712410Y-7772650D02*
X5740982Y-7772650D01*
X5740982Y-7772650D02*
X5760030Y-7782174D01*
X5760030Y-7782174D02*
X5769553Y-7791698D01*
X5769553Y-7791698D02*
X5779077Y-7810746D01*
X5779077Y-7810746D02*
X5779077Y-7867888D01*
X5779077Y-7867888D02*
X5769553Y-7886936D01*
X5769553Y-7886936D02*
X5760030Y-7896460D01*
X5760030Y-7896460D02*
X5740982Y-7905984D01*
X5740982Y-7905984D02*
X5712410Y-7905984D01*
X5893363Y-7905984D02*
X5874315Y-7896460D01*
X5874315Y-7896460D02*
X5864791Y-7877412D01*
X5864791Y-7877412D02*
X5864791Y-7705984D01*
X6045744Y-7896460D02*
X6026696Y-7905984D01*
X6026696Y-7905984D02*
X5988601Y-7905984D01*
X5988601Y-7905984D02*
X5969553Y-7896460D01*
X5969553Y-7896460D02*
X5960030Y-7877412D01*
X5960030Y-7877412D02*
X5960030Y-7801222D01*
X5960030Y-7801222D02*
X5969553Y-7782174D01*
X5969553Y-7782174D02*
X5988601Y-7772650D01*
X5988601Y-7772650D02*
X6026696Y-7772650D01*
X6026696Y-7772650D02*
X6045744Y-7782174D01*
X6045744Y-7782174D02*
X6055268Y-7801222D01*
X6055268Y-7801222D02*
X6055268Y-7820269D01*
X6055268Y-7820269D02*
X5960030Y-7839317D01*
X6131458Y-7896460D02*
X6150506Y-7905984D01*
X6150506Y-7905984D02*
X6188601Y-7905984D01*
X6188601Y-7905984D02*
X6207649Y-7896460D01*
X6207649Y-7896460D02*
X6217172Y-7877412D01*
X6217172Y-7877412D02*
X6217172Y-7867888D01*
X6217172Y-7867888D02*
X6207649Y-7848841D01*
X6207649Y-7848841D02*
X6188601Y-7839317D01*
X6188601Y-7839317D02*
X6160030Y-7839317D01*
X6160030Y-7839317D02*
X6140982Y-7829793D01*
X6140982Y-7829793D02*
X6131458Y-7810746D01*
X6131458Y-7810746D02*
X6131458Y-7801222D01*
X6131458Y-7801222D02*
X6140982Y-7782174D01*
X6140982Y-7782174D02*
X6160030Y-7772650D01*
X6160030Y-7772650D02*
X6188601Y-7772650D01*
X6188601Y-7772650D02*
X6207649Y-7782174D01*
X6283839Y-7982174D02*
X6293363Y-7972650D01*
X6293363Y-7972650D02*
X6312411Y-7944079D01*
X6312411Y-7944079D02*
X6321934Y-7925031D01*
X6321934Y-7925031D02*
X6331458Y-7896460D01*
X6331458Y-7896460D02*
X6340982Y-7848841D01*
X6340982Y-7848841D02*
X6340982Y-7810746D01*
X6340982Y-7810746D02*
X6331458Y-7763127D01*
X6331458Y-7763127D02*
X6321934Y-7734555D01*
X6321934Y-7734555D02*
X6312411Y-7715508D01*
X6312411Y-7715508D02*
X6293363Y-7686936D01*
X6293363Y-7686936D02*
X6283839Y-7677412D01*
D12*
X1223300Y-8031000D02*
X1318300Y-8126000D01*
X1318300Y-8031000D02*
X1223300Y-8126000D01*
X1304388Y-8112088D02*
X1304388Y-8044912D01*
X1237212Y-8044912D01*
X1237212Y-8112088D01*
X1304388Y-8112088D01*
D11*
X1617172Y-7969984D02*
X1636220Y-7969984D01*
X1636220Y-7969984D02*
X1655267Y-7979508D01*
X1655267Y-7979508D02*
X1664791Y-7989031D01*
X1664791Y-7989031D02*
X1674315Y-8008079D01*
X1674315Y-8008079D02*
X1683839Y-8046174D01*
X1683839Y-8046174D02*
X1683839Y-8093793D01*
X1683839Y-8093793D02*
X1674315Y-8131888D01*
X1674315Y-8131888D02*
X1664791Y-8150936D01*
X1664791Y-8150936D02*
X1655267Y-8160460D01*
X1655267Y-8160460D02*
X1636220Y-8169984D01*
X1636220Y-8169984D02*
X1617172Y-8169984D01*
X1617172Y-8169984D02*
X1598124Y-8160460D01*
X1598124Y-8160460D02*
X1588601Y-8150936D01*
X1588601Y-8150936D02*
X1579077Y-8131888D01*
X1579077Y-8131888D02*
X1569553Y-8093793D01*
X1569553Y-8093793D02*
X1569553Y-8046174D01*
X1569553Y-8046174D02*
X1579077Y-8008079D01*
X1579077Y-8008079D02*
X1588601Y-7989031D01*
X1588601Y-7989031D02*
X1598124Y-7979508D01*
X1598124Y-7979508D02*
X1617172Y-7969984D01*
X1769553Y-8150936D02*
X1779077Y-8160460D01*
X1779077Y-8160460D02*
X1769553Y-8169984D01*
X1769553Y-8169984D02*
X1760029Y-8160460D01*
X1760029Y-8160460D02*
X1769553Y-8150936D01*
X1769553Y-8150936D02*
X1769553Y-8169984D01*
X1874315Y-8169984D02*
X1912410Y-8169984D01*
X1912410Y-8169984D02*
X1931458Y-8160460D01*
X1931458Y-8160460D02*
X1940982Y-8150936D01*
X1940982Y-8150936D02*
X1960029Y-8122365D01*
X1960029Y-8122365D02*
X1969553Y-8084269D01*
X1969553Y-8084269D02*
X1969553Y-8008079D01*
X1969553Y-8008079D02*
X1960029Y-7989031D01*
X1960029Y-7989031D02*
X1950505Y-7979508D01*
X1950505Y-7979508D02*
X1931458Y-7969984D01*
X1931458Y-7969984D02*
X1893362Y-7969984D01*
X1893362Y-7969984D02*
X1874315Y-7979508D01*
X1874315Y-7979508D02*
X1864791Y-7989031D01*
X1864791Y-7989031D02*
X1855267Y-8008079D01*
X1855267Y-8008079D02*
X1855267Y-8055698D01*
X1855267Y-8055698D02*
X1864791Y-8074746D01*
X1864791Y-8074746D02*
X1874315Y-8084269D01*
X1874315Y-8084269D02*
X1893362Y-8093793D01*
X1893362Y-8093793D02*
X1931458Y-8093793D01*
X1931458Y-8093793D02*
X1950505Y-8084269D01*
X1950505Y-8084269D02*
X1960029Y-8074746D01*
X1960029Y-8074746D02*
X1969553Y-8055698D01*
X2150505Y-7969984D02*
X2055267Y-7969984D01*
X2055267Y-7969984D02*
X2045743Y-8065222D01*
X2045743Y-8065222D02*
X2055267Y-8055698D01*
X2055267Y-8055698D02*
X2074315Y-8046174D01*
X2074315Y-8046174D02*
X2121934Y-8046174D01*
X2121934Y-8046174D02*
X2140982Y-8055698D01*
X2140982Y-8055698D02*
X2150505Y-8065222D01*
X2150505Y-8065222D02*
X2160029Y-8084269D01*
X2160029Y-8084269D02*
X2160029Y-8131888D01*
X2160029Y-8131888D02*
X2150505Y-8150936D01*
X2150505Y-8150936D02*
X2140982Y-8160460D01*
X2140982Y-8160460D02*
X2121934Y-8169984D01*
X2121934Y-8169984D02*
X2074315Y-8169984D01*
X2074315Y-8169984D02*
X2055267Y-8160460D01*
X2055267Y-8160460D02*
X2045743Y-8150936D01*
X2283839Y-7969984D02*
X2302886Y-7969984D01*
X2302886Y-7969984D02*
X2321934Y-7979508D01*
X2321934Y-7979508D02*
X2331458Y-7989031D01*
X2331458Y-7989031D02*
X2340982Y-8008079D01*
X2340982Y-8008079D02*
X2350505Y-8046174D01*
X2350505Y-8046174D02*
X2350505Y-8093793D01*
X2350505Y-8093793D02*
X2340982Y-8131888D01*
X2340982Y-8131888D02*
X2331458Y-8150936D01*
X2331458Y-8150936D02*
X2321934Y-8160460D01*
X2321934Y-8160460D02*
X2302886Y-8169984D01*
X2302886Y-8169984D02*
X2283839Y-8169984D01*
X2283839Y-8169984D02*
X2264791Y-8160460D01*
X2264791Y-8160460D02*
X2255267Y-8150936D01*
X2255267Y-8150936D02*
X2245744Y-8131888D01*
X2245744Y-8131888D02*
X2236220Y-8093793D01*
X2236220Y-8093793D02*
X2236220Y-8046174D01*
X2236220Y-8046174D02*
X2245744Y-8008079D01*
X2245744Y-8008079D02*
X2255267Y-7989031D01*
X2255267Y-7989031D02*
X2264791Y-7979508D01*
X2264791Y-7979508D02*
X2283839Y-7969984D01*
X2436220Y-8169984D02*
X2436220Y-8036650D01*
X2436220Y-8055698D02*
X2445744Y-8046174D01*
X2445744Y-8046174D02*
X2464791Y-8036650D01*
X2464791Y-8036650D02*
X2493363Y-8036650D01*
X2493363Y-8036650D02*
X2512410Y-8046174D01*
X2512410Y-8046174D02*
X2521934Y-8065222D01*
X2521934Y-8065222D02*
X2521934Y-8169984D01*
X2521934Y-8065222D02*
X2531458Y-8046174D01*
X2531458Y-8046174D02*
X2550505Y-8036650D01*
X2550505Y-8036650D02*
X2579077Y-8036650D01*
X2579077Y-8036650D02*
X2598125Y-8046174D01*
X2598125Y-8046174D02*
X2607648Y-8065222D01*
X2607648Y-8065222D02*
X2607648Y-8169984D01*
X2702886Y-8169984D02*
X2702886Y-8036650D01*
X2702886Y-8055698D02*
X2712410Y-8046174D01*
X2712410Y-8046174D02*
X2731458Y-8036650D01*
X2731458Y-8036650D02*
X2760029Y-8036650D01*
X2760029Y-8036650D02*
X2779077Y-8046174D01*
X2779077Y-8046174D02*
X2788601Y-8065222D01*
X2788601Y-8065222D02*
X2788601Y-8169984D01*
X2788601Y-8065222D02*
X2798124Y-8046174D01*
X2798124Y-8046174D02*
X2817172Y-8036650D01*
X2817172Y-8036650D02*
X2845743Y-8036650D01*
X2845743Y-8036650D02*
X2864791Y-8046174D01*
X2864791Y-8046174D02*
X2874315Y-8065222D01*
X2874315Y-8065222D02*
X2874315Y-8169984D01*
X3264791Y-7960460D02*
X3093363Y-8217603D01*
X3521934Y-7969984D02*
X3540982Y-7969984D01*
X3540982Y-7969984D02*
X3560029Y-7979508D01*
X3560029Y-7979508D02*
X3569553Y-7989031D01*
X3569553Y-7989031D02*
X3579077Y-8008079D01*
X3579077Y-8008079D02*
X3588601Y-8046174D01*
X3588601Y-8046174D02*
X3588601Y-8093793D01*
X3588601Y-8093793D02*
X3579077Y-8131888D01*
X3579077Y-8131888D02*
X3569553Y-8150936D01*
X3569553Y-8150936D02*
X3560029Y-8160460D01*
X3560029Y-8160460D02*
X3540982Y-8169984D01*
X3540982Y-8169984D02*
X3521934Y-8169984D01*
X3521934Y-8169984D02*
X3502886Y-8160460D01*
X3502886Y-8160460D02*
X3493363Y-8150936D01*
X3493363Y-8150936D02*
X3483839Y-8131888D01*
X3483839Y-8131888D02*
X3474315Y-8093793D01*
X3474315Y-8093793D02*
X3474315Y-8046174D01*
X3474315Y-8046174D02*
X3483839Y-8008079D01*
X3483839Y-8008079D02*
X3493363Y-7989031D01*
X3493363Y-7989031D02*
X3502886Y-7979508D01*
X3502886Y-7979508D02*
X3521934Y-7969984D01*
X3674315Y-8150936D02*
X3683839Y-8160460D01*
X3683839Y-8160460D02*
X3674315Y-8169984D01*
X3674315Y-8169984D02*
X3664791Y-8160460D01*
X3664791Y-8160460D02*
X3674315Y-8150936D01*
X3674315Y-8150936D02*
X3674315Y-8169984D01*
X3807648Y-7969984D02*
X3826696Y-7969984D01*
X3826696Y-7969984D02*
X3845744Y-7979508D01*
X3845744Y-7979508D02*
X3855267Y-7989031D01*
X3855267Y-7989031D02*
X3864791Y-8008079D01*
X3864791Y-8008079D02*
X3874315Y-8046174D01*
X3874315Y-8046174D02*
X3874315Y-8093793D01*
X3874315Y-8093793D02*
X3864791Y-8131888D01*
X3864791Y-8131888D02*
X3855267Y-8150936D01*
X3855267Y-8150936D02*
X3845744Y-8160460D01*
X3845744Y-8160460D02*
X3826696Y-8169984D01*
X3826696Y-8169984D02*
X3807648Y-8169984D01*
X3807648Y-8169984D02*
X3788601Y-8160460D01*
X3788601Y-8160460D02*
X3779077Y-8150936D01*
X3779077Y-8150936D02*
X3769553Y-8131888D01*
X3769553Y-8131888D02*
X3760029Y-8093793D01*
X3760029Y-8093793D02*
X3760029Y-8046174D01*
X3760029Y-8046174D02*
X3769553Y-8008079D01*
X3769553Y-8008079D02*
X3779077Y-7989031D01*
X3779077Y-7989031D02*
X3788601Y-7979508D01*
X3788601Y-7979508D02*
X3807648Y-7969984D01*
X3940982Y-7969984D02*
X4064791Y-7969984D01*
X4064791Y-7969984D02*
X3998125Y-8046174D01*
X3998125Y-8046174D02*
X4026696Y-8046174D01*
X4026696Y-8046174D02*
X4045744Y-8055698D01*
X4045744Y-8055698D02*
X4055267Y-8065222D01*
X4055267Y-8065222D02*
X4064791Y-8084269D01*
X4064791Y-8084269D02*
X4064791Y-8131888D01*
X4064791Y-8131888D02*
X4055267Y-8150936D01*
X4055267Y-8150936D02*
X4045744Y-8160460D01*
X4045744Y-8160460D02*
X4026696Y-8169984D01*
X4026696Y-8169984D02*
X3969553Y-8169984D01*
X3969553Y-8169984D02*
X3950506Y-8160460D01*
X3950506Y-8160460D02*
X3940982Y-8150936D01*
X4131458Y-7969984D02*
X4264791Y-7969984D01*
X4264791Y-7969984D02*
X4179077Y-8169984D01*
X4426696Y-8036650D02*
X4426696Y-8169984D01*
X4379077Y-7960460D02*
X4331458Y-8103317D01*
X4331458Y-8103317D02*
X4455268Y-8103317D01*
X4521934Y-7969984D02*
X4521934Y-8008079D01*
X4598125Y-7969984D02*
X4598125Y-8008079D01*
X4893363Y-8246174D02*
X4883839Y-8236650D01*
X4883839Y-8236650D02*
X4864791Y-8208079D01*
X4864791Y-8208079D02*
X4855268Y-8189031D01*
X4855268Y-8189031D02*
X4845744Y-8160460D01*
X4845744Y-8160460D02*
X4836220Y-8112841D01*
X4836220Y-8112841D02*
X4836220Y-8074746D01*
X4836220Y-8074746D02*
X4845744Y-8027127D01*
X4845744Y-8027127D02*
X4855268Y-7998555D01*
X4855268Y-7998555D02*
X4864791Y-7979508D01*
X4864791Y-7979508D02*
X4883839Y-7950936D01*
X4883839Y-7950936D02*
X4893363Y-7941412D01*
X5064791Y-7969984D02*
X4969553Y-7969984D01*
X4969553Y-7969984D02*
X4960030Y-8065222D01*
X4960030Y-8065222D02*
X4969553Y-8055698D01*
X4969553Y-8055698D02*
X4988601Y-8046174D01*
X4988601Y-8046174D02*
X5036220Y-8046174D01*
X5036220Y-8046174D02*
X5055268Y-8055698D01*
X5055268Y-8055698D02*
X5064791Y-8065222D01*
X5064791Y-8065222D02*
X5074315Y-8084269D01*
X5074315Y-8084269D02*
X5074315Y-8131888D01*
X5074315Y-8131888D02*
X5064791Y-8150936D01*
X5064791Y-8150936D02*
X5055268Y-8160460D01*
X5055268Y-8160460D02*
X5036220Y-8169984D01*
X5036220Y-8169984D02*
X4988601Y-8169984D01*
X4988601Y-8169984D02*
X4969553Y-8160460D01*
X4969553Y-8160460D02*
X4960030Y-8150936D01*
X5312411Y-8169984D02*
X5312411Y-7969984D01*
X5398125Y-8169984D02*
X5398125Y-8065222D01*
X5398125Y-8065222D02*
X5388601Y-8046174D01*
X5388601Y-8046174D02*
X5369553Y-8036650D01*
X5369553Y-8036650D02*
X5340982Y-8036650D01*
X5340982Y-8036650D02*
X5321934Y-8046174D01*
X5321934Y-8046174D02*
X5312411Y-8055698D01*
X5521934Y-8169984D02*
X5502887Y-8160460D01*
X5502887Y-8160460D02*
X5493363Y-8150936D01*
X5493363Y-8150936D02*
X5483839Y-8131888D01*
X5483839Y-8131888D02*
X5483839Y-8074746D01*
X5483839Y-8074746D02*
X5493363Y-8055698D01*
X5493363Y-8055698D02*
X5502887Y-8046174D01*
X5502887Y-8046174D02*
X5521934Y-8036650D01*
X5521934Y-8036650D02*
X5550506Y-8036650D01*
X5550506Y-8036650D02*
X5569553Y-8046174D01*
X5569553Y-8046174D02*
X5579077Y-8055698D01*
X5579077Y-8055698D02*
X5588601Y-8074746D01*
X5588601Y-8074746D02*
X5588601Y-8131888D01*
X5588601Y-8131888D02*
X5579077Y-8150936D01*
X5579077Y-8150936D02*
X5569553Y-8160460D01*
X5569553Y-8160460D02*
X5550506Y-8169984D01*
X5550506Y-8169984D02*
X5521934Y-8169984D01*
X5702887Y-8169984D02*
X5683839Y-8160460D01*
X5683839Y-8160460D02*
X5674315Y-8141412D01*
X5674315Y-8141412D02*
X5674315Y-7969984D01*
X5855268Y-8160460D02*
X5836220Y-8169984D01*
X5836220Y-8169984D02*
X5798125Y-8169984D01*
X5798125Y-8169984D02*
X5779077Y-8160460D01*
X5779077Y-8160460D02*
X5769553Y-8141412D01*
X5769553Y-8141412D02*
X5769553Y-8065222D01*
X5769553Y-8065222D02*
X5779077Y-8046174D01*
X5779077Y-8046174D02*
X5798125Y-8036650D01*
X5798125Y-8036650D02*
X5836220Y-8036650D01*
X5836220Y-8036650D02*
X5855268Y-8046174D01*
X5855268Y-8046174D02*
X5864791Y-8065222D01*
X5864791Y-8065222D02*
X5864791Y-8084269D01*
X5864791Y-8084269D02*
X5769553Y-8103317D01*
X5940982Y-8160460D02*
X5960030Y-8169984D01*
X5960030Y-8169984D02*
X5998125Y-8169984D01*
X5998125Y-8169984D02*
X6017172Y-8160460D01*
X6017172Y-8160460D02*
X6026696Y-8141412D01*
X6026696Y-8141412D02*
X6026696Y-8131888D01*
X6026696Y-8131888D02*
X6017172Y-8112841D01*
X6017172Y-8112841D02*
X5998125Y-8103317D01*
X5998125Y-8103317D02*
X5969553Y-8103317D01*
X5969553Y-8103317D02*
X5950506Y-8093793D01*
X5950506Y-8093793D02*
X5940982Y-8074746D01*
X5940982Y-8074746D02*
X5940982Y-8065222D01*
X5940982Y-8065222D02*
X5950506Y-8046174D01*
X5950506Y-8046174D02*
X5969553Y-8036650D01*
X5969553Y-8036650D02*
X5998125Y-8036650D01*
X5998125Y-8036650D02*
X6017172Y-8046174D01*
X6093363Y-8246174D02*
X6102887Y-8236650D01*
X6102887Y-8236650D02*
X6121934Y-8208079D01*
X6121934Y-8208079D02*
X6131458Y-8189031D01*
X6131458Y-8189031D02*
X6140982Y-8160460D01*
X6140982Y-8160460D02*
X6150506Y-8112841D01*
X6150506Y-8112841D02*
X6150506Y-8074746D01*
X6150506Y-8074746D02*
X6140982Y-8027127D01*
X6140982Y-8027127D02*
X6131458Y-7998555D01*
X6131458Y-7998555D02*
X6121934Y-7979508D01*
X6121934Y-7979508D02*
X6102887Y-7950936D01*
X6102887Y-7950936D02*
X6093363Y-7941412D01*
D12*
X1218300Y-8292500D02*
X1318300Y-8392500D01*
X1318300Y-8292500D02*
X1218300Y-8392500D01*
X1268300Y-8392500D02*
X1318300Y-8342500D01*
X1268300Y-8292500D01*
X1218300Y-8342500D01*
X1268300Y-8392500D01*
D11*
X1683839Y-8433984D02*
X1569553Y-8433984D01*
X1626696Y-8433984D02*
X1626696Y-8233984D01*
X1626696Y-8233984D02*
X1607648Y-8262555D01*
X1607648Y-8262555D02*
X1588601Y-8281603D01*
X1588601Y-8281603D02*
X1569553Y-8291127D01*
X1769553Y-8414936D02*
X1779077Y-8424460D01*
X1779077Y-8424460D02*
X1769553Y-8433984D01*
X1769553Y-8433984D02*
X1760029Y-8424460D01*
X1760029Y-8424460D02*
X1769553Y-8414936D01*
X1769553Y-8414936D02*
X1769553Y-8433984D01*
X1902886Y-8233984D02*
X1921934Y-8233984D01*
X1921934Y-8233984D02*
X1940982Y-8243508D01*
X1940982Y-8243508D02*
X1950505Y-8253031D01*
X1950505Y-8253031D02*
X1960029Y-8272079D01*
X1960029Y-8272079D02*
X1969553Y-8310174D01*
X1969553Y-8310174D02*
X1969553Y-8357793D01*
X1969553Y-8357793D02*
X1960029Y-8395889D01*
X1960029Y-8395889D02*
X1950505Y-8414936D01*
X1950505Y-8414936D02*
X1940982Y-8424460D01*
X1940982Y-8424460D02*
X1921934Y-8433984D01*
X1921934Y-8433984D02*
X1902886Y-8433984D01*
X1902886Y-8433984D02*
X1883839Y-8424460D01*
X1883839Y-8424460D02*
X1874315Y-8414936D01*
X1874315Y-8414936D02*
X1864791Y-8395889D01*
X1864791Y-8395889D02*
X1855267Y-8357793D01*
X1855267Y-8357793D02*
X1855267Y-8310174D01*
X1855267Y-8310174D02*
X1864791Y-8272079D01*
X1864791Y-8272079D02*
X1874315Y-8253031D01*
X1874315Y-8253031D02*
X1883839Y-8243508D01*
X1883839Y-8243508D02*
X1902886Y-8233984D01*
X2093362Y-8233984D02*
X2112410Y-8233984D01*
X2112410Y-8233984D02*
X2131458Y-8243508D01*
X2131458Y-8243508D02*
X2140982Y-8253031D01*
X2140982Y-8253031D02*
X2150505Y-8272079D01*
X2150505Y-8272079D02*
X2160029Y-8310174D01*
X2160029Y-8310174D02*
X2160029Y-8357793D01*
X2160029Y-8357793D02*
X2150505Y-8395889D01*
X2150505Y-8395889D02*
X2140982Y-8414936D01*
X2140982Y-8414936D02*
X2131458Y-8424460D01*
X2131458Y-8424460D02*
X2112410Y-8433984D01*
X2112410Y-8433984D02*
X2093362Y-8433984D01*
X2093362Y-8433984D02*
X2074315Y-8424460D01*
X2074315Y-8424460D02*
X2064791Y-8414936D01*
X2064791Y-8414936D02*
X2055267Y-8395889D01*
X2055267Y-8395889D02*
X2045743Y-8357793D01*
X2045743Y-8357793D02*
X2045743Y-8310174D01*
X2045743Y-8310174D02*
X2055267Y-8272079D01*
X2055267Y-8272079D02*
X2064791Y-8253031D01*
X2064791Y-8253031D02*
X2074315Y-8243508D01*
X2074315Y-8243508D02*
X2093362Y-8233984D01*
X2283839Y-8233984D02*
X2302886Y-8233984D01*
X2302886Y-8233984D02*
X2321934Y-8243508D01*
X2321934Y-8243508D02*
X2331458Y-8253031D01*
X2331458Y-8253031D02*
X2340982Y-8272079D01*
X2340982Y-8272079D02*
X2350505Y-8310174D01*
X2350505Y-8310174D02*
X2350505Y-8357793D01*
X2350505Y-8357793D02*
X2340982Y-8395889D01*
X2340982Y-8395889D02*
X2331458Y-8414936D01*
X2331458Y-8414936D02*
X2321934Y-8424460D01*
X2321934Y-8424460D02*
X2302886Y-8433984D01*
X2302886Y-8433984D02*
X2283839Y-8433984D01*
X2283839Y-8433984D02*
X2264791Y-8424460D01*
X2264791Y-8424460D02*
X2255267Y-8414936D01*
X2255267Y-8414936D02*
X2245744Y-8395889D01*
X2245744Y-8395889D02*
X2236220Y-8357793D01*
X2236220Y-8357793D02*
X2236220Y-8310174D01*
X2236220Y-8310174D02*
X2245744Y-8272079D01*
X2245744Y-8272079D02*
X2255267Y-8253031D01*
X2255267Y-8253031D02*
X2264791Y-8243508D01*
X2264791Y-8243508D02*
X2283839Y-8233984D01*
X2436220Y-8433984D02*
X2436220Y-8300650D01*
X2436220Y-8319698D02*
X2445744Y-8310174D01*
X2445744Y-8310174D02*
X2464791Y-8300650D01*
X2464791Y-8300650D02*
X2493363Y-8300650D01*
X2493363Y-8300650D02*
X2512410Y-8310174D01*
X2512410Y-8310174D02*
X2521934Y-8329222D01*
X2521934Y-8329222D02*
X2521934Y-8433984D01*
X2521934Y-8329222D02*
X2531458Y-8310174D01*
X2531458Y-8310174D02*
X2550505Y-8300650D01*
X2550505Y-8300650D02*
X2579077Y-8300650D01*
X2579077Y-8300650D02*
X2598125Y-8310174D01*
X2598125Y-8310174D02*
X2607648Y-8329222D01*
X2607648Y-8329222D02*
X2607648Y-8433984D01*
X2702886Y-8433984D02*
X2702886Y-8300650D01*
X2702886Y-8319698D02*
X2712410Y-8310174D01*
X2712410Y-8310174D02*
X2731458Y-8300650D01*
X2731458Y-8300650D02*
X2760029Y-8300650D01*
X2760029Y-8300650D02*
X2779077Y-8310174D01*
X2779077Y-8310174D02*
X2788601Y-8329222D01*
X2788601Y-8329222D02*
X2788601Y-8433984D01*
X2788601Y-8329222D02*
X2798124Y-8310174D01*
X2798124Y-8310174D02*
X2817172Y-8300650D01*
X2817172Y-8300650D02*
X2845743Y-8300650D01*
X2845743Y-8300650D02*
X2864791Y-8310174D01*
X2864791Y-8310174D02*
X2874315Y-8329222D01*
X2874315Y-8329222D02*
X2874315Y-8433984D01*
X3264791Y-8224460D02*
X3093363Y-8481603D01*
X3521934Y-8233984D02*
X3540982Y-8233984D01*
X3540982Y-8233984D02*
X3560029Y-8243508D01*
X3560029Y-8243508D02*
X3569553Y-8253031D01*
X3569553Y-8253031D02*
X3579077Y-8272079D01*
X3579077Y-8272079D02*
X3588601Y-8310174D01*
X3588601Y-8310174D02*
X3588601Y-8357793D01*
X3588601Y-8357793D02*
X3579077Y-8395889D01*
X3579077Y-8395889D02*
X3569553Y-8414936D01*
X3569553Y-8414936D02*
X3560029Y-8424460D01*
X3560029Y-8424460D02*
X3540982Y-8433984D01*
X3540982Y-8433984D02*
X3521934Y-8433984D01*
X3521934Y-8433984D02*
X3502886Y-8424460D01*
X3502886Y-8424460D02*
X3493363Y-8414936D01*
X3493363Y-8414936D02*
X3483839Y-8395889D01*
X3483839Y-8395889D02*
X3474315Y-8357793D01*
X3474315Y-8357793D02*
X3474315Y-8310174D01*
X3474315Y-8310174D02*
X3483839Y-8272079D01*
X3483839Y-8272079D02*
X3493363Y-8253031D01*
X3493363Y-8253031D02*
X3502886Y-8243508D01*
X3502886Y-8243508D02*
X3521934Y-8233984D01*
X3674315Y-8414936D02*
X3683839Y-8424460D01*
X3683839Y-8424460D02*
X3674315Y-8433984D01*
X3674315Y-8433984D02*
X3664791Y-8424460D01*
X3664791Y-8424460D02*
X3674315Y-8414936D01*
X3674315Y-8414936D02*
X3674315Y-8433984D01*
X3807648Y-8233984D02*
X3826696Y-8233984D01*
X3826696Y-8233984D02*
X3845744Y-8243508D01*
X3845744Y-8243508D02*
X3855267Y-8253031D01*
X3855267Y-8253031D02*
X3864791Y-8272079D01*
X3864791Y-8272079D02*
X3874315Y-8310174D01*
X3874315Y-8310174D02*
X3874315Y-8357793D01*
X3874315Y-8357793D02*
X3864791Y-8395889D01*
X3864791Y-8395889D02*
X3855267Y-8414936D01*
X3855267Y-8414936D02*
X3845744Y-8424460D01*
X3845744Y-8424460D02*
X3826696Y-8433984D01*
X3826696Y-8433984D02*
X3807648Y-8433984D01*
X3807648Y-8433984D02*
X3788601Y-8424460D01*
X3788601Y-8424460D02*
X3779077Y-8414936D01*
X3779077Y-8414936D02*
X3769553Y-8395889D01*
X3769553Y-8395889D02*
X3760029Y-8357793D01*
X3760029Y-8357793D02*
X3760029Y-8310174D01*
X3760029Y-8310174D02*
X3769553Y-8272079D01*
X3769553Y-8272079D02*
X3779077Y-8253031D01*
X3779077Y-8253031D02*
X3788601Y-8243508D01*
X3788601Y-8243508D02*
X3807648Y-8233984D01*
X3940982Y-8233984D02*
X4064791Y-8233984D01*
X4064791Y-8233984D02*
X3998125Y-8310174D01*
X3998125Y-8310174D02*
X4026696Y-8310174D01*
X4026696Y-8310174D02*
X4045744Y-8319698D01*
X4045744Y-8319698D02*
X4055267Y-8329222D01*
X4055267Y-8329222D02*
X4064791Y-8348269D01*
X4064791Y-8348269D02*
X4064791Y-8395889D01*
X4064791Y-8395889D02*
X4055267Y-8414936D01*
X4055267Y-8414936D02*
X4045744Y-8424460D01*
X4045744Y-8424460D02*
X4026696Y-8433984D01*
X4026696Y-8433984D02*
X3969553Y-8433984D01*
X3969553Y-8433984D02*
X3950506Y-8424460D01*
X3950506Y-8424460D02*
X3940982Y-8414936D01*
X4160029Y-8433984D02*
X4198125Y-8433984D01*
X4198125Y-8433984D02*
X4217172Y-8424460D01*
X4217172Y-8424460D02*
X4226696Y-8414936D01*
X4226696Y-8414936D02*
X4245744Y-8386365D01*
X4245744Y-8386365D02*
X4255268Y-8348269D01*
X4255268Y-8348269D02*
X4255268Y-8272079D01*
X4255268Y-8272079D02*
X4245744Y-8253031D01*
X4245744Y-8253031D02*
X4236220Y-8243508D01*
X4236220Y-8243508D02*
X4217172Y-8233984D01*
X4217172Y-8233984D02*
X4179077Y-8233984D01*
X4179077Y-8233984D02*
X4160029Y-8243508D01*
X4160029Y-8243508D02*
X4150506Y-8253031D01*
X4150506Y-8253031D02*
X4140982Y-8272079D01*
X4140982Y-8272079D02*
X4140982Y-8319698D01*
X4140982Y-8319698D02*
X4150506Y-8338746D01*
X4150506Y-8338746D02*
X4160029Y-8348269D01*
X4160029Y-8348269D02*
X4179077Y-8357793D01*
X4179077Y-8357793D02*
X4217172Y-8357793D01*
X4217172Y-8357793D02*
X4236220Y-8348269D01*
X4236220Y-8348269D02*
X4245744Y-8338746D01*
X4245744Y-8338746D02*
X4255268Y-8319698D01*
X4426696Y-8300650D02*
X4426696Y-8433984D01*
X4379077Y-8224460D02*
X4331458Y-8367317D01*
X4331458Y-8367317D02*
X4455268Y-8367317D01*
X4521934Y-8233984D02*
X4521934Y-8272079D01*
X4598125Y-8233984D02*
X4598125Y-8272079D01*
X4893363Y-8510174D02*
X4883839Y-8500650D01*
X4883839Y-8500650D02*
X4864791Y-8472079D01*
X4864791Y-8472079D02*
X4855268Y-8453031D01*
X4855268Y-8453031D02*
X4845744Y-8424460D01*
X4845744Y-8424460D02*
X4836220Y-8376841D01*
X4836220Y-8376841D02*
X4836220Y-8338746D01*
X4836220Y-8338746D02*
X4845744Y-8291127D01*
X4845744Y-8291127D02*
X4855268Y-8262555D01*
X4855268Y-8262555D02*
X4864791Y-8243508D01*
X4864791Y-8243508D02*
X4883839Y-8214936D01*
X4883839Y-8214936D02*
X4893363Y-8205412D01*
X5055268Y-8233984D02*
X5017172Y-8233984D01*
X5017172Y-8233984D02*
X4998125Y-8243508D01*
X4998125Y-8243508D02*
X4988601Y-8253031D01*
X4988601Y-8253031D02*
X4969553Y-8281603D01*
X4969553Y-8281603D02*
X4960030Y-8319698D01*
X4960030Y-8319698D02*
X4960030Y-8395889D01*
X4960030Y-8395889D02*
X4969553Y-8414936D01*
X4969553Y-8414936D02*
X4979077Y-8424460D01*
X4979077Y-8424460D02*
X4998125Y-8433984D01*
X4998125Y-8433984D02*
X5036220Y-8433984D01*
X5036220Y-8433984D02*
X5055268Y-8424460D01*
X5055268Y-8424460D02*
X5064791Y-8414936D01*
X5064791Y-8414936D02*
X5074315Y-8395889D01*
X5074315Y-8395889D02*
X5074315Y-8348269D01*
X5074315Y-8348269D02*
X5064791Y-8329222D01*
X5064791Y-8329222D02*
X5055268Y-8319698D01*
X5055268Y-8319698D02*
X5036220Y-8310174D01*
X5036220Y-8310174D02*
X4998125Y-8310174D01*
X4998125Y-8310174D02*
X4979077Y-8319698D01*
X4979077Y-8319698D02*
X4969553Y-8329222D01*
X4969553Y-8329222D02*
X4960030Y-8348269D01*
X5312411Y-8433984D02*
X5312411Y-8233984D01*
X5398125Y-8433984D02*
X5398125Y-8329222D01*
X5398125Y-8329222D02*
X5388601Y-8310174D01*
X5388601Y-8310174D02*
X5369553Y-8300650D01*
X5369553Y-8300650D02*
X5340982Y-8300650D01*
X5340982Y-8300650D02*
X5321934Y-8310174D01*
X5321934Y-8310174D02*
X5312411Y-8319698D01*
X5521934Y-8433984D02*
X5502887Y-8424460D01*
X5502887Y-8424460D02*
X5493363Y-8414936D01*
X5493363Y-8414936D02*
X5483839Y-8395889D01*
X5483839Y-8395889D02*
X5483839Y-8338746D01*
X5483839Y-8338746D02*
X5493363Y-8319698D01*
X5493363Y-8319698D02*
X5502887Y-8310174D01*
X5502887Y-8310174D02*
X5521934Y-8300650D01*
X5521934Y-8300650D02*
X5550506Y-8300650D01*
X5550506Y-8300650D02*
X5569553Y-8310174D01*
X5569553Y-8310174D02*
X5579077Y-8319698D01*
X5579077Y-8319698D02*
X5588601Y-8338746D01*
X5588601Y-8338746D02*
X5588601Y-8395889D01*
X5588601Y-8395889D02*
X5579077Y-8414936D01*
X5579077Y-8414936D02*
X5569553Y-8424460D01*
X5569553Y-8424460D02*
X5550506Y-8433984D01*
X5550506Y-8433984D02*
X5521934Y-8433984D01*
X5702887Y-8433984D02*
X5683839Y-8424460D01*
X5683839Y-8424460D02*
X5674315Y-8405412D01*
X5674315Y-8405412D02*
X5674315Y-8233984D01*
X5855268Y-8424460D02*
X5836220Y-8433984D01*
X5836220Y-8433984D02*
X5798125Y-8433984D01*
X5798125Y-8433984D02*
X5779077Y-8424460D01*
X5779077Y-8424460D02*
X5769553Y-8405412D01*
X5769553Y-8405412D02*
X5769553Y-8329222D01*
X5769553Y-8329222D02*
X5779077Y-8310174D01*
X5779077Y-8310174D02*
X5798125Y-8300650D01*
X5798125Y-8300650D02*
X5836220Y-8300650D01*
X5836220Y-8300650D02*
X5855268Y-8310174D01*
X5855268Y-8310174D02*
X5864791Y-8329222D01*
X5864791Y-8329222D02*
X5864791Y-8348269D01*
X5864791Y-8348269D02*
X5769553Y-8367317D01*
X5940982Y-8424460D02*
X5960030Y-8433984D01*
X5960030Y-8433984D02*
X5998125Y-8433984D01*
X5998125Y-8433984D02*
X6017172Y-8424460D01*
X6017172Y-8424460D02*
X6026696Y-8405412D01*
X6026696Y-8405412D02*
X6026696Y-8395889D01*
X6026696Y-8395889D02*
X6017172Y-8376841D01*
X6017172Y-8376841D02*
X5998125Y-8367317D01*
X5998125Y-8367317D02*
X5969553Y-8367317D01*
X5969553Y-8367317D02*
X5950506Y-8357793D01*
X5950506Y-8357793D02*
X5940982Y-8338746D01*
X5940982Y-8338746D02*
X5940982Y-8329222D01*
X5940982Y-8329222D02*
X5950506Y-8310174D01*
X5950506Y-8310174D02*
X5969553Y-8300650D01*
X5969553Y-8300650D02*
X5998125Y-8300650D01*
X5998125Y-8300650D02*
X6017172Y-8310174D01*
X6093363Y-8510174D02*
X6102887Y-8500650D01*
X6102887Y-8500650D02*
X6121934Y-8472079D01*
X6121934Y-8472079D02*
X6131458Y-8453031D01*
X6131458Y-8453031D02*
X6140982Y-8424460D01*
X6140982Y-8424460D02*
X6150506Y-8376841D01*
X6150506Y-8376841D02*
X6150506Y-8338746D01*
X6150506Y-8338746D02*
X6140982Y-8291127D01*
X6140982Y-8291127D02*
X6131458Y-8262555D01*
X6131458Y-8262555D02*
X6121934Y-8243508D01*
X6121934Y-8243508D02*
X6102887Y-8214936D01*
X6102887Y-8214936D02*
X6093363Y-8205412D01*
D13*
X1258300Y-8546500D02*
X1258300Y-8666500D01*
X1198300Y-8606500D02*
X1318300Y-8606500D01*
X1318300Y-8606500D02*
G75*
G02*
X1198300Y-8606500I-60000J0D01*
G01*
X1198300Y-8606500D02*
G75*
G02*
X1318300Y-8606500I60000J0D01*
G01*
D11*
X1683839Y-8697984D02*
X1569553Y-8697984D01*
X1626696Y-8697984D02*
X1626696Y-8497984D01*
X1626696Y-8497984D02*
X1607648Y-8526555D01*
X1607648Y-8526555D02*
X1588601Y-8545603D01*
X1588601Y-8545603D02*
X1569553Y-8555127D01*
X1769553Y-8678936D02*
X1779077Y-8688460D01*
X1779077Y-8688460D02*
X1769553Y-8697984D01*
X1769553Y-8697984D02*
X1760029Y-8688460D01*
X1760029Y-8688460D02*
X1769553Y-8678936D01*
X1769553Y-8678936D02*
X1769553Y-8697984D01*
X1855267Y-8517031D02*
X1864791Y-8507508D01*
X1864791Y-8507508D02*
X1883839Y-8497984D01*
X1883839Y-8497984D02*
X1931458Y-8497984D01*
X1931458Y-8497984D02*
X1950505Y-8507508D01*
X1950505Y-8507508D02*
X1960029Y-8517031D01*
X1960029Y-8517031D02*
X1969553Y-8536079D01*
X1969553Y-8536079D02*
X1969553Y-8555127D01*
X1969553Y-8555127D02*
X1960029Y-8583698D01*
X1960029Y-8583698D02*
X1845743Y-8697984D01*
X1845743Y-8697984D02*
X1969553Y-8697984D01*
X2093362Y-8497984D02*
X2112410Y-8497984D01*
X2112410Y-8497984D02*
X2131458Y-8507508D01*
X2131458Y-8507508D02*
X2140982Y-8517031D01*
X2140982Y-8517031D02*
X2150505Y-8536079D01*
X2150505Y-8536079D02*
X2160029Y-8574174D01*
X2160029Y-8574174D02*
X2160029Y-8621793D01*
X2160029Y-8621793D02*
X2150505Y-8659889D01*
X2150505Y-8659889D02*
X2140982Y-8678936D01*
X2140982Y-8678936D02*
X2131458Y-8688460D01*
X2131458Y-8688460D02*
X2112410Y-8697984D01*
X2112410Y-8697984D02*
X2093362Y-8697984D01*
X2093362Y-8697984D02*
X2074315Y-8688460D01*
X2074315Y-8688460D02*
X2064791Y-8678936D01*
X2064791Y-8678936D02*
X2055267Y-8659889D01*
X2055267Y-8659889D02*
X2045743Y-8621793D01*
X2045743Y-8621793D02*
X2045743Y-8574174D01*
X2045743Y-8574174D02*
X2055267Y-8536079D01*
X2055267Y-8536079D02*
X2064791Y-8517031D01*
X2064791Y-8517031D02*
X2074315Y-8507508D01*
X2074315Y-8507508D02*
X2093362Y-8497984D01*
X2283839Y-8497984D02*
X2302886Y-8497984D01*
X2302886Y-8497984D02*
X2321934Y-8507508D01*
X2321934Y-8507508D02*
X2331458Y-8517031D01*
X2331458Y-8517031D02*
X2340982Y-8536079D01*
X2340982Y-8536079D02*
X2350505Y-8574174D01*
X2350505Y-8574174D02*
X2350505Y-8621793D01*
X2350505Y-8621793D02*
X2340982Y-8659889D01*
X2340982Y-8659889D02*
X2331458Y-8678936D01*
X2331458Y-8678936D02*
X2321934Y-8688460D01*
X2321934Y-8688460D02*
X2302886Y-8697984D01*
X2302886Y-8697984D02*
X2283839Y-8697984D01*
X2283839Y-8697984D02*
X2264791Y-8688460D01*
X2264791Y-8688460D02*
X2255267Y-8678936D01*
X2255267Y-8678936D02*
X2245744Y-8659889D01*
X2245744Y-8659889D02*
X2236220Y-8621793D01*
X2236220Y-8621793D02*
X2236220Y-8574174D01*
X2236220Y-8574174D02*
X2245744Y-8536079D01*
X2245744Y-8536079D02*
X2255267Y-8517031D01*
X2255267Y-8517031D02*
X2264791Y-8507508D01*
X2264791Y-8507508D02*
X2283839Y-8497984D01*
X2436220Y-8697984D02*
X2436220Y-8564650D01*
X2436220Y-8583698D02*
X2445744Y-8574174D01*
X2445744Y-8574174D02*
X2464791Y-8564650D01*
X2464791Y-8564650D02*
X2493363Y-8564650D01*
X2493363Y-8564650D02*
X2512410Y-8574174D01*
X2512410Y-8574174D02*
X2521934Y-8593222D01*
X2521934Y-8593222D02*
X2521934Y-8697984D01*
X2521934Y-8593222D02*
X2531458Y-8574174D01*
X2531458Y-8574174D02*
X2550505Y-8564650D01*
X2550505Y-8564650D02*
X2579077Y-8564650D01*
X2579077Y-8564650D02*
X2598125Y-8574174D01*
X2598125Y-8574174D02*
X2607648Y-8593222D01*
X2607648Y-8593222D02*
X2607648Y-8697984D01*
X2702886Y-8697984D02*
X2702886Y-8564650D01*
X2702886Y-8583698D02*
X2712410Y-8574174D01*
X2712410Y-8574174D02*
X2731458Y-8564650D01*
X2731458Y-8564650D02*
X2760029Y-8564650D01*
X2760029Y-8564650D02*
X2779077Y-8574174D01*
X2779077Y-8574174D02*
X2788601Y-8593222D01*
X2788601Y-8593222D02*
X2788601Y-8697984D01*
X2788601Y-8593222D02*
X2798124Y-8574174D01*
X2798124Y-8574174D02*
X2817172Y-8564650D01*
X2817172Y-8564650D02*
X2845743Y-8564650D01*
X2845743Y-8564650D02*
X2864791Y-8574174D01*
X2864791Y-8574174D02*
X2874315Y-8593222D01*
X2874315Y-8593222D02*
X2874315Y-8697984D01*
X3264791Y-8488460D02*
X3093363Y-8745603D01*
X3521934Y-8497984D02*
X3540982Y-8497984D01*
X3540982Y-8497984D02*
X3560029Y-8507508D01*
X3560029Y-8507508D02*
X3569553Y-8517031D01*
X3569553Y-8517031D02*
X3579077Y-8536079D01*
X3579077Y-8536079D02*
X3588601Y-8574174D01*
X3588601Y-8574174D02*
X3588601Y-8621793D01*
X3588601Y-8621793D02*
X3579077Y-8659889D01*
X3579077Y-8659889D02*
X3569553Y-8678936D01*
X3569553Y-8678936D02*
X3560029Y-8688460D01*
X3560029Y-8688460D02*
X3540982Y-8697984D01*
X3540982Y-8697984D02*
X3521934Y-8697984D01*
X3521934Y-8697984D02*
X3502886Y-8688460D01*
X3502886Y-8688460D02*
X3493363Y-8678936D01*
X3493363Y-8678936D02*
X3483839Y-8659889D01*
X3483839Y-8659889D02*
X3474315Y-8621793D01*
X3474315Y-8621793D02*
X3474315Y-8574174D01*
X3474315Y-8574174D02*
X3483839Y-8536079D01*
X3483839Y-8536079D02*
X3493363Y-8517031D01*
X3493363Y-8517031D02*
X3502886Y-8507508D01*
X3502886Y-8507508D02*
X3521934Y-8497984D01*
X3674315Y-8678936D02*
X3683839Y-8688460D01*
X3683839Y-8688460D02*
X3674315Y-8697984D01*
X3674315Y-8697984D02*
X3664791Y-8688460D01*
X3664791Y-8688460D02*
X3674315Y-8678936D01*
X3674315Y-8678936D02*
X3674315Y-8697984D01*
X3807648Y-8497984D02*
X3826696Y-8497984D01*
X3826696Y-8497984D02*
X3845744Y-8507508D01*
X3845744Y-8507508D02*
X3855267Y-8517031D01*
X3855267Y-8517031D02*
X3864791Y-8536079D01*
X3864791Y-8536079D02*
X3874315Y-8574174D01*
X3874315Y-8574174D02*
X3874315Y-8621793D01*
X3874315Y-8621793D02*
X3864791Y-8659889D01*
X3864791Y-8659889D02*
X3855267Y-8678936D01*
X3855267Y-8678936D02*
X3845744Y-8688460D01*
X3845744Y-8688460D02*
X3826696Y-8697984D01*
X3826696Y-8697984D02*
X3807648Y-8697984D01*
X3807648Y-8697984D02*
X3788601Y-8688460D01*
X3788601Y-8688460D02*
X3779077Y-8678936D01*
X3779077Y-8678936D02*
X3769553Y-8659889D01*
X3769553Y-8659889D02*
X3760029Y-8621793D01*
X3760029Y-8621793D02*
X3760029Y-8574174D01*
X3760029Y-8574174D02*
X3769553Y-8536079D01*
X3769553Y-8536079D02*
X3779077Y-8517031D01*
X3779077Y-8517031D02*
X3788601Y-8507508D01*
X3788601Y-8507508D02*
X3807648Y-8497984D01*
X4045744Y-8564650D02*
X4045744Y-8697984D01*
X3998125Y-8488460D02*
X3950506Y-8631317D01*
X3950506Y-8631317D02*
X4074315Y-8631317D01*
X4131458Y-8497984D02*
X4264791Y-8497984D01*
X4264791Y-8497984D02*
X4179077Y-8697984D01*
X4331458Y-8517031D02*
X4340982Y-8507508D01*
X4340982Y-8507508D02*
X4360029Y-8497984D01*
X4360029Y-8497984D02*
X4407649Y-8497984D01*
X4407649Y-8497984D02*
X4426696Y-8507508D01*
X4426696Y-8507508D02*
X4436220Y-8517031D01*
X4436220Y-8517031D02*
X4445744Y-8536079D01*
X4445744Y-8536079D02*
X4445744Y-8555127D01*
X4445744Y-8555127D02*
X4436220Y-8583698D01*
X4436220Y-8583698D02*
X4321934Y-8697984D01*
X4321934Y-8697984D02*
X4445744Y-8697984D01*
X4521934Y-8497984D02*
X4521934Y-8536079D01*
X4598125Y-8497984D02*
X4598125Y-8536079D01*
X4893363Y-8774174D02*
X4883839Y-8764650D01*
X4883839Y-8764650D02*
X4864791Y-8736079D01*
X4864791Y-8736079D02*
X4855268Y-8717031D01*
X4855268Y-8717031D02*
X4845744Y-8688460D01*
X4845744Y-8688460D02*
X4836220Y-8640841D01*
X4836220Y-8640841D02*
X4836220Y-8602746D01*
X4836220Y-8602746D02*
X4845744Y-8555127D01*
X4845744Y-8555127D02*
X4855268Y-8526555D01*
X4855268Y-8526555D02*
X4864791Y-8507508D01*
X4864791Y-8507508D02*
X4883839Y-8478936D01*
X4883839Y-8478936D02*
X4893363Y-8469412D01*
X4960030Y-8517031D02*
X4969553Y-8507508D01*
X4969553Y-8507508D02*
X4988601Y-8497984D01*
X4988601Y-8497984D02*
X5036220Y-8497984D01*
X5036220Y-8497984D02*
X5055268Y-8507508D01*
X5055268Y-8507508D02*
X5064791Y-8517031D01*
X5064791Y-8517031D02*
X5074315Y-8536079D01*
X5074315Y-8536079D02*
X5074315Y-8555127D01*
X5074315Y-8555127D02*
X5064791Y-8583698D01*
X5064791Y-8583698D02*
X4950506Y-8697984D01*
X4950506Y-8697984D02*
X5074315Y-8697984D01*
X5245744Y-8564650D02*
X5245744Y-8697984D01*
X5198125Y-8488460D02*
X5150506Y-8631317D01*
X5150506Y-8631317D02*
X5274315Y-8631317D01*
X5502887Y-8697984D02*
X5502887Y-8497984D01*
X5588601Y-8697984D02*
X5588601Y-8593222D01*
X5588601Y-8593222D02*
X5579077Y-8574174D01*
X5579077Y-8574174D02*
X5560030Y-8564650D01*
X5560030Y-8564650D02*
X5531458Y-8564650D01*
X5531458Y-8564650D02*
X5512411Y-8574174D01*
X5512411Y-8574174D02*
X5502887Y-8583698D01*
X5712410Y-8697984D02*
X5693363Y-8688460D01*
X5693363Y-8688460D02*
X5683839Y-8678936D01*
X5683839Y-8678936D02*
X5674315Y-8659889D01*
X5674315Y-8659889D02*
X5674315Y-8602746D01*
X5674315Y-8602746D02*
X5683839Y-8583698D01*
X5683839Y-8583698D02*
X5693363Y-8574174D01*
X5693363Y-8574174D02*
X5712410Y-8564650D01*
X5712410Y-8564650D02*
X5740982Y-8564650D01*
X5740982Y-8564650D02*
X5760030Y-8574174D01*
X5760030Y-8574174D02*
X5769553Y-8583698D01*
X5769553Y-8583698D02*
X5779077Y-8602746D01*
X5779077Y-8602746D02*
X5779077Y-8659889D01*
X5779077Y-8659889D02*
X5769553Y-8678936D01*
X5769553Y-8678936D02*
X5760030Y-8688460D01*
X5760030Y-8688460D02*
X5740982Y-8697984D01*
X5740982Y-8697984D02*
X5712410Y-8697984D01*
X5893363Y-8697984D02*
X5874315Y-8688460D01*
X5874315Y-8688460D02*
X5864791Y-8669412D01*
X5864791Y-8669412D02*
X5864791Y-8497984D01*
X6045744Y-8688460D02*
X6026696Y-8697984D01*
X6026696Y-8697984D02*
X5988601Y-8697984D01*
X5988601Y-8697984D02*
X5969553Y-8688460D01*
X5969553Y-8688460D02*
X5960030Y-8669412D01*
X5960030Y-8669412D02*
X5960030Y-8593222D01*
X5960030Y-8593222D02*
X5969553Y-8574174D01*
X5969553Y-8574174D02*
X5988601Y-8564650D01*
X5988601Y-8564650D02*
X6026696Y-8564650D01*
X6026696Y-8564650D02*
X6045744Y-8574174D01*
X6045744Y-8574174D02*
X6055268Y-8593222D01*
X6055268Y-8593222D02*
X6055268Y-8612270D01*
X6055268Y-8612270D02*
X5960030Y-8631317D01*
X6131458Y-8688460D02*
X6150506Y-8697984D01*
X6150506Y-8697984D02*
X6188601Y-8697984D01*
X6188601Y-8697984D02*
X6207649Y-8688460D01*
X6207649Y-8688460D02*
X6217172Y-8669412D01*
X6217172Y-8669412D02*
X6217172Y-8659889D01*
X6217172Y-8659889D02*
X6207649Y-8640841D01*
X6207649Y-8640841D02*
X6188601Y-8631317D01*
X6188601Y-8631317D02*
X6160030Y-8631317D01*
X6160030Y-8631317D02*
X6140982Y-8621793D01*
X6140982Y-8621793D02*
X6131458Y-8602746D01*
X6131458Y-8602746D02*
X6131458Y-8593222D01*
X6131458Y-8593222D02*
X6140982Y-8574174D01*
X6140982Y-8574174D02*
X6160030Y-8564650D01*
X6160030Y-8564650D02*
X6188601Y-8564650D01*
X6188601Y-8564650D02*
X6207649Y-8574174D01*
X6283839Y-8774174D02*
X6293363Y-8764650D01*
X6293363Y-8764650D02*
X6312411Y-8736079D01*
X6312411Y-8736079D02*
X6321934Y-8717031D01*
X6321934Y-8717031D02*
X6331458Y-8688460D01*
X6331458Y-8688460D02*
X6340982Y-8640841D01*
X6340982Y-8640841D02*
X6340982Y-8602746D01*
X6340982Y-8602746D02*
X6331458Y-8555127D01*
X6331458Y-8555127D02*
X6321934Y-8526555D01*
X6321934Y-8526555D02*
X6312411Y-8507508D01*
X6312411Y-8507508D02*
X6293363Y-8478936D01*
X6293363Y-8478936D02*
X6283839Y-8469412D01*
M02*
