M48
; DRILL file {KiCad 9.0.2} date 2025-07-11T17:02:37-0700
; FORMAT={-:-/ absolute / metric / decimal}
; #@! TF.CreationDate,2025-07-11T17:02:37-07:00
; #@! TF.GenerationSoftware,Kicad,Pcbnew,9.0.2
; #@! TF.FileFunction,Plated,1,2,PTH
FMAT,2
METRIC
; #@! TA.AperFunction,Plated,PTH,ViaDrill
T1C0.300
; #@! TA.AperFunction,Plated,PTH,ComponentDrill
T2C0.600
; #@! TA.AperFunction,Plated,PTH,ComponentDrill
T3C0.733
; #@! TA.AperFunction,Plated,PTH,ComponentDrill
T4C0.750
; #@! TA.AperFunction,Plated,PTH,ComponentDrill
T5C0.800
; #@! TA.AperFunction,Plated,PTH,ComponentDrill
T6C0.800
; #@! TA.AperFunction,Plated,PTH,ComponentDrill
T7C0.900
; #@! TA.AperFunction,Plated,PTH,ComponentDrill
T8C0.950
; #@! TA.AperFunction,Plated,PTH,ComponentDrill
T9C1.000
; #@! TA.AperFunction,Plated,PTH,ComponentDrill
T10C1.200
%
G90
G05
T1
X47.371Y-41.021
X50.165Y-41.021
X52.832Y-35.814
X52.832Y-40.386
X53.594Y-47.752
X61.384Y-25.492
X64.516Y-20.736
X66.04Y-29.21
X66.675Y-47.244
X69.804Y-26.0
X70.104Y-45.974
X70.739Y-49.657
X75.946Y-21.936
X75.946Y-24.114
X84.582Y-28.448
X84.582Y-36.322
X85.382Y-28.448
X85.382Y-36.322
X92.964Y-46.99
X95.504Y-24.114
X108.204Y-27.051
X111.76Y-23.495
T2
X42.926Y-39.116
X42.926Y-41.116
X106.426Y-51.816
X108.426Y-51.816
X114.808Y-43.18
X116.808Y-43.18
T3
X50.038Y-16.256
X50.038Y-18.796
X50.038Y-21.336
X50.038Y-23.876
X50.038Y-26.416
X50.038Y-28.956
X50.038Y-31.496
X50.038Y-34.036
X50.038Y-36.576
X50.038Y-39.116
X57.976Y-16.256
X57.976Y-18.796
X57.976Y-21.336
X57.976Y-23.876
X57.976Y-26.416
X57.976Y-28.956
X57.976Y-31.496
X57.976Y-34.036
X57.976Y-36.576
X57.976Y-39.116
T4
X43.286Y-44.704
X43.286Y-45.974
X43.286Y-47.244
X43.434Y-50.8
X43.434Y-52.07
X43.434Y-53.34
X50.398Y-44.704
X50.398Y-45.974
X50.398Y-47.244
X50.398Y-50.8
X50.398Y-52.07
X50.398Y-53.34
X57.15Y-44.704
X57.15Y-45.974
X57.15Y-47.244
X57.15Y-50.8
X57.15Y-52.07
X57.15Y-53.34
T6
X20.828Y-51.328
X20.828Y-53.828
X23.876Y-15.748
X23.876Y-19.812
X23.876Y-23.876
X23.876Y-27.94
X23.876Y-32.004
X23.876Y-36.068
X24.892Y-41.148
X24.892Y-53.848
X29.21Y-41.148
X29.21Y-53.848
X33.528Y-41.148
X33.528Y-53.848
X36.576Y-15.748
X36.576Y-19.812
X36.576Y-23.876
X36.576Y-27.94
X36.576Y-32.004
X36.576Y-36.068
X37.846Y-41.148
X37.846Y-53.848
X64.262Y-40.64
X64.262Y-53.34
X68.326Y-40.64
X68.326Y-53.34
X72.39Y-40.64
X72.39Y-53.34
X76.454Y-40.64
X76.454Y-53.34
X80.518Y-40.64
X80.518Y-53.34
X84.582Y-40.64
X84.582Y-53.34
X88.646Y-40.64
X88.646Y-53.34
X92.71Y-40.64
X92.71Y-53.34
X96.774Y-40.64
X96.774Y-53.34
X100.838Y-40.64
X100.838Y-53.34
X105.41Y-41.148
X105.41Y-44.323
X105.41Y-47.498
X109.474Y-44.323
X109.474Y-47.498
X109.488Y-41.148
T7
X39.624Y-15.132
X39.624Y-17.672
X39.624Y-20.212
X39.624Y-22.752
X39.624Y-28.194
X39.624Y-30.734
X39.624Y-33.274
X39.624Y-35.814
X47.244Y-15.132
X47.244Y-17.672
X47.244Y-20.212
X47.244Y-22.752
X47.244Y-28.194
X47.244Y-30.734
X47.244Y-33.274
X47.244Y-35.814
T8
X17.797Y-16.463
X17.797Y-18.963
X17.797Y-21.463
X17.797Y-23.963
X17.797Y-26.463
T9
X17.907Y-43.688
X17.907Y-46.188
X113.466Y-33.548
X113.466Y-36.048
X113.538Y-16.55
X113.538Y-19.05
T10
X63.754Y-17.526
X63.754Y-35.052
X66.294Y-17.526
X66.294Y-35.052
X68.834Y-17.526
X68.834Y-35.052
X75.946Y-17.526
X75.946Y-35.052
X78.486Y-17.526
X78.486Y-35.052
X81.026Y-17.526
X81.026Y-35.052
X88.138Y-17.526
X88.138Y-35.052
X90.678Y-17.526
X90.678Y-35.052
X93.218Y-17.526
X93.218Y-35.052
X100.33Y-17.526
X100.33Y-35.052
X102.87Y-17.526
X102.87Y-35.052
X105.41Y-17.526
X105.41Y-35.052
T5
X17.78Y-33.066G85X17.78Y-32.466
G05
X17.78Y-35.606G85X17.78Y-35.006
G05
X17.78Y-38.146G85X17.78Y-37.546
G05
M30
